<?xml version="1.0" encoding="UTF-8" standalone="no"?>
<svg width="13px" height="14px" viewBox="0 0 13 14" version="1.1" xmlns="http://www.w3.org/2000/svg" xmlns:xlink="http://www.w3.org/1999/xlink">
    <!-- Generator: Sketch 39 (31667) - http://www.bohemiancoding.com/sketch -->
    <title>Page 1</title>
    <desc>Created with Sketch.</desc>
    <defs></defs>
    <g id="Page-1" stroke="none" stroke-width="1" fill="none" fill-rule="evenodd">
        <g id="05-MiniaturasMagicas-Mobile-MinhaConta-MeusPedidos-Detalhe" transform="translate(-132.000000, -629.000000)" fill="#FFFFFF">
            <g id="Group-3" transform="translate(15.000000, 624.000000)">
                <g id="Group-3-Copy" transform="translate(108.000000, 0.000000)">
                    <g id="Page-1" transform="translate(9.000000, 5.000000)">
                        <path d="M4.65359679,2.7097038 L8.29897857,2.7097038 L8.29897857,2.60746626 C8.29897857,1.6026757 7.48148719,0.78518432 6.47628768,0.78518432 C5.47149712,0.78518432 4.65359679,1.6026757 4.65359679,2.60746626 L4.65359679,2.7097038 Z M4.19352785,4.62318163 C4.05080424,4.62318163 3.93507134,4.73891453 3.93507134,4.88163814 C3.93507134,5.0239528 4.05080424,5.13968569 4.19352785,5.13968569 C4.33584251,5.13968569 4.4515754,5.0239528 4.4515754,4.88163814 C4.4515754,4.73891453 4.33584251,4.62318163 4.19352785,4.62318163 L4.19352785,4.62318163 Z M8.75904751,4.62318163 C8.61673285,4.62318163 8.50099995,4.73891453 8.50099995,4.88163814 C8.50099995,5.0239528 8.61673285,5.13968569 8.75904751,5.13968569 C8.90136217,5.13968569 9.01709506,5.0239528 9.01709506,4.88163814 C9.01709506,4.73891453 8.90136217,4.62318163 8.75904751,4.62318163 L8.75904751,4.62318163 Z M1.44620063,3.49488812 C1.3644106,3.49488812 1.31574553,3.57504236 1.31165602,3.65069814 L0.785337161,13.1031723 C0.78370136,13.130163 0.799650416,13.1534732 0.813145772,13.1677864 C0.840545433,13.1968219 0.88144045,13.2148157 0.919472815,13.2148157 L12.0331025,13.2148157 C12.070317,13.2148157 12.1108031,13.1968219 12.1386117,13.1669685 C12.1500623,13.155109 12.1692829,13.1305719 12.1676471,13.1027633 L11.6409193,3.65069814 C11.6368298,3.57422446 11.5853021,3.49488812 11.5067837,3.49488812 L9.08416289,3.49488812 L9.08416289,3.88993398 C9.50088311,4.02693229 9.80227938,4.4199334 9.80227938,4.88163814 C9.80227938,5.45703102 9.33444039,5.92487001 8.75904751,5.92487001 C8.18365462,5.92487001 7.71581563,5.45703102 7.71581563,4.88163814 C7.71581563,4.47146112 7.95382463,4.11567448 8.29897857,3.94514226 L8.29897857,3.49488812 L4.65359679,3.49488812 L4.65359679,3.94514226 C4.99875073,4.11567448 5.23675972,4.47146112 5.23675972,4.88163814 C5.23675972,5.45703102 4.76892073,5.92487001 4.19352785,5.92487001 C3.61813496,5.92487001 3.14988702,5.45703102 3.14988702,4.88163814 C3.14988702,4.41952445 3.45169225,4.02693229 3.86841247,3.88993398 L3.86841247,3.49488812 L1.44620063,3.49488812 Z M12.0331025,14 L0.919472815,14 C0.665514762,14 0.418917811,13.893264 0.24266029,13.7071917 C0.0737638709,13.5284805 -0.012115664,13.2982415 0.00137969147,13.0594146 L0.527698556,3.60694047 C0.555507167,3.10393176 0.959140981,2.7097038 1.44620063,2.7097038 L3.86841247,2.7097038 L3.86841247,2.60746626 C3.86841247,1.16959748 5.03841889,0 6.47628768,0 C7.91415646,0 9.08416289,1.16959748 9.08416289,2.60746626 L9.08416289,2.7097038 L11.5067837,2.7097038 C11.9934344,2.7097038 12.3970682,3.10393176 12.4248768,3.60694047 L12.9516046,13.0594146 C12.964691,13.2978326 12.8784025,13.5276626 12.7090972,13.7067827 C12.5324307,13.893264 12.2862427,14 12.0331025,14 L12.0331025,14 Z" id="Fill-1"></path>
                    </g>
                </g>
            </g>
        </g>
    </g>
</svg>