<?xml version="1.0" encoding="UTF-8" standalone="no"?>
<svg width="30px" height="30px" viewBox="0 0 30 30" version="1.1" xmlns="http://www.w3.org/2000/svg" xmlns:xlink="http://www.w3.org/1999/xlink">
    <!-- Generator: Sketch 39 (31667) - http://www.bohemiancoding.com/sketch -->
    <title>Fill 1</title>
    <desc>Created with Sketch.</desc>
    <defs></defs>
    <g id="Page-1" stroke="none" stroke-width="1" fill="none" fill-rule="evenodd">
        <g id="05-MiniaturasMagicas-LojaVirtual-MinhaConta-PainelGeral" transform="translate(-465.000000, -154.000000)" fill="#e75a25">
            <path d="M483.374649,165.626288 C482.511083,164.762722 481.318764,164.228848 480.000937,164.228848 C478.68311,164.228848 477.49079,164.762722 476.627224,165.626288 L476.625351,165.624415 L476.623478,165.626288 C475.762722,166.487043 475.229785,167.6803 475.229785,169 C475.229785,170.317827 475.763659,171.510147 476.627224,172.373712 C477.49079,173.236341 478.68311,173.770215 480.000937,173.770215 C481.318764,173.770215 482.511083,173.236341 483.374649,172.373712 C484.238214,171.510147 484.772089,170.317827 484.772089,169 C484.772089,167.700905 484.25601,166.524508 483.41867,165.667499 C483.403684,165.654387 483.388698,165.640337 483.374649,165.626288 M480.000937,162.430534 C481.814237,162.430534 483.457071,163.165782 484.645645,164.355292 C484.662504,164.372151 484.678426,164.38901 484.694349,164.406806 C485.854824,165.593506 486.570403,167.214799 486.570403,169 C486.570403,170.8133 485.835155,172.456135 484.645645,173.644708 C483.457071,174.833281 481.814237,175.56853 480.000937,175.56853 C478.187637,175.56853 476.544802,174.833281 475.356229,173.644708 C474.166719,172.456135 473.43147,170.8133 473.43147,169 C473.43147,167.18951 474.167655,165.547612 475.358102,164.357165 L475.356229,164.355292 C476.544802,163.165782 478.187637,162.430534 480.000937,162.430534 M482.187949,158.789884 L481.920075,155.96035 C481.289728,155.852638 480.646269,155.798314 480.000937,155.798314 C479.355604,155.798314 478.713081,155.852638 478.081798,155.96035 L477.819544,158.731814 C477.808305,159.108336 477.559163,159.453013 477.178895,159.566344 C476.860443,159.660943 476.557914,159.767718 476.271308,159.884796 L476.23197,159.901655 C475.932251,160.026225 475.641898,160.163909 475.359975,160.313768 C475.043397,160.503903 474.627537,160.484234 474.326881,160.235092 L472.135186,158.422729 C471.960974,158.546363 471.788636,158.67468 471.62098,158.808617 C471.296909,159.066188 470.977521,159.351858 470.665626,159.663753 C470.352794,159.976584 470.068061,160.295973 469.809554,160.619107 C469.676553,160.787699 469.547299,160.959101 469.424602,161.134249 L471.236965,163.325008 L471.236029,163.325944 C471.461755,163.598501 471.513269,163.991883 471.334374,164.32251 C471.177022,164.615673 471.032782,164.919138 470.903528,165.231033 L470.901655,165.230097 C470.778957,165.528879 470.666563,165.844521 470.567281,166.177022 L470.565407,166.177022 C470.464252,166.516079 470.16547,166.777396 469.790821,166.812988 L466.961286,167.080862 C466.924758,167.290665 466.894786,167.503278 466.869497,167.718701 C466.822666,168.130815 466.798314,168.558851 466.798314,169 C466.798314,169.440212 466.822666,169.868249 466.869497,170.281299 C466.894786,170.496722 466.924758,170.709335 466.961286,170.919138 L469.732751,171.181392 C470.109273,171.192632 470.453949,171.441773 470.567281,171.822042 C470.661879,172.140493 470.768654,172.443022 470.885732,172.728692 L470.902591,172.76803 C471.027162,173.067749 471.164845,173.359038 471.315642,173.640962 C471.504839,173.95754 471.48517,174.3734 471.236965,174.674056 L469.424602,176.865751 C469.547299,177.039963 469.676553,177.212301 469.809554,177.379956 C470.068061,177.704027 470.352794,178.023416 470.665626,178.335311 C470.977521,178.648142 471.296909,178.932875 471.62098,179.190446 C471.788636,179.324383 471.960974,179.453637 472.135186,179.576335 L474.326881,177.763971 L474.326881,177.764908 C474.600375,177.539182 474.993756,177.487668 475.324383,177.665626 C475.610053,177.821105 475.898533,177.958789 476.186076,178.079613 L476.23197,178.097409 C476.536372,178.223853 476.853887,178.336247 477.178895,178.433656 L477.177958,178.435529 C477.517952,178.536684 477.779269,178.835467 477.813924,179.210116 L478.081798,182.03965 C478.712145,182.147362 479.355604,182.200749 480.000937,182.200749 C480.646269,182.200749 481.289728,182.147362 481.920075,182.03965 L482.182329,179.268186 C482.193569,178.890727 482.44271,178.546987 482.823915,178.433656 C483.14143,178.339057 483.443959,178.232282 483.730565,178.115204 L483.769903,178.097409 C484.069622,177.973775 484.360912,177.836091 484.641898,177.685295 C484.959413,177.495161 485.374337,177.51483 485.674992,177.763971 L487.866687,179.576335 C488.040899,179.453637 488.213238,179.324383 488.380893,179.190446 C488.704964,178.933812 489.025289,178.648142 489.337184,178.335311 C489.649079,178.023416 489.934749,177.704027 490.19232,177.379956 C490.326257,177.211364 490.454574,177.039963 490.577271,176.865751 L488.764908,174.674056 L488.765845,174.674056 C488.540119,174.400562 488.488604,174.007181 488.667499,173.676553 C488.829535,173.376834 488.974711,173.073369 489.099282,172.771776 C489.222916,172.472057 489.336247,172.155479 489.435529,171.822042 L489.436466,171.822978 C489.538558,171.482985 489.83734,171.221667 490.211052,171.187012 L493.040587,170.919138 C493.077115,170.709335 493.108024,170.495785 493.132376,170.280362 L493.132376,170.280362 C493.179207,169.869185 493.203559,169.442086 493.203559,169 C493.203559,168.566344 493.180144,168.146737 493.135186,167.742117 L493.132376,167.718701 C493.108024,167.504215 493.077115,167.290665 493.040587,167.080862 L490.269123,166.818608 C489.892601,166.807368 489.547924,166.558227 489.434593,166.177022 C489.339994,165.859507 489.233219,165.556978 489.116141,165.270372 L489.099282,165.231033 C488.974711,164.931314 488.837028,164.640025 488.686232,164.358102 C488.497034,164.041524 488.516703,163.6266 488.764908,163.325008 L490.577271,161.134249 C490.454574,160.960037 490.326257,160.787699 490.19232,160.620044 C489.934749,160.295973 489.649079,159.975648 489.337184,159.663753 C489.025289,159.351858 488.704964,159.066188 488.380893,158.808617 C488.213238,158.67468 488.040899,158.546363 487.866687,158.422729 L485.674992,160.235092 L485.674992,160.235092 C485.402435,160.460818 485.009054,160.511396 484.678426,160.333437 C484.377771,160.171402 484.075242,160.027162 483.772713,159.901655 C483.473931,159.778021 483.157352,159.665626 482.823915,159.566344 L482.823915,159.564471 C482.484858,159.463316 482.22354,159.163597 482.187949,158.789884 M483.646269,155.174524 L483.916953,158.035904 C484.095848,158.100531 484.274742,158.169841 484.454574,158.243834 C484.634405,158.318764 484.81049,158.396503 484.982829,158.477989 L487.234468,156.615048 C487.547299,156.356541 487.983765,156.345301 488.305027,156.558851 C488.713394,156.815485 489.112395,157.097409 489.498283,157.403684 C489.888854,157.714643 490.259756,158.044333 490.60818,158.392757 C490.956603,158.74118 491.286294,159.112082 491.597253,159.502654 C491.909148,159.896035 492.195754,160.302529 492.456135,160.719326 C492.665938,161.055573 492.624727,161.477053 492.385888,161.765532 L490.523884,164.017171 C490.60537,164.190446 490.68311,164.365595 490.757103,164.542616 L490.775835,164.593194 C490.843272,164.757103 490.906026,164.921012 490.965033,165.083984 L493.873244,165.359351 C494.268498,165.395879 494.57852,165.684358 494.662816,166.051514 L494.663753,166.051514 C494.775211,166.533874 494.860443,167.022791 494.916641,167.515454 L494.919451,167.542616 C494.973775,168.02966 495.001873,168.516703 495.001873,169 C495.001873,169.49079 494.972838,169.985326 494.916641,170.480799 L494.915704,170.484546 L494.916641,170.484546 C494.860443,170.977209 494.775211,171.466126 494.663753,171.948486 C494.571964,172.351233 494.220731,172.628473 493.826413,172.644396 L490.965033,172.91508 C490.900406,173.094911 490.831096,173.273806 490.757103,173.452701 C490.68311,173.632532 490.604433,173.809554 490.522947,173.981892 L492.385888,176.233531 C492.644396,176.546363 492.655635,176.982829 492.441149,177.30409 C492.185451,177.712457 491.903528,178.111458 491.597253,178.49641 C491.286294,178.887918 490.956603,179.25882 490.60818,179.607243 C490.259756,179.95473 489.888854,180.285357 489.498283,180.596316 C489.104902,180.908211 488.698408,181.194817 488.281611,181.455198 C487.945364,181.665002 487.523884,181.62379 487.234468,181.384952 L484.982829,179.522011 C484.81049,179.604433 484.635342,179.682173 484.45832,179.755229 L484.407743,179.774899 C484.243834,179.842335 484.079925,179.905089 483.916953,179.964096 L483.641586,182.872307 C483.604121,183.266625 483.315642,183.577584 482.949422,183.660943 L482.949422,183.662816 C481.977209,183.886669 480.986263,184 480.000937,184 C479.01561,184 478.024664,183.886669 477.052451,183.662816 C476.648767,183.570091 476.372463,183.219794 476.355604,182.825476 L476.085857,179.964096 C475.903216,179.899469 475.722448,179.829223 475.543553,179.755229 L475.497658,179.734624 C475.334686,179.66625 475.175461,179.596004 475.019045,179.522011 L472.767406,181.384952 C472.454574,181.643459 472.018108,181.654699 471.696847,181.440212 C471.28848,181.184515 470.889479,180.902591 470.50359,180.596316 C470.113019,180.285357 469.742117,179.95473 469.393693,179.607243 C469.046207,179.25882 468.715579,178.887918 468.404621,178.497346 C468.092726,178.103965 467.806119,177.697471 467.545738,177.280674 C467.335935,176.944427 467.377146,176.522947 467.615985,176.233531 L469.477989,173.981892 C469.396503,173.808617 469.318764,173.633469 469.244771,173.456447 L469.226038,173.405869 C469.158601,173.241961 469.095848,173.078988 469.03684,172.91508 L466.128629,172.640649 C465.733375,172.603185 465.423353,172.314705 465.339057,171.948486 L465.338121,171.948486 C465.226663,171.465189 465.14143,170.977209 465.086169,170.485482 C465.029035,169.989073 465,169.492663 465,169 C465,168.5064 465.029035,168.009991 465.086169,167.514518 C465.14143,167.022791 465.226663,166.533874 465.338121,166.051514 C465.429909,165.64783 465.781143,165.37059 466.175461,165.354667 L469.03684,165.083984 C469.101467,164.905089 469.171714,164.725258 469.245707,164.546363 L469.246644,164.542616 L469.245707,164.542616 C469.318764,164.365595 469.396503,164.190446 469.477989,164.017171 L467.615985,161.765532 C467.357477,161.452701 467.346238,161.016235 467.560724,160.694973 C467.816422,160.286606 468.098345,159.888542 468.404621,159.502654 C468.715579,159.112082 469.046207,158.740244 469.393693,158.392757 C469.742117,158.04527 470.113019,157.714643 470.50359,157.403684 C470.896972,157.091789 471.303466,156.804246 471.720262,156.544802 C472.05651,156.334998 472.477989,156.375273 472.767406,156.615048 L475.019045,158.477053 C475.19232,158.395567 475.366531,158.31689 475.543553,158.243834 L475.595067,158.225101 C475.758039,158.157665 475.921948,158.094911 476.08492,158.035904 L476.360287,155.127693 C476.397752,154.732438 476.686232,154.422416 477.052451,154.338121 L477.052451,154.337184 C478.024664,154.112395 479.01561,154 480.000937,154 C480.986263,154 481.977209,154.112395 482.949422,154.337184 C483.353106,154.428973 483.62941,154.780206 483.646269,155.174524" id="Fill-1"></path>
        </g>
    </g>
</svg>