<?xml version="1.0" encoding="UTF-8" standalone="no"?>
<svg width="17px" height="16px" viewBox="0 0 17 16" version="1.1" xmlns="http://www.w3.org/2000/svg" xmlns:xlink="http://www.w3.org/1999/xlink">
    <!-- Generator: Sketch 39 (31667) - http://www.bohemiancoding.com/sketch -->
    <title>Page 1</title>
    <desc>Created with Sketch.</desc>
    <defs>
        <polygon id="path-1" points="16.0806925 -5e-05 0 -5e-05 0 15.91225 16.0806925 15.91225 16.0806925 -5e-05"></polygon>
    </defs>
    <g id="Page-1" stroke="none" stroke-width="1" fill="none" fill-rule="evenodd">
        <g id="05-MiniaturasMagicas-LojaVirtual-MinhaConta-PainelGeral" transform="translate(-960.000000, -468.000000)">
            <g id="Group-4" transform="translate(950.000000, 463.000000)">
                <g id="Group-3" transform="translate(10.000000, 5.000000)">
                    <g id="Page-1">
                        <mask id="mask-2" fill="white">
                            <use xlink:href="#path-1"></use>
                        </mask>
                        <g id="Clip-2"></g>
                        <path d="M3.2234,14.59475 C2.9849,14.83325 2.6699,14.95225 2.3544,14.95225 C2.0394,14.95225 1.7244,14.83325 1.4859,14.59475 C1.2479,14.35675 1.1289,14.04175 1.1289,13.72625 C1.1289,13.41025 1.2484,13.09475 1.4859,12.85725 L9.4239,4.91925 L9.4234,4.91875 C9.5374,4.80425 9.5909,4.63425 9.5494,4.46575 C9.4329,3.99175 9.4399,3.49325 9.5709,3.02325 C9.6944,2.57975 9.9284,2.16025 10.2724,1.80925 L10.2964,1.78725 C10.6704,1.41275 11.1224,1.16525 11.5984,1.04525 C11.8034,0.99325 12.0124,0.96475 12.2229,0.95975 L11.8759,1.30625 L11.2354,1.94725 L11.2359,1.94775 C11.1189,2.06475 11.0659,2.23925 11.1114,2.41025 L11.3459,3.28575 L11.5779,4.15175 C11.6184,4.31575 11.7449,4.45375 11.9199,4.50025 L12.7954,4.73475 L13.6459,4.96275 C13.8119,5.01675 14.0014,4.97775 14.1334,4.84575 L14.7744,4.20475 L15.1209,3.85775 C15.1159,4.06825 15.0874,4.27775 15.0354,4.48275 C14.9154,4.95875 14.6679,5.41075 14.2939,5.78475 L14.2949,5.78575 C13.9374,6.14225 13.5099,6.38375 13.0574,6.50975 C12.5969,6.63825 12.1089,6.64725 11.6434,6.53775 C11.4784,6.48675 11.2919,6.52625 11.1614,6.65675 L3.2234,14.59475 Z M11.7044,10.51725 L14.0449,12.85725 C14.2819,13.09475 14.4014,13.41025 14.4014,13.72625 C14.4014,14.04175 14.2824,14.35675 14.0449,14.59475 L14.0244,14.61625 C13.7889,14.84025 13.4829,14.95225 13.1759,14.95225 C12.8604,14.95225 12.5454,14.83325 12.3074,14.59475 L9.9669,12.25425 L10.7714,11.45025 C10.7974,11.43275 10.8259,11.42175 10.8484,11.39875 C10.8714,11.37575 10.8829,11.34725 10.8999,11.32125 L11.7044,10.51725 Z M2.0719,3.60875 L1.0839,1.98875 L1.6084,1.46425 L3.2289,2.45225 L2.0719,3.60875 Z M11.6579,7.51775 C12.2069,7.61075 12.7734,7.58225 13.3124,7.43225 C13.9204,7.26275 14.4939,6.93975 14.9704,6.46325 L14.9714,6.46225 L14.9724,6.46325 C15.4724,5.96325 15.8034,5.35625 15.9654,4.71525 C16.1324,4.05425 16.1179,3.35625 15.9224,2.70025 C15.8469,2.44675 15.5799,2.30225 15.3264,2.37825 C15.2469,2.40175 15.1789,2.44375 15.1244,2.49825 L15.1239,2.49825 L14.0959,3.52625 L13.6504,3.97175 L13.0424,3.80875 L12.4349,3.64575 L12.2724,3.03825 L12.1094,2.43025 L12.5544,1.98525 L13.5829,0.95675 C13.7704,0.76925 13.7704,0.46575 13.5829,0.27825 C13.5179,0.21325 13.4389,0.17075 13.3559,0.15075 C12.7074,-0.03775 12.0184,-0.04975 11.3659,0.11525 C10.7244,0.27725 10.1174,0.60825 9.6174,1.10825 C9.6084,1.11725 9.5999,1.12675 9.5919,1.13625 C9.1289,1.60825 8.8144,2.17225 8.6484,2.76825 C8.4984,3.30725 8.4699,3.87375 8.5634,4.42275 L6.5574,6.42875 L3.5834,3.45475 L4.3384,2.69975 L4.3374,2.69925 C4.3639,2.67275 4.3874,2.64325 4.4079,2.60975 C4.5454,2.38425 4.4739,2.08925 4.2484,1.95175 L1.8119,0.46675 C1.6249,0.33425 1.3639,0.35175 1.1959,0.51975 L0.1394,1.57625 L0.1404,1.57675 C-0.0126,1.72925 -0.0476,1.97225 0.0699,2.16475 L1.5544,4.59975 C1.5764,4.64225 1.6054,4.68225 1.6409,4.71825 C1.8284,4.90575 2.1324,4.90575 2.3199,4.71825 L2.9049,4.13325 L5.8784,7.10725 L0.8074,12.17875 C0.3819,12.60375 0.1689,13.16525 0.1689,13.72625 C0.1689,14.28625 0.3814,14.84725 0.8074,15.27325 C1.2334,15.69925 1.7944,15.91225 2.3544,15.91225 C2.9149,15.91225 3.4759,15.69925 3.9019,15.27325 L8.9734,10.20225 L9.8179,11.04625 L8.9489,11.91525 C8.7614,12.10275 8.7614,12.40625 8.9489,12.59375 L11.6284,15.27325 C12.0544,15.69925 12.6154,15.91225 13.1759,15.91225 C13.7229,15.91225 14.2709,15.70875 14.6934,15.30075 C14.7034,15.29225 14.7134,15.28325 14.7234,15.27325 C15.1489,14.84775 15.3614,14.28625 15.3614,13.72625 C15.3614,13.16525 15.1484,12.60375 14.7234,12.17875 L12.0439,9.49925 C11.8564,9.31175 11.5524,9.31175 11.3649,9.49925 L10.4964,10.36775 L9.6519,9.52325 L11.6579,7.51775 Z" id="Fill-1" fill="#FFFFFF" mask="url(#mask-2)"></path>
                    </g>
                </g>
            </g>
        </g>
    </g>
</svg>