<?xml version="1.0" encoding="UTF-8" standalone="no"?>
<svg width="13px" height="14px" viewBox="0 0 13 14" version="1.1" xmlns="http://www.w3.org/2000/svg" xmlns:xlink="http://www.w3.org/1999/xlink">
    <!-- Generator: Sketch 39 (31667) - http://www.bohemiancoding.com/sketch -->
    <title>Group 3</title>
    <desc>Created with Sketch.</desc>
    <defs></defs>
    <g id="Page-1" stroke="none" stroke-width="1" fill="none" fill-rule="evenodd">
        <g id="05-MiniaturasMagicas-LojaVirtual-MinhaConta-MeusPedidos-Detalhe" transform="translate(-607.000000, -259.000000)" fill="#FFFFFF">
            <g id="Group-2" transform="translate(598.000000, 253.000000)">
                <g id="Group-3" transform="translate(9.000000, 6.000000)">
                    <path d="M3.70588235,3.19117647 L9.16464706,3.19117647 L9.16464706,0.720382353 L3.70588235,0.720382353 L3.70588235,3.19117647 Z M11.8411176,3.19117647 L9.88523529,3.19117647 L9.88523529,0 L2.98529412,0 L2.98529412,3.19117647 L1.02941176,3.19117647 C0.463235294,3.19117647 0,3.65441176 0,4.22058824 L0,9.16197059 C0,9.72814706 0.463235294,10.1913824 1.02941176,10.1913824 L2.10802941,10.1913824 L2.10802941,9.47079412 L1.02941176,9.47079412 C0.862029412,9.47079412 0.720588235,9.32935294 0.720588235,9.16197059 L0.720588235,4.22058824 C0.720588235,4.05320588 0.862029412,3.91176471 1.02941176,3.91176471 L11.8411176,3.91176471 C12.0085,3.91176471 12.1499412,4.05320588 12.1499412,4.22058824 L12.1499412,9.16197059 C12.1499412,9.32935294 12.0085,9.47079412 11.8411176,9.47079412 L10.7709412,9.47079412 L10.7709412,10.1913824 L11.8411176,10.1913824 C12.4072941,10.1913824 12.8705294,9.72814706 12.8705294,9.16197059 L12.8705294,4.22058824 C12.8705294,3.65441176 12.4072941,3.19117647 11.8411176,3.19117647 L11.8411176,3.19117647 Z" id="Fill-3"></path>
                    <path d="M3.61288235,12.8773235 L9.17397059,12.8773235 L9.17397059,7.73047059 L3.61288235,7.73047059 L3.61288235,12.8773235 Z M10.7868529,7 L2,7 L2,7.72058824 L2.89229412,7.72058824 L2.89229412,13.5979118 L9.89455882,13.5979118 L9.89455882,7.72058824 L10.7868529,7.72058824 L10.7868529,7 Z" id="Fill-5"></path>
                    <path d="M7.35835294,10.7205882 L4.36008824,10.7205882 C4.16120588,10.7205882 4,10.5591765 4,10.3602941 C4,10.1614118 4.16120588,10 4.36008824,10 L7.35835294,10 C7.55723529,10 7.71864706,10.1614118 7.71864706,10.3602941 C7.71864706,10.5591765 7.55723529,10.7205882 7.35835294,10.7205882" id="Fill-6"></path>
                    <path d="M7.35835294,11.7205882 L4.36008824,11.7205882 C4.16120588,11.7205882 4,11.5591765 4,11.3602941 C4,11.1614118 4.16120588,11 4.36008824,11 L7.35835294,11 C7.55723529,11 7.71864706,11.1614118 7.71864706,11.3602941 C7.71864706,11.5591765 7.55723529,11.7205882 7.35835294,11.7205882" id="Fill-7"></path>
                </g>
            </g>
        </g>
    </g>
</svg>