<?xml version="1.0" encoding="UTF-8" standalone="no"?>
<svg width="24px" height="28px" viewBox="0 0 24 28" version="1.1" xmlns="http://www.w3.org/2000/svg" xmlns:xlink="http://www.w3.org/1999/xlink">
    <!-- Generator: Sketch 39 (31667) - http://www.bohemiancoding.com/sketch -->
    <title>Fill 1</title>
    <desc>Created with Sketch.</desc>
    <defs></defs>
    <g id="Page-1" stroke="none" stroke-width="1" fill="none" fill-rule="evenodd">
        <g id="05-MiniaturasMagicas-LojaVirtual-MinhaConta-PainelGeral" transform="translate(-115.000000, -155.000000)" fill="#e75a25">
            <path d="M134.993477,171.22297 L118.039697,171.22297 C117.686107,171.22297 117.40931,171.287105 117.202557,171.397655 C117.009306,171.502298 116.868376,171.653354 116.775548,171.834791 C116.670905,172.042388 116.620272,172.298931 116.620272,172.580791 C116.620272,173.044931 116.756982,173.552954 117.010993,174.024689 C117.876826,175.63399 119.421147,177.177468 121.137623,178.350477 C122.891229,179.549647 124.793361,180.345437 126.296331,180.409572 L126.296331,180.410416 L126.411944,180.413792 L126.411944,180.413792 L126.516587,180.414636 L126.621229,180.413792 L126.621229,180.413792 L126.736843,180.410416 L126.736843,180.409572 C128.239813,180.345437 130.141945,179.549647 131.895551,178.350477 C133.611183,177.178312 135.156348,175.63399 136.02218,174.024689 C136.276192,173.552954 136.412902,173.044931 136.412902,172.580791 C136.412902,172.298931 136.363113,172.042388 136.257626,171.834791 C136.165642,171.653354 136.023868,171.502298 135.830617,171.397655 C135.623864,171.287105 135.347911,171.22297 134.993477,171.22297 L134.993477,171.22297 Z M118.039697,169.602698 L134.993477,169.602698 C135.624708,169.602698 136.158047,169.737721 136.596871,169.97401 C137.096454,170.243212 137.461015,170.636465 137.699837,171.107357 C137.926,171.551243 138.034018,172.056734 138.034018,172.580791 C138.034018,173.303162 137.827264,174.08123 137.446669,174.790099 C136.454253,176.634846 134.719212,178.379169 132.806954,179.685513 C130.822121,181.042491 128.613657,181.946299 126.806886,182.023937 L126.794227,182.023937 L126.665956,182.027312 L126.649922,182.027312 L126.523338,182.029 L126.51068,182.029 L126.383252,182.027312 L126.367218,182.027312 L126.239791,182.023937 L126.227132,182.023937 C124.419517,181.946299 122.211053,181.042491 120.22622,179.685513 C118.313962,178.379169 116.578921,176.634846 115.587348,174.790099 C115.20591,174.08123 115,173.303162 115,172.580791 C115,172.056734 115.108018,171.551243 115.333337,171.107357 C115.572158,170.636465 115.93672,170.243212 116.436303,169.97401 C116.875127,169.737721 117.40931,169.602698 118.039697,169.602698 L118.039697,169.602698 Z M130.208612,158.146027 C129.265985,157.203401 127.960485,156.620272 126.516587,156.620272 C125.072689,156.620272 123.767189,157.203401 122.824562,158.146027 L122.821186,158.149403 C121.878559,159.09203 121.29543,160.39753 121.29543,161.841428 C121.29543,163.283639 121.880247,164.589139 122.824562,165.533453 C123.768876,166.477768 125.074376,167.062585 126.516587,167.062585 C127.958797,167.062585 129.264298,166.477768 130.208612,165.533453 C131.153771,164.589139 131.737743,163.283639 131.737743,161.841428 C131.737743,160.39753 131.154614,159.09203 130.211988,158.149403 L130.208612,158.146027 Z M126.516587,155 C128.40184,155 130.111565,155.76541 131.351241,157.004242 L131.352085,157.00593 L131.353773,157.007618 C132.592606,158.24645 133.358015,159.956175 133.358015,161.841428 C133.358015,163.730057 132.592606,165.440625 131.353773,166.678614 C130.115784,167.916603 128.405216,168.682856 126.516587,168.682856 C124.627958,168.682856 122.91739,167.916603 121.679401,166.678614 C120.441412,165.440625 119.675159,163.730057 119.675159,161.841428 C119.675159,159.956175 120.440568,158.24645 121.679401,157.007618 L121.681089,157.00593 L121.682777,157.004242 C122.922453,155.76541 124.631333,155 126.516587,155 L126.516587,155 Z" id="Fill-1"></path>
        </g>
    </g>
</svg>