<?xml version="1.0" encoding="UTF-8" standalone="no"?>
<svg width="25px" height="24px" viewBox="0 0 25 24" version="1.1" xmlns="http://www.w3.org/2000/svg" xmlns:xlink="http://www.w3.org/1999/xlink">
    <!-- Generator: Sketch 39.1 (31720) - http://www.bohemiancoding.com/sketch -->
    <title>Fill 1</title>
    <desc>Created with Sketch.</desc>
    <defs></defs>
    <g id="Page-1" stroke="none" stroke-width="1" fill="none" fill-rule="evenodd">
        <path d="M22.0031996,12.278 L12.1491996,3.531 L2.2961996,12.278 L1.3001996,11.157 L12.1491996,1.525 L22.9991996,11.157 L22.0031996,12.278 Z M19.0091996,22.22 L5.2901996,22.22 L5.2901996,11.359 L12.1491996,5.269 L19.0091996,11.358 L19.0091996,22.22 Z M5.2901996,1.299 L7.1771996,1.299 L7.1771996,4.201 L5.2901996,5.877 L5.2901996,1.299 Z M13.0131996,0.553 C12.7661996,0.334 12.4581996,0.225 12.1491996,0.225 C11.8411996,0.225 11.5331996,0.334 11.2861996,0.553 L8.4781996,3.046 L8.4781996,0.65 C8.4781996,0.291 8.1871996,0 7.8271996,0 L4.6401996,0 C4.2811996,0 3.9901996,0.291 3.9901996,0.65 L3.9901996,7.031 L0.437199602,10.185 C0.179199602,10.414 0.023199602,10.736 0.00219960197,11.08 C-0.017800398,11.424 0.099199602,11.763 0.328199602,12.02 L1.3241996,13.141 C1.5811996,13.431 1.9381996,13.578 2.2961996,13.578 C2.6031996,13.578 2.9111996,13.47 3.1591996,13.25 L3.9901996,12.513 L3.9901996,22.87 C3.9901996,23.229 4.2811996,23.52 4.6401996,23.52 L19.6591996,23.52 C20.0191996,23.52 20.3101996,23.229 20.3101996,22.87 L20.3101996,12.513 L21.1401996,13.25 C21.3881996,13.47 21.6961996,13.578 22.0031996,13.578 C22.3611996,13.578 22.7181996,13.431 22.9751996,13.141 L23.9711996,12.02 C24.2001996,11.763 24.3171996,11.424 24.2971996,11.08 C24.2761996,10.736 24.1201996,10.414 23.8621996,10.185 L13.0131996,0.553 Z" id="Fill-1" fill="#e75a25"></path>
    </g>
</svg>