<?xml version="1.0" encoding="UTF-8" standalone="no"?>
<svg width="8px" height="8px" viewBox="0 0 8 8" version="1.1" xmlns="http://www.w3.org/2000/svg" xmlns:xlink="http://www.w3.org/1999/xlink">
    <!-- Generator: Sketch 39 (31667) - http://www.bohemiancoding.com/sketch -->
    <title>Combined Shape</title>
    <desc>Created with Sketch.</desc>
    <defs></defs>
    <g id="Page-1" stroke="none" stroke-width="1" fill="none" fill-rule="evenodd">
        <g id="05-MiniaturasMagicas-Mobile-MinhaConta-MeusPedidos-Detalhe" transform="translate(-25.000000, -633.000000)" fill="#FFFFFF">
            <g id="Group-3" transform="translate(15.000000, 624.000000)">
                <g id="Group-4">
                    <g id="Group-2" transform="translate(10.000000, 9.000000)">
                        <path d="M4.70588235,3.29411765 L4.70588235,0.709946632 C4.70588235,0.323517799 4.38984806,0 4,0 C3.60743399,0 3.29411765,0.317853934 3.29411765,0.709946632 L3.29411765,3.29411765 L0.709946632,3.29411765 C0.323517799,3.29411765 6.41264819e-13,3.61015194 6.41264819e-13,4 C6.41264819e-13,4.39256601 0.317853934,4.70588235 0.709946632,4.70588235 L3.29411765,4.70588235 L3.29411765,7.29005337 C3.29411765,7.6764822 3.61015194,8 4,8 C4.39256601,8 4.70588235,7.68214607 4.70588235,7.29005337 L4.70588235,4.70588235 L7.29005337,4.70588235 C7.6764822,4.70588235 8,4.38984806 8,4 C8,3.60743399 7.68214607,3.29411765 7.29005337,3.29411765 L4.70588235,3.29411765 Z" id="Combined-Shape"></path>
                    </g>
                </g>
            </g>
        </g>
    </g>
</svg>