<?xml version="1.0" encoding="UTF-8" standalone="no"?>
<svg width="22px" height="22px" viewBox="0 0 22 22" version="1.1" xmlns="http://www.w3.org/2000/svg" xmlns:xlink="http://www.w3.org/1999/xlink">
    <!-- Generator: Sketch 39 (31667) - http://www.bohemiancoding.com/sketch -->
    <title>Fill 1</title>
    <desc>Created with Sketch.</desc>
    <defs></defs>
    <g id="Page-1" stroke="none" stroke-width="1" fill="none" fill-rule="evenodd">
        <g id="05-MiniaturasMagicas-LojaVirtual-MinhaConta-PainelGeral" transform="translate(-465.000000, -211.000000)" fill="#e75a25">
            <path d="M472.570503,227.330179 C472.045297,227.855015 471.191282,227.854645 470.666446,227.330179 C470.14124,226.804973 470.14124,225.950958 470.666446,225.426122 C471.191282,224.900916 472.045297,224.900916 472.570503,225.426122 C473.095339,225.950958 473.095339,226.804973 472.570503,227.330179 L472.570503,227.330179 Z M469.750664,224.51071 C468.721704,225.54004 468.721704,227.215891 469.751034,228.245591 C470.780364,229.274921 472.455845,229.274921 473.485915,228.245591 C474.515245,227.215151 474.515245,225.54004 473.485915,224.51071 C472.455845,223.481011 470.780364,223.480641 469.750664,224.51071 L469.750664,224.51071 Z M482.934075,213.795398 C483.150815,214.011768 483.150815,214.363138 482.934075,214.579878 L477.169384,220.344569 C476.953014,220.561309 476.601274,220.561309 476.384904,220.344569 C476.168164,220.127829 476.168164,219.776829 476.384904,219.560089 L482.149595,213.795398 C482.366335,213.578658 482.717335,213.578658 482.934075,213.795398 L482.934075,213.795398 Z M485.65479,215.601441 L483.495528,215.897701 C483.182623,215.940975 482.946281,216.204318 482.936664,216.519812 L482.881555,218.386512 L480.948649,218.502279 C480.62021,218.522252 480.358716,218.785595 480.341333,219.115143 L480.225196,221.367611 L479.719592,221.873214 L478.743153,222.850024 C478.929564,223.317901 479.053838,223.804271 479.126332,224.297299 C479.415935,226.252397 478.817126,228.315125 477.31511,229.817141 C474.796341,232.33554 470.698254,232.33554 468.182443,229.81751 C465.664413,227.298371 465.664413,223.200284 468.182443,220.681145 C469.68113,219.179499 471.744228,218.58069 473.699326,218.869924 C474.191614,218.942417 474.677984,219.066691 475.146601,219.253102 L476.122671,218.277033 L482.0808,212.318903 L485.414749,212.617383 L485.65479,215.601441 Z M486.073846,211.376861 L481.894759,211.002559 C481.70354,210.985545 481.515279,211.05397 481.379539,211.18971 L474.791902,217.777347 C472.193982,217.071648 469.299801,217.730374 467.267401,219.766103 C464.244138,222.789366 464.244138,227.709289 467.267771,230.732552 C470.287706,233.755816 475.207259,233.755816 478.230522,230.732552 C480.26662,228.696454 480.925347,225.802273 480.219278,223.204723 L481.316663,222.107338 C481.429841,221.99379 481.497156,221.842886 481.505293,221.683105 L481.604416,219.759815 L483.549528,219.643678 C483.884254,219.623705 484.148337,219.351856 484.157953,219.016389 L484.214172,217.105305 L486.437052,216.800538 C486.582408,216.780565 486.710011,216.71399 486.806545,216.617086 C486.936367,216.487264 487.01034,216.303811 486.994066,216.107044 L486.661189,211.969382 C486.636408,211.654998 486.38786,211.404971 486.073846,211.376861 L486.073846,211.376861 Z" id="Fill-1"></path>
        </g>
    </g>
</svg>