<?xml version="1.0" encoding="UTF-8" standalone="no"?>
<svg width="17px" height="24px" viewBox="0 0 17 24" version="1.1" xmlns="http://www.w3.org/2000/svg" xmlns:xlink="http://www.w3.org/1999/xlink">
    <!-- Generator: Sketch 39.1 (31720) - http://www.bohemiancoding.com/sketch -->
    <title>Fill 1</title>
    <desc>Created with Sketch.</desc>
    <defs></defs>
    <g id="Page-1" stroke="none" stroke-width="1" fill="none" fill-rule="evenodd">
        <g id="05-MiniaturasMagicas-LojaVirtual-MinhaConta-PainelGeral" transform="translate(-131.000000, -474.000000)" fill="#e75a25">
            <path d="M134.9898,479.7707 L139.4038,479.7707 C140.2578,479.7707 140.2578,478.4887 139.4038,478.4887 L134.9898,478.4887 C134.1348,478.4887 134.1348,479.7707 134.9898,479.7707 L134.9898,479.7707 Z M139.4038,489.9807 L134.9898,489.9807 C134.1348,489.9807 134.1348,491.2627 134.9898,491.2627 L139.4038,491.2627 C140.2578,491.2627 140.2578,489.9807 139.4038,489.9807 L139.4038,489.9807 Z M143.8178,487.5427 L134.9898,487.5427 C134.1348,487.5427 134.1348,488.8247 134.9898,488.8247 L143.8178,488.8247 C144.6728,488.8247 144.6728,487.5427 143.8178,487.5427 L143.8178,487.5427 Z M143.8178,485.1037 L134.9898,485.1037 C134.1348,485.1037 134.1348,486.3867 134.9898,486.3867 L143.8178,486.3867 C144.6728,486.3867 144.6728,485.1037 143.8178,485.1037 L143.8178,485.1037 Z M146.5258,496.1157 L146.5258,480.7417 L142.5438,480.7417 C141.7298,480.7417 141.0658,480.0777 141.0658,479.2627 L141.0658,475.2827 L132.4788,475.2827 C132.3718,475.2827 132.2818,475.3717 132.2818,475.4787 L132.2818,496.1157 C132.2818,496.2197 132.3758,496.3127 132.4788,496.3127 L146.3288,496.3127 C146.4298,496.3127 146.5258,496.2167 146.5258,496.1157 L146.5258,496.1157 Z M142.3478,479.2627 C142.3478,479.3697 142.4378,479.4597 142.5438,479.4597 L145.6188,479.4597 L142.3478,476.1887 L142.3478,479.2627 Z M147.8078,480.1007 L147.8078,496.1157 C147.8078,496.9247 147.1378,497.5947 146.3288,497.5947 L132.4788,497.5947 C131.6688,497.5947 130.9998,496.9297 130.9998,496.1157 L130.9998,475.4787 C130.9998,474.6637 131.6638,473.9997 132.4788,473.9997 L141.7068,473.9997 C141.7168,473.9997 141.7258,474.0057 141.7358,474.0057 C141.7988,474.0077 141.8618,474.0207 141.9228,474.0427 C141.9368,474.0477 141.9508,474.0507 141.9638,474.0567 C142.0328,474.0877 142.0998,474.1277 142.1598,474.1877 L147.6198,479.6467 C147.6798,479.7067 147.7198,479.7737 147.7508,479.8437 C147.7568,479.8567 147.7598,479.8707 147.7648,479.8837 C147.7868,479.9457 147.7998,480.0077 147.8018,480.0717 C147.8028,480.0817 147.8078,480.0907 147.8078,480.1007 L147.8078,480.1007 Z M143.8178,483.9477 L134.9898,483.9477 C134.1348,483.9477 134.1348,482.6657 134.9898,482.6657 L143.8178,482.6657 C144.6728,482.6657 144.6728,483.9477 143.8178,483.9477 L143.8178,483.9477 Z" id="Fill-1"></path>
        </g>
    </g>
</svg>