<?xml version="1.0" encoding="UTF-8" standalone="no"?>
<svg width="12px" height="12px" viewBox="0 0 12 12" version="1.1" xmlns="http://www.w3.org/2000/svg" xmlns:xlink="http://www.w3.org/1999/xlink">
    <!-- Generator: Sketch 39 (31667) - http://www.bohemiancoding.com/sketch -->
    <title>Page 1</title>
    <desc>Created with Sketch.</desc>
    <defs></defs>
    <g id="Page-1" stroke="none" stroke-width="1" fill="none" fill-rule="evenodd">
        <g id="05-MiniaturasMagicas-LojaVirtual-MinhaConta-PainelGeral" transform="translate(-581.000000, -314.000000)" fill="#FFFFFF">
            <g id="Group-2" transform="translate(571.000000, 307.000000)">
                <g id="Group" transform="translate(10.000000, 7.000000)">
                    <path d="M10.1221363,2.76266763 L9.2373905,1.87792182 L9.82182511,1.29348721 L10.7065709,2.17823302 L10.1221363,2.76266763 Z M2.65510495,10.229699 L1.35896629,10.6410918 L1.77035914,9.34495318 L8.47991412,2.63539821 L9.36465993,3.52014402 L2.65510495,10.229699 Z M11.8430646,1.79921573 L10.2008424,0.156993539 C9.99151768,-0.0523311796 9.65213254,-0.0523311796 9.44280782,0.156993539 L0.920221685,8.67957968 C0.854354173,8.74544719 0.809140034,8.82415328 0.785137467,8.90788317 L0.0248700891,11.3031161 C-0.0638835915,11.5850068 0.0924121982,11.8858762 0.374302819,11.975188 C0.483709872,12.0092382 0.595349722,12.0070054 0.696941985,11.975188 L0.699732981,11.9740716 L0.700291181,11.9740716 L3.10278075,11.2115715 C3.18762704,11.1847779 3.26130934,11.1384474 3.32047846,11.0798364 L10.4509157,3.94884104 C10.4704526,3.93432786 10.4933388,3.92707127 10.5112012,3.90920889 C10.5285054,3.89134652 10.5363202,3.86846035 10.5508333,3.84948157 L11.8430646,2.55669211 C12.0523893,2.34792559 12.0523893,2.00854045 11.8430646,1.79921573 L11.8430646,1.79921573 Z" id="Page-1"></path>
                </g>
            </g>
        </g>
    </g>
</svg>