<svg xmlns="http://www.w3.org/2000/svg" width="1109" height="51"><g fill="none"><path fill="#F5A623" d="M33.91 35.12a.45.45 0 0 1-.43.45h-.1a6.86 6.86 0 0 0-6.33-4.24 6.86 6.86 0 0 0-6.3 4.24H15.2a6.86 6.86 0 0 0-6.32-4.24 6.86 6.86 0 0 0-6.3 4.24h-.12a.45.45 0 0 1-.45-.45V29.2c.15.02.3.04.45.04h19a2.48 2.48 0 0 0 2.47-2.5v-4.1l4.3-.05c.4.02 1.53.6 1.84 1.03l2.7 3.8c.7.97 1.12 2.22 1.12 3.42v4.27zM2.04 11.54a.45.45 0 0 1 .45-.44h19a.45.45 0 0 1 .44.44V26.6a.45.45 0 0 1-.45.43h-19a.45.45 0 0 1-.44-.44V11.53zm32.43 14.7l-2.72-3.8c-.63-.86-2.35-1.9-3.5-1.88l-4.3.06v-9.08a2.48 2.48 0 0 0-2.47-2.48h-19A2.48 2.48 0 0 0 0 11.54V26.6c0 .03 0 .06 0 .1 0 .02 0 .03 0 .05v8.37a2.48 2.48 0 0 0 2.48 2.48h.83c.46 0 .86-.3 1-.74a4.82 4.82 0 0 1 4.6-3.5 4.82 4.82 0 0 1 4.62 3.5c.12.44.52.74.98.74h6.95c.46 0 .85-.3.98-.74a4.82 4.82 0 0 1 4.62-3.5 4.82 4.82 0 0 1 4.6 3.5c.14.44.54.74 1 .74h.82a2.48 2.48 0 0 0 2.48-2.48v-4.27a8.07 8.07 0 0 0-1.5-4.6zM8.9 40.47a2 2 0 0 1 0-3.98 2 2 0 0 1 0 3.97m0-6.02a4.03 4.03 0 0 0 0 8.05 4.03 4.03 0 0 0 4.02-4.02 4.03 4.03 0 0 0-4.02-4.03m18.15 6.02a2 2 0 0 1 0-3.98 2 2 0 0 1 0 3.97m0-6.02a4.03 4.03 0 0 0 0 8.05 4.03 4.03 0 0 0 4-4.02 4.03 4.03 0 0 0-4-4.03M48.34 23a.95.95 0 0 1-.95-.96V13.1c0-.53.4-.95.96-.95h6.3a.86.86 0 0 1 .86.85.85.85 0 0 1-.86.86H49.3v2.82h4.67c.46 0 .85.38.85.86a.85.85 0 0 1-.85.84H49.3v2.92h5.44a.86.86 0 0 1 .85.85.85.85 0 0 1-.86.85h-6.38zm9.2-.85v-6.48c0-.53.42-.95.94-.95a.94.94 0 0 1 .94.95v.4c.53-.76 1.3-1.42 2.56-1.42 1.84 0 2.9 1.24 2.9 3.13v4.37c0 .52-.4.93-.92.93a.93.93 0 0 1-.94-.93v-3.8c0-1.27-.64-2-1.76-2-1.08 0-1.84.76-1.84 2.03v3.77c0 .52-.42.93-.95.93a.92.92 0 0 1-.94-.93zm12.37 1c-1.38 0-2.36-.6-2.36-2.4v-4.32h-.3a.8.8 0 0 1-.82-.8.8.8 0 0 1 .8-.8h.32v-1.4c0-.52.42-.94.95-.94.52 0 .94.4.94.92v1.4h1.47c.46 0 .83.35.83.8 0 .45-.37.8-.82.8h-1.46v4.02c0 .73.37 1.02 1 1.02.22 0 .4-.04.47-.04.43 0 .8.34.8.77 0 .33-.23.6-.5.72a3.73 3.73 0 0 1-1.28.22zm3.62-1v-6.48c0-.53.4-.95.93-.95a.94.94 0 0 1 .95.95v.84c.43-1.02 1.24-1.8 2.06-1.8.6 0 .93.4.93.94a.88.88 0 0 1-.73.9c-1.34.23-2.25 1.25-2.25 3.2v2.4c0 .52-.42.94-.95.94a.92.92 0 0 1-.93-.93zm7.54-3.82h4.2c-.13-1.2-.84-2.15-2.08-2.15-1.15 0-1.95.88-2.12 2.15zm5.28 3.77c-.74.67-1.67 1.1-2.94 1.1-2.37 0-4.2-1.73-4.2-4.26v-.03c0-2.33 1.65-4.25 4-4.25 2.6 0 3.9 2.14 3.9 4.03a.88.88 0 0 1-.9.9H81.1c.2 1.33 1.14 2.07 2.35 2.07.8 0 1.4-.28 1.94-.7a.7.7 0 0 1 .47-.18c.4 0 .74.32.74.76a.82.82 0 0 1-.24.57zm6.3 3.4a7.07 7.07 0 0 1-3.15-.72c-.32-.12-.52-.4-.52-.74a.8.8 0 0 1 1.13-.7 5 5 0 0 0 2.52.65c1.68 0 2.6-.88 2.6-2.52v-.63c-.7.88-1.54 1.5-2.9 1.5-1.9 0-3.7-1.43-3.7-3.83v-.03c0-2.43 1.8-3.85 3.7-3.85 1.4 0 2.24.63 2.88 1.4v-.4c0-.5.4-.93.93-.93a.94.94 0 0 1 .94.95v5.66c0 1.38-.35 2.4-1.04 3.08-.74.75-1.9 1.1-3.36 1.1zm.16-4.75c1.3 0 2.4-.9 2.4-2.25v-.03c0-1.33-1.1-2.24-2.4-2.24s-2.32.9-2.32 2.24v.04c0 1.34 1.04 2.25 2.33 2.25zm8.96 2.42c-1.53 0-2.9-.88-2.9-2.53v-.03c0-1.75 1.4-2.62 3.4-2.62.9 0 1.55.14 2.2.34v-.2c0-1.16-.73-1.78-2.04-1.78a4.86 4.86 0 0 0-1.82.32 1.05 1.05 0 0 1-.3.05.78.78 0 0 1-.78-.77c0-.34.23-.63.5-.74a7 7 0 0 1 2.64-.5c1.23 0 2.14.33 2.72.92.6.6.88 1.46.88 2.53v4.03a.9.9 0 0 1-.92.9c-.54 0-.9-.37-.9-.8V22c-.57.66-1.42 1.2-2.68 1.2zm.53-1.36c1.25 0 2.2-.7 2.2-1.75v-.55a5.2 5.2 0 0 0-1.86-.33c-1.2 0-1.93.5-1.93 1.36v.04c0 .8.7 1.24 1.6 1.24zm6.23.35v-6.48c0-.53.4-.95.93-.95a.94.94 0 0 1 .94.95v.4c.53-.74 1.24-1.42 2.5-1.42 1.18 0 2 .57 2.45 1.44.65-.88 1.52-1.45 2.76-1.45 1.8 0 2.87 1.13 2.87 3.13v4.37c0 .53-.4.93-.93.93a.93.93 0 0 1-.94-.93v-3.8c0-1.3-.6-2-1.66-2-1.02 0-1.75.7-1.75 2.03v3.77c0 .52-.43.93-.94.93a.93.93 0 0 1-.95-.93v-3.82c0-1.27-.6-1.98-1.65-1.98-1.03 0-1.75.77-1.75 2.03v3.77c0 .52-.42.93-.94.93a.92.92 0 0 1-.93-.93zm18.6 1.04c-2.48 0-4.33-1.92-4.33-4.25v-.03c0-2.34 1.86-4.27 4.37-4.27 2.5 0 4.36 1.9 4.36 4.24v.02c0 2.33-1.86 4.27-4.4 4.27zm.04-1.66c1.52 0 2.48-1.17 2.48-2.58v-.04c0-1.44-1.04-2.63-2.5-2.63-1.5 0-2.47 1.17-2.47 2.6v.02c0 1.43 1.04 2.62 2.5 2.62zm9.07 1.62a5.6 5.6 0 0 1-3.12-.98c-.2-.1-.35-.34-.35-.65a.75.75 0 0 1 .76-.76c.15 0 .3.04.4.1.8.53 1.6.8 2.36.8.8 0 1.26-.34 1.26-.9v-.02c0-.63-.87-.85-1.83-1.14-1.2-.34-2.56-.83-2.56-2.4v-.03c0-1.55 1.3-2.5 2.92-2.5.85 0 1.77.25 2.56.67.26.14.45.4.45.72 0 .43-.33.76-.77.76a.74.74 0 0 1-.37-.1c-.67-.34-1.35-.55-1.92-.55-.73 0-1.15.34-1.15.8V17c0 .6.88.85 1.84 1.16 1.2.38 2.54.92 2.54 2.4v.02c0 1.72-1.33 2.57-3.04 2.57zm11.02-4.82h4.2c-.12-1.2-.84-2.16-2.08-2.16-1.14 0-1.95.88-2.12 2.15zm5.3 3.76c-.76.67-1.7 1.1-2.96 1.1-2.37 0-4.2-1.73-4.2-4.26v-.03c0-2.33 1.66-4.25 4-4.25 2.6 0 3.9 2.14 3.9 4.03a.88.88 0 0 1-.9.9h-5.12c.2 1.33 1.14 2.07 2.35 2.07.8 0 1.4-.28 1.94-.7a.7.7 0 0 1 .48-.18c.42 0 .74.32.74.76a.82.82 0 0 1-.25.57zm2.65.05v-6.48c0-.53.42-.95.94-.95a.94.94 0 0 1 .95.95v.4c.52-.74 1.23-1.42 2.48-1.42 1.18 0 2.02.57 2.45 1.44.65-.88 1.52-1.45 2.76-1.45 1.77 0 2.86 1.13 2.86 3.13v4.37c0 .52-.4.93-.93.93a.93.93 0 0 1-.95-.93v-3.8c0-1.3-.6-2-1.66-2-1.02 0-1.75.7-1.75 2.03v3.77c0 .52-.4.93-.93.93a.93.93 0 0 1-.94-.93v-3.82c0-1.27-.62-1.98-1.66-1.98s-1.75.77-1.75 2.03v3.77c0 .52-.43.93-.96.93a.92.92 0 0 1-.93-.93z"/><path fill="#E75B22" d="M51.73 41.17c-1.77 0-2.96-.7-2.96-3.06v-4.8h-.1a1.23 1.23 0 0 1-1.23-1.25c0-.68.55-1.23 1.23-1.23h.1v-1.28a1.44 1.44 0 1 1 2.88 0v1.28h1.28c.68 0 1.23.55 1.23 1.23s-.55 1.24-1.23 1.24h-1.27v4.34c0 .66.28.98.93.98.08 0 .27 0 .33 0 .64 0 1.2.52 1.2 1.18 0 .52-.35.93-.75 1.1-.53.2-1.02.27-1.65.27zm9.16.06c-3.16 0-5.5-2.34-5.5-5.26v-.04c0-2.93 2.35-5.3 5.53-5.3 3.15 0 5.5 2.33 5.5 5.26v.03c0 2.92-2.37 5.3-5.54 5.3zm.03-2.5c1.65 0 2.64-1.26 2.64-2.76v-.04c0-1.5-1.1-2.8-2.68-2.8-1.66 0-2.65 1.26-2.65 2.76v.03c0 1.5 1.08 2.8 2.68 2.8zm17.82-10.27v11.2a1.44 1.44 0 1 1-2.9 0v-.12c-.7.95-1.66 1.65-3.16 1.65-2.4 0-4.65-1.87-4.65-5.27v-.04c0-3.4 2.22-5.27 4.64-5.27 1.53 0 2.48.7 3.16 1.52v-3.7a1.44 1.44 0 1 1 2.9 0zm-5.32 4.62c-1.35 0-2.5 1.1-2.5 2.8v.05c0 1.7 1.15 2.8 2.5 2.8s2.47-1.1 2.47-2.8v-.04c0-1.7-1.12-2.82-2.47-2.82zm12.9 8.15c-3.15 0-5.5-2.34-5.5-5.27v-.03c0-2.93 2.37-5.3 5.54-5.3 3.15 0 5.5 2.33 5.5 5.26v.03c0 2.92-2.37 5.3-5.54 5.3zm.04-2.5c1.65 0 2.64-1.26 2.64-2.76v-.04c0-1.5-1.07-2.81-2.67-2.81-1.65 0-2.64 1.27-2.64 2.77v.03c0 1.5 1.07 2.8 2.67 2.8zm18.28 2.5c-3.16 0-5.5-2.34-5.5-5.27v-.03c0-2.93 2.36-5.3 5.53-5.3 3.16 0 5.5 2.33 5.5 5.26v.03c0 2.92-2.36 5.3-5.53 5.3zm.03-2.5c1.66 0 2.64-1.26 2.64-2.76v-.04c0-1.5-1.08-2.81-2.67-2.81-1.66 0-2.65 1.27-2.65 2.77v.03c0 1.5 1.1 2.8 2.68 2.8zm13.6.8V29.17c0-.8.63-1.46 1.45-1.46h4.7c1.53 0 2.73.42 3.5 1.18.6.6.9 1.35.9 2.26v.04c0 1.5-.8 2.33-1.75 2.87 1.54.6 2.5 1.48 2.5 3.26v.05c0 2.43-1.98 3.65-4.98 3.65h-4.87a1.45 1.45 0 0 1-1.46-1.46zm2.84-6.45h2.7c1.3 0 2.1-.42 2.1-1.4v-.05c0-.87-.68-1.36-1.9-1.36h-2.9v2.8zm0 5.35h3.48c1.3 0 2.07-.45 2.07-1.44v-.05c0-.9-.67-1.44-2.17-1.44h-3.38v2.93zm10.56 1.24v-7.52a1.44 1.44 0 1 1 2.9 0v.45c.4-1 1.1-1.9 1.95-1.9.9 0 1.4.6 1.4 1.4 0 .77-.5 1.22-1.08 1.36-1.46.34-2.28 1.46-2.28 3.5v2.7a1.44 1.44 0 1 1-2.9 0zm10.36 1.52c-1.92 0-3.5-1.1-3.5-3.13v-.03c0-2.23 1.7-3.25 4.1-3.25 1.03 0 1.77.16 2.5.4v-.17c0-1.2-.75-1.86-2.2-1.86-.8 0-1.43.12-2 .3a1.22 1.22 0 0 1-.4.06 1.18 1.18 0 0 1-1.2-1.18c0-.5.32-.95.78-1.12.9-.34 1.9-.53 3.25-.53 1.57 0 2.7.42 3.44 1.14.77.76 1.1 1.88 1.1 3.25v4.63c0 .78-.62 1.38-1.4 1.38-.83 0-1.38-.57-1.38-1.18v-.02c-.7.78-1.68 1.3-3.08 1.3zm.87-2c1.36 0 2.27-.75 2.27-1.8v-.5a4.48 4.48 0 0 0-1.84-.38c-1.24 0-2 .5-2 1.4v.04c0 .78.65 1.23 1.58 1.23zm11.07 2a7.1 7.1 0 0 1-3.84-1.17 1.15 1.15 0 0 1-.55-1c0-.63.5-1.13 1.14-1.13.2 0 .42.06.57.16.96.6 1.93.9 2.75.9.83 0 1.2-.3 1.2-.75v-.03c0-.63-.98-.84-2.1-1.18-1.42-.43-3.04-1.1-3.04-3.07v-.04c0-2.08 1.68-3.24 3.74-3.24 1.06 0 2.16.3 3.15.78.4.2.67.6.67 1.1 0 .63-.5 1.13-1.15 1.13-.2 0-.35-.04-.54-.14-.8-.4-1.6-.64-2.2-.64-.7 0-1.06.3-1.06.7v.03c0 .57.96.83 2.07 1.2 1.4.5 3.06 1.17 3.06 3.04v.03c0 2.26-1.7 3.3-3.9 3.3zm5.93-12.78v-.04c0-.83.7-1.35 1.6-1.35s1.63.52 1.63 1.35v.04c0 .84-.7 1.37-1.62 1.37s-1.6-.54-1.6-1.38zm.17 11.25v-7.52a1.44 1.44 0 1 1 2.9 0v7.52a1.44 1.44 0 1 1-2.9 0zm5.74 0v-11.2a1.44 1.44 0 1 1 2.9 0v11.2a1.44 1.44 0 1 1-2.9 0zm83.78-11.45c-1.75 0-2.95-.47-3.96-1.2a1.28 1.28 0 0 1-.56-1.05c0-.72.6-1.34 1.32-1.34.32 0 .54.1.75.26.78.54 1.5.8 2.4.8 1.17 0 2.03-.63 2.03-1.75v-.04c0-1.07-.92-1.7-2.23-1.7-1.06 0-1.53.33-1.9.33-.4 0-.7-.16-1.27-.56-.38-.27-.54-.65-.5-1.12l.25-4.26c.04-.68.57-1.2 1.23-1.2h5.47c.67 0 1.23.56 1.23 1.22 0 .67-.56 1.2-1.23 1.2h-4.24l-.15 2.2a6.16 6.16 0 0 1 1.67-.23c2.48 0 4.4 1.18 4.4 4.02v.04c0 2.66-1.92 4.36-4.7 4.36zm9.6-6.52c-1.8 0-3.03-1.42-3.03-3.2v-.02c0-1.78 1.24-3.22 3.08-3.22 1.82 0 3.04 1.42 3.04 3.18v.04c0 1.76-1.24 3.22-3.08 3.22zm-1 5.56c0-.23.08-.4.18-.57l8.05-11.03a.9.9 0 0 1 .75-.38c.47 0 .84.37.84.84a.9.9 0 0 1-.2.57l-8.05 11.03a.9.9 0 0 1-.74.38.84.84 0 0 1-.83-.84zm8.75.88c-1.82 0-3.04-1.42-3.04-3.18v-.04c0-1.78 1.23-3.22 3.07-3.22 1.82 0 3.04 1.42 3.04 3.2v.02c0 1.77-1.23 3.22-3.07 3.22zm-7.7-8.08c.75 0 1.15-.74 1.15-1.55v-.02c0-.85-.47-1.6-1.2-1.6-.74 0-1.14.73-1.14 1.56v.04c0 .84.47 1.58 1.2 1.58zm7.74 6.45c.75 0 1.15-.73 1.15-1.54v-.04c0-.84-.47-1.58-1.2-1.58-.74 0-1.14.72-1.14 1.55v.02c0 .85.47 1.6 1.2 1.6zm20.18-10.38v10.62a1.37 1.37 0 1 1-2.74 0v-.13c-.66.9-1.57 1.58-3 1.58-2.25 0-4.4-1.76-4.4-5v-.02c0-3.22 2.12-5 4.4-5 1.46 0 2.36.68 3 1.45v-3.48a1.37 1.37 0 1 1 2.75 0zm-5.04 4.37c-1.27 0-2.35 1.04-2.35 2.66v.03c0 1.6 1.08 2.66 2.36 2.66s2.35-1.06 2.35-2.67v-.04c0-1.6-1.07-2.67-2.34-2.67zm9.7 1.92h4.13c-.16-1.22-.88-2.05-2.03-2.05-1.14 0-1.88.8-2.1 2.05zm5.7 4.63c-.83.72-1.93 1.17-3.33 1.17-2.9 0-5.04-2.04-5.04-5v-.03c0-2.76 1.96-5.03 4.77-5.03 3.22 0 4.64 2.65 4.64 4.65 0 .8-.56 1.3-1.28 1.3h-5.42c.27 1.25 1.14 1.9 2.36 1.9.76 0 1.4-.23 1.95-.65.2-.14.37-.2.66-.2.62 0 1.07.45 1.07 1.07 0 .36-.16.63-.36.8zm18.23-10.93v10.62a1.37 1.37 0 1 1-2.74 0v-.13c-.67.9-1.6 1.58-3 1.58-2.26 0-4.4-1.76-4.4-5v-.02c0-3.22 2.1-5 4.4-5 1.45 0 2.35.68 3 1.45v-3.48a1.37 1.37 0 1 1 2.73 0zm-5.04 4.37c-1.3 0-2.37 1.04-2.37 2.66v.03c0 1.6 1.08 2.66 2.36 2.66s2.33-1.06 2.33-2.67v-.04c0-1.6-1.06-2.67-2.34-2.67zm9.7 1.92h4.1c-.15-1.22-.87-2.05-2.02-2.05-1.13 0-1.87.8-2.1 2.05zm5.7 4.63c-.85.72-1.95 1.17-3.35 1.17-2.9 0-5.04-2.04-5.04-5v-.03c0-2.76 1.97-5.03 4.78-5.03 3.22 0 4.64 2.65 4.64 4.65 0 .8-.55 1.3-1.27 1.3h-5.42c.27 1.25 1.13 1.9 2.36 1.9.74 0 1.37-.23 1.93-.65.2-.14.38-.2.67-.2.6 0 1.06.45 1.06 1.07 0 .36-.16.63-.36.8zm6.5 1.13a6.72 6.72 0 0 1-3.64-1.1 1.1 1.1 0 0 1-.52-.93c0-.62.47-1.08 1.08-1.08.2 0 .4.05.54.14.92.6 1.83.87 2.6.87.8 0 1.16-.28 1.16-.72v-.03c0-.6-.94-.8-2-1.12-1.35-.4-2.88-1.02-2.88-2.9v-.03c0-1.96 1.6-3.06 3.53-3.06 1 0 2.05.28 3 .75.38.2.64.55.64 1.02 0 .6-.48 1.08-1.1 1.08a1 1 0 0 1-.5-.12c-.77-.38-1.5-.62-2.08-.62-.67 0-1 .3-1 .68v.04c0 .54.9.8 1.95 1.15 1.35.45 2.92 1.1 2.92 2.86v.04c0 2.14-1.62 3.1-3.7 3.1zm10.2.04c-2.9 0-5.02-2.24-5.02-5v-.03c0-2.76 2.1-5.03 5.06-5.03 1.46 0 2.48.4 3.3 1.08.17.15.42.47.42.94a1.23 1.23 0 0 1-1.24 1.2c-.36 0-.63-.13-.8-.26-.48-.38-.98-.6-1.7-.6-1.37 0-2.34 1.2-2.34 2.62v.03c0 1.47.95 2.66 2.45 2.66.72 0 1.28-.25 1.8-.67.14-.12.4-.26.74-.26.64 0 1.15.52 1.15 1.17 0 .37-.16.66-.4.87-.8.74-1.83 1.25-3.42 1.25zm10.2 0c-3 0-5.2-2.22-5.2-5v-.03c0-2.78 2.22-5.03 5.23-5.03 2.98 0 5.2 2.22 5.2 5v.02c0 2.77-2.23 5.02-5.24 5.02zm.03-2.36c1.56 0 2.5-1.2 2.5-2.63v-.04c0-1.43-1.03-2.67-2.54-2.67-1.58 0-2.5 1.2-2.5 2.63v.03c0 1.42 1 2.66 2.53 2.66zm7.18.88V19.6a1.37 1.37 0 1 1 2.74 0v.12c.63-.8 1.44-1.55 2.83-1.55 2.07 0 3.28 1.37 3.28 3.58v5a1.37 1.37 0 1 1-2.74 0V22.6c0-1.3-.6-1.96-1.65-1.96s-1.7.66-1.7 1.96v4.12a1.37 1.37 0 1 1-2.74 0zm14.48 1.42c-1.67 0-2.8-.66-2.8-2.9V20.7h-.1c-.65 0-1.17-.53-1.17-1.18 0-.65.53-1.17 1.18-1.17h.1v-1.2a1.37 1.37 0 1 1 2.73 0v1.2h1.2c.66 0 1.18.52 1.18 1.17 0 .65-.52 1.17-1.17 1.17h-1.2v4.1c0 .64.28.95.9.95.08 0 .26-.02.3-.02a1.14 1.14 0 0 1 1.15 1.14c0 .48-.33.88-.7 1.02-.5.2-.98.26-1.57.26zm8.68.06c-3 0-5.2-2.22-5.2-5v-.03c0-2.78 2.23-5.03 5.23-5.03 2.98 0 5.2 2.22 5.2 5v.02c0 2.77-2.24 5.02-5.24 5.02zm.03-2.36c1.56 0 2.5-1.2 2.5-2.63v-.04c0-1.43-1.03-2.67-2.54-2.67-1.57 0-2.5 1.2-2.5 2.63v.03c0 1.42 1.02 2.66 2.53 2.66z"/><path fill="#F5A623" d="M246.17 38.1h3.52c-.1-1.03-.7-1.82-1.75-1.82-.96 0-1.64.74-1.78 1.8zm4.43 3.15c-.62.56-1.4.9-2.47.9-2 0-3.52-1.44-3.52-3.56v-.03c0-1.97 1.4-3.58 3.36-3.58 2.2 0 3.27 1.8 3.27 3.37a.74.74 0 0 1-.74.76h-4.32c.17 1.1.97 1.74 1.98 1.74.66 0 1.18-.24 1.63-.6a.6.6 0 0 1 .4-.14.62.62 0 0 1 .6.63.7.7 0 0 1-.2.5zm2.24.04v-5.45c0-.44.34-.8.78-.8s.8.36.8.8v.33c.43-.6 1.03-1.2 2.1-1.2.97 0 1.68.5 2.04 1.22.55-.73 1.27-1.2 2.3-1.2 1.5 0 2.42.94 2.42 2.62v3.67c0 .43-.34.77-.78.77a.78.78 0 0 1-.8-.78v-3.2c0-1.1-.5-1.68-1.4-1.68-.84 0-1.45.6-1.45 1.7v3.17c0 .43-.36.77-.78.77a.78.78 0 0 1-.8-.78v-3.2c0-1.08-.52-1.68-1.4-1.68s-1.46.65-1.46 1.7v3.17c0 .43-.34.77-.78.77a.77.77 0 0 1-.78-.78zm17.58-.03V34.4l-.94.3a1.16 1.16 0 0 1-.3.03c-.36 0-.7-.3-.7-.67 0-.34.22-.6.55-.7l1.37-.43c.32-.1.55-.15.78-.15h.03a.78.78 0 0 1 .8.8v7.7a.8.8 0 0 1-.8.8.8.8 0 0 1-.78-.8zm3.45.13c0-.22.08-.4.23-.54l1.95-2.34-1.8-2.15c-.18-.2-.27-.4-.27-.6a.7.7 0 0 1 .73-.72c.32 0 .54.14.73.4l1.55 2 1.57-2c.2-.24.4-.4.68-.4.42 0 .74.3.74.68 0 .23-.1.38-.22.54l-1.86 2.22 1.92 2.27c.16.2.26.38.26.6a.7.7 0 0 1-.73.72c-.32 0-.54-.15-.73-.4l-1.67-2.16-1.66 2.15c-.2.2-.4.4-.7.4-.4 0-.73-.3-.73-.7zm11.72-.1v-5.45c0-.44.33-.8.77-.8s.8.36.8.8v.34c.43-.65 1.07-1.2 2.14-1.2 1.55 0 2.45 1.03 2.45 2.62v3.67c0 .43-.34.77-.78.77a.78.78 0 0 1-.8-.78v-3.2c0-1.07-.53-1.68-1.46-1.68-.9 0-1.54.64-1.54 1.7v3.17c0 .43-.35.77-.8.77a.77.77 0 0 1-.77-.78zm11.3.86c-2.08 0-3.63-1.6-3.63-3.55v-.02c0-1.96 1.56-3.6 3.67-3.6s3.65 1.6 3.65 3.58v.02c0 1.95-1.57 3.58-3.7 3.58zm.04-1.38c1.27 0 2.08-1 2.08-2.17v-.02c0-1.2-.87-2.2-2.1-2.2-1.27 0-2.08.98-2.08 2.18v.02c0 1.2.87 2.2 2.1 2.2zm12.32 1.38c-2.04 0-3.55-1.6-3.55-3.55v-.02c0-1.95 1.52-3.6 3.6-3.6 1.07 0 1.8.36 2.4.87a.75.75 0 0 1 .24.55.72.72 0 0 1-.73.7.8.8 0 0 1-.46-.14c-.4-.34-.84-.6-1.47-.6-1.14 0-2 1-2 2.2v.02c0 1.22.86 2.2 2.07 2.2.62 0 1.1-.25 1.53-.6a.68.68 0 0 1 .43-.18c.38 0 .68.3.68.7a.6.6 0 0 1-.22.48c-.62.6-1.36.98-2.5.98zm6.23-.02c-1.3 0-2.44-.74-2.44-2.12V40c0-1.48 1.15-2.2 2.83-2.2.76 0 1.3.1 1.84.27v-.16c0-.97-.6-1.5-1.7-1.5-.6 0-1.1.1-1.53.28a.88.88 0 0 1-.23.04.66.66 0 0 1-.67-.65c0-.28.2-.53.43-.62a5.88 5.88 0 0 1 2.2-.4c1.04 0 1.8.27 2.3.76.5.5.73 1.23.73 2.13v3.38a.75.75 0 0 1-.77.77c-.47 0-.78-.32-.78-.67v-.26c-.47.56-1.18 1-2.23 1zm.43-1.14c1.04 0 1.83-.6 1.83-1.47v-.47a4.36 4.36 0 0 0-1.56-.27c-1 0-1.6.42-1.6 1.13v.03c0 .66.58 1.04 1.33 1.04zm5.2.3v-5.45c0-.44.35-.8.8-.8s.8.36.8.8v.7c.35-.85 1.03-1.5 1.7-1.5.5 0 .8.32.8.78a.74.74 0 0 1-.63.75c-1.12.2-1.9 1.05-1.9 2.68v2.03c0 .4-.34.77-.78.77a.77.77 0 0 1-.78-.78zm7.68.82c-1.14 0-1.96-.5-1.96-2.02v-3.6h-.26a.67.67 0 0 1-.68-.7c0-.36.3-.66.68-.66h.26v-1.17c0-.43.35-.78.8-.78.42 0 .77.34.77.77v1.17h1.24c.38 0 .7.3.7.67a.68.68 0 0 1-.7.7h-1.23v3.36c0 .6.32.85.85.85.2 0 .34-.03.4-.03.35 0 .66.3.66.65 0 .3-.2.52-.4.62a3.13 3.13 0 0 1-1.1.18zm5.03.02c-1.3 0-2.43-.74-2.43-2.12V40c0-1.48 1.16-2.2 2.83-2.2.77 0 1.32.1 1.85.27v-.16c0-.97-.6-1.5-1.7-1.5-.6 0-1.1.1-1.52.28a.88.88 0 0 1-.25.04.66.66 0 0 1-.65-.65c0-.28.2-.53.42-.62a5.88 5.88 0 0 1 2.2-.4c1.04 0 1.8.27 2.3.76.5.5.73 1.23.73 2.13v3.38a.75.75 0 0 1-.77.77c-.45 0-.76-.32-.76-.67v-.26c-.47.56-1.2 1-2.24 1zm-.55-7.98c-.1.14-.22.26-.42.26-.26 0-.5-.2-.5-.43 0-.1.04-.22.07-.3.27-.76.63-1.2 1.32-1.2.72 0 1.4.53 1.87.53.3 0 .45-.13.6-.42.1-.13.24-.25.43-.25.26 0 .48.2.48.43 0 .08-.02.2-.05.3-.27.76-.64 1.2-1.33 1.2-.7 0-1.4-.53-1.87-.53-.3 0-.44.13-.6.4zm1 6.84c1.03 0 1.83-.6 1.83-1.47v-.47a4.36 4.36 0 0 0-1.55-.27c-1.02 0-1.62.42-1.62 1.13v.03c0 .66.6 1.04 1.34 1.04zm8.47 1.16c-2.1 0-3.64-1.6-3.64-3.55v-.02c0-1.96 1.57-3.6 3.67-3.6s3.66 1.6 3.66 3.58v.02c0 1.95-1.56 3.58-3.68 3.58zm.02-1.38c1.28 0 2.08-1 2.08-2.17v-.02c0-1.2-.87-2.2-2.1-2.2-1.26 0-2.07.98-2.07 2.18v.02c0 1.2.87 2.2 2.1 2.2zm15.9-7.55v8.06c0 .43-.35.77-.78.77a.78.78 0 0 1-.8-.78v-.44c-.5.7-1.22 1.28-2.34 1.28-1.6 0-3.18-1.28-3.18-3.56v-.02c0-2.28 1.54-3.57 3.18-3.57 1.13 0 1.85.55 2.34 1.2v-2.97c0-.45.35-.78.78-.78.44 0 .8.33.8.78zm-3.53 3.13c-1.08 0-1.98.83-1.98 2.2v.02c0 1.33.9 2.2 1.98 2.2 1.05 0 2-.9 2-2.2v-.02c0-1.33-.95-2.2-2-2.2zm6.7 1.73h3.52c-.1-1.03-.7-1.82-1.75-1.82-.95 0-1.62.74-1.77 1.8zm4.43 3.15c-.63.56-1.4.9-2.47.9-2 0-3.53-1.44-3.53-3.56v-.03c0-1.96 1.4-3.58 3.36-3.58 2.18 0 3.26 1.8 3.26 3.37a.74.74 0 0 1-.75.76h-4.3c.16 1.12.96 1.74 1.97 1.74.66 0 1.18-.23 1.63-.6a.6.6 0 0 1 .4-.14.62.62 0 0 1 .62.64.7.7 0 0 1-.2.48zm9.3.9c-2.04 0-3.55-1.6-3.55-3.54v-.02c0-1.95 1.5-3.6 3.58-3.6 1.08 0 1.82.36 2.4.87a.75.75 0 0 1 .25.55.72.72 0 0 1-.73.7.8.8 0 0 1-.46-.14c-.4-.34-.85-.6-1.47-.6-1.16 0-2 1-2 2.2v.02c0 1.22.84 2.2 2.05 2.2.63 0 1.1-.25 1.54-.6a.68.68 0 0 1 .4-.18c.4 0 .7.3.7.7a.6.6 0 0 1-.23.48c-.6.6-1.35.98-2.5.98zm4.25-.86v-5.45c0-.44.34-.8.78-.8s.8.36.8.8v.7c.36-.85 1.04-1.5 1.73-1.5.5 0 .78.32.78.78a.74.74 0 0 1-.62.75c-1.12.2-1.88 1.05-1.88 2.68v2.03c0 .4-.35.77-.8.77a.77.77 0 0 1-.78-.78zm8.05-6.97c-.22 0-.4-.1-.4-.27 0-.1.06-.2.12-.3l.73-1.13c.14-.24.35-.38.62-.38.42 0 .94.26.94.5 0 .15-.1.28-.23.4l-.88.83c-.32.3-.56.35-.93.35zm-1.73 3.76h3.53c-.1-1.03-.7-1.82-1.75-1.82-.96 0-1.63.74-1.78 1.8zm4.44 3.15c-.63.56-1.4.9-2.47.9-1.98 0-3.52-1.44-3.52-3.56v-.03c0-1.96 1.4-3.58 3.36-3.58 2.18 0 3.26 1.8 3.26 3.37a.74.74 0 0 1-.74.76h-4.3c.16 1.12.96 1.74 1.97 1.74.66 0 1.18-.23 1.63-.6a.6.6 0 0 1 .4-.14.62.62 0 0 1 .62.64.7.7 0 0 1-.2.48zm8.98-8.02v8.06c0 .43-.35.77-.78.77a.78.78 0 0 1-.8-.78v-.44c-.5.7-1.22 1.28-2.33 1.28-1.62 0-3.2-1.28-3.2-3.56v-.02c0-2.28 1.56-3.57 3.2-3.57 1.13 0 1.84.55 2.34 1.2v-2.97c0-.45.34-.78.77-.78.44 0 .8.33.8.78zm-3.54 3.13c-1.08 0-1.97.83-1.97 2.2v.02c0 1.33.9 2.2 1.97 2.2 1.06 0 2-.9 2-2.2v-.02c0-1.33-.94-2.2-2-2.2zm5.5-3v-.07c0-.48.38-.78.9-.78s.88.3.88.77v.07c0 .47-.4.78-.9.78s-.9-.3-.9-.78zm.1 7.93v-5.45c0-.44.34-.8.8-.8s.78.36.78.8v5.44c0 .43-.35.77-.8.77a.77.77 0 0 1-.77-.78zm5.93.82c-1.15 0-1.97-.5-1.97-2.02v-3.6h-.26a.67.67 0 0 1-.68-.7c0-.36.3-.66.68-.66h.26v-1.17c0-.43.35-.78.8-.78.42 0 .77.34.77.77v1.17h1.24c.36 0 .67.3.67.67a.68.68 0 0 1-.68.7h-1.25v3.36c0 .6.3.85.85.85.18 0 .33-.03.4-.03.34 0 .65.3.65.65 0 .3-.2.52-.42.62a3.13 3.13 0 0 1-1.08.18zm6.1.04c-2.08 0-3.63-1.6-3.63-3.55v-.02c0-1.96 1.56-3.6 3.67-3.6s3.64 1.6 3.64 3.58v.02c0 1.95-1.56 3.58-3.68 3.58zm.04-1.38c1.26 0 2.07-1 2.07-2.17v-.02c0-1.2-.87-2.2-2.1-2.2-1.27 0-2.07.98-2.07 2.18v.02c0 1.2.87 2.2 2.1 2.2z"/><path fill="#F5A623" fill-rule="nonzero" d="M236.27 26c0-.52-.27-1.03-1.05-2.08-.34-.48-.44-.62-.6-.85-.3-.48-.53-.9-.66-1.34-.2-.7-.2-1.3-.06-2.52.14-1.37.12-1.88-.12-2.3-.24-.43-.7-.7-1.9-1.26-1.2-.54-1.7-.8-2.2-1.32s-.78-1-1.32-2.2c-.55-1.2-.84-1.66-1.28-1.92-.38-.22-.88-.24-2.18-.1h-.18c-1.13.12-1.77.13-2.46-.07-.44-.12-.85-.34-1.33-.65a18.18 18.18 0 0 1-.85-.6c-1.06-.78-1.56-1.05-2.08-1.05s-1.03.27-2.1 1.05c-.46.34-.6.44-.83.6-.48.3-.9.53-1.34.66-.7.2-1.3.2-2.52.06-1.37-.14-1.88-.12-2.3.12-.43.24-.7.7-1.26 1.9-.54 1.2-.8 1.7-1.32 2.2s-1 .78-2.2 1.3c-1.2.57-1.66.85-1.92 1.3-.22.38-.24.88-.1 2.18v.18c.12 1.13.13 1.77-.07 2.46-.12.43-.34.85-.65 1.33-.16.23-.26.37-.6.84-.78 1.08-1.05 1.58-1.05 2.1s.27 1.03 1.05 2.08c.34.48.44.62.6.85.3.48.53.9.66 1.34.2.7.2 1.3.06 2.52-.14 1.37-.12 1.88.12 2.3.24.43.7.7 1.9 1.26 1.2.54 1.7.8 2.2 1.32s.78 1 1.3 2.2c.57 1.2.85 1.66 1.3 1.9.38.24.88.26 2.18.13h.18c1.13-.12 1.77-.13 2.46.07.43.12.85.34 1.33.65.23.16.37.26.84.6 1.07.78 1.58 1.05 2.1 1.05s1.03-.27 2.08-1.05c.48-.34.6-.44.85-.6.48-.3.9-.53 1.34-.66.7-.2 1.3-.2 2.5-.06 1.4.14 1.9.12 2.33-.12.42-.24.7-.7 1.26-1.9.54-1.2.8-1.7 1.32-2.2s1-.78 2.18-1.3c1.23-.57 1.68-.86 1.93-1.3.22-.38.24-.88.1-2.18v-.18c-.13-1.13-.13-1.77.07-2.46.12-.43.34-.85.65-1.33.16-.23.26-.37.6-.84.78-1.08 1.05-1.58 1.05-2.1zm1.73 0c0 1.03-.38 1.75-1.38 3.1-.33.46-.42.58-.55.8-.23.33-.37.6-.44.83-.1.4-.1.9-.02 1.82l.03.17c.17 1.7.15 2.42-.34 3.23-.5.87-1.14 1.28-2.7 2-1 .43-1.4.65-1.7.96-.3.3-.52.7-.96 1.68-.7 1.58-1.12 2.22-2 2.7-.85.5-1.58.52-3.25.35-1.08-.1-1.54-.12-1.95 0-.24.07-.52.2-.86.44-.22.13-.34.22-.8.55-1.35 1-2.07 1.38-3.1 1.38-1.03 0-1.75-.38-3.1-1.38a17.06 17.06 0 0 0-.8-.55c-.33-.23-.6-.37-.83-.44-.4-.1-.9-.1-1.82-.02l-.17.03c-1.7.17-2.42.15-3.23-.34-.87-.5-1.28-1.14-2-2.7-.43-1-.65-1.4-.96-1.7-.3-.3-.7-.52-1.68-.96-1.58-.7-2.22-1.12-2.7-2-.5-.85-.52-1.58-.35-3.25.1-1.08.12-1.54 0-1.95-.07-.24-.2-.52-.44-.86-.13-.22-.22-.34-.55-.8-1-1.35-1.38-2.07-1.38-3.1 0-1.03.38-1.75 1.38-3.1.33-.46.42-.58.55-.8.23-.33.37-.6.44-.83.1-.4.1-.9.02-1.82l-.03-.17c-.17-1.7-.15-2.42.34-3.23.5-.87 1.14-1.28 2.7-2 1-.43 1.4-.65 1.7-.96.3-.3.52-.7.96-1.68.7-1.58 1.12-2.22 2-2.7.85-.5 1.58-.52 3.25-.35 1.08.1 1.54.12 1.95 0 .24-.07.52-.2.86-.44.22-.13.34-.22.8-.55 1.35-1 2.07-1.38 3.1-1.38 1.03 0 1.75.38 3.1 1.38.46.33.58.42.8.55.33.23.6.37.83.44.4.1.9.1 1.82.02l.17-.03c1.7-.17 2.42-.15 3.23.34.87.5 1.28 1.14 2 2.7.43 1 .65 1.4.96 1.7.3.3.7.52 1.68.96 1.58.7 2.22 1.12 2.7 2 .5.85.52 1.58.35 3.25-.1 1.08-.12 1.54 0 1.95.07.24.2.52.44.86.13.22.22.34.55.8 1 1.35 1.38 2.07 1.38 3.1zm-25.02-.78a3.55 3.55 0 1 1 0-7.1 3.55 3.55 0 0 1 0 7.1zm0-1.73a1.82 1.82 0 1 0 0-3.65 1.82 1.82 0 0 0 0 3.64zm9.26 11.33a3.55 3.55 0 1 1 0-7.1 3.55 3.55 0 0 1 0 7.1zm0-1.73a1.82 1.82 0 1 0 0-3.64 1.82 1.82 0 0 0 0 3.64zm.95-13.42a.87.87 0 0 1 1.22 1.22L212.3 33.1a.87.87 0 1 1-1.24-1.22l12.13-12.2z"/><path fill="#F5A623" d="M709.7 15.94v-7.3h-2.22a1.07 1.07 0 0 1-1.06-1.07c0-.6.48-1.07 1.06-1.07h6.75c.6 0 1.07.48 1.07 1.07a1.07 1.07 0 0 1-1.06 1.06H712v7.3c0 .65-.5 1.16-1.16 1.16s-1.16-.52-1.16-1.17zm8.43 1.06c-.64 0-1.15-.5-1.15-1.16V7.67c0-.65.5-1.16 1.16-1.16h5.82c.57 0 1.03.47 1.03 1.04 0 .57-.47 1.02-1.04 1.02h-4.68v2.13h4c.57 0 1.04.45 1.04 1.02 0 .57-.47 1.02-1.04 1.02h-4v2.2h4.75c.57 0 1.04.47 1.04 1.04 0 .57-.47 1.02-1.04 1.02h-5.9zm8.9-1.16V7.58c0-.65.5-1.16 1.16-1.16s1.14.52 1.14 1.17v7.33h4.27c.6 0 1.06.47 1.06 1.05S734.2 17 733.62 17h-5.43c-.66 0-1.17-.5-1.17-1.16zM737.47 17c-.65 0-1.16-.5-1.16-1.16V7.67c.02-.65.53-1.16 1.17-1.16h5.82c.56 0 1.03.47 1.03 1.04 0 .57-.47 1.02-1.04 1.02h-4.7v2.13h4.02c.57 0 1.03.45 1.03 1.02 0 .57-.46 1.02-1.03 1.02h-4v2.2h4.75c.57 0 1.03.47 1.03 1.04 0 .57-.46 1.02-1.03 1.02h-5.9zm13 .17c-.63 0-1.06-.35-1.3-.92l-3.4-8.14a1.44 1.44 0 0 1-.14-.55c0-.64.5-1.14 1.16-1.14.6 0 .98.36 1.16.82l2.62 6.8 2.65-6.87c.15-.38.56-.74 1.1-.74.64 0 1.15.5 1.15 1.12 0 .18-.06.38-.12.5l-3.43 8.23c-.24.57-.67.92-1.3.92h-.15zm7.94-.17c-.64 0-1.15-.5-1.15-1.16V7.67c0-.65.5-1.16 1.16-1.16h5.83c.57 0 1.03.47 1.03 1.04 0 .57-.46 1.02-1.03 1.02h-4.68v2.13h4c.58 0 1.04.45 1.04 1.02 0 .57-.47 1.02-1.04 1.02h-4v2.2h4.75c.58 0 1.04.47 1.04 1.04 0 .57-.47 1.02-1.03 1.02h-5.9zm8.9-1.05V7.6c0-.65.5-1.16 1.16-1.16h.24c.55 0 .88.27 1.2.67l4.46 5.86v-5.4a1.14 1.14 0 1 1 2.28 0v8.35c0 .65-.5 1.16-1.16 1.16h-.07c-.55 0-.88-.27-1.2-.67l-4.62-6.07v5.62a1.14 1.14 0 1 1-2.28 0zm11.85-.1v-8.2c0-.64.5-1.15 1.16-1.15h2.95c3.3 0 5.58 2.26 5.58 5.22v.03c0 2.95-2.28 5.25-5.58 5.25h-2.94c-.64 0-1.15-.5-1.15-1.16zm2.3-.94h1.8c1.9 0 3.16-1.26 3.16-3.12v-.03c0-1.86-1.26-3.17-3.15-3.17h-1.8v6.34zm8.26 1.1c0-.16.07-.32.15-.5l3.66-8.25c.26-.57.73-.92 1.36-.92h.13c.62 0 1.07.35 1.33.92L800 15.5c.06.18.1.33.1.48 0 .6-.47 1.1-1.1 1.1-.53 0-.9-.3-1.1-.78l-.7-1.66h-4.62l-.74 1.73c-.2.45-.58.72-1.06.72-.6 0-1.07-.5-1.07-1.1zm3.73-3.4h2.9l-1.44-3.46-1.46 3.46zm12.15 4.55c-1.38 0-2.77-.42-3.94-1.26a1.08 1.08 0 0 1-.44-.88c0-.6.48-1.06 1.08-1.06.3 0 .5.1.66.2.8.6 1.67.95 2.7.95.93 0 1.5-.36 1.5-.98v-.03c0-.6-.36-.9-2.1-1.34-2.13-.54-3.5-1.13-3.5-3.2V9.5c0-1.9 1.54-3.17 3.68-3.17 1.28 0 2.4.33 3.33.93.26.15.5.47.5.92 0 .6-.47 1.06-1.07 1.06-.22 0-.4-.06-.58-.16-.77-.45-1.5-.7-2.2-.7-.9 0-1.36.4-1.36.9v.04c0 .7.45.9 2.27 1.38 2.14.55 3.34 1.32 3.34 3.15v.03c0 2.08-1.6 3.25-3.86 3.25z"/><path fill="#E75B22" d="M710.13 32.6a.95.95 0 0 1-.43-.1c-1.97-1.2-3-2.76-3-4.94s1.03-3.76 3-4.95a.95.95 0 0 1 .43-.08c.36 0 .7.37.7.74 0 .3-.14.48-.3.6-1.4 1.04-2 2.1-2 3.7s.6 2.65 2 3.7c.16.1.3.3.3.6 0 .36-.34.74-.7.74zm3.35-2.44v-5.8l-.65.16a1.5 1.5 0 0 1-.33.05.8.8 0 0 1-.8-.8c0-.37.24-.68.6-.8l1.2-.33c.35-.1.6-.16.86-.16h.03c.5 0 .9.4.9.9v6.78a.9.9 0 1 1-1.82 0zm5.06 0v-5.8l-.65.16a1.5 1.5 0 0 1-.33.05.8.8 0 0 1-.8-.8c0-.37.23-.68.6-.8l1.2-.33c.34-.1.6-.16.86-.16h.02c.5 0 .9.4.9.9v6.78a.9.9 0 1 1-1.8 0zm4.14 2.44c-.36 0-.7-.38-.7-.75 0-.3.14-.48.3-.6 1.4-1.04 2-2.1 2-3.7s-.6-2.65-2-3.7a.7.7 0 0 1-.3-.6c0-.36.34-.73.7-.73.2 0 .37.06.43.1 1.98 1.18 3 2.75 3 4.94s-1.02 3.75-3 4.94a.95.95 0 0 1-.42.1zm12.5-2.4v-1h-3.45c-.5 0-.9-.37-.9-.86 0-.4.15-.7.43-1l3.65-4.25c.36-.42.62-.63 1.16-.63.5 0 .9.38.9.87v4.35h.43c.4 0 .75.32.75.74s-.34.75-.76.75h-.45v1a.88.88 0 0 1-.9.87.87.87 0 0 1-.87-.87zm-2.23-2.5h2.23v-2.63l-2.23 2.62zm9.23 3.44c-.94 0-1.6-.2-2.22-.6a.88.88 0 0 1-.43-.75c0-.5.4-.85.87-.85.18 0 .34.06.48.14.44.24.82.36 1.35.36 1.03 0 1.58-.78 1.7-1.9-.4.34-.97.57-1.7.57-1.83 0-3-1-3-2.7v-.03c0-1.7 1.3-2.94 3.2-2.94 1.13 0 1.8.27 2.43.9.6.6 1 1.52 1 3.18v.02c0 2.72-1.3 4.58-3.68 4.58zm.35-4.54c.9 0 1.44-.53 1.44-1.25v-.03c0-.74-.55-1.28-1.48-1.28-.92 0-1.44.53-1.44 1.27v.04c0 .74.56 1.26 1.47 1.26zm7.6 4.54c-.94 0-1.6-.2-2.23-.6a.88.88 0 0 1-.43-.75c0-.5.4-.85.88-.85.18 0 .33.06.48.14.43.24.8.36 1.34.36 1.03 0 1.6-.78 1.7-1.9-.4.34-.97.57-1.7.57-1.82 0-3-1-3-2.7v-.03c0-1.7 1.3-2.94 3.2-2.94 1.13 0 1.8.27 2.43.9.6.6 1 1.52 1 3.18v.02c0 2.72-1.3 4.58-3.68 4.58zm.34-4.54c.9 0 1.44-.53 1.44-1.25v-.03c0-.74-.54-1.28-1.46-1.28-.92 0-1.43.53-1.43 1.27v.04c0 .74.56 1.26 1.47 1.26zm8.75 3.6v-1h-3.46c-.5 0-.9-.37-.9-.86 0-.4.16-.7.44-1l3.64-4.25c.35-.42.62-.63 1.16-.63.5 0 .88.38.88.87v4.35h.45c.42 0 .75.32.75.74s-.33.75-.75.75h-.45v1a.88.88 0 0 1-.88.87.87.87 0 0 1-.88-.87zM757 27.7h2.22v-2.63L757 27.7zm7.12.46a.88.88 0 0 1-.88-.88.88.88 0 0 1 .88-.88h2.08a.88.88 0 0 1 .88.88.88.88 0 0 1-.88.88h-2.08zm7.1 2.98c-1.2 0-2.1-.37-2.78-.96a.9.9 0 0 1-.32-.66c0-.48.4-.88.9-.88.26 0 .44.1.58.22.48.4.98.63 1.64.63.7 0 1.2-.4 1.2-1.03v-.03c0-.68-.62-1.06-1.65-1.06h-.3a.8.8 0 0 1-.8-.8c0-.25.12-.46.4-.75l1.64-1.65h-2.58a.8.8 0 0 1-.8-.8c0-.42.36-.78.8-.78h4.1c.53 0 .92.3.92.82 0 .45-.2.7-.55 1.03L772 26.02c1.13.2 2.24.8 2.24 2.35v.03c0 1.58-1.15 2.74-3.02 2.74zm7.38 0c-1.16 0-1.97-.3-2.64-.8a.86.86 0 0 1-.37-.7c0-.48.38-.88.86-.88.22 0 .36.06.5.16.52.38 1.02.54 1.6.54.78 0 1.36-.42 1.36-1.16v-.02c0-.72-.6-1.14-1.5-1.14-.7 0-1 .2-1.26.2s-.47-.1-.84-.36c-.25-.18-.36-.43-.34-.74l.17-2.85a.82.82 0 0 1 .82-.8h3.65c.44 0 .8.37.8.82a.8.8 0 0 1-.8.8h-2.84l-.1 1.45a4.1 4.1 0 0 1 1.1-.14c1.67 0 2.95.8 2.95 2.7 0 1.8-1.28 2.9-3.13 2.9zm7.56 0c-1.16 0-1.97-.3-2.64-.8a.86.86 0 0 1-.37-.7c0-.48.4-.88.87-.88.22 0 .36.06.5.16.52.38 1.02.54 1.6.54.78 0 1.36-.42 1.36-1.16v-.02c0-.72-.6-1.14-1.5-1.14-.7 0-1 .2-1.26.2s-.47-.1-.84-.36c-.25-.18-.36-.43-.34-.74l.17-2.85a.82.82 0 0 1 .83-.8h3.65c.44 0 .8.37.8.82a.8.8 0 0 1-.8.8h-2.84l-.1 1.45a4.1 4.1 0 0 1 1.1-.14c1.67 0 2.95.8 2.95 2.7 0 1.8-1.3 2.9-3.14 2.9zm7.56 0c-1.16 0-1.97-.3-2.64-.8a.86.86 0 0 1-.37-.7c0-.48.4-.88.88-.88.22 0 .36.06.5.16.52.38 1.02.54 1.6.54.78 0 1.36-.42 1.36-1.16v-.02c0-.72-.6-1.14-1.5-1.14-.7 0-1 .2-1.26.2s-.47-.1-.84-.36c-.25-.18-.36-.43-.34-.74l.17-2.85a.82.82 0 0 1 .82-.8h3.64c.44 0 .8.37.8.82a.8.8 0 0 1-.8.8h-2.84l-.1 1.45a4.1 4.1 0 0 1 1.1-.14c1.67 0 2.95.8 2.95 2.7 0 1.8-1.28 2.9-3.13 2.9zm10.8-.04c-1.74 0-2.94-1.23-2.94-2.88v-.02c0-1.6 1.24-2.9 2.94-2.9.85 0 1.4.2 1.9.55a.6.6 0 1 1-.72.97 1.96 1.96 0 0 0-1.22-.38c-.9 0-1.6.8-1.6 1.74v.02c0 1.02.7 1.78 1.7 1.78.44 0 .84-.12 1.15-.34v-.8h-.83a.53.53 0 0 1-.54-.53c0-.28.24-.52.54-.52h1.4c.35 0 .62.27.62.6v1.37c0 .36-.14.6-.43.8-.47.27-1.13.55-1.97.55zm3.58-.67v-4.4c0-.36.28-.63.62-.63h1.94c.72 0 1.27.2 1.64.57.3.3.48.75.48 1.28 0 .9-.44 1.44-1.12 1.72l.85 1.04c.13.16.2.3.2.48a.57.57 0 0 1-.57.57c-.28 0-.47-.14-.6-.32l-1.2-1.52h-1v1.23a.6.6 0 0 1-.6.62.6.6 0 0 1-.63-.62zm1.24-2.3h1.24c.6 0 .95-.33.95-.8v-.02c0-.52-.37-.8-.97-.8h-1.22v1.62zm4.16 2.34c0-.1.04-.17.08-.26l1.95-4.4c.13-.3.38-.5.72-.5h.07c.34 0 .58.2.7.5l1.96 4.4a.6.6 0 0 1 .07.26.58.58 0 0 1-.6.6c-.27 0-.47-.18-.58-.44l-.37-.88h-2.47l-.4.92a.6.6 0 0 1-.56.4.57.57 0 0 1-.57-.6zm2-1.8h1.54l-.78-1.86-.77 1.86zm4.52 1.77v-4.46c0-.34.27-.6.6-.6h.14c.3 0 .47.13.64.35l2.38 3.12v-2.9a.6.6 0 1 1 1.2 0v4.47a.6.6 0 0 1-.6.6h-.04c-.3 0-.48-.13-.64-.35l-2.47-3.23v3a.6.6 0 1 1-1.2 0zm6.32-.06v-4.36c0-.35.27-.62.6-.62h1.58c1.76 0 2.98 1.2 2.98 2.78v.02c0 1.58-1.22 2.8-2.98 2.8h-1.57a.6.6 0 0 1-.6-.62zm1.23-.5h.95c1 0 1.7-.67 1.7-1.66v-.02c0-1-.7-1.7-1.7-1.7h-.95v3.4zM833.2 31a.6.6 0 0 1-.6-.62v-4.36c0-.35.26-.62.6-.62h3.1c.32 0 .56.25.56.55a.55.55 0 0 1-.55.55h-2.48v1.13h2.13c.3 0 .55.25.55.55a.55.55 0 0 1-.55.55h-2.13v1.17h2.53c.3 0 .55.25.55.56a.55.55 0 0 1-.55.54h-3.14zm9.14.08c-.73 0-1.48-.22-2.1-.67a.57.57 0 0 1-.23-.46c0-.32.26-.56.58-.56.16 0 .28.05.36.1.42.32.88.5 1.43.5.5 0 .8-.2.8-.52s-.2-.48-1.12-.72c-1.13-.3-1.86-.6-1.86-1.72 0-1.03.8-1.7 1.95-1.7.68 0 1.27.18 1.78.5.13.08.27.24.27.48 0 .32-.26.57-.58.57a.6.6 0 0 1-.3-.1c-.42-.23-.8-.36-1.18-.36-.48 0-.72.22-.72.5 0 .38.24.5 1.2.75 1.14.3 1.78.7 1.78 1.68 0 1.13-.85 1.75-2.06 1.75zm2.7-.6c0-.1.04-.18.08-.27l1.95-4.4c.14-.3.4-.5.72-.5h.06c.34 0 .58.2.72.5l1.95 4.4a.6.6 0 0 1 .06.26.58.58 0 0 1-.6.6c-.28 0-.47-.18-.58-.44l-.38-.88h-2.46l-.4.92a.6.6 0 0 1-.56.4.57.57 0 0 1-.57-.6zm2-1.82h1.54l-.77-1.85-.77 1.86zm-.1-3.86a.36.36 0 0 1-.32.18c-.2 0-.36-.16-.36-.32a.73.73 0 0 1 .04-.22c.18-.46.4-.78.9-.78s.9.3 1.2.3c.2 0 .28-.06.38-.22a.36.36 0 0 1 .3-.2c.2 0 .37.17.37.34a.73.73 0 0 1-.04.22c-.17.46-.4.78-.9.78-.48 0-.9-.3-1.2-.3-.18 0-.27.06-.36.22zm7.14 6.3c-1.73 0-2.97-1.3-2.97-2.88v-.02c0-1.6 1.27-2.9 3-2.9s2.96 1.3 2.96 2.88v.02c0 1.6-1.25 2.9-2.98 2.9zm.02-1.14c1 0 1.68-.78 1.68-1.74v-.02c0-.96-.7-1.76-1.7-1.76s-1.68.78-1.68 1.74v.02c0 .96.7 1.76 1.7 1.76zm6.46.47v-4.4c0-.36.27-.63.62-.63h1.67c1.33 0 2.14.8 2.14 1.94 0 1.3-1.02 1.98-2.27 1.98h-.94v1.1a.6.6 0 0 1-.62.63.6.6 0 0 1-.62-.62zm1.23-2.2h.97c.6 0 .97-.37.97-.85v-.02c0-.55-.38-.85-1-.85h-.95v1.72zm3.32 2.24c0-.1.03-.17.07-.26l1.94-4.4c.14-.3.4-.5.72-.5h.08c.33 0 .57.2.7.5l1.96 4.4a.6.6 0 0 1 .06.26.58.58 0 0 1-.58.6c-.3 0-.48-.18-.6-.44l-.37-.88h-2.45l-.4.92a.6.6 0 0 1-.56.4.57.57 0 0 1-.58-.6zm1.98-1.8h1.56l-.78-1.86-.78 1.86zm6.75 2.42c-1.5 0-2.43-.85-2.43-2.5v-2.63c0-.35.28-.62.62-.62s.62.27.62.62v2.6c0 .9.45 1.38 1.2 1.38s1.2-.45 1.2-1.34v-2.63c0-.35.28-.62.63-.62s.6.27.6.62v2.6c0 1.7-.95 2.52-2.45 2.52zm3.7-.72v-4.4c0-.36.28-.63.63-.63s.6.27.6.62v3.9h2.3c.3 0 .55.26.55.57 0 .3-.25.56-.56.56h-2.9a.6.6 0 0 1-.6-.62zm7.36.72c-1.72 0-2.96-1.3-2.96-2.88v-.02c0-1.6 1.26-2.9 3-2.9s2.96 1.3 2.96 2.88v.02c0 1.6-1.26 2.9-3 2.9zm.03-1.14c1 0 1.68-.78 1.68-1.74v-.02c0-.96-.7-1.76-1.7-1.76s-1.67.78-1.67 1.74v.02c0 .96.7 1.76 1.7 1.76zM710.37 46.14c-2.25 0-3.72-1.88-3.72-4.32v-.02c0-2.44 1.5-4.34 3.74-4.34 2.2 0 3.7 1.88 3.7 4.32v.02c0 2.44-1.5 4.34-3.73 4.34zm.02-1.66c1.1 0 1.82-1.13 1.82-2.66v-.02c0-1.52-.75-2.68-1.85-2.68s-1.83 1.12-1.83 2.66v.02c0 1.54.74 2.68 1.85 2.68zm8.14 1.64c-1.86 0-3.24-.96-3.24-2.42v-.03c0-1.02.47-1.62 1.36-2.03-.65-.4-1.07-.93-1.07-1.83v-.02c0-1.28 1.16-2.3 2.94-2.3s2.95 1 2.95 2.3v.03c0 .9-.43 1.45-1.08 1.84.86.45 1.36 1 1.36 1.98v.03c0 1.56-1.38 2.47-3.24 2.47zm0-5.1c.73 0 1.2-.42 1.2-1v-.03c0-.53-.44-1-1.2-1s-1.2.46-1.2.98V40c0 .6.47 1.03 1.2 1.03zm0 3.58c.9 0 1.45-.46 1.45-1.05v-.02c0-.65-.62-1.03-1.46-1.03s-1.45.38-1.45 1.03v.02c0 .58.53 1.05 1.44 1.05zm8.15 1.54c-2.26 0-3.73-1.88-3.73-4.32v-.02c0-2.44 1.5-4.34 3.74-4.34 2.23 0 3.73 1.88 3.73 4.32v.02c0 2.44-1.5 4.34-3.74 4.34zm0-1.66c1.13 0 1.84-1.13 1.84-2.66v-.02c0-1.52-.75-2.68-1.85-2.68s-1.84 1.12-1.84 2.66v.02c0 1.54.74 2.68 1.85 2.68zm8.75 1.66c-2.25 0-3.72-1.88-3.72-4.32v-.02c0-2.44 1.5-4.34 3.74-4.34 2.22 0 3.72 1.88 3.72 4.32v.02c0 2.44-1.5 4.34-3.75 4.34zm.02-1.66c1.12 0 1.83-1.13 1.83-2.66v-.02c0-1.52-.75-2.68-1.85-2.68s-1.83 1.12-1.83 2.66v.02c0 1.54.74 2.68 1.85 2.68zm9.45.76c0-.15.07-.4.16-.57l3.12-5.47H745a.8.8 0 0 1-.82-.8c0-.44.36-.8.8-.8h4.57c.5 0 .84.3.84.83 0 .27-.12.6-.28.9l-3.37 6.12c-.24.44-.53.62-.9.62-.48 0-.93-.3-.93-.83zm7.42 0c0-.15.08-.4.17-.57l3.13-5.47h-3.2a.8.8 0 0 1-.82-.8c0-.44.37-.8.82-.8h4.56c.5 0 .84.3.84.83 0 .27-.1.6-.27.9l-3.37 6.12c-.24.44-.53.62-.9.62-.48 0-.94-.3-.94-.83zm9.45.9c-1.2 0-2.1-.37-2.8-.96a.9.9 0 0 1-.3-.66c0-.48.4-.88.88-.88.26 0 .44.1.6.22.47.4.97.63 1.63.63.7 0 1.2-.4 1.2-1.03v-.03c0-.68-.6-1.06-1.64-1.06h-.3a.8.8 0 0 1-.78-.8c0-.25.1-.46.4-.75l1.62-1.65h-2.58a.8.8 0 0 1-.8-.8c0-.42.37-.78.8-.78h4.1c.54 0 .93.3.93.82 0 .45-.2.7-.55 1.03l-1.64 1.57c1.14.2 2.25.8 2.25 2.35v.03c0 1.58-1.14 2.74-3 2.74zm11.03 0c-1.17 0-1.97-.3-2.64-.8a.86.86 0 0 1-.38-.7c0-.48.4-.88.87-.88.2 0 .35.06.5.16.5.38 1 .54 1.6.54.77 0 1.35-.42 1.35-1.16v-.02c0-.72-.6-1.14-1.5-1.14-.7 0-1 .2-1.26.2-.28 0-.48-.1-.85-.36-.25-.18-.36-.43-.34-.74l.18-2.85a.82.82 0 0 1 .82-.8h3.64c.45 0 .82.37.82.82a.8.8 0 0 1-.82.8H772l-.08 1.45a4.1 4.1 0 0 1 1.1-.14c1.66 0 2.94.8 2.94 2.7 0 1.8-1.28 2.9-3.13 2.9zm7.5 0c-1.2 0-2.1-.37-2.77-.96a.9.9 0 0 1-.32-.66c0-.48.4-.88.9-.88.26 0 .44.1.58.22.48.4.98.63 1.64.63.7 0 1.2-.4 1.2-1.03v-.03c0-.68-.62-1.06-1.65-1.06h-.28a.8.8 0 0 1-.8-.8c0-.25.12-.46.4-.75l1.64-1.65h-2.58a.8.8 0 0 1-.8-.8c0-.42.36-.78.8-.78h4.1c.53 0 .92.3.92.82 0 .45-.2.7-.55 1.03l-1.64 1.57c1.15.2 2.26.8 2.26 2.35v.03c0 1.58-1.15 2.74-3.02 2.74zm7.4 0c-1.17 0-1.98-.3-2.65-.8a.86.86 0 0 1-.37-.7c0-.48.4-.88.88-.88.22 0 .36.06.5.16.52.38 1.02.54 1.6.54.78 0 1.36-.42 1.36-1.16v-.02c0-.72-.6-1.14-1.5-1.14-.7 0-1 .2-1.26.2s-.47-.1-.84-.36c-.25-.18-.36-.43-.34-.74l.17-2.85a.82.82 0 0 1 .82-.8h3.64c.44 0 .8.37.8.82a.8.8 0 0 1-.8.8h-2.84l-.1 1.45a4.1 4.1 0 0 1 1.1-.14c1.67 0 2.95.8 2.95 2.7 0 1.8-1.28 2.9-3.13 2.9zm7.55 0c-1.16 0-1.97-.3-2.64-.8a.86.86 0 0 1-.37-.7c0-.48.4-.88.87-.88.22 0 .36.06.5.16.52.38 1.02.54 1.6.54.78 0 1.36-.42 1.36-1.16v-.02c0-.72-.6-1.14-1.5-1.14-.7 0-1 .2-1.26.2s-.47-.1-.84-.36c-.25-.18-.36-.43-.34-.74l.17-2.85a.82.82 0 0 1 .82-.8h3.65c.44 0 .8.37.8.82a.8.8 0 0 1-.8.8h-2.84l-.1 1.45a4.1 4.1 0 0 1 1.1-.14c1.67 0 2.95.8 2.95 2.7 0 1.8-1.27 2.9-3.12 2.9zm10.83-.04c-1.72 0-2.96-1.3-2.96-2.88v-.02c0-1.6 1.26-2.9 3-2.9s2.96 1.3 2.96 2.88v.02c0 1.6-1.26 2.9-3 2.9zm.03-1.14c1 0 1.68-.78 1.68-1.74v-.02c0-.96-.7-1.76-1.7-1.76s-1.67.78-1.67 1.74v.02c0 .96.7 1.76 1.7 1.76zm6.4 1.13c-1.5 0-2.43-.85-2.43-2.5v-2.63c0-.35.28-.62.62-.62s.62.27.62.62v2.6c0 .9.45 1.38 1.2 1.38s1.2-.45 1.2-1.34v-2.63c0-.35.28-.62.63-.62s.6.27.6.62v2.6c0 1.7-.94 2.52-2.44 2.52zm5-.67v-3.9h-1.17a.57.57 0 0 1-.57-.56.57.57 0 0 1 .56-.57h3.6a.57.57 0 0 1 .57.57.57.57 0 0 1-.57.57h-1.18v3.9a.6.6 0 0 1-.62.6.6.6 0 0 1-.62-.6zm3.9 0v-4.4c0-.36.27-.63.6-.63H824c.72 0 1.27.2 1.64.57.3.3.48.75.48 1.28 0 .9-.44 1.44-1.12 1.72l.85 1.04c.12.16.2.3.2.48a.57.57 0 0 1-.58.57c-.28 0-.47-.14-.6-.32l-1.2-1.52h-1v1.23a.6.6 0 0 1-.6.62.6.6 0 0 1-.63-.62zm1.23-2.3h1.24c.6 0 .95-.33.95-.8v-.02c0-.52-.37-.8-.97-.8h-1.22v1.62zm4.16 2.34c0-.1.04-.17.08-.26l1.95-4.4c.13-.3.38-.5.72-.5h.07c.34 0 .58.2.7.5l1.96 4.4a.6.6 0 0 1 .07.26.58.58 0 0 1-.6.6c-.27 0-.47-.18-.58-.44l-.38-.88h-2.47l-.4.92a.6.6 0 0 1-.56.4.57.57 0 0 1-.58-.6zm2-1.8h1.54l-.78-1.86-.77 1.86zm6.47 2.4c-.75 0-1.5-.2-2.12-.66a.57.57 0 0 1-.23-.46c0-.32.26-.56.58-.56.16 0 .27.05.35.1.42.32.9.5 1.43.5.52 0 .82-.2.82-.52s-.2-.48-1.13-.72c-1.14-.3-1.86-.6-1.86-1.72 0-1.03.8-1.7 1.96-1.7.68 0 1.27.18 1.77.5.14.08.27.24.27.48 0 .32-.25.57-.57.57a.6.6 0 0 1-.3-.1c-.42-.23-.8-.36-1.2-.36-.46 0-.7.22-.7.5 0 .38.23.5 1.2.75 1.13.3 1.77.7 1.77 1.68 0 1.13-.84 1.75-2.05 1.75zm5.52-.64v-4.4c0-.36.27-.63.6-.63h1.96c.7 0 1.26.2 1.63.57.32.3.5.75.5 1.28 0 .9-.45 1.44-1.13 1.72l.85 1.04c.12.16.2.3.2.48a.57.57 0 0 1-.58.57c-.28 0-.46-.14-.6-.32l-1.2-1.52h-1v1.23a.6.6 0 0 1-.6.62.6.6 0 0 1-.62-.62zm1.23-2.3h1.25c.6 0 .94-.33.94-.8v-.02c0-.52-.37-.8-.97-.8h-1.22v1.62zm5.17 2.87a.6.6 0 0 1-.62-.62v-4.36c0-.35.27-.62.62-.62h3.1c.3 0 .55.25.55.55a.55.55 0 0 1-.55.55h-2.5v1.13h2.14c.3 0 .55.25.55.55a.55.55 0 0 1-.54.55h-2.14v1.17h2.54c.3 0 .55.25.55.56a.55.55 0 0 1-.54.54h-3.14zm7.44.1c-1.75 0-2.95-1.23-2.95-2.88v-.02c0-1.6 1.25-2.9 2.95-2.9.85 0 1.4.2 1.9.55a.6.6 0 1 1-.72.97 1.96 1.96 0 0 0-1.22-.38c-.9 0-1.6.8-1.6 1.74v.02c0 1.02.7 1.78 1.7 1.78.44 0 .84-.12 1.16-.34v-.8h-.84a.53.53 0 0 1-.53-.53c0-.28.23-.52.52-.52h1.4c.36 0 .63.27.63.6v1.37c0 .36-.14.6-.43.8-.46.27-1.12.55-1.96.55zm3.63-.67v-4.46c0-.35.26-.62.6-.62s.62.27.62.62v4.46a.6.6 0 0 1-.62.62.6.6 0 0 1-.6-.62zm5.34.67c-1.73 0-2.97-1.3-2.97-2.88v-.02c0-1.6 1.26-2.9 3-2.9s2.95 1.3 2.95 2.88v.02c0 1.6-1.25 2.9-2.98 2.9zm.02-1.14c1 0 1.68-.78 1.68-1.74v-.02c0-.96-.7-1.76-1.7-1.76s-1.68.78-1.68 1.74v.02c0 .96.7 1.76 1.7 1.76zm-.9-5.16a.36.36 0 0 1-.3.18c-.2 0-.36-.16-.36-.32a.73.73 0 0 1 .04-.22c.17-.46.4-.78.9-.78s.9.3 1.2.3c.18 0 .27-.06.37-.22a.36.36 0 0 1 .32-.2c.2 0 .36.17.36.34a.73.73 0 0 1-.04.22c-.18.46-.4.78-.9.78s-.9-.3-1.2-.3c-.2 0-.28.06-.37.22zm5.58 6.2a.6.6 0 0 1-.62-.62v-4.36c0-.35.27-.62.62-.62h3.1c.3 0 .55.25.55.55a.55.55 0 0 1-.56.55h-2.5v1.13h2.14c.3 0 .55.25.55.55a.55.55 0 0 1-.55.55h-2.14v1.17h2.54c.3 0 .55.25.55.56a.55.55 0 0 1-.55.54h-3.14zm6.73.08c-.73 0-1.48-.22-2.1-.67a.57.57 0 0 1-.23-.46c0-.32.25-.56.57-.56.17 0 .28.05.36.1.43.32.9.5 1.44.5.5 0 .8-.2.8-.52s-.2-.48-1.12-.72c-1.13-.3-1.86-.6-1.86-1.72 0-1.03.82-1.7 1.96-1.7.68 0 1.27.18 1.78.5.13.08.27.24.27.48 0 .32-.26.57-.58.57a.6.6 0 0 1-.3-.1c-.42-.23-.8-.36-1.2-.36-.46 0-.7.22-.7.5 0 .38.23.5 1.2.75 1.14.3 1.78.7 1.78 1.68 0 1.13-.85 1.75-2.06 1.75z"/><path fill="#F5A623" d="M688.73 24.18a.96.96 0 0 0 .94-.8 7.97 7.97 0 0 0-.23-3.5 8.1 8.1 0 0 0-2.05-3.46c-1.05-1.02-2.28-1.67-3.6-1.88a5.55 5.55 0 0 0-2.44.16.96.96 0 1 0 .54 1.84 3.6 3.6 0 0 1 1.6-.1c.9.14 1.8.6 2.53 1.35a6.26 6.26 0 0 1 1.57 2.63c.26.87.32 1.76.18 2.64a.96.96 0 0 0 .95 1.1zm1.42 10.74l-4.87-6.36-2.1 1.6 4.87 6.37 2.1-1.6zm-7.9-2.8c-.05.03-.1.08-.14.1-.6.37-1.28.54-2.02.54-2.16 0-4.72-1.46-6.65-3.97-2.58-3.38-3.04-7.37-1.06-9.3.04-.03.1-.05.15-.08l-4.04-5.28a.96.96 0 0 1-.33.2c-.12.08-.48.33-1.52 1.2-1.83 1.5-.27 7.9 4.92 14.7 5.23 6.8 11 9.98 12.9 8.57 1.15-.84 1.5-1.1 1.58-1.2a.96.96 0 0 1 .24-.23l-4.03-5.26zm-12.5-19.48l4.87 6.36 2.1-1.6-4.87-6.37-2.1 1.6zm22 21.2a1.8 1.8 0 0 1 .34 1.34c-.07.48-.32.9-.7 1.2l-2.27 1.74a1.8 1.8 0 0 1-1.1.37c-.1 0-.22-.03-.33-.05-.03.07-.04.14-.08.2-.15.26-.36.48-2.03 1.7-.65.48-1.44.7-2.32.7-3.5 0-8.62-3.6-13.25-9.66-5.66-7.4-7.65-14.86-4.62-17.36 1.68-1.37 1.96-1.53 2.35-1.57.05-.02.05-.05.05-.08.07-.5.3-.92.7-1.22l2.26-1.73a1.82 1.82 0 0 1 2.55.33l5 6.53a1.82 1.82 0 0 1-.33 2.55l-2.27 1.74a1.8 1.8 0 0 1-1.9.17c-.04.04-.06.08-.1.12-1.07 1.04-.9 3.9 1.26 6.72 2.15 2.8 4.88 3.72 6.17 2.96.04-.03.1-.03.13-.05a1.8 1.8 0 0 1 .67-1.82L684.2 27a1.82 1.82 0 0 1 2.54.33l5 6.54zm1.95-7.23a.96.96 0 0 1-.9-1.25 11.1 11.1 0 0 0-.02-6.92 11.6 11.6 0 0 0-2.6-4.38c-1.2-1.26-2.63-2.18-4.17-2.7-1.82-.6-3.7-.58-5.57.02a.96.96 0 0 1-.6-1.82 10.85 10.85 0 0 1 6.78 0c1.85.6 3.56 1.7 4.97 3.17a13.5 13.5 0 0 1 3.04 5.1c.88 2.7.88 5.5 0 8.13a.96.96 0 0 1-.9.66zM959.54 16c0-.15.06-.32.14-.48l3.66-8.27c.25-.57.7-.9 1.34-.9h.14c.63 0 1.08.33 1.33.9l3.66 8.27c.1.16.13.3.13.46 0 .62-.48 1.1-1.1 1.1-.53 0-.9-.3-1.1-.78l-.7-1.65h-4.63l-.73 1.72c-.2.45-.6.72-1.07.72-.6 0-1.06-.5-1.06-1.1zm3.72-3.4h2.9l-1.45-3.46-1.44 3.47zm9.8 3.34v-7.3h-2.2a1.07 1.07 0 0 1-1.08-1.07c0-.6.48-1.07 1.07-1.07h6.75c.58 0 1.06.48 1.06 1.07a1.07 1.07 0 0 1-1.06 1.06h-2.22v7.3c0 .65-.5 1.16-1.16 1.16s-1.15-.52-1.15-1.17zM981.5 17c-.65 0-1.16-.5-1.16-1.16V7.67c0-.65.5-1.16 1.16-1.16h5.82c.57 0 1.03.47 1.03 1.04 0 .57-.46 1.02-1.03 1.02h-4.68v2.13h4c.58 0 1.04.45 1.04 1.02 0 .57-.46 1.02-1.03 1.02h-4v2.2h4.75c.57 0 1.03.47 1.03 1.04 0 .57-.46 1.02-1.03 1.02h-5.9zm8.9-1.05V7.6c0-.65.5-1.16 1.15-1.16h.24c.55 0 .88.27 1.2.67l4.45 5.86v-5.4a1.14 1.14 0 1 1 2.28 0v8.35c0 .65-.5 1.16-1.16 1.16h-.07c-.56 0-.9-.27-1.2-.67l-4.62-6.07v5.62a1.14 1.14 0 1 1-2.28 0zm11.85-.1v-8.2c0-.64.5-1.15 1.15-1.15h2.94c3.3 0 5.58 2.26 5.58 5.22v.03c0 2.95-2.28 5.25-5.58 5.25h-2.94c-.65 0-1.16-.5-1.16-1.16zm2.3-.94h1.8c1.88 0 3.15-1.26 3.15-3.12v-.03c0-1.86-1.27-3.17-3.16-3.17h-1.8v6.34zm9.53 1.03V7.56c0-.64.5-1.15 1.15-1.15s1.16.52 1.16 1.16v8.38c0 .64-.52 1.15-1.17 1.15s-1.15-.52-1.15-1.17zm4.93.03V7.6c0-.65.52-1.16 1.17-1.16h.25c.5 0 .84.25 1.05.6l2.8 4.54 2.8-4.56c.24-.4.57-.58 1.03-.58h.26c.65 0 1.16.5 1.16 1.15v8.33c0 .65-.5 1.16-1.16 1.16-.63 0-1.14-.54-1.14-1.17V10.7l-2.02 3.12c-.25.36-.55.58-.97.58-.42 0-.72-.22-.96-.58l-2-3.08v5.23c0 .62-.5 1.12-1.13 1.12-.63 0-1.13-.5-1.13-1.14zm14.2 1.04c-.65 0-1.16-.5-1.16-1.16V7.67c0-.65.5-1.16 1.15-1.16h5.8c.58 0 1.04.47 1.04 1.04 0 .57-.46 1.02-1.03 1.02h-4.67v2.13h4c.58 0 1.04.45 1.04 1.02 0 .57-.46 1.02-1.03 1.02h-4v2.2h4.75c.56 0 1.02.47 1.02 1.04 0 .57-.46 1.02-1.03 1.02h-5.9zm8.9-1.05V7.6c0-.65.5-1.16 1.14-1.16h.24c.56 0 .89.27 1.2.67l4.46 5.86v-5.4a1.14 1.14 0 1 1 2.27 0v8.35c0 .65-.5 1.16-1.14 1.16h-.07c-.57 0-.9-.27-1.22-.67l-4.62-6.07v5.62a1.14 1.14 0 1 1-2.27 0zm14.28 0V8.6h-2.22a1.07 1.07 0 0 1-1.06-1.06c0-.6.48-1.07 1.06-1.07h6.75c.6 0 1.07.48 1.07 1.07a1.07 1.07 0 0 1-1.06 1.06h-2.2v7.3c0 .65-.52 1.16-1.16 1.16s-1.16-.52-1.16-1.17zm11.93 1.23c-3.23 0-5.56-2.42-5.56-5.4v-.03c0-2.98 2.35-5.43 5.6-5.43 3.24 0 5.56 2.42 5.56 5.4v.03c0 2.98-2.35 5.43-5.6 5.43zm.04-2.13c1.86 0 3.15-1.47 3.15-3.27v-.03c0-1.8-1.33-3.3-3.2-3.3s-3.14 1.47-3.14 3.27v.03c0 1.8 1.3 3.3 3.17 3.3z"/><path fill="#E75B22" d="M960 30.08v-6.56c0-.5.42-.92.93-.92h2.35c2.64 0 4.47 1.8 4.47 4.18v.02c0 2.36-1.83 4.2-4.47 4.2h-2.35a.92.92 0 0 1-.92-.92zm1.86-.75h1.42c1.52 0 2.54-1.02 2.54-2.5v-.03c0-1.5-1.02-2.53-2.54-2.53h-1.42v5.06zm8.82-2.05h2.74c-.1-.82-.58-1.37-1.35-1.37-.76 0-1.25.55-1.4 1.38zm3.8 3.08c-.56.48-1.3.78-2.23.78-1.93 0-3.36-1.35-3.36-3.32v-.02c0-1.84 1.3-3.35 3.17-3.35 2.15 0 3.1 1.76 3.1 3.1 0 .52-.38.87-.86.87h-3.6c.18.83.76 1.26 1.57 1.26.5 0 .93-.16 1.3-.43a.68.68 0 0 1 .44-.15c.42 0 .72.32.72.72 0 .24-.1.42-.24.54zm7.93.76a4.48 4.48 0 0 1-2.4-.73.73.73 0 0 1-.36-.64c0-.4.3-.72.72-.72a.7.7 0 0 1 .36.1c.6.38 1.22.58 1.74.58.53 0 .77-.2.77-.48v-.03c0-.38-.63-.52-1.33-.73-.9-.27-1.92-.7-1.92-1.93v-.03c0-1.3 1.05-2.03 2.35-2.03.67 0 1.37.18 2 .5a.74.74 0 0 1 .42.68c0 .4-.32.72-.73.72a.67.67 0 0 1-.34-.1c-.5-.24-1-.4-1.4-.4-.43 0-.66.2-.66.45v.02c0 .36.6.53 1.3.77.9.3 1.95.74 1.95 1.92v.02c0 1.43-1.07 2.08-2.46 2.08zm5.26-3.84h2.74c-.1-.82-.58-1.37-1.35-1.37-.76 0-1.25.55-1.4 1.38zm3.8 3.08c-.56.48-1.3.78-2.23.78-1.93 0-3.36-1.35-3.36-3.32v-.02c0-1.84 1.3-3.35 3.18-3.35 2.15 0 3.1 1.76 3.1 3.1 0 .52-.38.87-.86.87h-3.62c.18.83.76 1.26 1.57 1.26.5 0 .93-.16 1.3-.43a.68.68 0 0 1 .44-.15c.4 0 .7.32.7.72 0 .24-.1.42-.24.54zm4.96 2.58a6.17 6.17 0 0 1-2.36-.44c-.3-.12-.5-.37-.5-.7a.75.75 0 0 1 1.03-.7c.52.25 1.08.4 1.77.4 1.25 0 1.83-.6 1.83-1.76v-.3c-.54.64-1.12 1.03-2.1 1.03-1.5 0-2.85-1.1-2.85-3v-.02c0-1.92 1.38-3 2.85-3 1 0 1.6.42 2.08.96 0-.5.4-.9.9-.9s.92.4.92.9v4.15c0 1.15-.27 2-.8 2.53-.6.6-1.54.86-2.78.86zm.2-3.98c.9 0 1.58-.6 1.58-1.5s-.68-1.5-1.57-1.5-1.56.6-1.56 1.5.67 1.5 1.56 1.5zm10.86-3.55v4.76a.9.9 0 1 1-1.82 0v-.07c-.42.53-.96 1.02-1.9 1.02-1.37 0-2.17-.9-2.17-2.4v-3.3a.9.9 0 1 1 1.8 0v2.74c0 .86.42 1.3 1.12 1.3.7 0 1.14-.44 1.14-1.3V25.4a.9.9 0 1 1 1.82 0zm1.63 4.76V25.4a.9.9 0 1 1 1.84 0v.08c.42-.54.96-1.03 1.88-1.03 1.38 0 2.18.9 2.18 2.4v3.3a.9.9 0 1 1-1.82 0v-2.74c0-.85-.4-1.3-1.1-1.3-.7 0-1.14.45-1.14 1.3v2.76a.9.9 0 1 1-1.83 0zm13.96-7.08v7.08a.9.9 0 1 1-1.83 0v-.08c-.44.6-1.05 1.04-2 1.04-1.5 0-2.93-1.18-2.93-3.32v-.03c0-2.15 1.4-3.32 2.93-3.32.97 0 1.57.44 2 .96V23.1a.9.9 0 1 1 1.83 0zM1019.7 26c-.86 0-1.58.7-1.58 1.77v.03c0 1.06.72 1.77 1.58 1.77.85 0 1.56-.7 1.56-1.77v-.03c0-1.07-.7-1.77-1.56-1.77zm6.8 5.12c-1.2 0-2.2-.7-2.2-1.97v-.02c0-1.4 1.07-2.05 2.6-2.05a4.57 4.57 0 0 1 1.57.26v-.1c0-.76-.47-1.18-1.38-1.18-.52 0-.92.07-1.27.18a.77.77 0 0 1-.27.04.74.74 0 0 1-.75-.74c0-.32.2-.6.5-.7.58-.22 1.2-.34 2.05-.34 1 0 1.72.26 2.17.72.48.48.7 1.18.7 2.05v2.93a.88.88 0 0 1-.9.87c-.52 0-.86-.37-.86-.75v-.02c-.45.5-1.06.82-1.95.82zm.56-1.26c.86 0 1.43-.47 1.43-1.13v-.32a2.83 2.83 0 0 0-1.17-.23c-.78 0-1.26.3-1.26.9 0 .5.4.8 1 .8zm10.16 1.26c-1.22 0-2.2-.7-2.2-1.97v-.02c0-1.4 1.06-2.05 2.58-2.05a4.57 4.57 0 0 1 1.57.26v-.1c0-.76-.47-1.18-1.38-1.18-.5 0-.92.07-1.27.18a.77.77 0 0 1-.26.04.74.74 0 0 1-.76-.74c0-.32.22-.6.5-.7.58-.22 1.2-.34 2.06-.34 1 0 1.7.26 2.17.72.48.48.7 1.18.7 2.05v2.93a.88.88 0 0 1-.9.87c-.52 0-.87-.37-.87-.75v-.02c-.44.5-1.06.82-1.94.82zm.55-1.26c.85 0 1.43-.47 1.43-1.13v-.32a2.83 2.83 0 0 0-1.17-.23c-.78 0-1.26.3-1.26.9 0 .5.4.8 1 .8zm.43-5.93c-.4 0-.7-.07-1.04-.4l-.75-.7c-.13-.12-.23-.25-.23-.42 0-.27.58-.54 1.02-.54.3 0 .52.15.68.4l.66 1.04c.06.1.12.2.12.32 0 .2-.2.3-.46.3zm10.15 7.2a4.48 4.48 0 0 1-2.42-.74.73.73 0 0 1-.35-.64c0-.4.3-.72.72-.72a.7.7 0 0 1 .36.1c.6.38 1.22.58 1.74.58.53 0 .77-.2.77-.48v-.03c0-.38-.63-.52-1.33-.73-.9-.27-1.92-.7-1.92-1.93v-.03c0-1.3 1.05-2.03 2.35-2.03.67 0 1.37.18 2 .5a.74.74 0 0 1 .42.68c0 .4-.33.72-.74.72a.67.67 0 0 1-.34-.1c-.5-.24-1-.4-1.4-.4-.43 0-.66.2-.66.45v.02c0 .36.6.53 1.3.77.9.3 1.95.74 1.95 1.92v.02c0 1.43-1.06 2.08-2.45 2.08zm5.25-3.85h2.74c-.1-.82-.58-1.37-1.35-1.37-.77 0-1.26.55-1.4 1.38zm3.8 3.08c-.56.48-1.3.78-2.23.78-1.93 0-3.36-1.35-3.36-3.32v-.02c0-1.84 1.32-3.35 3.2-3.35 2.14 0 3.08 1.76 3.08 3.1 0 .52-.37.87-.85.87h-3.6c.17.83.75 1.26 1.56 1.26.5 0 .92-.16 1.3-.43a.68.68 0 0 1 .43-.15c.4 0 .7.32.7.72 0 .24-.1.42-.23.54zm1.56-.06c0-.25.1-.44.25-.62l1.66-1.94-1.5-1.73c-.2-.23-.3-.45-.3-.7 0-.5.38-.83.84-.83.36 0 .6.17.85.47l1.2 1.58 1.2-1.58c.2-.26.47-.47.8-.47.47 0 .84.34.84.8 0 .25-.12.44-.26.62l-1.56 1.8 1.6 1.86c.2.24.3.46.3.7 0 .5-.38.84-.83.84-.36 0-.6-.17-.85-.47l-1.3-1.7-1.3 1.7c-.2.26-.46.47-.8.47-.47 0-.84-.34-.84-.8zm9.4.8c-1.12 0-1.88-.44-1.88-1.92v-3.05h-.06a.78.78 0 0 1-.78-.78c0-.43.35-.78.78-.78h.06v-.8a.9.9 0 1 1 1.83 0v.8h.8c.44 0 .8.35.8.78 0 .43-.36.78-.8.78h-.8v2.75c0 .42.2.62.6.62.06 0 .18 0 .2 0a.76.76 0 0 1 .77.74.74.74 0 0 1-.47.7c-.34.12-.65.17-1.04.17zm4.63.02c-1.22 0-2.22-.7-2.22-1.97v-.02c0-1.4 1.07-2.05 2.6-2.05a4.57 4.57 0 0 1 1.56.26v-.1c0-.76-.46-1.18-1.38-1.18-.5 0-.9.07-1.26.18a.77.77 0 0 1-.26.04.74.74 0 0 1-.76-.74c0-.32.2-.6.5-.7.57-.22 1.2-.34 2.05-.34 1 0 1.7.26 2.17.72.48.48.7 1.18.7 2.05v2.93a.88.88 0 0 1-.9.87c-.52 0-.87-.37-.87-.75v-.02c-.44.5-1.05.82-1.94.82zm.54-1.26c.85 0 1.43-.47 1.43-1.13v-.32a2.83 2.83 0 0 0-1.17-.23c-.78 0-1.26.3-1.26.9 0 .5.4.8 1 .8zm5.32-1.7a.88.88 0 0 1-.88-.88.88.88 0 0 1 .88-.88h2.08a.88.88 0 0 1 .88.88.88.88 0 0 1-.88.88h-2.08zm4.62 2v-4.03h-.08a.74.74 0 0 1-.75-.75c0-.42.33-.75.75-.75h.08v-.4c0-.72.18-1.23.5-1.57.35-.34.84-.5 1.5-.5.28 0 .53 0 .73.04a.74.74 0 0 1 .64.74.76.76 0 0 1-.75.75h-.16c-.42 0-.66.2-.66.7v.24h.8c.4 0 .74.32.74.74s-.33.75-.75.75h-.77v4.03a.9.9 0 1 1-1.82 0zm5.62-2.88h2.75c-.1-.82-.6-1.37-1.35-1.37-.76 0-1.25.55-1.4 1.38zm3.8 3.08c-.56.48-1.3.78-2.22.78-1.94 0-3.36-1.35-3.36-3.32v-.02c0-1.84 1.3-3.35 3.18-3.35 2.14 0 3.1 1.76 3.1 3.1 0 .52-.38.87-.86.87h-3.6c.17.83.74 1.26 1.56 1.26.5 0 .92-.16 1.3-.43a.68.68 0 0 1 .44-.15c.4 0 .7.32.7.72 0 .24-.1.42-.23.54zm2.06-7.3v-.03c0-.53.44-.85 1.02-.85.58 0 1.02.32 1.02.85v.03c0 .52-.44.86-1.02.86-.58 0-1.02-.34-1.02-.86zm.1 7.1V25.4a.9.9 0 1 1 1.83 0v4.76a.9.9 0 1 1-1.83 0zm3.55 0V25.4a.9.9 0 1 1 1.83 0v.3c.27-.63.7-1.2 1.24-1.2.56 0 .9.37.9.88 0 .48-.33.77-.7.86-.92.2-1.44.92-1.44 2.22v1.7a.9.9 0 1 1-1.82 0zm6.55.96c-1.2 0-2.2-.7-2.2-1.97v-.02c0-1.4 1.06-2.05 2.58-2.05a4.57 4.57 0 0 1 1.57.26v-.1c0-.76-.46-1.18-1.38-1.18-.5 0-.9.07-1.26.18a.77.77 0 0 1-.26.04.74.74 0 0 1-.76-.74c0-.32.2-.6.5-.7.57-.22 1.2-.34 2.05-.34.98 0 1.7.26 2.16.72.48.48.7 1.18.7 2.05v2.93a.88.88 0 0 1-.9.87c-.52 0-.87-.37-.87-.75v-.02c-.45.5-1.06.82-1.95.82zm.55-1.26c.85 0 1.43-.47 1.43-1.13v-.32a2.83 2.83 0 0 0-1.17-.23c-.78 0-1.26.3-1.26.9 0 .5.4.8 1 .8zm-139.42 8.22v7.08a.9.9 0 1 1-1.82 0v-.08c-.44.6-1.06 1.04-2 1.04-1.5 0-2.93-1.18-2.93-3.32v-.03c0-2.15 1.4-3.32 2.93-3.32.97 0 1.57.44 2 .96V38.1a.9.9 0 1 1 1.82 0zM962.92 41c-.85 0-1.57.7-1.57 1.77v.03c0 1.06.72 1.77 1.57 1.77.86 0 1.56-.7 1.56-1.77v-.03c0-1.07-.7-1.77-1.56-1.77zm6.82 5.12c-1.2 0-2.2-.7-2.2-1.97v-.02c0-1.4 1.06-2.05 2.58-2.05a4.57 4.57 0 0 1 1.58.26v-.1c0-.76-.47-1.18-1.38-1.18-.5 0-.92.07-1.26.18a.77.77 0 0 1-.27.04.74.74 0 0 1-.76-.74c0-.32.2-.6.5-.7.56-.22 1.2-.34 2.04-.34 1 0 1.72.26 2.17.72.48.48.7 1.18.7 2.05v2.93a.88.88 0 0 1-.9.87c-.52 0-.87-.37-.87-.75v-.02c-.44.5-1.05.82-1.94.82zm.55-1.26c.84 0 1.42-.47 1.42-1.13v-.32a2.83 2.83 0 0 0-1.16-.23c-.78 0-1.26.3-1.26.9 0 .5.4.8 1 .8zm6.98 1.26a4.48 4.48 0 0 1-2.43-.73.73.73 0 0 1-.35-.64c0-.4.32-.72.72-.72a.7.7 0 0 1 .36.1c.62.38 1.23.58 1.74.58.53 0 .77-.2.77-.48v-.03c0-.38-.63-.52-1.34-.73-.9-.27-1.92-.7-1.92-1.93v-.03c0-1.3 1.06-2.03 2.35-2.03.66 0 1.36.18 1.98.5a.74.74 0 0 1 .44.68c0 .4-.33.72-.74.72a.67.67 0 0 1-.33-.1c-.52-.24-1-.4-1.4-.4-.44 0-.67.2-.67.45v.02c0 .36.62.53 1.3.77.9.3 1.96.74 1.96 1.92v.02c0 1.43-1.07 2.08-2.46 2.08zm10.92.02c-2.25 0-3.72-1.88-3.72-4.32v-.02c0-2.44 1.5-4.34 3.74-4.34 2.22 0 3.72 1.88 3.72 4.32v.02c0 2.44-1.5 4.34-3.74 4.34zm.02-1.66c1.12 0 1.82-1.13 1.82-2.66v-.02c0-1.52-.74-2.68-1.84-2.68s-1.83 1.12-1.83 2.66v.02c0 1.54.73 2.68 1.85 2.68zm8.15 1.64c-1.86 0-3.24-.96-3.24-2.42v-.03c0-1.02.47-1.62 1.35-2.03-.64-.4-1.06-.93-1.06-1.83v-.02c0-1.28 1.17-2.3 2.95-2.3s2.95 1 2.95 2.3v.03c0 .9-.42 1.45-1.07 1.84.85.45 1.36 1 1.36 1.98v.03c0 1.56-1.37 2.47-3.23 2.47zm0-5.1c.73 0 1.2-.42 1.2-1v-.03c0-.53-.45-1-1.2-1s-1.2.46-1.2.98V40c0 .6.47 1.03 1.2 1.03zm0 3.58c.9 0 1.45-.46 1.45-1.05v-.02c0-.65-.6-1.03-1.45-1.03s-1.45.38-1.45 1.03v.02c0 .58.54 1.05 1.45 1.05zm4.6.56v-7.08a.9.9 0 1 1 1.82 0v2.4c.4-.54.95-1.03 1.87-1.03 1.38 0 2.2.9 2.2 2.4v3.3a.9.9 0 1 1-1.84 0v-2.74c0-.85-.4-1.3-1.1-1.3-.7 0-1.14.45-1.14 1.3v2.76a.9.9 0 1 1-1.84 0zm12.9.96c-1.22 0-2.2-.7-2.2-1.97v-.02c0-1.4 1.05-2.05 2.58-2.05a4.57 4.57 0 0 1 1.57.26v-.1c0-.76-.47-1.18-1.38-1.18-.5 0-.9.07-1.26.18a.77.77 0 0 1-.26.04.74.74 0 0 1-.76-.74c0-.32.2-.6.5-.7.57-.22 1.2-.34 2.04-.34 1 0 1.72.26 2.18.72.48.48.7 1.18.7 2.05v2.93a.88.88 0 0 1-.9.87c-.52 0-.87-.37-.87-.75v-.02c-.44.5-1.05.82-1.94.82zm.55-1.26c.85 0 1.42-.47 1.42-1.13v-.32a2.83 2.83 0 0 0-1.16-.23c-.78 0-1.26.3-1.26.9 0 .5.4.8 1 .8zm.43-5.93c-.4 0-.7-.07-1.05-.4l-.74-.7c-.14-.12-.24-.25-.24-.42 0-.27.58-.54 1.02-.54.3 0 .53.15.68.4l.66 1.04c.06.1.12.2.12.32 0 .2-.2.3-.45.3zm6.55 7.2a4.48 4.48 0 0 1-2.42-.74.73.73 0 0 1-.35-.64c0-.4.3-.72.72-.72a.7.7 0 0 1 .36.1c.62.38 1.23.58 1.75.58.53 0 .77-.2.77-.48v-.03c0-.38-.63-.52-1.34-.73-.9-.27-1.92-.7-1.92-1.93v-.03c0-1.3 1.06-2.03 2.36-2.03.67 0 1.36.18 2 .5a.74.74 0 0 1 .42.68c0 .4-.32.72-.73.72a.67.67 0 0 1-.33-.1c-.5-.24-1-.4-1.4-.4-.43 0-.66.2-.66.45v.02c0 .36.62.53 1.32.77.9.3 1.94.74 1.94 1.92v.02c0 1.43-1.07 2.08-2.46 2.08zm8.7-.97v-5.8l-.66.16a1.5 1.5 0 0 1-.32.05.8.8 0 0 1-.8-.8c0-.37.23-.68.6-.8l1.2-.33c.34-.1.6-.16.86-.16h.02c.5 0 .9.4.9.9v6.78a.9.9 0 1 1-1.8 0zm6.7.96c-1.86 0-3.24-.96-3.24-2.42v-.03c0-1.02.46-1.62 1.35-2.03-.64-.4-1.06-.93-1.06-1.83v-.02c0-1.28 1.18-2.3 2.96-2.3s2.95 1 2.95 2.3v.03c0 .9-.42 1.45-1.07 1.84.85.45 1.36 1 1.36 1.98v.03c0 1.56-1.38 2.47-3.24 2.47zm0-5.1c.73 0 1.2-.42 1.2-1v-.03c0-.53-.45-1-1.2-1s-1.2.46-1.2.98V40c0 .6.46 1.03 1.2 1.03zm0 3.58c.9 0 1.45-.46 1.45-1.05v-.02c0-.65-.6-1.03-1.45-1.03s-1.46.38-1.46 1.03v.02c0 .58.54 1.05 1.46 1.05zm4.6.56v-7.08a.9.9 0 1 1 1.82 0v2.4c.42-.54.96-1.03 1.88-1.03 1.38 0 2.18.9 2.18 2.4v3.3a.9.9 0 1 1-1.82 0v-2.74c0-.85-.4-1.3-1.1-1.3-.7 0-1.14.45-1.14 1.3v2.76a.9.9 0 1 1-1.83 0z"/><path fill="#F5A623" d="M946.75 23.95c0-1.94-1.22-3.6-2.88-4.12 0 .2.03.4.03.6v.54l-.05 7.1c1.67-.5 2.9-2.18 2.9-4.13M933.1 39a1.26 1.26 0 0 0-2.52 0 1.26 1.26 0 0 0 1.25 1.25A1.26 1.26 0 0 0 933.1 39m7.17-24.08a10.08 10.08 0 0 0-1.05-1.24c-1.66-1.67-4.22-2.96-6.74-2.96h-1.26c-2.52 0-5.08 1.3-6.74 2.96a10.62 10.62 0 0 0-2.45 3.9 10.1 10.1 0 0 0 5.28-4.63.96.96 0 0 1 1.54-.2 10.04 10.04 0 0 0 7.28 3.08c1.43 0 2.85-.32 4.15-.9m-20.44 4.9c-1.68.5-2.9 2.16-2.9 4.1 0 1.94 1.2 3.6 2.84 4.1 0-2.67.03-4.8.03-7.6 0-.2.02-.4.03-.6m28.84 4.1c0 3.03-2.08 5.6-4.83 6.1v.15a11.4 11.4 0 0 1-3.3 6.9 11.42 11.42 0 0 1-5.76 3.1 3.18 3.18 0 0 1-2.95 2 3.18 3.18 0 0 1-3.17-3.2 3.18 3.18 0 0 1 3.17-3.17c1.46 0 2.68 1 3.05 2.34 1.64-.35 3.22-1 4.34-2.13 1.66-1.66 2.96-4.48 2.96-7v-8.58c0-1.32-.36-2.64-.93-3.84a12.04 12.04 0 0 1-5.13 1.17c-2.88 0-5.6-1-7.76-2.83a12 12 0 0 1-6.8 4.83c-.02.22-.04.45-.04.67V29c0 .26-.06.44-.15.58v.02c-.03.02-.05.05-.07.07a.95.95 0 0 1-.87.45c-3.04-.23-5.43-2.95-5.43-6.18 0-3.1 2.22-5.74 5.1-6.13a11.45 11.45 0 0 1 3.05-5.45A11.4 11.4 0 0 1 931.22 9h1.26c3.14 0 6 1.28 8.06 3.35a11.44 11.44 0 0 1 3.05 5.46c2.86.42 5.07 3.04 5.07 6.14M937 28.7a.96.96 0 1 0-1.86-.53c-.33 1.16-1.72 2-3.3 2-1.6 0-2.98-.84-3.3-2a.96.96 0 1 0-1.86.52c.57 2 2.68 3.4 5.15 3.4s4.6-1.4 5.16-3.4M928 24.13a1.73 1.73 0 0 0 0-3.44c-.96 0-1.73.77-1.73 1.72s.77 1.72 1.72 1.72m5.93-1.72c0-.95.77-1.72 1.72-1.72s1.73.77 1.73 1.72-.78 1.72-1.73 1.72-1.72-.77-1.72-1.72"/><path fill="#EBEBEB" fill-rule="nonzero" d="M430.5.5h1v50h-1zm219 0h1v50h-1zm252 0h1v50h-1zm-718 0h1v50h-1z"/><path fill="#F5A623" d="M459.46 32.48c0 .53-.43.96-.96.96h-3.58a.96.96 0 0 1 0-1.92h3.58c.53 0 .96.43.96.96zm-7.08 0a.96.96 0 0 1-.96.96h-2.87a.96.96 0 0 1 0-1.92h2.88c.53 0 .96.43.96.96zm22.35 2.94H447.5a1.58 1.58 0 0 1-1.58-1.58V24.4h30.4v9.44c0 .86-.73 1.58-1.6 1.58zm-28.8-12.95h30.4v-2.2h-30.4v2.2zm1.57-7.55h27.23c.88 0 1.6.7 1.6 1.58v1.83h-30.4V16.5c0-.87.7-1.58 1.57-1.58zM474.73 13H447.5a3.5 3.5 0 0 0-3.5 3.5v17.34a3.5 3.5 0 0 0 3.5 3.5h27.23a3.5 3.5 0 0 0 3.5-3.5V16.5a3.5 3.5 0 0 0-3.5-3.5z"/><path fill="#E75B22" d="M488.65 26.8c0-.2.07-.38.16-.58l4.4-9.92c.3-.68.87-1.1 1.62-1.1h.16c.76 0 1.3.42 1.6 1.1l4.4 9.92c.1.2.14.38.14.56 0 .73-.57 1.33-1.3 1.33-.66 0-1.1-.37-1.34-.95l-.85-1.98h-5.54l-.9 2.07c-.23.54-.7.87-1.27.87-.72 0-1.28-.57-1.28-1.3zm4.46-4.07h3.5l-1.74-4.16-1.75 4.16zm12.6 5.43c-1.66 0-2.8-.66-2.8-2.9V20.7h-.1c-.64 0-1.16-.53-1.16-1.18 0-.65.52-1.17 1.17-1.17h.1v-1.2a1.37 1.37 0 1 1 2.74 0v1.2h1.2c.65 0 1.17.52 1.17 1.17 0 .65-.5 1.17-1.16 1.17h-1.2v4.1c0 .64.27.95.88.95.1 0 .27-.02.32-.02a1.14 1.14 0 0 1 1.14 1.14c0 .48-.33.88-.7 1.02-.5.2-.98.26-1.57.26zm5.97-5.74h4.12c-.17-1.22-.9-2.05-2.05-2.05-1.13 0-1.87.8-2.08 2.05zm5.7 4.63c-.84.72-1.94 1.17-3.35 1.17-2.9 0-5.04-2.04-5.04-5v-.03c0-2.76 1.97-5.03 4.77-5.03 3.23 0 4.65 2.65 4.65 4.65 0 .8-.56 1.3-1.28 1.3h-5.42c.27 1.25 1.14 1.9 2.36 1.9.76 0 1.4-.23 1.94-.65.2-.14.38-.2.67-.2.6 0 1.06.45 1.06 1.07 0 .36-.16.63-.36.8zm-3.72-9.65c-.4 0-.7-.18-.7-.47 0-.16.1-.34.2-.5l.98-1.53c.24-.38.58-.62 1.03-.62.66 0 1.53.42 1.53.83 0 .26-.16.46-.37.66l-1.12 1.04c-.5.5-.94.6-1.55.6zm16.7 10.82c-1.62 0-2.74-.47-3.62-1.35-.92-.92-1.5-2.27-1.5-4.77v-.04c0-3.9 1.77-6.88 5.53-6.88 1.26 0 2.3.3 3.04.76.43.25.72.63.72 1.2 0 .7-.6 1.27-1.3 1.27-.25 0-.5-.08-.7-.2-.57-.32-1.1-.5-1.85-.5-1.57 0-2.36 1.26-2.54 2.92.63-.4 1.37-.8 2.6-.8 2.5 0 4.44 1.38 4.44 4v.04c0 2.57-2.07 4.36-4.8 4.36zm-.1-2.38c1.37 0 2.17-.77 2.17-1.85v-.05c0-1.06-.83-1.84-2.2-1.84s-2.16.77-2.16 1.83v.04c0 1.06.83 1.87 2.2 1.87zm6.45 1.12c0-.38.14-.67.38-.94l2.46-2.92-2.25-2.6c-.3-.35-.46-.67-.46-1.03 0-.78.58-1.26 1.26-1.26.54 0 .92.26 1.28.7l1.78 2.4 1.82-2.4c.32-.4.7-.7 1.2-.7.7 0 1.27.5 1.27 1.2 0 .37-.17.66-.38.93l-2.34 2.74 2.4 2.77c.32.36.46.68.46 1.04 0 .78-.6 1.26-1.27 1.26-.54 0-.92-.25-1.28-.7l-1.94-2.55-1.94 2.54c-.32.4-.7.7-1.18.7-.72 0-1.28-.5-1.28-1.18zm19.22 1.22a6.72 6.72 0 0 1-3.64-1.1 1.1 1.1 0 0 1-.52-.93c0-.62.47-1.08 1.08-1.08.2 0 .4.05.54.14.92.6 1.84.87 2.6.87.8 0 1.16-.28 1.16-.72v-.03c0-.6-.93-.8-2-1.12-1.35-.4-2.88-1.02-2.88-2.9v-.03c0-1.96 1.6-3.06 3.53-3.06 1 0 2.04.28 2.98.75.4.2.65.55.65 1.02 0 .6-.5 1.08-1.1 1.08a1 1 0 0 1-.5-.12c-.78-.38-1.52-.62-2.1-.62-.66 0-1 .3-1 .68v.04c0 .54.92.8 1.96 1.15 1.34.45 2.9 1.1 2.9 2.86v.04c0 2.14-1.6 3.1-3.68 3.1zm7.66-5.76h4.13c-.16-1.22-.88-2.05-2.03-2.05-1.13 0-1.87.8-2.1 2.05zm5.7 4.63c-.84.72-1.93 1.17-3.34 1.17-2.9 0-5.04-2.04-5.04-5v-.03c0-2.76 1.96-5.03 4.77-5.03 3.22 0 4.65 2.65 4.65 4.65 0 .8-.56 1.3-1.28 1.3h-5.42c.27 1.25 1.13 1.9 2.36 1.9.75 0 1.38-.23 1.94-.65.2-.14.38-.2.67-.2.6 0 1.05.45 1.05 1.07 0 .36-.16.63-.36.8zm2.92-.3V19.6a1.37 1.37 0 1 1 2.74 0v.12c.63-.8 1.46-1.55 2.84-1.55 1.26 0 2.22.56 2.72 1.53.85-1 1.86-1.53 3.17-1.53 2.03 0 3.26 1.23 3.26 3.55v5.02a1.37 1.37 0 1 1-2.74 0v-4.12c0-1.3-.58-1.96-1.6-1.96-1.04 0-1.67.66-1.67 1.96v4.12a1.37 1.37 0 1 1-2.73 0v-4.12c0-1.3-.58-1.96-1.6-1.96-1.03 0-1.66.66-1.66 1.96v4.12a1.37 1.37 0 1 1-2.74 0zm22.07-10.67v-.03c0-.8.66-1.28 1.53-1.28s1.53.5 1.53 1.28v.03c0 .8-.67 1.3-1.53 1.3s-1.53-.5-1.53-1.3zm-.02 14.85h-.04c-.87 0-1.52-.36-1.52-1.1 0-.68.5-1.1 1.07-1.1.4 0 .68-.26.68-.9V19.6a1.37 1.37 0 1 1 2.74 0v8.24c0 2.12-1.12 3.1-2.92 3.1zM608.3 19.6v7.14a1.37 1.37 0 1 1-2.73 0v-.1c-.63.8-1.44 1.54-2.83 1.54-2.07 0-3.27-1.37-3.27-3.58v-5a1.37 1.37 0 1 1 2.73 0v4.13c0 1.3.62 1.97 1.66 1.97s1.7-.67 1.7-1.97V19.6a1.37 1.37 0 1 1 2.75 0zm2.25 7.14V19.6a1.37 1.37 0 1 1 2.74 0v.44c.4-.93 1.03-1.8 1.84-1.8.85 0 1.34.56 1.34 1.34 0 .72-.47 1.15-1.03 1.27-1.4.33-2.16 1.4-2.16 3.33v2.56a1.37 1.37 0 1 1-2.75 0zm11.8 1.48c-3 0-5.2-2.22-5.2-5v-.03c0-2.78 2.22-5.03 5.23-5.03 3 0 5.2 2.22 5.2 5v.02c0 2.77-2.23 5.02-5.24 5.02zm.03-2.36c1.56 0 2.5-1.2 2.5-2.63v-.04c0-1.43-1.03-2.67-2.54-2.67-1.56 0-2.5 1.2-2.5 2.63v.03c0 1.42 1.03 2.66 2.54 2.66zm10.36 2.32a6.72 6.72 0 0 1-3.63-1.1 1.1 1.1 0 0 1-.5-.93c0-.62.45-1.08 1.07-1.08.2 0 .4.05.54.14.92.6 1.84.87 2.62.87.8 0 1.15-.28 1.15-.72v-.03c0-.6-.94-.8-2-1.12-1.35-.4-2.88-1.02-2.88-2.9v-.03c0-1.96 1.57-3.06 3.52-3.06 1 0 2.05.28 3 .75.38.2.63.55.63 1.02 0 .6-.48 1.08-1.1 1.08a1 1 0 0 1-.5-.12c-.77-.38-1.5-.62-2.1-.62-.65 0-1 .3-1 .68v.04c0 .54.92.8 1.97 1.15 1.35.45 2.9 1.1 2.9 2.86v.04c0 2.14-1.6 3.1-3.68 3.1z"/><path fill="#F5A623" d="M489 41.28v-5.43c0-.44.33-.8.77-.8s.8.36.8.8v.34c.43-.65 1.07-1.2 2.14-1.2 1.55 0 2.45 1.03 2.45 2.62v3.67c0 .43-.34.76-.78.76a.78.78 0 0 1-.8-.78V38.1c0-1.07-.53-1.68-1.46-1.68-.9 0-1.54.64-1.54 1.7v3.17c0 .43-.35.77-.8.77a.77.77 0 0 1-.77-.78zm11.3.88c-2.08 0-3.63-1.6-3.63-3.55v-.02c0-1.96 1.56-3.6 3.67-3.6s3.65 1.6 3.65 3.57v.03c0 1.95-1.57 3.58-3.7 3.58zm.04-1.38c1.27 0 2.08-1 2.08-2.17v-.02c0-1.2-.87-2.2-2.1-2.2-1.27 0-2.08.98-2.08 2.17v.03c0 1.2.87 2.2 2.1 2.2zm12.32 1.38c-2.04 0-3.55-1.6-3.55-3.55v-.02c0-1.95 1.52-3.6 3.6-3.6 1.07 0 1.8.36 2.4.87a.75.75 0 0 1 .24.55.72.72 0 0 1-.73.7.8.8 0 0 1-.46-.14c-.4-.34-.84-.6-1.47-.6-1.14 0-1.98 1-1.98 2.2v.02c0 1.22.83 2.2 2.04 2.2.62 0 1.1-.25 1.53-.6a.68.68 0 0 1 .43-.18c.38 0 .68.3.68.7a.6.6 0 0 1-.22.48c-.6.6-1.35.98-2.5.98zm6.23-.02c-1.3 0-2.44-.74-2.44-2.12V40c0-1.48 1.15-2.2 2.83-2.2.76 0 1.3.1 1.84.27v-.17c0-.97-.6-1.5-1.7-1.5-.6 0-1.1.1-1.53.28a.88.88 0 0 1-.23.04.66.66 0 0 1-.67-.65c0-.28.2-.53.43-.62a5.88 5.88 0 0 1 2.2-.4c1.04 0 1.8.27 2.3.76.5.5.73 1.23.73 2.13v3.38a.75.75 0 0 1-.77.77c-.46 0-.78-.32-.78-.67v-.26c-.46.56-1.18 1-2.23 1zm.43-1.14c1.04 0 1.83-.6 1.83-1.47v-.47a4.36 4.36 0 0 0-1.56-.27c-1 0-1.6.42-1.6 1.13v.03c0 .66.58 1.04 1.33 1.04zm5.2.3v-5.45c0-.44.35-.8.8-.8s.8.36.8.8v.7c.35-.85 1.03-1.5 1.7-1.5.5 0 .8.32.8.78a.74.74 0 0 1-.63.75c-1.12.2-1.88 1.05-1.88 2.68v2.02c0 .43-.36.78-.8.78a.77.77 0 0 1-.78-.78zm7.68.82c-1.14 0-1.96-.5-1.96-2.02v-3.6h-.26a.67.67 0 0 1-.68-.7c0-.36.3-.66.68-.66h.26v-1.17c0-.43.35-.78.8-.78.42 0 .77.34.77.77v1.17h1.24c.38 0 .7.3.7.67a.68.68 0 0 1-.7.7h-1.23v3.36c0 .6.32.85.85.85.2 0 .34-.03.4-.03.35 0 .66.3.66.65 0 .3-.2.52-.4.6a3.13 3.13 0 0 1-1.1.2zm5.03.02c-1.3 0-2.43-.74-2.43-2.12V40c0-1.48 1.16-2.2 2.83-2.2.77 0 1.32.1 1.85.27v-.16c0-.97-.6-1.5-1.7-1.5-.6 0-1.1.1-1.52.28a.88.88 0 0 1-.25.04.66.66 0 0 1-.65-.65c0-.28.2-.53.42-.62a5.88 5.88 0 0 1 2.2-.4c1.04 0 1.8.27 2.3.76.5.5.73 1.23.73 2.13v3.38a.75.75 0 0 1-.77.77c-.45 0-.76-.32-.76-.67v-.26c-.47.56-1.2 1-2.24 1zm-.55-7.98c-.1.14-.22.26-.42.26-.26 0-.5-.2-.5-.43 0-.1.04-.22.07-.3.27-.76.63-1.2 1.32-1.2.72 0 1.4.53 1.87.53.3 0 .45-.13.6-.42.1-.13.24-.25.43-.25.26 0 .48.2.48.43 0 .08-.02.2-.05.3-.27.76-.64 1.2-1.33 1.2-.7 0-1.4-.53-1.87-.53-.3 0-.44.13-.6.4zm1 6.84c1.03 0 1.83-.6 1.83-1.47v-.47a4.36 4.36 0 0 0-1.55-.27c-1.02 0-1.62.42-1.62 1.13v.03c0 .66.6 1.04 1.34 1.04zm8.47 1.16c-2.1 0-3.64-1.6-3.64-3.55v-.02c0-1.96 1.57-3.6 3.67-3.6s3.66 1.6 3.66 3.58v.02c0 1.95-1.56 3.58-3.68 3.58zm.02-1.38c1.28 0 2.08-1 2.08-2.17v-.02c0-1.2-.87-2.2-2.1-2.2-1.26 0-2.07.98-2.07 2.17v.03c0 1.2.87 2.2 2.1 2.2zm15.9-7.55v8.06c0 .43-.35.77-.78.77a.78.78 0 0 1-.8-.78v-.44c-.5.7-1.22 1.28-2.34 1.28-1.6 0-3.18-1.28-3.18-3.56v-.02c0-2.28 1.54-3.57 3.18-3.57 1.13 0 1.85.55 2.34 1.2v-2.97c0-.45.35-.78.78-.78.44 0 .8.33.8.78zm-3.53 3.13c-1.08 0-1.98.83-1.98 2.2v.02c0 1.33.9 2.2 1.98 2.2 1.05 0 2-.9 2-2.2v-.02c0-1.33-.95-2.2-2-2.2zm6.7 1.73h3.52c-.1-1.03-.7-1.82-1.75-1.82-.95 0-1.62.74-1.77 1.8zm4.43 3.15c-.63.56-1.4.9-2.47.9-2 0-3.53-1.44-3.53-3.56v-.03c0-1.96 1.4-3.58 3.36-3.58 2.18 0 3.26 1.8 3.26 3.37a.74.74 0 0 1-.75.76h-4.3c.16 1.1.96 1.74 1.97 1.74.66 0 1.18-.23 1.63-.6a.6.6 0 0 1 .4-.14.62.62 0 0 1 .62.63.7.7 0 0 1-.2.5zm9.3.9c-2.04 0-3.55-1.6-3.55-3.54v-.02c0-1.95 1.5-3.6 3.58-3.6 1.08 0 1.82.36 2.4.87a.75.75 0 0 1 .25.55.72.72 0 0 1-.73.7.8.8 0 0 1-.46-.14c-.4-.34-.85-.6-1.47-.6-1.16 0-2 1-2 2.2v.02c0 1.22.84 2.2 2.05 2.2.63 0 1.1-.25 1.54-.6a.68.68 0 0 1 .4-.18c.4 0 .7.3.7.7a.6.6 0 0 1-.23.48c-.6.6-1.35.98-2.5.98zm4.25-.86v-5.45c0-.44.34-.8.78-.8s.8.36.8.8v.7c.36-.85 1.04-1.5 1.73-1.5.5 0 .78.32.78.78a.74.74 0 0 1-.62.75c-1.12.2-1.88 1.05-1.88 2.68v2.02c0 .43-.35.78-.8.78a.77.77 0 0 1-.78-.78zm8.05-6.97c-.22 0-.4-.1-.4-.27 0-.1.06-.2.12-.3l.73-1.13c.14-.24.35-.38.62-.38.42 0 .94.26.94.5 0 .15-.1.28-.23.4l-.88.83c-.32.3-.56.35-.93.35zm-1.73 3.76h3.53c-.1-1.03-.7-1.82-1.75-1.82-.96 0-1.63.74-1.78 1.8zm4.44 3.15c-.63.56-1.4.9-2.47.9-1.98 0-3.52-1.44-3.52-3.56v-.03c0-1.97 1.4-3.58 3.36-3.58 2.18 0 3.26 1.8 3.26 3.37a.74.74 0 0 1-.74.76h-4.3c.16 1.1.96 1.74 1.97 1.74.66 0 1.18-.24 1.63-.6a.6.6 0 0 1 .4-.14.62.62 0 0 1 .62.63.7.7 0 0 1-.2.5zm8.98-8.02v8.06c0 .43-.35.77-.78.77a.78.78 0 0 1-.8-.78v-.44c-.5.7-1.22 1.28-2.33 1.28-1.62 0-3.2-1.28-3.2-3.56v-.02c0-2.28 1.56-3.57 3.2-3.57 1.13 0 1.84.55 2.34 1.2v-2.97c0-.45.34-.78.77-.78.44 0 .8.33.8.78zm-3.54 3.13c-1.08 0-1.97.83-1.97 2.2v.02c0 1.33.9 2.2 1.97 2.2 1.06 0 2-.9 2-2.2v-.02c0-1.33-.94-2.2-2-2.2zm5.5-3v-.07c0-.48.38-.78.9-.78s.88.3.88.77v.07c0 .47-.4.78-.9.78s-.9-.3-.9-.78zm.1 7.93v-5.45c0-.44.34-.8.8-.8s.78.36.78.8v5.44c0 .43-.35.77-.8.77a.77.77 0 0 1-.77-.78zm5.93.82c-1.15 0-1.97-.5-1.97-2.02v-3.6h-.26a.67.67 0 0 1-.68-.7c0-.36.3-.66.68-.66h.26v-1.17c0-.43.35-.78.8-.78.42 0 .77.34.77.77v1.17h1.24c.36 0 .67.3.67.67a.68.68 0 0 1-.68.7h-1.25v3.36c0 .6.3.85.85.85.18 0 .33-.03.4-.03.34 0 .65.3.65.65 0 .3-.2.52-.42.6a3.13 3.13 0 0 1-1.08.2zm6.1.04c-2.08 0-3.63-1.6-3.63-3.55v-.02c0-1.96 1.56-3.6 3.67-3.6s3.64 1.6 3.64 3.58v.02c0 1.95-1.56 3.58-3.68 3.58zm.04-1.38c1.26 0 2.07-1 2.07-2.17v-.02c0-1.2-.87-2.2-2.1-2.2-1.27 0-2.07.98-2.07 2.17v.03c0 1.2.87 2.2 2.1 2.2z"/></g></svg>