<?xml version="1.0" encoding="UTF-8"?>
<svg width="46px" height="46px" viewBox="0 0 46 46" version="1.1" xmlns="http://www.w3.org/2000/svg" xmlns:xlink="http://www.w3.org/1999/xlink">
    <!-- Generator: Sketch 49.3 (51167) - http://www.bohemiancoding.com/sketch -->
    <title>icon/cart/full</title>
    <desc>Created with Sketch.</desc>
    <defs></defs>
    <g id="icon/cart/full" stroke="none" stroke-width="1" fill="none" fill-rule="evenodd">
        <rect id="Rectangle" x="0" y="0" width="46" height="46"></rect>
        <path d="M19.5,36 C18.1192881,36 17,34.8807119 17,33.5 C17,32.1192881 18.1192881,31 19.5,31 C20.8807119,31 22,32.1192881 22,33.5 C22,34.8807119 20.8807119,36 19.5,36 Z" id="Oval" fill="#00D303" fill-rule="nonzero"></path>
        <path d="M28.5,36 C27.1192881,36 26,34.8807119 26,33.5 C26,32.1192881 27.1192881,31 28.5,31 C29.8807119,31 31,32.1192881 31,33.5 C31,34.8807119 29.8807119,36 28.5,36 Z" id="Oval" fill="#00D303" fill-rule="nonzero"></path>
        <path d="M16.0171278,29.1842885 C16.1058102,29.6572614 16.5187849,30 17,30 L32,30 C32.5522847,30 33,29.5522847 33,29 C33,28.4477153 32.5522847,28 32,28 L17.8299263,28 L14.9828722,12.8157115 C14.933226,12.5509318 14.7788494,12.3173825 14.5547002,12.1679497 L11.5547002,10.1679497 C11.0951715,9.86159725 10.4743022,9.98577112 10.1679497,10.4452998 C9.86159725,10.9048285 9.98577112,11.5256978 10.4452998,11.8320503 L13.0947665,13.5983614 L16.0171278,29.1842885 Z" id="Path-2" fill="#00D303" fill-rule="nonzero"></path>
        <path d="M32.1978284,24 L17,24 C16.4477153,24 16,24.4477153 16,25 C16,25.5522847 16.4477153,26 17,26 L33,26 C33.4686986,26 33.874512,25.674468 33.9761871,25.2169305 L35.9761871,16.2169305 C36.11055,15.6122974 35.6685472,15.0321781 35.0499376,15.0012477 L15.0499376,14.0012477 C14.4983419,13.9736679 14.0288274,14.3984667 14.0012477,14.9500624 C13.9736679,15.5016581 14.3984667,15.9711726 14.9500624,15.9987523 L33.7668085,16.9395896 L32.1978284,24 Z" id="Path-3" fill="#00D303" fill-rule="nonzero"></path>
        <path d="M19,20 L30,20 C30.5522847,20 31,19.5522847 31,19 C31,18.4477153 30.5522847,18 30,18 L19,18 C18.4477153,18 18,18.4477153 18,19 C18,19.5522847 18.4477153,20 19,20 Z" id="Line" fill="#00D303" fill-rule="nonzero"></path>
        <path d="M19,23 L30,23 C30.5522847,23 31,22.5522847 31,22 C31,21.4477153 30.5522847,21 30,21 L19,21 C18.4477153,21 18,21.4477153 18,22 C18,22.5522847 18.4477153,23 19,23 Z" id="Line" fill="#00D303" fill-rule="nonzero"></path>
        <path d="M19,12 L30,12 C30.5522847,12 31,12.4477153 31,13 L31,15 C31,15.5522847 30.5522847,16 30,16 L19,16 C18.4477153,16 18,15.5522847 18,15 L18,13 C18,12.4477153 18.4477153,12 19,12 Z" id="Rectangle-6" fill="#00D303" fill-rule="nonzero"></path>
    </g>
</svg>