<svg xmlns="http://www.w3.org/2000/svg" width="26" height="23"><path fill="#E75A25" d="M4.5 5a1 1 0 1 1 0-2H25a1 1 0 0 1 0 2H4.5zm1 9a1 1 0 0 1 0-2H21a1 1 0 1 1 0 2H5.5zm1.23 2.48A3.5 3.5 0 0 1 11.96 19h2.07a3.5 3.5 0 1 1 .3 2h-2.67a3.5 3.5 0 0 1-6.64-1.83 1 1 0 0 1 0-.06L3.1 2H1.48a1 1 0 1 1 0-2H4a1 1 0 0 1 1 .9l1.73 15.58zM24.1 3.58a1 1 0 1 1 1.8.83l-4 9a1 1 0 0 1-1.8-.8l4-9zM8.5 21a1.5 1.5 0 1 0 0-3 1.5 1.5 0 0 0 0 3zm9 0a1.5 1.5 0 1 0 0-3 1.5 1.5 0 0 0 0 3zM8 8a1 1 0 1 1 0-2h12a1 1 0 0 1 0 2H8zm0 3a1 1 0 0 1 0-2h11a1 1 0 0 1 0 2H8zM7 1h11v3H7V1z"/></svg>