<?xml version="1.0" encoding="utf-8"?>
<!-- Generator: Adobe Illustrator 16.0.0, SVG Export Plug-In . SVG Version: 6.00 Build 0)  -->
<!DOCTYPE svg PUBLIC "-//W3C//DTD SVG 1.1//EN" "http://www.w3.org/Graphics/SVG/1.1/DTD/svg11.dtd">
<svg version="1.1" id="Layer_1" xmlns="http://www.w3.org/2000/svg" xmlns:xlink="http://www.w3.org/1999/xlink" x="0px" y="0px"
	 width="12px" height="6px" viewBox="0 0 12 6" enable-background="new 0 0 12 6" xml:space="preserve">
<title>011E476D-9106-4A90-B413-43905A8AE377</title>
<desc>Created with sketchtool.</desc>
<g id="Symbols" opacity="0.5">
	<g id="mobile_x2F_menu_x2F_item_x2F_normal" transform="translate(-201.000000, -17.000000)">
		
			<g id="icon_x2F_chevron_x2F_white" transform="translate(207.000000, 20.000000) rotate(90.000000) translate(-207.000000, -20.000000) translate(194.000000, 4.000000)">
			
				<rect id="Rectangle-2" x="-3.217" y="3" transform="matrix(2.578893e-06 1 -1 2.578893e-06 28.7832 3.2168)" fill="none" width="32" height="26"/>
			<path id="Chevron" fill="#FFFFFF" d="M15.585,11.598c0.33-0.442,0.238-1.069-0.204-1.399c-0.443-0.33-1.069-0.238-1.399,0.204
				l-3.771,5.059c-0.266,0.357-0.264,0.849,0.008,1.203l3.769,4.942c0.335,0.438,0.963,0.523,1.402,0.188
				c0.438-0.335,0.523-0.963,0.188-1.401l-3.312-4.343L15.585,11.598z"/>
		</g>
	</g>
</g>
</svg>
