<?xml version="1.0" encoding="UTF-8"?>
<svg width="29px" height="24px" viewBox="0 0 29 24" version="1.1" xmlns="http://www.w3.org/2000/svg" xmlns:xlink="http://www.w3.org/1999/xlink">
    <!-- Generator: sketchtool 49.1 (51147) - http://www.bohemiancoding.com/sketch -->
    <title>4EC19133-8665-4F19-9352-614E30659E69</title>
    <desc>Created with sketchtool.</desc>
    <defs></defs>
    <g id="Symbols" stroke="none" stroke-width="1" fill="none" fill-rule="evenodd">
        <g id="contact/email" transform="translate(-1.000000, -3.000000)" fill="#E75B22" fill-rule="nonzero">
            <g id="icon/contact/email/color">
                <path d="M3,5.991155 L3,24.008845 C3,24.5554608 3.44842984,25 4.00732994,25 L26.9926701,25 C27.5510222,25 28,24.5545828 28,24.008845 L28,5.991155 C28,5.4445392 27.5515702,5 26.9926701,5 L4.00732994,5 C3.44897776,5 3,5.44541723 3,5.991155 Z M1,5.991155 C1,4.33726746 2.34795715,3 4.00732994,3 L26.9926701,3 C28.6522572,3 30,4.33604962 30,5.991155 L30,24.008845 C30,25.6627325 28.6520428,27 26.9926701,27 L4.00732994,27 C2.34774282,27 1,25.6639504 1,24.008845 L1,5.991155 Z" id="Rectangle-2"></path>
                <path d="M2.29289322,5.70710678 L14.8025051,18.2167186 C15.1930293,18.6072429 15.8261943,18.6072429 16.2167186,18.2167186 C16.6072429,17.8261943 16.6072429,17.1930293 16.2167186,16.8025051 L3.70710678,4.29289322 C3.31658249,3.90236893 2.68341751,3.90236893 2.29289322,4.29289322 C1.90236893,4.68341751 1.90236893,5.31658249 2.29289322,5.70710678 Z" id="Line"></path>
                <path d="M27.2929119,4.29291186 L14.7928932,16.7929305 C14.4023689,17.1834548 14.4023689,17.8166198 14.7928932,18.2071441 C15.1834175,18.5976684 15.8165825,18.5976684 16.2071068,18.2071441 L28.7071254,5.70712542 C29.0976497,5.31660113 29.0976497,4.68343615 28.7071254,4.29291186 C28.3166011,3.90238757 27.6834362,3.90238757 27.2929119,4.29291186 Z" id="Line"></path>
                <path d="M11.7928932,14.7928932 L2.29289322,24.2928932 C1.90236893,24.6834175 1.90236893,25.3165825 2.29289322,25.7071068 C2.68341751,26.0976311 3.31658249,26.0976311 3.70710678,25.7071068 L13.2071068,16.2071068 C13.5976311,15.8165825 13.5976311,15.1834175 13.2071068,14.7928932 C12.8165825,14.4023689 12.1834175,14.4023689 11.7928932,14.7928932 Z" id="Line"></path>
                <path d="M17.7928932,16.2071068 L27.2928932,25.7071068 C27.6834175,26.0976311 28.3165825,26.0976311 28.7071068,25.7071068 C29.0976311,25.3165825 29.0976311,24.6834175 28.7071068,24.2928932 L19.2071068,14.7928932 C18.8165825,14.4023689 18.1834175,14.4023689 17.7928932,14.7928932 C17.4023689,15.1834175 17.4023689,15.8165825 17.7928932,16.2071068 Z" id="Line"></path>
            </g>
        </g>
    </g>
</svg>