<svg xmlns="http://www.w3.org/2000/svg" width="18" height="20"><g fill="#FFF" fill-rule="evenodd"><path d="M6 5.12l-.6.6c-.47.48-.54 1.32-.14 1.88 0 0 .44.74 1.9 2.2 1.47 1.47 2.24 1.93 2.24 1.93.55.4 1.4.34 1.9-.15l.58-.6a.4.4 0 0 0 0-.57L10.7 9.24a.4.4 0 0 0-.58 0c-.17.17-.47.23-.68.14 0 0-.5-.14-1.1-.72-.58-.6-.7-1.1-.7-1.1a.67.67 0 0 1 .13-.67.4.4 0 0 0 0-.58L6.6 5.12a.4.4 0 0 0-.6 0z"/><path fill-rule="nonzero" d="M0 8.96C0 4 4.03 0 9 0s9 4 9 8.96-4.03 8.95-9 8.95a9.06 9.06 0 0 1-2.22-.26A1522.85 1522.85 0 0 1 4.3 19.5l-.5.36a.67.67 0 0 1-1.06-.56l.04-.63a6482.76 6482.76 0 0 1 .16-2.78l.02-.3A8.9 8.9 0 0 1 0 8.95zm4.62 8.63l1.6-1.2a.67.67 0 0 1 .6-.12c.7.2 1.44.3 2.18.3 4.23 0 7.67-3.4 7.67-7.62 0-4.22-3.44-7.63-7.67-7.63s-7.67 3.4-7.67 7.63a7.6 7.6 0 0 0 2.74 5.84l.23.22-.15 2.92.47-.35z"/></g></svg>