<svg xmlns="http://www.w3.org/2000/svg" width="13" height="14"><path fill="#FFF" fill-rule="evenodd" d="M4.65 2.7H8.3v-.1A1.82 1.82 0 0 0 6.48.8a1.82 1.82 0 0 0-1.83 1.8v.1zM4.2 4.63a.26.26 0 1 0 0 .52.26.26 0 0 0 0-.52zm4.56 0a.26.26 0 1 0 0 .52.26.26 0 0 0 0-.52zM1.46 3.5c-.1 0-.14.08-.15.15L.8 13.1c0 .03.02.05.03.07a.15.15 0 0 0 .12.04h11.1a.15.15 0 0 0 .12-.03c0-.02.03-.04.03-.07l-.53-9.45c0-.08-.06-.16-.13-.16H9.1v.4a1.04 1.04 0 1 1-1.36.98c0-.4.23-.76.58-.94V3.5H4.65v.44a1.04 1.04 0 1 1-.78-.05v-.4H1.45zM12.02 14H.93a.94.94 0 0 1-.7-.3.87.87 0 0 1-.23-.64L.53 3.6c.02-.5.43-.9.92-.9h2.42v-.1A2.6 2.6 0 0 1 6.47 0a2.6 2.6 0 0 1 2.6 2.6v.1h2.44c.5 0 .9.4.92.9l.53 9.46a.87.87 0 0 1-.24.65.94.94 0 0 1-.67.3z"/></svg>