<svg xmlns="http://www.w3.org/2000/svg" width="21" height="20"><g fill="#FEB902" fill-rule="evenodd"><path d="M10.8 17.3a2.36 2.36 0 0 0-2.35-2.37A2.36 2.36 0 0 0 6.1 17.3a2.36 2.36 0 0 0 2.35 2.37 2.36 2.36 0 0 0 2.35-2.37zm-3.27 0a.93.93 0 0 1 .92-.94.93.93 0 0 1 .93.94.93.93 0 0 1-.93.94.93.93 0 0 1-.92-.94zm10.23 0a2.36 2.36 0 0 0-2.35-2.37 2.36 2.36 0 0 0-2.34 2.37 2.36 2.36 0 0 0 2.35 2.37 2.36 2.36 0 0 0 2.36-2.37zm-3.27 0a.93.93 0 0 1 .9-.94.93.93 0 0 1 .93.94.93.93 0 0 1-.92.94.93.93 0 0 1-.9-.94zM20 4.05a.6.6 0 0 1-.1-.07c-.27-.17-.33-.44-.28-.62l-2.4 7.6a.27.27 0 0 1-.03.06c.03-.05.1-.1.3-.1H6.77c.23 0 .3.06.35.12a.67.67 0 0 1-.08-.15l-2.4-7.47a.5.5 0 0 1-.14.5c-.1.1-.18.12-.24.12H20zM3.3 3.87l2.4 7.45c.16.55.5 1.02 1.07 1.02H17.5c.55 0 .93-.46 1.1-.95L21 3.8c.1-.4.02-.8-.35-1.03-.2-.13-.37-.15-.64-.15H4.27c-.68 0-1.2.53-.97 1.25zM3.8.98a.7.7 0 1 0-1.33.54l.82 2.02A.7.7 0 0 0 4.6 3L3.8.98zm1.94 10.73L4.5 15a.7.7 0 1 0 1.35.5l1.25-3.33s-.08.08-.28.08a.7.7 0 0 0 0-1.43c-.52 0-.93.4-1.08.9zM2.94 1.43a.7.7 0 0 0 0-1.43H.7a.7.7 0 1 0 0 1.43h2.24zm15.1 14.73a.7.7 0 1 0 0-1.43H5.17a.7.7 0 0 0 0 1.43h12.9z"/></g></svg>