<svg xmlns="http://www.w3.org/2000/svg" width="30" height="30"><path fill="#e75a25" fill-rule="evenodd" d="M18.38 11.63a4.75 4.75 0 0 0-3.38-1.4c-1.32 0-2.5.53-3.37 1.4a4.76 4.76 0 0 0-1.4 3.37c0 1.32.53 2.5 1.4 3.37a4.76 4.76 0 0 0 3.37 1.4c1.32 0 2.5-.53 3.38-1.4a4.75 4.75 0 0 0 1.4-3.37 4.75 4.75 0 0 0-1.4-3.37M15 8.43a6.55 6.55 0 0 1 4.7 1.98 6.55 6.55 0 0 1 1.87 4.6 6.55 6.55 0 0 1-1.92 4.64A6.55 6.55 0 0 1 15 21.57a6.55 6.55 0 0 1-4.64-1.93A6.55 6.55 0 0 1 8.43 15c0-1.8.74-3.45 1.93-4.64A6.55 6.55 0 0 1 15 8.42m2.2-3.64l-.28-2.84a11.4 11.4 0 0 0-3.84 0l-.26 2.77a.9.9 0 0 1-.64.84 9.7 9.7 0 0 0-.9.3l-.05.03c-.3.13-.6.26-.87.4a.9.9 0 0 1-1.03-.07l-2.2-1.8a11.32 11.32 0 0 0-2.7 2.7l1.8 2.2a.9.9 0 0 1 .1 1c-.15.3-.3.6-.43.9-.12.3-.23.6-.33.95-.1.34-.4.6-.78.63l-2.84.28A11.36 11.36 0 0 0 1.8 15a11.38 11.38 0 0 0 .16 1.92l2.77.26a.9.9 0 0 1 .84.64 9.6 9.6 0 0 0 .32.9v.05c.13.3.26.6.42.87a.9.9 0 0 1-.08 1.03l-1.82 2.2a11.3 11.3 0 0 0 1.25 1.47 11.12 11.12 0 0 0 1.47 1.24l2.2-1.82a.9.9 0 0 1 .98-.1c.3.16.58.3.87.42l.03.02c.3.12.62.24.95.33.34.1.6.4.63.78l.28 2.84c.63.1 1.28.16 1.92.16s1.3-.05 1.92-.16l.26-2.77a.9.9 0 0 1 .64-.84 9.8 9.8 0 0 0 .9-.32h.05c.3-.13.6-.26.87-.42a.9.9 0 0 1 1.03.08l2.2 1.82a10.98 10.98 0 0 0 1.47-1.25 11.28 11.28 0 0 0 1.24-1.47l-1.82-2.2a.9.9 0 0 1-.1-.98 9.68 9.68 0 0 0 .78-1.86.9.9 0 0 1 .77-.63l2.84-.28A11.3 11.3 0 0 0 28.2 15c0-.43-.02-.85-.07-1.26v-.02a10.88 10.88 0 0 0-.1-.64l-2.76-.26a.9.9 0 0 1-.84-.64 9.8 9.8 0 0 0-.3-.9l-.03-.05a9.93 9.93 0 0 0-.4-.87.9.9 0 0 1 .07-1.04l1.8-2.2a11.3 11.3 0 0 0-1.23-1.46 11.3 11.3 0 0 0-1.47-1.24l-2.2 1.8a.9.9 0 0 1-1 .1 9.79 9.79 0 0 0-1.85-.75.9.9 0 0 1-.63-.78m1.45-3.63l.27 2.86a12.33 12.33 0 0 1 1.06.45l2.25-1.87a.9.9 0 0 1 1.08-.04 13.33 13.33 0 0 1 2.3 1.83 13.16 13.16 0 0 1 1.86 2.32.9.9 0 0 1-.07 1.05l-1.88 2.25c.1.17.16.35.24.52l.02.05c.06.16.13.32.18.48l2.9.28a.9.9 0 0 1 .8.7c.12.47.2.96.26 1.45v.04a13 13 0 0 1 0 2.94 13.1 13.1 0 0 1-.26 1.47.9.9 0 0 1-.83.7l-2.86.26a12.2 12.2 0 0 1-.45 1.08l1.87 2.25c.24.32.26.75.04 1.07-.26.4-.54.8-.84 1.2a13.03 13.03 0 0 1-3.32 2.96.9.9 0 0 1-1.05-.08l-2.25-1.86c-.17.08-.35.16-.52.23l-.05.02c-.16.07-.32.13-.48.2l-.28 2.9a.9.9 0 0 1-.7.8C17 29.88 16 30 15 30c-.98 0-1.98-.1-2.95-.34a.9.9 0 0 1-.7-.84l-.26-2.86a11.16 11.16 0 0 1-.56-.2l-.04-.03a11.73 11.73 0 0 1-.48-.2l-2.25 1.85a.9.9 0 0 1-1.07.06 13.13 13.13 0 0 1-2.3-1.83 13.33 13.33 0 0 1-1.85-2.32.9.9 0 0 1 .07-1.05l1.86-2.25a12.35 12.35 0 0 1-.24-.52v-.05c-.08-.16-.14-.32-.2-.48l-2.9-.28a.9.9 0 0 1-.8-.7A12.94 12.94 0 0 1 .1 16.5a13 13 0 0 1 .24-4.43.9.9 0 0 1 .84-.7l2.86-.27c.06-.18.13-.36.2-.54.08-.18.16-.35.24-.52L2.62 7.77a.9.9 0 0 1-.06-1.08 13.12 13.12 0 0 1 4.16-4.16.9.9 0 0 1 1.05.07l2.25 1.88c.17-.08.35-.16.52-.24l.06-.02c.16-.06.32-.13.5-.2l.26-2.9a.9.9 0 0 1 .7-.78 13.1 13.1 0 0 1 5.9 0c.4.1.67.44.7.83"/></svg>