<svg xmlns="http://www.w3.org/2000/svg" width="13" height="14"><g fill="#FFF" fill-rule="evenodd"><path d="M3.7 3.2h5.46V.7H3.7V3.2zm8.14 0H9.88V0h-6.9v3.2H1.03C.46 3.2 0 3.64 0 4.2v4.94c0 .57.46 1.03 1.03 1.03H2.1v-.73H1.04a.3.3 0 0 1-.3-.3V4.2c0-.17.13-.3.3-.3h10.8c.18 0 .32.13.32.3v4.94a.3.3 0 0 1-.3.3h-1.08v.73h1.07c.57 0 1.03-.47 1.03-1.04V4.22c0-.57-.46-1.03-1.03-1.03zM3.6 12.88h5.57V7.73H3.6v5.15zM10.8 7H2v.72h.9v5.88h7V7.72h.9V7zM7.36 10.72h-3a.36.36 0 0 1 0-.72h3a.36.36 0 0 1 0 .72m0 1h-3a.36.36 0 0 1 0-.72h3a.36.36 0 0 1 0 .72"/></g></svg>