<svg xmlns="http://www.w3.org/2000/svg" width="20" height="20"><g fill="#41B505" fill-rule="evenodd"><path fill-rule="nonzero" d="M17.24 7.24a7.24 7.24 0 1 0-14.48 0 .7.7 0 0 0 1.38 0 5.86 5.86 0 0 1 11.72 0 .7.7 0 1 0 1.38 0zM1.38 9.65v2.76c0 .4.3.7.7.7.37 0 .68-.3.68-.68V9.64a.7.7 0 0 0-.7-.68.7.7 0 0 0-.68.68zM0 9.65C0 8.5.92 7.6 2.07 7.6c1.14 0 2.07.9 2.07 2.05v2.76a2.06 2.06 0 0 1-2.07 2.08A2.06 2.06 0 0 1 0 12.4V9.66zm17.24 0v2.76c0 .4.3.7.7.7.37 0 .68-.3.68-.68V9.64a.7.7 0 0 0-.7-.68.7.7 0 0 0-.68.68zm-1.38 0c0-1.14.93-2.06 2.07-2.06 1.15 0 2.07.9 2.07 2.05v2.76a2.06 2.06 0 0 1-2.07 2.08 2.06 2.06 0 0 1-2.07-2.07V9.66zM15.86 11.03V15a2.24 2.24 0 0 1-2.24 2.24h-2.4a.7.7 0 1 0-.02 1.38h2.42a3.62 3.62 0 0 0 3.62-3.6v-4a.7.7 0 1 0-1.38 0zm-11.72.35v-4.2a.7.7 0 1 0-1.38 0v4.2a.7.7 0 1 0 1.38 0zM17.24 11.38v-4.2a.7.7 0 1 0-1.38 0v4.2a.7.7 0 1 0 1.38 0z"/><circle cx="7.586" cy="10.345" r="1.379"/><circle cx="10.345" cy="17.931" r="2.069"/><circle cx="13.103" cy="10.345" r="1.379"/></g></svg>