<svg xmlns="http://www.w3.org/2000/svg" width="17" height="16" xmlns:xlink="http://www.w3.org/1999/xlink"><defs><path id="a" d="M16.08 0H0v15.9h16.08V0z"/></defs><g fill="none"><mask id="b"><use xlink:href="#a"/></mask><path fill="#FFF" d="M3.22 14.6a1.23 1.23 0 0 1-.87.35c-.3 0-.63-.12-.86-.35a1.22 1.22 0 0 1-.37-.87c0-.32.12-.63.36-.87L9.4 4.92a.48.48 0 0 0 .13-.45 2.85 2.85 0 0 1 .02-1.45c.12-.44.36-.86.7-1.2l.03-.03a2.8 2.8 0 0 1 1.92-.84l-.34.35-.64.65a.48.48 0 0 0-.13.46l.25.9.23.85a.48.48 0 0 0 .34.35l.88.23.84.23a.48.48 0 0 0 .5-.1l.63-.66.35-.34a2.8 2.8 0 0 1-.83 1.93 2.82 2.82 0 0 1-2.66.74.48.48 0 0 0-.48.12L3.22 14.6zm8.48-4.08l2.34 2.34c.24.23.36.55.36.87 0 .3-.12.63-.36.86v.02a1.23 1.23 0 0 1-.86.33c-.32 0-.63-.12-.87-.35l-2.33-2.34.8-.8c.03-.03.06-.04.08-.06.02-.02.03-.05.05-.08l.8-.8zm-9.63-6.9l-1-1.63.54-.54 1.63 1L2.07 3.6zm9.6 3.9a3.8 3.8 0 0 0 1.64-.1 3.77 3.77 0 0 0 1.67-.96c.5-.5.83-1.1 1-1.74a3.8 3.8 0 0 0-.05-2.02.48.48 0 0 0-.8-.2L14.1 3.53l-.45.44-.6-.16-.62-.15-.16-.6-.16-.62.45-.44L13.58.95a.48.48 0 0 0-.22-.8 3.8 3.8 0 0 0-2-.04A3.77 3.77 0 0 0 9.6 1.14a3.77 3.77 0 0 0-1.04 3.28l-2 2-2.98-2.96.76-.76a.48.48 0 0 0-.1-.75L1.82.47a.48.48 0 0 0-.6.05L.14 1.58a.48.48 0 0 0-.07.58L1.55 4.6a.48.48 0 0 0 .77.12l.6-.6 2.96 3L.8 12.17a2.18 2.18 0 0 0-.63 1.55 2.18 2.18 0 0 0 2.18 2.18c.56 0 1.13-.2 1.55-.63l5.07-5.07.85.85-.87.87a.48.48 0 0 0 0 .67l2.68 2.67c.42.43.98.64 1.55.64a2.18 2.18 0 0 0 1.54-.63 2.18 2.18 0 0 0 .64-1.54c0-.56-.2-1.13-.64-1.55L12.04 9.5a.48.48 0 0 0-.67 0l-.87.87-.85-.85 2-2z" mask="url(#b)"/></g></svg>