<svg xmlns="http://www.w3.org/2000/svg" width="22" height="22"><path fill="#e75a25" fill-rule="evenodd" d="M7.57 16.33a1.35 1.35 0 1 1 0-1.9 1.35 1.35 0 0 1 0 1.9zM4.75 13.5a2.65 2.65 0 0 0 0 3.75 2.65 2.65 0 0 0 3.74 0 2.65 2.65 0 0 0 0-3.74 2.64 2.64 0 0 0-3.75 0zM17.93 2.8a.56.56 0 0 1 0 .78l-5.76 5.77a.56.56 0 1 1-.78-.8l5.75-5.75a.56.56 0 0 1 .8 0zm2.72 1.8l-2.15.3a.65.65 0 0 0-.56.62l-.06 1.87-1.93.1a.65.65 0 0 0-.6.62l-.12 2.25-.5.5-1 .98c.2.47.32.96.4 1.45a6.45 6.45 0 0 1-1.8 5.52c-2.53 2.52-6.63 2.52-9.15 0a6.47 6.47 0 0 1 0-9.14 6.44 6.44 0 0 1 5.52-1.8 6.45 6.45 0 0 1 1.45.37l.97-.97 5.96-5.96 3.34.3.24 2.98zm.42-4.22L16.9 0a.65.65 0 0 0-.52.2l-6.6 6.58c-2.6-.7-5.48-.05-7.5 2-3.04 3-3.04 7.93 0 10.95 3 3.03 7.93 3.03 10.95 0 2.04-2.03 2.7-4.93 2-7.53l1.1-1.1a.65.65 0 0 0 .18-.42l.1-1.92 1.95-.12a.65.65 0 0 0 .6-.62l.06-1.9 2.24-.32a.64.64 0 0 0 .55-.7L21.65.98a.65.65 0 0 0-.6-.6z"/></svg>