<svg xmlns="http://www.w3.org/2000/svg" width="24" height="28"><path fill="#e75a25" fill-rule="evenodd" d="M20 16.22H3.03c-.35 0-.63.07-.84.18a1 1 0 0 0-.42.44 1.66 1.66 0 0 0-.16.74c0 .47.14.97.4 1.45.86 1.6 2.4 3.15 4.12 4.32 1.75 1.2 3.65 2 5.16 2.06h.44c1.5-.06 3.4-.85 5.16-2.05 1.7-1.17 3.26-2.72 4.12-4.33.26-.47.4-.98.4-1.44 0-.28-.06-.54-.16-.74a1 1 0 0 0-.43-.44c-.2-.1-.48-.18-.84-.18zM3.03 14.6H20c.62 0 1.16.14 1.6.37.5.27.86.67 1.1 1.14.23.45.33.96.33 1.48 0 .72-.2 1.5-.58 2.2-1 1.85-2.73 3.6-4.64 4.9-1.98 1.36-4.2 2.27-6 2.34h-.56c-1.82-.07-4.03-.98-6-2.33-1.93-1.32-3.66-3.06-4.65-4.9-.4-.72-.6-1.5-.6-2.22 0-.52.1-1.03.33-1.47.24-.46.6-.86 1.1-1.13.45-.23.98-.37 1.6-.37zM15.2 3.15a5.2 5.2 0 0 0-3.68-1.53c-1.45 0-2.75.58-3.7 1.53a5.2 5.2 0 0 0-1.53 3.7c0 1.43.58 2.74 1.53 3.68a5.2 5.2 0 0 0 3.7 1.53 5.2 5.2 0 0 0 3.68-1.53 5.2 5.2 0 0 0 1.54-3.7 5.2 5.2 0 0 0-1.53-3.68zM11.53 0a6.82 6.82 0 0 1 4.83 2 6.82 6.82 0 0 1 2 4.84c0 1.9-.76 3.6-2 4.84a6.82 6.82 0 0 1-4.83 2 6.82 6.82 0 0 1-4.84-2 6.82 6.82 0 0 1-2-4.84c0-1.9.76-3.6 2-4.83a6.82 6.82 0 0 1 4.84-2z"/></svg>