<svg xmlns="http://www.w3.org/2000/svg" width="25" height="24"><path fill="#e75a25" fill-rule="evenodd" d="M22 12.28l-9.85-8.75-9.85 8.75-1-1.12 10.85-9.63L23 11.16l-1 1.12zm-3 9.94H5.3V11.36l6.85-6.1 6.86 6.1v10.86zM5.3 1.3h1.88v2.9l-1.9 1.68V1.3zM13 .55a1.3 1.3 0 0 0-1.7 0l-2.82 2.5V.65A.65.65 0 0 0 7.83 0h-3.2A.65.65 0 0 0 4 .65v6.38L.43 10.2A1.3 1.3 0 0 0 .34 12l.98 1.12a1.3 1.3 0 0 0 1.84.1l.83-.73v10.37c0 .36.28.65.64.65h15.02a.65.65 0 0 0 .65-.65V12.5l.84.75a1.3 1.3 0 0 0 1.83-.1l1-1.13a1.3 1.3 0 0 0-.1-1.83L13 .53z"/></svg>