<svg xmlns="http://www.w3.org/2000/svg" width="17" height="24"><path fill="#e75a25" fill-rule="evenodd" d="M4 5.77h4.4c.86 0 .86-1.28 0-1.28H4c-.86 0-.86 1.27 0 1.27zm4.4 10.2H4c-.86 0-.86 1.3 0 1.3h4.4c.86 0 .86-1.3 0-1.3zm4.42-2.43H4c-.86 0-.86 1.3 0 1.3h8.82c.85 0 .85-1.3 0-1.3zm0-2.44H4c-.86 0-.86 1.3 0 1.3h8.82c.85 0 .85-1.3 0-1.3zm2.7 11.02V6.74h-3.98a1.48 1.48 0 0 1-1.47-1.48V1.28h-8.6a.2.2 0 0 0-.2.2v20.64c0 .1.1.2.2.2h13.86a.2.2 0 0 0 .2-.2zM11.36 5.26a.2.2 0 0 0 .2.2h3.07L11.35 2.2v3.06zm5.46.84v16.02a1.5 1.5 0 0 1-1.47 1.47H1.48c-.8 0-1.48-.67-1.48-1.5V1.5C0 .68.67 0 1.48 0h9.23c.02 0 .03 0 .04 0a.6.6 0 0 1 .18.04c.02 0 .03 0 .04.02a.64.64 0 0 1 .2.13l5.46 5.45c.06.06.1.12.13.2 0 0 0 .02.02.04a.61.61 0 0 1 .03.17s0 .02 0 .03zm-3.98 3.85H4c-.86 0-.86-1.28 0-1.28h8.82c.85 0 .85 1.28 0 1.28z"/></svg>