<svg xmlns="http://www.w3.org/2000/svg" width="42" height="43"><path fill="#e75a24" d="M17.5 11.9c.4-.42.4-.98 0-1.4l-6.9-6.9c-.42-.4-.98-.4-1.4 0L5.7 7.1l8.3 8.3 3.5-3.5zm-2.36 15.96a1 1 0 0 1-.05-.05c-4.33-4.32-4.82-8-2.8-10.7.08-.1.17-.22.26-.32L4.33 8.54a8.63 8.63 0 0 0-.67.97c-1.2 2.04-1.7 4.57-1.12 7.63.82 4.2 3.65 8.95 8.97 14.26.02 0 .04.03.05.05.02 0 .04.03.06.04 5.32 5.3 10.08 8.14 14.27 8.96 3.06.6 5.6.08 7.62-1.12a8.63 8.63 0 0 0 .96-.67l-8.24-8.23c-.1.1-.2.18-.33.27-2.7 2.02-6.38 1.54-10.7-2.8a1 1 0 0 1-.06-.04zm1.4-1.4c.03 0 .05.02.07.03 3.66 3.65 6.24 4 8.1 2.6.34-.25.56-.5.66-.64a1 1 0 0 1 .15-.18l4.2-4.2c1.18-1.18 3.02-1.18 4.2 0l6.9 6.9c1.2 1.2 1.2 3.04 0 4.23l-4.17 4.18c-.4.45-1.1 1.07-2.12 1.68-6 3.56-14.2 1.96-24.3-8.15a1 1 0 0 1-.06-.05 1 1 0 0 1-.05-.04C-.03 22.7-1.63 14.5 1.93 8.5c.6-1.03 1.23-1.74 1.68-2.13L7.8 2.2C8.97 1 10.8 1 12 2.2l6.9 6.9c1.2 1.18 1.2 3.02 0 4.2l-4.18 4.2a1 1 0 0 1-.18.14 3.13 3.13 0 0 0-.65.67c-1.4 1.86-1.05 4.43 2.6 8.1.02 0 .04.03.06.05zm19.36 10.82l3.5-3.5c.4-.4.4-.96 0-1.37l-6.9-6.9c-.42-.4-.98-.4-1.4 0L27.6 29l8.3 8.3zM24.17 2.7a1 1 0 1 1-.3-1.98c4.05-.6 9.08 1.55 12.72 5.2 3.75 3.75 5.9 8.98 5.1 13.06a1 1 0 0 1-1.97-.4c.67-3.33-1.23-7.93-4.55-11.25-3.23-3.23-7.66-5.14-11-4.63zm.63 5.94a1 1 0 0 1-.33-1.98c2.56-.42 5.84 1 8.1 3.27 2.4 2.4 3.8 5.7 3.27 8.34a1 1 0 1 1-1.96-.4c.38-1.9-.75-4.56-2.7-6.52-1.87-1.85-4.55-3.02-6.38-2.7z"/></svg>