<?xml version="1.0" encoding="UTF-8"?>
<svg width="21px" height="21px" viewBox="0 0 21 21" version="1.1" xmlns="http://www.w3.org/2000/svg" xmlns:xlink="http://www.w3.org/1999/xlink">
    <!-- Generator: sketchtool 49.1 (51147) - http://www.bohemiancoding.com/sketch -->
    <title>C30ECE0E-C94F-47CF-A271-330B5219569E</title>
    <desc>Created with sketchtool.</desc>
    <defs></defs>
    <g id="Home" stroke="none" stroke-width="1" fill="none" fill-rule="evenodd">
        <g id="desktop" transform="translate(-1129.000000, -256.000000)" fill="#FFFFFF">
            <g id="mouseover-atendimento" transform="translate(1104.000000, 100.000000)">
                <g id="Group-13" transform="translate(20.000000, 151.000000)">
                    <path d="M15.5,25.9903403 C9.70101013,25.9903403 5,21.2914925 5,15.4951701 C5,9.69884772 9.70101013,5 15.5,5 C21.2989899,5 26,9.69884772 26,15.4951701 C26,17.0779754 25.6494572,18.5789446 25.0217372,19.924746 L25.9429307,24.3325229 C26.1803374,25.4684794 25.4558395,26.194747 24.320843,25.9538645 L19.9171418,25.0192582 C18.5744363,25.642464 17.0778623,25.9903403 15.5,25.9903403 Z M19.6680632,22.820567 L23.6598953,23.6736248 L22.8232845,19.6705639 L23.1184224,19.0378024 C23.6309454,17.9389779 23.9,16.7381701 23.9,15.4951701 C23.9,10.8581122 20.1391919,7.09903403 15.5,7.09903403 C10.8608081,7.09903403 7.1,10.8581122 7.1,15.4951701 C7.1,20.1322281 10.8608081,23.8913062 15.5,23.8913062 C16.7391877,23.8913062 17.9364699,23.6242719 19.0326988,23.1154662 L19.6680632,22.820567 Z M12.875,15.4951701 C12.0051515,15.4951701 11.3,14.790343 11.3,13.9208946 C11.3,13.0514462 12.0051515,12.3466191 12.875,12.3466191 C13.7448485,12.3466191 14.45,13.0514462 14.45,13.9208946 C14.45,14.790343 13.7448485,15.4951701 12.875,15.4951701 Z M18.125,15.4951701 C17.2551515,15.4951701 16.55,14.790343 16.55,13.9208946 C16.55,13.0514462 17.2551515,12.3466191 18.125,12.3466191 C18.9948485,12.3466191 19.7,13.0514462 19.7,13.9208946 C19.7,14.790343 18.9948485,15.4951701 18.125,15.4951701 Z M15.5,20.7427552 C13.6762521,20.7427552 11.9535598,20.0749802 10.618,18.8881122 C10.1846183,18.5029803 10.1456479,17.8396055 10.5309571,17.4064232 C10.9162663,16.9732409 11.5799464,16.9342884 12.013328,17.3194204 C12.9680709,18.1678689 14.1956507,18.6437212 15.5,18.6437212 C16.8222557,18.6437212 18.0654629,18.1546174 19.0250182,17.2850075 C19.4546237,16.8956717 20.1186521,16.9281565 20.508167,17.3575645 C20.897682,17.7869724 20.8651822,18.4506953 20.4355767,18.8400311 C19.0933819,20.0564133 17.3488334,20.7427552 15.5,20.7427552 Z" id="ligamos"></path>
                </g>
            </g>
        </g>
    </g>
</svg>