<?xml version="1.0" encoding="UTF-8"?>
<svg width="166px" height="82px" viewBox="0 0 166 82" version="1.1" xmlns="http://www.w3.org/2000/svg" xmlns:xlink="http://www.w3.org/1999/xlink">
    <!-- Generator: Sketch 50.2 (55047) - http://www.bohemiancoding.com/sketch -->
    <title>logo-nestle</title>
    <desc>Created with Sketch.</desc>
    <defs></defs>
    <g id="Produto" stroke="none" stroke-width="1" fill="none" fill-rule="evenodd">
        <g id="Desktop" transform="translate(-1154.000000, -965.000000)" fill="#FFFFFF">
            <g id="o-que-é" transform="translate(0.000000, 915.000000)">
                <g id="logo-nestle" transform="translate(1154.000000, 46.000000)">
                    <text id="Produto" font-family="ProximaSoft-Bold, Proxima Soft" font-size="24" font-weight="bold" line-spacing="28">
                        <tspan x="39" y="24">Produto</tspan>
                    </text>
                    <path d="M130.75512,44.0588084 C130.75512,42.7533022 129.595422,41.5924701 128.144108,41.5924701 L124.515822,41.5924701 C123.064508,41.5924701 121.903676,42.7533022 121.903676,44.0588084 L122.049483,82.9526878 C122.049483,84.2582041 123.064508,85.419026 124.515822,85.419026 L128.144108,85.419026 C129.595422,85.419026 130.75512,84.2582041 130.75512,82.9526878 L130.75512,44.0588084 Z M135.400678,45.2196404 L135.400678,46.9614389 C135.400678,47.8306554 135.981652,48.4116268 136.851992,48.4116268 L162.392425,48.4116268 C163.554383,48.4116268 164.569407,47.3977285 164.569407,46.2369041 L164.569407,43.1873525 C164.569407,42.0265204 163.554383,40.8656985 162.392425,41.0126222 C162.392425,41.0126222 137.721208,43.4789604 136.851992,43.6236447 C135.980528,43.6236447 135.400678,44.348177 135.400678,45.2196404 Z M114.647103,85.419026 C108.261997,85.419026 104.343221,80.6299179 104.343221,75.2609517 L104.343221,59.7316592 L102.455618,59.7316592 C101.585275,59.7316592 100.713811,58.8601932 100.713811,57.9898532 L100.713811,55.3765913 C100.713811,54.362693 101.584151,53.6347954 102.455618,53.6347954 L104.343221,53.6347954 L104.343221,44.0576849 C104.343221,42.7521787 105.358245,41.5913568 106.809559,41.5913568 L110.437846,41.5913568 C111.743352,41.5913568 112.7595,42.7521787 112.7595,44.0576849 L112.7595,53.6347954 L118.418948,53.6347954 C119.435098,53.6347954 120.160754,54.361567 120.160754,55.3765913 L120.160754,57.9898532 C120.160754,58.8590798 119.436222,59.7316592 118.418948,59.7316592 L112.7595,59.7316592 L112.7595,74.1001197 C112.7595,76.855824 114.501295,78.8892354 117.548608,78.8892354 L118.129582,78.8892354 C119.145729,78.8892354 120.017195,79.6137702 120.017195,80.7757156 L120.017195,83.5336617 C120.017195,84.5498095 119.146853,85.4201495 118.129582,85.4201495 L114.647103,85.4201495 L114.647103,85.4191351 L114.647103,85.419026 Z M71.1099159,69.0205195 C71.1099159,60.7489228 66.176121,52.4773262 55.0007754,52.4773262 C44.6968934,52.4773262 39.0374402,60.6019992 39.0374402,69.0205195 C39.0374402,78.0166459 45.1320621,86 55.1454597,86 C61.9668608,86 68.6424593,82.5175216 69.947968,76.5675814 C70.0926497,75.8430492 69.5127967,74.6810911 68.496654,74.6810911 L63.5628591,74.6810911 C62.6925191,74.6810911 61.9668608,75.115144 61.5305686,75.8419232 C60.0792546,77.8730876 58.0480877,78.8892354 55.1454597,78.8892354 C50.7915153,78.8892354 47.8888873,75.5503178 47.5984003,71.7784632 L68.3508488,71.7784632 C70.2395785,71.7784632 71.1099159,70.7623255 71.1099159,69.0205195 Z M47.7442056,65.5380411 C48.0346926,61.9108784 51.2266865,59.1529246 55.0007754,59.1529246 C58.9195486,59.1529246 62.1115451,61.9108784 62.5478348,65.5380411 L47.7442056,65.5380411 Z M165.440863,69.0205195 C165.440863,60.7489228 160.507071,52.4773262 149.331722,52.4773262 C139.027838,52.4773262 133.369506,60.6019992 133.369506,69.0205195 C133.369506,78.0166459 139.465254,86 149.47753,86 C156.298926,86 162.973409,82.5175216 164.280039,76.5675814 C164.425839,75.8430492 163.843741,74.6810911 162.828725,74.6810911 L157.894925,74.6810911 C157.024582,74.6810911 156.298926,75.115144 155.862637,75.8419232 C154.411323,77.8730876 152.380158,78.8892354 149.331722,78.8892354 C145.123588,78.8892354 142.220958,75.5503178 141.930468,71.7784632 L162.684043,71.7784632 C164.57052,71.7784632 165.440863,70.7623255 165.440863,69.0205195 Z M142.076276,65.5380411 C142.365642,61.9108784 145.557629,59.1529246 149.331722,59.1529246 C153.250498,59.1529246 156.443611,61.9108784 156.7341,65.5380411 L142.076276,65.5380411 Z M97.3771409,42.0265204 L30.3295538,42.0265204 C28.7335581,42.0265204 27.5727286,43.3342762 27.5727286,44.7844666 L27.7174129,71.1986152 C27.7174129,71.1986152 13.3500733,45.076072 12.6244176,43.7683265 C11.8998803,42.4628127 10.3027637,41.3019882 8.27159667,41.3019882 L2.75682524,41.3019882 C1.16082699,41.3019882 0,42.6097439 0,44.0599344 L0,82.6622059 C0,84.2593175 1.16082699,85.4201495 2.75682524,85.4201495 L6.23930619,85.4201495 C7.83530445,85.4201495 8.99725239,84.2593175 8.99725239,82.6622059 L8.85257064,55.6704462 C8.85257064,55.6704462 23.3645919,81.9376635 24.0902476,82.9538113 C24.8159059,84.4040017 26.2672199,85.4201495 28.2983868,85.4201495 L33.377987,85.4201495 C34.9739853,85.4201495 36.1348122,84.2593175 36.1348122,82.6622059 L36.1348122,48.5596841 L97.3771409,48.5596841 C98.392155,48.5596841 99.263621,47.6882181 99.263621,46.6731938 L99.263621,43.9152501 C99.263621,42.8979865 98.393281,42.0265204 97.3771409,42.0265204 Z M86.4922747,58.8601932 C89.3949026,58.8601932 91.5718748,59.8763435 92.4433383,61.7628236 C92.7338304,62.6342871 93.4583626,62.7789714 94.4756263,62.7789714 L98.5390888,62.7789714 C99.1200602,62.7789714 99.9904028,62.1979974 99.9904028,61.3287809 C99.9904028,56.684347 94.3298286,52.4762128 86.4933982,52.4762128 C78.3664883,52.4762128 72.9975221,56.3927416 72.9975221,62.4896054 C72.9975221,67.2787236 76.7704901,70.0366673 81.2691188,71.3421735 C83.4460885,71.7784632 87.0743721,72.6476898 88.8150547,73.2286638 C90.5568607,73.6649535 92.2975305,74.2448014 92.2975305,75.8419232 C92.2975305,78.4529457 89.6853947,79.178604 86.6380824,79.178604 C83.8801388,79.178604 81.1233135,78.0177719 80.3976553,75.9866074 C79.9624866,74.8257754 79.0910256,74.6810911 77.9301961,74.6810911 L73.8667412,74.6810911 C73.1410854,74.6810911 72.2707454,75.4056335 72.2707454,76.275976 L72.2707454,76.8569474 C72.2707454,81.3566895 78.3664883,86 86.7827667,86 C92.5880226,86 100.860743,83.5336617 100.860743,75.6949919 C100.860743,71.0505681 97.8123071,67.8596951 92.7338304,66.5541813 C90.8462166,66.117889 86.2029162,64.8123828 85.1867685,64.6654516 C83.2991623,64.0844776 81.5584823,63.5046297 81.5584823,62.0544392 C81.5584823,59.5881009 83.7354545,58.8601932 86.4922747,58.8601932 Z" id="Combined-Shape"></path>
                </g>
            </g>
        </g>
    </g>
</svg>