<?xml version="1.0" encoding="UTF-8"?>
<svg width="267px" height="35px" viewBox="0 0 267 35" version="1.1" xmlns="http://www.w3.org/2000/svg" xmlns:xlink="http://www.w3.org/1999/xlink">
    <!-- Generator: Sketch 49.1 (51147) - http://www.bohemiancoding.com/sketch -->
    <title>Combined Shape</title>
    <desc>Created with Sketch.</desc>
    <defs></defs>
    <g id="Produto-Esgotado" stroke="none" stroke-width="1" fill="none" fill-rule="evenodd">
        <path d="M5,2 C3.34314575,2 2,3.34314575 2,5 L2,30 C2,31.6568542 3.34314575,33 5,33 L262,33 C263.656854,33 265,31.6568542 265,30 L265,5 C265,3.34314575 263.656854,2 262,2 L5,2 Z M5,0 L262,0 C264.761424,0 267,2.23857625 267,5 L267,30 C267,32.7614237 264.761424,35 262,35 L5,35 C2.23857625,35 0,32.7614237 0,30 L0,5 C0,2.23857625 2.23857625,0 5,0 Z M5,2 L37,2 L37,33 L5,33 C3.34314575,33 2,31.6568542 2,30 L2,5 C2,3.34314575 3.34314575,2 5,2 Z M21.8033009,16.9748737 L27.363961,22.5355339 C28.1450096,23.3165825 28.1450096,24.5829124 27.363961,25.363961 C26.5829124,26.1450096 25.3165825,26.1450096 24.5355339,25.363961 L18.9748737,19.8033009 L13.4142136,25.363961 C12.633165,26.1450096 11.366835,26.1450096 10.5857864,25.363961 C9.80473785,24.5829124 9.80473785,23.3165825 10.5857864,22.5355339 L16.1464466,16.9748737 L10.5857864,11.4142136 C9.80473785,10.633165 9.80473785,9.36683502 10.5857864,8.58578644 C11.366835,7.80473785 12.633165,7.80473785 13.4142136,8.58578644 L18.9748737,14.1464466 L24.5355339,8.58578644 C25.3165825,7.80473785 26.5829124,7.80473785 27.363961,8.58578644 C28.1450096,9.36683502 28.1450096,10.633165 27.363961,11.4142136 L21.8033009,16.9748737 Z M48.344,22.864 L48.344,14.032 C48.344,13.344 48.888,12.8 49.576,12.8 L52.92,12.8 C55.592,12.8 57.208,14.384 57.208,16.672 L57.208,16.704 C57.208,19.296 55.192,20.64 52.68,20.64 L50.808,20.64 L50.808,22.864 C50.808,23.552 50.264,24.096 49.576,24.096 C48.888,24.096 48.344,23.552 48.344,22.864 Z M50.808,18.448 L52.76,18.448 C53.992,18.448 54.712,17.712 54.712,16.752 L54.712,16.72 C54.712,15.616 53.944,15.024 52.712,15.024 L50.808,15.024 L50.808,18.448 Z M59.032,22.864 L59.032,14.032 C59.032,13.344 59.576,12.8 60.264,12.8 L64.152,12.8 C65.576,12.8 66.68,13.2 67.416,13.936 C68.04,14.56 68.376,15.44 68.376,16.496 L68.376,16.528 C68.376,18.288 67.496,19.376 66.136,19.936 L67.848,22.016 C68.088,22.32 68.248,22.576 68.248,22.96 C68.248,23.648 67.672,24.096 67.08,24.096 C66.52,24.096 66.152,23.824 65.864,23.456 L63.464,20.416 L61.496,20.416 L61.496,22.864 C61.496,23.552 60.952,24.096 60.264,24.096 C59.576,24.096 59.032,23.552 59.032,22.864 Z M61.496,18.24 L63.992,18.24 C65.192,18.24 65.88,17.6 65.88,16.656 L65.88,16.624 C65.88,15.568 65.144,15.024 63.944,15.024 L61.496,15.024 L61.496,18.24 Z M76.04,24.192 C72.584,24.192 70.104,21.616 70.104,18.432 L70.104,18.4 C70.104,15.216 72.616,12.608 76.072,12.608 C79.528,12.608 82.008,15.184 82.008,18.368 L82.008,18.4 C82.008,21.584 79.496,24.192 76.04,24.192 Z M76.072,21.92 C78.056,21.92 79.432,20.352 79.432,18.432 L79.432,18.4 C79.432,16.48 78.024,14.88 76.04,14.88 C74.056,14.88 72.68,16.448 72.68,18.368 L72.68,18.4 C72.68,20.32 74.088,21.92 76.072,21.92 Z M84.2,22.768 L84.2,14.032 C84.2,13.344 84.744,12.8 85.432,12.8 L88.568,12.8 C92.088,12.8 94.52,15.216 94.52,18.368 L94.52,18.4 C94.52,21.552 92.088,24 88.568,24 L85.432,24 C84.744,24 84.2,23.456 84.2,22.768 Z M86.664,21.776 L88.568,21.776 C90.584,21.776 91.944,20.416 91.944,18.432 L91.944,18.4 C91.944,16.416 90.584,15.024 88.568,15.024 L86.664,15.024 L86.664,21.776 Z M101.384,24.176 C98.376,24.176 96.536,22.496 96.536,19.2 L96.536,13.936 C96.536,13.248 97.08,12.704 97.768,12.704 C98.456,12.704 99,13.248 99,13.936 L99,19.136 C99,20.96 99.912,21.904 101.416,21.904 C102.92,21.904 103.832,20.992 103.832,19.216 L103.832,13.936 C103.832,13.248 104.376,12.704 105.064,12.704 C105.752,12.704 106.296,13.248 106.296,13.936 L106.296,19.12 C106.296,22.512 104.392,24.176 101.384,24.176 Z M111.416,22.864 L111.416,15.072 L109.048,15.072 C108.424,15.072 107.912,14.56 107.912,13.936 C107.912,13.312 108.424,12.8 109.048,12.8 L116.248,12.8 C116.872,12.8 117.384,13.312 117.384,13.936 C117.384,14.56 116.872,15.072 116.248,15.072 L113.88,15.072 L113.88,22.864 C113.88,23.552 113.336,24.096 112.648,24.096 C111.96,24.096 111.416,23.552 111.416,22.864 Z M124.616,24.192 C121.16,24.192 118.68,21.616 118.68,18.432 L118.68,18.4 C118.68,15.216 121.192,12.608 124.648,12.608 C128.104,12.608 130.584,15.184 130.584,18.368 L130.584,18.4 C130.584,21.584 128.072,24.192 124.616,24.192 Z M124.648,21.92 C126.632,21.92 128.008,20.352 128.008,18.432 L128.008,18.4 C128.008,16.48 126.6,14.88 124.616,14.88 C122.632,14.88 121.256,16.448 121.256,18.368 L121.256,18.4 C121.256,20.32 122.664,21.92 124.648,21.92 Z M137.688,22.864 L137.688,13.936 C137.688,13.248 138.232,12.704 138.92,12.704 C139.608,12.704 140.152,13.248 140.152,13.936 L140.152,22.864 C140.152,23.552 139.608,24.096 138.92,24.096 C138.232,24.096 137.688,23.552 137.688,22.864 Z M142.952,22.88 L142.952,13.968 C142.952,13.28 143.496,12.736 144.184,12.736 L144.44,12.736 C145.032,12.736 145.384,13.024 145.72,13.456 L150.472,19.696 L150.472,13.92 C150.472,13.248 151.016,12.704 151.688,12.704 C152.36,12.704 152.904,13.248 152.904,13.92 L152.904,22.832 C152.904,23.52 152.36,24.064 151.672,24.064 L151.592,24.064 C151,24.064 150.648,23.776 150.312,23.344 L145.384,16.88 L145.384,22.88 C145.384,23.552 144.84,24.096 144.168,24.096 C143.496,24.096 142.952,23.552 142.952,22.88 Z M155.592,22.768 L155.592,14.032 C155.592,13.344 156.136,12.8 156.824,12.8 L159.96,12.8 C163.48,12.8 165.912,15.216 165.912,18.368 L165.912,18.4 C165.912,21.552 163.48,24 159.96,24 L156.824,24 C156.136,24 155.592,23.456 155.592,22.768 Z M158.056,21.776 L159.96,21.776 C161.976,21.776 163.336,20.416 163.336,18.432 L163.336,18.4 C163.336,16.416 161.976,15.024 159.96,15.024 L158.056,15.024 L158.056,21.776 Z M168.216,22.864 L168.216,13.936 C168.216,13.248 168.76,12.704 169.448,12.704 C170.136,12.704 170.68,13.248 170.68,13.936 L170.68,22.864 C170.68,23.552 170.136,24.096 169.448,24.096 C168.76,24.096 168.216,23.552 168.216,22.864 Z M177.464,24.16 C175.992,24.16 174.504,23.712 173.256,22.816 C172.984,22.624 172.792,22.272 172.792,21.888 C172.792,21.248 173.304,20.752 173.944,20.752 C174.264,20.752 174.488,20.864 174.648,20.976 C175.496,21.6 176.424,21.984 177.512,21.984 C178.52,21.984 179.128,21.584 179.128,20.928 L179.128,20.896 C179.128,20.272 178.744,19.952 176.872,19.472 C174.616,18.896 173.16,18.272 173.16,16.048 L173.16,16.016 C173.16,13.984 174.792,12.64 177.08,12.64 C178.44,12.64 179.624,12.992 180.632,13.632 C180.904,13.792 181.176,14.128 181.176,14.608 C181.176,15.248 180.664,15.744 180.024,15.744 C179.784,15.744 179.592,15.68 179.4,15.568 C178.584,15.088 177.816,14.816 177.048,14.816 C176.104,14.816 175.608,15.248 175.608,15.792 L175.608,15.824 C175.608,16.56 176.088,16.8 178.024,17.296 C180.296,17.888 181.576,18.704 181.576,20.656 L181.576,20.688 C181.576,22.912 179.88,24.16 177.464,24.16 Z M183.72,22.864 L183.72,14.032 C183.72,13.344 184.264,12.8 184.952,12.8 L188.296,12.8 C190.968,12.8 192.584,14.384 192.584,16.672 L192.584,16.704 C192.584,19.296 190.568,20.64 188.056,20.64 L186.184,20.64 L186.184,22.864 C186.184,23.552 185.64,24.096 184.952,24.096 C184.264,24.096 183.72,23.552 183.72,22.864 Z M186.184,18.448 L188.136,18.448 C189.368,18.448 190.088,17.712 190.088,16.752 L190.088,16.72 C190.088,15.616 189.32,15.024 188.088,15.024 L186.184,15.024 L186.184,18.448 Z M199.848,24.192 C196.392,24.192 193.912,21.616 193.912,18.432 L193.912,18.4 C193.912,15.216 196.424,12.608 199.88,12.608 C203.336,12.608 205.816,15.184 205.816,18.368 L205.816,18.4 C205.816,21.584 203.304,24.192 199.848,24.192 Z M199.88,21.92 C201.864,21.92 203.24,20.352 203.24,18.432 L203.24,18.4 C203.24,16.48 201.832,14.88 199.848,14.88 C197.864,14.88 196.488,16.448 196.488,18.368 L196.488,18.4 C196.488,20.32 197.896,21.92 199.88,21.92 Z M208.008,22.88 L208.008,13.968 C208.008,13.28 208.552,12.736 209.24,12.736 L209.496,12.736 C210.088,12.736 210.44,13.024 210.776,13.456 L215.528,19.696 L215.528,13.92 C215.528,13.248 216.072,12.704 216.744,12.704 C217.416,12.704 217.96,13.248 217.96,13.92 L217.96,22.832 C217.96,23.52 217.416,24.064 216.728,24.064 L216.648,24.064 C216.056,24.064 215.704,23.776 215.368,23.344 L210.44,16.88 L210.44,22.88 C210.44,23.552 209.896,24.096 209.224,24.096 C208.552,24.096 208.008,23.552 208.008,22.88 Z M220.76,22.864 L220.76,13.936 C220.76,13.248 221.304,12.704 221.992,12.704 C222.68,12.704 223.224,13.248 223.224,13.936 L223.224,22.864 C223.224,23.552 222.68,24.096 221.992,24.096 C221.304,24.096 220.76,23.552 220.76,22.864 Z M221.928,12.016 C221.576,12.016 221.32,11.856 221.32,11.6 C221.32,11.456 221.4,11.296 221.48,11.168 L222.36,9.792 C222.568,9.456 222.872,9.248 223.272,9.248 C223.864,9.248 224.632,9.616 224.632,9.984 C224.632,10.208 224.504,10.384 224.312,10.56 L223.32,11.488 C222.856,11.92 222.472,12.016 221.928,12.016 Z M230.408,24.176 C229.736,24.176 229.272,23.808 229.016,23.2 L225.384,14.512 C225.304,14.32 225.24,14.128 225.24,13.92 C225.24,13.232 225.784,12.704 226.472,12.704 C227.112,12.704 227.528,13.072 227.72,13.568 L230.52,20.816 L233.352,13.488 C233.512,13.088 233.944,12.704 234.536,12.704 C235.208,12.704 235.752,13.216 235.752,13.888 C235.752,14.08 235.688,14.288 235.624,14.432 L231.96,23.2 C231.704,23.808 231.24,24.176 230.568,24.176 L230.408,24.176 Z M238.872,24 C238.184,24 237.64,23.456 237.64,22.768 L237.64,14.032 C237.64,13.344 238.184,12.8 238.872,12.8 L245.08,12.8 C245.688,12.8 246.184,13.296 246.184,13.904 C246.184,14.512 245.688,14.992 245.08,14.992 L240.088,14.992 L240.088,17.264 L244.36,17.264 C244.968,17.264 245.464,17.76 245.464,18.368 C245.464,18.976 244.968,19.456 244.36,19.456 L240.088,19.456 L240.088,21.808 L245.16,21.808 C245.768,21.808 246.264,22.304 246.264,22.912 C246.264,23.52 245.768,24 245.16,24 L238.872,24 Z M248.36,22.768 L248.36,13.936 C248.36,13.248 248.904,12.704 249.592,12.704 C250.28,12.704 250.824,13.248 250.824,13.936 L250.824,21.76 L255.384,21.76 C256.008,21.76 256.504,22.256 256.504,22.88 C256.504,23.504 256.008,24 255.384,24 L249.592,24 C248.904,24 248.36,23.456 248.36,22.768 Z" id="Combined-Shape" fill="#E75924"></path>
    </g>
</svg>