<?xml version="1.0" encoding="UTF-8"?>
<svg width="100px" height="100px" viewBox="0 0 100 100" version="1.1" xmlns="http://www.w3.org/2000/svg" xmlns:xlink="http://www.w3.org/1999/xlink">
    <!-- Generator: Sketch 50.2 (55047) - http://www.bohemiancoding.com/sketch -->
    <title>sem-lactose</title>
    <desc>Created with Sketch.</desc>
    <defs>
        <linearGradient x1="0%" y1="100%" x2="100%" y2="100%" id="linearGradient-1">
            <stop stop-color="#F08325" offset="0%"></stop>
            <stop stop-color="#E75A25" offset="50.0908005%"></stop>
            <stop stop-color="#E42229" offset="100%"></stop>
        </linearGradient>
    </defs>
    <g id="Produto" stroke="none" stroke-width="1" fill="none" fill-rule="evenodd">
        <g id="Desktop" transform="translate(-348.000000, -550.000000)" fill="url(#linearGradient-1)">
            <g id="left" transform="translate(228.000000, 207.000000)">
                <path d="M130.338201,392.00613 L130.315243,392.00649 C129.762585,392.015414 129.343864,392.471344 129.35286,393.024002 C129.361785,393.57666 129.795044,394.018772 130.347701,394.009776 L130.370732,394.009416 C130.923389,394.000492 131.342039,393.544561 131.333115,392.991903 C131.324118,392.439317 130.890859,391.997133 130.338201,392.00613 Z M197.113255,370.626349 L199.793489,374.272783 C200.052509,374.625364 200.542409,374.708418 200.894918,374.449254 C201.247499,374.190161 201.323787,373.691121 201.064623,373.33854 L198.902861,370.397196 L200.266764,369.394725 L202.087533,371.872078 C202.346697,372.22466 202.836453,372.307713 203.188962,372.048549 C203.541686,371.789457 203.617831,371.290416 203.358667,370.937763 L201.537898,368.46041 L202.855453,367.492053 L204.983173,370.386904 C205.242265,370.739486 205.732093,370.822539 206.084674,370.563447 C206.437183,370.304283 206.513399,369.805243 206.254307,369.452589 L203.608259,365.852576 C203.315053,365.453646 202.767721,365.370017 202.368648,365.663295 L197.302608,369.386809 C196.903678,369.680015 196.820049,370.227419 197.113255,370.626349 Z M193.887704,364.081753 C193.552036,363.76638 193.039106,363.774225 192.723661,364.109893 C192.534452,364.311337 192.46169,364.590581 192.509766,364.825347 C192.722654,365.910296 193.282436,366.878581 194.05453,367.603967 C195.321778,368.794639 196.826382,368.975788 197.922413,367.809297 L197.938103,367.792528 C198.900126,366.768611 198.630814,365.709859 197.730901,364.279671 C196.959887,363.065464 196.826382,362.703023 197.189039,362.316976 L197.204801,362.300206 C197.472961,362.014845 197.94602,362.032694 198.441101,362.497908 C198.843917,362.876399 199.112725,363.397534 199.304165,364.051454 C199.349722,364.20475 199.418886,364.333 199.544833,364.451247 C199.880501,364.766692 200.393431,364.758775 200.708804,364.423107 C200.945369,364.171356 200.968327,363.861093 200.90449,363.643096 C200.691099,362.81069 200.243518,362.042554 199.530295,361.372369 C198.330195,360.244814 196.811773,360.145495 195.810526,361.2113 L195.794621,361.228069 C194.698662,362.394631 195.154879,363.43942 196.054288,364.853344 C196.799682,366.027607 196.843367,366.384722 196.53584,366.71197 L196.520078,366.728811 C196.196789,367.0729 195.680764,366.983081 195.152073,366.486344 C194.581423,365.950095 194.283827,365.291425 194.146652,364.546176 C194.117792,364.408641 194.055538,364.239439 193.887704,364.081753 Z M188.988563,361.714658 C190.20867,362.456381 191.641017,362.006569 192.358917,360.825756 L192.370864,360.806108 C193.088549,359.625368 192.820965,358.115005 191.600857,357.373281 C190.380678,356.631486 188.948331,357.081371 188.230503,358.262111 L188.218556,358.281831 C187.500655,359.462572 187.768455,360.972935 188.988563,361.714658 Z M192.469967,355.988002 C194.595313,357.280008 195.157326,359.791403 193.967015,361.749492 L193.955068,361.76914 C192.764684,363.727228 190.244799,364.392016 188.119453,363.099938 C185.994035,361.807859 185.431949,359.296537 186.622405,357.338448 L186.634352,357.318728 C187.824664,355.360639 190.344621,354.695924 192.469967,355.988002 Z M181.515487,353.013984 L183.120633,353.586721 L181.236027,358.868459 C181.06956,359.334825 181.306702,359.835233 181.773139,360.001627 C182.239361,360.168022 182.73984,359.930881 182.906235,359.464515 L184.790841,354.182705 L186.395916,354.755443 C186.819027,354.906364 187.289927,354.683185 187.440776,354.260145 C187.591769,353.837177 187.368518,353.366277 186.94555,353.215356 L182.065121,351.473897 C181.64201,351.322976 181.17111,351.546155 181.020261,351.969123 C180.869268,352.392163 181.092519,352.863063 181.515487,353.013984 Z M175.642879,358.493135 C176.918691,358.681409 177.817165,358.429873 178.627259,357.909314 C178.806896,357.796177 178.975594,357.599915 179.015897,357.326501 C179.081389,356.88223 178.759396,356.462212 178.315053,356.396648 C178.110082,356.366348 177.915979,356.419246 177.762467,356.512951 C177.202469,356.83768 176.679031,356.993207 175.938532,356.883957 C174.571606,356.682153 173.79433,355.403461 173.99599,354.036534 L173.999372,354.01372 C174.201104,352.646793 175.3342,351.673326 176.678311,351.871747 C177.30481,351.964157 177.787225,352.244912 178.223291,352.681698 C178.33686,352.779937 178.482743,352.894657 178.721971,352.929923 C179.2005,353.000525 179.643259,352.68177 179.713862,352.203385 C179.759203,351.895785 179.636782,351.621651 179.474705,351.458063 C178.886351,350.870716 178.12462,350.432346 176.928479,350.255804 C174.479268,349.89437 172.496567,351.498942 172.162051,353.765855 L172.158668,353.788597 C171.820697,356.078252 173.296298,358.146743 175.642879,358.493135 Z M166.663615,354.657995 L168.894037,354.532264 L167.629165,351.939327 L166.663615,354.657995 Z M156.929602,352.636429 C156.806461,352.156821 157.088296,351.680307 157.567904,351.557166 C158.047512,351.434097 158.524025,351.715932 158.647166,352.19554 L160.047126,357.649358 L163.225681,356.833434 C163.530905,356.755059 163.835482,356.858695 164.028794,357.077484 C164.03304,357.066041 164.037214,357.054598 164.041676,357.043227 L166.48988,350.550377 C166.660664,350.102508 167.002234,349.817938 167.485081,349.790733 L167.588573,349.784904 C168.07142,349.757699 168.431198,350.002685 168.651282,350.428532 L171.813428,356.605217 C171.878129,356.72843 171.91908,356.841423 171.925557,356.956431 C171.952114,357.427763 171.605579,357.827916 171.134247,357.854473 C170.72042,357.877791 170.430812,357.651949 170.249088,357.293107 L169.637487,356.058892 L166.096492,356.258465 L165.607671,357.612366 C165.477694,357.965667 165.190389,358.189422 164.822479,358.210221 C164.55986,358.224975 164.324518,358.117595 164.165825,357.937382 C164.070536,358.156387 163.878808,358.330123 163.626553,358.394824 L159.589109,359.431265 C159.109573,359.554333 158.632988,359.272499 158.509919,358.79289 L156.929602,352.636429 Z M148.061388,364.311841 C148.310907,364.726173 148.832474,364.855575 149.246805,364.606055 C149.660993,364.356535 149.800326,363.829066 149.550806,363.414735 L147.483253,359.982195 L150.013142,361.214035 C150.313544,361.355744 150.599841,361.384891 150.876062,361.218497 C151.152283,361.052174 151.260382,360.785381 151.275711,360.453599 L151.371575,357.599915 L153.444959,361.042386 C153.694479,361.456646 154.237852,361.599866 154.652111,361.350346 C155.076231,361.094852 155.209591,360.557524 154.95417,360.133332 L151.650891,354.649071 C151.395397,354.22488 150.858069,354.091519 150.433878,354.347013 L150.266188,354.448059 C149.96046,354.63223 149.820694,354.891106 149.817311,355.24268 L149.778879,359.352242 L146.144035,357.46857 C145.869326,357.324845 145.54143,357.293826 145.21591,357.489873 L145.048292,357.590919 C144.624101,357.84634 144.49074,358.383741 144.746234,358.80786 L148.061388,364.311841 Z M143.157208,368.868193 C143.497842,369.227611 144.051292,369.242437 144.41071,368.901875 L147.695492,365.78881 C148.013168,365.487832 148.034543,364.991526 147.733564,364.673922 C147.432586,364.356247 146.927932,364.342716 146.610329,364.643767 L143.960753,367.15473 L142.796351,365.926057 L145.027924,363.811146 C145.3456,363.510167 145.367047,363.013861 145.066068,362.696258 C144.76509,362.378582 144.260364,362.365051 143.942761,362.666102 L141.711115,364.781014 L140.586368,363.594156 L143.194129,361.122777 C143.511733,360.821726 143.53318,360.325492 143.232201,360.007889 C142.931223,359.690213 142.426497,359.676682 142.108965,359.977661 L138.865926,363.05107 C138.506508,363.391704 138.49161,363.945226 138.832244,364.304572 L143.157208,368.868193 Z M135.230505,371.366273 L135.249074,371.379803 C136.54295,372.322107 137.522822,371.739437 138.813819,370.671042 C139.886172,369.785379 140.235083,369.697503 140.598027,369.961921 L140.616668,369.975524 C140.998325,370.2534 140.973351,370.776622 140.546281,371.363034 C140.085385,371.995939 139.468746,372.373134 138.746455,372.60207 C138.613455,372.647699 138.453466,372.730609 138.317874,372.916723 C138.046691,373.289096 138.118373,373.797061 138.490602,374.068244 C138.714069,374.230968 139.00015,374.268393 139.227143,374.191529 C140.277113,373.845065 141.168174,373.169266 141.791938,372.312895 C142.815495,370.907392 142.808082,369.391919 141.514205,368.449615 L141.495637,368.436084 C140.360023,367.609077 139.343015,368.008007 138.035968,369.078921 C136.927126,369.995028 136.584117,370.172578 136.155968,369.860731 L136.137399,369.847201 C135.820875,369.616681 135.779637,369.145133 136.179718,368.59593 C136.505094,368.14914 136.98866,367.817646 137.613648,367.546247 C137.760179,367.48205 137.878713,367.397413 137.980479,367.257791 C138.251662,366.88549 138.17998,366.377453 137.807607,366.106342 C137.528435,365.902955 137.217669,365.918788 137.009316,366.009255 C136.209945,366.324555 135.50356,366.864187 134.927368,367.655353 C133.957932,368.986439 134.048326,370.505295 135.230505,371.366273 Z M209.650283,391.990152 L209.627181,391.990512 C209.074523,391.999436 208.655874,392.455367 208.664726,393.008025 C208.673723,393.560683 209.107126,394.002795 209.65964,393.993798 L209.682742,393.993438 C210.235327,393.984514 210.654049,393.528584 210.645053,392.975926 C210.6362,392.423268 210.202797,391.981156 209.650283,391.990152 Z M206.183777,415.437776 C205.831196,415.178684 205.332084,415.254829 205.072992,415.607482 L202.911085,418.548754 L201.547182,417.546211 L203.368095,415.068858 C203.627115,414.716349 203.560183,414.224074 203.207674,413.96491 C202.855165,413.705817 202.355981,413.781962 202.096889,414.134615 L200.276048,416.611968 L198.958493,415.643611 L201.086214,412.748688 C201.34545,412.396107 201.278374,411.903903 200.925865,411.644739 C200.573356,411.385575 200.074172,411.461791 199.81508,411.814373 L197.169104,415.414458 C196.875898,415.813388 196.959383,416.36072 197.358457,416.653998 L202.424424,420.377512 C202.823354,420.67079 203.370758,420.587161 203.663963,420.188159 L206.344126,416.541725 C206.603218,416.189216 206.536286,415.696941 206.183777,415.437776 Z M200.208684,420.624729 C199.246805,419.600884 198.173301,419.803623 196.689783,420.612782 C195.429877,421.306718 195.059879,421.417336 194.697078,421.03136 L194.681317,421.014519 C194.413301,420.72923 194.460513,420.258186 194.955738,419.792972 C195.358554,419.414481 195.895379,419.178707 196.560022,419.028362 C196.715909,418.992449 196.848045,418.931418 196.973993,418.813172 C197.309661,418.497727 197.333843,417.9853 197.018398,417.649632 C196.781833,417.397809 196.473586,417.355634 196.252062,417.405725 C195.407926,417.566794 194.613449,417.965652 193.900083,418.635909 C192.700055,419.763392 192.506384,421.272604 193.507774,422.338408 L193.523464,422.355177 C194.619495,423.52174 195.690768,423.131518 197.157804,422.321927 C198.376256,421.651094 198.735386,421.629647 199.042986,421.956967 L199.058748,421.973808 C199.382037,422.317897 199.26012,422.827301 198.7315,423.324038 C198.160778,423.860287 197.484764,424.11614 196.732462,424.206751 C196.593488,424.22683 196.420688,424.278505 196.252854,424.436119 C195.917186,424.751564 195.893004,425.26399 196.208448,425.599731 C196.397657,425.801103 196.671935,425.891137 196.909148,425.857815 C198.005323,425.712796 199.006569,425.214475 199.778735,424.489089 C201.045911,423.298417 201.320405,421.808061 200.224446,420.641499 L200.208684,420.624729 Z M192.418364,425.272771 L192.406417,425.253051 C191.688517,424.07231 190.224575,423.614725 189.004396,424.35652 C187.784289,425.098243 187.524261,426.577012 188.242018,427.757752 L188.254109,427.7774 C188.971794,428.958213 190.435951,429.415726 191.656058,428.673931 C192.876166,427.93228 193.136121,426.453511 192.418364,425.272771 Z M193.990621,424.29002 C195.180933,426.248109 194.611074,428.791098 192.485728,430.083176 C190.360311,431.375255 187.872164,430.71824 186.681852,428.760151 L186.669905,428.740431 C185.47945,426.782342 186.049308,424.239353 188.174654,422.947275 C190.3,421.655269 192.788218,422.312283 193.97853,424.270372 L193.990621,424.29002 Z M185.304131,425.753099 C185.153354,425.330059 184.682454,425.10688 184.259486,425.257801 L179.378841,426.999332 C178.955874,427.150253 178.732695,427.621153 178.883616,428.044121 C179.034609,428.467089 179.505509,428.69034 179.928476,428.539347 L181.533623,427.966609 L183.418301,433.248419 C183.584624,433.714785 184.085031,433.951926 184.551397,433.785603 C185.01769,433.619137 185.254975,433.118801 185.088509,432.652507 L183.203831,427.370698 L184.808977,426.797888 C185.231873,426.646967 185.455124,426.176067 185.304131,425.753099 Z M178.822657,433.04388 C178.617543,433.07418 178.44719,433.180767 178.327288,433.314919 C177.884888,433.787547 177.428671,434.087662 176.688315,434.196984 C175.321245,434.398716 174.207726,433.399196 174.00585,432.032125 L174.002467,432.009383 C173.800735,430.642456 174.604208,429.383196 175.948464,429.184774 C176.574963,429.092293 177.117832,429.221695 177.661421,429.513893 C177.798596,429.575212 177.97154,429.64272 178.210768,429.607455 C178.689081,429.536852 179.021007,429.103736 178.950404,428.625351 C178.904991,428.317751 178.708513,428.090686 178.506061,427.98086 C177.773047,427.588551 176.917108,427.388978 175.721039,427.56552 C173.271972,427.926954 171.837322,430.035964 172.17191,432.302877 L172.175221,432.325691 C172.513192,434.615346 174.523386,436.169323 176.870039,435.822931 C178.14578,435.634658 178.933275,435.134322 179.558478,434.401883 C179.697812,434.241678 179.802529,434.00504 179.762154,433.731626 C179.696661,433.287355 179.267,432.978315 178.822657,433.04388 Z M168.816453,432.847474 L167.850904,430.128806 L166.586031,432.721742 L168.816453,432.847474 Z M171.484453,435.235224 C171.534832,435.364986 171.562828,435.481865 171.556351,435.596873 C171.529794,436.068277 171.140508,436.426904 170.669105,436.400347 C170.255278,436.377029 169.992947,436.120024 169.852677,435.743045 L169.383577,434.447944 L165.842581,434.248371 L165.204711,435.538794 C165.03587,435.875254 164.725247,436.065326 164.357409,436.044599 C163.89752,436.01869 163.561852,435.630699 163.587762,435.170883 C163.594887,435.044359 163.648001,434.920499 163.71263,434.797286 L166.874847,428.620601 C167.094931,428.194755 167.466224,427.950488 167.949071,427.977621 L168.052564,427.983522 C168.535411,428.010655 168.865393,428.294577 169.03625,428.742447 L171.484453,435.235224 Z M162.005861,433.918172 L158.827235,433.102248 L160.227195,427.648286 C160.350264,427.16875 160.068429,426.692164 159.588821,426.569095 C159.109285,426.445954 158.6327,426.727861 158.509631,427.207398 L156.929314,433.363931 C156.806173,433.843467 157.088008,434.320053 157.567616,434.443122 L161.604988,435.479562 C162.039975,435.59126 162.474458,435.334183 162.586083,434.899196 C162.697781,434.464281 162.440776,434.029726 162.005861,433.918172 Z M154.604755,424.728965 L154.437065,424.627991 C154.131265,424.443748 153.836979,424.441301 153.524774,424.602658 L149.874096,426.490288 L149.83955,422.396488 C149.838111,422.086441 149.712235,421.782152 149.386787,421.586105 L149.219097,421.485131 C148.794906,421.229638 148.257578,421.362926 148.002084,421.787118 L144.686931,427.291099 C144.437411,427.705358 144.566885,428.226925 144.981144,428.476517 C145.395403,428.726037 145.926902,428.602537 146.17635,428.188205 L148.243903,424.755594 L148.337896,427.567895 C148.353082,427.899677 148.461253,428.16647 148.737402,428.332793 C149.013551,428.499188 149.300063,428.469968 149.600466,428.328403 L152.167707,427.078715 L150.094324,430.521186 C149.844804,430.935446 149.972263,431.482706 150.38645,431.732226 C150.810641,431.98772 151.348041,431.854359 151.603535,431.430168 L154.906741,425.945907 C155.162235,425.521715 155.028802,424.984387 154.604755,424.728965 Z M145.020008,422.196915 L142.788362,420.082003 L143.913181,418.895145 L146.520942,421.366525 C146.838617,421.667575 147.335282,421.662322 147.636333,421.344718 C147.937239,421.027114 147.923781,420.52246 147.606177,420.221481 L144.363138,417.148073 C144.003791,416.807438 143.450198,416.822264 143.109636,417.181755 L138.784672,421.745303 C138.44411,422.104721 138.459007,422.658171 138.818353,422.998805 L142.103136,426.11187 C142.420739,426.412776 142.917476,426.407594 143.218455,426.089991 C143.519505,425.772387 143.505903,425.267733 143.188371,424.966754 L140.538796,422.455719 L141.703127,421.227119 L143.934844,423.34203 C144.252448,423.643009 144.749185,423.637827 145.050163,423.320224 C145.351214,423.00262 145.337611,422.497966 145.020008,422.196915 Z M138.814467,419.515887 C139.950082,418.688879 139.88243,417.598533 139.264208,416.025916 C138.732565,414.689504 138.6688,414.308567 139.096949,413.99672 L139.11559,413.983118 C139.43197,413.75267 139.893513,413.858178 140.29345,414.407381 C140.618899,414.854171 140.786085,415.416185 140.852585,416.094287 C140.868707,416.253413 140.912896,416.392243 141.014518,416.531865 C141.285629,416.904166 141.791146,416.991898 142.163519,416.720714 C142.44269,416.517399 142.522937,416.21678 142.50077,415.990794 C142.446001,415.133199 142.149125,414.295252 141.573005,413.504013 C140.603569,412.172999 139.130199,411.792998 137.94802,412.653975 L137.929524,412.667506 C136.635576,413.609809 136.889486,414.721171 137.510227,416.277667 C138.024165,417.570105 138.000702,417.929092 137.637686,418.193437 L137.619046,418.20704 C137.237389,418.484988 136.747129,418.300673 136.319987,417.714333 C135.859091,417.081356 135.689314,416.378785 135.692985,415.621084 C135.690394,415.480599 135.660598,415.302761 135.525007,415.116574 C135.253896,414.744273 134.748379,414.656614 134.376078,414.927725 C134.152683,415.090449 134.029182,415.351269 134.032781,415.590857 C134.040266,416.696533 134.41012,417.751973 135.033812,418.608345 C136.057441,420.013848 137.502022,420.471793 138.795899,419.529489 L138.814467,419.515887 Z M217.8409,393.000036 C217.8409,386.541012 216.576172,380.275876 214.081764,374.378507 C211.67228,368.68179 208.222615,363.565368 203.828631,359.171381 C199.434647,354.777394 194.318228,351.327726 188.621516,348.918241 C182.724151,346.423831 176.458947,345.159101 170,345.159101 C163.541053,345.159101 157.275849,346.423831 151.378556,348.918241 C145.681772,351.327726 140.565425,354.777394 136.171441,359.171381 C131.777457,363.565368 128.32772,368.68179 125.918308,374.378507 C123.4239,380.275876 122.1591,386.541012 122.1591,393.000036 C122.1591,399.458988 123.4239,405.724124 125.918308,411.621493 C128.32772,417.31821 131.777457,422.434632 136.171441,426.828619 C140.565425,431.222534 145.681772,434.672274 151.378556,437.081759 C157.275849,439.576169 163.541053,440.840899 170,440.840899 C176.458947,440.840899 182.724151,439.576169 188.621516,437.081759 C194.318228,434.672274 199.434647,431.222534 203.828631,426.828619 C208.222615,422.434632 211.67228,417.31821 214.081764,411.621493 C216.576172,405.724124 217.8409,399.458988 217.8409,393.000036 Z M220,393.000036 C220,399.749531 218.677839,406.297653 216.070366,412.462535 C213.551993,418.416689 209.946944,423.763775 205.35533,428.355392 C200.763789,432.946865 195.416706,436.551916 189.462629,439.070292 C183.297607,441.67791 176.74949,443 170,443 C163.25051,443 156.702321,441.67791 150.537443,439.070292 C144.583366,436.551916 139.236283,432.946865 134.64467,428.355392 C130.053128,423.763775 126.448079,418.416689 123.929705,412.462535 C121.322161,406.297653 120,399.749531 120,393.000036 C120,386.250541 121.322161,379.702347 123.929705,373.537393 C126.448079,367.583311 130.053128,362.236225 134.64467,357.64468 C139.236283,353.053064 144.583366,349.448012 150.537443,346.929636 C156.702321,344.32209 163.25051,343 170,343 C176.74949,343 183.297607,344.32209 189.462629,346.929636 C195.416706,349.448012 200.763789,353.053064 205.35533,357.64468 C209.946944,362.236225 213.551993,367.583311 216.070366,373.537393 C218.677839,379.702347 220,386.250469 220,393.000036 Z M198.967922,393.000036 C198.967922,389.088896 198.202161,385.295283 196.691943,381.724705 C195.797428,379.609794 194.66498,377.627667 193.310289,375.796677 C192.880268,375.215591 192.428368,374.649402 191.95387,374.099551 L151.099601,414.95385 C151.649379,415.428348 152.215567,415.880248 152.796725,416.310197 C154.627642,417.664961 156.609767,418.79741 158.724749,419.691998 C162.295325,421.202217 166.088863,421.967978 170,421.967978 C173.911137,421.967978 177.704675,421.202217 181.275323,419.691998 C184.7247,418.233021 187.822721,416.144162 190.483379,413.48343 C193.14411,410.822697 195.232967,407.724675 196.691943,404.275367 C198.202161,400.704645 198.967922,396.911104 198.967922,393.000036 Z M143.308057,404.275367 C144.202644,406.390278 145.33502,408.372333 146.689783,410.203323 C147.119732,410.784409 147.571632,411.350598 148.046202,411.900449 L188.900399,371.046222 C188.350549,370.571652 187.784433,370.119752 187.203347,369.689803 C185.372358,368.335039 183.390233,367.20259 181.275323,366.308074 C177.704675,364.797855 173.911137,364.032094 170,364.032094 C166.088863,364.032094 162.295325,364.797855 158.724749,366.308074 C155.275372,367.767051 152.177279,369.855838 149.516621,372.51657 C146.85589,375.177303 144.767033,378.275325 143.308057,381.724705 C141.797839,385.295283 141.032078,389.088896 141.032078,393.000036 C141.032078,396.911104 141.797839,400.704645 143.308057,404.275367 Z M198.680473,380.883663 C200.303829,384.721826 201.127021,388.798353 201.127021,393.000036 C201.127021,397.201647 200.303829,401.278174 198.680473,405.116409 C197.112679,408.823082 194.868439,412.15184 192.010079,415.010131 C189.15179,417.868493 185.823034,420.112663 182.116364,421.680458 C178.278132,423.303886 174.20168,424.12708 170,424.12708 C165.798392,424.12708 161.721796,423.303886 157.883636,421.680458 C154.176894,420.112663 150.848138,417.868493 147.989921,415.010131 C145.131561,412.15184 142.887321,408.823082 141.319527,405.116409 C139.6961,401.278174 138.872979,397.201647 138.872979,393.000036 C138.872979,388.798353 139.6961,384.721826 141.319527,380.883591 C142.887321,377.176918 145.131561,373.84816 147.989921,370.989869 C150.848138,368.131579 154.176894,365.887337 157.883636,364.319542 C161.721796,362.696114 165.798392,361.872992 170,361.872992 C174.20168,361.872992 178.278132,362.696114 182.116364,364.319542 C185.823034,365.887337 189.15179,368.131579 192.010079,370.989869 C194.868439,373.84816 197.112679,377.176918 198.680473,380.883663 Z M164.313075,374.327408 L175.701751,374.327408 L175.701751,371.540009 L164.313075,371.540009 L164.313075,374.327408 Z M161.408294,395.484874 L159.480722,397.412447 C159.482953,395.110629 159.487199,392.808812 159.496987,390.507066 C159.505696,388.472545 160.064975,386.515247 160.624181,384.574503 C161.441904,381.736724 162.392844,378.947453 163.841096,376.35466 C163.855346,376.329183 163.853187,376.294494 163.862543,376.242747 C162.702027,375.885704 162.308279,375.034802 162.349806,373.886448 C162.376795,373.141054 162.347791,372.393861 162.356715,371.647604 C162.371469,370.413605 163.167673,369.594154 164.405845,369.590196 C168.137489,369.578033 171.869349,369.577961 175.600993,369.590196 C176.838948,369.594298 177.63508,370.414181 177.648899,371.648755 C177.658111,372.47274 177.652785,373.296941 177.650338,374.120998 C177.646884,375.245458 177.183757,375.887143 176.078514,376.256349 C176.196256,376.472763 176.317886,376.679749 176.424329,376.894292 C176.825202,377.702875 177.198582,378.520311 177.547421,379.345735 L176.089309,380.803849 C175.690379,379.81131 175.251218,378.832589 174.766716,377.86999 C174.478549,377.297612 174.079331,376.781227 173.766406,376.293558 L166.244246,376.293558 C166.173931,376.379202 166.063745,376.491116 165.979324,376.620014 C165.715914,377.022327 165.430193,377.414347 165.210325,377.839906 C163.950346,380.279043 163.077926,382.865718 162.351605,385.504068 C161.885959,387.196084 161.413764,388.892778 161.411821,390.666983 C161.40995,392.272923 161.409014,393.878862 161.408294,395.484874 Z M178.567452,390.539452 L180.334675,388.772228 C180.365766,388.947619 180.397649,389.122794 180.426724,389.298833 C180.502437,389.756418 180.516615,390.228326 180.517047,390.693684 C180.522517,397.581865 180.523452,404.470046 180.519134,411.358227 C180.517838,413.416642 179.664634,414.992498 177.793918,415.926669 C177.317909,416.164386 176.770289,416.258667 176.255632,416.418944 L163.750126,416.418944 C162.930244,416.2365 162.133464,416.003389 161.447878,415.483765 C160.125429,414.481654 159.491949,413.13308 159.489646,411.498064 C159.488711,410.871997 159.487847,410.246002 159.487055,409.619934 L161.409734,407.697254 C161.410238,408.909158 161.410813,410.121062 161.411461,411.333037 C161.411605,411.626963 161.420673,411.927654 161.48048,412.213591 C161.783762,413.663139 162.924414,414.505117 164.604986,414.508643 C168.19708,414.5162 171.789102,414.513969 175.381124,414.506196 C175.735505,414.505405 176.101544,414.48295 176.442178,414.393851 C177.834797,414.02997 178.595736,412.944015 178.596168,411.352541 C178.598255,404.635001 178.608906,397.917317 178.584149,391.199777 C178.583429,390.980269 178.577384,390.759968 178.567452,390.539452 Z" id="sem-lactose"></path>
            </g>
        </g>
    </g>
</svg>