<?xml version="1.0" encoding="UTF-8"?>
<svg width="100px" height="100px" viewBox="0 0 100 100" version="1.1" xmlns="http://www.w3.org/2000/svg" xmlns:xlink="http://www.w3.org/1999/xlink">
    <!-- Generator: Sketch 50.2 (55047) - http://www.bohemiancoding.com/sketch -->
    <title>sem-gluten</title>
    <desc>Created with Sketch.</desc>
    <defs>
        <linearGradient x1="0%" y1="100%" x2="100%" y2="100%" id="linearGradient-1">
            <stop stop-color="#F08325" offset="0%"></stop>
            <stop stop-color="#E75A25" offset="50.0908005%"></stop>
            <stop stop-color="#E42229" offset="100%"></stop>
        </linearGradient>
    </defs>
    <g id="Produto" stroke="none" stroke-width="1" fill="none" fill-rule="evenodd">
        <g id="Desktop" transform="translate(-228.000000, -550.000000)" fill="url(#linearGradient-1)">
            <g id="left" transform="translate(228.000000, 207.000000)">
                <path d="M11.3334024,392.991939 C11.3423267,393.544597 10.9236773,394.000527 10.3710197,394.009451 L10.3479893,394.009811 C9.79533174,394.018807 9.36200042,393.576696 9.35307614,393.024038 C9.34407989,392.47138 9.76287327,392.015451 10.3154589,392.006526 L10.3384893,392.006166 C10.8910749,391.99717 11.3244062,392.439282 11.3334024,392.991939 Z M74.1507541,366.198663 L78.8950159,361.882047 C79.2612712,361.548826 79.8143606,361.574879 80.1475817,361.941134 L80.271586,362.077445 C80.5583144,362.392602 80.5755152,362.71949 80.5082953,363.107552 L79.4881926,368.659677 L82.5629665,365.861987 C82.9207294,365.536539 83.4738188,365.562592 83.799339,365.920355 C84.1247873,366.278046 84.0987342,366.831135 83.7409714,367.156656 L78.9967095,371.473272 C78.6304542,371.806565 78.0774368,371.78044 77.7441438,371.414184 L77.7054239,371.371578 C77.4186235,371.056422 77.4014947,370.729534 77.4687146,370.341472 L78.5227871,364.587183 L75.3287589,367.493331 C74.9710681,367.818852 74.4179787,367.792726 74.0924584,367.435036 C73.7669381,367.077273 73.7930632,366.524183 74.1507541,366.198663 Z M68.7702775,362.161434 L72.4632737,357.073156 C72.7541044,356.672499 73.3009324,356.585559 73.7016614,356.87639 L77.3174337,359.500704 C77.6715981,359.757709 77.750837,360.256245 77.4937602,360.610409 C77.2367554,360.964502 76.7449124,361.034456 76.3908201,360.777452 L73.4833044,358.667147 L72.5227929,359.99046 L75.0110114,361.796331 C75.3651038,362.053407 75.4444147,362.551944 75.1873379,362.906108 C74.930333,363.2602 74.4384901,363.330083 74.0843978,363.073078 L71.5961793,361.267207 L70.6019858,362.637084 L73.5560661,364.781214 C73.9102304,365.038219 73.9894694,365.536755 73.7324645,365.890847 C73.4753877,366.245012 72.9836168,366.314895 72.6294524,366.05789 L68.9671155,363.39975 C68.5663146,363.108919 68.4794468,362.562163 68.7702775,362.161434 Z M64.5636315,360.151313 L66.9659899,355.083977 L65.426048,354.353914 C65.0202092,354.161466 64.8451062,353.670703 65.037482,353.264864 C65.2299297,352.859097 65.7206931,352.683994 66.1265319,352.876298 L70.8088995,355.096212 C71.2146663,355.288588 71.3897693,355.779423 71.1973935,356.185262 C71.0050177,356.591029 70.5141824,356.766132 70.1083436,356.573756 L68.5684017,355.843621 L66.1660434,360.911028 C65.9539478,361.358393 65.4323813,361.544436 64.9850158,361.33234 C64.5375784,361.120245 64.351536,360.59875 64.5636315,360.151313 Z M55.926225,354.741616 L56.8406757,351.065029 C56.9602179,350.584486 57.4346441,350.299053 57.9151157,350.418595 C58.3956593,350.538065 58.6811643,351.012491 58.5616221,351.493035 L57.6582548,355.124928 C57.3414429,356.398869 57.8144297,357.216664 58.8649037,357.477915 C59.9153057,357.739166 60.7107181,357.260638 61.0192534,356.020235 L61.936439,352.332493 C62.0559811,351.851949 62.5304073,351.566516 63.010951,351.685986 C63.4914946,351.805528 63.7769995,352.279955 63.6573854,352.760498 L62.7568969,356.381237 C62.1676066,358.750345 60.5487136,359.581742 58.4478376,359.05924 C56.3468896,358.536666 55.3535598,357.043648 55.926225,354.741616 Z M60.1854811,350.164469 C60.2105266,350.063855 60.2941557,349.966047 60.3723152,349.890551 L61.2259512,349.0824 C61.4295543,348.883835 61.6779947,348.791353 61.9573822,348.860876 C62.3708499,348.963649 62.8434048,349.354159 62.7794235,349.611163 C62.7404877,349.767626 62.6205138,349.868312 62.4558464,349.957843 L61.6018505,350.433708 C61.2027049,350.6548 60.9178477,350.65516 60.5379181,350.560664 C60.2920686,350.499489 60.1410036,350.343242 60.1854811,350.164469 Z M49.4611607,356.931231 L49.817628,350.585061 C49.8453365,350.090627 50.2582283,349.721709 50.7525902,349.74949 C51.2469521,349.77727 51.6158702,350.19009 51.5880898,350.684452 L51.2723575,356.306388 L54.5489353,356.490415 C54.9973083,356.515605 55.3336961,356.892008 55.3085066,357.340381 C55.2833171,357.788826 54.906842,358.125213 54.458541,358.100024 L50.2967323,357.866193 C49.8023704,357.838485 49.4334522,357.425593 49.4611607,356.931231 Z M40.6587269,354.797393 C40.3409794,352.528107 41.848247,350.421833 44.2657909,350.083359 C45.4745269,349.914085 46.3111061,350.076018 47.0998253,350.477178 C47.2883866,350.578656 47.5158118,350.790967 47.5636719,351.133113 C47.6307479,351.612073 47.2973109,352.054041 46.8184226,352.121117 C46.5674632,352.156238 46.3950951,352.087363 46.2569127,352.013666 C45.7300204,351.738668 45.1880864,351.605236 44.4354962,351.7106 C43.1583167,351.889445 42.301514,353.160507 42.4915147,354.517502 L42.4947534,354.540316 C42.6990762,355.99994 43.8526832,356.931375 45.2666776,356.733386 C45.9052673,356.643999 46.4531749,356.404483 46.8531121,356.022898 L46.6934107,354.882533 L45.5074892,355.04864 C45.0856011,355.107728 44.6971791,354.824957 44.6380917,354.402997 C44.5790043,353.981037 44.8732177,353.591032 45.2951777,353.531945 L47.3021329,353.250974 C47.7925364,353.182242 48.2345041,353.515679 48.3031635,354.006083 L48.5746343,355.944667 C48.6464604,356.457813 48.5020886,356.838462 48.1153218,357.148437 C47.5211376,357.638552 46.6305809,358.170195 45.4332881,358.337885 C42.9473007,358.685932 40.9925238,357.180751 40.6619656,354.820207 L40.6587269,354.797393 Z M27.822807,356.731371 C27.6054576,356.286524 27.7853106,355.76287 28.2301572,355.545449 L28.4060518,355.459517 C28.7474775,355.292618 29.0714144,355.35221 29.3325215,355.519396 L32.7888084,357.713833 L33.1865146,353.623131 C33.2205564,353.273284 33.3824169,353.027579 33.7031151,352.870828 L33.8790818,352.784824 C34.3239283,352.567475 34.847582,352.747328 35.0650033,353.192174 L37.8761512,358.94452 C38.0935005,359.389438 37.9136475,359.91302 37.468801,360.130441 C37.0342462,360.342825 36.5055546,360.152608 36.2932432,359.718053 L34.5286829,356.107319 L34.1835868,358.941857 C34.1393972,359.271048 34.0083399,359.527405 33.7186607,359.66897 C33.4289815,359.810535 33.1462114,359.756485 32.859339,359.589011 L30.4468329,358.140543 L32.2062833,361.740914 C32.4187387,362.175469 32.2337758,362.688831 31.799221,362.901142 C31.3647382,363.113525 30.8564861,362.938926 30.6441026,362.504371 L27.822807,356.731371 Z M21.4506559,361.697156 C21.1425524,361.309598 21.2053102,360.759459 21.5929406,360.451284 L25.0902504,357.670579 C25.4327556,357.398316 25.9343864,357.455533 26.2067208,357.798038 C26.4790553,358.140543 26.4146422,358.633178 26.072137,358.905512 L23.2598376,361.141476 L24.2774933,362.421462 L26.6841698,360.507996 C27.026675,360.235589 27.5282338,360.292878 27.8006402,360.635455 C28.0729747,360.97796 28.0084896,361.470523 27.6660564,361.742857 L25.2593079,363.656395 L26.3128046,364.981363 L29.1702292,362.709558 C29.5127344,362.437223 30.0142932,362.494512 30.2866997,362.837017 C30.5589621,363.179522 30.494549,363.672085 30.1520438,363.944491 L26.6096089,366.760965 C26.2219785,367.06914 25.6719118,367.00631 25.3636644,366.618752 L21.4506559,361.697156 Z M17.2717184,364.69521 C17.9143384,363.957014 18.6649135,363.480716 19.48861,363.236018 C19.7040162,363.164048 20.0149266,363.175204 20.2754579,363.401981 C20.6227851,363.704471 20.6500618,364.216753 20.3476438,364.564081 C20.2342191,364.694346 20.1087754,364.768331 19.9572066,364.819646 C19.311132,365.0357 18.8005769,365.324012 18.4376322,365.740862 C17.9915622,366.253216 17.9916342,366.726563 18.2868551,366.983712 L18.3041999,366.998753 C18.7037053,367.346584 19.0608204,367.199478 20.2448707,366.38305 C21.639865,365.429664 22.6876761,365.120481 23.7471464,366.04292 L23.7645631,366.058034 C24.9716438,367.109012 24.8475676,368.619302 23.7058356,369.930667 C23.0102456,370.729606 22.0639842,371.325589 20.9878889,371.579499 C20.7551379,371.636428 20.4733035,371.574318 20.2649503,371.392809 C19.9174792,371.090391 19.8902746,370.578109 20.1926925,370.23071 C20.3439014,370.057046 20.5105839,369.988387 20.646967,369.954489 C21.3863867,369.789102 22.033325,369.46682 22.5474786,368.876307 C23.023848,368.329191 23.0940187,367.810143 22.7379832,367.500168 L22.7206384,367.485055 C22.3819476,367.190194 22.0267757,367.24741 20.8815892,368.036633 C19.5028601,368.98894 18.4761362,369.484309 17.2690555,368.433331 L17.2516388,368.418218 C16.1486986,367.457994 16.1904412,365.937052 17.2717184,364.69521 Z M90.644117,392.975962 C90.6531133,393.52862 90.2343919,393.984549 89.6817343,393.993474 L89.6587759,393.993834 C89.1061183,394.002758 88.672787,393.560646 88.6637907,393.008061 C88.6548665,392.455403 89.0735879,391.999473 89.6262454,391.990477 L89.6492758,391.990189 C90.2019334,391.981193 90.6351928,392.423304 90.644117,392.975962 Z M83.7662328,418.866663 C84.1324881,419.199884 84.1585413,419.752973 83.8253202,420.119228 L83.7866003,420.161835 C83.4997999,420.476991 83.175935,420.524851 82.7832667,420.49448 L76.9552807,419.986948 L80.1493809,422.893096 C80.5070718,423.218544 80.5331969,423.771705 80.2076766,424.129468 C79.8821563,424.487087 79.329067,424.513284 78.9713761,424.187764 L74.2271862,419.871148 C73.8609309,419.537855 73.8348058,418.984765 74.1680269,418.61851 L74.2920312,418.482271 C74.5787596,418.167114 74.9025526,418.119254 75.2952929,418.149626 L80.9188121,418.642332 L77.8440381,415.844643 C77.4862753,415.519194 77.4602222,414.966033 77.7856705,414.608342 C78.1111188,414.250579 78.6642801,414.224526 79.021971,414.549975 L83.7662328,418.866663 Z M77.587681,425.42133 C77.8446859,425.775422 77.7586817,426.264602 77.4045894,426.521679 L73.7421805,429.179746 C73.3414515,429.470577 72.7946236,429.383709 72.5037928,428.983053 L68.8108686,423.894774 C68.5200379,423.494045 68.6069057,422.947289 69.0076346,422.656458 L72.6234069,420.032145 C72.9774993,419.77514 73.4761074,419.854307 73.7331122,420.208399 C73.9901891,420.562564 73.9041849,421.051816 73.5500206,421.30882 L70.6425049,423.419052 L71.6029444,424.742365 L74.0911629,422.936494 C74.4452553,422.679489 74.9438634,422.758728 75.2008682,423.112892 C75.4578731,423.466913 75.3718689,423.956165 75.0177766,424.213241 L72.5295581,426.019112 L73.5238235,427.389061 L76.4779757,425.245003 C76.8320681,424.987926 77.3306762,425.067165 77.587681,425.42133 Z M68.9483313,430.957405 C69.1604988,431.404771 68.9743844,431.926265 68.527019,432.138505 C68.0795815,432.3506 67.558087,432.164486 67.3459194,431.717049 L64.9435611,426.649785 L63.4036192,427.379849 C62.9977804,427.572225 62.5070171,427.397122 62.3145693,426.991283 C62.1221935,426.585444 62.2973685,426.094681 62.7031353,425.902305 L67.385431,423.682463 C67.7912698,423.490087 68.2821051,423.665118 68.4744809,424.070957 C68.6668567,424.476795 68.4917537,424.967631 68.0859869,425.160007 L66.545973,425.89007 L68.9483313,430.957405 Z M63.0233298,430.691476 C63.6125481,433.060584 62.5717901,434.553602 60.470914,435.076104 C58.370038,435.598678 56.7930316,434.74497 56.2204383,432.442866 L55.3059876,428.766279 C55.1865174,428.285735 55.4719504,427.811309 55.952494,427.691839 C56.4330377,427.572225 56.9074639,427.85773 57.026934,428.338273 L57.9303014,431.970167 C58.2471853,433.244108 59.0480673,433.745019 60.0985413,433.483696 C61.1490153,433.222445 61.6275438,432.427033 61.3190084,431.18663 L60.4018229,427.498887 C60.2823527,427.018344 60.5677857,426.543846 61.0482573,426.424375 C61.528801,426.304833 62.0032991,426.590266 62.1227693,427.07081 L63.0233298,430.691476 Z M59.8717639,424.699686 C59.9106996,424.856149 59.8518282,425.001313 59.7483353,425.157632 L59.216621,425.978089 C58.9676049,426.360466 58.7160697,426.494186 58.3361402,426.588611 C58.0902907,426.649857 57.8837368,426.582493 57.8392593,426.40372 C57.8142138,426.303178 57.8423541,426.17759 57.8758921,426.074241 L58.2515035,424.96029 C58.3384432,424.689539 58.5146257,424.491405 58.7940132,424.421954 C59.2074808,424.319037 59.8077825,424.442682 59.8717639,424.699686 Z M55.6741141,435.167002 C55.6993036,435.615375 55.3628439,435.99185 54.9145428,436.016968 L50.7527341,436.250726 C50.2583723,436.278507 49.8454804,435.909588 49.817772,435.415227 L49.4612326,429.068985 C49.4335242,428.574623 49.8025143,428.161803 50.2968042,428.134023 C50.7911661,428.106242 51.203986,428.47516 51.2317664,428.969522 L51.5475707,434.591458 L54.8241485,434.407431 C55.2725216,434.382241 55.6489246,434.718629 55.6741141,435.167002 Z M48.0288859,428.886397 C48.1823979,429.035735 48.342675,429.302383 48.294743,429.644457 C48.227739,430.123489 47.7856993,430.456854 47.306811,430.38985 C47.0559236,430.354729 46.9090328,430.241088 46.7963278,430.132341 C46.3652995,429.72312 45.8808695,429.446035 45.1282793,429.340671 C43.8510998,429.161754 42.678061,430.148607 42.4881321,431.505673 L42.4848935,431.528415 C42.2804987,432.988039 43.1339189,434.200517 44.5479853,434.398506 C45.186575,434.487893 45.779032,434.40815 46.2684999,434.151146 L46.4282013,433.010781 L45.2422078,432.844674 C44.8203197,432.785659 44.5245231,432.407025 44.5836104,431.985065 C44.6426258,431.563177 45.0326312,431.268963 45.4546632,431.328051 L47.4616184,431.609022 C47.95195,431.677681 48.2853869,432.119721 48.2167276,432.610052 L47.9452567,434.548708 C47.8734307,435.061854 47.6300282,435.388166 47.1729468,435.579966 C46.4671371,435.888069 45.464739,436.154646 44.2673743,435.987028 C41.7813868,435.638909 40.3152142,433.654697 40.6457723,431.294153 L40.648939,431.27141 C40.9666865,429.002125 42.994513,427.390788 45.412057,427.729335 C46.620793,427.898609 47.3807241,428.284008 48.0288859,428.886397 Z M37.835848,427.13839 L35.0247721,432.890735 C34.8072788,433.335582 34.2836251,433.515435 33.8387786,433.298013 C33.4042238,433.085702 33.2294087,432.551685 33.4417201,432.11713 L35.2063524,428.506395 L32.7579333,429.975807 C32.4710609,430.143209 32.1882908,430.197258 31.8986835,430.055693 C31.6090043,429.914128 31.477875,429.657843 31.4336854,429.328652 L31.094131,426.535281 L29.3346806,430.135652 C29.1223691,430.570207 28.6037534,430.739696 28.1691986,430.527313 C27.7347157,430.315001 27.5601165,429.806677 27.772428,429.372194 L30.5937236,423.599121 C30.811145,423.154347 31.3347986,422.974494 31.7796452,423.191843 L31.9555398,423.277775 C32.2969655,423.444674 32.4489661,423.7368 32.4775382,424.045551 L32.8698466,428.12078 L36.341535,425.921089 C36.6385552,425.733032 36.9319768,425.709785 37.2526751,425.866464 L37.4284978,425.952468 C37.8734163,426.169818 38.0532693,426.693471 37.835848,427.13839 Z M26.6769728,425.500713 L24.2702963,423.587246 L23.2167995,424.912214 L26.0741521,427.184091 C26.4166573,427.456425 26.4739454,427.958056 26.201611,428.300633 C25.9293485,428.643066 25.4349147,428.691286 25.0923375,428.419024 L21.5499026,425.602478 C21.1622722,425.294303 21.0995143,424.744164 21.4076898,424.356606 L25.3206983,419.435082 C25.6288738,419.047451 26.1789404,418.984621 26.5665708,419.292797 L30.0639525,422.073502 C30.4065297,422.345836 30.4637458,422.847395 30.1914114,423.189972 C29.9190769,423.532477 29.4246431,423.580697 29.0820659,423.308363 L26.2697666,421.072399 L25.2521109,422.352313 L27.6588594,424.265851 C28.0013646,424.538186 28.0586527,425.039817 27.7862462,425.382322 C27.5139118,425.724827 27.019478,425.773047 26.6769728,425.500713 Z M21.2283406,422.150222 C20.0212599,423.201199 18.5423486,422.870353 17.4006886,421.55906 C16.7050986,420.760049 16.2450665,419.740738 16.1416456,418.639957 C16.1173197,418.401593 16.2176459,418.131057 16.426071,417.949549 C16.7734701,417.647131 17.284601,417.690673 17.5870909,418.038 C17.7382279,418.211664 17.7832811,418.386191 17.7981069,418.525957 C17.860217,419.281066 18.0903051,419.966292 18.6043867,420.556806 C19.0807561,421.103922 19.5851938,421.244911 19.9413013,420.934936 L19.958646,420.919823 C20.2973368,420.62489 20.2894921,420.265255 19.6654403,419.022406 C18.9119865,417.525718 18.5626441,416.440554 19.7697968,415.389576 L19.7871416,415.374463 C20.8900097,414.414167 22.3907999,414.664911 23.4719331,415.906753 C24.1146252,416.644877 24.4831115,417.453892 24.6120817,418.303425 C24.6537524,418.526676 24.5999188,418.833125 24.3393874,419.059902 C23.9920603,419.362392 23.4808574,419.318922 23.1784395,418.971523 C23.0650148,418.841257 23.0090222,418.706745 22.9790107,418.549635 C22.8539988,417.879954 22.6386646,417.334493 22.2757919,416.917643 C21.8296499,416.405289 21.3607654,416.340228 21.0655445,416.597233 L21.0481278,416.612419 C20.6486943,416.960178 20.7452061,417.334206 21.3909208,418.619374 C22.1432232,420.132255 22.3052276,421.212668 21.2457574,422.135108 L21.2283406,422.150222 Z M94.0817637,411.621516 C91.6722803,417.318228 88.2226147,422.434647 83.8286308,426.828559 C79.4346469,431.222543 74.3182283,434.67228 68.6215156,437.081692 C62.7241505,439.5761 56.4589469,440.8409 50,440.8409 C43.5410531,440.8409 37.2758495,439.5761 31.3785564,437.081692 C25.6817717,434.67228 20.5653531,431.222543 16.1714412,426.828559 C11.7774573,422.434647 8.32771967,417.318228 5.9183083,411.621516 C3.42390037,405.724151 2.15909974,399.458947 2.15909974,393 C2.15909974,386.541053 3.42390037,380.275849 5.9183083,374.378556 C8.32771967,368.681772 11.7774573,363.565353 16.1714412,359.171441 C20.5653531,354.777385 25.6817717,351.327792 31.3785564,348.918236 C37.2758495,346.4239 43.5410531,345.1591 50,345.1591 C56.4589469,345.1591 62.7241505,346.4239 68.6215156,348.918236 C74.3182283,351.327792 79.4346469,354.777385 83.8286308,359.171441 C88.2226147,363.565353 91.6722803,368.681772 94.0817637,374.378556 C96.5761716,380.275849 97.8409003,386.541053 97.8409003,393 C97.8409003,399.458947 96.5761716,405.724151 94.0817637,411.621516 Z M96.0703665,373.537443 C93.5519206,367.583366 89.9469437,362.236283 85.3553302,357.64467 C80.7637887,353.053128 75.4167063,349.448079 69.4626289,346.929705 C63.2976074,344.322161 56.7494897,343 50,343 C43.2505103,343 36.7023206,344.322161 30.5374431,346.929705 C24.5833657,349.448079 19.2362832,353.053128 14.6446698,357.64467 C10.0531282,362.236283 6.44807941,367.583366 3.92970547,373.537443 C1.32208874,379.702393 0,386.250582 0,393 C0,399.749562 1.32208874,406.297679 3.92970547,412.462557 C6.44807941,418.416706 10.0531282,423.763717 14.6446698,428.35533 C19.2362832,432.946872 24.5833657,436.551921 30.5374431,439.070295 C36.7023206,441.677911 43.2505103,443 50,443 C56.7494897,443 63.2976074,441.677911 69.4626289,439.070295 C75.4167063,436.551921 80.7637887,432.946872 85.3553302,428.35533 C89.9469437,423.763717 93.5519206,418.416706 96.0703665,412.462557 C98.6778393,406.297679 100,399.749562 100,393 C100,386.25051 98.6778393,379.702393 96.0703665,373.537443 Z M50,421.967922 C46.0888628,421.967922 42.2953245,421.202233 38.7247493,419.691943 C36.6097672,418.797428 34.6276417,417.66498 32.7967251,416.310217 C32.2155674,415.880196 31.6493795,415.428368 31.0996007,414.953798 L71.9538701,374.099601 C72.4283683,374.649451 72.8802678,375.215639 73.3101446,375.796725 C74.6649797,377.627714 75.7974275,379.609839 76.6919425,381.724749 C78.2021608,385.295325 78.9679215,389.088935 78.9679215,393 C78.9679215,396.911137 78.2021608,400.704675 76.6919425,404.275323 C75.2329669,407.7247 73.1441098,410.822721 70.4833793,413.483451 C67.8226487,416.14411 64.7246284,418.233039 61.2753226,419.691943 C57.7046035,421.202233 53.9111372,421.967922 50,421.967922 Z M21.0320785,393 C21.0320785,389.088935 21.7977672,385.295325 23.3080575,381.724749 C24.7670331,378.275372 26.8558902,375.177351 29.5165488,372.516621 C32.1772794,369.85589 35.2753716,367.767033 38.7247493,366.308129 C42.2953245,364.797839 46.0888628,364.032078 50,364.032078 C53.9111372,364.032078 57.7046035,364.797839 61.2753226,366.308129 C63.3902328,367.202644 65.3723583,368.33502 67.2033469,369.689855 C67.7844326,370.119804 68.3505486,370.571704 68.9003993,371.046202 L28.0462019,411.900471 C27.5716317,411.350621 27.1197322,410.784433 26.6897834,410.203275 C25.3350203,408.372358 24.2025725,406.390305 23.3080575,404.275323 C21.7977672,400.704675 21.0320785,396.911137 21.0320785,393 Z M72.0100787,415.010151 C74.8684389,412.151862 77.1126071,408.823106 78.6804734,405.116436 C80.3038285,401.278204 81.1270213,397.20168 81.1270213,393 C81.1270213,388.798392 80.3038285,384.721796 78.6804734,380.883636 C77.1126071,377.176894 74.8684389,373.84821 72.0100787,370.989921 C69.1517905,368.131561 65.8230344,365.887393 62.116364,364.319527 C58.2781323,362.696171 54.2016801,361.872979 50,361.872979 C45.7983919,361.872979 41.7217957,362.696171 37.883636,364.319527 C34.1768936,365.887393 30.8481376,368.131561 27.9899213,370.989921 C25.1315611,373.84821 22.8873209,377.176894 21.3195266,380.883636 C19.6960995,384.721796 18.8729787,388.798392 18.8729787,393 C18.8729787,397.20168 19.6960995,401.278204 21.3195266,405.116436 C22.8873209,408.823106 25.1315611,412.151862 27.9899213,415.010151 C30.8481376,417.868439 34.1768936,420.112679 37.883636,421.680473 C41.7217957,423.3039 45.7983919,424.127021 50,424.127021 C54.2016801,424.127021 58.2781323,423.3039 62.116364,421.680473 C65.8230344,420.112679 69.1517905,417.868439 72.0100787,415.010151 Z M57.2007416,402.832468 C57.1045177,402.921711 57.0024643,403.007067 56.8931418,403.079325 C55.2368964,404.17514 53.1155809,403.416073 52.1307436,402.312845 C52.5264346,401.665547 54.0265051,400.716622 54.7932734,400.641702 C55.6636785,400.556633 56.4567158,400.766426 57.1487792,401.310735 C57.8098956,401.830718 57.8224184,402.256564 57.2007416,402.832468 Z M57.8351571,397.164759 C57.974347,396.861334 58.1549197,396.576549 58.2873445,396.270604 C58.5005196,395.778114 58.8667749,395.431434 59.3373147,395.084107 C60.3324438,396.248366 60.8888438,397.502443 60.4720656,399.032237 C60.300777,399.660823 59.9776317,400.197287 59.3985612,400.545478 C59.1342154,400.704316 58.8697976,400.740588 58.6528081,400.489773 C58.4049435,400.203117 58.127787,399.920346 57.9644871,399.586334 C57.5844136,398.809634 57.4560191,397.991695 57.8351571,397.164759 Z M56.9734603,395.505563 C56.758342,396.282551 56.3565336,396.933232 55.4990831,397.19585 C55.4194843,397.159866 55.3616204,397.141225 55.3115293,397.110134 C54.6811442,396.718474 54.2288128,395.836913 54.1315813,394.97536 L51.9791748,397.127695 C52.1185087,397.144536 52.2588501,397.171237 52.3999833,397.207366 C53.1460242,397.398158 53.8103073,397.737569 54.206646,398.494405 C53.856368,399.506303 53.0572852,399.899979 52.1236185,400.057233 C51.1662737,400.218446 50.3321415,400.000305 49.5621346,399.544879 L48.4830885,400.623853 C49.1487389,401.059559 49.9273103,401.366583 50.7720941,401.535281 C50.7720941,401.558887 50.78181,401.589187 50.7707986,401.604228 C50.2394442,402.32508 50.4351306,402.671184 50.9354659,403.222833 C52.3112443,404.739889 54.8250841,405.71609 57.1287716,404.637548 C57.8871914,404.282592 58.4942582,403.757427 58.9152107,402.97684 C59.0222301,403.077598 59.1172305,403.162235 59.207121,403.252125 C61.4462514,405.490464 63.6843742,407.729738 65.9237924,409.967789 C66.2910553,410.334836 66.6433484,410.404935 66.9801679,410.18665 C67.2843851,409.989596 67.4012644,409.59261 67.2250818,409.276014 C67.1393656,409.121998 67.0201833,408.981081 66.8949555,408.855565 C64.6843252,406.639969 62.4703124,404.427683 60.2574511,402.214246 C60.166553,402.123348 60.0795412,402.028707 59.9849727,401.929749 C61.9318329,400.826017 62.5725098,398.238192 61.7203131,396.156388 C61.3380085,395.222433 60.8296125,394.376786 60.0060599,393.761586 C59.4731941,393.36352 59.2685114,393.364096 58.7066417,393.711495 C58.657918,393.741651 58.6055958,393.766049 58.5424781,393.799803 C58.3669433,392.951564 58.0736656,392.174792 57.6214062,391.485464 L56.5431518,392.56379 C57.0598963,393.445926 57.2785411,394.403559 56.9734603,395.505563 Z M38.010951,388.264303 C38.4007404,387.9336 38.7236698,387.59491 39.1074857,387.352587 C39.4764039,387.119692 39.9161406,387.002525 40.3111119,386.806766 C41.4398892,386.247128 43.1098089,386.813532 43.6860727,387.997438 C43.3633592,388.961116 42.5959432,389.35875 41.6894812,389.530687 C40.2754867,389.798919 39.1261979,389.233666 38.010951,388.264303 Z M34.8559305,383.518817 C35.3916751,383.204524 35.902734,382.901459 36.5401002,382.958819 C37.0148863,383.001497 37.4894564,383.069509 37.9648902,383.076993 C38.8938068,383.091675 39.576874,383.544367 40.1082285,384.250824 C40.2476343,384.436075 40.2705208,384.708913 40.3355817,384.906759 C38.5964268,386.796403 35.8815028,385.557727 34.8559305,383.518817 Z M34.2225226,377.216117 C35.3256786,377.321985 36.358448,377.512274 37.2752737,378.079325 C38.3625244,378.751813 38.9015796,380.29377 38.4727104,381.486745 C38.3606531,381.516684 38.2588156,381.551949 38.1540273,381.570734 C36.8071089,381.812049 35.480702,381.135459 34.878601,379.901821 C34.4697395,379.063947 34.2980191,378.171231 34.2225226,377.216117 Z M40.5329954,377.828222 C41.7259699,378.531513 42.5670832,379.459422 42.8114213,380.80706 C42.9865243,381.772825 42.6805799,382.620992 41.9411602,383.327881 C41.7623868,383.285778 41.581886,383.266275 41.4196657,383.20107 C40.7603486,382.936148 40.0658381,381.802405 40.0771374,381.086735 C40.0842625,380.6339 40.0985125,380.166887 40.0022167,379.729957 C39.8392046,378.990106 40.1892667,378.442702 40.5329954,377.828222 Z M43.8107967,383.304491 C43.9326418,383.059577 44.0246915,382.799477 44.1257373,382.544488 C44.3653974,381.939508 44.7400012,381.447593 45.2956095,381.104152 C46.184295,381.894311 47.0082075,383.696511 46.3798375,385.24912 C46.1084386,385.919448 45.731028,386.470738 44.9846992,386.680387 C43.8042474,386.094191 43.2466959,384.438306 43.8107967,383.304491 Z M41.6141286,391.802923 C42.1423883,390.896317 43.0864187,390.566767 43.9723693,390.224549 C44.7679975,389.917165 45.5877357,390.136602 46.309019,390.579001 C46.3100985,390.579649 46.3111061,390.580297 46.3121857,390.580945 L47.5784977,389.314633 C47.1094692,388.561035 46.9635141,387.722297 47.249091,386.840736 C47.3798605,386.436841 47.5916682,386.048347 47.8257146,385.691591 C48.088621,385.29079 48.4183155,384.933747 48.7421805,384.528628 C49.306785,385.071858 49.6287788,385.616383 49.848863,386.216109 C49.9277421,386.430795 49.9905,386.644762 50.036057,386.857145 L51.1959253,385.697205 C51.0395346,385.323249 50.873068,384.954403 50.6678815,384.608443 C50.3638803,384.095873 49.9173065,383.648075 49.4664145,383.247994 C48.9936436,382.828625 48.7448434,382.862235 48.2055722,383.198911 C48.1563447,383.229642 48.1059657,383.25879 48.0325563,383.302763 C47.824851,382.255096 47.4323986,381.313225 46.7630057,380.50932 C46.512838,380.208701 46.2170413,379.937447 45.9082181,379.696203 C45.4734474,379.356505 45.1608097,379.37277 44.7005617,379.691381 C44.5347428,379.806101 44.373674,379.927659 44.2432643,380.022299 C43.9244373,379.451649 43.6610271,378.858329 43.2897339,378.342448 C42.6064508,377.392876 41.7487125,376.642876 40.5852456,376.30764 C40.1568082,376.184212 39.8274735,376.298932 39.5751467,376.642372 C39.3571496,376.939321 39.1626867,377.253614 38.95347,377.566683 C37.4603805,376.067908 35.5315128,375.813494 33.5612623,375.692153 C33.0203358,375.658831 32.6714973,376.000904 32.6933042,376.55644 C32.7515999,378.039814 32.9608886,379.497638 33.6934712,380.819223 C33.9221918,381.231827 34.2510947,381.588942 34.5377511,381.976356 C34.2769319,382.147429 33.9829345,382.32649 33.7039068,382.526351 C33.2655376,382.8405 33.1741357,383.097721 33.3198749,383.611731 C33.645899,384.761667 34.3934513,385.612208 35.3353946,386.286567 C35.8527868,386.656997 36.4458196,386.921774 37.0256818,387.245999 C36.9403254,387.360575 36.8251734,387.509553 36.715779,387.662633 C36.3643495,388.154404 36.3557851,388.451065 36.706063,388.934487 C37.3795582,389.863836 38.3240204,390.410736 39.3813316,390.786275 C39.6715146,390.889336 39.9748681,390.955548 40.2736875,391.039106 C40.2736875,391.048894 40.2787254,391.064583 40.2729678,391.072356 C39.7493141,391.782628 39.8769889,392.135568 40.5560977,392.853037 C41.1609335,393.492059 41.8811372,393.926182 42.6729511,394.220179 L43.8500923,393.04311 C42.9594636,392.863761 42.143036,392.378395 41.6141286,391.802923 Z" id="sem-gluten"></path>
            </g>
        </g>
    </g>
</svg>