<?xml version="1.0" encoding="UTF-8"?>
<svg width="29px" height="29px" viewBox="0 0 29 29" version="1.1" xmlns="http://www.w3.org/2000/svg" xmlns:xlink="http://www.w3.org/1999/xlink">
    <!-- Generator: sketchtool 49.1 (51147) - http://www.bohemiancoding.com/sketch -->
    <title>F190AD40-EC16-4066-8714-71DE9264F9CB</title>
    <desc>Created with sketchtool.</desc>
    <defs></defs>
    <g id="Symbols" stroke="none" stroke-width="1" fill="none" fill-rule="evenodd">
        <g id="contact/tel" transform="translate(-1.000000, -6.000000)" fill="#E75B22">
            <g id="icon/contact/tel/color" transform="translate(0.000000, 5.000000)">
                <path d="M26,11.5 C26,5.70101013 21.2989899,1 15.5,1 C9.70101013,1 5,5.70101013 5,11.5 C5,12.0522847 5.44771525,12.5 6,12.5 C6.55228475,12.5 7,12.0522847 7,11.5 C7,6.80557963 10.8055796,3 15.5,3 C20.1944204,3 24,6.80557963 24,11.5 C24,12.0522847 24.4477153,12.5 25,12.5 C25.5522847,12.5 26,12.0522847 26,11.5 Z" id="Oval" fill-rule="nonzero"></path>
                <path d="M3,14.9981014 L3,19.0018986 C3,19.5574649 3.44416462,20 4,20 C4.55694202,20 5,19.5561822 5,19.0018986 L5,14.9981014 C5,14.4425351 4.55583538,14 4,14 C3.44305798,14 3,14.4438178 3,14.9981014 Z M1,14.9981014 C1,13.3400147 2.33772063,12 4,12 C5.65876263,12 7,13.3363166 7,14.9981014 L7,19.0018986 C7,20.6599853 5.66227937,22 4,22 C2.34123737,22 1,20.6636834 1,19.0018986 L1,14.9981014 Z" id="Rectangle" fill-rule="nonzero"></path>
                <path d="M26,14.9981014 L26,19.0018986 C26,19.5574649 26.4441646,20 27,20 C27.556942,20 28,19.5561822 28,19.0018986 L28,14.9981014 C28,14.4425351 27.5558354,14 27,14 C26.443058,14 26,14.4438178 26,14.9981014 Z M24,14.9981014 C24,13.3400147 25.3377206,12 27,12 C28.6587626,12 30,13.3363166 30,14.9981014 L30,19.0018986 C30,20.6599853 28.6622794,22 27,22 C25.3412374,22 24,20.6636834 24,19.0018986 L24,14.9981014 Z" id="Rectangle-Copy-2" fill-rule="nonzero"></path>
                <path d="M24,17 L24,22.7590997 C24,24.548757 22.5465214,26 20.7523616,26 L17.2476384,26 C16.6953536,26 16.2476384,26.4477153 16.2476384,27 C16.2476384,27.5522847 16.6953536,28 17.2476384,28 L20.7523616,28 C23.6504023,28 26,25.6540163 26,22.7590997 L26,17 C26,16.4477153 25.5522847,16 25,16 C24.4477153,16 24,16.4477153 24,17 Z" id="Rectangle-Copy-3" fill-rule="nonzero"></path>
                <path d="M7,17.5 L7,11.4172375 C7,10.8649527 6.55228475,10.4172375 6,10.4172375 C5.44771525,10.4172375 5,10.8649527 5,11.4172375 L5,17.5 C5,18.0522847 5.44771525,18.5 6,18.5 C6.55228475,18.5 7,18.0522847 7,17.5 Z" id="Line" fill-rule="nonzero"></path>
                <path d="M26,17.5 L26,11.4172375 C26,10.8649527 25.5522847,10.4172375 25,10.4172375 C24.4477153,10.4172375 24,10.8649527 24,11.4172375 L24,17.5 C24,18.0522847 24.4477153,18.5 25,18.5 C25.5522847,18.5 26,18.0522847 26,17.5 Z" id="Line-Copy-2" fill-rule="nonzero"></path>
                <circle id="Oval-2" fill-rule="evenodd" cx="12" cy="16" r="2"></circle>
                <circle id="Oval-2-Copy-2" fill-rule="evenodd" cx="16" cy="27" r="3"></circle>
                <circle id="Oval-2-Copy" fill-rule="evenodd" cx="20" cy="16" r="2"></circle>
            </g>
        </g>
    </g>
</svg>