<?xml version="1.0" encoding="UTF-8"?>
<svg width="21px" height="23px" viewBox="0 0 21 23" version="1.1" xmlns="http://www.w3.org/2000/svg" xmlns:xlink="http://www.w3.org/1999/xlink">
    <!-- Generator: sketchtool 49.1 (51147) - http://www.bohemiancoding.com/sketch -->
    <title>C546D4C8-8844-4B15-A81D-E6F8EED3A33F</title>
    <desc>Created with sketchtool.</desc>
    <defs></defs>
    <g id="Home" stroke="none" stroke-width="1" fill="none" fill-rule="evenodd">
        <g id="desktop" transform="translate(-1129.000000, -213.000000)" fill="#FFFFFF" fill-rule="nonzero">
            <g id="mouseover-atendimento" transform="translate(1104.000000, 100.000000)">
                <g id="Group-12" transform="translate(20.000000, 109.000000)">
                    <path d="M8.15,25.9528676 C8.15,25.9528676 8.14470901,22.2453988 8.14470901,21.9141388 C6.15138433,19.9668586 5,17.3016474 5,14.4537465 C5,8.68030173 9.70101013,4 15.5,4 C21.2989899,4 26,8.68030173 26,14.4537465 C26,20.2271913 21.2989899,24.907493 15.5,24.907493 C14.6768432,24.907493 13.8655831,24.8129781 13.0781797,24.6278196 C12.895288,24.7394955 9.78243521,26.8226719 9.78243521,26.8226719 C9.08465274,27.285811 8.15,26.7878035 8.15,25.9528676 Z M7.1,14.4537465 C7.1,16.8656883 8.12978117,19.109868 9.90025947,20.6875085 C10.1228083,20.8858177 10.25,21.1691002 10.25,21.4664537 L10.25,24.0290312 L12.3128528,22.6303901 C12.5692711,22.4601976 12.8878418,22.4107491 13.1841286,22.4951507 C13.9302887,22.7077054 14.7072995,22.8167437 15.5,22.8167437 C20.1391919,22.8167437 23.9,19.0725023 23.9,14.4537465 C23.9,9.83499068 20.1391919,6.0907493 15.5,6.0907493 C10.8608081,6.0907493 7.1,9.83499068 7.1,14.4537465 Z M12.5059563,10.4146656 C12.6988537,10.2226659 13.0157334,10.226778 13.204861,10.4150253 L14.617331,11.8209223 C14.813687,12.0163645 14.8125338,12.3294073 14.617841,12.5231941 C14.4217908,12.718332 14.3494876,13.0784295 14.4533157,13.330512 C14.4533157,13.330512 14.6173461,13.9262299 15.3218965,14.6275016 C16.0264468,15.3287732 16.6261698,15.4932545 16.6261698,15.4932545 C16.8768486,15.6021677 17.243329,15.5240378 17.4380219,15.3302509 C17.6340721,15.135113 17.9486025,15.1366913 18.143577,15.3307585 L19.5560471,16.7366555 C19.7491441,16.9288539 19.7467012,17.2429006 19.5564085,17.4323077 L18.8481123,18.1373078 C18.2640337,18.7186683 17.2415433,18.8062705 16.5816496,18.3190711 C16.5816496,18.3190711 15.6546241,17.7657377 13.8979495,16.017238 C12.141275,14.2687383 11.6140152,13.378662 11.6140152,13.378662 C11.1313609,12.7124133 11.21477,11.6998432 11.7976601,11.1196657 L12.5059563,10.4146656 Z" id="Whatsapp"></path>
                </g>
            </g>
        </g>
    </g>
</svg>