<?xml version="1.0" encoding="UTF-8"?>
<svg width="32px" height="32px" viewBox="0 0 32 32" version="1.1" xmlns="http://www.w3.org/2000/svg" xmlns:xlink="http://www.w3.org/1999/xlink">
    <!-- Generator: Sketch 48.2 (47327) - http://www.bohemiancoding.com/sketch -->
    <title>Instagram Copy</title>
    <desc>Created with Sketch.</desc>
    <defs></defs>
    <g id="iPad" stroke="none" stroke-width="1" fill="none" fill-rule="evenodd" transform="translate(-303.000000, -3085.000000)">
        <g id="icon/social/instagram" transform="translate(303.000000, 3085.000000)">
            <path d="M19.3013006,8.10526316 C21.8276855,8.10526316 23.8947368,10.1171509 23.8947368,12.5761138 L23.8947368,19.4238862 C23.8947368,21.8828491 21.8276855,23.8947368 19.3013006,23.8947368 L12.6987332,23.8947368 C10.1723145,23.8947368 8.10526316,21.8828491 8.10526316,19.4238862 L8.10526316,12.5761138 C8.10526316,10.1171509 10.1723145,8.10526316 12.6987332,8.10526316 L19.3013006,8.10526316 Z M22.6809171,19.4238862 L22.6809171,12.5761468 C22.6809171,11.7024243 22.3279795,10.8777289 21.6871333,10.2539521 C21.0462532,9.63017535 20.1989457,9.28665661 19.3012668,9.28665661 L12.6987332,9.28665661 C11.8010543,9.28665661 10.9537468,9.63017535 10.3128667,10.2539521 C9.67198668,10.8777289 9.31904905,11.7024243 9.31904905,12.5761468 L9.31904905,19.4238862 C9.31904905,20.2976086 9.67198668,21.122304 10.3128667,21.7460479 C10.9537468,22.3698246 11.8010543,22.7133763 12.6987332,22.7133763 L19.3012668,22.7133763 C20.1989457,22.7133763 21.0462532,22.3698246 21.6871333,21.7460479 C22.3279795,21.122304 22.6809171,20.2976086 22.6809171,19.4238862 Z M16.0243868,11.7071623 C18.4256896,11.7071623 20.3723306,13.601853 20.3723306,15.939072 C20.3723306,18.2762581 18.4256896,20.1709488 16.0243868,20.1709488 C13.6231177,20.1709488 11.6764768,18.2762581 11.6764768,15.939072 C11.6764768,13.601853 13.6231177,11.7071623 16.0243868,11.7071623 Z M16.0034664,18.7135147 C17.575877,18.7135147 18.8505282,17.4728473 18.8505282,15.9424328 C18.8505282,14.4119853 17.575877,13.1713179 16.0034664,13.1713179 C14.4310558,13.1713179 13.1564046,14.4119853 13.1564046,15.9424328 C13.1564046,17.4728473 14.4310558,18.7135147 16.0034664,18.7135147 Z M20.442126,10.6393086 C21.0106988,10.6393086 21.4716572,11.0879324 21.4716572,11.6413316 C21.4716572,12.1947639 21.0106988,12.6433876 20.442126,12.6433876 C19.8735531,12.6433876 19.4125948,12.1947639 19.4125948,11.6413316 C19.4125948,11.0879324 19.8735531,10.6393086 20.442126,10.6393086 Z" id="Combined-Shape" fill="#E75A25" fill-rule="evenodd"></path>
            <path d="M16.2792887,31.9976133 C7.44407853,32.1518325 0.156706219,25.1144988 0.00248705249,16.2792887 C-0.151732114,7.44407853 6.88560153,0.156706219 15.7208117,0.00248705249 C24.5560218,-0.151732114 31.8433941,6.88560153 31.9976133,15.7208117 C32.1518325,24.5560218 25.1144988,31.8433941 16.2792887,31.9976133 Z M16.2443839,29.9979179 C23.9751927,29.8629761 30.1328597,23.4865254 29.9979179,15.7557165 C29.8629761,8.02490761 23.4865254,1.86724067 15.7557165,2.00218244 C8.02490761,2.13712421 1.86724067,8.51357499 2.00218244,16.2443839 C2.13712421,23.9751927 8.51357499,30.1328597 16.2443839,29.9979179 Z" id="Oval-Copy-3" fill="#F08325" fill-rule="nonzero"></path>
        </g>
    </g>
</svg>