<svg xmlns="http://www.w3.org/2000/svg" width="1109" height="51"><style>.a{fill:#F6A623;}.b{fill:#E75B22;}.c{fill:#EBEBEB;}</style><g fill="none"><path d="M33.9 35.1c0 .3-.2.5-.4.5h-.1c-1.1-2.6-3.6-4.3-6.4-4.3-2.7 0-5.2 1.7-6.3 4.3h-5.5c-1-2.6-3.5-4.3-6.3-4.3S3.6 33 2.6 35.6h-.1c-.3 0-.5-.2-.5-.5v-5.9c.2 0 .3 0 .5 0h19c1.3 0 2.4-1.1 2.4-2.4v-4.1l4.4-.1c.4 0 1.5.6 1.8 1l2.7 3.8c.7 1 1.1 2.2 1.1 3.4v4.3zM2 11.5c0-.2.2-.4.5-.4h19c.2 0 .4.2.4.4v15.1c0 .2-.2.4-.4.4h-19c-.3 0-.5-.2-.5-.4V11.5zm32.5 14.7l-2.8-3.8c-.6-.8-2.3-1.9-3.5-1.8h-4.3v-9.1c0-1.3-1.1-2.4-2.4-2.4h-19C1.1 9.1 0 10.2 0 11.5v15.1s0 .1 0 .1 0 0 0 .1v8.3c0 1.4 1.1 2.5 2.5 2.5h.8c.5 0 .9-.3 1-.7.6-2.1 2.5-3.5 4.6-3.5 2.1 0 4 1.4 4.6 3.5.1.4.5.7 1 .7h7c.4 0 .8-.3.9-.7.6-2.1 2.5-3.5 4.6-3.5 2.2 0 4.1 1.4 4.7 3.5.1.4.5.7.9.7h.9c1.3 0 2.4-1.1 2.4-2.5v-4.3c0-1.6-.5-3.3-1.4-4.6zM8.9 40.5c-1.1 0-2-.9-2-2s.9-2 2-2 2 .9 2 2-.9 2-2 2m0-6c-2.2 0-4 1.8-4 4s1.8 4 4 4 4-1.8 4-4-1.8-4-4-4m18.1 6c-1 0-1.9-.9-1.9-2s.9-2 1.9-2c1.1 0 2 .9 2 2s-.9 2-2 2m0-6c-2.2 0-4 1.8-4 4s1.8 4 4 4c2.3 0 4.1-1.8 4.1-4s-1.8-4-4.1-4" class="a"/><path d="M48.4 23h6.3c.5 0 .9-.4.9-.9 0-.4-.4-.8-.9-.8h-5.4v-2.9H54c.4 0 .8-.4.8-.9 0-.4-.4-.8-.8-.8h-4.7v-2.8h5.4c.4 0 .8-.4.8-.9s-.4-.8-.8-.8h-6.3c-.6 0-1 .4-1 .9V22c0 .6.4 1 1 1zm9.2-.9c0 .6.4 1 .9 1s.9-.4.9-1v-3.7c0-1.3.8-2 1.9-2 1.1 0 1.7.7 1.7 2v3.7c0 .6.5 1 1 1s.9-.4.9-1v-4.3c0-1.9-1.1-3.2-2.9-3.2-1.3 0-2 .7-2.6 1.5v-.4c0-.6-.4-1-.9-1s-.9.4-.9 1v6.4zm12.3 1c.5 0 .9 0 1.3-.2.3-.1.5-.4.5-.7 0-.4-.4-.8-.8-.8-.1 0-.2.1-.5.1-.6 0-1-.3-1-1.1v-4h1.5c.5 0 .8-.3.8-.8 0-.4-.3-.8-.8-.8h-1.5v-1.4c0-.5-.4-.9-.9-.9s-.9.4-.9.9v1.4h-.3c-.5 0-.9.4-.9.8 0 .5.4.8.9.8h.3v4.3c0 1.8.9 2.4 2.3 2.4zm3.6-1c0 .6.5 1 1 1s.9-.4.9-1v-2.4c0-1.9.9-2.9 2.3-3.2.4 0 .7-.4.7-.9s-.3-.9-.9-.9c-.8 0-1.6.8-2.1 1.8v-.8c0-.6-.4-1-.9-1-.6 0-1 .4-1 1v6.4zm7.6-3.8h4.2c-.1-1.2-.9-2.1-2.1-2.1-1.1 0-2 .9-2.1 2.1zm5.3 3.8c-.8.7-1.7 1.1-3 1.1-2.4 0-4.2-1.7-4.2-4.3 0-2.3 1.7-4.3 4-4.3 2.6 0 3.9 2.2 3.9 4.1 0 .5-.4.9-.9.9h-5.1c.2 1.3 1.1 2.1 2.3 2.1.8 0 1.5-.3 2-.8.1-.1.2-.1.5-.1.4 0 .7.3.7.7 0 .3-.1.5-.2.6zm6.3 3.4c-1.2 0-2.2-.2-3.2-.7-.3-.1-.5-.4-.5-.8s.3-.7.8-.7c.1 0 .2 0 .3 0 .8.5 1.6.7 2.5.7 1.7 0 2.6-.9 2.6-2.5v-.7c-.7.9-1.5 1.5-2.9 1.5-1.9 0-3.7-1.4-3.7-3.8s1.8-3.9 3.7-3.9c1.4 0 2.3.7 2.9 1.4v-.3c0-.6.4-1 .9-1 .6 0 1 .4 1 1v5.6c0 1.4-.4 2.4-1.1 3.1-.7.8-1.9 1.1-3.3 1.1zm.1-4.7c1.3 0 2.4-1 2.4-2.3 0-1.4-1.1-2.3-2.4-2.3-1.3 0-2.3.9-2.3 2.3 0 1.3 1 2.3 2.3 2.3zm9 2.4c-1.5 0-2.9-.9-2.9-2.6 0-1.8 1.4-2.6 3.4-2.6.9 0 1.5.1 2.2.3v-.2c0-1.1-.7-1.8-2.1-1.8-.7 0-1.3.2-1.8.4-.1 0-.2 0-.3 0-.4 0-.8-.3-.8-.8 0-.3.3-.6.5-.7.8-.3 1.6-.5 2.7-.5 1.2 0 2.1.3 2.7.9.6.6.9 1.5.9 2.5v4.1c0 .5-.4.9-.9.9-.6 0-.9-.4-.9-.8V22c-.6.6-1.5 1.2-2.7 1.2zm.5-1.4c1.3 0 2.2-.7 2.2-1.7v-.6c-.5-.2-1.1-.3-1.9-.3-1.2 0-1.9.5-1.9 1.3v.1c0 .8.7 1.2 1.6 1.2zm6.2.3c0 .6.4 1 1 1 .5 0 .9-.4.9-1v-3.7c0-1.3.7-2 1.8-2 1 0 1.6.7 1.6 1.9v3.8c0 .6.4 1 1 1 .5 0 .9-.4.9-1v-3.7c0-1.3.7-2 1.7-2 1.1 0 1.7.6 1.7 2v3.7c0 .6.4 1 .9 1 .6 0 1-.4 1-1v-4.3c0-2-1.1-3.2-2.9-3.2-1.2 0-2.1.6-2.8 1.5-.4-.9-1.2-1.5-2.4-1.5-1.3 0-2 .7-2.5 1.5v-.4c0-.6-.4-1-.9-1-.6 0-1 .4-1 1v6.4zm18.6 1.1c-2.5 0-4.3-1.9-4.3-4.2v-.1c0-2.3 1.9-4.3 4.4-4.3 2.5 0 4.3 2 4.3 4.3s-1.8 4.3-4.4 4.3zm.1-1.7c1.5 0 2.5-1.1 2.5-2.5v-.1c0-1.4-1.1-2.6-2.6-2.6s-2.4 1.2-2.4 2.6c0 1.4 1 2.6 2.5 2.6zm9 1.7c1.7 0 3.1-.9 3.1-2.6 0-1.5-1.4-2.1-2.6-2.4-.9-.3-1.8-.6-1.8-1.2 0-.5.4-.8 1.1-.8.6 0 1.3.2 2 .5.1.1.2.1.3.1.5 0 .8-.3.8-.7 0-.4-.2-.6-.4-.8-.8-.4-1.7-.6-2.6-.6-1.6 0-2.9.9-2.9 2.5s1.3 2.1 2.5 2.4c1 .3 1.9.5 1.9 1.2 0 .5-.5.9-1.3.9s-1.6-.3-2.4-.8c-.1-.1-.2-.1-.4-.1-.4 0-.7.3-.7.7 0 .3.1.6.3.7 1 .6 2.1 1 3.1 1zm11.1-4.9h4.2c-.2-1.2-.9-2.1-2.1-2.1-1.2 0-2 .9-2.1 2.1zm5.2 3.8c-.7.7-1.6 1.1-2.9 1.1-2.4 0-4.2-1.7-4.2-4.3 0-2.3 1.7-4.3 4-4.3 2.6 0 3.9 2.2 3.9 4.1 0 .5-.4.9-.9.9h-5.1c.2 1.3 1.1 2.1 2.3 2.1.8 0 1.4-.3 2-.8.1-.1.2-.1.5-.1.4 0 .7.3.7.7 0 .3-.1.5-.3.6zm2.7 0c0 .6.4 1 .9 1 .6 0 1-.4 1-1v-3.7c0-1.3.7-2 1.7-2 1.1 0 1.7.7 1.7 1.9v3.8c0 .6.4 1 .9 1 .6 0 1-.4 1-1v-3.7c0-1.3.7-2 1.7-2 1.1 0 1.7.6 1.7 2v3.7c0 .6.4 1 .9 1 .6 0 1-.4 1-1v-4.3c0-2-1.1-3.2-2.9-3.2-1.2 0-2.1.6-2.8 1.5-.4-.9-1.2-1.5-2.4-1.5-1.3 0-2 .7-2.5 1.5v-.4c0-.6-.4-1-1-1-.5 0-.9.4-.9 1v6.4z" class="a"/><path d="M51.7 41.2c.7 0 1.2-.1 1.7-.3.4-.2.7-.6.7-1.1 0-.7-.5-1.2-1.2-1.2 0 0-.2 0-.3 0-.7 0-.9-.3-.9-1v-4.3h1.2c.7 0 1.3-.6 1.3-1.2 0-.7-.6-1.3-1.3-1.3h-1.2v-1.3c0-.8-.7-1.4-1.5-1.4s-1.4.6-1.4 1.4v1.3h-.1c-.7 0-1.3.6-1.3 1.3 0 .6.6 1.2 1.3 1.2h.1v4.8c0 2.4 1.2 3.1 2.9 3.1zm9.2 0c-3.2 0-5.5-2.3-5.5-5.2v-.1c0-2.9 2.4-5.3 5.5-5.3 3.2 0 5.5 2.4 5.5 5.3 0 3-2.3 5.3-5.5 5.3zm0-2.5c1.7 0 2.7-1.2 2.7-2.7v-.1c0-1.5-1.1-2.8-2.7-2.8-1.7 0-2.7 1.3-2.7 2.8 0 1.5 1.1 2.8 2.7 2.8zm17.8-10.2v11.2c0 .8-.6 1.4-1.4 1.4-.8 0-1.4-.6-1.4-1.4v-.2c-.7 1-1.7 1.7-3.2 1.7-2.4 0-4.6-1.9-4.6-5.3s2.2-5.3 4.6-5.3c1.5 0 2.5.7 3.2 1.5v-3.6c0-.8.6-1.5 1.4-1.5.8 0 1.4.7 1.4 1.5zm-5.3 4.6c-1.3 0-2.5 1.1-2.5 2.8 0 1.7 1.2 2.8 2.5 2.8 1.4 0 2.5-1.1 2.5-2.8 0-1.7-1.1-2.8-2.5-2.8zm12.9 8.1c-3.1 0-5.5-2.3-5.5-5.2v-.1c0-2.9 2.4-5.3 5.6-5.3 3.1 0 5.5 2.4 5.5 5.3 0 3-2.4 5.3-5.6 5.3zm.1-2.5c1.6 0 2.6-1.2 2.6-2.7v-.1c0-1.5-1.1-2.8-2.7-2.8s-2.6 1.3-2.6 2.8c0 1.5 1.1 2.8 2.7 2.8zm18.2 2.5c-3.1 0-5.4-2.3-5.4-5.2v-.1c0-2.9 2.3-5.3 5.5-5.3 3.1 0 5.5 2.4 5.5 5.3 0 3-2.4 5.3-5.6 5.3zm.1-2.5c1.6 0 2.6-1.2 2.6-2.7v-.1c0-1.5-1.1-2.8-2.7-2.8s-2.6 1.3-2.6 2.8c0 1.5 1.1 2.8 2.7 2.8zm13.6.8V29.2c0-.9.6-1.5 1.4-1.5h4.7c1.6 0 2.8.4 3.5 1.2.6.6.9 1.3.9 2.2v.1c0 1.5-.8 2.3-1.7 2.8 1.5.6 2.5 1.5 2.5 3.3v.1c0 2.4-2 3.6-5 3.6h-4.9c-.8 0-1.4-.6-1.4-1.5zm2.8-6.4h2.7c1.3 0 2.1-.4 2.1-1.4v-.1c0-.8-.7-1.3-1.9-1.3h-2.9v2.8zm0 5.3h3.5c1.3 0 2.1-.4 2.1-1.4 0-.9-.7-1.5-2.2-1.5h-3.4v2.9zm10.6 1.3c0 .8.6 1.4 1.4 1.4.8 0 1.5-.6 1.5-1.4V37c0-2.1.8-3.2 2.3-3.5.5-.2 1-.6 1-1.4 0-.8-.5-1.4-1.4-1.4-.8 0-1.5.9-1.9 1.9v-.5c0-.8-.7-1.4-1.5-1.4s-1.4.6-1.4 1.4v7.6zm10.3 1.5c-1.9 0-3.5-1.1-3.5-3.1V38c0-2.2 1.7-3.2 4.1-3.2 1.1 0 1.8.2 2.5.4V35c0-1.2-.7-1.8-2.1-1.8-.8 0-1.5.1-2 .3-.2 0-.3 0-.5 0-.6 0-1.2-.5-1.2-1.1 0-.6.4-1 .8-1.2.9-.3 1.9-.5 3.3-.5 1.5 0 2.7.4 3.4 1.1.8.8 1.1 1.9 1.1 3.3v4.6c0 .8-.6 1.4-1.4 1.4-.8 0-1.4-.6-1.4-1.2-.7.8-1.7 1.3-3.1 1.3zm.9-2c1.4 0 2.3-.7 2.3-1.8v-.5c-.5-.2-1.2-.4-1.9-.4-1.2 0-2 .5-2 1.4v.1c0 .7.7 1.2 1.6 1.2zm11.1 2c2.2 0 3.9-1 3.9-3.3 0-1.9-1.7-2.6-3.1-3.1-1.1-.3-2.1-.6-2.1-1.2 0-.4.4-.7 1.1-.7.6 0 1.4.2 2.2.6.2.1.3.2.5.2.7 0 1.2-.5 1.2-1.2 0-.5-.3-.8-.7-1.1-1-.5-2.1-.7-3.2-.7-2 0-3.7 1.1-3.7 3.2 0 2 1.6 2.7 3.1 3.1 1.1.3 2.1.5 2.1 1.2 0 .5-.4.8-1.3.8-.8 0-1.7-.3-2.7-.9-.2-.1-.4-.2-.6-.2-.6 0-1.1.5-1.1 1.1 0 .5.2.8.5 1 1.3.8 2.6 1.2 3.9 1.2zm5.9-12.8c0 .9.7 1.4 1.6 1.4.9 0 1.6-.5 1.6-1.4 0-.9-.7-1.4-1.6-1.4-.9 0-1.6.5-1.6 1.4zm.2 11.3c0 .8.6 1.4 1.4 1.4.8 0 1.5-.6 1.5-1.4v-7.6c0-.8-.7-1.4-1.5-1.4s-1.4.6-1.4 1.4v7.6zm5.7 0c0 .8.7 1.4 1.5 1.4.7 0 1.4-.6 1.4-1.4V28.5c0-.8-.7-1.5-1.4-1.5-.8 0-1.5.7-1.5 1.5v11.2zm89.3-21.5c-1.6 0-2.8-.5-3.6-1.3-1-1-1.5-2.3-1.5-4.8 0-3.9 1.7-6.9 5.5-6.9 1.3 0 2.3.3 3 .7.5.3.8.7.8 1.2 0 .7-.6 1.3-1.4 1.3-.2 0-.4-.1-.6-.2-.6-.3-1.1-.5-1.9-.5-1.6 0-2.3 1.3-2.5 2.9.6-.4 1.3-.8 2.6-.8 2.5 0 4.4 1.4 4.4 4v.1c0 2.5-2.1 4.3-4.8 4.3zm-.1-2.4c1.4 0 2.2-.7 2.2-1.8s-.9-1.9-2.2-1.9c-1.4 0-2.2.8-2.2 1.8v.1c0 1 .8 1.8 2.2 1.8zm9.8-4.1c-1.8 0-3.1-1.4-3.1-3.2 0-1.8 1.3-3.2 3.1-3.2s3 1.4 3 3.1v.1c0 1.7-1.2 3.2-3 3.2zm-1.1 5.6c0-.3.1-.5.2-.6l8.1-11c.1-.3.4-.4.7-.4.5 0 .9.4.9.8 0 .3-.1.5-.2.6l-8.1 11c-.1.3-.4.4-.7.4-.5 0-.9-.4-.9-.8zm8.8.8c-1.8 0-3-1.4-3-3.1v-.1c0-1.8 1.2-3.2 3-3.2 1.9 0 3.1 1.4 3.1 3.2 0 1.8-1.3 3.2-3.1 3.2zm-7.7-8c.8 0 1.2-.8 1.2-1.6 0-.9-.5-1.6-1.2-1.6-.8 0-1.2.7-1.2 1.5v.1c0 .8.5 1.6 1.2 1.6zm7.7 6.4c.8 0 1.2-.7 1.2-1.5v-.1c0-.8-.5-1.6-1.2-1.6s-1.1.8-1.1 1.6c0 .9.4 1.6 1.1 1.6zm20.2-10.4v10.6c0 .8-.6 1.4-1.3 1.4-.8 0-1.4-.6-1.4-1.4v-.1c-.7.9-1.6 1.6-3 1.6-2.3 0-4.4-1.8-4.4-5 0-3.3 2.1-5 4.4-5 1.4 0 2.3.6 3 1.4V6.1c0-.7.6-1.3 1.4-1.3.7 0 1.3.6 1.3 1.3zm-5 4.4c-1.3 0-2.4 1-2.4 2.7 0 1.6 1.1 2.7 2.4 2.7 1.3 0 2.3-1.1 2.3-2.7s-1-2.7-2.3-2.7zm9.7 1.9h4.1c-.2-1.2-.9-2-2-2-1.2 0-1.9.8-2.1 2zm5.7 4.6c-.9.8-2 1.2-3.4 1.2-2.9 0-5-2-5-5 0-2.8 2-5 4.8-5 3.2 0 4.6 2.6 4.6 4.6 0 .8-.5 1.3-1.3 1.3h-5.4c.3 1.3 1.2 1.9 2.4 1.9.7 0 1.4-.2 1.9-.6.2-.2.4-.2.7-.2.6 0 1.1.4 1.1 1 0 .4-.2.7-.4.8zm18.2-10.9v10.6c0 .8-.6 1.4-1.4 1.4-.7 0-1.3-.6-1.3-1.4v-.1c-.7.9-1.6 1.6-3 1.6-2.3 0-4.4-1.8-4.4-5 0-3.3 2.1-5 4.4-5 1.4 0 2.3.6 3 1.4V6.1c0-.7.6-1.3 1.3-1.3.8 0 1.4.6 1.4 1.3zm-5 4.4c-1.3 0-2.4 1-2.4 2.7 0 1.6 1.1 2.7 2.4 2.7 1.2 0 2.3-1.1 2.3-2.7s-1.1-2.7-2.3-2.7zm9.7 1.9h4.1c-.2-1.2-.9-2-2-2-1.2 0-1.9.8-2.1 2zm5.7 4.6c-.9.8-2 1.2-3.4 1.2-2.9 0-5-2-5-5 0-2.8 1.9-5 4.8-5 3.2 0 4.6 2.6 4.6 4.6 0 .8-.6 1.3-1.3 1.3H326c.3 1.3 1.1 1.9 2.4 1.9.7 0 1.3-.2 1.9-.6.2-.2.4-.2.7-.2.6 0 1 .4 1 1 0 .4-.1.7-.3.8zm6.5 1.2c2.1 0 3.7-1 3.7-3.1V15c0-1.7-1.6-2.4-3-2.8-1-.4-1.9-.6-1.9-1.2 0-.4.3-.7 1-.7.6 0 1.3.2 2.1.6.2.1.3.2.5.2.6 0 1.1-.5 1.1-1.1 0-.5-.3-.9-.7-1.1-.9-.4-1.9-.7-3-.7-1.9 0-3.5 1.1-3.5 3.1 0 1.9 1.5 2.5 2.9 2.9 1.1.3 2 .5 2 1.1v.1c0 .4-.4.7-1.2.7-.7 0-1.6-.3-2.6-.9-.1-.1-.3-.1-.5-.1-.6 0-1.1.4-1.1 1 0 .5.2.8.5 1 1.2.7 2.5 1.1 3.7 1.1zm10.2 0c1.6 0 2.6-.5 3.4-1.2.2-.2.4-.5.4-.9 0-.6-.5-1.2-1.2-1.2-.3 0-.6.2-.7.3-.5.4-1.1.7-1.8.7-1.5 0-2.4-1.2-2.4-2.7 0-1.5.9-2.7 2.3-2.7.7 0 1.2.3 1.7.6.2.2.4.3.8.3.7 0 1.2-.5 1.2-1.2 0-.5-.2-.8-.4-.9-.8-.7-1.8-1.1-3.3-1.1-2.9 0-5 2.2-5 5s2.1 5 5 5zm10.2 0c-3 0-5.2-2.2-5.2-5s2.2-5 5.2-5 5.2 2.2 5.2 5-2.2 5-5.2 5zm0-2.3c1.6 0 2.5-1.2 2.5-2.7 0-1.4-1-2.7-2.5-2.7-1.6 0-2.5 1.2-2.5 2.7 0 1.4 1 2.7 2.5 2.7zm7.2.8c0 .8.6 1.4 1.4 1.4.7 0 1.3-.6 1.3-1.4v-4.1c0-1.3.7-1.9 1.7-1.9 1.1 0 1.7.6 1.7 1.9v4.1c0 .8.6 1.4 1.4 1.4.7 0 1.3-.6 1.3-1.4v-4.9c0-2.3-1.2-3.6-3.3-3.6-1.3 0-2.1.7-2.8 1.5v-.1c0-.7-.6-1.4-1.3-1.4-.8 0-1.4.7-1.4 1.4v7.1zm14.5 1.5c.6 0 1-.1 1.5-.3.4-.2.7-.5.7-1 0-.7-.5-1.2-1.1-1.2-.1 0-.2.1-.3.1-.6 0-.9-.4-.9-1v-4.1h1.2c.6 0 1.2-.5 1.2-1.2 0-.6-.6-1.1-1.2-1.1h-1.2V7.1c0-.7-.6-1.3-1.4-1.3-.7 0-1.4.6-1.4 1.3v1.3c-.7 0-1.2.5-1.2 1.1 0 .7.5 1.2 1.2 1.2v4.6c0 2.2 1.2 2.9 2.9 2.9zm8.6 0c-3 0-5.2-2.2-5.2-5s2.3-5 5.3-5 5.2 2.2 5.2 5-2.3 5-5.3 5zm.1-2.3c1.5 0 2.5-1.2 2.5-2.7 0-1.4-1.1-2.7-2.6-2.7s-2.5 1.2-2.5 2.7c0 1.4 1.1 2.7 2.6 2.7z" class="b"/><path d="M250 30.6c0 .4.3.8.8.8.4 0 .8-.4.8-.8v-3.2c0-1.1.6-1.7 1.5-1.7s1.5.6 1.5 1.7v3.2c0 .4.3.8.8.8.4 0 .8-.4.8-.8v-3.7c0-1.6-.9-2.6-2.5-2.6-1.1 0-1.7.5-2.1 1.2v-.4c0-.4-.4-.8-.8-.8-.5 0-.8.4-.8.8v5.5zm11.3.8c-2.1 0-3.6-1.6-3.6-3.5 0-2 1.5-3.6 3.6-3.6s3.7 1.6 3.7 3.5v.1c0 1.9-1.6 3.5-3.7 3.5zm0-1.3c1.3 0 2.1-1 2.1-2.2 0-1.2-.9-2.2-2.1-2.2-1.2 0-2.1.9-2.1 2.1v.1c0 1.2.9 2.2 2.1 2.2zm9.2.5v-8.1c0-.4.3-.8.8-.8.4 0 .8.4.8.8v3.1c.5-.7 1.2-1.3 2.3-1.3 1.6 0 3.2 1.3 3.2 3.5v.1c0 2.2-1.6 3.5-3.2 3.5-1.1 0-1.9-.5-2.3-1.2v.4c0 .4-.4.8-.8.8-.5 0-.8-.4-.8-.8zm3.5-.5c1.1 0 2-.9 2-2.2v-.1c0-1.3-.9-2.2-2-2.2-1 0-2 .9-2 2.2v.1c0 1.3 1 2.2 2 2.2zm8.5 1.3c-2.1 0-3.7-1.6-3.7-3.5 0-2 1.6-3.6 3.7-3.6s3.7 1.6 3.7 3.5v.1c0 1.9-1.6 3.5-3.7 3.5zm0-1.3c1.3 0 2.1-1 2.1-2.2 0-1.2-.9-2.2-2.1-2.2-1.3 0-2.1.9-2.1 2.1v.1c0 1.2.9 2.2 2.1 2.2zm5.3.5c0 .4.4.8.8.8.5 0 .8-.4.8-.8v-8.1c0-.4-.3-.8-.8-.8-.4 0-.8.4-.8.8v8.1zm4.9-3.2h3.5c-.1-1-.7-1.8-1.8-1.8-.9 0-1.6.7-1.7 1.8zm4.4 3.1c-.6.6-1.4.9-2.5.9-2 0-3.5-1.4-3.5-3.5 0-2 1.4-3.6 3.3-3.6 2.2 0 3.3 1.8 3.3 3.4 0 .4-.3.7-.7.7h-4.3c.1 1.1.9 1.8 1.9 1.8.7 0 1.2-.3 1.7-.6.1-.1.2-.2.4-.2.3 0 .6.3.6.7 0 .1-.1.3-.2.4zm4.5.9c.4 0 .8-.1 1.1-.2.2-.1.4-.3.4-.6 0-.4-.3-.6-.6-.6-.1 0-.3 0-.4 0-.6 0-.9-.2-.9-.9v-3.3h1.3c.3 0 .6-.3.6-.7 0-.4-.3-.7-.6-.7h-1.3v-1.1c0-.5-.3-.8-.8-.8-.4 0-.8.3-.8.8v1.1h-.2c-.4 0-.7.3-.7.7 0 .4.3.7.7.7h.2v3.6c0 1.5.9 2 2 2zm6.1 0c-2.1 0-3.6-1.6-3.6-3.5 0-2 1.6-3.6 3.7-3.6s3.6 1.6 3.6 3.5v.1c0 1.9-1.5 3.5-3.7 3.5zm.1-1.3c1.2 0 2-1 2-2.2 0-1.2-.8-2.2-2.1-2.2-1.2 0-2 .9-2 2.1v.1c0 1.2.8 2.2 2.1 2.2zm9.1.5v-8.1c0-.4.4-.8.8-.8s.8.4.8.8v3.1c.5-.7 1.2-1.3 2.3-1.3 1.6 0 3.2 1.3 3.2 3.5v.1c0 2.2-1.5 3.5-3.2 3.5-1.1 0-1.8-.5-2.3-1.2v.4c0 .4-.4.8-.8.8s-.8-.4-.8-.8zm3.5-.5c1.1 0 2-.9 2-2.2v-.1c0-1.3-.9-2.2-2-2.2-1 0-2 .9-2 2.2v.1c0 1.3 1 2.2 2 2.2zm7.2 1.3c-1.3 0-2.4-.7-2.4-2.1 0-1.5 1.1-2.2 2.8-2.2.8 0 1.3.1 1.9.3v-.2c0-1-.6-1.5-1.7-1.5-.6 0-1.1.1-1.6.3-.1 0-.1 0-.2 0-.4 0-.7-.3-.7-.6s.2-.6.5-.7c.6-.2 1.3-.4 2.2-.4 1 0 1.8.3 2.2.8.5.5.8 1.2.8 2.1v3.4c0 .4-.4.8-.8.8s-.8-.4-.8-.7v-.3c-.4.6-1.1 1-2.2 1zm.5-1.1c1 0 1.8-.6 1.8-1.5v-.5c-.4-.1-.9-.2-1.6-.2-1 0-1.6.4-1.6 1.1 0 .7.6 1.1 1.4 1.1zm5.2.3c0 .4.3.8.7.8.5 0 .8-.4.8-.8v-3.2c0-1.1.7-1.7 1.6-1.7.9 0 1.5.6 1.5 1.7v3.2c0 .4.3.8.7.8.5 0 .8-.4.8-.8v-3.7c0-1.6-.9-2.6-2.4-2.6-1.1 0-1.7.5-2.2 1.2v-.4c0-.4-.3-.8-.8-.8-.4 0-.7.4-.7.8v5.5zm11.2.8c1.1 0 1.9-.3 2.5-.9.1-.2.2-.3.2-.5 0-.4-.3-.7-.7-.7-.1 0-.3.1-.4.2-.4.3-.9.6-1.5.6-1.2 0-2.1-1-2.1-2.2v-.1c0-1.2.9-2.1 2-2.1.6 0 1.1.2 1.5.5.1.1.3.2.4.2.5 0 .8-.3.8-.7 0-.3-.2-.5-.3-.6-.6-.5-1.3-.8-2.4-.8-2 0-3.6 1.6-3.6 3.6 0 1.9 1.6 3.5 3.6 3.5zm6.2 0c-1.3 0-2.4-.7-2.4-2.1 0-1.5 1.2-2.2 2.8-2.2.8 0 1.3.1 1.9.3v-.2c0-1-.6-1.5-1.7-1.5-.6 0-1.1.1-1.5.3-.1 0-.2 0-.3 0-.4 0-.7-.3-.7-.6s.2-.6.5-.7c.6-.2 1.3-.4 2.2-.4 1 0 1.8.3 2.3.8.5.5.7 1.2.7 2.1v3.4c0 .4-.3.8-.8.8-.4 0-.7-.4-.7-.7v-.3c-.5.6-1.2 1-2.3 1zm.5-1.1c1 0 1.8-.6 1.8-1.5v-.5c-.4-.1-.9-.2-1.6-.2-1 0-1.6.4-1.6 1.1 0 .7.6 1.1 1.4 1.1zm.3-6.7c.4 0 .7 0 1-.3l.8-.9c.2-.1.3-.2.3-.4s-.6-.5-1-.5c-.2 0-.5.2-.6.4l-.7 1.2c-.1 0-.1.2-.1.2 0 .2.1.3.3.3zm4.9 7c0 .4.3.8.8.8.4 0 .8-.4.8-.8v-2.1c0-1.6.7-2.4 1.8-2.6.4-.1.7-.4.7-.8s-.3-.8-.8-.8c-.7 0-1.4.7-1.7 1.5v-.7c0-.4-.4-.8-.8-.8-.5 0-.8.4-.8.8v5.5zm5.3-7.9c0 .4.4.7.9.7s.9-.3.9-.7v-.1c0-.5-.4-.8-.9-.8s-.9.3-.9.8v.1zm.1 7.9c0 .4.4.8.8.8.5 0 .8-.4.8-.8v-5.5c0-.4-.3-.8-.8-.8-.4 0-.8.4-.8.8v5.5zm6.9.8c-2.1 0-3.6-1.6-3.6-3.5 0-2 1.6-3.6 3.7-3.6s3.6 1.6 3.6 3.5v.1c0 1.9-1.6 3.5-3.7 3.5zm.1-1.3c1.2 0 2-1 2-2.2 0-1.2-.8-2.2-2.1-2.2-1.2 0-2 .9-2 2.1v.1c0 1.2.8 2.2 2.1 2.2zm12.4 1.3c-2.1 0-3.7-1.6-3.7-3.5 0-2 1.6-3.6 3.7-3.6s3.7 1.6 3.7 3.5v.1c0 1.9-1.6 3.5-3.7 3.5zm0-1.3c1.3 0 2.1-1 2.1-2.2 0-1.2-.9-2.2-2.1-2.2-1.3 0-2.1.9-2.1 2.1v.1c0 1.2.9 2.2 2.1 2.2zm11.3-5c0-.4-.3-.8-.7-.8-.5 0-.8.4-.8.8v3.2c0 1.1-.7 1.7-1.6 1.7-.9 0-1.5-.6-1.5-1.7v-3.2c0-.4-.3-.8-.7-.8-.5 0-.8.4-.8.8v3.7c0 1.6.9 2.6 2.4 2.6 1.1 0 1.7-.5 2.2-1.2v.4c0 .4.3.8.8.8.4 0 .7-.4.7-.8v-5.5zM252.3 44.4c.4 0 .7-.1 1.1-.2.2-.1.4-.3.4-.6 0-.4-.3-.6-.7-.6 0 0-.2 0-.4 0-.5 0-.8-.2-.8-.9v-3.3h1.2c.4 0 .7-.3.7-.7 0-.4-.3-.7-.7-.7h-1.2v-1.1c0-.5-.4-.8-.8-.8s-.8.3-.8.8v1.1h-.2c-.4 0-.7.3-.7.7 0 .4.3.7.7.7h.2v3.6c0 1.5.8 2 2 2zm3-.8c0 .4.4.8.8.8.5 0 .8-.4.8-.8v-2.1c0-1.6.8-2.4 1.9-2.6.3-.1.6-.4.6-.8s-.3-.8-.8-.8c-.7 0-1.3.7-1.7 1.5v-.7c0-.4-.3-.8-.8-.8-.4 0-.8.4-.8.8v5.5zm7.1.8c-1.3 0-2.5-.7-2.5-2.1 0-1.5 1.2-2.2 2.9-2.2.7 0 1.3.1 1.8.3v-.2c0-1-.6-1.5-1.7-1.5-.6 0-1.1.1-1.5.3-.1 0-.2 0-.3 0-.3 0-.6-.3-.6-.6s.2-.6.4-.7c.6-.2 1.3-.4 2.2-.4 1 0 1.8.3 2.3.8.5.5.7 1.2.7 2.1v3.4c0 .4-.3.8-.7.8-.5 0-.8-.4-.8-.7v-.3c-.5.6-1.2 1-2.2 1zm.4-1.1c1 0 1.8-.6 1.8-1.5v-.5c-.4-.1-.9-.2-1.5-.2-1 0-1.6.4-1.6 1.1 0 .7.5 1.1 1.3 1.1zm5.2.3c0 .4.4.8.8.8s.8-.4.8-.8v-3.2c0-1.1.6-1.7 1.5-1.7 1 0 1.5.6 1.5 1.7v3.2c0 .4.3.8.8.8.4 0 .8-.4.8-.8v-3.7c0-1.6-.9-2.6-2.5-2.6-1 0-1.7.5-2.1 1.2v-.4c0-.4-.4-.8-.8-.8-.5 0-.8.4-.8.8v5.5zm10.4.8c1.4 0 2.6-.7 2.6-2.1v-.1c0-1.2-1.2-1.7-2.2-2-.8-.2-1.5-.4-1.5-.9v-.1c0-.4.3-.6 1-.6.4 0 1 .1 1.6.4.1.1.1.1.3.1.3 0 .6-.3.6-.6s-.1-.5-.4-.6c-.6-.4-1.4-.6-2.1-.6-1.4 0-2.5.8-2.5 2.1s1.2 1.8 2.2 2c.8.3 1.5.5 1.5 1s-.4.8-1 .8c-.7 0-1.4-.3-2-.7-.1 0-.2-.1-.4-.1-.3 0-.6.3-.6.7 0 .2.1.4.3.5.8.5 1.7.8 2.6.8zm4.5-.8c0 .4.4.8.8.8.5 0 .8-.4.8-.8v-4.8h1.2c.4 0 .7-.3.7-.7 0-.3-.3-.6-.7-.6h-1.2v-.4c0-.7.3-1 .9-1 .1 0 .2 0 .3 0 .4 0 .7-.3.7-.7 0-.3-.3-.6-.6-.6-.2-.1-.5-.1-.8-.1-.6 0-1.1.2-1.5.6-.4.3-.6.9-.6 1.7v.5h-.2c-.4 0-.7.3-.7.6 0 .4.3.7.7.7h.2v4.8zm5.6-3.2h3.5c-.1-1-.7-1.8-1.7-1.8s-1.6.7-1.8 1.8zm4.5 3.1c-.7.6-1.5.9-2.5.9-2 0-3.5-1.4-3.5-3.5 0-2 1.4-3.6 3.3-3.6 2.2 0 3.3 1.8 3.3 3.4 0 .4-.4.7-.8.7h-4.3c.2 1.1 1 1.8 2 1.8.7 0 1.2-.3 1.6-.6.2-.1.3-.2.4-.2.4 0 .7.3.7.7 0 .1-.1.3-.2.4zm2.2.1c0 .4.3.8.8.8.4 0 .8-.4.8-.8v-2.1c0-1.6.7-2.4 1.8-2.6.4-.1.7-.4.7-.8s-.3-.8-.8-.8c-.7 0-1.4.7-1.7 1.5v-.7c0-.4-.4-.8-.8-.8-.5 0-.8.4-.8.8v5.5zm8.1-7.9l.6.6c.4.3.6.3 1 .3.2 0 .4-.1.4-.2s-.1-.3-.2-.4l-.8-1c-.2-.3-.4-.4-.8-.4h-.5c-.3 0-.5.1-.7.4l-.9 1c0 .1-.1.3-.1.4 0 .1.1.2.3.2.4 0 .6 0 1-.3l.7-.6zm-1.8 4.7h3.5c-.1-1-.7-1.8-1.7-1.8s-1.6.7-1.8 1.8zm4.4 3.1c-.6.6-1.4.9-2.4.9-2 0-3.6-1.4-3.6-3.5 0-2 1.4-3.6 3.4-3.6 2.2 0 3.3 1.8 3.3 3.4 0 .4-.4.7-.8.7h-4.3c.2 1.1 1 1.8 2 1.8.7 0 1.2-.3 1.6-.6.1-.1.2-.2.4-.2.4 0 .6.3.6.7 0 .1 0 .3-.2.4zm2.3.1c0 .4.3.8.8.8.4 0 .7-.4.7-.8v-3.2c0-1.1.7-1.7 1.6-1.7.9 0 1.5.6 1.5 1.7v3.2c0 .4.3.8.8.8.4 0 .7-.4.7-.8v-3.7c0-1.6-.9-2.6-2.4-2.6-1.1 0-1.7.5-2.2 1.2v-.4c0-.4-.3-.8-.7-.8-.5 0-.8.4-.8.8v5.5zm11.2.8c1.2 0 1.9-.3 2.5-.9.1-.2.2-.3.2-.5 0-.4-.3-.7-.7-.7-.1 0-.3.1-.4.2-.4.3-.9.6-1.5.6-1.2 0-2.1-1-2.1-2.2v-.1c0-1.2.9-2.1 2-2.1.6 0 1.1.2 1.5.5.1.1.3.2.5.2.4 0 .7-.3.7-.7 0-.3-.2-.5-.3-.6-.5-.5-1.3-.8-2.4-.8-2 0-3.5 1.6-3.5 3.6 0 1.9 1.5 3.5 3.5 3.5zm4.2-8.7c0 .4.4.7.9.7s.9-.3.9-.7v-.1c0-.5-.4-.8-.9-.8s-.9.3-.9.8v.1zm.2 7.9c0 .4.3.8.7.8.5 0 .8-.4.8-.8v-5.5c0-.4-.3-.8-.8-.8-.4 0-.7.4-.7.8v5.5zm5.6.8c-1.3 0-2.5-.7-2.5-2.1 0-1.5 1.2-2.2 2.9-2.2.7 0 1.3.1 1.8.3v-.2c0-1-.6-1.5-1.7-1.5-.6 0-1.1.1-1.5.3-.1 0-.2 0-.3 0-.3 0-.6-.3-.6-.6s.2-.6.4-.7c.6-.2 1.3-.4 2.2-.4 1 0 1.8.3 2.3.8.5.5.7 1.2.7 2.1v3.4c0 .4-.3.8-.7.8-.5 0-.8-.4-.8-.7v-.3c-.5.6-1.2 1-2.2 1zm.4-1.1c1 0 1.8-.6 1.8-1.5v-.5c-.4-.1-.9-.2-1.5-.2-1 0-1.6.4-1.6 1.1 0 .7.5 1.1 1.3 1.1zm9.1.3v-8.1c0-.4.3-.8.8-.8.4 0 .8.4.8.8v3.1c.5-.7 1.2-1.3 2.3-1.3 1.6 0 3.2 1.3 3.2 3.5v.1c0 2.2-1.6 3.5-3.2 3.5-1.1 0-1.8-.5-2.3-1.2v.4c0 .4-.4.8-.8.8s-.8-.4-.8-.8zm3.5-.5c1.1 0 2-.9 2-2.2v-.1c0-1.3-.9-2.2-2-2.2-1 0-2 .9-2 2.2v.1c0 1.3 1 2.2 2 2.2zm7.2 1.3c-1.3 0-2.4-.7-2.4-2.1 0-1.5 1.1-2.2 2.8-2.2.8 0 1.3.1 1.9.3v-.2c0-1-.6-1.5-1.7-1.5-.6 0-1.1.1-1.6.3-.1 0-.1 0-.2 0-.4 0-.7-.3-.7-.6s.2-.6.5-.7c.6-.2 1.3-.4 2.2-.4 1 0 1.8.3 2.2.8.5.5.8 1.2.8 2.1v3.4c0 .4-.4.8-.8.8s-.8-.4-.8-.7v-.3c-.4.6-1.1 1-2.2 1zm.4-1.1c1.1 0 1.9-.6 1.9-1.5v-.5c-.4-.1-1-.2-1.6-.2-1 0-1.6.4-1.6 1.1 0 .7.6 1.1 1.3 1.1zm5.3.3c0 .4.3.8.7.8.5 0 .8-.4.8-.8v-3.2c0-1.1.7-1.7 1.6-1.7.9 0 1.5.6 1.5 1.7v3.2c0 .4.3.8.7.8.5 0 .8-.4.8-.8v-3.7c0-1.6-.9-2.6-2.4-2.6-1.1 0-1.7.5-2.2 1.2v-.4c0-.4-.3-.8-.8-.8-.4 0-.7.4-.7.8v5.5zm11.2.8c1.1 0 1.9-.3 2.5-.9.1-.2.2-.3.2-.5 0-.4-.3-.7-.7-.7-.1 0-.3.1-.4.2-.4.3-.9.6-1.5.6-1.2 0-2.1-1-2.1-2.2v-.1c0-1.2.9-2.1 2-2.1.6 0 1.1.2 1.5.5.1.1.2.2.4.2.4 0 .8-.3.8-.7 0-.3-.2-.5-.3-.6-.6-.5-1.3-.8-2.4-.8-2 0-3.6 1.6-3.6 3.6 0 1.9 1.6 3.5 3.6 3.5zm6.2 0c-1.3 0-2.4-.7-2.4-2.1 0-1.5 1.1-2.2 2.8-2.2.8 0 1.3.1 1.9.3v-.2c0-1-.6-1.5-1.7-1.5-.6 0-1.1.1-1.6.3 0 0-.1 0-.2 0-.4 0-.7-.3-.7-.6s.2-.6.5-.7c.6-.2 1.3-.4 2.2-.4 1 0 1.8.3 2.3.8.5.5.7 1.2.7 2.1v3.4c0 .4-.3.8-.8.8-.4 0-.7-.4-.7-.7v-.3c-.5.6-1.2 1-2.3 1zm.5-1.1c1 0 1.8-.6 1.8-1.5v-.5c-.4-.1-.9-.2-1.6-.2-1 0-1.6.4-1.6 1.1 0 .7.6 1.1 1.4 1.1zm.3-6.7c.4 0 .7 0 1-.3l.8-.9c.2-.1.3-.2.3-.4s-.6-.5-1-.5c-.3 0-.5.2-.6.4l-.7 1.2c-.1 0-.1.2-.1.2 0 .2.1.3.3.3zm4.9 7c0 .4.3.8.8.8.4 0 .7-.4.7-.8v-2.1c0-1.6.8-2.4 1.9-2.6.4-.1.7-.4.7-.8s-.3-.8-.8-.8c-.7 0-1.4.7-1.8 1.5v-.7c0-.4-.3-.8-.7-.8-.5 0-.8.4-.8.8v5.5zm5.3-7.9c0 .4.4.7.9.7s.9-.3.9-.7v-.1c0-.5-.4-.8-.9-.8s-.9.3-.9.8v.1zm.1 7.9c0 .4.4.8.8.8.5 0 .8-.4.8-.8v-5.5c0-.4-.3-.8-.8-.8-.4 0-.8.4-.8.8v5.5zm5.6.8c-1.2 0-2.4-.7-2.4-2.1 0-1.5 1.2-2.2 2.8-2.2.8 0 1.4.1 1.9.3v-.2c0-1-.6-1.5-1.7-1.5-.6 0-1.1.1-1.5.3-.1 0-.2 0-.3 0-.3 0-.6-.3-.6-.6s.1-.6.4-.7c.6-.2 1.3-.4 2.2-.4 1 0 1.8.3 2.3.8.5.5.7 1.2.7 2.1v3.4c0 .4-.3.8-.8.8-.4 0-.7-.4-.7-.7v-.3c-.5.6-1.2 1-2.3 1zm.5-1.1c1 0 1.8-.6 1.8-1.5v-.5c-.4-.1-.9-.2-1.5-.2-1.1 0-1.7.4-1.7 1.1 0 .7.6 1.1 1.4 1.1zm-156-9.7v-15c0-.5-.5-1-1-1s-.9.5-.9 1v15c0 .6.4 1 .9 1s1-.4 1-1zm-4.3-2.3V18.6c0-.5-.4-1-1-1-.5 0-.9.5-.9 1v12.7c0 .6.4 1 .9 1 .6 0 1-.4 1-1zm-3.1 0V18.6c0-.5-.5-1-1-1s-1 .5-1 1v12.7c0 .6.5 1 1 1s1-.4 1-1zm-3.5 2.5V18.6c0-.5-.4-1-.9-1s-1 .5-1 1v15.2c0 .6.5 1 1 1s.9-.4.9-1zm-3.9-2.5V18.6c0-.5-.5-1-1-1s-1 .5-1 1v12.7c0 .6.5 1 1 1s1-.4 1-1zm-4.3 0V18.6c0-.5-.4-1-1-1-.5 0-.9.5-.9 1v12.7c0 .6.4 1 .9 1 .6 0 1-.4 1-1zm-3.1 2.3v-15c0-.5-.5-1-1-1s-1 .5-1 1v15c0 .6.5 1 1 1s1-.4 1-1zM208 13.9c-.6 0-1.1.5-1.1 1.1v22.2c0 .6.5 1.1 1.1 1.1h28c.6 0 1-.5 1-1.1V15c0-.6-.4-1.1-1-1.1h-28zm28 26.3h-28c-1.7 0-3-1.3-3-3V15c0-1.7 1.3-3 3-3h28c1.6 0 3 1.3 3 3v22.2c0 1.7-1.4 3-3 3zm465.7-24.3c0 .7.5 1.2 1.2 1.2.6 0 1.1-.5 1.1-1.2V8.6h2.2c.6 0 1.1-.4 1.1-1s-.5-1.1-1.1-1.1h-6.7c-.6 0-1.1.5-1.1 1.1 0 .6.5 1 1.1 1h2.2v7.3zm8.4 1.1h5.9c.6 0 1.1-.4 1.1-1s-.5-1.1-1.1-1.1h-4.7v-2.2h4c.6 0 1-.4 1-1 0-.5-.4-1-1-1h-4V8.6h4.7c.5 0 1-.5 1-1.1 0-.5-.5-1-1-1h-5.9c-.6 0-1.1.5-1.1 1.2v8.1c0 .7.5 1.2 1.1 1.2zm8.9-1.2c0 .7.5 1.2 1.2 1.2h5.4c.6 0 1.1-.5 1.1-1 0-.6-.5-1.1-1.1-1.1h-4.3V7.6c0-.7-.5-1.2-1.1-1.2-.7 0-1.2.5-1.2 1.2v8.2zm10.5 1.2h5.9c.5 0 1-.4 1-1s-.5-1.1-1-1.1h-4.8v-2.2h4c.6 0 1.1-.4 1.1-1 0-.5-.5-1-1.1-1h-4V8.6h4.7c.6 0 1-.5 1-1.1 0-.5-.4-1-1-1h-5.8c-.7 0-1.2.5-1.2 1.2v8.1c0 .7.5 1.2 1.2 1.2zm13 .2h.1c.7 0 1.1-.4 1.3-.9l3.5-8.3c0-.1.1-.3.1-.5 0-.6-.5-1.1-1.2-1.1-.5 0-.9.4-1.1.7l-2.6 6.9-2.6-6.8c-.2-.4-.6-.8-1.2-.8-.7 0-1.2.5-1.2 1.2 0 .1.1.3.2.5l3.4 8.2c.2.5.6.9 1.3.9zm7.9-.2h5.9c.6 0 1-.4 1-1s-.4-1.1-1-1.1h-4.7v-2.2h4c.5 0 1-.4 1-1 0-.5-.5-1-1-1h-4V8.6h4.6c.6 0 1.1-.5 1.1-1.1 0-.5-.5-1-1.1-1h-5.8c-.6 0-1.1.5-1.1 1.2v8.1c0 .7.5 1.2 1.1 1.2zm8.9-1c0 .6.5 1.1 1.1 1.1.7 0 1.2-.5 1.2-1.1v-5.7l4.6 6.1c.3.4.7.7 1.2.7h.1c.6 0 1.1-.5 1.1-1.2V7.6c0-.7-.5-1.2-1.1-1.2-.6 0-1.1.5-1.1 1.2V13l-4.5-5.9c-.3-.4-.6-.7-1.2-.7h-.2c-.7 0-1.2.6-1.2 1.2V16zm11.9-.2V7.7c0-.7.5-1.2 1.1-1.2h3c3.3 0 5.5 2.3 5.5 5.2v.1c0 2.9-2.2 5.2-5.5 5.2h-3c-.6 0-1.1-.5-1.1-1.2zm2.3-.9h1.8c1.8 0 3.1-1.3 3.1-3.1 0-1.9-1.3-3.2-3.1-3.2h-1.8v6.3zm8.2 1.1c0-.2.1-.3.2-.5l3.6-8.2c.3-.6.7-1 1.4-1h.1c.6 0 1.1.4 1.3 1l3.7 8.2c.1.2.1.3.1.5 0 .6-.5 1.1-1.1 1.1-.5 0-.9-.3-1.1-.8l-.7-1.7h-4.6l-.8 1.8c-.1.4-.5.7-1 .7-.6 0-1.1-.5-1.1-1.1zm3.7-3.4h2.9l-1.4-3.5-1.5 3.5zm12.2 4.6c2.3 0 3.8-1.2 3.8-3.3 0-1.9-1.2-2.6-3.3-3.2-1.8-.4-2.3-.7-2.3-1.4 0-.5.5-.9 1.4-.9.7 0 1.4.2 2.2.7.2.1.4.2.6.2.6 0 1.1-.5 1.1-1.1 0-.5-.3-.8-.5-.9-1-.6-2.1-.9-3.4-.9-2.1 0-3.6 1.2-3.6 3.1 0 2.1 1.3 2.7 3.4 3.3 1.8.4 2.1.7 2.1 1.3 0 .6-.5 1-1.5 1s-1.9-.3-2.7-.9c-.1-.1-.3-.2-.6-.2-.6 0-1.1.4-1.1 1 0 .4.2.7.4.9 1.2.8 2.6 1.3 4 1.3z" class="a"/><path d="M702.1 32.6c.4 0 .7-.4.7-.7 0-.3-.1-.5-.3-.6-1.4-1.1-2-2.1-2-3.7s.6-2.7 2-3.7c.2-.2.3-.4.3-.6 0-.4-.3-.8-.7-.8-.2 0-.3.1-.4.1-2 1.2-3 2.8-3 5 0 2.1 1 3.7 3 4.9.1 0 .2.1.4.1zm3.4-2.4c0 .5.4.9.9.9s.9-.4.9-.9v-6.8c0-.5-.4-.9-.9-.9-.3 0-.6 0-.9.1l-1.2.4c-.4.1-.6.4-.6.8s.4.8.8.8c.1 0 .2-.1.3-.1l.7-.1v5.8zm5 0c0 .5.4.9 1 .9.5 0 .9-.4.9-.9v-6.8c0-.5-.4-.9-.9-.9h-.1c-.2 0-.5 0-.8.1l-1.2.4c-.4.1-.6.4-.6.8s.3.8.8.8c.1 0 .2-.1.3-.1l.6-.1v5.8zm4.2 2.4c.2 0 .4-.1.4-.1 2-1.2 3-2.8 3-4.9 0-2.2-1-3.8-3-5 0 0-.2-.1-.4-.1-.4 0-.7.4-.7.8 0 .2.1.4.3.6 1.4 1 2 2.1 2 3.7 0 1.5-.6 2.6-2 3.7-.2.1-.3.3-.3.6s.3.7.7.7zm12.5-2.4v-1h-3.5c-.5 0-.9-.4-.9-.9 0-.3.2-.6.5-1l3.6-4.2c.4-.4.6-.6 1.2-.6.5 0 .8.4.8.8v4.4h.5c.4 0 .7.3.7.7 0 .5-.3.8-.7.8h-.5v1c0 .5-.3.9-.8.9s-.9-.4-.9-.9zm-2.2-2.5h2.2v-2.6l-2.2 2.6zm9.2 3.4c-1 0-1.6-.2-2.2-.6-.3-.1-.5-.4-.5-.7 0-.5.4-.9.9-.9.2 0 .3.1.5.2.4.2.8.4 1.3.4 1.1 0 1.6-.8 1.7-1.9-.4.3-.9.5-1.7.5-1.8 0-3-1-3-2.7 0-1.7 1.3-2.9 3.2-2.9 1.2 0 1.8.2 2.5.9.6.6 1 1.5 1 3.1v.1c0 2.7-1.3 4.5-3.7 4.5zm.3-4.5c.9 0 1.5-.5 1.5-1.3 0-.7-.6-1.3-1.5-1.3s-1.4.6-1.4 1.3c0 .8.5 1.3 1.4 1.3zm7.6 4.5c-.9 0-1.6-.2-2.2-.6-.2-.1-.4-.4-.4-.7 0-.5.4-.9.8-.9.2 0 .4.1.5.2.5.2.8.4 1.4.4 1 0 1.6-.8 1.7-1.9-.4.3-1 .5-1.7.5-1.9 0-3-1-3-2.7 0-1.7 1.3-2.9 3.2-2.9 1.1 0 1.8.2 2.4.9.6.6 1 1.5 1 3.1v.1c0 2.7-1.3 4.5-3.7 4.5zm.4-4.5c.9 0 1.4-.5 1.4-1.3 0-.7-.5-1.3-1.5-1.3-.9 0-1.4.6-1.4 1.3 0 .8.6 1.3 1.5 1.3zm8.7 3.6v-1h-3.4c-.5 0-.9-.4-.9-.9 0-.3.1-.6.4-1l3.6-4.2c.4-.4.7-.6 1.2-.6s.9.4.9.8v4.4h.4c.4 0 .8.3.8.7 0 .5-.4.8-.8.8h-.4v1c0 .5-.4.9-.9.9s-.9-.4-.9-.9zm-2.2-2.5h2.2v-2.6l-2.2 2.6zm7.1.5h2.1c.5 0 .9-.4.9-.9s-.4-.9-.9-.9h-2.1c-.5 0-.9.4-.9.9s.4.9.9.9zm7.1 2.9c1.9 0 3-1.1 3-2.7s-1.1-2.2-2.2-2.4l1.6-1.6c.4-.3.6-.5.6-1s-.4-.8-1-.8h-4c-.5 0-.8.4-.8.8s.3.8.8.8h2.5l-1.6 1.6c-.3.3-.4.5-.4.8 0 .4.4.8.8.8h.3c1 0 1.6.4 1.6 1v.1c0 .6-.5 1-1.2 1-.6 0-1.1-.2-1.6-.6-.1-.2-.3-.3-.6-.3-.5 0-.9.4-.9.9 0 .3.2.5.3.7.7.6 1.6.9 2.8.9zm7.4 0c1.8 0 3.1-1.1 3.1-2.9 0-1.9-1.3-2.7-2.9-2.7-.5 0-.8.1-1.1.2l.1-1.5h2.8c.5 0 .8-.3.8-.8 0-.4-.3-.8-.8-.8H769c-.5 0-.8.3-.8.8l-.2 2.8c0 .3.1.6.3.8.4.2.6.4.9.4.2 0 .5-.3 1.2-.3.9 0 1.5.5 1.5 1.2s-.6 1.2-1.3 1.2c-.6 0-1.1-.2-1.6-.6-.2-.1-.3-.1-.5-.1-.5 0-.9.4-.9.8s.1.6.4.8c.6.4 1.4.7 2.6.7zm7.6 0c1.8 0 3.1-1.1 3.1-2.9 0-1.9-1.3-2.7-2.9-2.7-.5 0-.8.1-1.2.2l.1-1.5h2.9c.4 0 .8-.3.8-.8 0-.4-.4-.8-.8-.8h-3.7c-.4 0-.8.3-.8.8l-.2 2.8c0 .3.1.6.4.8.4.2.6.4.8.4.3 0 .6-.3 1.3-.3.9 0 1.5.5 1.5 1.2s-.6 1.2-1.4 1.2c-.6 0-1.1-.2-1.6-.6-.1-.1-.3-.1-.5-.1-.5 0-.9.4-.9.8s.2.6.4.8c.7.4 1.5.7 2.7.7zm7.5 0c1.9 0 3.2-1.1 3.2-2.9 0-1.9-1.3-2.7-3-2.7-.5 0-.8.1-1.1.2l.1-1.5h2.8c.5 0 .9-.3.9-.8 0-.4-.4-.8-.9-.8h-3.6c-.5 0-.8.3-.8.8l-.2 2.8c0 .3.1.6.3.8.4.2.6.4.9.4.2 0 .5-.3 1.3-.3s1.4.5 1.4 1.2-.5 1.2-1.3 1.2c-.6 0-1.1-.2-1.6-.6-.2-.1-.3-.1-.5-.1-.5 0-.9.4-.9.8s.2.6.4.8c.7.4 1.5.7 2.6.7zm10.8 0c.9 0 1.5-.3 2-.6.3-.1.4-.4.4-.7v-1.4c0-.4-.3-.6-.6-.6h-1.4c-.3 0-.5.2-.5.5s.2.5.5.5h.8v.8c-.3.3-.7.4-1.1.4-1 0-1.7-.8-1.7-1.8s.7-1.8 1.6-1.8c.5 0 .9.2 1.2.4.1.1.2.2.4.2.3 0 .6-.3.6-.7 0-.2-.1-.4-.3-.5-.5-.3-1-.5-1.9-.5-1.7 0-2.9 1.3-2.9 2.9 0 1.7 1.2 2.9 2.9 2.9zm3.6-.7V26c0-.3.3-.6.6-.6h2c.7 0 1.2.2 1.6.6.3.3.5.7.5 1.2v.1c0 .8-.5 1.4-1.1 1.7l.8 1c.1.2.2.3.2.5 0 .3-.3.5-.6.5s-.4-.1-.6-.3l-1.2-1.5h-1v1.2c0 .4-.2.6-.6.6-.3 0-.6-.2-.6-.6zm1.2-2.3h1.3c.6 0 .9-.3.9-.8s-.3-.8-.9-.8h-1.3v1.6zm4.2 2.4c0-.1 0-.2.1-.3l1.9-4.4c.2-.3.4-.5.7-.5h.1c.4 0 .6.2.7.5l2 4.4c0 .1 0 .2 0 .3 0 .3-.2.5-.5.5s-.5-.1-.6-.4l-.4-.9H807l-.4 1c-.1.2-.3.3-.5.3-.3 0-.6-.2-.6-.5zm2-1.8h1.5l-.7-1.9-.8 1.9zm4.5 1.7c0 .4.3.6.6.6.4 0 .6-.2.6-.6v-3l2.5 3.3c.2.2.3.3.6.3h.1c.3 0 .6-.2.6-.6V26c0-.4-.3-.6-.6-.6-.4 0-.6.2-.6.6v2.8l-2.4-3.1c-.2-.2-.3-.3-.6-.3h-.2c-.3 0-.6.2-.6.6v4.4zm6.3 0V26c0-.3.3-.6.7-.6h1.5c1.8 0 3 1.2 3 2.8 0 1.6-1.2 2.8-3 2.8H819c-.4 0-.7-.3-.7-.6zm1.3-.5h.9c1 0 1.7-.7 1.7-1.7s-.7-1.7-1.7-1.7h-.9v3.4zm5.6 1.1h3.2c.3 0 .5-.2.5-.5s-.2-.6-.5-.6h-2.6v-1.2h2.2c.3 0 .5-.2.5-.5s-.2-.6-.5-.6h-2.2v-1.1h2.5c.3 0 .6-.2.6-.5 0-.4-.3-.6-.6-.6h-3.1c-.3 0-.6.3-.6.6v4.4c0 .3.3.6.6.6zm9.1.1c1.3 0 2.1-.6 2.1-1.8 0-.9-.6-1.4-1.8-1.7-.9-.2-1.2-.3-1.2-.7 0-.3.3-.5.7-.5.4 0 .8.1 1.2.4.1 0 .2.1.3.1.3 0 .6-.3.6-.6 0-.2-.1-.4-.3-.5-.5-.3-1.1-.5-1.7-.5-1.2 0-2 .7-2 1.7 0 1.1.7 1.4 1.8 1.7 1 .3 1.2.4 1.2.7v.1c0 .3-.3.5-.8.5-.6 0-1-.2-1.5-.5 0-.1-.2-.1-.3-.1-.3 0-.6.2-.6.5 0 .2.1.4.2.5.7.5 1.4.7 2.1.7zm2.7-.6c0-.1.1-.2.1-.3l2-4.4c.1-.3.4-.5.7-.5h.1c.3 0 .5.2.7.5l1.9 4.4c.1.1.1.2.1.3 0 .3-.3.5-.6.5s-.5-.1-.6-.4l-.4-.9h-2.4l-.4 1c-.1.2-.3.3-.6.3s-.6-.2-.6-.5zm2-1.8h1.6l-.8-1.9-.8 1.9zm-.1-3.9c.1-.2.2-.2.4-.2.3 0 .7.3 1.2.3s.7-.3.9-.8c0-.1 0-.2 0-.2 0-.2-.1-.3-.3-.3-.2 0-.3 0-.3.1-.1.2-.2.3-.4.3-.3 0-.7-.3-1.2-.3s-.7.3-.9.7c0 .1 0 .2 0 .3 0 .1.1.3.3.3.2 0 .3-.1.3-.2zm7.2 6.3c-1.7 0-3-1.3-3-2.9 0-1.6 1.3-2.9 3-2.9s3 1.3 3 2.9c0 1.6-1.3 2.9-3 2.9zm0-1.1c1 0 1.7-.8 1.7-1.8s-.7-1.8-1.7-1.8-1.7.8-1.7 1.8.7 1.8 1.7 1.8zm6.5.4V26c0-.3.2-.6.6-.6h1.6c1.4 0 2.2.8 2.2 1.9v.1c0 1.2-1 1.9-2.3 1.9h-.9v1.1c0 .4-.3.6-.6.6-.4 0-.6-.2-.6-.6zm1.2-2.2h1c.6 0 .9-.3.9-.8 0-.6-.3-.9-1-.9h-.9v1.7zm3.3 2.3c0-.1.1-.2.1-.3l1.9-4.4c.2-.3.4-.5.8-.5s.6.2.7.5l2 4.4c0 .1.1.2.1.3 0 .3-.3.5-.6.5s-.5-.1-.6-.4l-.4-.9h-2.5l-.3 1c-.1.2-.4.3-.6.3-.3 0-.6-.2-.6-.5zm2-1.8h1.6l-.8-1.9-.8 1.9zm6.7 2.4c1.6 0 2.5-.8 2.5-2.5V26c0-.4-.3-.6-.6-.6-.4 0-.6.2-.6.6v2.6c0 .9-.5 1.4-1.2 1.4-.8 0-1.2-.5-1.2-1.4V26c0-.4-.3-.6-.7-.6-.3 0-.6.2-.6.6v2.6c0 1.6.9 2.5 2.4 2.5zm3.8-.7c0 .3.2.6.6.6h2.9c.3 0 .5-.2.5-.6 0-.3-.2-.5-.5-.5h-2.3V26c0-.4-.3-.6-.6-.6-.4 0-.6.2-.6.6v4.4zm7.3.7c-1.7 0-3-1.3-3-2.9 0-1.6 1.3-2.9 3-2.9 1.8 0 3 1.3 3 2.9 0 1.6-1.3 2.9-3 2.9zm0-1.1c1 0 1.7-.8 1.7-1.8s-.7-1.8-1.7-1.8-1.7.8-1.7 1.8.7 1.8 1.7 1.8zM702.4 46.1c-2.3 0-3.8-1.8-3.8-4.3 0-2.4 1.6-4.3 3.8-4.3 2.2 0 3.7 1.8 3.7 4.3 0 2.4-1.5 4.3-3.7 4.3zm0-1.6c1.1 0 1.8-1.2 1.8-2.7 0-1.5-.7-2.7-1.8-2.7s-1.9 1.1-1.9 2.7c0 1.5.8 2.7 1.9 2.7zm8.1 1.6c-1.8 0-3.2-.9-3.2-2.4 0-1 .5-1.6 1.4-2.1-.7-.4-1.1-.9-1.1-1.8 0-1.3 1.2-2.3 2.9-2.3 1.8 0 3 1 3 2.3 0 .9-.4 1.4-1.1 1.8.9.5 1.4 1 1.4 2 0 1.6-1.4 2.5-3.3 2.5zm0-5.1c.8 0 1.2-.4 1.2-1 0-.5-.4-1-1.2-1-.7 0-1.2.5-1.2 1 0 .6.5 1 1.2 1zm0 3.6c1 0 1.5-.5 1.5-1v-.1c0-.6-.6-1-1.5-1-.8 0-1.4.4-1.4 1v.1c0 .5.5 1 1.4 1zm8.2 1.5c-2.3 0-3.7-1.8-3.7-4.3 0-2.4 1.5-4.3 3.7-4.3s3.7 1.8 3.7 4.3c0 2.4-1.5 4.3-3.7 4.3zm0-1.6c1.1 0 1.8-1.2 1.8-2.7 0-1.5-.7-2.7-1.8-2.7s-1.8 1.1-1.8 2.7c0 1.5.7 2.7 1.8 2.7zm8.7 1.6c-2.2 0-3.7-1.8-3.7-4.3 0-2.4 1.5-4.3 3.8-4.3 2.2 0 3.7 1.8 3.7 4.3 0 2.4-1.5 4.3-3.8 4.3zm.1-1.6c1.1 0 1.8-1.2 1.8-2.7 0-1.5-.7-2.7-1.9-2.7-1.1 0-1.8 1.1-1.8 2.7 0 1.5.8 2.7 1.9 2.7zm9.4.7c0 .6.5.9 1 .9.3 0 .6-.2.9-.7l3.3-6.1c.2-.3.3-.6.3-.9 0-.5-.3-.8-.9-.8H737c-.5 0-.8.4-.8.8s.3.8.8.8h3.2l-3.1 5.5c-.1.1-.2.4-.2.5zm7.4 0c0 .6.5.9 1 .9.4 0 .6-.2.9-.7l3.4-6.1c.1-.3.2-.6.2-.9 0-.5-.3-.8-.8-.8h-4.6c-.4 0-.8.4-.8.8s.4.8.8.8h3.2l-3.1 5.5c-.1.1-.2.4-.2.5zm9.5.9c1.9 0 3-1.1 3-2.7s-1.1-2.2-2.2-2.4l1.6-1.6c.3-.3.6-.5.6-1s-.4-.8-1-.8h-4.1c-.4 0-.8.4-.8.8s.4.8.8.8h2.6l-1.6 1.6c-.3.3-.4.5-.4.8 0 .4.3.8.8.8h.3c1 0 1.6.4 1.6 1v.1c0 .6-.5 1-1.2 1-.6 0-1.2-.2-1.6-.6-.2-.2-.4-.3-.6-.3-.5 0-.9.4-.9.9 0 .3.1.5.3.7.7.6 1.6.9 2.8.9zm11 0c1.9 0 3.2-1.1 3.2-2.9 0-1.9-1.3-2.7-3-2.7-.4 0-.7.1-1.1.2l.1-1.5h2.8c.5 0 .9-.3.9-.8 0-.4-.4-.8-.9-.8h-3.6c-.4 0-.8.3-.8.8l-.2 2.8c0 .3.1.6.3.8.4.2.6.4.9.4.2 0 .6-.3 1.3-.3.8 0 1.4.5 1.4 1.2s-.5 1.2-1.3 1.2c-.6 0-1.1-.2-1.6-.6-.1-.1-.3-.1-.5-.1-.5 0-.9.4-.9.8s.2.6.4.8c.7.4 1.5.7 2.6.7zm7.5 0c1.9 0 3.1-1.1 3.1-2.7s-1.2-2.2-2.3-2.4l1.7-1.6c.3-.3.5-.5.5-1s-.4-.8-.9-.8h-4.1c-.5 0-.8.4-.8.8s.3.8.8.8h2.6l-1.7 1.6c-.3.3-.4.5-.4.8 0 .4.4.8.8.8h.3c1 0 1.7.4 1.7 1v.1c0 .6-.5 1-1.2 1s-1.2-.2-1.7-.6c-.1-.2-.3-.3-.6-.3-.4 0-.9.4-.9.9 0 .3.2.5.4.7.6.6 1.5.9 2.7.9zm7.4 0c1.9 0 3.2-1.1 3.2-2.9 0-1.9-1.3-2.7-3-2.7-.5 0-.8.1-1.1.2l.1-1.5h2.8c.5 0 .9-.3.9-.8 0-.4-.4-.8-.9-.8h-3.6c-.5 0-.8.3-.8.8l-.2 2.8c0 .3.1.6.3.8.4.2.6.4.9.4.2 0 .5-.3 1.3-.3s1.4.5 1.4 1.2-.5 1.2-1.3 1.2c-.6 0-1.1-.2-1.6-.6-.2-.1-.3-.1-.5-.1-.5 0-.9.4-.9.8s.2.6.4.8c.7.4 1.5.7 2.6.7zm7.6 0c1.8 0 3.1-1.1 3.1-2.9 0-1.9-1.3-2.7-2.9-2.7-.5 0-.8.1-1.1.2l.1-1.5h2.8c.4 0 .8-.3.8-.8 0-.4-.4-.8-.8-.8h-3.7c-.4 0-.7.3-.8.8l-.1 2.8c-.1.3 0 .6.3.8.4.2.6.4.8.4.3 0 .6-.3 1.3-.3.9 0 1.5.5 1.5 1.2s-.6 1.2-1.4 1.2c-.5 0-1-.2-1.6-.6-.1-.1-.2-.1-.5-.1-.4 0-.8.4-.8.8s.1.6.3.8c.7.4 1.5.7 2.7.7zm10.8 0c-1.7 0-3-1.3-3-2.9 0-1.6 1.3-2.9 3-2.9 1.8 0 3 1.3 3 2.9 0 1.6-1.3 2.9-3 2.9zm0-1.1c1 0 1.7-.8 1.7-1.8s-.7-1.8-1.7-1.8-1.7.8-1.7 1.8.7 1.8 1.7 1.8zm6.4 1.1c1.5 0 2.5-.8 2.5-2.5V41c0-.4-.3-.6-.6-.6-.4 0-.6.2-.6.6v2.6c0 .9-.5 1.4-1.3 1.4-.7 0-1.2-.5-1.2-1.4V41c0-.4-.2-.6-.6-.6-.3 0-.6.2-.6.6v2.6c0 1.6.9 2.5 2.4 2.5zm5-.7c0 .4.3.6.7.6.3 0 .6-.2.6-.6v-3.9h1.2c.3 0 .5-.2.5-.5s-.2-.6-.5-.6h-3.6c-.4 0-.6.3-.6.6s.2.5.6.5h1.1v3.9zm3.9 0V41c0-.3.3-.6.6-.6h2c.7 0 1.2.2 1.6.6.3.3.5.7.5 1.2v.1c0 .8-.4 1.4-1.1 1.7l.8 1c.2.2.2.3.2.5 0 .3-.3.5-.6.5-.2 0-.4-.1-.6-.3l-1.2-1.5h-.9v1.2c0 .4-.3.6-.7.6-.3 0-.6-.2-.6-.6zm1.3-2.3h1.2c.6 0 .9-.3.9-.8s-.3-.8-.9-.8h-1.2v1.6zm4.1 2.4c0-.1.1-.2.1-.3l1.9-4.4c.2-.3.4-.5.8-.5s.6.2.8.5l1.9 4.4c0 .1.1.2.1.3 0 .3-.3.5-.6.5s-.5-.1-.6-.4l-.4-.9h-2.4l-.4 1c-.1.2-.4.3-.6.3-.3 0-.6-.2-.6-.5zm2-1.8h1.6l-.8-1.9-.8 1.9zm6.5 2.4c1.2 0 2-.6 2-1.8 0-.9-.6-1.4-1.7-1.7-1-.2-1.2-.3-1.2-.7 0-.3.2-.5.7-.5.4 0 .7.1 1.2.4.1 0 .1.1.3.1.3 0 .5-.3.5-.6 0-.2-.1-.4-.2-.5-.5-.3-1.1-.5-1.8-.5-1.1 0-2 .7-2 1.7 0 1.1.8 1.4 1.9 1.7.9.3 1.1.4 1.1.7v.1c0 .3-.3.5-.8.5s-1-.2-1.4-.5c-.1-.1-.2-.1-.4-.1-.3 0-.5.2-.5.5 0 .2 0 .4.2.5.6.5 1.4.7 2.1.7zm5.5-.7V41c0-.3.3-.6.6-.6h2c.7 0 1.2.2 1.6.6.3.3.5.7.5 1.2v.1c0 .8-.5 1.4-1.1 1.7l.8 1c.1.2.2.3.2.5 0 .3-.3.5-.6.5-.2 0-.4-.1-.6-.3l-1.2-1.5h-1v1.2c0 .4-.2.6-.6.6-.3 0-.6-.2-.6-.6zm1.2-2.3h1.3c.6 0 .9-.3.9-.8s-.3-.8-.9-.8H834v1.6zm5.2 2.9h3.2c.3 0 .5-.2.5-.5s-.2-.6-.5-.6h-2.6v-1.2h2.2c.3 0 .5-.2.5-.5s-.2-.6-.5-.6h-2.2v-1.1h2.5c.3 0 .6-.2.6-.5 0-.4-.3-.6-.6-.6h-3.1c-.3 0-.6.3-.6.6v4.4c0 .3.3.6.6.6zm7.5.1c.8 0 1.5-.3 1.9-.6.3-.1.4-.4.4-.7v-1.4c0-.4-.2-.6-.6-.6H847c-.3 0-.5.2-.5.5s.2.5.5.5h.9v.8c-.4.3-.8.4-1.2.4-1 0-1.7-.8-1.7-1.8s.7-1.8 1.6-1.8c.5 0 .9.2 1.2.4.1.1.2.2.4.2.3 0 .6-.3.6-.7 0-.2-.1-.4-.2-.5-.5-.3-1.1-.5-2-.5-1.6 0-2.9 1.3-2.9 2.9 0 1.7 1.2 2.9 3 2.9zm3.6-.7c0 .4.3.6.6.6s.6-.2.6-.6V41c0-.4-.3-.6-.6-.6s-.6.2-.6.6v4.4zm5.3.7c-1.7 0-2.9-1.3-2.9-2.9 0-1.6 1.2-2.9 3-2.9 1.7 0 2.9 1.3 2.9 2.9 0 1.6-1.2 2.9-3 2.9zm.1-1.1c.9 0 1.6-.8 1.6-1.8s-.7-1.8-1.7-1.8-1.6.8-1.6 1.8.7 1.8 1.7 1.8zm-.9-5.2c.1-.2.2-.2.3-.2.3 0 .7.3 1.2.3s.8-.3.9-.8c.1-.1.1-.2.1-.2 0-.2-.2-.3-.4-.3-.1 0-.2 0-.3.1-.1.2-.2.3-.4.3-.3 0-.7-.3-1.2-.3s-.7.3-.9.7c0 .1 0 .2 0 .3 0 .1.2.3.4.3.1 0 .2-.1.3-.2zm5.5 6.2h3.2c.3 0 .5-.2.5-.5s-.2-.6-.5-.6h-2.6v-1.2h2.2c.3 0 .5-.2.5-.5s-.2-.6-.5-.6h-2.2v-1.1h2.5c.3 0 .6-.2.6-.5 0-.4-.3-.6-.6-.6h-3.1c-.3 0-.6.3-.6.6v4.4c0 .3.3.6.6.6zm6.8.1c1.2 0 2-.6 2-1.8 0-.9-.6-1.4-1.7-1.7-1-.2-1.3-.3-1.3-.7 0-.3.3-.5.8-.5.3 0 .7.1 1.1.4.1 0 .2.1.4.1.3 0 .5-.3.5-.6 0-.2-.1-.4-.2-.5-.5-.3-1.1-.5-1.8-.5-1.2 0-2 .7-2 1.7 0 1.1.7 1.4 1.9 1.7.9.3 1.1.4 1.1.7v.1c0 .3-.3.5-.8.5s-1-.2-1.4-.5c-.1-.1-.2-.1-.4-.1-.3 0-.6.2-.6.5 0 .2.1.4.3.5.6.5 1.3.7 2.1.7z" class="b"/><path d="M680.7 26.2c.5 0 .9-.4 1-.8.2-1.2.1-2.4-.3-3.5-.3-1.3-1.1-2.5-2-3.5-1-1-2.3-1.7-3.6-1.9-.8-.1-1.6 0-2.4.2-.6.1-.8.7-.7 1.2.2.5.7.8 1.2.6.5-.1 1.1-.1 1.6-.1.9.2 1.8.6 2.5 1.4.8.7 1.3 1.6 1.6 2.6.3.9.3 1.8.2 2.7-.1.5.3 1 .8 1.1 0 0 .1 0 .1 0zm1.4 10.7l-4.8-6.3-2.1 1.6 4.8 6.3 2.1-1.6zm-7.9-2.8s0 .1-.1.1c-.6.4-1.3.6-2 .6-2.2 0-4.7-1.5-6.7-4-2.5-3.4-3-7.4-1-9.3 0 0 .1-.1.1-.1l-4-5.3c-.1.1-.2.2-.4.2-.1.1-.4.4-1.5 1.2-1.8 1.5-.2 8 5 14.7 5.2 6.8 10.9 10 12.9 8.6 1.1-.8 1.4-1.1 1.5-1.2.1-.1.2-.2.3-.2l-4.1-5.3zm-12.5-19.5l4.9 6.4 2.1-1.6-4.9-6.4-2.1 1.6zm22 21.2c.3.4.5.9.4 1.4-.1.5-.3.9-.7 1.2l-2.3 1.7c-.3.3-.7.4-1.1.4-.1 0-.2 0-.3 0 0 0 0 .1-.1.2-.1.2-.3.4-2 1.7-.7.4-1.4.7-2.3.7-3.5 0-8.6-3.7-13.3-9.7-5.6-7.4-7.6-14.9-4.6-17.4 1.7-1.3 2-1.5 2.4-1.5 0-.1 0-.1 0-.1.1-.5.3-.9.7-1.2l2.3-1.8c.8-.6 1.9-.4 2.5.4l5 6.5c.6.8.5 1.9-.3 2.6l-2.3 1.7c-.3.2-.7.4-1.1.4-.3 0-.6-.1-.8-.2 0 0-.1.1-.1.1-1.1 1-.9 3.9 1.3 6.7 2.1 2.8 4.8 3.7 6.1 3 .1 0 .1 0 .2-.1-.2-.6.1-1.3.6-1.8l2.3-1.7c.8-.6 1.9-.5 2.5.3l5 6.5zm2-7.2c-.1 0-.2 0-.3 0-.5-.2-.8-.7-.6-1.3.7-2.2.7-4.6 0-6.9-.5-1.6-1.4-3.1-2.6-4.4-1.2-1.2-2.6-2.1-4.2-2.6-1.8-.6-3.7-.6-5.6 0-.5.1-1-.1-1.2-.6-.1-.5.1-1.1.6-1.3 2.3-.7 4.6-.7 6.8 0 1.8.6 3.6 1.7 5 3.2 1.3 1.5 2.4 3.2 3 5.1.9 2.7.9 5.5 0 8.1-.1.5-.5.7-.9.7zM959.5 16c0-.2.1-.3.2-.5l3.6-8.2c.3-.6.8-1 1.4-1h.1c.7 0 1.1.4 1.4 1l3.6 8.2c.1.2.1.3.1.5 0 .6-.4 1.1-1.1 1.1-.5 0-.9-.3-1.1-.8l-.7-1.7h-4.6l-.7 1.8c-.2.4-.6.7-1.1.7-.6 0-1.1-.5-1.1-1.1zm3.8-3.4h2.9l-1.5-3.5-1.4 3.5zm9.8 3.3V8.6h-2.2c-.6 0-1.1-.4-1.1-1s.5-1.1 1.1-1.1h6.7c.6 0 1.1.5 1.1 1.1 0 .6-.5 1-1.1 1h-2.2v7.3c0 .7-.5 1.2-1.2 1.2-.6 0-1.1-.5-1.1-1.2zm8.4 1.1h5.9c.6 0 1-.4 1-1s-.4-1.1-1-1.1h-4.8v-2.2h4c.6 0 1.1-.4 1.1-1 0-.5-.5-1-1.1-1h-4V8.6h4.7c.6 0 1.1-.5 1.1-1.1 0-.5-.5-1-1.1-1h-5.8c-.6 0-1.2.5-1.2 1.2v8.1c0 .7.6 1.2 1.2 1.2zm8.9-1c0 .6.5 1.1 1.1 1.1.7 0 1.2-.5 1.2-1.1v-5.7l4.6 6.1c.3.4.6.7 1.2.7h.1c.6 0 1.1-.5 1.1-1.2V7.6c0-.7-.5-1.2-1.1-1.2-.6 0-1.2.5-1.2 1.2V13L993 7.1c-.3-.4-.7-.7-1.2-.7h-.2c-.7 0-1.2.6-1.2 1.2V16zm11.8-.2V7.7c0-.7.6-1.2 1.2-1.2h2.9c3.3 0 5.6 2.3 5.6 5.2v.1c0 2.9-2.3 5.2-5.6 5.2h-2.9c-.6 0-1.2-.5-1.2-1.2zm2.4-.9h1.7c1.9 0 3.2-1.3 3.2-3.1 0-1.9-1.3-3.2-3.2-3.2h-1.7v6.3zm9.5 1c0 .7.5 1.2 1.1 1.2.7 0 1.2-.5 1.2-1.2V7.6c0-.7-.5-1.2-1.2-1.2-.6 0-1.1.5-1.1 1.2v8.3zm4.9.1c0 .6.5 1.1 1.1 1.1.7 0 1.2-.5 1.2-1.1v-5.3l2 3.1c.2.4.5.6.9.6.5 0 .8-.2 1-.6l2-3.1v5.2c0 .7.5 1.2 1.2 1.2.6 0 1.1-.5 1.1-1.2V7.6c0-.6-.5-1.2-1.1-1.2h-.3c-.5 0-.8.2-1 .6l-2.8 4.6-2.8-4.6c-.2-.3-.6-.6-1.1-.6h-.2c-.7 0-1.2.6-1.2 1.2V16zm14.2 1h5.9c.6 0 1-.4 1-1s-.4-1.1-1-1.1h-4.8v-2.2h4c.6 0 1.1-.4 1.1-1 0-.5-.5-1-1.1-1h-4V8.6h4.7c.6 0 1-.5 1-1.1 0-.5-.4-1-1-1h-5.8c-.7 0-1.2.5-1.2 1.2v8.1c0 .7.5 1.2 1.2 1.2zm8.9-1c0 .6.5 1.1 1.1 1.1.7 0 1.2-.5 1.2-1.1v-5.7l4.6 6.1c.3.4.6.7 1.2.7h.1c.6 0 1.1-.5 1.1-1.2V7.6c0-.7-.5-1.2-1.1-1.2-.7 0-1.2.5-1.2 1.2V13l-4.4-5.9c-.3-.4-.7-.7-1.2-.7h-.3c-.6 0-1.1.6-1.1 1.2V16zm14.3-.1c0 .7.5 1.2 1.1 1.2.7 0 1.2-.5 1.2-1.2V8.6h2.2c.6 0 1.1-.4 1.1-1s-.5-1.1-1.1-1.1h-6.7c-.6 0-1.1.5-1.1 1.1 0 .6.5 1 1.1 1h2.2v7.3zm11.9 1.3c-3.2 0-5.6-2.4-5.6-5.4 0-3 2.4-5.5 5.6-5.5 3.3 0 5.6 2.4 5.6 5.4v.1c0 2.9-2.4 5.4-5.6 5.4zm0-2.1c1.9 0 3.2-1.5 3.2-3.3 0-1.8-1.3-3.3-3.2-3.3-1.9 0-3.1 1.4-3.1 3.2v.1c0 1.8 1.3 3.3 3.1 3.3z" class="a"/><path d="M960 30.1v-6.6c0-.5.4-.9.9-.9h2.4c2.6 0 4.4 1.8 4.4 4.2 0 2.4-1.8 4.2-4.4 4.2h-2.4c-.5 0-.9-.4-.9-.9zm1.9-.8h1.4c1.5 0 2.5-1 2.5-2.5s-1-2.5-2.5-2.5h-1.4v5zm8.8-2h2.7c-.1-.8-.6-1.4-1.3-1.4-.8 0-1.3.6-1.4 1.4zm3.8 3.1c-.6.4-1.3.7-2.3.7-1.9 0-3.3-1.3-3.3-3.3 0-1.8 1.3-3.4 3.2-3.4 2.1 0 3.1 1.8 3.1 3.1 0 .6-.4.9-.9.9h-3.6c.2.8.8 1.3 1.6 1.3.5 0 .9-.2 1.3-.5.1 0 .2-.1.4-.1.4 0 .7.3.7.7 0 .3-.1.4-.2.6zm7.9.7c1.4 0 2.5-.6 2.5-2.1 0-1.2-1.1-1.6-2-1.9-.7-.2-1.3-.4-1.3-.8 0-.2.2-.4.7-.4.4 0 .9.1 1.4.4.1 0 .2.1.3.1.4 0 .8-.3.8-.8 0-.3-.2-.5-.5-.6-.6-.3-1.3-.5-2-.5-1.3 0-2.3.7-2.3 2s1 1.7 1.9 2c.7.2 1.3.3 1.3.7 0 .3-.2.5-.7.5-.6 0-1.2-.2-1.8-.6-.1 0-.2-.1-.3-.1-.4 0-.8.4-.8.8 0 .3.2.5.4.6.8.5 1.6.7 2.4.7zm5.3-3.8h2.7c-.1-.8-.6-1.4-1.4-1.4-.7 0-1.2.6-1.3 1.4zm3.8 3.1c-.6.4-1.3.7-2.3.7-1.9 0-3.3-1.3-3.3-3.3 0-1.8 1.3-3.4 3.1-3.4 2.2 0 3.1 1.8 3.1 3.1 0 .6-.3.9-.8.9h-3.6c.2.8.7 1.3 1.6 1.3.5 0 .9-.2 1.2-.5.2 0 .3-.1.5-.1.4 0 .7.3.7.7 0 .3-.1.4-.2.6zm4.9 2.5c-.8 0-1.6-.1-2.3-.4-.3-.1-.6-.4-.6-.7 0-.4.4-.8.8-.8.1 0 .2.1.3.1.5.2 1.1.4 1.8.4 1.2 0 1.8-.6 1.8-1.8v-.3c-.5.7-1.1 1.1-2.1 1.1-1.5 0-2.9-1.1-2.9-3v-.1c0-1.9 1.4-3 2.9-3 1 0 1.6.5 2.1 1 0-.5.4-.9.9-.9s.9.4.9.9v4.1c0 1.2-.3 2-.8 2.6-.6.6-1.5.8-2.8.8zm.2-3.9c.9 0 1.6-.7 1.6-1.5v-.1c0-.8-.7-1.4-1.6-1.4-.9 0-1.5.6-1.5 1.4v.1c0 .9.6 1.5 1.5 1.5zm10.9-3.6c0-.5-.4-.9-.9-.9s-.9.4-.9.9v2.8c0 .8-.5 1.3-1.2 1.3s-1.1-.5-1.1-1.3v-2.8c0-.5-.4-.9-.9-.9s-.9.4-.9.9v3.3c0 1.5.8 2.4 2.2 2.4.9 0 1.4-.5 1.9-1v.1c0 .5.4.9.9.9s.9-.4.9-.9v-4.8zm1.6 4.8c0 .5.4.9.9.9s.9-.4.9-.9v-2.8c0-.9.5-1.3 1.2-1.3s1.1.4 1.1 1.3v2.8c0 .5.4.9.9.9s.9-.4.9-.9v-3.4c0-1.4-.8-2.4-2.2-2.4-.9 0-1.4.5-1.9 1.1v-.1c0-.5-.4-.9-.9-.9s-.9.4-.9.9v4.8zm14-7.1v7.1c0 .5-.5.9-1 .9s-.9-.4-.9-.9v-.1c-.4.6-1 1-2 1-1.5 0-2.9-1.2-2.9-3.3 0-2.2 1.4-3.4 2.9-3.4 1 0 1.6.5 2 1v-2.3c0-.5.4-.9.9-.9s1 .4 1 .9zm-3.4 2.9c-.9 0-1.6.7-1.6 1.8s.7 1.8 1.6 1.8c.8 0 1.6-.7 1.6-1.8s-.8-1.8-1.6-1.8zm6.8 5.1c-1.2 0-2.2-.7-2.2-1.9v-.1c0-1.4 1.1-2 2.6-2 .6 0 1.1.1 1.6.2v-.1c0-.7-.5-1.1-1.4-1.1-.5 0-.9 0-1.3.1-.1.1-.2.1-.2.1-.5 0-.8-.3-.8-.8 0-.3.2-.6.5-.7.6-.2 1.2-.3 2.1-.3.9 0 1.7.3 2.1.7.5.5.7 1.2.7 2.1v2.9c0 .5-.4.9-.9.9s-.8-.4-.8-.8c-.5.5-1.1.8-2 .8zm.6-1.2c.8 0 1.4-.5 1.4-1.2v-.3c-.3-.1-.7-.2-1.2-.2-.8 0-1.2.3-1.2.9 0 .5.4.8 1 .8zm10.1 1.2c-1.2 0-2.2-.7-2.2-1.9v-.1c0-1.4 1.1-2 2.6-2 .6 0 1.1.1 1.6.2v-.1c0-.7-.5-1.1-1.4-1.1-.5 0-.9 0-1.3.1-.1.1-.1.1-.2.1-.5 0-.8-.3-.8-.8 0-.3.2-.6.5-.7.6-.2 1.2-.3 2.1-.3 1 0 1.7.3 2.1.7.5.5.7 1.2.7 2.1v2.9c0 .5-.4.9-.9.9s-.8-.4-.8-.8c-.5.5-1.1.8-2 .8zm.6-1.2c.8 0 1.4-.5 1.4-1.2v-.3c-.3-.1-.7-.2-1.2-.2-.7 0-1.2.3-1.2.9 0 .5.4.8 1 .8zm.4-6c.3 0 .5-.1.5-.3 0-.1-.1-.2-.2-.3l-.6-1c-.2-.3-.4-.4-.7-.4-.5 0-1 .2-1 .5 0 .2.1.3.2.4l.8.7c.3.4.6.4 1 .4zm10.2 7.2c1.3 0 2.4-.6 2.4-2.1 0-1.2-1-1.6-1.9-1.9-.7-.2-1.3-.4-1.3-.8 0-.2.2-.4.6-.4.4 0 .9.1 1.4.4.1 0 .2.1.4.1.4 0 .7-.3.7-.8 0-.3-.2-.5-.4-.6-.7-.3-1.4-.5-2-.5-1.3 0-2.4.7-2.4 2s1 1.7 1.9 2c.7.2 1.4.3 1.4.7 0 .3-.3.5-.8.5s-1.1-.2-1.7-.6c-.1 0-.3-.1-.4-.1-.4 0-.7.4-.7.8 0 .3.1.5.3.6.8.5 1.7.7 2.5.7zm5.2-3.8h2.7c-.1-.8-.5-1.4-1.3-1.4s-1.3.6-1.4 1.4zm3.8 3.1c-.6.4-1.3.7-2.2.7-2 0-3.4-1.3-3.4-3.3 0-1.8 1.3-3.4 3.2-3.4 2.1 0 3.1 1.8 3.1 3.1 0 .6-.4.9-.9.9h-3.6c.2.8.8 1.3 1.6 1.3.5 0 .9-.2 1.3-.5.1 0 .2-.1.4-.1.4 0 .7.3.7.7 0 .3-.1.4-.2.6zm1.6-.1c0 .5.3.8.8.8.3 0 .6-.2.8-.5l1.3-1.7 1.3 1.7c.2.3.5.5.8.5.5 0 .9-.3.9-.8 0-.3-.1-.5-.3-.7l-1.6-1.9 1.5-1.8c.2-.2.3-.4.3-.6 0-.5-.4-.8-.9-.8-.3 0-.5.2-.8.4l-1.2 1.6-1.2-1.6c-.2-.3-.4-.4-.8-.4-.5 0-.8.3-.8.8 0 .3.1.5.3.7l1.5 1.7-1.7 2c-.1.2-.2.4-.2.6zm9.4.8c.4 0 .7 0 1-.2.3-.1.5-.3.5-.7 0-.4-.4-.7-.8-.7 0 0-.1 0-.2 0-.4 0-.6-.2-.6-.6v-2.8h.8c.4 0 .8-.3.8-.8 0-.4-.4-.7-.8-.7h-.8v-.8c0-.5-.4-.9-.9-.9s-.9.4-.9.9v.8h-.1c-.4 0-.8.3-.8.7 0 .5.4.8.8.8h.1v3.1c0 1.5.7 1.9 1.9 1.9zm4.6 0c-1.2 0-2.2-.7-2.2-1.9v-.1c0-1.4 1-2 2.6-2 .6 0 1.1.1 1.5.2v-.1c0-.7-.4-1.1-1.3-1.1-.5 0-.9 0-1.3.1-.1.1-.2.1-.3.1-.4 0-.7-.3-.7-.8 0-.3.2-.6.5-.7.6-.2 1.2-.3 2-.3 1 0 1.7.3 2.2.7.5.5.7 1.2.7 2.1v2.9c0 .5-.4.9-.9.9s-.9-.4-.9-.8c-.4.5-1 .8-1.9.8zm.5-1.2c.9 0 1.5-.5 1.5-1.2v-.3c-.3-.1-.8-.2-1.2-.2-.8 0-1.3.3-1.3.9 0 .5.5.8 1 .8zm5.4-1.7h2c.5 0 .9-.4.9-.9s-.4-.9-.9-.9h-2c-.5 0-.9.4-.9.9s.4.9.9.9zm4.6 2c0 .5.4.9.9.9s.9-.4.9-.9v-4.1h.8c.4 0 .7-.3.7-.7 0-.4-.3-.8-.7-.8h-.8v-.2c0-.5.2-.7.6-.7h.2c.4 0 .7-.4.7-.8s-.3-.6-.6-.7c-.2 0-.4 0-.7 0-.7 0-1.2.1-1.5.5-.3.3-.5.8-.5 1.5v.4h-.1c-.4 0-.8.4-.8.8s.4.7.8.7h.1v4.1zm5.6-2.9h2.8c-.2-.8-.6-1.4-1.4-1.4-.8 0-1.3.6-1.4 1.4zm3.8 3.1c-.6.4-1.3.7-2.2.7-2 0-3.4-1.3-3.4-3.3 0-1.8 1.3-3.4 3.2-3.4 2.1 0 3.1 1.8 3.1 3.1 0 .6-.4.9-.9.9h-3.6c.2.8.8 1.3 1.6 1.3.5 0 .9-.2 1.3-.5.1 0 .2-.1.4-.1.4 0 .7.3.7.7 0 .3-.1.4-.2.6zm2.1-7.3c0 .5.4.8 1 .8s1-.3 1-.8V23c0-.5-.4-.8-1-.8s-1 .3-1 .8v.1zm.1 7.1c0 .5.4.9.9.9s.9-.4.9-.9v-4.8c0-.5-.4-.9-.9-.9s-.9.4-.9.9v4.8zm3.5 0c0 .5.4.9.9.9s.9-.4.9-.9v-1.7c0-1.3.5-2 1.5-2.3.3 0 .7-.3.7-.8s-.4-.9-.9-.9c-.6 0-1 .6-1.3 1.2v-.3c0-.5-.4-.9-.9-.9s-.9.4-.9.9v4.8zm6.5.9c-1.2 0-2.2-.7-2.2-1.9v-.1c0-1.4 1.1-2 2.6-2 .7 0 1.1.1 1.6.2v-.1c0-.7-.5-1.1-1.4-1.1-.5 0-.9 0-1.2.1-.1.1-.2.1-.3.1-.4 0-.8-.3-.8-.8 0-.3.2-.6.5-.7.6-.2 1.2-.3 2.1-.3 1 0 1.7.3 2.2.7.4.5.7 1.2.7 2.1v2.9c0 .5-.4.9-.9.9-.6 0-.9-.4-.9-.8-.5.5-1.1.8-2 .8zm.6-1.2c.9 0 1.4-.5 1.4-1.2v-.3c-.3-.1-.7-.2-1.1-.2-.8 0-1.3.3-1.3.9 0 .5.4.8 1 .8zm-139.4 8.2v7.1c0 .5-.4.9-.9.9s-.9-.4-.9-.9v-.1c-.5.6-1.1 1-2 1-1.5 0-3-1.2-3-3.3 0-2.2 1.4-3.4 3-3.4.9 0 1.5.5 2 1v-2.3c0-.5.4-.9.9-.9s.9.4.9.9zm-3.4 2.9c-.8 0-1.5.7-1.5 1.8s.7 1.8 1.5 1.8c.9 0 1.6-.7 1.6-1.8s-.7-1.8-1.6-1.8zm6.8 5.1c-1.2 0-2.2-.7-2.2-1.9v-.1c0-1.4 1.1-2 2.6-2 .7 0 1.1.1 1.6.2v-.1c0-.7-.5-1.1-1.4-1.1-.5 0-.9 0-1.2.1-.2.1-.2.1-.3.1-.4 0-.8-.3-.8-.8 0-.3.2-.6.5-.7.6-.2 1.2-.3 2.1-.3 1 0 1.7.3 2.2.7.4.5.6 1.2.6 2.1v2.9c0 .5-.3.9-.8.9-.6 0-.9-.4-.9-.8-.5.5-1.1.8-2 .8zm.6-1.2c.8 0 1.4-.5 1.4-1.2v-.3c-.3-.1-.7-.2-1.1-.2-.8 0-1.3.3-1.3.9 0 .5.4.8 1 .8zm7 1.2c1.4 0 2.4-.6 2.4-2.1 0-1.2-1-1.6-1.9-1.9-.7-.2-1.3-.4-1.3-.8 0-.2.2-.4.7-.4.3 0 .8.1 1.3.4.2 0 .3.1.4.1.4 0 .7-.3.7-.8 0-.3-.2-.5-.4-.6-.6-.3-1.3-.5-2-.5-1.3 0-2.4.7-2.4 2s1.1 1.7 2 2c.7.2 1.3.3 1.3.7 0 .3-.2.5-.8.5-.5 0-1.1-.2-1.7-.6-.1 0-.2-.1-.4-.1-.4 0-.7.4-.7.8 0 .3.2.5.4.6.7.5 1.6.7 2.4.7zm10.9 0c-2.2 0-3.7-1.8-3.7-4.3 0-2.4 1.5-4.3 3.7-4.3s3.7 1.8 3.7 4.3c0 2.4-1.5 4.3-3.7 4.3zm0-1.6c1.1 0 1.8-1.2 1.8-2.7 0-1.5-.7-2.7-1.8-2.7s-1.8 1.1-1.8 2.7c0 1.5.7 2.7 1.8 2.7zm8.2 1.6c-1.9 0-3.3-.9-3.3-2.4 0-1 .5-1.6 1.4-2.1-.7-.4-1.1-.9-1.1-1.8 0-1.3 1.2-2.3 3-2.3 1.7 0 2.9 1 2.9 2.3 0 .9-.4 1.4-1 1.8.8.5 1.3 1 1.3 2 0 1.6-1.4 2.5-3.2 2.5zm0-5.1c.7 0 1.2-.4 1.2-1 0-.5-.5-1-1.2-1-.8 0-1.2.5-1.2 1 0 .6.4 1 1.2 1zm0 3.6c.9 0 1.4-.5 1.4-1v-.1c0-.6-.6-1-1.4-1-.9 0-1.5.4-1.5 1v.1c0 .5.6 1 1.5 1zm4.6.6c0 .5.4.9.9.9s.9-.4.9-.9v-2.8c0-.9.4-1.3 1.1-1.3.7 0 1.1.4 1.1 1.3v2.8c0 .5.4.9.9.9s1-.4 1-.9v-3.4c0-1.4-.8-2.4-2.2-2.4-1 0-1.5.5-1.9 1.1v-2.4c0-.5-.4-.9-.9-.9s-.9.4-.9.9v7.1zm12.9.9c-1.2 0-2.2-.7-2.2-1.9v-.1c0-1.4 1-2 2.5-2 .7 0 1.2.1 1.6.2v-.1c0-.7-.4-1.1-1.4-1.1-.5 0-.9 0-1.2.1-.1.1-.2.1-.3.1-.4 0-.7-.3-.7-.8 0-.3.2-.6.5-.7.5-.2 1.2-.3 2-.3 1 0 1.7.3 2.2.7.5.5.7 1.2.7 2.1v2.9c0 .5-.4.9-.9.9s-.9-.4-.9-.8c-.4.5-1 .8-1.9.8zm.5-1.2c.9 0 1.4-.5 1.4-1.2v-.3c-.3-.1-.7-.2-1.1-.2-.8 0-1.3.3-1.3.9 0 .5.4.8 1 .8zm.4-6c.3 0 .5-.1.5-.3 0-.1-.1-.2-.1-.3l-.7-1c-.1-.3-.4-.4-.7-.4-.4 0-1 .2-1 .5 0 .2.1.3.3.4l.7.7c.4.4.6.4 1 .4zm6.6 7.2c1.4 0 2.5-.6 2.5-2.1 0-1.2-1.1-1.6-2-1.9-.7-.2-1.3-.4-1.3-.8 0-.2.2-.4.7-.4.4 0 .9.1 1.4.4.1 0 .2.1.3.1.4 0 .7-.3.7-.8 0-.3-.1-.5-.4-.6-.6-.3-1.3-.5-2-.5-1.3 0-2.3.7-2.3 2s1 1.7 1.9 2c.7.2 1.3.3 1.3.7 0 .3-.2.5-.8.5-.5 0-1.1-.2-1.7-.6-.1 0-.2-.1-.4-.1-.4 0-.7.4-.7.8 0 .3.2.5.4.6.8.5 1.6.7 2.4.7zm8.7-.9c0 .5.4.9.9.9s.9-.4.9-.9v-6.8c0-.5-.4-.9-.9-.9-.3 0-.5 0-.9.1l-1.2.4c-.3.1-.6.4-.6.8s.4.8.8.8c.1 0 .2-.1.3-.1l.7-.1v5.8zm6.7.9c-1.9 0-3.2-.9-3.2-2.4 0-1 .4-1.6 1.3-2.1-.6-.4-1.1-.9-1.1-1.8 0-1.3 1.2-2.3 3-2.3s2.9 1 2.9 2.3c0 .9-.4 1.4-1 1.8.8.5 1.3 1 1.3 2 0 1.6-1.3 2.5-3.2 2.5zm0-5.1c.7 0 1.2-.4 1.2-1 0-.5-.4-1-1.2-1-.8 0-1.2.5-1.2 1 0 .6.5 1 1.2 1zm0 3.6c.9 0 1.4-.5 1.4-1v-.1c0-.6-.6-1-1.4-1-.8 0-1.5.4-1.5 1v.1c0 .5.6 1 1.5 1zm4.6.6c0 .5.4.9.9.9s.9-.4.9-.9v-2.8c0-.9.5-1.3 1.2-1.3s1.1.4 1.1 1.3v2.8c0 .5.4.9.9.9s.9-.4.9-.9v-3.4c0-1.4-.8-2.4-2.2-2.4-.9 0-1.5.5-1.9 1.1v-2.4c0-.5-.4-.9-.9-.9s-.9.4-.9.9v7.1z" class="b"/><path d="M946.7 24.9c0-1.9-1.2-3.6-2.8-4.1 0 .2 0 .4 0 .6v7.7c1.6-.5 2.8-2.2 2.8-4.2M933.1 40c0-.7-.6-1.3-1.3-1.3-.7 0-1.2.6-1.2 1.3 0 .7.5 1.2 1.2 1.2s1.3-.5 1.3-1.2m7.2-24.1c-.4-.4-.7-.9-1.1-1.2-1.6-1.7-4.2-3-6.7-3h-1.3c-2.5 0-5.1 1.3-6.7 3-1.1 1-1.9 2.4-2.5 3.9 2.3-.9 4.1-2.5 5.3-4.6.2-.3.4-.5.7-.5.3-.1.6 0 .8.2 2 2 4.6 3.1 7.3 3.1 1.5 0 2.9-.3 4.2-.9m-20.5 4.9c-1.7.5-2.9 2.2-2.9 4.1 0 2 1.2 3.6 2.9 4.1 0-2.6 0-4.8 0-7.6 0-.2 0-.4 0-.6m28.9 4.1c0 3.1-2.1 5.6-4.9 6.1v.2c-.2 2.7-1.4 5.1-3.3 6.9-1.5 1.5-3.5 2.6-5.7 3.1-.5 1.1-1.6 2-3 2-1.7 0-3.1-1.5-3.1-3.2 0-1.8 1.4-3.2 3.1-3.2 1.5 0 2.7 1 3.1 2.3 1.6-.3 3.2-1 4.3-2.1 1.7-1.7 3-4.5 3-7v-8.6c0-1.3-.4-2.6-1-3.8-1.6.7-3.3 1.1-5.1 1.1-2.9 0-5.6-.9-7.7-2.8-1.7 2.4-4.1 4.1-6.8 4.8-.1.3-.1.5-.1.7V30c0 .3 0 .4-.1.6-.1 0-.1.1-.1.1-.2.2-.5.4-.8.4 0 0 0 0-.1 0-3-.2-5.4-2.9-5.4-6.2 0-3.1 2.2-5.7 5.1-6.1.5-2.1 1.6-4 3.1-5.4 2-2.1 4.9-3.4 8-3.4h1.3c3.1 0 6 1.3 8 3.4 1.5 1.4 2.6 3.3 3.1 5.4 2.9.4 5.1 3 5.1 6.1M937 29.7c.1-.5-.2-1-.7-1.2-.5-.1-1 .2-1.2.7-.3 1.1-1.7 2-3.3 2-1.6 0-2.9-.9-3.3-2-.1-.5-.6-.8-1.2-.7-.5.2-.8.7-.6 1.2.5 2 2.7 3.4 5.1 3.4 2.5 0 4.6-1.4 5.2-3.4m-9-4.6c1 0 1.7-.7 1.7-1.7 0-.9-.7-1.7-1.7-1.7-.9 0-1.7.8-1.7 1.7 0 1 .8 1.7 1.7 1.7m6-1.7c0-.9.7-1.7 1.7-1.7.9 0 1.7.8 1.7 1.7 0 1-.8 1.7-1.7 1.7-1 0-1.7-.7-1.7-1.7" class="a"/><path d="M411.5.5v50h1V.5zm227 0v50h1V.5zm259 0v50h1V.5zm-710 0v50h1V.5z" class="c"/><path d="M444.5 32.5c0 .5-.5.9-1 .9h-3.6c-.5 0-.9-.4-.9-.9s.4-1 .9-1h3.6c.5 0 1 .5 1 1zm-7.1 0c0 .5-.4.9-1 .9h-2.8c-.6 0-1-.4-1-.9s.4-1 1-1h2.8c.6 0 1 .5 1 1zm22.3 2.9h-27.2c-.9 0-1.6-.7-1.6-1.6v-9.4h30.4v9.4c0 .9-.7 1.6-1.6 1.6zm-28.8-12.9h30.4v-2.2h-30.4v2.2zm1.6-7.6h27.2c.9 0 1.6.7 1.6 1.6v1.8h-30.4v-1.8c0-.9.7-1.6 1.6-1.6zm27.2-1.9h-27.2c-1.9 0-3.5 1.6-3.5 3.5v17.3c0 2 1.6 3.5 3.5 3.5h27.2c2 0 3.5-1.5 3.5-3.5V16.5c0-1.9-1.5-3.5-3.5-3.5z" class="a"/><path d="M473.6 23.8c0-.2.1-.4.2-.6l4.4-9.9c.3-.7.9-1.1 1.6-1.1h.2c.7 0 1.3.4 1.6 1.1l4.4 9.9c.1.2.1.4.1.6 0 .7-.6 1.3-1.3 1.3-.6 0-1.1-.4-1.3-.9l-.9-2h-5.5l-.9 2c-.2.6-.7.9-1.3.9-.7 0-1.3-.6-1.3-1.3zm4.5-4.1h3.5l-1.7-4.1-1.8 4.1zm12.6 5.5c.6 0 1.1-.1 1.6-.3.4-.2.7-.5.7-1 0-.7-.5-1.2-1.2-1.2 0 0-.2.1-.3.1-.6 0-.9-.4-.9-1v-4.1h1.2c.7 0 1.2-.5 1.2-1.2 0-.6-.5-1.1-1.2-1.1h-1.2v-1.3c0-.7-.6-1.3-1.3-1.3-.8 0-1.4.6-1.4 1.3v1.3h-.1c-.6 0-1.2.5-1.2 1.1 0 .7.6 1.2 1.2 1.2h.1v4.6c0 2.2 1.1 2.9 2.8 2.9zm6-5.8h4.1c-.2-1.2-.9-2-2-2-1.2 0-1.9.8-2.1 2zm5.7 4.6c-.9.8-2 1.2-3.4 1.2-2.9 0-5-2-5-5 0-2.8 1.9-5 4.8-5 3.2 0 4.6 2.6 4.6 4.6 0 .8-.6 1.3-1.3 1.3h-5.4c.3 1.3 1.1 1.9 2.4 1.9.7 0 1.3-.2 1.9-.6.2-.2.4-.2.7-.2.6 0 1 .4 1 1 0 .4-.1.7-.3.8zm-3.8-9.6c.7 0 1.1-.1 1.6-.6l1.1-1c.2-.2.4-.4.4-.7 0-.4-.9-.8-1.5-.8-.5 0-.8.2-1.1.6l-1 1.5c0 .2-.1.4-.1.5 0 .3.3.5.6.5zm16.8 10.8c-1.7 0-2.8-.5-3.7-1.3-.9-1-1.5-2.3-1.5-4.8 0-3.9 1.8-6.9 5.6-6.9 1.2 0 2.2.3 3 .7.4.3.7.7.7 1.2 0 .7-.6 1.3-1.3 1.3-.2 0-.5-.1-.7-.2-.6-.3-1.1-.5-1.8-.5-1.6 0-2.4 1.3-2.6 2.9.7-.4 1.4-.8 2.6-.8 2.5 0 4.5 1.4 4.5 4v.1c0 2.5-2.1 4.3-4.8 4.3zm-.1-2.4c1.3 0 2.1-.7 2.1-1.8s-.8-1.9-2.2-1.9c-1.3 0-2.1.8-2.1 1.8v.1c0 1 .8 1.8 2.2 1.8zm6.4 1.2c0 .6.6 1.1 1.3 1.1.5 0 .8-.3 1.2-.7l1.9-2.5 2 2.5c.3.5.7.7 1.2.7.7 0 1.3-.4 1.3-1.2 0-.4-.2-.7-.5-1.1l-2.4-2.7 2.4-2.8c.2-.2.3-.5.3-.9 0-.7-.5-1.2-1.2-1.2-.5 0-.9.3-1.2.7l-1.8 2.4-1.8-2.4c-.4-.4-.8-.7-1.3-.7-.7 0-1.3.5-1.3 1.3 0 .3.2.7.5 1l2.2 2.6-2.4 2.9c-.3.3-.4.6-.4 1zm19.2 1.2c2.1 0 3.7-1 3.7-3.1V22c0-1.7-1.6-2.4-2.9-2.8-1.1-.4-2-.6-2-1.2 0-.4.4-.7 1-.7s1.4.2 2.1.6c.2.1.3.2.5.2.6 0 1.1-.5 1.1-1.1 0-.5-.2-.9-.6-1.1-1-.4-2-.7-3-.7-2 0-3.5 1.1-3.5 3.1 0 1.9 1.5 2.5 2.8 2.9 1.1.3 2 .5 2 1.1v.1c0 .4-.3.7-1.1.7s-1.7-.3-2.6-.9c-.2-.1-.4-.1-.6-.1-.6 0-1 .4-1 1 0 .5.2.8.5 1 1.2.7 2.4 1.1 3.6 1.1zm7.7-5.8h4.1c-.2-1.2-.9-2-2-2-1.2 0-1.9.8-2.1 2zm5.7 4.6c-.9.8-2 1.2-3.4 1.2-2.9 0-5-2-5-5 0-2.8 2-5 4.8-5 3.2 0 4.6 2.6 4.6 4.6 0 .8-.5 1.3-1.3 1.3h-5.4c.3 1.3 1.2 1.9 2.4 1.9.7 0 1.4-.2 1.9-.6.2-.2.4-.2.7-.2.6 0 1.1.4 1.1 1 0 .4-.2.7-.4.8zm2.9-.3c0 .8.6 1.4 1.4 1.4.7 0 1.3-.6 1.3-1.4v-4.1c0-1.3.7-1.9 1.7-1.9s1.6.6 1.6 1.9v4.1c0 .8.6 1.4 1.4 1.4.7 0 1.3-.6 1.3-1.4v-4.1c0-1.3.7-1.9 1.7-1.9s1.6.6 1.6 1.9v4.1c0 .8.6 1.4 1.4 1.4.7 0 1.3-.6 1.3-1.4v-5c0-2.3-1.2-3.5-3.2-3.5-1.3 0-2.4.5-3.2 1.5-.5-1-1.5-1.5-2.7-1.5-1.4 0-2.2.7-2.9 1.5v-.1c0-.7-.6-1.4-1.3-1.4-.8 0-1.4.7-1.4 1.4v7.1zm22.1-10.6c0 .8.6 1.3 1.5 1.3s1.5-.5 1.5-1.3V13c0-.7-.6-1.2-1.5-1.2s-1.5.5-1.5 1.2v.1zm0 14.8c1.8 0 2.9-.9 2.9-3.1v-8.2c0-.7-.6-1.4-1.4-1.4-.8 0-1.4.7-1.4 1.4v8.2c0 .7-.2.9-.6.9h-.1c-.5 0-1 .5-1 1.1 0 .8.6 1.1 1.5 1.1h.1zm14-11.3c0-.7-.6-1.4-1.4-1.4-.7 0-1.3.7-1.3 1.4v4.1c0 1.3-.7 2-1.7 2-1.1 0-1.7-.7-1.7-2v-4.1c0-.7-.6-1.4-1.4-1.4-.7 0-1.3.7-1.3 1.4v5c0 2.2 1.2 3.6 3.2 3.6 1.4 0 2.2-.8 2.9-1.6v.1c0 .8.6 1.4 1.3 1.4.8 0 1.4-.6 1.4-1.4v-7.1zm2.3 7.1c0 .8.6 1.4 1.3 1.4.8 0 1.4-.6 1.4-1.4v-2.5c0-2 .8-3 2.2-3.3.5-.2 1-.6 1-1.3 0-.8-.5-1.4-1.4-1.4-.8 0-1.4.9-1.8 1.8v-.4c0-.7-.6-1.4-1.4-1.4-.7 0-1.3.7-1.3 1.4v7.1zm11.7 1.5c-2.9 0-5.2-2.2-5.2-5s2.3-5 5.3-5 5.2 2.2 5.2 5-2.3 5-5.3 5zm.1-2.3c1.5 0 2.5-1.2 2.5-2.7 0-1.4-1-2.7-2.6-2.7-1.5 0-2.5 1.2-2.5 2.7 0 1.4 1.1 2.7 2.6 2.7zm10.3 2.3c2.1 0 3.7-1 3.7-3.1V22c0-1.7-1.5-2.4-2.9-2.8-1-.4-1.9-.6-1.9-1.2 0-.4.3-.7 1-.7.5 0 1.3.2 2.1.6.1.1.3.2.5.2.6 0 1.1-.5 1.1-1.1 0-.5-.3-.9-.7-1.1-.9-.4-2-.7-3-.7-1.9 0-3.5 1.1-3.5 3.1 0 1.9 1.5 2.5 2.9 2.9 1 .3 2 .5 2 1.1v.1c0 .4-.4.7-1.2.7-.8 0-1.7-.3-2.6-.9-.1-.1-.3-.1-.5-.1-.6 0-1.1.4-1.1 1 0 .5.2.8.5 1 1.2.7 2.5 1.1 3.6 1.1z" class="b"/><path d="M474.3 40.1c0 .6.4 1 .9 1 .6 0 1.1-.4 1.1-1v-4c0-1.4.8-2.2 1.9-2.2 1.2 0 1.9.8 1.9 2.2v4c0 .6.4 1 1 1 .5 0 1-.4 1-1v-4.7c0-2-1.2-3.3-3.1-3.3-1.4 0-2.2.7-2.7 1.5v-.4c0-.6-.5-1-1.1-1-.5 0-.9.4-.9 1v6.9zm14.3 1.1c-2.6 0-4.6-2-4.6-4.5s2-4.6 4.7-4.6c2.6 0 4.6 2 4.6 4.5v.1c0 2.4-2 4.5-4.7 4.5zm.1-1.8c1.6 0 2.6-1.2 2.6-2.7 0-1.6-1.1-2.8-2.7-2.8s-2.6 1.2-2.6 2.7v.1c0 1.5 1.1 2.7 2.7 2.7zm15.6 1.8c1.5 0 2.4-.5 3.2-1.2.2-.2.2-.4.2-.7 0-.4-.3-.8-.8-.8-.2 0-.4.1-.6.2-.5.4-1.1.7-1.9.7-1.5 0-2.6-1.2-2.6-2.7v-.1c0-1.5 1.1-2.7 2.5-2.7.8 0 1.4.3 1.9.7.1.1.3.2.6.2.5 0 .9-.4.9-.9 0-.3-.2-.6-.3-.7-.8-.6-1.7-1.1-3.1-1.1-2.6 0-4.5 2.1-4.5 4.6 0 2.5 1.9 4.5 4.5 4.5zm7.9 0c-1.6 0-3.1-1-3.1-2.7 0-1.9 1.5-2.8 3.6-2.8 1 0 1.7.1 2.4.3v-.2c0-1.2-.8-1.9-2.2-1.9-.8 0-1.4.1-1.9.4-.1 0-.2 0-.3 0-.5 0-.9-.4-.9-.8s.3-.7.6-.8c.8-.3 1.6-.5 2.8-.5 1.3 0 2.2.3 2.8.9.7.7 1 1.6 1 2.7v4.3c0 .6-.4 1-1 1s-1-.4-1-.9v-.3c-.6.7-1.5 1.3-2.8 1.3zm.6-1.5c1.3 0 2.3-.7 2.3-1.8v-.6c-.5-.2-1.2-.4-2-.4-1.3 0-2 .6-2 1.5s.7 1.3 1.7 1.3zm6.6.4c0 .6.4 1 1 1 .5 0 1-.5 1-1v-2.6c0-2 1-3.1 2.4-3.4.4-.1.8-.4.8-.9 0-.6-.4-1-1-1-.9 0-1.8.8-2.2 1.9v-.9c0-.6-.5-1-1-1-.6 0-1 .4-1 1v6.9zm9.7 1c.5 0 1 0 1.4-.2.3-.1.5-.4.5-.8s-.4-.8-.8-.8c-.1 0-.3.1-.5.1-.7 0-1.1-.3-1.1-1.1V34h1.6c.5 0 .8-.4.8-.9 0-.4-.3-.8-.8-.8h-1.6v-1.5c0-.5-.4-1-1-1-.5 0-1 .5-1 1v1.5h-.3c-.5 0-.9.4-.9.8 0 .5.4.9.9.9h.3v4.6c0 1.9 1 2.5 2.5 2.5zm6.4.1c-1.6 0-3.1-1-3.1-2.7 0-1.9 1.5-2.8 3.6-2.8 1 0 1.7.1 2.3.3v-.2c0-1.2-.7-1.9-2.1-1.9-.8 0-1.4.1-2 .4-.1 0-.2 0-.3 0-.4 0-.8-.4-.8-.8s.2-.7.5-.8c.9-.3 1.7-.5 2.8-.5 1.3 0 2.3.3 2.9.9.7.7 1 1.6 1 2.7v4.3c0 .6-.5 1-1 1-.6 0-1-.4-1-.9v-.3c-.6.7-1.5 1.3-2.8 1.3zm-.7-10.1c.2-.4.4-.6.8-.6.5 0 1.4.7 2.3.7.9 0 1.4-.6 1.7-1.5 0-.1.1-.3.1-.4 0-.3-.3-.5-.6-.5s-.5.1-.6.3c-.2.4-.4.5-.7.5-.6 0-1.5-.6-2.4-.6-.9 0-1.3.5-1.7 1.5 0 .1-.1.2-.1.3 0 .3.3.6.6.6s.5-.2.6-.3zm1.2 8.6c1.4 0 2.4-.7 2.4-1.8v-.6c-.5-.2-1.2-.4-2-.4-1.3 0-2.1.6-2.1 1.5s.8 1.3 1.7 1.3zm10.8 1.5c-2.7 0-4.6-2-4.6-4.5s2-4.6 4.6-4.6c2.7 0 4.7 2 4.7 4.5v.1c0 2.4-2 4.5-4.7 4.5zm0-1.8c1.7 0 2.7-1.2 2.7-2.7 0-1.6-1.1-2.8-2.7-2.8s-2.6 1.2-2.6 2.7v.1c0 1.5 1.1 2.7 2.6 2.7z" class="a"/></g></svg>