<?xml version="1.0" encoding="UTF-8"?>
<svg width="26px" height="23px" viewBox="0 0 26 23" version="1.1" xmlns="http://www.w3.org/2000/svg" xmlns:xlink="http://www.w3.org/1999/xlink">
    <!-- Generator: Sketch 42 (36781) - http://www.bohemiancoding.com/sketch -->
    <title>Combined Shape</title>
    <desc>Created with Sketch.</desc>
    <defs></defs>
    <g id="Page-1" stroke="none" stroke-width="1" fill="none" fill-rule="evenodd">
        <g id="cart" fill-rule="nonzero" fill="#E75A25">
            <path d="M4.5,5.00008819 C3.94771525,5.00008819 3.5,4.55237294 3.5,4.00008819 C3.5,3.44780344 3.94771525,3.00008819 4.5,3.00008819 L25,3.00008819 C25.5522847,3.00008819 26,3.44780344 26,4.00008819 C26,4.55237294 25.5522847,5.00008819 25,5.00008819 L4.5,5.00008819 Z M5.5,14.0000882 C4.94771525,14.0000882 4.5,13.5523729 4.5,13.0000882 C4.5,12.4478034 4.94771525,12.0000882 5.5,12.0000882 L21,12.0000882 C21.5522847,12.0000882 22,12.4478034 22,13.0000882 C22,13.5523729 21.5522847,14.0000882 21,14.0000882 L5.5,14.0000882 Z M6.72637894,16.4821135 C7.24648446,16.1757948 7.85272299,16.0000882 8.5,16.0000882 C10.263236,16.0000882 11.7219407,17.3039411 11.9645556,19.0000882 L14.0354444,19.0000882 C14.2780593,17.3039411 15.736764,16.0000882 17.5,16.0000882 C19.4329966,16.0000882 21,17.5670916 21,19.5000882 C21,21.4330848 19.4329966,23.0000882 17.5,23.0000882 C16.103802,23.0000882 14.8985475,22.1825619 14.3368156,21.0000882 L11.6631844,21.0000882 C11.1014525,22.1825619 9.89619798,23.0000882 8.5,23.0000882 C6.56700338,23.0000882 5,21.4330848 5,19.5000882 C5,19.3898621 5.00509538,19.2808261 5.01506345,19.1732029 C5.01145335,19.1525472 5.00846375,19.1316471 5.00611627,19.1105197 L3.10495721,2.00008819 L1.5,2.00008819 C0.94771525,2.00008819 0.5,1.55237294 0.5,1.00008819 C0.5,0.447803443 0.94771525,8.81925852e-05 1.5,8.81925852e-05 L3.98793424,8.81925852e-05 C4.24417004,-0.00330894588 4.48306879,0.0916220209 4.6643641,0.252667967 C4.84956373,0.419650671 4.97029603,0.646604889 4.99521618,0.90164863 L6.72637894,16.4821135 Z M24.0861885,3.59394973 C24.3104925,3.08926554 24.9014543,2.86197256 25.4061385,3.08627664 C25.9108226,3.31058073 26.1381156,3.90154248 25.9138115,4.40622666 L21.9138115,13.4062267 C21.6895075,13.9109108 21.0985457,14.1382038 20.5938615,13.9138997 C20.0891774,13.6895957 19.8618844,13.0986339 20.0861885,12.5939497 L24.0861885,3.59394973 Z M8.5,21.0000882 C9.32842712,21.0000882 10,20.3285153 10,19.5000882 C10,18.6716611 9.32842712,18.0000882 8.5,18.0000882 C7.67157288,18.0000882 7,18.6716611 7,19.5000882 C7,20.3285153 7.67157288,21.0000882 8.5,21.0000882 Z M17.5,21.0000882 C18.3284271,21.0000882 19,20.3285153 19,19.5000882 C19,18.6716611 18.3284271,18.0000882 17.5,18.0000882 C16.6715729,18.0000882 16,18.6716611 16,19.5000882 C16,20.3285153 16.6715729,21.0000882 17.5,21.0000882 Z M8,8 C7.44771525,8 7,7.55228475 7,7 C7,6.44771525 7.44771525,6 8,6 L20,6 C20.5522847,6 21,6.44771525 21,7 C21,7.55228475 20.5522847,8 20,8 L8,8 Z M8,11 C7.44771525,11 7,10.5522847 7,10 C7,9.44771525 7.44771525,9 8,9 L19,9 C19.5522847,9 20,9.44771525 20,10 C20,10.5522847 19.5522847,11 19,11 L8,11 Z M7,1 L18,1 L18,4 L7,4 L7,1 Z" id="Combined-Shape"></path>
        </g>
    </g>
</svg>