<svg width="24" height="28" viewBox="0 0 24 28" xmlns="http://www.w3.org/2000/svg"><title>Fill 1</title><path d="M19.993 16.223H3.04c-.354 0-.63.064-.837.175a1.015 1.015 0 0 0-.427.437 1.664 1.664 0 0 0-.156.746c0 .464.137.972.391 1.444.866 1.609 2.41 3.152 4.127 4.325 1.753 1.2 3.655 1.995 5.158 2.06l.116.004h.209l.116-.004c1.503-.065 3.405-.86 5.159-2.06 1.715-1.172 3.26-2.716 4.126-4.325.254-.472.39-.98.39-1.444 0-.282-.049-.539-.154-.746a1.01 1.01 0 0 0-.427-.437c-.207-.11-.483-.175-.838-.175zM3.04 14.603h16.953c.632 0 1.165.135 1.604.371.5.27.864.662 1.103 1.133.226.444.334.95.334 1.474 0 .722-.207 1.5-.587 2.21-.993 1.844-2.728 3.588-4.64 4.895-1.985 1.356-4.193 2.26-6 2.338h-.013l-.128.003h-.016l-.127.002h-.012l-.128-.002h-.016l-.127-.003h-.013c-1.807-.078-4.016-.982-6-2.338-1.913-1.307-3.648-3.051-4.64-4.896C.206 19.081 0 18.303 0 17.58c0-.523.108-1.029.333-1.473.24-.47.604-.864 1.103-1.133.44-.236.973-.371 1.604-.371zM15.209 3.146a5.204 5.204 0 0 0-3.692-1.526c-1.444 0-2.75.583-3.692 1.526l-.004.003a5.204 5.204 0 0 0-1.526 3.692c0 1.443.585 2.748 1.53 3.692a5.205 5.205 0 0 0 3.692 1.53 5.205 5.205 0 0 0 3.692-1.53 5.202 5.202 0 0 0 1.529-3.692c0-1.443-.583-2.749-1.526-3.692l-.003-.003zM11.517 0a6.82 6.82 0 0 1 4.834 2.004l.001.002.002.002a6.817 6.817 0 0 1 2.004 4.833c0 1.89-.765 3.6-2.004 4.838a6.82 6.82 0 0 1-4.837 2.004 6.82 6.82 0 0 1-4.838-2.004A6.82 6.82 0 0 1 4.675 6.84c0-1.885.766-3.595 2.004-4.833l.002-.002.002-.002A6.818 6.818 0 0 1 11.517 0z" fill="#e75a25" fill-rule="evenodd"/></svg>