<svg width="13" height="14" viewBox="0 0 13 14" xmlns="http://www.w3.org/2000/svg"><title>Group 3</title><g fill="#FFF" fill-rule="evenodd"><path d="M3.706 3.191h5.459V.721h-5.46v2.47zm8.135 0H9.885V0h-6.9v3.191H1.03C.463 3.191 0 3.654 0 4.221v4.941c0 .566.463 1.03 1.03 1.03h1.078V9.47H1.029a.313.313 0 0 1-.308-.309V4.221c0-.168.141-.31.308-.31h10.812c.168 0 .309.142.309.31v4.941a.313.313 0 0 1-.309.309h-1.07v.72h1.07c.566 0 1.03-.463 1.03-1.029V4.221c0-.567-.464-1.03-1.03-1.03z"/><path d="M3.613 12.877h5.561V7.73H3.613v5.147zM10.787 7H2v.72h.892v5.878h7.003V7.72h.892V7z"/><path d="M7.358 10.72H4.36a.36.36 0 0 1 0-.72h2.998a.36.36 0 0 1 0 .72M7.358 11.72H4.36a.36.36 0 0 1 0-.72h2.998a.36.36 0 0 1 0 .72"/></g></svg>