<svg width="12" height="12" viewBox="0 0 12 12" xmlns="http://www.w3.org/2000/svg"><title>Page 1</title><path d="M10.122 2.763l-.885-.885.585-.585.885.885-.585.585zM2.655 10.23l-1.296.411.411-1.296 6.71-6.71.885.885-6.71 6.71zm9.188-8.43L10.201.156a.536.536 0 0 0-.758 0L.92 8.68a.528.528 0 0 0-.135.228l-.76 2.395a.536.536 0 0 0 .672.672H.7l2.403-.763a.54.54 0 0 0 .217-.132l7.13-7.131c.02-.015.043-.022.061-.04.018-.018.025-.04.04-.06l1.292-1.292a.535.535 0 0 0 0-.758z" fill="#FFF" fill-rule="evenodd"/></svg>