<svg width="17" height="16" viewBox="0 0 17 16" xmlns="http://www.w3.org/2000/svg" xmlns:xlink="http://www.w3.org/1999/xlink"><title>Page 1</title><defs><path id="a" d="M16.08 0H0v15.912h16.08V0z"/></defs><g fill="none" fill-rule="evenodd"><mask id="b" fill="#fff"><use xlink:href="#a"/></mask><path d="M3.223 14.595a1.225 1.225 0 0 1-.869.357c-.315 0-.63-.119-.868-.357a1.224 1.224 0 0 1-.357-.869c0-.316.12-.631.357-.869L9.424 4.92a.48.48 0 0 0 .125-.453 2.85 2.85 0 0 1 .022-1.443c.123-.443.357-.863.701-1.214l.024-.022A2.806 2.806 0 0 1 12.223.96l-.347.346-.64.641a.48.48 0 0 0-.125.463l.235.876.232.866a.48.48 0 0 0 .342.348l.875.235.85.228a.48.48 0 0 0 .488-.117l.641-.641.347-.347a2.813 2.813 0 0 1-.827 1.927 2.82 2.82 0 0 1-2.65.753.48.48 0 0 0-.483.119l-7.938 7.938zm8.481-4.078l2.34 2.34c.238.238.357.553.357.87 0 .315-.119.63-.356.868l-.02.021a1.227 1.227 0 0 1-.85.336c-.315 0-.63-.119-.868-.357l-2.34-2.34.804-.805c.026-.017.055-.028.077-.051.023-.023.035-.052.052-.078l.804-.804zM2.072 3.61l-.988-1.62.524-.525 1.62.988L2.073 3.61zm9.586 3.909a3.808 3.808 0 0 0 1.654-.086 3.77 3.77 0 0 0 1.658-.969h.002c.5-.5.831-1.107.993-1.748a3.803 3.803 0 0 0-.043-2.015.479.479 0 0 0-.798-.202l-1.028 1.028-.446.446-.608-.163-.607-.163-.163-.608-.163-.608.445-.445L13.583.957a.48.48 0 0 0-.227-.806 3.801 3.801 0 0 0-1.99-.036 3.772 3.772 0 0 0-1.774 1.021 3.77 3.77 0 0 0-1.029 3.287L6.557 6.429 3.583 3.455l.755-.755a.48.48 0 0 0-.09-.748L1.812.467a.48.48 0 0 0-.616.053L.139 1.576H.14a.479.479 0 0 0-.07.589L1.554 4.6a.48.48 0 0 0 .766.119l.585-.586 2.973 2.974-5.07 5.072a2.181 2.181 0 0 0-.64 1.547 2.181 2.181 0 0 0 2.186 2.186c.56 0 1.122-.213 1.548-.639l5.071-5.07.845.843-.87.87a.48.48 0 0 0 0 .678l2.68 2.68c.426.425.987.638 1.548.638a2.179 2.179 0 0 0 1.547-.639c.426-.425.638-.987.638-1.547 0-.56-.213-1.122-.638-1.547l-2.68-2.68a.48.48 0 0 0-.678 0l-.869.869-.844-.845 2.006-2.005z" fill="#FFF" mask="url(#b)"/></g></svg>