<?xml version="1.0" encoding="UTF-8"?>
<svg width="20px" height="20px" viewBox="0 0 20 20" version="1.1" xmlns="http://www.w3.org/2000/svg" xmlns:xlink="http://www.w3.org/1999/xlink">
    <!-- Generator: Sketch 46.2 (44496) - http://www.bohemiancoding.com/sketch -->
    <title>Group 8</title>
    <desc>Created with Sketch.</desc>
    <defs></defs>
    <g id="Symbols" stroke="none" stroke-width="1" fill="none" fill-rule="evenodd">
        <g id="Menu-–-Alteração-Nutricionistas" transform="translate(-1116.000000, -67.000000)" fill="#41B505">
            <g id="Group-8" transform="translate(1116.000000, 67.000000)">
                <path d="M17.2413793,7.24137931 C17.2413793,3.24207595 13.9993034,0 10,0 C6.00069664,0 2.75862069,3.24207595 2.75862069,7.24137931 C2.75862069,7.62226534 3.06738983,7.93103448 3.44827586,7.93103448 C3.8291619,7.93103448 4.13793103,7.62226534 4.13793103,7.24137931 C4.13793103,4.00384802 6.76246871,1.37931034 10,1.37931034 C13.2375313,1.37931034 15.862069,4.00384802 15.862069,7.24137931 C15.862069,7.62226534 16.1708381,7.93103448 16.5517241,7.93103448 C16.9326102,7.93103448 17.2413793,7.62226534 17.2413793,7.24137931 Z" id="Oval" fill-rule="nonzero"></path>
                <path d="M1.37931034,9.653863 L1.37931034,12.4151025 C1.37931034,12.7982517 1.68563077,13.1034483 2.06896552,13.1034483 C2.45306346,13.1034483 2.75862069,12.797367 2.75862069,12.4151025 L2.75862069,9.653863 C2.75862069,9.27071384 2.45230026,8.96551724 2.06896552,8.96551724 C1.68486757,8.96551724 1.37931034,9.27159847 1.37931034,9.653863 Z M0,9.653863 C0,8.51035495 0.922565949,7.5862069 2.06896552,7.5862069 C3.21293974,7.5862069 4.13793103,8.50780457 4.13793103,9.653863 L4.13793103,12.4151025 C4.13793103,13.5586106 3.21536509,14.4827586 2.06896552,14.4827586 C0.924991291,14.4827586 0,13.561161 0,12.4151025 L0,9.653863 Z" id="Rectangle" fill-rule="nonzero"></path>
                <path d="M17.2413793,9.653863 L17.2413793,12.4151025 C17.2413793,12.7982517 17.5476997,13.1034483 17.9310345,13.1034483 C18.3151324,13.1034483 18.6206897,12.797367 18.6206897,12.4151025 L18.6206897,9.653863 C18.6206897,9.27071384 18.3143692,8.96551724 17.9310345,8.96551724 C17.5469365,8.96551724 17.2413793,9.27159847 17.2413793,9.653863 Z M15.862069,9.653863 C15.862069,8.51035495 16.7846349,7.5862069 17.9310345,7.5862069 C19.0750087,7.5862069 20,8.50780457 20,9.653863 L20,12.4151025 C20,13.5586106 19.0774341,14.4827586 17.9310345,14.4827586 C16.7870603,14.4827586 15.862069,13.561161 15.862069,12.4151025 L15.862069,9.653863 Z" id="Rectangle-Copy-2" fill-rule="nonzero"></path>
                <path d="M15.862069,11.0344828 L15.862069,15.0062757 C15.862069,16.2405221 14.8596699,17.2413793 13.6223183,17.2413793 L11.2052679,17.2413793 C10.8243818,17.2413793 10.5156127,17.5501484 10.5156127,17.9310345 C10.5156127,18.3119205 10.8243818,18.6206897 11.2052679,18.6206897 L13.6223183,18.6206897 C15.6209671,18.6206897 17.2413793,17.0027698 17.2413793,15.0062757 L17.2413793,11.0344828 C17.2413793,10.6535967 16.9326102,10.3448276 16.5517241,10.3448276 C16.1708381,10.3448276 15.862069,10.6535967 15.862069,11.0344828 Z" id="Rectangle-Copy-3" fill-rule="nonzero"></path>
                <path d="M4.13793103,11.3793103 L4.13793103,7.1843017 C4.13793103,6.80341567 3.8291619,6.49464653 3.44827586,6.49464653 C3.06738983,6.49464653 2.75862069,6.80341567 2.75862069,7.1843017 L2.75862069,11.3793103 C2.75862069,11.7601964 3.06738983,12.0689655 3.44827586,12.0689655 C3.8291619,12.0689655 4.13793103,11.7601964 4.13793103,11.3793103 Z" id="Line" fill-rule="nonzero"></path>
                <path d="M17.2413793,11.3793103 L17.2413793,7.1843017 C17.2413793,6.80341567 16.9326102,6.49464653 16.5517241,6.49464653 C16.1708381,6.49464653 15.862069,6.80341567 15.862069,7.1843017 L15.862069,11.3793103 C15.862069,11.7601964 16.1708381,12.0689655 16.5517241,12.0689655 C16.9326102,12.0689655 17.2413793,11.7601964 17.2413793,11.3793103 Z" id="Line-Copy-2" fill-rule="nonzero"></path>
                <circle id="Oval-2" cx="7.5862069" cy="10.3448276" r="1.37931034"></circle>
                <circle id="Oval-2-Copy-2" cx="10.3448276" cy="17.9310345" r="2.06896552"></circle>
                <circle id="Oval-2-Copy" cx="13.1034483" cy="10.3448276" r="1.37931034"></circle>
            </g>
        </g>
    </g>
</svg>