<svg width="13" height="14" viewBox="0 0 13 14" xmlns="http://www.w3.org/2000/svg"><title>Page 1</title><path d="M4.654 2.71h3.645v-.103A1.824 1.824 0 0 0 6.476.785a1.825 1.825 0 0 0-1.822 1.822v.103zm-.46 1.913a.258.258 0 1 0 0 .517.258.258 0 0 0 0-.517zm4.565 0a.258.258 0 1 0 0 .517.258.258 0 0 0 0-.517zM1.446 3.495c-.082 0-.13.08-.134.156l-.527 9.452c-.001.027.015.05.028.065a.152.152 0 0 0 .106.047h11.114a.15.15 0 0 0 .106-.048c.011-.012.03-.036.029-.064L11.64 3.65c-.004-.077-.056-.156-.134-.156H9.084v.395a1.044 1.044 0 1 1-1.368.992c0-.41.238-.766.583-.937v-.45H4.654v.45a1.044 1.044 0 1 1-.785-.055v-.395H1.445zM12.033 14H.92a.937.937 0 0 1-.676-.293A.866.866 0 0 1 0 13.06l.527-9.452c.028-.503.431-.897.918-.897h2.422v-.103A2.61 2.61 0 0 1 6.476 0a2.61 2.61 0 0 1 2.608 2.607v.103h2.423c.486 0 .89.394.918.897l.527 9.452a.867.867 0 0 1-.243.648.936.936 0 0 1-.676.293z" fill="#FFF" fill-rule="evenodd"/></svg>