<svg xmlns="http://www.w3.org/2000/svg" width="18" height="18"><path fill="#FFF" d="M17.77 2.68L12.65 6.1l3.34.67a.54.54 0 0 1-.23 1.06l-4.62-.92c-.03 0-.06 0-.1-.02-.02 0-.04-.02-.07-.03a.53.53 0 0 1-.18-.16.55.55 0 0 1-.08-.4l.92-4.64a.54.54 0 0 1 1.06.2l-.67 3.35 5.12-3.4a.54.54 0 1 1 .6.9zm-4.24 12.77l-2.74-3.58 1.16-.9 2.74 3.57-1.17.9zm-2.02 1.28c-1.06.8-4.3-1-7.24-4.83C1.33 8.1.46 4.48 1.48 3.63c.6-.48.8-.62.85-.67a.53.53 0 0 0 .2-.1L4.78 5.8c-.04.02-.07.03-.1.05-1.1 1.08-.84 3.33.6 5.22 1.1 1.4 2.53 2.23 3.75 2.23.4 0 .8-.1 1.14-.3.02-.02.04-.05.07-.07l2.25 2.95a.5.5 0 0 0-.1.14c-.06.04-.23.18-.9.7zM4.4 1.1l2.75 3.58-1.18.9L3.23 2l1.2-.9zm8.4 9.16a1.02 1.02 0 0 0-1.44-.2l-1.27 1a1.02 1.02 0 0 0-.4.67c-.03.1 0 .23 0 .34-.02 0-.05.02-.07.03-.73.43-2.26-.08-3.47-1.66-1.22-1.6-1.3-3.2-.7-3.8 0 0 .02-.04.04-.06a1.02 1.02 0 0 0 1.1-.1l1.26-.98c.45-.34.53-.98.2-1.43L5.23.4A1.02 1.02 0 0 0 3.8.2l-1.27 1a1 1 0 0 0-.4.66c0 .02 0 .04 0 .06 0 0 0 0-.02 0-.2 0-.36.1-1.3.88-1.7 1.4-.6 5.6 2.6 9.76C6 15.96 8.87 18 10.85 18c.5 0 .94-.13 1.3-.4.94-.7 1.06-.8 1.14-.95.02-.04.02-.08.04-.12 0 0 .03 0 .05 0a1.03 1.03 0 0 0 .74-.2l1.3-.96c.43-.35.52-1 .2-1.44l-2.83-3.67z"/></svg>