<svg width="20" height="20" viewBox="0 0 20 20" xmlns="http://www.w3.org/2000/svg"><title>Icon</title><g fill="#E75A25" fill-rule="evenodd"><path d="M18.439 19.724a.91.91 0 0 0 1.304-1.266L14.89 13.46a.91.91 0 0 0-1.305 1.267l4.853 4.996z"/><path d="M9.222 14.635c-3.59 0-6.495-2.872-6.495-6.408 0-3.537 2.906-6.409 6.495-6.409 3.59 0 6.495 2.872 6.495 6.409 0 3.536-2.906 6.408-6.495 6.408zM9.222 0C4.633 0 .909 3.68.909 8.227c0 4.545 3.724 8.226 8.313 8.226s8.313-3.68 8.313-8.226C17.535 3.68 13.811 0 9.222 0z"/></g></svg>