<svg width="21" height="24" viewBox="0 0 21 24" xmlns="http://www.w3.org/2000/svg"><path d="M17.753 14.405H2.699c-.314 0-.56.057-.743.155a.901.901 0 0 0-.38.388 1.478 1.478 0 0 0-.137.663c0 .412.121.863.347 1.282.768 1.429 2.14 2.8 3.664 3.84 1.557 1.065 3.246 1.772 4.58 1.83l.103.003h.186l.103-.003c1.334-.058 3.023-.765 4.58-1.83 1.524-1.04 2.896-2.411 3.664-3.84a2.76 2.76 0 0 0 .347-1.282c0-.25-.044-.478-.138-.663a.897.897 0 0 0-.379-.388c-.183-.098-.428-.155-.743-.155zM2.699 12.966h15.054c.56 0 1.034.12 1.424.33.443.239.767.588.979 1.006.2.394.297.843.297 1.309 0 .641-.184 1.332-.522 1.961-.881 1.638-2.422 3.187-4.12 4.347-1.762 1.205-3.723 2.008-5.327 2.077h-.011l-.114.003h-.015l-.112.001h-.011l-.113-.001h-.015l-.113-.003H9.97c-1.605-.07-3.566-.872-5.328-2.077-1.698-1.16-3.239-2.709-4.12-4.347-.338-.63-.521-1.32-.521-1.961 0-.466.096-.915.296-1.309.212-.418.536-.767.98-1.006.389-.21.863-.33 1.423-.33zM13.504 2.793a4.62 4.62 0 0 0-3.278-1.354 4.62 4.62 0 0 0-3.278 1.354l-.003.003A4.62 4.62 0 0 0 5.59 6.075c0 1.28.52 2.44 1.358 3.278a4.622 4.622 0 0 0 3.278 1.358c1.28 0 2.44-.52 3.278-1.358a4.619 4.619 0 0 0 1.358-3.278 4.62 4.62 0 0 0-1.355-3.279l-.003-.003zM10.226 0c1.674 0 3.192.68 4.293 1.78v.001l.002.002a6.053 6.053 0 0 1 1.78 4.292c0 1.677-.68 3.196-1.78 4.295a6.056 6.056 0 0 1-4.295 1.78 6.056 6.056 0 0 1-4.295-1.78 6.056 6.056 0 0 1-1.78-4.295c0-1.674.68-3.192 1.78-4.292l.001-.002.002-.001A6.054 6.054 0 0 1 10.226 0z" fill="#E75A25"/></svg>