<svg xmlns="http://www.w3.org/2000/svg" width="1109" height="51" viewBox="0 0 1109 51"><style>.a{fill:#F6A623;}.b{fill:#E75B22;}.c{fill:#EBEBEB;}</style><g fill="none"><g transform="translate(-243 -10)translate(243 10)"><path d="M33.9 35.1C33.9 35.4 33.7 35.6 33.5 35.6L33.4 35.6C32.3 33 29.8 31.3 27 31.3 24.3 31.3 21.8 33 20.7 35.6L15.2 35.6C14.2 33 11.7 31.3 8.9 31.3 6.1 31.3 3.6 33 2.6 35.6L2.5 35.6C2.2 35.6 2 35.4 2 35.1L2 29.2C2.2 29.2 2.3 29.2 2.5 29.2L21.5 29.2C22.8 29.2 23.9 28.1 23.9 26.8L23.9 26.6 23.9 22.7 28.3 22.6C28.7 22.6 29.8 23.2 30.1 23.6L32.8 27.4C33.5 28.4 33.9 29.6 33.9 30.8L33.9 35.1ZM2 11.5C2 11.3 2.2 11.1 2.5 11.1L21.5 11.1C21.7 11.1 21.9 11.3 21.9 11.5L21.9 21.6 21.9 26.6C21.9 26.8 21.7 27 21.5 27L2.5 27C2.2 27 2 26.8 2 26.6L2 11.5ZM34.5 26.2L31.7 22.4C31.1 21.6 29.4 20.5 28.2 20.6L23.9 20.6 23.9 11.5C23.9 10.2 22.8 9.1 21.5 9.1L2.5 9.1C1.1 9.1 0 10.2 0 11.5L0 26.6C0 26.6 0 26.7 0 26.7 0 26.7 0 26.7 0 26.8L0 35.1C0 36.5 1.1 37.6 2.5 37.6L3.3 37.6C3.8 37.6 4.2 37.3 4.3 36.9 4.9 34.8 6.8 33.4 8.9 33.4 11 33.4 12.9 34.8 13.5 36.9 13.6 37.3 14 37.6 14.5 37.6L21.5 37.6C21.9 37.6 22.3 37.3 22.4 36.9 23 34.8 24.9 33.4 27 33.4 29.2 33.4 31.1 34.8 31.7 36.9 31.8 37.3 32.2 37.6 32.6 37.6L33.5 37.6C34.8 37.6 35.9 36.5 35.9 35.1L35.9 30.8C35.9 29.2 35.4 27.5 34.5 26.2L34.5 26.2Z" class="a"/><path d="M8.9 40.5C7.8 40.5 6.9 39.6 6.9 38.5 6.9 37.4 7.8 36.5 8.9 36.5 10 36.5 10.9 37.4 10.9 38.5 10.9 39.6 10 40.5 8.9 40.5M8.9 34.5C6.7 34.5 4.9 36.3 4.9 38.5 4.9 40.7 6.7 42.5 8.9 42.5 11.1 42.5 12.9 40.7 12.9 38.5 12.9 36.3 11.1 34.5 8.9 34.5" class="a"/><path d="M27 40.5C26 40.5 25.1 39.6 25.1 38.5 25.1 37.4 26 36.5 27 36.5 28.1 36.5 29 37.4 29 38.5 29 39.6 28.1 40.5 27 40.5M27 34.5C24.8 34.5 23 36.3 23 38.5 23 40.7 24.8 42.5 27 42.5 29.3 42.5 31.1 40.7 31.1 38.5 31.1 36.3 29.3 34.5 27 34.5" class="a"/><path d="M48.4 23L54.7 23C55.2 23 55.6 22.6 55.6 22.1 55.6 21.7 55.2 21.3 54.7 21.3L49.3 21.3 49.3 18.4 54 18.4C54.4 18.4 54.8 18 54.8 17.5 54.8 17.1 54.4 16.7 54 16.7L49.3 16.7 49.3 13.9 54.7 13.9C55.1 13.9 55.5 13.5 55.5 13 55.5 12.5 55.1 12.2 54.7 12.2L48.4 12.2C47.8 12.2 47.4 12.6 47.4 13.1L47.4 22C47.4 22.6 47.8 23 48.4 23ZM57.6 22.1C57.6 22.7 58 23.1 58.5 23.1 59 23.1 59.4 22.7 59.4 22.1L59.4 18.4C59.4 17.1 60.2 16.4 61.3 16.4 62.4 16.4 63 17.1 63 18.4L63 22.1C63 22.7 63.5 23.1 64 23.1 64.5 23.1 64.9 22.7 64.9 22.1L64.9 17.8C64.9 15.9 63.8 14.6 62 14.6 60.7 14.6 60 15.3 59.4 16.1L59.4 15.7C59.4 15.1 59 14.7 58.5 14.7 58 14.7 57.6 15.1 57.6 15.7L57.6 22.1ZM69.9 23.1C70.4 23.1 70.8 23.1 71.2 22.9 71.5 22.8 71.7 22.5 71.7 22.2 71.7 21.8 71.3 21.4 70.9 21.4 70.8 21.4 70.7 21.5 70.4 21.5 69.8 21.5 69.4 21.2 69.4 20.4L69.4 16.4 70.9 16.4C71.4 16.4 71.7 16.1 71.7 15.6 71.7 15.2 71.4 14.8 70.9 14.8L69.4 14.8 69.4 13.4C69.4 12.9 69 12.5 68.5 12.5 68 12.5 67.6 12.9 67.6 13.4L67.6 14.8 67.3 14.8C66.8 14.8 66.4 15.2 66.4 15.6 66.4 16.1 66.8 16.4 67.3 16.4L67.6 16.4 67.6 20.7C67.6 22.5 68.5 23.1 69.9 23.1ZM73.5 22.1C73.5 22.7 74 23.1 74.5 23.1 75 23.1 75.4 22.7 75.4 22.1L75.4 19.7C75.4 17.8 76.3 16.8 77.7 16.5 78.1 16.5 78.4 16.1 78.4 15.6 78.4 15.1 78.1 14.7 77.5 14.7 76.7 14.7 75.9 15.5 75.4 16.5L75.4 15.7C75.4 15.1 75 14.7 74.5 14.7 73.9 14.7 73.5 15.1 73.5 15.7L73.5 22.1ZM81.1 18.3L85.3 18.3C85.2 17.1 84.4 16.2 83.2 16.2 82.1 16.2 81.2 17.1 81.1 18.3ZM86.4 22.1C85.6 22.8 84.7 23.2 83.4 23.2 81 23.2 79.2 21.5 79.2 18.9L79.2 18.9C79.2 16.6 80.9 14.6 83.2 14.6 85.8 14.6 87.1 16.8 87.1 18.7 87.1 19.2 86.7 19.6 86.2 19.6L81.1 19.6C81.3 20.9 82.2 21.7 83.4 21.7 84.2 21.7 84.9 21.4 85.4 20.9 85.5 20.8 85.6 20.8 85.9 20.8 86.3 20.8 86.6 21.1 86.6 21.5 86.6 21.8 86.5 22 86.4 22.1ZM92.7 25.5C91.5 25.5 90.5 25.3 89.5 24.8 89.2 24.7 89 24.4 89 24 89 23.6 89.3 23.3 89.8 23.3 89.9 23.3 90 23.3 90.1 23.3 90.9 23.8 91.7 24 92.6 24 94.3 24 95.2 23.1 95.2 21.5L95.2 20.8C94.5 21.7 93.7 22.3 92.3 22.3 90.4 22.3 88.6 20.9 88.6 18.5L88.6 18.5C88.6 16.1 90.4 14.6 92.3 14.6 93.7 14.6 94.6 15.3 95.2 16L95.2 15.7C95.2 15.1 95.6 14.7 96.1 14.7 96.7 14.7 97.1 15.1 97.1 15.7L97.1 21.3C97.1 22.7 96.7 23.7 96 24.4 95.3 25.2 94.1 25.5 92.7 25.5ZM92.8 20.8C94.1 20.8 95.2 19.8 95.2 18.5L95.2 18.5C95.2 17.1 94.1 16.2 92.8 16.2 91.5 16.2 90.5 17.1 90.5 18.5L90.5 18.5C90.5 19.8 91.5 20.8 92.8 20.8ZM101.8 23.2C100.3 23.2 98.9 22.3 98.9 20.6L98.9 20.6C98.9 18.8 100.3 18 102.3 18 103.2 18 103.8 18.1 104.5 18.3L104.5 18.1C104.5 17 103.8 16.3 102.4 16.3 101.7 16.3 101.1 16.5 100.6 16.7 100.5 16.7 100.4 16.7 100.3 16.7 99.9 16.7 99.5 16.4 99.5 15.9 99.5 15.6 99.8 15.3 100 15.2 100.8 14.9 101.6 14.7 102.7 14.7 103.9 14.7 104.8 15 105.4 15.6 106 16.2 106.3 17.1 106.3 18.1L106.3 22.2C106.3 22.7 105.9 23.1 105.4 23.1 104.8 23.1 104.5 22.7 104.5 22.3L104.5 22C103.9 22.6 103 23.2 101.8 23.2ZM102.3 21.8C103.6 21.8 104.5 21.1 104.5 20.1L104.5 19.5C104 19.3 103.4 19.2 102.6 19.2 101.4 19.2 100.7 19.7 100.7 20.5L100.7 20.6C100.7 21.4 101.4 21.8 102.3 21.8ZM108.5 22.1C108.5 22.7 108.9 23.1 109.5 23.1 110 23.1 110.4 22.7 110.4 22.1L110.4 18.4C110.4 17.1 111.1 16.4 112.2 16.4 113.2 16.4 113.8 17.1 113.8 18.3L113.8 22.1C113.8 22.7 114.2 23.1 114.8 23.1 115.3 23.1 115.7 22.7 115.7 22.1L115.7 18.4C115.7 17.1 116.4 16.4 117.4 16.4 118.5 16.4 119.1 17 119.1 18.4L119.1 22.1C119.1 22.7 119.5 23.1 120 23.1 120.6 23.1 121 22.7 121 22.1L121 17.8C121 15.8 119.9 14.6 118.1 14.6 116.9 14.6 116 15.2 115.3 16.1 114.9 15.2 114.1 14.6 112.9 14.6 111.6 14.6 110.9 15.3 110.4 16.1L110.4 15.7C110.4 15.1 110 14.7 109.5 14.7 108.9 14.7 108.5 15.1 108.5 15.7L108.5 22.1ZM127.1 23.2C124.6 23.2 122.8 21.3 122.8 19L122.8 18.9C122.8 16.6 124.7 14.6 127.2 14.6 129.7 14.6 131.5 16.6 131.5 18.9L131.5 18.9C131.5 21.2 129.7 23.2 127.1 23.2ZM127.2 21.5C128.7 21.5 129.7 20.4 129.7 19L129.7 18.9C129.7 17.5 128.6 16.3 127.1 16.3 125.6 16.3 124.7 17.5 124.7 18.9L124.7 18.9C124.7 20.3 125.7 21.5 127.2 21.5ZM136.2 23.2C137.9 23.2 139.3 22.3 139.3 20.6L139.3 20.6C139.3 19.1 137.9 18.5 136.7 18.2 135.8 17.9 134.9 17.6 134.9 17L134.9 17C134.9 16.5 135.3 16.2 136 16.2 136.6 16.2 137.3 16.4 138 16.7 138.1 16.8 138.2 16.8 138.3 16.8 138.8 16.8 139.1 16.5 139.1 16.1 139.1 15.7 138.9 15.5 138.7 15.3 137.9 14.9 137 14.7 136.1 14.7 134.5 14.7 133.2 15.6 133.2 17.2L133.2 17.2C133.2 18.8 134.5 19.3 135.7 19.6 136.7 19.9 137.6 20.1 137.6 20.8L137.6 20.8C137.6 21.3 137.1 21.7 136.3 21.7 135.5 21.7 134.7 21.4 133.9 20.9 133.8 20.8 133.7 20.8 133.5 20.8 133.1 20.8 132.8 21.1 132.8 21.5 132.8 21.8 132.9 22.1 133.1 22.2 134.1 22.8 135.2 23.2 136.2 23.2ZM147.3 18.3L151.5 18.3C151.3 17.1 150.6 16.2 149.4 16.2 148.2 16.2 147.4 17.1 147.3 18.3ZM152.5 22.1C151.8 22.8 150.9 23.2 149.6 23.2 147.2 23.2 145.4 21.5 145.4 18.9L145.4 18.9C145.4 16.6 147.1 14.6 149.4 14.6 152 14.6 153.3 16.8 153.3 18.7 153.3 19.2 152.9 19.6 152.4 19.6L147.3 19.6C147.5 20.9 148.4 21.7 149.6 21.7 150.4 21.7 151 21.4 151.6 20.9 151.7 20.8 151.8 20.8 152.1 20.8 152.5 20.8 152.8 21.1 152.8 21.5 152.8 21.8 152.7 22 152.5 22.1ZM155.2 22.1C155.2 22.7 155.6 23.1 156.1 23.1 156.7 23.1 157.1 22.7 157.1 22.1L157.1 18.4C157.1 17.1 157.8 16.4 158.8 16.4 159.9 16.4 160.5 17.1 160.5 18.3L160.5 22.1C160.5 22.7 160.9 23.1 161.4 23.1 162 23.1 162.4 22.7 162.4 22.1L162.4 18.4C162.4 17.1 163.1 16.4 164.1 16.4 165.2 16.4 165.8 17 165.8 18.4L165.8 22.1C165.8 22.7 166.2 23.1 166.7 23.1 167.3 23.1 167.7 22.7 167.7 22.1L167.7 17.8C167.7 15.8 166.6 14.6 164.8 14.6 163.6 14.6 162.7 15.2 162 16.1 161.6 15.2 160.8 14.6 159.6 14.6 158.3 14.6 157.6 15.3 157.1 16.1L157.1 15.7C157.1 15.1 156.7 14.7 156.1 14.7 155.6 14.7 155.2 15.1 155.2 15.7L155.2 22.1Z" class="a"/><path d="M51.7 41.2C52.4 41.2 52.9 41.1 53.4 40.9 53.8 40.7 54.1 40.3 54.1 39.8 54.1 39.1 53.6 38.6 52.9 38.6 52.9 38.6 52.7 38.6 52.6 38.6 51.9 38.6 51.7 38.3 51.7 37.6L51.7 33.3 52.9 33.3C53.6 33.3 54.2 32.7 54.2 32.1 54.2 31.4 53.6 30.8 52.9 30.8L51.7 30.8 51.7 29.5C51.7 28.7 51 28.1 50.2 28.1 49.4 28.1 48.8 28.7 48.8 29.5L48.8 30.8 48.7 30.8C48 30.8 47.4 31.4 47.4 32.1 47.4 32.7 48 33.3 48.7 33.3L48.8 33.3 48.8 38.1C48.8 40.5 50 41.2 51.7 41.2ZM60.9 41.2C57.7 41.2 55.4 38.9 55.4 36L55.4 35.9C55.4 33 57.8 30.6 60.9 30.6 64.1 30.6 66.4 33 66.4 35.9L66.4 35.9C66.4 38.9 64.1 41.2 60.9 41.2ZM60.9 38.7C62.6 38.7 63.6 37.5 63.6 36L63.6 35.9C63.6 34.4 62.5 33.1 60.9 33.1 59.2 33.1 58.2 34.4 58.2 35.9L58.2 35.9C58.2 37.4 59.3 38.7 60.9 38.7ZM78.7 28.5L78.7 39.7C78.7 40.5 78.1 41.1 77.3 41.1 76.5 41.1 75.9 40.5 75.9 39.7L75.9 39.5C75.2 40.5 74.2 41.2 72.7 41.2 70.3 41.2 68.1 39.3 68.1 35.9L68.1 35.9C68.1 32.5 70.3 30.6 72.7 30.6 74.2 30.6 75.2 31.3 75.9 32.1L75.9 28.5C75.9 27.7 76.5 27 77.3 27 78.1 27 78.7 27.7 78.7 28.5ZM73.4 33.1C72.1 33.1 70.9 34.2 70.9 35.9L70.9 35.9C70.9 37.6 72.1 38.7 73.4 38.7 74.8 38.7 75.9 37.6 75.9 35.9L75.9 35.9C75.9 34.2 74.8 33.1 73.4 33.1ZM86.3 41.2C83.2 41.2 80.8 38.9 80.8 36L80.8 35.9C80.8 33 83.2 30.6 86.4 30.6 89.5 30.6 91.9 33 91.9 35.9L91.9 35.9C91.9 38.9 89.5 41.2 86.3 41.2ZM86.4 38.7C88 38.7 89 37.5 89 36L89 35.9C89 34.4 87.9 33.1 86.3 33.1 84.7 33.1 83.7 34.4 83.7 35.9L83.7 35.9C83.7 37.4 84.8 38.7 86.4 38.7ZM104.6 41.2C101.5 41.2 99.2 38.9 99.2 36L99.2 35.9C99.2 33 101.5 30.6 104.7 30.6 107.8 30.6 110.2 33 110.2 35.9L110.2 35.9C110.2 38.9 107.8 41.2 104.6 41.2ZM104.7 38.7C106.3 38.7 107.3 37.5 107.3 36L107.3 35.9C107.3 34.4 106.2 33.1 104.6 33.1 103 33.1 102 34.4 102 35.9L102 35.9C102 37.4 103.1 38.7 104.7 38.7ZM118.3 39.5L118.3 29.2C118.3 28.3 118.9 27.7 119.7 27.7L124.4 27.7C126 27.7 127.2 28.1 127.9 28.9 128.5 29.5 128.8 30.2 128.8 31.1L128.8 31.2C128.8 32.7 128 33.5 127.1 34 128.6 34.6 129.6 35.5 129.6 37.3L129.6 37.4C129.6 39.8 127.6 41 124.6 41L119.7 41C118.9 41 118.3 40.4 118.3 39.5ZM121.1 33.1L123.8 33.1C125.1 33.1 125.9 32.7 125.9 31.7L125.9 31.6C125.9 30.8 125.2 30.3 124 30.3L121.1 30.3 121.1 33.1ZM121.1 38.4L124.6 38.4C125.9 38.4 126.7 38 126.7 37L126.7 37C126.7 36.1 126 35.5 124.5 35.5L121.1 35.5 121.1 38.4ZM131.7 39.7C131.7 40.5 132.3 41.1 133.1 41.1 133.9 41.1 134.6 40.5 134.6 39.7L134.6 37C134.6 34.9 135.4 33.8 136.9 33.5 137.4 33.3 137.9 32.9 137.9 32.1 137.9 31.3 137.4 30.7 136.5 30.7 135.7 30.7 135 31.6 134.6 32.6L134.6 32.1C134.6 31.3 133.9 30.7 133.1 30.7 132.3 30.7 131.7 31.3 131.7 32.1L131.7 39.7ZM142 41.2C140.1 41.2 138.5 40.1 138.5 38.1L138.5 38C138.5 35.8 140.2 34.8 142.6 34.8 143.7 34.8 144.4 35 145.1 35.2L145.1 35C145.1 33.8 144.4 33.2 143 33.2 142.2 33.2 141.5 33.3 141 33.5 140.8 33.5 140.7 33.5 140.5 33.5 139.9 33.5 139.3 33 139.3 32.4 139.3 31.8 139.7 31.4 140.1 31.2 141 30.9 142 30.7 143.4 30.7 144.9 30.7 146.1 31.1 146.8 31.8 147.6 32.6 147.9 33.7 147.9 35.1L147.9 39.7C147.9 40.5 147.3 41.1 146.5 41.1 145.7 41.1 145.1 40.5 145.1 39.9L145.1 39.9C144.4 40.7 143.4 41.2 142 41.2ZM142.9 39.2C144.3 39.2 145.2 38.5 145.2 37.4L145.2 36.9C144.7 36.7 144 36.5 143.3 36.5 142.1 36.5 141.3 37 141.3 37.9L141.3 38C141.3 38.7 142 39.2 142.9 39.2ZM154 41.2C156.2 41.2 157.9 40.2 157.9 37.9L157.9 37.9C157.9 36 156.2 35.3 154.8 34.8 153.7 34.5 152.7 34.2 152.7 33.6L152.7 33.6C152.7 33.2 153.1 32.9 153.8 32.9 154.4 32.9 155.2 33.1 156 33.5 156.2 33.6 156.3 33.7 156.5 33.7 157.2 33.7 157.7 33.2 157.7 32.5 157.7 32 157.4 31.7 157 31.4 156 30.9 154.9 30.7 153.8 30.7 151.8 30.7 150.1 31.8 150.1 33.9L150.1 33.9C150.1 35.9 151.7 36.6 153.2 37 154.3 37.3 155.3 37.5 155.3 38.2L155.3 38.2C155.3 38.7 154.9 39 154 39 153.2 39 152.3 38.7 151.3 38.1 151.1 38 150.9 37.9 150.7 37.9 150.1 37.9 149.6 38.4 149.6 39 149.6 39.5 149.8 39.8 150.1 40 151.4 40.8 152.7 41.2 154 41.2ZM159.9 28.4C159.9 29.3 160.6 29.8 161.5 29.8 162.4 29.8 163.1 29.3 163.1 28.4L163.1 28.4C163.1 27.5 162.4 27 161.5 27 160.6 27 159.9 27.5 159.9 28.4L159.9 28.4ZM160.1 39.7C160.1 40.5 160.7 41.1 161.5 41.1 162.3 41.1 163 40.5 163 39.7L163 32.1C163 31.3 162.3 30.7 161.5 30.7 160.7 30.7 160.1 31.3 160.1 32.1L160.1 39.7ZM165.8 39.7C165.8 40.5 166.5 41.1 167.3 41.1 168 41.1 168.7 40.5 168.7 39.7L168.7 28.5C168.7 27.7 168 27 167.3 27 166.5 27 165.8 27.7 165.8 28.5L165.8 39.7Z" class="b"/><path d="M255.1 18.2C253.5 18.2 252.3 17.7 251.5 16.9 250.5 15.9 250 14.6 250 12.1L250 12.1C250 8.2 251.7 5.2 255.5 5.2 256.8 5.2 257.8 5.5 258.5 5.9 259 6.2 259.3 6.6 259.3 7.1 259.3 7.8 258.7 8.4 257.9 8.4 257.7 8.4 257.5 8.3 257.3 8.2 256.7 7.9 256.2 7.7 255.4 7.7 253.8 7.7 253.1 9 252.9 10.6 253.5 10.2 254.2 9.8 255.5 9.8 258 9.8 259.9 11.2 259.9 13.8L259.9 13.9C259.9 16.4 257.8 18.2 255.1 18.2ZM255 15.8C256.4 15.8 257.2 15.1 257.2 14L257.2 14C257.2 12.9 256.3 12.1 255 12.1 253.6 12.1 252.8 12.9 252.8 13.9L252.8 14C252.8 15 253.6 15.8 255 15.8ZM264.8 11.7C263 11.7 261.7 10.3 261.7 8.5L261.7 8.5C261.7 6.7 263 5.3 264.8 5.3 266.6 5.3 267.8 6.7 267.8 8.4L267.8 8.5C267.8 10.2 266.6 11.7 264.8 11.7ZM263.7 17.3C263.7 17 263.8 16.8 263.9 16.7L272 5.7C272.1 5.4 272.4 5.3 272.7 5.3 273.2 5.3 273.6 5.7 273.6 6.1 273.6 6.4 273.5 6.6 273.4 6.7L265.3 17.7C265.2 18 264.9 18.1 264.6 18.1 264.1 18.1 263.7 17.7 263.7 17.3ZM272.5 18.1C270.7 18.1 269.5 16.7 269.5 15L269.5 14.9C269.5 13.1 270.7 11.7 272.5 11.7 274.4 11.7 275.6 13.1 275.6 14.9L275.6 14.9C275.6 16.7 274.3 18.1 272.5 18.1ZM264.8 10.1C265.6 10.1 266 9.3 266 8.5L266 8.5C266 7.6 265.5 6.9 264.8 6.9 264 6.9 263.6 7.6 263.6 8.4L263.6 8.5C263.6 9.3 264.1 10.1 264.8 10.1ZM272.5 16.5C273.3 16.5 273.7 15.8 273.7 15L273.7 14.9C273.7 14.1 273.2 13.3 272.5 13.3 271.8 13.3 271.4 14.1 271.4 14.9L271.4 14.9C271.4 15.8 271.8 16.5 272.5 16.5ZM292.7 6.1L292.7 16.7C292.7 17.5 292.1 18.1 291.4 18.1 290.6 18.1 290 17.5 290 16.7L290 16.6C289.3 17.5 288.4 18.2 287 18.2 284.7 18.2 282.6 16.4 282.6 13.2L282.6 13.2C282.6 9.9 284.7 8.2 287 8.2 288.4 8.2 289.3 8.8 290 9.6L290 6.1C290 5.4 290.6 4.8 291.4 4.8 292.1 4.8 292.7 5.4 292.7 6.1ZM287.7 10.5C286.4 10.5 285.3 11.5 285.3 13.2L285.3 13.2C285.3 14.8 286.4 15.9 287.7 15.9 289 15.9 290 14.8 290 13.2L290 13.2C290 11.6 289 10.5 287.7 10.5ZM297.4 12.4L301.5 12.4C301.3 11.2 300.6 10.4 299.5 10.4 298.3 10.4 297.6 11.2 297.4 12.4ZM303.1 17C302.2 17.8 301.1 18.2 299.7 18.2 296.8 18.2 294.7 16.2 294.7 13.2L294.7 13.2C294.7 10.4 296.7 8.2 299.5 8.2 302.7 8.2 304.1 10.8 304.1 12.8 304.1 13.6 303.6 14.1 302.8 14.1L297.4 14.1C297.7 15.4 298.6 16 299.8 16 300.5 16 301.2 15.8 301.7 15.4 301.9 15.2 302.1 15.2 302.4 15.2 303 15.2 303.5 15.6 303.5 16.2 303.5 16.6 303.3 16.9 303.1 17ZM321.3 6.1L321.3 16.7C321.3 17.5 320.7 18.1 319.9 18.1 319.2 18.1 318.6 17.5 318.6 16.7L318.6 16.6C317.9 17.5 317 18.2 315.6 18.2 313.3 18.2 311.2 16.4 311.2 13.2L311.2 13.2C311.2 9.9 313.3 8.2 315.6 8.2 317 8.2 317.9 8.8 318.6 9.6L318.6 6.1C318.6 5.4 319.2 4.8 319.9 4.8 320.7 4.8 321.3 5.4 321.3 6.1ZM316.3 10.5C315 10.5 313.9 11.5 313.9 13.2L313.9 13.2C313.9 14.8 315 15.9 316.3 15.9 317.5 15.9 318.6 14.8 318.6 13.2L318.6 13.2C318.6 11.6 317.5 10.5 316.3 10.5ZM326 12.4L330.1 12.4C329.9 11.2 329.2 10.4 328.1 10.4 326.9 10.4 326.2 11.2 326 12.4ZM331.7 17C330.8 17.8 329.7 18.2 328.3 18.2 325.4 18.2 323.3 16.2 323.3 13.2L323.3 13.2C323.3 10.4 325.2 8.2 328.1 8.2 331.3 8.2 332.7 10.8 332.7 12.8 332.7 13.6 332.1 14.1 331.4 14.1L326 14.1C326.3 15.4 327.1 16 328.4 16 329.1 16 329.7 15.8 330.3 15.4 330.5 15.2 330.7 15.2 331 15.2 331.6 15.2 332 15.6 332 16.2 332 16.6 331.9 16.9 331.7 17ZM338.2 18.2C340.3 18.2 341.9 17.2 341.9 15.1L341.9 15C341.9 13.3 340.3 12.6 338.9 12.2 337.9 11.8 337 11.6 337 11L337 11C337 10.6 337.3 10.3 338 10.3 338.6 10.3 339.3 10.5 340.1 10.9 340.3 11 340.4 11.1 340.6 11.1 341.2 11.1 341.7 10.6 341.7 10 341.7 9.5 341.4 9.1 341 8.9 340.1 8.5 339.1 8.2 338 8.2 336.1 8.2 334.5 9.3 334.5 11.3L334.5 11.3C334.5 13.2 336 13.8 337.4 14.2 338.5 14.5 339.4 14.7 339.4 15.3L339.4 15.4C339.4 15.8 339 16.1 338.2 16.1 337.5 16.1 336.6 15.8 335.6 15.2 335.5 15.1 335.3 15.1 335.1 15.1 334.5 15.1 334 15.5 334 16.1 334 16.6 334.2 16.9 334.5 17.1 335.7 17.8 337 18.2 338.2 18.2ZM348.4 18.2C350 18.2 351 17.7 351.8 17 352 16.8 352.2 16.5 352.2 16.1 352.2 15.5 351.7 14.9 351 14.9 350.7 14.9 350.4 15.1 350.3 15.2 349.8 15.6 349.2 15.9 348.5 15.9 347 15.9 346.1 14.7 346.1 13.2L346.1 13.2C346.1 11.7 347 10.5 348.4 10.5 349.1 10.5 349.6 10.8 350.1 11.1 350.3 11.3 350.5 11.4 350.9 11.4 351.6 11.4 352.1 10.9 352.1 10.2 352.1 9.7 351.9 9.4 351.7 9.3 350.9 8.6 349.9 8.2 348.4 8.2 345.5 8.2 343.4 10.4 343.4 13.2L343.4 13.2C343.4 16 345.5 18.2 348.4 18.2ZM358.6 18.2C355.6 18.2 353.4 16 353.4 13.2L353.4 13.2C353.4 10.4 355.6 8.2 358.6 8.2 361.6 8.2 363.8 10.4 363.8 13.2L363.8 13.2C363.8 16 361.6 18.2 358.6 18.2ZM358.6 15.9C360.2 15.9 361.1 14.7 361.1 13.2L361.1 13.2C361.1 11.8 360.1 10.5 358.6 10.5 357 10.5 356.1 11.7 356.1 13.2L356.1 13.2C356.1 14.6 357.1 15.9 358.6 15.9ZM365.8 16.7C365.8 17.5 366.4 18.1 367.2 18.1 367.9 18.1 368.5 17.5 368.5 16.7L368.5 12.6C368.5 11.3 369.2 10.7 370.2 10.7 371.3 10.7 371.9 11.3 371.9 12.6L371.9 16.7C371.9 17.5 372.5 18.1 373.3 18.1 374 18.1 374.6 17.5 374.6 16.7L374.6 11.8C374.6 9.5 373.4 8.2 371.3 8.2 370 8.2 369.2 8.9 368.5 9.7L368.5 9.6C368.5 8.9 367.9 8.2 367.2 8.2 366.4 8.2 365.8 8.9 365.8 9.6L365.8 16.7ZM380.3 18.2C380.9 18.2 381.3 18.1 381.8 17.9 382.2 17.7 382.5 17.4 382.5 16.9 382.5 16.2 382 15.7 381.4 15.7 381.3 15.7 381.2 15.8 381.1 15.8 380.5 15.8 380.2 15.4 380.2 14.8L380.2 10.7 381.4 10.7C382 10.7 382.6 10.2 382.6 9.5 382.6 8.9 382 8.4 381.4 8.4L380.2 8.4 380.2 7.1C380.2 6.4 379.6 5.8 378.8 5.8 378.1 5.8 377.4 6.4 377.4 7.1L377.4 8.4 377.4 8.4C376.7 8.4 376.2 8.9 376.2 9.5 376.2 10.2 376.7 10.7 377.4 10.7L377.4 10.7 377.4 15.3C377.4 17.5 378.6 18.2 380.3 18.2ZM388.9 18.2C385.9 18.2 383.7 16 383.7 13.2L383.7 13.2C383.7 10.4 386 8.2 389 8.2 392 8.2 394.2 10.4 394.2 13.2L394.2 13.2C394.2 16 391.9 18.2 388.9 18.2ZM389 15.9C390.5 15.9 391.5 14.7 391.5 13.2L391.5 13.2C391.5 11.8 390.4 10.5 388.9 10.5 387.4 10.5 386.4 11.7 386.4 13.2L386.4 13.2C386.4 14.6 387.5 15.9 389 15.9Z" class="b"/><path d="M250 30.6C250 31 250.3 31.4 250.8 31.4 251.2 31.4 251.6 31 251.6 30.6L251.6 27.4C251.6 26.3 252.2 25.7 253.1 25.7 254 25.7 254.6 26.3 254.6 27.4L254.6 30.6C254.6 31 254.9 31.4 255.4 31.4 255.8 31.4 256.2 31 256.2 30.6L256.2 26.9C256.2 25.3 255.3 24.3 253.7 24.3 252.6 24.3 252 24.8 251.6 25.5L251.6 25.1C251.6 24.7 251.2 24.3 250.8 24.3 250.3 24.3 250 24.7 250 25.1L250 30.6ZM261.3 31.4C259.2 31.4 257.7 29.8 257.7 27.9L257.7 27.9C257.7 25.9 259.2 24.3 261.3 24.3 263.4 24.3 265 25.9 265 27.8L265 27.9C265 29.8 263.4 31.4 261.3 31.4ZM261.3 30.1C262.6 30.1 263.4 29.1 263.4 27.9L263.4 27.9C263.4 26.7 262.5 25.7 261.3 25.7 260.1 25.7 259.2 26.6 259.2 27.8L259.2 27.9C259.2 29.1 260.1 30.1 261.3 30.1ZM270.5 30.6L270.5 22.5C270.5 22.1 270.8 21.7 271.3 21.7 271.7 21.7 272.1 22.1 272.1 22.5L272.1 25.6C272.6 24.9 273.3 24.3 274.4 24.3 276 24.3 277.6 25.6 277.6 27.8L277.6 27.9C277.6 30.1 276 31.4 274.4 31.4 273.3 31.4 272.5 30.9 272.1 30.2L272.1 30.6C272.1 31 271.7 31.4 271.3 31.4 270.8 31.4 270.5 31 270.5 30.6ZM274 30.1C275.1 30.1 276 29.2 276 27.9L276 27.8C276 26.5 275.1 25.6 274 25.6 273 25.6 272 26.5 272 27.8L272 27.9C272 29.2 273 30.1 274 30.1ZM282.5 31.4C280.4 31.4 278.8 29.8 278.8 27.9L278.8 27.9C278.8 25.9 280.4 24.3 282.5 24.3 284.6 24.3 286.2 25.9 286.2 27.8L286.2 27.9C286.2 29.8 284.6 31.4 282.5 31.4ZM282.5 30.1C283.8 30.1 284.6 29.1 284.6 27.9L284.6 27.9C284.6 26.7 283.7 25.7 282.5 25.7 281.2 25.7 280.4 26.6 280.4 27.8L280.4 27.9C280.4 29.1 281.3 30.1 282.5 30.1ZM287.8 30.6C287.8 31 288.2 31.4 288.6 31.4 289.1 31.4 289.4 31 289.4 30.6L289.4 22.5C289.4 22.1 289.1 21.7 288.6 21.7 288.2 21.7 287.8 22.1 287.8 22.5L287.8 30.6ZM292.7 27.4L296.2 27.4C296.1 26.4 295.5 25.6 294.4 25.6 293.5 25.6 292.8 26.3 292.7 27.4ZM297.1 30.5C296.5 31.1 295.7 31.4 294.6 31.4 292.6 31.4 291.1 30 291.1 27.9L291.1 27.9C291.1 25.9 292.5 24.3 294.4 24.3 296.6 24.3 297.7 26.1 297.7 27.7 297.7 28.1 297.4 28.4 297 28.4L292.7 28.4C292.8 29.5 293.6 30.2 294.6 30.2 295.3 30.2 295.8 29.9 296.3 29.6 296.4 29.5 296.5 29.4 296.7 29.4 297 29.4 297.3 29.7 297.3 30.1 297.3 30.2 297.2 30.4 297.1 30.5ZM301.6 31.4C302 31.4 302.4 31.3 302.7 31.2 302.9 31.1 303.1 30.9 303.1 30.6 303.1 30.2 302.8 30 302.5 30 302.4 30 302.2 30 302.1 30 301.5 30 301.2 29.8 301.2 29.1L301.2 25.8 302.5 25.8C302.8 25.8 303.1 25.5 303.1 25.1 303.1 24.7 302.8 24.4 302.5 24.4L301.2 24.4 301.2 23.3C301.2 22.8 300.9 22.5 300.4 22.5 300 22.5 299.6 22.8 299.6 23.3L299.6 24.4 299.4 24.4C299 24.4 298.7 24.7 298.7 25.1 298.7 25.5 299 25.8 299.4 25.8L299.6 25.8 299.6 29.4C299.6 30.9 300.5 31.4 301.6 31.4ZM307.7 31.4C305.6 31.4 304.1 29.8 304.1 27.9L304.1 27.9C304.1 25.9 305.7 24.3 307.8 24.3 309.9 24.3 311.4 25.9 311.4 27.8L311.4 27.9C311.4 29.8 309.9 31.4 307.7 31.4ZM307.8 30.1C309 30.1 309.8 29.1 309.8 27.9L309.8 27.9C309.8 26.7 309 25.7 307.7 25.7 306.5 25.7 305.7 26.6 305.7 27.8L305.7 27.9C305.7 29.1 306.5 30.1 307.8 30.1ZM316.9 30.6L316.9 22.5C316.9 22.1 317.3 21.7 317.7 21.7 318.1 21.7 318.5 22.1 318.5 22.5L318.5 25.6C319 24.9 319.7 24.3 320.8 24.3 322.4 24.3 324 25.6 324 27.8L324 27.9C324 30.1 322.5 31.4 320.8 31.4 319.7 31.4 319 30.9 318.5 30.2L318.5 30.6C318.5 31 318.1 31.4 317.7 31.4 317.3 31.4 316.9 31 316.9 30.6ZM320.4 30.1C321.5 30.1 322.4 29.2 322.4 27.9L322.4 27.8C322.4 26.5 321.5 25.6 320.4 25.6 319.4 25.6 318.4 26.5 318.4 27.8L318.4 27.9C318.4 29.2 319.4 30.1 320.4 30.1ZM327.6 31.4C326.3 31.4 325.2 30.7 325.2 29.3L325.2 29.3C325.2 27.8 326.3 27.1 328 27.1 328.8 27.1 329.3 27.2 329.9 27.4L329.9 27.2C329.9 26.2 329.3 25.7 328.2 25.7 327.6 25.7 327.1 25.8 326.6 26 326.5 26 326.5 26 326.4 26 326 26 325.7 25.7 325.7 25.4 325.7 25.1 325.9 24.8 326.2 24.7 326.8 24.5 327.5 24.3 328.4 24.3 329.4 24.3 330.2 24.6 330.6 25.1 331.1 25.6 331.4 26.3 331.4 27.2L331.4 30.6C331.4 31 331 31.4 330.6 31.4 330.2 31.4 329.8 31 329.8 30.7L329.8 30.4C329.4 31 328.7 31.4 327.6 31.4ZM328.1 30.3C329.1 30.3 329.9 29.7 329.9 28.8L329.9 28.3C329.5 28.2 329 28.1 328.3 28.1 327.3 28.1 326.7 28.5 326.7 29.2L326.7 29.2C326.7 29.9 327.3 30.3 328.1 30.3ZM333.3 30.6C333.3 31 333.6 31.4 334 31.4 334.5 31.4 334.8 31 334.8 30.6L334.8 27.4C334.8 26.3 335.5 25.7 336.4 25.7 337.3 25.7 337.9 26.3 337.9 27.4L337.9 30.6C337.9 31 338.2 31.4 338.6 31.4 339.1 31.4 339.4 31 339.4 30.6L339.4 26.9C339.4 25.3 338.5 24.3 337 24.3 335.9 24.3 335.3 24.8 334.8 25.5L334.8 25.1C334.8 24.7 334.5 24.3 334 24.3 333.6 24.3 333.3 24.7 333.3 25.1L333.3 30.6ZM344.5 31.4C345.6 31.4 346.4 31.1 347 30.5 347.1 30.3 347.2 30.2 347.2 30 347.2 29.6 346.9 29.3 346.5 29.3 346.4 29.3 346.2 29.4 346.1 29.5 345.7 29.8 345.2 30.1 344.6 30.1 343.4 30.1 342.5 29.1 342.5 27.9L342.5 27.8C342.5 26.6 343.4 25.7 344.5 25.7 345.1 25.7 345.6 25.9 346 26.2 346.1 26.3 346.3 26.4 346.4 26.4 346.9 26.4 347.2 26.1 347.2 25.7 347.2 25.4 347 25.2 346.9 25.1 346.3 24.6 345.6 24.3 344.5 24.3 342.5 24.3 340.9 25.9 340.9 27.9L340.9 27.9C340.9 29.8 342.5 31.4 344.5 31.4ZM350.7 31.4C349.4 31.4 348.3 30.7 348.3 29.3L348.3 29.3C348.3 27.8 349.5 27.1 351.1 27.1 351.9 27.1 352.4 27.2 353 27.4L353 27.2C353 26.2 352.4 25.7 351.3 25.7 350.7 25.7 350.2 25.8 349.8 26 349.7 26 349.6 26 349.5 26 349.1 26 348.8 25.7 348.8 25.4 348.8 25.1 349 24.8 349.3 24.7 349.9 24.5 350.6 24.3 351.5 24.3 352.5 24.3 353.3 24.6 353.8 25.1 354.3 25.6 354.5 26.3 354.5 27.2L354.5 30.6C354.5 31 354.2 31.4 353.7 31.4 353.3 31.4 353 31 353 30.7L353 30.4C352.5 31 351.8 31.4 350.7 31.4ZM351.2 30.3C352.2 30.3 353 29.7 353 28.8L353 28.3C352.6 28.2 352.1 28.1 351.4 28.1 350.4 28.1 349.8 28.5 349.8 29.2L349.8 29.2C349.8 29.9 350.4 30.3 351.2 30.3ZM351.5 23.6C351.9 23.6 352.2 23.6 352.5 23.3L353.3 22.4C353.5 22.3 353.6 22.2 353.6 22 353.6 21.8 353 21.5 352.6 21.5 352.4 21.5 352.1 21.7 352 21.9L351.3 23.1C351.2 23.1 351.2 23.3 351.2 23.3 351.2 23.5 351.3 23.6 351.5 23.6ZM356.4 30.6C356.4 31 356.7 31.4 357.2 31.4 357.6 31.4 358 31 358 30.6L358 28.5C358 26.9 358.7 26.1 359.8 25.9 360.2 25.8 360.5 25.5 360.5 25.1 360.5 24.7 360.2 24.3 359.7 24.3 359 24.3 358.3 25 358 25.8L358 25.1C358 24.7 357.6 24.3 357.2 24.3 356.7 24.3 356.4 24.7 356.4 25.1L356.4 30.6ZM361.7 22.7C361.7 23.1 362.1 23.4 362.6 23.4 363.1 23.4 363.5 23.1 363.5 22.7L363.5 22.6C363.5 22.1 363.1 21.8 362.6 21.8 362.1 21.8 361.7 22.1 361.7 22.6L361.7 22.7ZM361.8 30.6C361.8 31 362.2 31.4 362.6 31.4 363.1 31.4 363.4 31 363.4 30.6L363.4 25.1C363.4 24.7 363.1 24.3 362.6 24.3 362.2 24.3 361.8 24.7 361.8 25.1L361.8 30.6ZM368.7 31.4C366.6 31.4 365.1 29.8 365.1 27.9L365.1 27.9C365.1 25.9 366.7 24.3 368.8 24.3 370.9 24.3 372.4 25.9 372.4 27.8L372.4 27.9C372.4 29.8 370.8 31.4 368.7 31.4ZM368.8 30.1C370 30.1 370.8 29.1 370.8 27.9L370.8 27.9C370.8 26.7 370 25.7 368.7 25.7 367.5 25.7 366.7 26.6 366.7 27.8L366.7 27.9C366.7 29.1 367.5 30.1 368.8 30.1ZM381.2 31.4C379.1 31.4 377.5 29.8 377.5 27.9L377.5 27.9C377.5 25.9 379.1 24.3 381.2 24.3 383.3 24.3 384.9 25.9 384.9 27.8L384.9 27.9C384.9 29.8 383.3 31.4 381.2 31.4ZM381.2 30.1C382.5 30.1 383.3 29.1 383.3 27.9L383.3 27.9C383.3 26.7 382.4 25.7 381.2 25.7 379.9 25.7 379.1 26.6 379.1 27.8L379.1 27.9C379.1 29.1 380 30.1 381.2 30.1ZM392.5 25.1C392.5 24.7 392.2 24.3 391.8 24.3 391.3 24.3 391 24.7 391 25.1L391 28.3C391 29.4 390.3 30 389.4 30 388.5 30 387.9 29.4 387.9 28.3L387.9 25.1C387.9 24.7 387.6 24.3 387.2 24.3 386.7 24.3 386.4 24.7 386.4 25.1L386.4 28.8C386.4 30.4 387.3 31.4 388.8 31.4 389.9 31.4 390.5 30.9 391 30.2L391 30.6C391 31 391.3 31.4 391.8 31.4 392.2 31.4 392.5 31 392.5 30.6L392.5 25.1ZM252.3 44.4C252.7 44.4 253 44.3 253.4 44.2 253.6 44.1 253.8 43.9 253.8 43.6 253.8 43.2 253.5 43 253.1 43 253.1 43 252.9 43 252.7 43 252.2 43 251.9 42.8 251.9 42.1L251.9 38.8 253.1 38.8C253.5 38.8 253.8 38.5 253.8 38.1 253.8 37.7 253.5 37.4 253.1 37.4L251.9 37.4 251.9 36.3C251.9 35.8 251.5 35.5 251.1 35.5 250.7 35.5 250.3 35.8 250.3 36.3L250.3 37.4 250.1 37.4C249.7 37.4 249.4 37.7 249.4 38.1 249.4 38.5 249.7 38.8 250.1 38.8L250.3 38.8 250.3 42.4C250.3 43.9 251.1 44.4 252.3 44.4ZM255.3 43.6C255.3 44 255.7 44.4 256.1 44.4 256.6 44.4 256.9 44 256.9 43.6L256.9 41.5C256.9 39.9 257.7 39.1 258.8 38.9 259.1 38.8 259.4 38.5 259.4 38.1 259.4 37.7 259.1 37.3 258.6 37.3 257.9 37.3 257.3 38 256.9 38.8L256.9 38.1C256.9 37.7 256.6 37.3 256.1 37.3 255.7 37.3 255.3 37.7 255.3 38.1L255.3 43.6ZM262.4 44.4C261.1 44.4 259.9 43.7 259.9 42.3L259.9 42.3C259.9 40.8 261.1 40.1 262.8 40.1 263.5 40.1 264.1 40.2 264.6 40.4L264.6 40.2C264.6 39.2 264 38.7 262.9 38.7 262.3 38.7 261.8 38.8 261.4 39 261.3 39 261.2 39 261.1 39 260.8 39 260.5 38.7 260.5 38.4 260.5 38.1 260.7 37.8 260.9 37.7 261.5 37.5 262.2 37.3 263.1 37.3 264.1 37.3 264.9 37.6 265.4 38.1 265.9 38.6 266.1 39.3 266.1 40.2L266.1 43.6C266.1 44 265.8 44.4 265.4 44.4 264.9 44.4 264.6 44 264.6 43.7L264.6 43.4C264.1 44 263.4 44.4 262.4 44.4ZM262.8 43.3C263.8 43.3 264.6 42.7 264.6 41.8L264.6 41.3C264.2 41.2 263.7 41.1 263.1 41.1 262.1 41.1 261.5 41.5 261.5 42.2L261.5 42.2C261.5 42.9 262 43.3 262.8 43.3ZM268 43.6C268 44 268.4 44.4 268.8 44.4 269.2 44.4 269.6 44 269.6 43.6L269.6 40.4C269.6 39.3 270.2 38.7 271.1 38.7 272.1 38.7 272.6 39.3 272.6 40.4L272.6 43.6C272.6 44 272.9 44.4 273.4 44.4 273.8 44.4 274.2 44 274.2 43.6L274.2 39.9C274.2 38.3 273.3 37.3 271.7 37.3 270.7 37.3 270 37.8 269.6 38.5L269.6 38.1C269.6 37.7 269.2 37.3 268.8 37.3 268.3 37.3 268 37.7 268 38.1L268 43.6ZM278.4 44.4C279.8 44.4 281 43.7 281 42.3L281 42.2C281 41 279.8 40.5 278.8 40.2 278 40 277.3 39.8 277.3 39.3L277.3 39.2C277.3 38.8 277.6 38.6 278.3 38.6 278.7 38.6 279.3 38.7 279.9 39 280 39.1 280 39.1 280.2 39.1 280.5 39.1 280.8 38.8 280.8 38.5 280.8 38.2 280.7 38 280.4 37.9 279.8 37.5 279 37.3 278.3 37.3 276.9 37.3 275.8 38.1 275.8 39.4L275.8 39.4C275.8 40.7 277 41.2 278 41.4 278.8 41.7 279.5 41.9 279.5 42.4L279.5 42.4C279.5 42.9 279.1 43.2 278.5 43.2 277.8 43.2 277.1 42.9 276.5 42.5 276.4 42.5 276.3 42.4 276.1 42.4 275.8 42.4 275.5 42.7 275.5 43.1 275.5 43.3 275.6 43.5 275.8 43.6 276.6 44.1 277.5 44.4 278.4 44.4ZM282.9 43.6C282.9 44 283.3 44.4 283.7 44.4 284.2 44.4 284.5 44 284.5 43.6L284.5 38.8 285.7 38.8C286.1 38.8 286.4 38.5 286.4 38.1 286.4 37.8 286.1 37.5 285.7 37.5L284.5 37.5 284.5 37.1C284.5 36.4 284.8 36.1 285.4 36.1 285.5 36.1 285.6 36.1 285.7 36.1 286.1 36.1 286.4 35.8 286.4 35.4 286.4 35.1 286.1 34.8 285.8 34.8 285.6 34.7 285.3 34.7 285 34.7 284.4 34.7 283.9 34.9 283.5 35.3 283.1 35.6 282.9 36.2 282.9 37L282.9 37.5 282.7 37.5C282.3 37.5 282 37.8 282 38.1 282 38.5 282.3 38.8 282.7 38.8L282.9 38.8 282.9 43.6ZM288.5 40.4L292 40.4C291.9 39.4 291.3 38.6 290.3 38.6 289.3 38.6 288.7 39.3 288.5 40.4ZM293 43.5C292.3 44.1 291.5 44.4 290.5 44.4 288.5 44.4 287 43 287 40.9L287 40.9C287 38.9 288.4 37.3 290.3 37.3 292.5 37.3 293.6 39.1 293.6 40.7 293.6 41.1 293.2 41.4 292.8 41.4L288.5 41.4C288.7 42.5 289.5 43.2 290.5 43.2 291.2 43.2 291.7 42.9 292.1 42.6 292.3 42.5 292.4 42.4 292.5 42.4 292.9 42.4 293.2 42.7 293.2 43.1 293.2 43.2 293.1 43.4 293 43.5ZM295.2 43.6C295.2 44 295.5 44.4 296 44.4 296.4 44.4 296.8 44 296.8 43.6L296.8 41.5C296.8 39.9 297.5 39.1 298.6 38.9 299 38.8 299.3 38.5 299.3 38.1 299.3 37.7 299 37.3 298.5 37.3 297.8 37.3 297.1 38 296.8 38.8L296.8 38.1C296.8 37.7 296.4 37.3 296 37.3 295.5 37.3 295.2 37.7 295.2 38.1L295.2 43.6ZM303.3 35.7L303.9 36.3C304.3 36.6 304.5 36.6 304.9 36.6 305.1 36.6 305.3 36.5 305.3 36.4 305.3 36.3 305.2 36.1 305.1 36L304.3 35C304.1 34.7 303.9 34.6 303.5 34.6L303 34.6C302.7 34.6 302.5 34.7 302.3 35L301.4 36C301.4 36.1 301.3 36.3 301.3 36.4 301.3 36.5 301.4 36.6 301.6 36.6 302 36.6 302.2 36.6 302.6 36.3L303.3 35.7ZM301.5 40.4L305 40.4C304.9 39.4 304.3 38.6 303.3 38.6 302.3 38.6 301.7 39.3 301.5 40.4ZM305.9 43.5C305.3 44.1 304.5 44.4 303.5 44.4 301.5 44.4 299.9 43 299.9 40.9L299.9 40.9C299.9 38.9 301.3 37.3 303.3 37.3 305.5 37.3 306.6 39.1 306.6 40.7 306.6 41.1 306.2 41.4 305.8 41.4L301.5 41.4C301.7 42.5 302.5 43.2 303.5 43.2 304.2 43.2 304.7 42.9 305.1 42.6 305.2 42.5 305.3 42.4 305.5 42.4 305.9 42.4 306.1 42.7 306.1 43.1 306.1 43.2 306.1 43.4 305.9 43.5ZM308.2 43.6C308.2 44 308.5 44.4 309 44.4 309.4 44.4 309.7 44 309.7 43.6L309.7 40.4C309.7 39.3 310.4 38.7 311.3 38.7 312.2 38.7 312.8 39.3 312.8 40.4L312.8 43.6C312.8 44 313.1 44.4 313.6 44.4 314 44.4 314.3 44 314.3 43.6L314.3 39.9C314.3 38.3 313.4 37.3 311.9 37.3 310.8 37.3 310.2 37.8 309.7 38.5L309.7 38.1C309.7 37.7 309.4 37.3 309 37.3 308.5 37.3 308.2 37.7 308.2 38.1L308.2 43.6ZM319.4 44.4C320.6 44.4 321.3 44.1 321.9 43.5 322 43.3 322.1 43.2 322.1 43 322.1 42.6 321.8 42.3 321.4 42.3 321.3 42.3 321.1 42.4 321 42.5 320.6 42.8 320.1 43.1 319.5 43.1 318.3 43.1 317.4 42.1 317.4 40.9L317.4 40.8C317.4 39.6 318.3 38.7 319.4 38.7 320 38.7 320.5 38.9 320.9 39.2 321 39.3 321.2 39.4 321.4 39.4 321.8 39.4 322.1 39.1 322.1 38.7 322.1 38.4 321.9 38.2 321.8 38.1 321.3 37.6 320.5 37.3 319.4 37.3 317.4 37.3 315.9 38.9 315.9 40.9L315.9 40.9C315.9 42.8 317.4 44.4 319.4 44.4ZM323.6 35.7C323.6 36.1 324 36.4 324.5 36.4 325 36.4 325.4 36.1 325.4 35.7L325.4 35.6C325.4 35.1 325 34.8 324.5 34.8 324 34.8 323.6 35.1 323.6 35.6L323.6 35.7ZM323.8 43.6C323.8 44 324.1 44.4 324.5 44.4 325 44.4 325.3 44 325.3 43.6L325.3 38.1C325.3 37.7 325 37.3 324.5 37.3 324.1 37.3 323.8 37.7 323.8 38.1L323.8 43.6ZM329.4 44.4C328.1 44.4 326.9 43.7 326.9 42.3L326.9 42.3C326.9 40.8 328.1 40.1 329.8 40.1 330.5 40.1 331.1 40.2 331.6 40.4L331.6 40.2C331.6 39.2 331 38.7 329.9 38.7 329.3 38.7 328.8 38.8 328.4 39 328.3 39 328.2 39 328.1 39 327.8 39 327.5 38.7 327.5 38.4 327.5 38.1 327.7 37.8 327.9 37.7 328.5 37.5 329.2 37.3 330.1 37.3 331.1 37.3 331.9 37.6 332.4 38.1 332.9 38.6 333.1 39.3 333.1 40.2L333.1 43.6C333.1 44 332.8 44.4 332.4 44.4 331.9 44.4 331.6 44 331.6 43.7L331.6 43.4C331.1 44 330.4 44.4 329.4 44.4ZM329.8 43.3C330.8 43.3 331.6 42.7 331.6 41.8L331.6 41.3C331.2 41.2 330.7 41.1 330.1 41.1 329.1 41.1 328.5 41.5 328.5 42.2L328.5 42.2C328.5 42.9 329 43.3 329.8 43.3ZM338.9 43.6L338.9 35.5C338.9 35.1 339.2 34.7 339.7 34.7 340.1 34.7 340.5 35.1 340.5 35.5L340.5 38.6C341 37.9 341.7 37.3 342.8 37.3 344.4 37.3 346 38.6 346 40.8L346 40.9C346 43.1 344.4 44.4 342.8 44.4 341.7 44.4 341 43.9 340.5 43.2L340.5 43.6C340.5 44 340.1 44.4 339.7 44.4 339.3 44.4 338.9 44 338.9 43.6ZM342.4 43.1C343.5 43.1 344.4 42.2 344.4 40.9L344.4 40.8C344.4 39.5 343.5 38.6 342.4 38.6 341.4 38.6 340.4 39.5 340.4 40.8L340.4 40.9C340.4 42.2 341.4 43.1 342.4 43.1ZM349.6 44.4C348.3 44.4 347.2 43.7 347.2 42.3L347.2 42.3C347.2 40.8 348.3 40.1 350 40.1 350.8 40.1 351.3 40.2 351.9 40.4L351.9 40.2C351.9 39.2 351.3 38.7 350.2 38.7 349.6 38.7 349.1 38.8 348.6 39 348.5 39 348.5 39 348.4 39 348 39 347.7 38.7 347.7 38.4 347.7 38.1 347.9 37.8 348.2 37.7 348.8 37.5 349.5 37.3 350.4 37.3 351.4 37.3 352.2 37.6 352.6 38.1 353.1 38.6 353.4 39.3 353.4 40.2L353.4 43.6C353.4 44 353 44.4 352.6 44.4 352.2 44.4 351.8 44 351.8 43.7L351.8 43.4C351.4 44 350.7 44.4 349.6 44.4ZM350 43.3C351.1 43.3 351.9 42.7 351.9 41.8L351.9 41.3C351.5 41.2 350.9 41.1 350.3 41.1 349.3 41.1 348.7 41.5 348.7 42.2L348.7 42.2C348.7 42.9 349.3 43.3 350 43.3ZM355.3 43.6C355.3 44 355.6 44.4 356 44.4 356.5 44.4 356.8 44 356.8 43.6L356.8 40.4C356.8 39.3 357.5 38.7 358.4 38.7 359.3 38.7 359.9 39.3 359.9 40.4L359.9 43.6C359.9 44 360.2 44.4 360.6 44.4 361.1 44.4 361.4 44 361.4 43.6L361.4 39.9C361.4 38.3 360.5 37.3 359 37.3 357.9 37.3 357.3 37.8 356.8 38.5L356.8 38.1C356.8 37.7 356.5 37.3 356 37.3 355.6 37.3 355.3 37.7 355.3 38.1L355.3 43.6ZM366.5 44.4C367.6 44.4 368.4 44.1 369 43.5 369.1 43.3 369.2 43.2 369.2 43 369.2 42.6 368.9 42.3 368.5 42.3 368.4 42.3 368.2 42.4 368.1 42.5 367.7 42.8 367.2 43.1 366.6 43.1 365.4 43.1 364.5 42.1 364.5 40.9L364.5 40.8C364.5 39.6 365.4 38.7 366.5 38.7 367.1 38.7 367.6 38.9 368 39.2 368.1 39.3 368.2 39.4 368.4 39.4 368.8 39.4 369.2 39.1 369.2 38.7 369.2 38.4 369 38.2 368.9 38.1 368.3 37.6 367.6 37.3 366.5 37.3 364.5 37.3 362.9 38.9 362.9 40.9L362.9 40.9C362.9 42.8 364.5 44.4 366.5 44.4ZM372.7 44.4C371.4 44.4 370.3 43.7 370.3 42.3L370.3 42.3C370.3 40.8 371.4 40.1 373.1 40.1 373.9 40.1 374.4 40.2 375 40.4L375 40.2C375 39.2 374.4 38.7 373.3 38.7 372.7 38.7 372.2 38.8 371.7 39 371.7 39 371.6 39 371.5 39 371.1 39 370.8 38.7 370.8 38.4 370.8 38.1 371 37.8 371.3 37.7 371.9 37.5 372.6 37.3 373.5 37.3 374.5 37.3 375.3 37.6 375.8 38.1 376.3 38.6 376.5 39.3 376.5 40.2L376.5 43.6C376.5 44 376.2 44.4 375.7 44.4 375.3 44.4 375 44 375 43.7L375 43.4C374.5 44 373.8 44.4 372.7 44.4ZM373.2 43.3C374.2 43.3 375 42.7 375 41.8L375 41.3C374.6 41.2 374.1 41.1 373.4 41.1 372.4 41.1 371.8 41.5 371.8 42.2L371.8 42.2C371.8 42.9 372.4 43.3 373.2 43.3ZM373.5 36.6C373.9 36.6 374.2 36.6 374.5 36.3L375.3 35.4C375.5 35.3 375.6 35.2 375.6 35 375.6 34.8 375 34.5 374.6 34.5 374.3 34.5 374.1 34.7 374 34.9L373.3 36.1C373.2 36.1 373.2 36.3 373.2 36.3 373.2 36.5 373.3 36.6 373.5 36.6ZM378.4 43.6C378.4 44 378.7 44.4 379.2 44.4 379.6 44.4 379.9 44 379.9 43.6L379.9 41.5C379.9 39.9 380.7 39.1 381.8 38.9 382.2 38.8 382.5 38.5 382.5 38.1 382.5 37.7 382.2 37.3 381.7 37.3 381 37.3 380.3 38 379.9 38.8L379.9 38.1C379.9 37.7 379.6 37.3 379.2 37.3 378.7 37.3 378.4 37.7 378.4 38.1L378.4 43.6ZM383.7 35.7C383.7 36.1 384.1 36.4 384.6 36.4 385.1 36.4 385.5 36.1 385.5 35.7L385.5 35.6C385.5 35.1 385.1 34.8 384.6 34.8 384.1 34.8 383.7 35.1 383.7 35.6L383.7 35.7ZM383.8 43.6C383.8 44 384.2 44.4 384.6 44.4 385.1 44.4 385.4 44 385.4 43.6L385.4 38.1C385.4 37.7 385.1 37.3 384.6 37.3 384.2 37.3 383.8 37.7 383.8 38.1L383.8 43.6ZM389.4 44.4C388.2 44.4 387 43.7 387 42.3L387 42.3C387 40.8 388.2 40.1 389.8 40.1 390.6 40.1 391.2 40.2 391.7 40.4L391.7 40.2C391.7 39.2 391.1 38.7 390 38.7 389.4 38.7 388.9 38.8 388.5 39 388.4 39 388.3 39 388.2 39 387.9 39 387.6 38.7 387.6 38.4 387.6 38.1 387.7 37.8 388 37.7 388.6 37.5 389.3 37.3 390.2 37.3 391.2 37.3 392 37.6 392.5 38.1 393 38.6 393.2 39.3 393.2 40.2L393.2 43.6C393.2 44 392.9 44.4 392.4 44.4 392 44.4 391.7 44 391.7 43.7L391.7 43.4C391.2 44 390.5 44.4 389.4 44.4ZM389.9 43.3C390.9 43.3 391.7 42.7 391.7 41.8L391.7 41.3C391.3 41.2 390.8 41.1 390.2 41.1 389.1 41.1 388.5 41.5 388.5 42.2L388.5 42.2C388.5 42.9 389.1 43.3 389.9 43.3Z" class="a"/><path d="M233.9 33.6L233.9 18.6C233.9 18.1 233.4 17.6 232.9 17.6 232.4 17.6 232 18.1 232 18.6L232 33.6C232 34.2 232.4 34.6 232.9 34.6 233.4 34.6 233.9 34.2 233.9 33.6L233.9 33.6ZM229.6 31.3L229.6 18.6C229.6 18.1 229.2 17.6 228.6 17.6 228.1 17.6 227.7 18.1 227.7 18.6L227.7 31.3C227.7 31.9 228.1 32.3 228.6 32.3 229.2 32.3 229.6 31.9 229.6 31.3L229.6 31.3ZM226.5 31.3L226.5 18.6C226.5 18.1 226 17.6 225.5 17.6 225 17.6 224.5 18.1 224.5 18.6L224.5 31.3C224.5 31.9 225 32.3 225.5 32.3 226 32.3 226.5 31.9 226.5 31.3L226.5 31.3ZM223 33.8L223 18.6C223 18.1 222.6 17.6 222.1 17.6 221.6 17.6 221.1 18.1 221.1 18.6L221.1 33.8C221.1 34.4 221.6 34.8 222.1 34.8 222.6 34.8 223 34.4 223 33.8L223 33.8ZM219.1 31.3L219.1 18.6C219.1 18.1 218.6 17.6 218.1 17.6 217.6 17.6 217.1 18.1 217.1 18.6L217.1 31.3C217.1 31.9 217.6 32.3 218.1 32.3 218.6 32.3 219.1 31.9 219.1 31.3L219.1 31.3ZM214.8 31.3L214.8 18.6C214.8 18.1 214.4 17.6 213.8 17.6 213.3 17.6 212.9 18.1 212.9 18.6L212.9 31.3C212.9 31.9 213.3 32.3 213.8 32.3 214.4 32.3 214.8 31.9 214.8 31.3L214.8 31.3ZM211.7 33.6L211.7 18.6C211.7 18.1 211.2 17.6 210.7 17.6 210.2 17.6 209.7 18.1 209.7 18.6L209.7 33.6C209.7 34.2 210.2 34.6 210.7 34.6 211.2 34.6 211.7 34.2 211.7 33.6L211.7 33.6ZM208 13.9C207.4 13.9 206.9 14.4 206.9 15L206.9 37.2C206.9 37.8 207.4 38.3 208 38.3L236 38.3C236.6 38.3 237 37.8 237 37.2L237 15C237 14.4 236.6 13.9 236 13.9L208 13.9ZM236 40.2L208 40.2C206.3 40.2 205 38.9 205 37.2L205 15C205 13.3 206.3 12 208 12L236 12C237.6 12 239 13.3 239 15L239 37.2C239 38.9 237.6 40.2 236 40.2L236 40.2Z" class="a"/><path d="M701.7 15.9C701.7 16.6 702.2 17.1 702.9 17.1 703.5 17.1 704 16.6 704 15.9L704 8.6 706.2 8.6C706.8 8.6 707.3 8.2 707.3 7.6 707.3 7 706.8 6.5 706.2 6.5L699.5 6.5C698.9 6.5 698.4 7 698.4 7.6 698.4 8.2 698.9 8.6 699.5 8.6L701.7 8.6 701.7 15.9ZM710.1 17L716 17C716.6 17 717.1 16.6 717.1 16 717.1 15.4 716.6 14.9 716 14.9L711.3 14.9 711.3 12.7 715.3 12.7C715.9 12.7 716.3 12.3 716.3 11.7 716.3 11.2 715.9 10.7 715.3 10.7L711.3 10.7 711.3 8.6 716 8.6C716.5 8.6 717 8.1 717 7.5 717 7 716.5 6.5 716 6.5L710.1 6.5C709.5 6.5 709 7 709 7.7L709 15.8C709 16.5 709.5 17 710.1 17ZM719 15.8C719 16.5 719.5 17 720.2 17L725.6 17C726.2 17 726.7 16.5 726.7 16 726.7 15.4 726.2 14.9 725.6 14.9L721.3 14.9 721.3 7.6C721.3 6.9 720.8 6.4 720.2 6.4 719.5 6.4 719 6.9 719 7.6L719 15.8ZM729.5 17L735.4 17C735.9 17 736.4 16.6 736.4 16 736.4 15.4 735.9 14.9 735.4 14.9L730.6 14.9 730.6 12.7 734.6 12.7C735.2 12.7 735.7 12.3 735.7 11.7 735.7 11.2 735.2 10.7 734.6 10.7L730.6 10.7 730.6 8.6 735.3 8.6C735.9 8.6 736.3 8.1 736.3 7.5 736.3 7 735.9 6.5 735.3 6.5L729.5 6.5C728.8 6.5 728.3 7 728.3 7.7L728.3 15.8C728.3 16.5 728.8 17 729.5 17ZM742.5 17.2L742.6 17.2C743.3 17.2 743.7 16.8 743.9 16.3L747.4 8C747.4 7.9 747.5 7.7 747.5 7.5 747.5 6.9 747 6.4 746.3 6.4 745.8 6.4 745.4 6.8 745.2 7.1L742.6 14 740 7.2C739.8 6.8 739.4 6.4 738.8 6.4 738.1 6.4 737.6 6.9 737.6 7.6 737.6 7.7 737.7 7.9 737.8 8.1L741.2 16.3C741.4 16.8 741.8 17.2 742.5 17.2ZM750.4 17L756.3 17C756.9 17 757.3 16.6 757.3 16 757.3 15.4 756.9 14.9 756.3 14.9L751.6 14.9 751.6 12.7 755.6 12.7C756.1 12.7 756.6 12.3 756.6 11.7 756.6 11.2 756.1 10.7 755.6 10.7L751.6 10.7 751.6 8.6 756.2 8.6C756.8 8.6 757.3 8.1 757.3 7.5 757.3 7 756.8 6.5 756.2 6.5L750.4 6.5C749.8 6.5 749.3 7 749.3 7.7L749.3 15.8C749.3 16.5 749.8 17 750.4 17ZM759.3 16C759.3 16.6 759.8 17.1 760.4 17.1 761.1 17.1 761.6 16.6 761.6 16L761.6 10.3 766.2 16.4C766.5 16.8 766.9 17.1 767.4 17.1L767.5 17.1C768.1 17.1 768.6 16.6 768.6 15.9L768.6 7.6C768.6 6.9 768.1 6.4 767.5 6.4 766.9 6.4 766.4 6.9 766.4 7.6L766.4 13 761.9 7.1C761.6 6.7 761.3 6.4 760.7 6.4L760.5 6.4C759.8 6.4 759.3 7 759.3 7.6L759.3 16ZM771.2 15.8L771.2 7.7C771.2 7 771.7 6.5 772.3 6.5L775.3 6.5C778.6 6.5 780.8 8.8 780.8 11.7L780.8 11.8C780.8 14.7 778.6 17 775.3 17L772.3 17C771.7 17 771.2 16.5 771.2 15.8ZM773.5 14.9L775.3 14.9C777.1 14.9 778.4 13.6 778.4 11.8L778.4 11.8C778.4 9.9 777.1 8.6 775.3 8.6L773.5 8.6 773.5 14.9ZM781.7 16C781.7 15.8 781.8 15.7 781.9 15.5L785.5 7.3C785.8 6.7 786.2 6.3 786.9 6.3L787 6.3C787.6 6.3 788.1 6.7 788.3 7.3L792 15.5C792.1 15.7 792.1 15.8 792.1 16 792.1 16.6 791.6 17.1 791 17.1 790.5 17.1 790.1 16.8 789.9 16.3L789.2 14.6 784.6 14.6 783.8 16.4C783.7 16.8 783.3 17.1 782.8 17.1 782.2 17.1 781.7 16.6 781.7 16ZM785.4 12.6L788.3 12.6 786.9 9.1 785.4 12.6ZM797.6 17.2C799.9 17.2 801.4 16 801.4 13.9L801.4 13.9C801.4 12 800.2 11.3 798.1 10.7 796.3 10.3 795.8 10 795.8 9.3L795.8 9.3C795.8 8.8 796.3 8.4 797.2 8.4 797.9 8.4 798.6 8.6 799.4 9.1 799.6 9.2 799.8 9.3 800 9.3 800.6 9.3 801.1 8.8 801.1 8.2 801.1 7.7 800.8 7.4 800.6 7.3 799.6 6.7 798.5 6.4 797.2 6.4 795.1 6.4 793.6 7.6 793.6 9.5L793.6 9.5C793.6 11.6 794.9 12.2 797 12.8 798.8 13.2 799.1 13.5 799.1 14.1L799.1 14.1C799.1 14.7 798.6 15.1 797.6 15.1 796.6 15.1 795.7 14.8 794.9 14.2 794.8 14.1 794.6 14 794.3 14 793.7 14 793.2 14.4 793.2 15 793.2 15.4 793.4 15.7 793.6 15.9 794.8 16.7 796.2 17.2 797.6 17.2Z" class="a"/><path d="M702.1 32.6C702.5 32.6 702.8 32.2 702.8 31.9 702.8 31.6 702.7 31.4 702.5 31.3 701.1 30.2 700.5 29.2 700.5 27.6 700.5 26 701.1 24.9 702.5 23.9 702.7 23.7 702.8 23.5 702.8 23.3 702.8 22.9 702.5 22.5 702.1 22.5 701.9 22.5 701.8 22.6 701.7 22.6 699.7 23.8 698.7 25.4 698.7 27.6 698.7 29.7 699.7 31.3 701.7 32.5 701.8 32.5 701.9 32.6 702.1 32.6ZM705.5 30.2C705.5 30.7 705.9 31.1 706.4 31.1 706.9 31.1 707.3 30.7 707.3 30.2L707.3 23.4C707.3 22.9 706.9 22.5 706.4 22.5L706.4 22.5C706.1 22.5 705.8 22.5 705.5 22.6L704.3 23C703.9 23.1 703.7 23.4 703.7 23.8 703.7 24.2 704.1 24.6 704.5 24.6 704.6 24.6 704.7 24.5 704.8 24.5L705.5 24.4 705.5 30.2ZM710.5 30.2C710.5 30.7 710.9 31.1 711.5 31.1 712 31.1 712.4 30.7 712.4 30.2L712.4 23.4C712.4 22.9 712 22.5 711.5 22.5L711.4 22.5C711.2 22.5 710.9 22.5 710.6 22.6L709.4 23C709 23.1 708.8 23.4 708.8 23.8 708.8 24.2 709.1 24.6 709.6 24.6 709.7 24.6 709.8 24.5 709.9 24.5L710.5 24.4 710.5 30.2ZM714.7 32.6C714.9 32.6 715.1 32.5 715.1 32.5 717.1 31.3 718.1 29.7 718.1 27.6 718.1 25.4 717.1 23.8 715.1 22.6 715.1 22.6 714.9 22.5 714.7 22.5 714.3 22.5 714 22.9 714 23.3 714 23.5 714.1 23.7 714.3 23.9 715.7 24.9 716.3 26 716.3 27.6 716.3 29.1 715.7 30.2 714.3 31.3 714.1 31.4 714 31.6 714 31.9 714 32.2 714.3 32.6 714.7 32.6ZM727.2 30.2L727.2 29.2 723.7 29.2C723.2 29.2 722.8 28.8 722.8 28.3 722.8 28 723 27.7 723.3 27.3L726.9 23.1C727.3 22.7 727.5 22.5 728.1 22.5 728.6 22.5 728.9 22.9 728.9 23.3L728.9 27.7 729.4 27.7C729.8 27.7 730.1 28 730.1 28.4 730.1 28.9 729.8 29.2 729.4 29.2L728.9 29.2 728.9 30.2C728.9 30.7 728.6 31.1 728.1 31.1 727.6 31.1 727.2 30.7 727.2 30.2ZM725 27.7L727.2 27.7 727.2 25.1 725 27.7ZM734.2 31.1C733.2 31.1 732.6 30.9 732 30.5 731.7 30.4 731.5 30.1 731.5 29.8 731.5 29.3 731.9 28.9 732.4 28.9 732.6 28.9 732.7 29 732.9 29.1 733.3 29.3 733.7 29.5 734.2 29.5 735.3 29.5 735.8 28.7 735.9 27.6 735.5 27.9 735 28.1 734.2 28.1 732.4 28.1 731.2 27.1 731.2 25.4L731.2 25.4C731.2 23.7 732.5 22.5 734.4 22.5 735.6 22.5 736.2 22.7 736.9 23.4 737.5 24 737.9 24.9 737.9 26.5L737.9 26.6C737.9 29.3 736.6 31.1 734.2 31.1ZM734.5 26.6C735.4 26.6 736 26.1 736 25.3L736 25.3C736 24.6 735.4 24 734.5 24 733.6 24 733.1 24.6 733.1 25.3L733.1 25.3C733.1 26.1 733.6 26.6 734.5 26.6ZM742.1 31.1C741.2 31.1 740.5 30.9 739.9 30.5 739.7 30.4 739.5 30.1 739.5 29.8 739.5 29.3 739.9 28.9 740.3 28.9 740.5 28.9 740.7 29 740.8 29.1 741.3 29.3 741.6 29.5 742.2 29.5 743.2 29.5 743.8 28.7 743.9 27.6 743.5 27.9 742.9 28.1 742.2 28.1 740.3 28.1 739.2 27.1 739.2 25.4L739.2 25.4C739.2 23.7 740.5 22.5 742.4 22.5 743.5 22.5 744.2 22.7 744.8 23.4 745.4 24 745.8 24.9 745.8 26.5L745.8 26.6C745.8 29.3 744.5 31.1 742.1 31.1ZM742.5 26.6C743.4 26.6 743.9 26.1 743.9 25.3L743.9 25.3C743.9 24.6 743.4 24 742.4 24 741.5 24 741 24.6 741 25.3L741 25.3C741 26.1 741.6 26.6 742.5 26.6ZM751.2 30.2L751.2 29.2 747.8 29.2C747.3 29.2 746.9 28.8 746.9 28.3 746.9 28 747 27.7 747.3 27.3L750.9 23.1C751.3 22.7 751.6 22.5 752.1 22.5 752.6 22.5 753 22.9 753 23.3L753 27.7 753.4 27.7C753.8 27.7 754.2 28 754.2 28.4 754.2 28.9 753.8 29.2 753.4 29.2L753 29.2 753 30.2C753 30.7 752.6 31.1 752.1 31.1 751.6 31.1 751.2 30.7 751.2 30.2ZM749 27.7L751.2 27.7 751.2 25.1 749 27.7ZM756.1 28.2L758.2 28.2C758.7 28.2 759.1 27.8 759.1 27.3 759.1 26.8 758.7 26.4 758.2 26.4L756.1 26.4C755.6 26.4 755.2 26.8 755.2 27.3 755.2 27.8 755.6 28.2 756.1 28.2ZM763.2 31.1C765.1 31.1 766.2 30 766.2 28.4L766.2 28.4C766.2 26.8 765.1 26.2 764 26L765.6 24.4C766 24.1 766.2 23.9 766.2 23.4 766.2 22.9 765.8 22.6 765.2 22.6L761.2 22.6C760.7 22.6 760.4 23 760.4 23.4 760.4 23.8 760.7 24.2 761.2 24.2L763.7 24.2 762.1 25.8C761.8 26.1 761.7 26.3 761.7 26.6 761.7 27 762.1 27.4 762.5 27.4L762.8 27.4C763.8 27.4 764.4 27.8 764.4 28.4L764.4 28.5C764.4 29.1 763.9 29.5 763.2 29.5 762.6 29.5 762.1 29.3 761.6 28.9 761.5 28.7 761.3 28.6 761 28.6 760.5 28.6 760.1 29 760.1 29.5 760.1 29.8 760.3 30 760.4 30.2 761.1 30.8 762 31.1 763.2 31.1ZM770.6 31.1C772.4 31.1 773.7 30 773.7 28.2L773.7 28.2C773.7 26.3 772.4 25.5 770.8 25.5 770.3 25.5 770 25.6 769.7 25.7L769.8 24.2 772.6 24.2C773.1 24.2 773.4 23.9 773.4 23.4 773.4 23 773.1 22.6 772.6 22.6L769 22.6C768.5 22.6 768.2 22.9 768.2 23.4L768 26.2C768 26.5 768.1 26.8 768.3 27 768.7 27.2 768.9 27.4 769.2 27.4 769.4 27.4 769.7 27.1 770.4 27.1 771.3 27.1 771.9 27.6 771.9 28.3L771.9 28.3C771.9 29 771.3 29.5 770.6 29.5 770 29.5 769.5 29.3 769 28.9 768.8 28.8 768.7 28.8 768.5 28.8 768 28.8 767.6 29.2 767.6 29.6 767.6 30 767.7 30.2 768 30.4 768.6 30.8 769.4 31.1 770.6 31.1ZM778.2 31.1C780 31.1 781.3 30 781.3 28.2L781.3 28.2C781.3 26.3 780 25.5 778.4 25.5 777.9 25.5 777.6 25.6 777.2 25.7L777.3 24.2 780.2 24.2C780.6 24.2 781 23.9 781 23.4 781 23 780.6 22.6 780.2 22.6L776.5 22.6C776.1 22.6 775.7 22.9 775.7 23.4L775.5 26.2C775.5 26.5 775.6 26.8 775.9 27 776.3 27.2 776.5 27.4 776.7 27.4 777 27.4 777.3 27.1 778 27.1 778.9 27.1 779.5 27.6 779.5 28.3L779.5 28.3C779.5 29 778.9 29.5 778.1 29.5 777.5 29.5 777 29.3 776.5 28.9 776.4 28.8 776.2 28.8 776 28.8 775.5 28.8 775.1 29.2 775.1 29.6 775.1 30 775.3 30.2 775.5 30.4 776.2 30.8 777 31.1 778.2 31.1ZM785.7 31.1C787.6 31.1 788.9 30 788.9 28.2L788.9 28.2C788.9 26.3 787.6 25.5 785.9 25.5 785.4 25.5 785.1 25.6 784.8 25.7L784.9 24.2 787.7 24.2C788.2 24.2 788.6 23.9 788.6 23.4 788.6 23 788.2 22.6 787.7 22.6L784.1 22.6C783.6 22.6 783.3 22.9 783.3 23.4L783.1 26.2C783.1 26.5 783.2 26.8 783.4 27 783.8 27.2 784 27.4 784.3 27.4 784.5 27.4 784.8 27.1 785.6 27.1 786.4 27.1 787 27.6 787 28.3L787 28.3C787 29 786.5 29.5 785.7 29.5 785.1 29.5 784.6 29.3 784.1 28.9 783.9 28.8 783.8 28.8 783.6 28.8 783.1 28.8 782.7 29.2 782.7 29.6 782.7 30 782.9 30.2 783.1 30.4 783.8 30.8 784.6 31.1 785.7 31.1ZM796.5 31.1C797.4 31.1 798 30.8 798.5 30.5 798.8 30.4 798.9 30.1 798.9 29.8L798.9 28.4C798.9 28 798.6 27.8 798.3 27.8L796.9 27.8C796.6 27.8 796.4 28 796.4 28.3 796.4 28.6 796.6 28.8 796.9 28.8L797.7 28.8 797.7 29.6C797.4 29.9 797 30 796.6 30 795.6 30 794.9 29.2 794.9 28.2L794.9 28.2C794.9 27.2 795.6 26.4 796.5 26.4 797 26.4 797.4 26.6 797.7 26.8 797.8 26.9 797.9 27 798.1 27 798.4 27 798.7 26.7 798.7 26.3 798.7 26.1 798.6 25.9 798.4 25.8 797.9 25.5 797.4 25.3 796.5 25.3 794.8 25.3 793.6 26.6 793.6 28.2L793.6 28.2C793.6 29.9 794.8 31.1 796.5 31.1ZM800.1 30.4L800.1 26C800.1 25.7 800.4 25.4 800.7 25.4L802.7 25.4C803.4 25.4 803.9 25.6 804.3 26 804.6 26.3 804.8 26.7 804.8 27.2L804.8 27.3C804.8 28.1 804.3 28.7 803.7 29L804.5 30C804.6 30.2 804.7 30.3 804.7 30.5 804.7 30.8 804.4 31 804.1 31 803.8 31 803.7 30.9 803.5 30.7L802.3 29.2 801.3 29.2 801.3 30.4C801.3 30.8 801.1 31 800.7 31 800.4 31 800.1 30.8 800.1 30.4ZM801.3 28.1L802.6 28.1C803.2 28.1 803.5 27.8 803.5 27.3L803.5 27.3C803.5 26.8 803.2 26.5 802.6 26.5L801.3 26.5 801.3 28.1ZM805.5 30.5C805.5 30.4 805.5 30.3 805.6 30.2L807.5 25.8C807.7 25.5 807.9 25.3 808.2 25.3L808.3 25.3C808.7 25.3 808.9 25.5 809 25.8L811 30.2C811 30.3 811 30.4 811 30.5 811 30.8 810.8 31 810.5 31 810.2 31 810 30.9 809.9 30.6L809.5 29.7 807 29.7 806.6 30.7C806.5 30.9 806.3 31 806.1 31 805.8 31 805.5 30.8 805.5 30.5ZM807.5 28.7L809 28.7 808.3 26.8 807.5 28.7ZM812 30.4C812 30.8 812.3 31 812.6 31 813 31 813.2 30.8 813.2 30.4L813.2 27.4 815.7 30.7C815.9 30.9 816 31 816.3 31L816.4 31C816.7 31 817 30.8 817 30.4L817 26C817 25.6 816.7 25.4 816.4 25.4 816 25.4 815.8 25.6 815.8 26L815.8 28.8 813.4 25.7C813.2 25.5 813.1 25.4 812.8 25.4L812.6 25.4C812.3 25.4 812 25.6 812 26L812 30.4ZM818.3 30.4L818.3 26C818.3 25.7 818.6 25.4 819 25.4L820.5 25.4C822.3 25.4 823.5 26.6 823.5 28.2L823.5 28.2C823.5 29.8 822.3 31 820.5 31L819 31C818.6 31 818.3 30.7 818.3 30.4ZM819.6 29.9L820.5 29.9C821.5 29.9 822.2 29.2 822.2 28.2L822.2 28.2C822.2 27.2 821.5 26.5 820.5 26.5L819.6 26.5 819.6 29.9ZM825.2 31L828.4 31C828.7 31 828.9 30.8 828.9 30.5 828.9 30.2 828.7 29.9 828.4 29.9L825.8 29.9 825.8 28.7 828 28.7C828.3 28.7 828.5 28.5 828.5 28.2 828.5 27.9 828.3 27.6 828 27.6L825.8 27.6 825.8 26.5 828.3 26.5C828.6 26.5 828.9 26.3 828.9 26 828.9 25.6 828.6 25.4 828.3 25.4L825.2 25.4C824.9 25.4 824.6 25.7 824.6 26L824.6 30.4C824.6 30.7 824.9 31 825.2 31ZM834.3 31.1C835.6 31.1 836.4 30.5 836.4 29.3L836.4 29.3C836.4 28.4 835.8 27.9 834.6 27.6 833.7 27.4 833.4 27.3 833.4 26.9L833.4 26.9C833.4 26.6 833.7 26.4 834.1 26.4 834.5 26.4 834.9 26.5 835.3 26.8 835.4 26.8 835.5 26.9 835.6 26.9 835.9 26.9 836.2 26.6 836.2 26.3 836.2 26.1 836.1 25.9 835.9 25.8 835.4 25.5 834.8 25.3 834.2 25.3 833 25.3 832.2 26 832.2 27L832.2 27C832.2 28.1 832.9 28.4 834 28.7 835 29 835.2 29.1 835.2 29.4L835.2 29.5C835.2 29.8 834.9 30 834.4 30 833.8 30 833.4 29.8 832.9 29.5 832.9 29.4 832.7 29.4 832.6 29.4 832.3 29.4 832 29.6 832 29.9 832 30.1 832.1 30.3 832.2 30.4 832.9 30.9 833.6 31.1 834.3 31.1ZM837 30.5C837 30.4 837.1 30.3 837.1 30.2L839.1 25.8C839.2 25.5 839.5 25.3 839.8 25.3L839.9 25.3C840.2 25.3 840.4 25.5 840.6 25.8L842.5 30.2C842.6 30.3 842.6 30.4 842.6 30.5 842.6 30.8 842.3 31 842 31 841.7 31 841.5 30.9 841.4 30.6L841 29.7 838.6 29.7 838.2 30.7C838.1 30.9 837.9 31 837.6 31 837.3 31 837 30.8 837 30.5ZM839 28.7L840.6 28.7 839.8 26.8 839 28.7ZM838.9 24.8C839 24.6 839.1 24.6 839.3 24.6 839.6 24.6 840 24.9 840.5 24.9 841 24.9 841.2 24.6 841.4 24.1 841.4 24 841.4 23.9 841.4 23.9 841.4 23.7 841.3 23.6 841.1 23.6 840.9 23.6 840.8 23.6 840.8 23.7 840.7 23.9 840.6 24 840.4 24 840.1 24 839.7 23.7 839.2 23.7 838.7 23.7 838.5 24 838.3 24.4 838.3 24.5 838.3 24.6 838.3 24.7 838.3 24.8 838.4 25 838.6 25 838.8 25 838.9 24.9 838.9 24.8ZM846.1 31.1C844.4 31.1 843.1 29.8 843.1 28.2L843.1 28.2C843.1 26.6 844.4 25.3 846.1 25.3 847.8 25.3 849.1 26.6 849.1 28.2L849.1 28.2C849.1 29.8 847.8 31.1 846.1 31.1ZM846.1 30C847.1 30 847.8 29.2 847.8 28.2L847.8 28.2C847.8 27.2 847.1 26.4 846.1 26.4 845.1 26.4 844.4 27.2 844.4 28.2L844.4 28.2C844.4 29.2 845.1 30 846.1 30ZM852.6 30.4L852.6 26C852.6 25.7 852.8 25.4 853.2 25.4L854.8 25.4C856.2 25.4 857 26.2 857 27.3L857 27.4C857 28.6 856 29.3 854.7 29.3L853.8 29.3 853.8 30.4C853.8 30.8 853.5 31 853.2 31 852.8 31 852.6 30.8 852.6 30.4ZM853.8 28.2L854.8 28.2C855.4 28.2 855.7 27.9 855.7 27.4L855.7 27.4C855.7 26.8 855.4 26.5 854.7 26.5L853.8 26.5 853.8 28.2ZM857.1 30.5C857.1 30.4 857.2 30.3 857.2 30.2L859.1 25.8C859.3 25.5 859.5 25.3 859.9 25.3L859.9 25.3C860.3 25.3 860.5 25.5 860.6 25.8L862.6 30.2C862.6 30.3 862.7 30.4 862.7 30.5 862.7 30.8 862.4 31 862.1 31 861.8 31 861.6 30.9 861.5 30.6L861.1 29.7 858.6 29.7 858.3 30.7C858.2 30.9 857.9 31 857.7 31 857.4 31 857.1 30.8 857.1 30.5ZM859.1 28.7L860.7 28.7 859.9 26.8 859.1 28.7ZM865.8 31.1C867.4 31.1 868.3 30.3 868.3 28.6L868.3 26C868.3 25.6 868 25.4 867.7 25.4 867.3 25.4 867.1 25.6 867.1 26L867.1 28.6C867.1 29.5 866.6 30 865.9 30 865.1 30 864.7 29.5 864.7 28.6L864.7 26C864.7 25.6 864.4 25.4 864 25.4 863.7 25.4 863.4 25.6 863.4 26L863.4 28.6C863.4 30.2 864.3 31.1 865.8 31.1ZM869.6 30.4C869.6 30.7 869.8 31 870.2 31L873.1 31C873.4 31 873.6 30.8 873.6 30.4 873.6 30.1 873.4 29.9 873.1 29.9L870.8 29.9 870.8 26C870.8 25.6 870.5 25.4 870.2 25.4 869.8 25.4 869.6 25.6 869.6 26L869.6 30.4ZM876.9 31.1C875.2 31.1 873.9 29.8 873.9 28.2L873.9 28.2C873.9 26.6 875.2 25.3 876.9 25.3 878.7 25.3 879.9 26.6 879.9 28.2L879.9 28.2C879.9 29.8 878.6 31.1 876.9 31.1ZM876.9 30C877.9 30 878.6 29.2 878.6 28.2L878.6 28.2C878.6 27.2 877.9 26.4 876.9 26.4 875.9 26.4 875.2 27.2 875.2 28.2L875.2 28.2C875.2 29.2 875.9 30 876.9 30ZM702.4 46.1C700.1 46.1 698.6 44.3 698.6 41.8L698.6 41.8C698.6 39.4 700.2 37.5 702.4 37.5 704.6 37.5 706.1 39.3 706.1 41.8L706.1 41.8C706.1 44.2 704.6 46.1 702.4 46.1ZM702.4 44.5C703.5 44.5 704.2 43.3 704.2 41.8L704.2 41.8C704.2 40.3 703.5 39.1 702.4 39.1 701.3 39.1 700.5 40.2 700.5 41.8L700.5 41.8C700.5 43.3 701.3 44.5 702.4 44.5ZM710.5 46.1C708.7 46.1 707.3 45.2 707.3 43.7L707.3 43.7C707.3 42.7 707.8 42.1 708.7 41.6 708 41.2 707.6 40.7 707.6 39.8L707.6 39.8C707.6 38.5 708.8 37.5 710.5 37.5 712.3 37.5 713.5 38.5 713.5 39.8L713.5 39.8C713.5 40.7 713.1 41.2 712.4 41.6 713.3 42.1 713.8 42.6 713.8 43.6L713.8 43.6C713.8 45.2 712.4 46.1 710.5 46.1ZM710.5 41C711.3 41 711.7 40.6 711.7 40L711.7 40C711.7 39.5 711.3 39 710.5 39 709.8 39 709.3 39.5 709.3 40L709.3 40C709.3 40.6 709.8 41 710.5 41ZM710.5 44.6C711.5 44.6 712 44.1 712 43.6L712 43.5C712 42.9 711.4 42.5 710.5 42.5 709.7 42.5 709.1 42.9 709.1 43.5L709.1 43.6C709.1 44.1 709.6 44.6 710.5 44.6ZM718.7 46.1C716.4 46.1 715 44.3 715 41.8L715 41.8C715 39.4 716.5 37.5 718.7 37.5 720.9 37.5 722.4 39.3 722.4 41.8L722.4 41.8C722.4 44.2 720.9 46.1 718.7 46.1ZM718.7 44.5C719.8 44.5 720.5 43.3 720.5 41.8L720.5 41.8C720.5 40.3 719.8 39.1 718.7 39.1 717.6 39.1 716.9 40.2 716.9 41.8L716.9 41.8C716.9 43.3 717.6 44.5 718.7 44.5ZM727.4 46.1C725.2 46.1 723.7 44.3 723.7 41.8L723.7 41.8C723.7 39.4 725.2 37.5 727.5 37.5 729.7 37.5 731.2 39.3 731.2 41.8L731.2 41.8C731.2 44.2 729.7 46.1 727.4 46.1ZM727.5 44.5C728.6 44.5 729.3 43.3 729.3 41.8L729.3 41.8C729.3 40.3 728.6 39.1 727.4 39.1 726.3 39.1 725.6 40.2 725.6 41.8L725.6 41.8C725.6 43.3 726.4 44.5 727.5 44.5ZM736.9 45.2C736.9 45.8 737.4 46.1 737.9 46.1 738.2 46.1 738.5 45.9 738.8 45.4L742.1 39.3C742.3 39 742.4 38.7 742.4 38.4 742.4 37.9 742.1 37.6 741.5 37.6L737 37.6C736.5 37.6 736.2 38 736.2 38.4 736.2 38.8 736.5 39.2 737 39.2L740.2 39.2 737.1 44.7C737 44.8 736.9 45.1 736.9 45.2ZM744.3 45.2C744.3 45.8 744.8 46.1 745.3 46.1 745.7 46.1 745.9 45.9 746.2 45.4L749.6 39.3C749.7 39 749.8 38.7 749.8 38.4 749.8 37.9 749.5 37.6 749 37.6L744.4 37.6C744 37.6 743.6 38 743.6 38.4 743.6 38.8 744 39.2 744.4 39.2L747.6 39.2 744.5 44.7C744.4 44.8 744.3 45.1 744.3 45.2ZM753.8 46.1C755.7 46.1 756.8 45 756.8 43.4L756.8 43.4C756.8 41.8 755.7 41.2 754.6 41L756.2 39.4C756.5 39.1 756.8 38.9 756.8 38.4 756.8 37.9 756.4 37.6 755.8 37.6L751.7 37.6C751.3 37.6 750.9 38 750.9 38.4 750.9 38.8 751.3 39.2 751.7 39.2L754.3 39.2 752.7 40.8C752.4 41.1 752.3 41.3 752.3 41.6 752.3 42 752.6 42.4 753.1 42.4L753.4 42.4C754.4 42.4 755 42.8 755 43.4L755 43.5C755 44.1 754.5 44.5 753.8 44.5 753.2 44.5 752.6 44.3 752.2 43.9 752 43.7 751.8 43.6 751.6 43.6 751.1 43.6 750.7 44 750.7 44.5 750.7 44.8 750.8 45 751 45.2 751.7 45.8 752.6 46.1 753.8 46.1ZM764.8 46.1C766.7 46.1 768 45 768 43.2L768 43.2C768 41.3 766.7 40.5 765 40.5 764.6 40.5 764.3 40.6 763.9 40.7L764 39.2 766.8 39.2C767.3 39.2 767.7 38.9 767.7 38.4 767.7 38 767.3 37.6 766.8 37.6L763.2 37.6C762.8 37.6 762.4 37.9 762.4 38.4L762.2 41.2C762.2 41.5 762.3 41.8 762.5 42 762.9 42.2 763.1 42.4 763.4 42.4 763.6 42.4 764 42.1 764.7 42.1 765.5 42.1 766.1 42.6 766.1 43.3L766.1 43.3C766.1 44 765.6 44.5 764.8 44.5 764.2 44.5 763.7 44.3 763.2 43.9 763.1 43.8 762.9 43.8 762.7 43.8 762.2 43.8 761.8 44.2 761.8 44.6 761.8 45 762 45.2 762.2 45.4 762.9 45.8 763.7 46.1 764.8 46.1ZM772.3 46.1C774.2 46.1 775.4 45 775.4 43.4L775.4 43.4C775.4 41.8 774.2 41.2 773.1 41L774.8 39.4C775.1 39.1 775.3 38.9 775.3 38.4 775.3 37.9 774.9 37.6 774.4 37.6L770.3 37.6C769.8 37.6 769.5 38 769.5 38.4 769.5 38.8 769.8 39.2 770.3 39.2L772.9 39.2 771.2 40.8C770.9 41.1 770.8 41.3 770.8 41.6 770.8 42 771.2 42.4 771.6 42.4L771.9 42.4C772.9 42.4 773.6 42.8 773.6 43.4L773.6 43.5C773.6 44.1 773.1 44.5 772.4 44.5 771.7 44.5 771.2 44.3 770.7 43.9 770.6 43.7 770.4 43.6 770.1 43.6 769.7 43.6 769.2 44 769.2 44.5 769.2 44.8 769.4 45 769.6 45.2 770.2 45.8 771.1 46.1 772.3 46.1ZM779.7 46.1C781.6 46.1 782.9 45 782.9 43.2L782.9 43.2C782.9 41.3 781.6 40.5 779.9 40.5 779.4 40.5 779.1 40.6 778.8 40.7L778.9 39.2 781.7 39.2C782.2 39.2 782.6 38.9 782.6 38.4 782.6 38 782.2 37.6 781.7 37.6L778.1 37.6C777.6 37.6 777.3 37.9 777.3 38.4L777.1 41.2C777.1 41.5 777.2 41.8 777.4 42 777.8 42.2 778 42.4 778.3 42.4 778.5 42.4 778.8 42.1 779.6 42.1 780.4 42.1 781 42.6 781 43.3L781 43.3C781 44 780.5 44.5 779.7 44.5 779.1 44.5 778.6 44.3 778.1 43.9 777.9 43.8 777.8 43.8 777.6 43.8 777.1 43.8 776.7 44.2 776.7 44.6 776.7 45 776.9 45.2 777.1 45.4 777.8 45.8 778.6 46.1 779.7 46.1ZM787.3 46.1C789.1 46.1 790.4 45 790.4 43.2L790.4 43.2C790.4 41.3 789.1 40.5 787.5 40.5 787 40.5 786.7 40.6 786.4 40.7L786.5 39.2 789.3 39.2C789.7 39.2 790.1 38.9 790.1 38.4 790.1 38 789.7 37.6 789.3 37.6L785.6 37.6C785.2 37.6 784.9 37.9 784.8 38.4L784.7 41.2C784.6 41.5 784.7 41.8 785 42 785.4 42.2 785.6 42.4 785.8 42.4 786.1 42.4 786.4 42.1 787.1 42.1 788 42.1 788.6 42.6 788.6 43.3L788.6 43.3C788.6 44 788 44.5 787.2 44.5 786.7 44.5 786.2 44.3 785.6 43.9 785.5 43.8 785.4 43.8 785.1 43.8 784.7 43.8 784.3 44.2 784.3 44.6 784.3 45 784.4 45.2 784.6 45.4 785.3 45.8 786.1 46.1 787.3 46.1ZM798.1 46.1C796.4 46.1 795.1 44.8 795.1 43.2L795.1 43.2C795.1 41.6 796.4 40.3 798.1 40.3 799.9 40.3 801.1 41.6 801.1 43.2L801.1 43.2C801.1 44.8 799.8 46.1 798.1 46.1ZM798.1 45C799.1 45 799.8 44.2 799.8 43.2L799.8 43.2C799.8 42.2 799.1 41.4 798.1 41.4 797.1 41.4 796.4 42.2 796.4 43.2L796.4 43.2C796.4 44.2 797.1 45 798.1 45ZM804.5 46.1C806 46.1 807 45.3 807 43.6L807 41C807 40.6 806.7 40.4 806.4 40.4 806 40.4 805.8 40.6 805.8 41L805.8 43.6C805.8 44.5 805.3 45 804.5 45 803.8 45 803.3 44.5 803.3 43.6L803.3 41C803.3 40.6 803.1 40.4 802.7 40.4 802.4 40.4 802.1 40.6 802.1 41L802.1 43.6C802.1 45.2 803 46.1 804.5 46.1ZM809.5 45.4C809.5 45.8 809.8 46 810.2 46 810.5 46 810.8 45.8 810.8 45.4L810.8 41.5 812 41.5C812.3 41.5 812.5 41.3 812.5 41 812.5 40.7 812.3 40.4 812 40.4L808.4 40.4C808 40.4 807.8 40.7 807.8 41 807.8 41.3 808 41.5 808.4 41.5L809.5 41.5 809.5 45.4ZM813.4 45.4L813.4 41C813.4 40.7 813.7 40.4 814 40.4L816 40.4C816.7 40.4 817.2 40.6 817.6 41 817.9 41.3 818.1 41.7 818.1 42.2L818.1 42.3C818.1 43.1 817.7 43.7 817 44L817.8 45C818 45.2 818 45.3 818 45.5 818 45.8 817.7 46 817.4 46 817.2 46 817 45.9 816.8 45.7L815.6 44.2 814.7 44.2 814.7 45.4C814.7 45.8 814.4 46 814 46 813.7 46 813.4 45.8 813.4 45.4ZM814.7 43.1L815.9 43.1C816.5 43.1 816.8 42.8 816.8 42.3L816.8 42.3C816.8 41.8 816.5 41.5 815.9 41.5L814.7 41.5 814.7 43.1ZM818.8 45.5C818.8 45.4 818.9 45.3 818.9 45.2L820.8 40.8C821 40.5 821.2 40.3 821.6 40.3L821.6 40.3C822 40.3 822.2 40.5 822.4 40.8L824.3 45.2C824.3 45.3 824.4 45.4 824.4 45.5 824.4 45.8 824.1 46 823.8 46 823.5 46 823.3 45.9 823.2 45.6L822.8 44.7 820.4 44.7 820 45.7C819.9 45.9 819.6 46 819.4 46 819.1 46 818.8 45.8 818.8 45.5ZM820.8 43.7L822.4 43.7 821.6 41.8 820.8 43.7ZM827.3 46.1C828.5 46.1 829.3 45.5 829.3 44.3L829.3 44.3C829.3 43.4 828.7 42.9 827.6 42.6 826.6 42.4 826.4 42.3 826.4 41.9L826.4 41.9C826.4 41.6 826.6 41.4 827.1 41.4 827.5 41.4 827.8 41.5 828.3 41.8 828.4 41.8 828.4 41.9 828.6 41.9 828.9 41.9 829.1 41.6 829.1 41.3 829.1 41.1 829 40.9 828.9 40.8 828.4 40.5 827.8 40.3 827.1 40.3 826 40.3 825.1 41 825.1 42L825.1 42C825.1 43.1 825.9 43.4 827 43.7 827.9 44 828.1 44.1 828.1 44.4L828.1 44.5C828.1 44.8 827.8 45 827.3 45 826.8 45 826.3 44.8 825.9 44.5 825.8 44.4 825.7 44.4 825.5 44.4 825.2 44.4 825 44.6 825 44.9 825 45.1 825 45.3 825.2 45.4 825.8 45.9 826.6 46.1 827.3 46.1ZM832.8 45.4L832.8 41C832.8 40.7 833.1 40.4 833.4 40.4L835.4 40.4C836.1 40.4 836.6 40.6 837 41 837.3 41.3 837.5 41.7 837.5 42.2L837.5 42.3C837.5 43.1 837 43.7 836.4 44L837.2 45C837.3 45.2 837.4 45.3 837.4 45.5 837.4 45.8 837.1 46 836.8 46 836.6 46 836.4 45.9 836.2 45.7L835 44.2 834 44.2 834 45.4C834 45.8 833.8 46 833.4 46 833.1 46 832.8 45.8 832.8 45.4ZM834 43.1L835.3 43.1C835.9 43.1 836.2 42.8 836.2 42.3L836.2 42.3C836.2 41.8 835.9 41.5 835.3 41.5L834 41.5 834 43.1ZM839.2 46L842.4 46C842.7 46 842.9 45.8 842.9 45.5 842.9 45.2 842.7 44.9 842.4 44.9L839.8 44.9 839.8 43.7 842 43.7C842.3 43.7 842.5 43.5 842.5 43.2 842.5 42.9 842.3 42.6 842 42.6L839.8 42.6 839.8 41.5 842.3 41.5C842.6 41.5 842.9 41.3 842.9 41 842.9 40.6 842.6 40.4 842.3 40.4L839.2 40.4C838.9 40.4 838.6 40.7 838.6 41L838.6 45.4C838.6 45.7 838.9 46 839.2 46ZM846.7 46.1C847.5 46.1 848.2 45.8 848.6 45.5 848.9 45.4 849 45.1 849 44.8L849 43.4C849 43 848.8 42.8 848.4 42.8L847 42.8C846.7 42.8 846.5 43 846.5 43.3 846.5 43.6 846.7 43.8 847 43.8L847.9 43.8 847.9 44.6C847.5 44.9 847.1 45 846.7 45 845.7 45 845 44.2 845 43.2L845 43.2C845 42.2 845.7 41.4 846.6 41.4 847.1 41.4 847.5 41.6 847.8 41.8 847.9 41.9 848 42 848.2 42 848.5 42 848.8 41.7 848.8 41.3 848.8 41.1 848.7 40.9 848.6 40.8 848.1 40.5 847.5 40.3 846.6 40.3 845 40.3 843.7 41.6 843.7 43.2L843.7 43.2C843.7 44.9 844.9 46.1 846.7 46.1ZM850.3 45.4C850.3 45.8 850.6 46 850.9 46 851.2 46 851.5 45.8 851.5 45.4L851.5 41C851.5 40.6 851.2 40.4 850.9 40.4 850.6 40.4 850.3 40.6 850.3 41L850.3 45.4ZM855.6 46.1C853.9 46.1 852.7 44.8 852.7 43.2L852.7 43.2C852.7 41.6 853.9 40.3 855.7 40.3 857.4 40.3 858.6 41.6 858.6 43.2L858.6 43.2C858.6 44.8 857.4 46.1 855.6 46.1ZM855.7 45C856.6 45 857.3 44.2 857.3 43.2L857.3 43.2C857.3 42.2 856.6 41.4 855.6 41.4 854.6 41.4 854 42.2 854 43.2L854 43.2C854 44.2 854.7 45 855.7 45ZM854.8 39.8C854.9 39.6 855 39.6 855.1 39.6 855.4 39.6 855.8 39.9 856.3 39.9 856.8 39.9 857.1 39.6 857.2 39.1 857.3 39 857.3 38.9 857.3 38.9 857.3 38.7 857.1 38.6 856.9 38.6 856.8 38.6 856.7 38.6 856.6 38.7 856.5 38.9 856.4 39 856.2 39 855.9 39 855.5 38.7 855 38.7 854.5 38.7 854.3 39 854.1 39.4 854.1 39.5 854.1 39.6 854.1 39.7 854.1 39.8 854.3 40 854.5 40 854.6 40 854.7 39.9 854.8 39.8ZM860.3 46L863.5 46C863.8 46 864 45.8 864 45.5 864 45.2 863.8 44.9 863.5 44.9L860.9 44.9 860.9 43.7 863.1 43.7C863.4 43.7 863.6 43.5 863.6 43.2 863.6 42.9 863.4 42.6 863.1 42.6L860.9 42.6 860.9 41.5 863.4 41.5C863.7 41.5 864 41.3 864 41 864 40.6 863.7 40.4 863.4 40.4L860.3 40.4C860 40.4 859.7 40.7 859.7 41L859.7 45.4C859.7 45.7 860 46 860.3 46ZM867.1 46.1C868.3 46.1 869.1 45.5 869.1 44.3L869.1 44.3C869.1 43.4 868.5 42.9 867.4 42.6 866.4 42.4 866.1 42.3 866.1 41.9L866.1 41.9C866.1 41.6 866.4 41.4 866.9 41.4 867.2 41.4 867.6 41.5 868 41.8 868.1 41.8 868.2 41.9 868.4 41.9 868.7 41.9 868.9 41.6 868.9 41.3 868.9 41.1 868.8 40.9 868.7 40.8 868.2 40.5 867.6 40.3 866.9 40.3 865.7 40.3 864.9 41 864.9 42L864.9 42C864.9 43.1 865.6 43.4 866.8 43.7 867.7 44 867.9 44.1 867.9 44.4L867.9 44.5C867.9 44.8 867.6 45 867.1 45 866.6 45 866.1 44.8 865.7 44.5 865.6 44.4 865.5 44.4 865.3 44.4 865 44.4 864.7 44.6 864.7 44.9 864.7 45.1 864.8 45.3 865 45.4 865.6 45.9 866.3 46.1 867.1 46.1Z" class="b"/><path d="M680.7 26.2C681.2 26.2 681.6 25.8 681.7 25.4 681.9 24.2 681.8 23 681.4 21.9 681.1 20.6 680.3 19.4 679.4 18.4 678.4 17.4 677.1 16.7 675.8 16.5 675 16.4 674.2 16.5 673.4 16.7 672.8 16.8 672.6 17.4 672.7 17.9 672.9 18.4 673.4 18.7 673.9 18.5 674.4 18.4 675 18.4 675.5 18.4 676.4 18.6 677.3 19 678 19.8 678.8 20.5 679.3 21.4 679.6 22.4 679.9 23.3 679.9 24.2 679.8 25.1 679.7 25.6 680.1 26.1 680.6 26.2 680.6 26.2 680.7 26.2 680.7 26.2ZM682.1 36.9L677.3 30.6 675.2 32.2 680 38.5 682.1 36.9ZM674.2 34.1C674.2 34.1 674.2 34.2 674.1 34.2 673.5 34.6 672.8 34.8 672.1 34.8 669.9 34.8 667.4 33.3 665.4 30.8 662.9 27.4 662.4 23.4 664.4 21.5 664.4 21.5 664.5 21.4 664.5 21.4L660.5 16.1C660.4 16.2 660.3 16.3 660.1 16.3 660 16.4 659.7 16.7 658.6 17.5 656.8 19 658.4 25.5 663.6 32.2 668.8 39 674.5 42.2 676.5 40.8 677.6 40 677.9 39.7 678 39.6 678.1 39.5 678.2 39.4 678.3 39.4L674.2 34.1ZM661.7 14.6L666.6 21 668.7 19.4 663.8 13 661.7 14.6ZM683.7 35.8C684 36.2 684.2 36.7 684.1 37.2 684 37.7 683.8 38.1 683.4 38.4L681.1 40.1C680.8 40.4 680.4 40.5 680 40.5 679.9 40.5 679.8 40.5 679.7 40.5 679.7 40.5 679.7 40.6 679.6 40.7 679.5 40.9 679.3 41.1 677.6 42.4 676.9 42.8 676.2 43.1 675.3 43.1 671.8 43.1 666.7 39.4 662 33.4 656.4 26 654.4 18.5 657.4 16 659.1 14.7 659.4 14.5 659.8 14.5 659.8 14.4 659.8 14.4 659.8 14.4 659.9 13.9 660.1 13.5 660.5 13.2L662.8 11.4C663.6 10.8 664.7 11 665.3 11.8L670.3 18.3C670.9 19.1 670.8 20.2 670 20.9L667.7 22.6C667.4 22.8 667 23 666.6 23 666.3 23 666 22.9 665.8 22.8 665.8 22.8 665.7 22.9 665.7 22.9 664.6 23.9 664.8 26.8 667 29.6 669.1 32.4 671.8 33.3 673.1 32.6 673.2 32.6 673.2 32.6 673.3 32.5 673.1 31.9 673.4 31.2 673.9 30.7L676.2 29C677 28.4 678.1 28.5 678.7 29.3L683.7 35.8ZM685.7 28.6C685.6 28.6 685.5 28.6 685.4 28.6 684.9 28.4 684.6 27.9 684.8 27.3 685.5 25.1 685.5 22.7 684.8 20.4 684.3 18.8 683.4 17.3 682.2 16 681 14.8 679.6 13.9 678 13.4 676.2 12.8 674.3 12.8 672.4 13.4 671.9 13.5 671.4 13.3 671.2 12.8 671.1 12.3 671.3 11.7 671.8 11.5 674.1 10.8 676.4 10.8 678.6 11.5 680.4 12.1 682.2 13.2 683.6 14.7 684.9 16.2 686 17.9 686.6 19.8 687.5 22.5 687.5 25.3 686.6 27.9 686.5 28.4 686.1 28.6 685.7 28.6Z" class="a"/><path d="M959.5 16C959.5 15.8 959.6 15.7 959.7 15.5L963.3 7.3C963.6 6.7 964.1 6.3 964.7 6.3L964.8 6.3C965.5 6.3 965.9 6.7 966.2 7.3L969.8 15.5C969.9 15.7 969.9 15.8 969.9 16 969.9 16.6 969.5 17.1 968.8 17.1 968.3 17.1 967.9 16.8 967.7 16.3L967 14.6 962.4 14.6 961.7 16.4C961.5 16.8 961.1 17.1 960.6 17.1 960 17.1 959.5 16.6 959.5 16ZM963.3 12.6L966.2 12.6 964.7 9.1 963.3 12.6ZM973.1 15.9L973.1 8.6 970.9 8.6C970.3 8.6 969.8 8.2 969.8 7.6 969.8 7 970.3 6.5 970.9 6.5L977.6 6.5C978.2 6.5 978.7 7 978.7 7.6 978.7 8.2 978.2 8.6 977.6 8.6L975.4 8.6 975.4 15.9C975.4 16.6 974.9 17.1 974.2 17.1 973.6 17.1 973.1 16.6 973.1 15.9ZM981.5 17L987.4 17C988 17 988.4 16.6 988.4 16 988.4 15.4 988 14.9 987.4 14.9L982.6 14.9 982.6 12.7 986.6 12.7C987.2 12.7 987.7 12.3 987.7 11.7 987.7 11.2 987.2 10.7 986.6 10.7L982.6 10.7 982.6 8.6 987.3 8.6C987.9 8.6 988.4 8.1 988.4 7.5 988.4 7 987.9 6.5 987.3 6.5L981.5 6.5C980.9 6.5 980.3 7 980.3 7.7L980.3 15.8C980.3 16.5 980.9 17 981.5 17ZM990.4 16C990.4 16.6 990.9 17.1 991.5 17.1 992.2 17.1 992.7 16.6 992.7 16L992.7 10.3 997.3 16.4C997.6 16.8 997.9 17.1 998.5 17.1L998.6 17.1C999.2 17.1 999.7 16.6 999.7 15.9L999.7 7.6C999.7 6.9 999.2 6.4 998.6 6.4 998 6.4 997.4 6.9 997.4 7.6L997.4 13 993 7.1C992.7 6.7 992.3 6.4 991.8 6.4L991.6 6.4C990.9 6.4 990.4 7 990.4 7.6L990.4 16ZM1002.2 15.8L1002.2 7.7C1002.2 7 1002.8 6.5 1003.4 6.5L1006.3 6.5C1009.6 6.5 1011.9 8.8 1011.9 11.7L1011.9 11.8C1011.9 14.7 1009.6 17 1006.3 17L1003.4 17C1002.8 17 1002.2 16.5 1002.2 15.8ZM1004.6 14.9L1006.3 14.9C1008.2 14.9 1009.5 13.6 1009.5 11.8L1009.5 11.8C1009.5 9.9 1008.2 8.6 1006.3 8.6L1004.6 8.6 1004.6 14.9ZM1014.1 15.9C1014.1 16.6 1014.6 17.1 1015.2 17.1 1015.9 17.1 1016.4 16.6 1016.4 15.9L1016.4 7.6C1016.4 6.9 1015.9 6.4 1015.2 6.4 1014.6 6.4 1014.1 6.9 1014.1 7.6L1014.1 15.9ZM1019 16C1019 16.6 1019.5 17.1 1020.1 17.1 1020.8 17.1 1021.3 16.6 1021.3 16L1021.3 10.7 1023.3 13.8C1023.5 14.2 1023.8 14.4 1024.2 14.4 1024.7 14.4 1025 14.2 1025.2 13.8L1027.2 10.7 1027.2 15.9C1027.2 16.6 1027.7 17.1 1028.4 17.1 1029 17.1 1029.5 16.6 1029.5 15.9L1029.5 7.6C1029.5 7 1029 6.4 1028.4 6.4L1028.1 6.4C1027.6 6.4 1027.3 6.6 1027.1 7L1024.3 11.6 1021.5 7C1021.3 6.7 1020.9 6.4 1020.4 6.4L1020.2 6.4C1019.5 6.4 1019 7 1019 7.6L1019 16ZM1033.2 17L1039.1 17C1039.7 17 1040.1 16.6 1040.1 16 1040.1 15.4 1039.7 14.9 1039.1 14.9L1034.3 14.9 1034.3 12.7 1038.3 12.7C1038.9 12.7 1039.4 12.3 1039.4 11.7 1039.4 11.2 1038.9 10.7 1038.3 10.7L1034.3 10.7 1034.3 8.6 1039 8.6C1039.6 8.6 1040 8.1 1040 7.5 1040 7 1039.6 6.5 1039 6.5L1033.2 6.5C1032.5 6.5 1032 7 1032 7.7L1032 15.8C1032 16.5 1032.5 17 1033.2 17ZM1042.1 16C1042.1 16.6 1042.6 17.1 1043.2 17.1 1043.9 17.1 1044.4 16.6 1044.4 16L1044.4 10.3 1049 16.4C1049.3 16.8 1049.6 17.1 1050.2 17.1L1050.3 17.1C1050.9 17.1 1051.4 16.6 1051.4 15.9L1051.4 7.6C1051.4 6.9 1050.9 6.4 1050.3 6.4 1049.6 6.4 1049.1 6.9 1049.1 7.6L1049.1 13 1044.7 7.1C1044.4 6.7 1044 6.4 1043.5 6.4L1043.2 6.4C1042.6 6.4 1042.1 7 1042.1 7.6L1042.1 16ZM1056.4 15.9C1056.4 16.6 1056.9 17.1 1057.5 17.1 1058.2 17.1 1058.7 16.6 1058.7 15.9L1058.7 8.6 1060.9 8.6C1061.5 8.6 1062 8.2 1062 7.6 1062 7 1061.5 6.5 1060.9 6.5L1054.2 6.5C1053.6 6.5 1053.1 7 1053.1 7.6 1053.1 8.2 1053.6 8.6 1054.2 8.6L1056.4 8.6 1056.4 15.9ZM1068.3 17.2C1065.1 17.2 1062.7 14.8 1062.7 11.8L1062.7 11.8C1062.7 8.8 1065.1 6.3 1068.3 6.3 1071.6 6.3 1073.9 8.7 1073.9 11.7L1073.9 11.8C1073.9 14.7 1071.5 17.2 1068.3 17.2ZM1068.3 15.1C1070.2 15.1 1071.5 13.6 1071.5 11.8L1071.5 11.8C1071.5 10 1070.2 8.5 1068.3 8.5 1066.4 8.5 1065.2 9.9 1065.2 11.7L1065.2 11.8C1065.2 13.6 1066.5 15.1 1068.3 15.1Z" class="a"/><path d="M960 30.1L960 23.5C960 23 960.4 22.6 960.9 22.6L963.3 22.6C965.9 22.6 967.7 24.4 967.7 26.8L967.7 26.8C967.7 29.2 965.9 31 963.3 31L960.9 31C960.4 31 960 30.6 960 30.1ZM961.9 29.3L963.3 29.3C964.8 29.3 965.8 28.3 965.8 26.8L965.8 26.8C965.8 25.3 964.8 24.3 963.3 24.3L961.9 24.3 961.9 29.3ZM970.7 27.3L973.4 27.3C973.3 26.5 972.8 25.9 972.1 25.9 971.3 25.9 970.8 26.5 970.7 27.3ZM974.5 30.4C973.9 30.8 973.2 31.1 972.2 31.1 970.3 31.1 968.9 29.8 968.9 27.8L968.9 27.8C968.9 26 970.2 24.4 972.1 24.4 974.2 24.4 975.2 26.2 975.2 27.5 975.2 28.1 974.8 28.4 974.3 28.4L970.7 28.4C970.9 29.2 971.5 29.7 972.3 29.7 972.8 29.7 973.2 29.5 973.6 29.2 973.7 29.2 973.8 29.1 974 29.1 974.4 29.1 974.7 29.4 974.7 29.8 974.7 30.1 974.6 30.2 974.5 30.4ZM982.4 31.1C983.8 31.1 984.9 30.5 984.9 29L984.9 29C984.9 27.8 983.8 27.4 982.9 27.1 982.2 26.9 981.6 26.7 981.6 26.3L981.6 26.3C981.6 26.1 981.8 25.9 982.3 25.9 982.7 25.9 983.2 26 983.7 26.3 983.8 26.3 983.9 26.4 984 26.4 984.4 26.4 984.8 26.1 984.8 25.6 984.8 25.3 984.6 25.1 984.3 25 983.7 24.7 983 24.5 982.3 24.5 981 24.5 980 25.2 980 26.5L980 26.5C980 27.8 981 28.2 981.9 28.5 982.6 28.7 983.2 28.8 983.2 29.2L983.2 29.2C983.2 29.5 983 29.7 982.5 29.7 981.9 29.7 981.3 29.5 980.7 29.1 980.6 29.1 980.5 29 980.4 29 980 29 979.6 29.4 979.6 29.8 979.6 30.1 979.8 30.3 980 30.4 980.8 30.9 981.6 31.1 982.4 31.1ZM987.7 27.3L990.4 27.3C990.3 26.5 989.8 25.9 989 25.9 988.3 25.9 987.8 26.5 987.7 27.3ZM991.5 30.4C990.9 30.8 990.2 31.1 989.2 31.1 987.3 31.1 985.9 29.8 985.9 27.8L985.9 27.8C985.9 26 987.2 24.4 989 24.4 991.2 24.4 992.1 26.2 992.1 27.5 992.1 28.1 991.8 28.4 991.3 28.4L987.7 28.4C987.9 29.2 988.4 29.7 989.3 29.7 989.8 29.7 990.2 29.5 990.5 29.2 990.7 29.2 990.8 29.1 991 29.1 991.4 29.1 991.7 29.4 991.7 29.8 991.7 30.1 991.6 30.2 991.5 30.4ZM996.4 32.9C995.6 32.9 994.8 32.8 994.1 32.5 993.8 32.4 993.5 32.1 993.5 31.8 993.5 31.4 993.9 31 994.3 31 994.4 31 994.5 31.1 994.6 31.1 995.1 31.3 995.7 31.5 996.4 31.5 997.6 31.5 998.2 30.9 998.2 29.7L998.2 29.4C997.7 30.1 997.1 30.5 996.1 30.5 994.6 30.5 993.2 29.4 993.2 27.5L993.2 27.4C993.2 25.5 994.6 24.4 996.1 24.4 997.1 24.4 997.7 24.9 998.2 25.4L998.2 25.4C998.2 24.9 998.6 24.5 999.1 24.5 999.6 24.5 1000 24.9 1000 25.4L1000 29.5C1000 30.7 999.7 31.5 999.2 32.1 998.6 32.7 997.7 32.9 996.4 32.9ZM996.6 29C997.5 29 998.2 28.3 998.2 27.5L998.2 27.4C998.2 26.6 997.5 26 996.6 26 995.7 26 995.1 26.6 995.1 27.4L995.1 27.5C995.1 28.4 995.7 29 996.6 29ZM1007.5 25.4C1007.5 24.9 1007.1 24.5 1006.6 24.5 1006.1 24.5 1005.7 24.9 1005.7 25.4L1005.7 28.2C1005.7 29 1005.2 29.5 1004.5 29.5 1003.8 29.5 1003.4 29 1003.4 28.2L1003.4 25.4C1003.4 24.9 1003 24.5 1002.5 24.5 1002 24.5 1001.6 24.9 1001.6 25.4L1001.6 28.7C1001.6 30.2 1002.4 31.1 1003.8 31.1 1004.7 31.1 1005.2 30.6 1005.7 30.1L1005.7 30.2C1005.7 30.7 1006.1 31.1 1006.6 31.1 1007.1 31.1 1007.5 30.7 1007.5 30.2L1007.5 25.4ZM1009.1 30.2C1009.1 30.7 1009.5 31.1 1010 31.1 1010.5 31.1 1010.9 30.7 1010.9 30.2L1010.9 27.4C1010.9 26.5 1011.4 26.1 1012.1 26.1 1012.8 26.1 1013.2 26.5 1013.2 27.4L1013.2 30.2C1013.2 30.7 1013.6 31.1 1014.1 31.1 1014.6 31.1 1015 30.7 1015 30.2L1015 26.8C1015 25.4 1014.2 24.4 1012.8 24.4 1011.9 24.4 1011.4 24.9 1010.9 25.5L1010.9 25.4C1010.9 24.9 1010.5 24.5 1010 24.5 1009.5 24.5 1009.1 24.9 1009.1 25.4L1009.1 30.2ZM1023.1 23.1L1023.1 30.2C1023.1 30.7 1022.6 31.1 1022.1 31.1 1021.6 31.1 1021.2 30.7 1021.2 30.2L1021.2 30.1C1020.8 30.7 1020.2 31.1 1019.2 31.1 1017.7 31.1 1016.3 29.9 1016.3 27.8L1016.3 27.8C1016.3 25.6 1017.7 24.4 1019.2 24.4 1020.2 24.4 1020.8 24.9 1021.2 25.4L1021.2 23.1C1021.2 22.6 1021.6 22.2 1022.1 22.2 1022.6 22.2 1023.1 22.6 1023.1 23.1ZM1019.7 26C1018.8 26 1018.1 26.7 1018.1 27.8L1018.1 27.8C1018.1 28.9 1018.8 29.6 1019.7 29.6 1020.5 29.6 1021.3 28.9 1021.3 27.8L1021.3 27.8C1021.3 26.7 1020.5 26 1019.7 26ZM1026.5 31.1C1025.3 31.1 1024.3 30.4 1024.3 29.2L1024.3 29.1C1024.3 27.7 1025.4 27.1 1026.9 27.1 1027.5 27.1 1028 27.2 1028.5 27.3L1028.5 27.2C1028.5 26.5 1028 26.1 1027.1 26.1 1026.6 26.1 1026.2 26.1 1025.8 26.2 1025.7 26.3 1025.6 26.3 1025.6 26.3 1025.1 26.3 1024.8 26 1024.8 25.5 1024.8 25.2 1025 24.9 1025.3 24.8 1025.9 24.6 1026.5 24.5 1027.4 24.5 1028.3 24.5 1029.1 24.8 1029.5 25.2 1030 25.7 1030.2 26.4 1030.2 27.3L1030.2 30.2C1030.2 30.7 1029.8 31.1 1029.3 31.1 1028.8 31.1 1028.5 30.7 1028.5 30.3L1028.5 30.3C1028 30.8 1027.4 31.1 1026.5 31.1ZM1027.1 29.9C1027.9 29.9 1028.5 29.4 1028.5 28.7L1028.5 28.4C1028.2 28.3 1027.8 28.2 1027.3 28.2 1026.5 28.2 1026.1 28.5 1026.1 29.1L1026.1 29.1C1026.1 29.6 1026.5 29.9 1027.1 29.9ZM1037.2 31.1C1036 31.1 1035 30.4 1035 29.2L1035 29.1C1035 27.7 1036.1 27.1 1037.6 27.1 1038.2 27.1 1038.7 27.2 1039.2 27.3L1039.2 27.2C1039.2 26.5 1038.7 26.1 1037.8 26.1 1037.3 26.1 1036.9 26.1 1036.5 26.2 1036.4 26.3 1036.4 26.3 1036.3 26.3 1035.8 26.3 1035.5 26 1035.5 25.5 1035.5 25.2 1035.7 24.9 1036 24.8 1036.6 24.6 1037.2 24.5 1038.1 24.5 1039.1 24.5 1039.8 24.8 1040.2 25.2 1040.7 25.7 1040.9 26.4 1040.9 27.3L1040.9 30.2C1040.9 30.7 1040.5 31.1 1040 31.1 1039.5 31.1 1039.2 30.7 1039.2 30.3L1039.2 30.3C1038.7 30.8 1038.1 31.1 1037.2 31.1ZM1037.8 29.9C1038.6 29.9 1039.2 29.4 1039.2 28.7L1039.2 28.4C1038.9 28.3 1038.5 28.2 1038 28.2 1037.3 28.2 1036.8 28.5 1036.8 29.1L1036.8 29.1C1036.8 29.6 1037.2 29.9 1037.8 29.9ZM1038.2 23.9C1038.5 23.9 1038.7 23.8 1038.7 23.6 1038.7 23.5 1038.6 23.4 1038.5 23.3L1037.9 22.3C1037.7 22 1037.5 21.9 1037.2 21.9 1036.7 21.9 1036.2 22.1 1036.2 22.4 1036.2 22.6 1036.3 22.7 1036.4 22.8L1037.2 23.5C1037.5 23.9 1037.8 23.9 1038.2 23.9ZM1048.4 31.1C1049.7 31.1 1050.8 30.5 1050.8 29L1050.8 29C1050.8 27.8 1049.8 27.4 1048.9 27.1 1048.2 26.9 1047.6 26.7 1047.6 26.3L1047.6 26.3C1047.6 26.1 1047.8 25.9 1048.2 25.9 1048.6 25.9 1049.1 26 1049.6 26.3 1049.7 26.3 1049.8 26.4 1050 26.4 1050.4 26.4 1050.7 26.1 1050.7 25.6 1050.7 25.3 1050.5 25.1 1050.3 25 1049.6 24.7 1048.9 24.5 1048.3 24.5 1047 24.5 1045.9 25.2 1045.9 26.5L1045.9 26.5C1045.9 27.8 1046.9 28.2 1047.8 28.5 1048.5 28.7 1049.2 28.8 1049.2 29.2L1049.2 29.2C1049.2 29.5 1048.9 29.7 1048.4 29.7 1047.9 29.7 1047.3 29.5 1046.7 29.1 1046.6 29.1 1046.4 29 1046.3 29 1045.9 29 1045.6 29.4 1045.6 29.8 1045.6 30.1 1045.7 30.3 1045.9 30.4 1046.7 30.9 1047.6 31.1 1048.4 31.1ZM1053.6 27.3L1056.3 27.3C1056.2 26.5 1055.8 25.9 1055 25.9 1054.2 25.9 1053.7 26.5 1053.6 27.3ZM1057.4 30.4C1056.8 30.8 1056.1 31.1 1055.2 31.1 1053.2 31.1 1051.8 29.8 1051.8 27.8L1051.8 27.8C1051.8 26 1053.1 24.4 1055 24.4 1057.1 24.4 1058.1 26.2 1058.1 27.5 1058.1 28.1 1057.7 28.4 1057.2 28.4L1053.6 28.4C1053.8 29.2 1054.4 29.7 1055.2 29.7 1055.7 29.7 1056.1 29.5 1056.5 29.2 1056.6 29.2 1056.7 29.1 1056.9 29.1 1057.3 29.1 1057.6 29.4 1057.6 29.8 1057.6 30.1 1057.5 30.2 1057.4 30.4ZM1059 30.3C1059 30.8 1059.3 31.1 1059.8 31.1 1060.1 31.1 1060.4 30.9 1060.6 30.6L1061.9 28.9 1063.2 30.6C1063.4 30.9 1063.7 31.1 1064 31.1 1064.5 31.1 1064.9 30.8 1064.9 30.3 1064.9 30 1064.8 29.8 1064.6 29.6L1063 27.7 1064.5 25.9C1064.7 25.7 1064.8 25.5 1064.8 25.3 1064.8 24.8 1064.4 24.5 1063.9 24.5 1063.6 24.5 1063.4 24.7 1063.1 24.9L1061.9 26.5 1060.7 24.9C1060.5 24.6 1060.3 24.5 1059.9 24.5 1059.4 24.5 1059.1 24.8 1059.1 25.3 1059.1 25.6 1059.2 25.8 1059.4 26L1060.9 27.7 1059.2 29.7C1059.1 29.9 1059 30.1 1059 30.3ZM1068.4 31.1C1068.8 31.1 1069.1 31.1 1069.4 30.9 1069.7 30.8 1069.9 30.6 1069.9 30.2 1069.9 29.8 1069.5 29.5 1069.1 29.5 1069.1 29.5 1069 29.5 1068.9 29.5 1068.5 29.5 1068.3 29.3 1068.3 28.9L1068.3 26.1 1069.1 26.1C1069.5 26.1 1069.9 25.8 1069.9 25.3 1069.9 24.9 1069.5 24.6 1069.1 24.6L1068.3 24.6 1068.3 23.8C1068.3 23.3 1067.9 22.9 1067.4 22.9 1066.9 22.9 1066.5 23.3 1066.5 23.8L1066.5 24.6 1066.4 24.6C1066 24.6 1065.6 24.9 1065.6 25.3 1065.6 25.8 1066 26.1 1066.4 26.1L1066.5 26.1 1066.5 29.2C1066.5 30.7 1067.2 31.1 1068.4 31.1ZM1073 31.1C1071.8 31.1 1070.8 30.4 1070.8 29.2L1070.8 29.1C1070.8 27.7 1071.8 27.1 1073.4 27.1 1074 27.1 1074.5 27.2 1074.9 27.3L1074.9 27.2C1074.9 26.5 1074.5 26.1 1073.6 26.1 1073.1 26.1 1072.7 26.1 1072.3 26.2 1072.2 26.3 1072.1 26.3 1072 26.3 1071.6 26.3 1071.3 26 1071.3 25.5 1071.3 25.2 1071.5 24.9 1071.8 24.8 1072.4 24.6 1073 24.5 1073.8 24.5 1074.8 24.5 1075.5 24.8 1076 25.2 1076.5 25.7 1076.7 26.4 1076.7 27.3L1076.7 30.2C1076.7 30.7 1076.3 31.1 1075.8 31.1 1075.3 31.1 1074.9 30.7 1074.9 30.3L1074.9 30.3C1074.5 30.8 1073.9 31.1 1073 31.1ZM1073.5 29.9C1074.4 29.9 1075 29.4 1075 28.7L1075 28.4C1074.7 28.3 1074.2 28.2 1073.8 28.2 1073 28.2 1072.5 28.5 1072.5 29.1L1072.5 29.1C1072.5 29.6 1073 29.9 1073.5 29.9ZM1078.9 28.2L1080.9 28.2C1081.4 28.2 1081.8 27.8 1081.8 27.3 1081.8 26.8 1081.4 26.4 1080.9 26.4L1078.9 26.4C1078.4 26.4 1078 26.8 1078 27.3 1078 27.8 1078.4 28.2 1078.9 28.2ZM1083.5 30.2C1083.5 30.7 1083.9 31.1 1084.4 31.1 1084.9 31.1 1085.3 30.7 1085.3 30.2L1085.3 26.1 1086.1 26.1C1086.5 26.1 1086.8 25.8 1086.8 25.4 1086.8 25 1086.5 24.6 1086.1 24.6L1085.3 24.6 1085.3 24.4C1085.3 23.9 1085.5 23.7 1085.9 23.7L1086.1 23.7C1086.5 23.7 1086.8 23.3 1086.8 22.9 1086.8 22.5 1086.5 22.3 1086.2 22.2 1086 22.2 1085.8 22.2 1085.5 22.2 1084.8 22.2 1084.3 22.3 1084 22.7 1083.7 23 1083.5 23.5 1083.5 24.2L1083.5 24.6 1083.4 24.6C1083 24.6 1082.6 25 1082.6 25.4 1082.6 25.8 1083 26.1 1083.4 26.1L1083.5 26.1 1083.5 30.2ZM1089.1 27.3L1091.9 27.3C1091.7 26.5 1091.3 25.9 1090.5 25.9 1089.7 25.9 1089.2 26.5 1089.1 27.3ZM1092.9 30.4C1092.3 30.8 1091.6 31.1 1090.7 31.1 1088.7 31.1 1087.3 29.8 1087.3 27.8L1087.3 27.8C1087.3 26 1088.6 24.4 1090.5 24.4 1092.6 24.4 1093.6 26.2 1093.6 27.5 1093.6 28.1 1093.2 28.4 1092.7 28.4L1089.1 28.4C1089.3 29.2 1089.9 29.7 1090.7 29.7 1091.2 29.7 1091.6 29.5 1092 29.2 1092.1 29.2 1092.2 29.1 1092.4 29.1 1092.8 29.1 1093.1 29.4 1093.1 29.8 1093.1 30.1 1093 30.2 1092.9 30.4ZM1095 23.1C1095 23.6 1095.4 23.9 1096 23.9 1096.6 23.9 1097 23.6 1097 23.1L1097 23C1097 22.5 1096.6 22.2 1096 22.2 1095.4 22.2 1095 22.5 1095 23L1095 23.1ZM1095.1 30.2C1095.1 30.7 1095.5 31.1 1096 31.1 1096.5 31.1 1096.9 30.7 1096.9 30.2L1096.9 25.4C1096.9 24.9 1096.5 24.5 1096 24.5 1095.5 24.5 1095.1 24.9 1095.1 25.4L1095.1 30.2ZM1098.6 30.2C1098.6 30.7 1099 31.1 1099.5 31.1 1100 31.1 1100.4 30.7 1100.4 30.2L1100.4 28.5C1100.4 27.2 1100.9 26.5 1101.9 26.2 1102.2 26.2 1102.6 25.9 1102.6 25.4 1102.6 24.9 1102.2 24.5 1101.7 24.5 1101.1 24.5 1100.7 25.1 1100.4 25.7L1100.4 25.4C1100.4 24.9 1100 24.5 1099.5 24.5 1099 24.5 1098.6 24.9 1098.6 25.4L1098.6 30.2ZM1105.1 31.1C1103.9 31.1 1102.9 30.4 1102.9 29.2L1102.9 29.1C1102.9 27.7 1104 27.1 1105.5 27.1 1106.2 27.1 1106.6 27.2 1107.1 27.3L1107.1 27.2C1107.1 26.5 1106.6 26.1 1105.7 26.1 1105.2 26.1 1104.8 26.1 1104.5 26.2 1104.4 26.3 1104.3 26.3 1104.2 26.3 1103.8 26.3 1103.4 26 1103.4 25.5 1103.4 25.2 1103.6 24.9 1103.9 24.8 1104.5 24.6 1105.1 24.5 1106 24.5 1107 24.5 1107.7 24.8 1108.2 25.2 1108.6 25.7 1108.9 26.4 1108.9 27.3L1108.9 30.2C1108.9 30.7 1108.5 31.1 1108 31.1 1107.4 31.1 1107.1 30.7 1107.1 30.3L1107.1 30.3C1106.6 30.8 1106 31.1 1105.1 31.1ZM1105.7 29.9C1106.6 29.9 1107.1 29.4 1107.1 28.7L1107.1 28.4C1106.8 28.3 1106.4 28.2 1106 28.2 1105.2 28.2 1104.7 28.5 1104.7 29.1L1104.7 29.1C1104.7 29.6 1105.1 29.9 1105.7 29.9ZM966.3 38.1L966.3 45.2C966.3 45.7 965.9 46.1 965.4 46.1 964.9 46.1 964.5 45.7 964.5 45.2L964.5 45.1C964 45.7 963.4 46.1 962.5 46.1 961 46.1 959.5 44.9 959.5 42.8L959.5 42.8C959.5 40.6 960.9 39.4 962.5 39.4 963.4 39.4 964 39.9 964.5 40.4L964.5 38.1C964.5 37.6 964.9 37.2 965.4 37.2 965.9 37.2 966.3 37.6 966.3 38.1ZM962.9 41C962.1 41 961.4 41.7 961.4 42.8L961.4 42.8C961.4 43.9 962.1 44.6 962.9 44.6 963.8 44.6 964.5 43.9 964.5 42.8L964.5 42.8C964.5 41.7 963.8 41 962.9 41ZM969.7 46.1C968.5 46.1 967.5 45.4 967.5 44.2L967.5 44.1C967.5 42.7 968.6 42.1 970.1 42.1 970.8 42.1 971.2 42.2 971.7 42.3L971.7 42.2C971.7 41.5 971.2 41.1 970.3 41.1 969.8 41.1 969.4 41.1 969.1 41.2 968.9 41.3 968.9 41.3 968.8 41.3 968.4 41.3 968 41 968 40.5 968 40.2 968.2 39.9 968.5 39.8 969.1 39.6 969.7 39.5 970.6 39.5 971.6 39.5 972.3 39.8 972.8 40.2 973.2 40.7 973.4 41.4 973.4 42.3L973.4 45.2C973.4 45.7 973.1 46.1 972.6 46.1 972 46.1 971.7 45.7 971.7 45.3L971.7 45.3C971.2 45.8 970.6 46.1 969.7 46.1ZM970.3 44.9C971.1 44.9 971.7 44.4 971.7 43.7L971.7 43.4C971.4 43.3 971 43.2 970.6 43.2 969.8 43.2 969.3 43.5 969.3 44.1L969.3 44.1C969.3 44.6 969.7 44.9 970.3 44.9ZM977.3 46.1C978.7 46.1 979.7 45.5 979.7 44L979.7 44C979.7 42.8 978.7 42.4 977.8 42.1 977.1 41.9 976.5 41.7 976.5 41.3L976.5 41.3C976.5 41.1 976.7 40.9 977.2 40.9 977.5 40.9 978 41 978.5 41.3 978.7 41.3 978.8 41.4 978.9 41.4 979.3 41.4 979.6 41.1 979.6 40.6 979.6 40.3 979.4 40.1 979.2 40 978.6 39.7 977.9 39.5 977.2 39.5 975.9 39.5 974.8 40.2 974.8 41.5L974.8 41.5C974.8 42.8 975.9 43.2 976.8 43.5 977.5 43.7 978.1 43.8 978.1 44.2L978.1 44.2C978.1 44.5 977.9 44.7 977.3 44.7 976.8 44.7 976.2 44.5 975.6 44.1 975.5 44.1 975.4 44 975.2 44 974.8 44 974.5 44.4 974.5 44.8 974.5 45.1 974.7 45.3 974.9 45.4 975.6 45.9 976.5 46.1 977.3 46.1ZM988.2 46.1C986 46.1 984.5 44.3 984.5 41.8L984.5 41.8C984.5 39.4 986 37.5 988.2 37.5 990.4 37.5 991.9 39.3 991.9 41.8L991.9 41.8C991.9 44.2 990.4 46.1 988.2 46.1ZM988.2 44.5C989.3 44.5 990 43.3 990 41.8L990 41.8C990 40.3 989.3 39.1 988.2 39.1 987.1 39.1 986.4 40.2 986.4 41.8L986.4 41.8C986.4 43.3 987.1 44.5 988.2 44.5ZM996.4 46.1C994.5 46.1 993.1 45.2 993.1 43.7L993.1 43.7C993.1 42.7 993.6 42.1 994.5 41.6 993.8 41.2 993.4 40.7 993.4 39.8L993.4 39.8C993.4 38.5 994.6 37.5 996.4 37.5 998.1 37.5 999.3 38.5 999.3 39.8L999.3 39.8C999.3 40.7 998.9 41.2 998.3 41.6 999.1 42.1 999.6 42.6 999.6 43.6L999.6 43.6C999.6 45.2 998.2 46.1 996.4 46.1ZM996.4 41C997.1 41 997.6 40.6 997.6 40L997.6 40C997.6 39.5 997.1 39 996.4 39 995.6 39 995.2 39.5 995.2 40L995.2 40C995.2 40.6 995.6 41 996.4 41ZM996.4 44.6C997.3 44.6 997.8 44.1 997.8 43.6L997.8 43.5C997.8 42.9 997.2 42.5 996.4 42.5 995.5 42.5 994.9 42.9 994.9 43.5L994.9 43.6C994.9 44.1 995.5 44.6 996.4 44.6ZM1001 45.2C1001 45.7 1001.4 46.1 1001.9 46.1 1002.4 46.1 1002.8 45.7 1002.8 45.2L1002.8 42.4C1002.8 41.5 1003.2 41.1 1003.9 41.1 1004.6 41.1 1005 41.5 1005 42.4L1005 45.2C1005 45.7 1005.4 46.1 1005.9 46.1 1006.4 46.1 1006.9 45.7 1006.9 45.2L1006.9 41.8C1006.9 40.4 1006.1 39.4 1004.7 39.4 1003.7 39.4 1003.2 39.9 1002.8 40.5L1002.8 38.1C1002.8 37.6 1002.4 37.2 1001.9 37.2 1001.4 37.2 1001 37.6 1001 38.1L1001 45.2ZM1013.9 46.1C1012.7 46.1 1011.7 45.4 1011.7 44.2L1011.7 44.1C1011.7 42.7 1012.7 42.1 1014.2 42.1 1014.9 42.1 1015.4 42.2 1015.8 42.3L1015.8 42.2C1015.8 41.5 1015.4 41.1 1014.4 41.1 1013.9 41.1 1013.5 41.1 1013.2 41.2 1013.1 41.3 1013 41.3 1012.9 41.3 1012.5 41.3 1012.2 41 1012.2 40.5 1012.2 40.2 1012.4 39.9 1012.7 39.8 1013.2 39.6 1013.9 39.5 1014.7 39.5 1015.7 39.5 1016.4 39.8 1016.9 40.2 1017.4 40.7 1017.6 41.4 1017.6 42.3L1017.6 45.2C1017.6 45.7 1017.2 46.1 1016.7 46.1 1016.2 46.1 1015.8 45.7 1015.8 45.3L1015.8 45.3C1015.4 45.8 1014.8 46.1 1013.9 46.1ZM1014.4 44.9C1015.3 44.9 1015.8 44.4 1015.8 43.7L1015.8 43.4C1015.5 43.3 1015.1 43.2 1014.7 43.2 1013.9 43.2 1013.4 43.5 1013.4 44.1L1013.4 44.1C1013.4 44.6 1013.8 44.9 1014.4 44.9ZM1014.8 38.9C1015.1 38.9 1015.3 38.8 1015.3 38.6 1015.3 38.5 1015.2 38.4 1015.2 38.3L1014.5 37.3C1014.4 37 1014.1 36.9 1013.8 36.9 1013.4 36.9 1012.8 37.1 1012.8 37.4 1012.8 37.6 1012.9 37.7 1013.1 37.8L1013.8 38.5C1014.2 38.9 1014.4 38.9 1014.8 38.9ZM1021.4 46.1C1022.8 46.1 1023.9 45.5 1023.9 44L1023.9 44C1023.9 42.8 1022.8 42.4 1021.9 42.1 1021.2 41.9 1020.6 41.7 1020.6 41.3L1020.6 41.3C1020.6 41.1 1020.8 40.9 1021.3 40.9 1021.7 40.9 1022.2 41 1022.7 41.3 1022.8 41.3 1022.9 41.4 1023 41.4 1023.4 41.4 1023.7 41.1 1023.7 40.6 1023.7 40.3 1023.6 40.1 1023.3 40 1022.7 39.7 1022 39.5 1021.3 39.5 1020 39.5 1019 40.2 1019 41.5L1019 41.5C1019 42.8 1020 43.2 1020.9 43.5 1021.6 43.7 1022.2 43.8 1022.2 44.2L1022.2 44.2C1022.2 44.5 1022 44.7 1021.4 44.7 1020.9 44.7 1020.3 44.5 1019.7 44.1 1019.6 44.1 1019.5 44 1019.3 44 1018.9 44 1018.6 44.4 1018.6 44.8 1018.6 45.1 1018.8 45.3 1019 45.4 1019.8 45.9 1020.6 46.1 1021.4 46.1ZM1030.1 45.2C1030.1 45.7 1030.5 46.1 1031 46.1 1031.5 46.1 1031.9 45.7 1031.9 45.2L1031.9 38.4C1031.9 37.9 1031.5 37.5 1031 37.5L1031 37.5C1030.7 37.5 1030.5 37.5 1030.1 37.6L1028.9 38C1028.6 38.1 1028.3 38.4 1028.3 38.8 1028.3 39.2 1028.7 39.6 1029.1 39.6 1029.2 39.6 1029.3 39.5 1029.4 39.5L1030.1 39.4 1030.1 45.2ZM1036.8 46.1C1034.9 46.1 1033.6 45.2 1033.6 43.7L1033.6 43.7C1033.6 42.7 1034 42.1 1034.9 41.6 1034.3 41.2 1033.8 40.7 1033.8 39.8L1033.8 39.8C1033.8 38.5 1035 37.5 1036.8 37.5 1038.6 37.5 1039.7 38.5 1039.7 39.8L1039.7 39.8C1039.7 40.7 1039.3 41.2 1038.7 41.6 1039.5 42.1 1040 42.6 1040 43.6L1040 43.6C1040 45.2 1038.7 46.1 1036.8 46.1ZM1036.8 41C1037.5 41 1038 40.6 1038 40L1038 40C1038 39.5 1037.6 39 1036.8 39 1036 39 1035.6 39.5 1035.6 40L1035.6 40C1035.6 40.6 1036.1 41 1036.8 41ZM1036.8 44.6C1037.7 44.6 1038.2 44.1 1038.2 43.6L1038.2 43.5C1038.2 42.9 1037.6 42.5 1036.8 42.5 1036 42.5 1035.3 42.9 1035.3 43.5L1035.3 43.6C1035.3 44.1 1035.9 44.6 1036.8 44.6ZM1041.4 45.2C1041.4 45.7 1041.8 46.1 1042.3 46.1 1042.8 46.1 1043.2 45.7 1043.2 45.2L1043.2 42.4C1043.2 41.5 1043.7 41.1 1044.4 41.1 1045.1 41.1 1045.5 41.5 1045.5 42.4L1045.5 45.2C1045.5 45.7 1045.9 46.1 1046.4 46.1 1046.9 46.1 1047.3 45.7 1047.3 45.2L1047.3 41.8C1047.3 40.4 1046.5 39.4 1045.1 39.4 1044.2 39.4 1043.6 39.9 1043.2 40.5L1043.2 38.1C1043.2 37.6 1042.8 37.2 1042.3 37.2 1041.8 37.2 1041.4 37.6 1041.4 38.1L1041.4 45.2Z" class="b"/><path d="M946.7 24.9C946.7 23 945.5 21.3 943.9 20.8 943.9 21 943.9 21.2 943.9 21.4L943.9 22 943.9 29.1C945.5 28.6 946.7 26.9 946.7 24.9M933.1 40C933.1 39.3 932.5 38.7 931.8 38.7 931.1 38.7 930.6 39.3 930.6 40 930.6 40.7 931.1 41.2 931.8 41.2 932.5 41.2 933.1 40.7 933.1 40M940.3 15.9C939.9 15.5 939.6 15 939.2 14.7 937.6 13 935 11.7 932.5 11.7L931.2 11.7C928.7 11.7 926.1 13 924.5 14.7 923.4 15.7 922.6 17.1 922 18.6 924.3 17.7 926.1 16.1 927.3 14 927.5 13.7 927.7 13.5 928 13.5 928.3 13.4 928.6 13.5 928.8 13.7 930.8 15.7 933.4 16.8 936.1 16.8 937.6 16.8 939 16.5 940.3 15.9M919.8 20.8C918.1 21.3 916.9 23 916.9 24.9 916.9 26.9 918.1 28.5 919.8 29 919.8 26.4 919.8 24.2 919.8 21.4 919.8 21.2 919.8 21 919.8 20.8M948.7 24.9C948.7 28 946.6 30.5 943.8 31L943.8 31.2C943.6 33.9 942.4 36.3 940.5 38.1 939 39.6 937 40.7 934.8 41.2 934.3 42.3 933.2 43.2 931.8 43.2 930.1 43.2 928.7 41.7 928.7 40 928.7 38.2 930.1 36.8 931.8 36.8 933.3 36.8 934.5 37.8 934.9 39.1 936.5 38.8 938.1 38.1 939.2 37 940.9 35.3 942.2 32.5 942.2 30L942.2 21.4C942.2 20.1 941.8 18.8 941.2 17.6 939.6 18.3 937.9 18.7 936.1 18.7 933.2 18.7 930.5 17.8 928.4 15.9 926.7 18.3 924.3 20 921.6 20.7 921.5 21 921.5 21.2 921.5 21.4L921.5 30C921.5 30.3 921.5 30.4 921.4 30.6 921.4 30.6 921.4 30.6 921.4 30.6 921.3 30.6 921.3 30.7 921.3 30.7 921.1 30.9 920.8 31.1 920.5 31.1 920.5 31.1 920.5 31.1 920.4 31.1 917.4 30.9 915 28.2 915 24.9 915 21.8 917.2 19.2 920.1 18.8 920.6 16.7 921.7 14.8 923.2 13.4 925.2 11.3 928.1 10 931.2 10L932.5 10C935.6 10 938.5 11.3 940.5 13.4 942 14.8 943.1 16.7 943.6 18.8 946.5 19.2 948.7 21.8 948.7 24.9M937 29.7C937.1 29.2 936.8 28.7 936.3 28.5 935.8 28.4 935.3 28.7 935.1 29.2 934.8 30.3 933.4 31.2 931.8 31.2 930.2 31.2 928.9 30.3 928.5 29.2 928.4 28.7 927.9 28.4 927.3 28.5 926.8 28.7 926.5 29.2 926.7 29.7 927.2 31.7 929.4 33.1 931.8 33.1 934.3 33.1 936.4 31.7 937 29.7M928 25.1C929 25.1 929.7 24.4 929.7 23.4 929.7 22.5 929 21.7 928 21.7 927.1 21.7 926.3 22.5 926.3 23.4 926.3 24.4 927.1 25.1 928 25.1M934 23.4C934 22.5 934.7 21.7 935.7 21.7 936.6 21.7 937.4 22.5 937.4 23.4 937.4 24.4 936.6 25.1 935.7 25.1 934.7 25.1 934 24.4 934 23.4" class="a"/><polygon points="411.5 0.5 411.5 50.5 412.5 50.5 412.5 0.5" class="c"/><polygon points="638.5 0.5 638.5 50.5 639.5 50.5 639.5 0.5" class="c"/><polygon points="897.5 0.5 897.5 50.5 898.5 50.5 898.5 0.5" class="c"/><polygon points="187.5 0.5 187.5 50.5 188.5 50.5 188.5 0.5" class="c"/><path d="M444.5 32.5C444.5 33 444 33.4 443.5 33.4L439.9 33.4C439.4 33.4 439 33 439 32.5 439 32 439.4 31.5 439.9 31.5L443.5 31.5C444 31.5 444.5 32 444.5 32.5L444.5 32.5ZM437.4 32.5C437.4 33 437 33.4 436.4 33.4L433.6 33.4C433 33.4 432.6 33 432.6 32.5 432.6 32 433 31.5 433.6 31.5L436.4 31.5C437 31.5 437.4 32 437.4 32.5L437.4 32.5ZM459.7 35.4L432.5 35.4C431.6 35.4 430.9 34.7 430.9 33.8L430.9 24.4 461.3 24.4 461.3 33.8C461.3 34.7 460.6 35.4 459.7 35.4L459.7 35.4ZM430.9 22.5L461.3 22.5 461.3 20.3 430.9 20.3 430.9 22.5ZM432.5 14.9L459.7 14.9C460.6 14.9 461.3 15.6 461.3 16.5L461.3 18.3 430.9 18.3 430.9 16.5C430.9 15.6 431.6 14.9 432.5 14.9L432.5 14.9ZM459.7 13L432.5 13C430.6 13 429 14.6 429 16.5L429 19.3 429 23.4 429 33.8C429 35.8 430.6 37.3 432.5 37.3L459.7 37.3C461.7 37.3 463.2 35.8 463.2 33.8L463.2 23.4 463.2 19.3 463.2 16.5C463.2 14.6 461.7 13 459.7 13L459.7 13Z" class="a"/><path d="M473.6 23.8C473.6 23.6 473.7 23.4 473.8 23.2L478.2 13.3C478.5 12.6 479.1 12.2 479.8 12.2L480 12.2C480.7 12.2 481.3 12.6 481.6 13.3L486 23.2C486.1 23.4 486.1 23.6 486.1 23.8 486.1 24.5 485.5 25.1 484.8 25.1 484.2 25.1 483.7 24.7 483.5 24.2L482.6 22.2 477.1 22.2 476.2 24.2C476 24.8 475.5 25.1 474.9 25.1 474.2 25.1 473.6 24.5 473.6 23.8ZM478.1 19.7L481.6 19.7 479.9 15.6 478.1 19.7ZM490.7 25.2C491.3 25.2 491.8 25.1 492.3 24.9 492.7 24.7 493 24.4 493 23.9 493 23.2 492.5 22.7 491.8 22.7 491.8 22.7 491.6 22.8 491.5 22.8 490.9 22.8 490.6 22.4 490.6 21.8L490.6 17.7 491.8 17.7C492.5 17.7 493 17.2 493 16.5 493 15.9 492.5 15.4 491.8 15.4L490.6 15.4 490.6 14.1C490.6 13.4 490 12.8 489.3 12.8 488.5 12.8 487.9 13.4 487.9 14.1L487.9 15.4 487.8 15.4C487.2 15.4 486.6 15.9 486.6 16.5 486.6 17.2 487.2 17.7 487.8 17.7L487.9 17.7 487.9 22.3C487.9 24.5 489 25.2 490.7 25.2ZM496.7 19.4L500.8 19.4C500.6 18.2 499.9 17.4 498.8 17.4 497.6 17.4 496.9 18.2 496.7 19.4ZM502.4 24C501.5 24.8 500.4 25.2 499 25.2 496.1 25.2 494 23.2 494 20.2L494 20.2C494 17.4 495.9 15.2 498.8 15.2 502 15.2 503.4 17.8 503.4 19.8 503.4 20.6 502.8 21.1 502.1 21.1L496.7 21.1C497 22.4 497.8 23 499.1 23 499.8 23 500.4 22.8 501 22.4 501.2 22.2 501.4 22.2 501.7 22.2 502.3 22.2 502.7 22.6 502.7 23.2 502.7 23.6 502.6 23.9 502.4 24ZM498.6 14.4C499.3 14.4 499.7 14.3 500.2 13.8L501.3 12.8C501.5 12.6 501.7 12.4 501.7 12.1 501.7 11.7 500.8 11.3 500.2 11.3 499.7 11.3 499.4 11.5 499.1 11.9L498.1 13.4C498.1 13.6 498 13.8 498 13.9 498 14.2 498.3 14.4 498.6 14.4ZM515.4 25.2C513.7 25.2 512.6 24.7 511.7 23.9 510.8 22.9 510.2 21.6 510.2 19.1L510.2 19.1C510.2 15.2 512 12.2 515.8 12.2 517 12.2 518 12.5 518.8 12.9 519.2 13.2 519.5 13.6 519.5 14.1 519.5 14.8 518.9 15.4 518.2 15.4 518 15.4 517.7 15.3 517.5 15.2 516.9 14.9 516.4 14.7 515.7 14.7 514.1 14.7 513.3 16 513.1 17.6 513.8 17.2 514.5 16.8 515.7 16.8 518.2 16.8 520.2 18.2 520.2 20.8L520.2 20.9C520.2 23.4 518.1 25.2 515.4 25.2ZM515.3 22.8C516.6 22.8 517.4 22.1 517.4 21L517.4 21C517.4 19.9 516.6 19.1 515.2 19.1 513.9 19.1 513.1 19.9 513.1 20.9L513.1 21C513.1 22 513.9 22.8 515.3 22.8ZM521.7 24C521.7 24.6 522.3 25.1 523 25.1 523.5 25.1 523.8 24.8 524.2 24.4L526.1 21.9 528.1 24.4C528.4 24.9 528.8 25.1 529.3 25.1 530 25.1 530.6 24.7 530.6 23.9 530.6 23.5 530.4 23.2 530.1 22.8L527.7 20.1 530.1 17.3C530.3 17.1 530.4 16.8 530.4 16.4 530.4 15.7 529.9 15.2 529.2 15.2 528.7 15.2 528.3 15.5 528 15.9L526.2 18.3 524.4 15.9C524 15.5 523.6 15.2 523.1 15.2 522.4 15.2 521.8 15.7 521.8 16.5 521.8 16.8 522 17.2 522.3 17.5L524.5 20.1 522.1 23C521.8 23.3 521.7 23.6 521.7 24ZM540.9 25.2C543 25.2 544.6 24.2 544.6 22.1L544.6 22C544.6 20.3 543 19.6 541.7 19.2 540.6 18.8 539.7 18.6 539.7 18L539.7 18C539.7 17.6 540.1 17.3 540.7 17.3 541.3 17.3 542.1 17.5 542.8 17.9 543 18 543.1 18.1 543.3 18.1 543.9 18.1 544.4 17.6 544.4 17 544.4 16.5 544.2 16.1 543.8 15.9 542.8 15.5 541.8 15.2 540.8 15.2 538.8 15.2 537.3 16.3 537.3 18.3L537.3 18.3C537.3 20.2 538.8 20.8 540.1 21.2 541.2 21.5 542.1 21.7 542.1 22.3L542.1 22.4C542.1 22.8 541.8 23.1 541 23.1 540.2 23.1 539.3 22.8 538.4 22.2 538.2 22.1 538 22.1 537.8 22.1 537.2 22.1 536.8 22.5 536.8 23.1 536.8 23.6 537 23.9 537.3 24.1 538.5 24.8 539.7 25.2 540.9 25.2ZM548.6 19.4L552.7 19.4C552.5 18.2 551.8 17.4 550.7 17.4 549.5 17.4 548.8 18.2 548.6 19.4ZM554.3 24C553.4 24.8 552.3 25.2 550.9 25.2 548 25.2 545.9 23.2 545.9 20.2L545.9 20.2C545.9 17.4 547.9 15.2 550.7 15.2 553.9 15.2 555.3 17.8 555.3 19.8 555.3 20.6 554.8 21.1 554 21.1L548.6 21.1C548.9 22.4 549.8 23 551 23 551.7 23 552.4 22.8 552.9 22.4 553.1 22.2 553.3 22.2 553.6 22.2 554.2 22.2 554.7 22.6 554.7 23.2 554.7 23.6 554.5 23.9 554.3 24ZM557.2 23.7C557.2 24.5 557.8 25.1 558.6 25.1 559.3 25.1 559.9 24.5 559.9 23.7L559.9 19.6C559.9 18.3 560.6 17.7 561.6 17.7 562.6 17.7 563.2 18.3 563.2 19.6L563.2 23.7C563.2 24.5 563.8 25.1 564.6 25.1 565.3 25.1 565.9 24.5 565.9 23.7L565.9 19.6C565.9 18.3 566.6 17.7 567.6 17.7 568.6 17.7 569.2 18.3 569.2 19.6L569.2 23.7C569.2 24.5 569.8 25.1 570.6 25.1 571.3 25.1 571.9 24.5 571.9 23.7L571.9 18.7C571.9 16.4 570.7 15.2 568.7 15.2 567.4 15.2 566.3 15.7 565.5 16.7 565 15.7 564 15.2 562.8 15.2 561.4 15.2 560.6 15.9 559.9 16.7L559.9 16.6C559.9 15.9 559.3 15.2 558.6 15.2 557.8 15.2 557.2 15.9 557.2 16.6L557.2 23.7ZM579.3 13.1C579.3 13.9 579.9 14.4 580.8 14.4 581.7 14.4 582.3 13.9 582.3 13.1L582.3 13C582.3 12.3 581.7 11.8 580.8 11.8 579.9 11.8 579.3 12.3 579.3 13L579.3 13.1ZM579.3 27.9C581.1 27.9 582.2 27 582.2 24.8L582.2 16.6C582.2 15.9 581.6 15.2 580.8 15.2 580 15.2 579.4 15.9 579.4 16.6L579.4 24.8C579.4 25.5 579.2 25.7 578.8 25.7L578.7 25.7C578.2 25.7 577.7 26.2 577.7 26.8 577.7 27.6 578.3 27.9 579.2 27.9L579.3 27.9ZM593.3 16.6C593.3 15.9 592.7 15.2 591.9 15.2 591.2 15.2 590.6 15.9 590.6 16.6L590.6 20.7C590.6 22 589.9 22.7 588.9 22.7 587.8 22.7 587.2 22 587.2 20.7L587.2 16.6C587.2 15.9 586.6 15.2 585.8 15.2 585.1 15.2 584.5 15.9 584.5 16.6L584.5 21.6C584.5 23.8 585.7 25.2 587.7 25.2 589.1 25.2 589.9 24.4 590.6 23.6L590.6 23.7C590.6 24.5 591.2 25.1 591.9 25.1 592.7 25.1 593.3 24.5 593.3 23.7L593.3 16.6ZM595.6 23.7C595.6 24.5 596.2 25.1 596.9 25.1 597.7 25.1 598.3 24.5 598.3 23.7L598.3 21.2C598.3 19.2 599.1 18.2 600.5 17.9 601 17.7 601.5 17.3 601.5 16.6 601.5 15.8 601 15.2 600.1 15.2 599.3 15.2 598.7 16.1 598.3 17L598.3 16.6C598.3 15.9 597.7 15.2 596.9 15.2 596.2 15.2 595.6 15.9 595.6 16.6L595.6 23.7ZM607.3 25.2C604.4 25.2 602.1 23 602.1 20.2L602.1 20.2C602.1 17.4 604.4 15.2 607.4 15.2 610.4 15.2 612.6 17.4 612.6 20.2L612.6 20.2C612.6 23 610.3 25.2 607.3 25.2ZM607.4 22.9C608.9 22.9 609.9 21.7 609.9 20.2L609.9 20.2C609.9 18.8 608.9 17.5 607.3 17.5 605.8 17.5 604.8 18.7 604.8 20.2L604.8 20.2C604.8 21.6 605.9 22.9 607.4 22.9ZM617.7 25.2C619.8 25.2 621.4 24.2 621.4 22.1L621.4 22C621.4 20.3 619.9 19.6 618.5 19.2 617.5 18.8 616.6 18.6 616.6 18L616.6 18C616.6 17.6 616.9 17.3 617.6 17.3 618.1 17.3 618.9 17.5 619.7 17.9 619.8 18 620 18.1 620.2 18.1 620.8 18.1 621.3 17.6 621.3 17 621.3 16.5 621 16.1 620.6 15.9 619.7 15.5 618.6 15.2 617.6 15.2 615.7 15.2 614.1 16.3 614.1 18.3L614.1 18.3C614.1 20.2 615.6 20.8 617 21.2 618 21.5 619 21.7 619 22.3L619 22.4C619 22.8 618.6 23.1 617.8 23.1 617 23.1 616.1 22.8 615.2 22.2 615.1 22.1 614.9 22.1 614.7 22.1 614.1 22.1 613.6 22.5 613.6 23.1 613.6 23.6 613.8 23.9 614.1 24.1 615.3 24.8 616.6 25.2 617.7 25.2Z" class="b"/><path d="M474.3 40.1C474.3 40.7 474.7 41.1 475.2 41.1 475.8 41.1 476.3 40.7 476.3 40.1L476.3 36.1C476.3 34.7 477.1 33.9 478.2 33.9 479.4 33.9 480.1 34.7 480.1 36.1L480.1 40.1C480.1 40.7 480.5 41.1 481.1 41.1 481.6 41.1 482.1 40.7 482.1 40.1L482.1 35.4C482.1 33.4 480.9 32.1 479 32.1 477.6 32.1 476.8 32.8 476.3 33.6L476.3 33.2C476.3 32.6 475.8 32.2 475.2 32.2 474.7 32.2 474.3 32.6 474.3 33.2L474.3 40.1ZM488.6 41.2C486 41.2 484 39.2 484 36.7L484 36.7C484 34.2 486 32.1 488.7 32.1 491.3 32.1 493.3 34.1 493.3 36.6L493.3 36.7C493.3 39.1 491.3 41.2 488.6 41.2ZM488.7 39.4C490.3 39.4 491.3 38.2 491.3 36.7L491.3 36.7C491.3 35.1 490.2 33.9 488.6 33.9 487 33.9 486 35.1 486 36.6L486 36.7C486 38.2 487.1 39.4 488.7 39.4ZM504.3 41.2C505.8 41.2 506.7 40.7 507.5 40 507.7 39.8 507.7 39.6 507.7 39.3 507.7 38.9 507.4 38.5 506.9 38.5 506.7 38.5 506.5 38.6 506.3 38.7 505.8 39.1 505.2 39.4 504.4 39.4 502.9 39.4 501.8 38.2 501.8 36.7L501.8 36.6C501.8 35.1 502.9 33.9 504.3 33.9 505.1 33.9 505.7 34.2 506.2 34.6 506.3 34.7 506.5 34.8 506.8 34.8 507.3 34.8 507.7 34.4 507.7 33.9 507.7 33.6 507.5 33.3 507.4 33.2 506.6 32.6 505.7 32.1 504.3 32.1 501.7 32.1 499.8 34.2 499.8 36.7L499.8 36.7C499.8 39.2 501.7 41.2 504.3 41.2ZM512.2 41.2C510.6 41.2 509.1 40.2 509.1 38.5L509.1 38.5C509.1 36.6 510.6 35.7 512.7 35.7 513.7 35.7 514.4 35.8 515.1 36L515.1 35.8C515.1 34.6 514.3 33.9 512.9 33.9 512.1 33.9 511.5 34 511 34.3 510.9 34.3 510.8 34.3 510.7 34.3 510.2 34.3 509.8 33.9 509.8 33.5 509.8 33.1 510.1 32.8 510.4 32.7 511.2 32.4 512 32.2 513.2 32.2 514.5 32.2 515.4 32.5 516 33.1 516.7 33.8 517 34.7 517 35.8L517 40.1C517 40.7 516.6 41.1 516 41.1 515.4 41.1 515 40.7 515 40.2L515 39.9C514.4 40.6 513.5 41.2 512.2 41.2ZM512.8 39.7C514.1 39.7 515.1 39 515.1 37.9L515.1 37.3C514.6 37.1 513.9 36.9 513.1 36.9 511.8 36.9 511.1 37.5 511.1 38.4L511.1 38.4C511.1 39.3 511.8 39.7 512.8 39.7ZM519.4 40.1C519.4 40.7 519.8 41.1 520.4 41.1 520.9 41.1 521.4 40.6 521.4 40.1L521.4 37.5C521.4 35.5 522.4 34.4 523.8 34.1 524.2 34 524.6 33.7 524.6 33.2 524.6 32.6 524.2 32.2 523.6 32.2 522.7 32.2 521.8 33 521.4 34.1L521.4 33.2C521.4 32.6 520.9 32.2 520.4 32.2 519.8 32.2 519.4 32.6 519.4 33.2L519.4 40.1ZM529.1 41.1C529.6 41.1 530.1 41.1 530.5 40.9 530.8 40.8 531 40.5 531 40.1 531 39.7 530.6 39.3 530.2 39.3 530.1 39.3 529.9 39.4 529.7 39.4 529 39.4 528.6 39.1 528.6 38.3L528.6 34 530.2 34C530.7 34 531 33.6 531 33.1 531 32.7 530.7 32.3 530.2 32.3L528.6 32.3 528.6 30.8C528.6 30.3 528.2 29.8 527.6 29.8 527.1 29.8 526.6 30.3 526.6 30.8L526.6 32.3 526.3 32.3C525.8 32.3 525.4 32.7 525.4 33.1 525.4 33.6 525.8 34 526.3 34L526.6 34 526.6 38.6C526.6 40.5 527.6 41.1 529.1 41.1ZM535.5 41.2C533.9 41.2 532.4 40.2 532.4 38.5L532.4 38.5C532.4 36.6 533.9 35.7 536 35.7 537 35.7 537.7 35.8 538.3 36L538.3 35.8C538.3 34.6 537.6 33.9 536.2 33.9 535.4 33.9 534.8 34 534.2 34.3 534.1 34.3 534 34.3 533.9 34.3 533.5 34.3 533.1 33.9 533.1 33.5 533.1 33.1 533.3 32.8 533.6 32.7 534.5 32.4 535.3 32.2 536.4 32.2 537.7 32.2 538.7 32.5 539.3 33.1 540 33.8 540.3 34.7 540.3 35.8L540.3 40.1C540.3 40.7 539.8 41.1 539.3 41.1 538.7 41.1 538.3 40.7 538.3 40.2L538.3 39.9C537.7 40.6 536.8 41.2 535.5 41.2ZM534.8 31.1C535 30.7 535.2 30.5 535.6 30.5 536.1 30.5 537 31.2 537.9 31.2 538.8 31.2 539.3 30.6 539.6 29.7 539.6 29.6 539.7 29.4 539.7 29.3 539.7 29 539.4 28.8 539.1 28.8 538.8 28.8 538.6 28.9 538.5 29.1 538.3 29.5 538.1 29.6 537.8 29.6 537.2 29.6 536.3 29 535.4 29 534.5 29 534.1 29.5 533.7 30.5 533.7 30.6 533.6 30.7 533.6 30.8 533.6 31.1 533.9 31.4 534.2 31.4 534.5 31.4 534.7 31.2 534.8 31.1ZM536 39.7C537.4 39.7 538.4 39 538.4 37.9L538.4 37.3C537.9 37.1 537.2 36.9 536.4 36.9 535.1 36.9 534.3 37.5 534.3 38.4L534.3 38.4C534.3 39.3 535.1 39.7 536 39.7ZM546.8 41.2C544.1 41.2 542.2 39.2 542.2 36.7L542.2 36.7C542.2 34.2 544.2 32.1 546.8 32.1 549.5 32.1 551.5 34.1 551.5 36.6L551.5 36.7C551.5 39.1 549.5 41.2 546.8 41.2ZM546.8 39.4C548.5 39.4 549.5 38.2 549.5 36.7L549.5 36.7C549.5 35.1 548.4 33.9 546.8 33.9 545.2 33.9 544.2 35.1 544.2 36.6L544.2 36.7C544.2 38.2 545.3 39.4 546.8 39.4Z" class="a"/></g></g></svg>