<svg width="18" height="19" viewBox="0 0 18 19" xmlns="http://www.w3.org/2000/svg"><path d="M14.239 8.742a.553.553 0 0 0 .545-.466 4.671 4.671 0 0 0-1.317-4c-.596-.59-1.308-.965-2.06-1.084a3.195 3.195 0 0 0-1.412.09.552.552 0 1 0 .314 1.06c.299-.09.61-.109.925-.059.522.083 1.025.352 1.455.777.411.408.73.947.9 1.52.149.502.183 1.014.103 1.523a.553.553 0 0 0 .547.639zm.818 6.183l-2.805-3.66-1.209.926 2.805 3.66 1.209-.926zm-4.552-1.618c-.027.023-.046.05-.077.07a2.26 2.26 0 0 1-1.17.303c-1.243 0-2.718-.842-3.826-2.287-1.486-1.939-1.75-4.235-.615-5.34.026-.025.058-.036.087-.055L2.578 2.96a.55.55 0 0 1-.19.115c-.068.042-.272.189-.871.682-1.058.873-.156 4.564 2.833 8.464 3.007 3.926 6.327 5.756 7.428 4.944.66-.489.853-.649.908-.702a.55.55 0 0 1 .14-.129l-2.321-3.028zM3.309 2.097l2.805 3.661 1.209-.926-2.805-3.661-1.21.927zM15.97 14.302c.17.22.243.495.206.773a1.035 1.035 0 0 1-.4.692l-1.304 1c-.19.145-.413.215-.635.215-.065 0-.13-.01-.193-.021-.013.04-.019.08-.042.118-.088.148-.21.27-1.168.977-.373.275-.824.408-1.332.408-2.02 0-4.962-2.086-7.63-5.568C.211 8.639-.933 4.345.812 2.905c.96-.791 1.123-.883 1.349-.905.027-.015.025-.033.027-.05.037-.278.179-.524.4-.694L3.893.257A1.047 1.047 0 0 1 5.36.451l2.878 3.756c.35.458.264 1.115-.194 1.466l-1.304.999a1.04 1.04 0 0 1-1.103.104c-.017.023-.027.05-.048.07-.619.603-.52 2.255.722 3.875 1.241 1.62 2.811 2.145 3.553 1.705.025-.015.052-.017.078-.027a1.044 1.044 0 0 1 .382-1.049l1.304-1a1.048 1.048 0 0 1 1.466.195l2.878 3.756zm1.131-4.161a.552.552 0 0 1-.525-.725 6.394 6.394 0 0 0-.003-3.987 6.673 6.673 0 0 0-1.498-2.523 5.861 5.861 0 0 0-2.4-1.544 5.087 5.087 0 0 0-3.216.005.554.554 0 0 1-.342-1.052A6.245 6.245 0 0 1 13.02.311a6.962 6.962 0 0 1 2.857 1.833 7.774 7.774 0 0 1 1.748 2.942c.5 1.54.5 3.155.002 4.673a.552.552 0 0 1-.525.38z" fill="#E75B22"/></svg>