<svg width="18" height="18" viewBox="0 0 18 18" xmlns="http://www.w3.org/2000/svg"><path d="M17.769 2.68L12.65 6.1l3.344.665a.541.541 0 0 1-.21 1.06l-4.623-.919c-.033-.007-.06-.025-.09-.038-.026-.01-.051-.017-.076-.031a.534.534 0 0 1-.176-.16h-.002c0-.002 0-.003-.002-.005a.547.547 0 0 1-.079-.402l.92-4.622a.54.54 0 0 1 1.06.21l-.666 3.344 5.118-3.421a.539.539 0 1 1 .6.898zm-4.237 12.769l-2.741-3.577 1.18-.905 2.742 3.577-1.181.905zm-2.024 1.284c-1.077.794-4.32-.996-7.257-4.83C1.33 8.09.448 4.484 1.48 3.632c.586-.483.785-.625.852-.667a.527.527 0 0 0 .186-.112L4.793 5.82c-.029.018-.06.03-.086.054-1.11 1.08-.85 3.324.6 5.218 1.083 1.413 2.524 2.235 3.74 2.235.414 0 .803-.096 1.143-.297.03-.018.05-.046.075-.069l2.258 2.948a.508.508 0 0 0-.118.13c-.039.04-.206.183-.897.694zM4.415 1.103l2.74 3.578-1.18.905-2.742-3.578 1.182-.905zm8.379 9.16a1.024 1.024 0 0 0-1.433-.19l-1.274.977a1.02 1.02 0 0 0-.391.677c-.015.118-.002.233.022.346-.027.01-.055.013-.08.028-.724.43-2.26-.083-3.472-1.666-1.213-1.583-1.31-3.197-.706-3.786.02-.02.03-.046.047-.069a1.02 1.02 0 0 0 1.078-.101l1.275-.977c.447-.343.531-.985.188-1.432L5.236.4A1.022 1.022 0 0 0 3.804.21l-1.274.977a1.012 1.012 0 0 0-.39.677c-.003.018.004.035.002.053-.01 0-.018-.004-.028-.003-.222.02-.38.11-1.319.884C-.91 4.204.206 8.4 3.393 12.559 6.001 15.962 8.875 18 10.85 18c.497 0 .937-.13 1.301-.398.937-.692 1.057-.811 1.144-.956.021-.037.029-.08.042-.12.018.004.033.015.05.018a1.03 1.03 0 0 0 .756-.202l1.275-.976c.446-.343.532-.985.189-1.433l-2.812-3.67z" fill="#FFF"/></svg>