<svg width="133" height="68" viewBox="0 0 133 68" xmlns="http://www.w3.org/2000/svg"><defs><linearGradient x1="0%" y1="73.816%" y2="73.816%" id="a"><stop stop-color="#F08325" offset="0%"/><stop stop-color="#E42229" offset="100%"/></linearGradient></defs><path d="M92.577 42.22c-1.119 0-2.026.907-2.026 2.027v6.104c0 1.92-.985 2.906-2.533 2.906-1.544 0-2.452-.986-2.452-2.906v-6.104a2.026 2.026 0 1 0-4.052 0v7.384c0 3.279 1.786 5.305 4.852 5.305 2.053 0 3.253-1.093 4.185-2.293v.16a2.025 2.025 0 1 0 4.053 0V44.247c0-1.12-.907-2.027-2.027-2.027zm-5.414 21.977c-.862-.204-1.066-.357-1.066-.702v-.013c0-.294.267-.53.727-.53.351 0 .684.115 1.029.338a.38.38 0 0 0 .204.058c.204 0 .37-.16.37-.364a.354.354 0 0 0-.172-.313 2.458 2.458 0 0 0-1.418-.415c-.888 0-1.526.53-1.526 1.296v.013c0 .824.536 1.105 1.488 1.335.83.191 1.009.364 1.009.683v.013c0 .332-.307.562-.792.562-.486 0-.881-.166-1.252-.46a.363.363 0 0 0-.23-.07.365.365 0 0 0-.217.664 2.78 2.78 0 0 0 1.68.562c.939 0 1.596-.498 1.596-1.335v-.013c0-.74-.485-1.079-1.43-1.309zM71.559 41.675c-3.53 0-6.544 2.457-6.544 5.964v7.164a2.025 2.025 0 1 0 4.051 0v-6.105c0-1.919.988-2.905 2.533-2.905 1.547 0 2.453.986 2.453 2.905v6.105a2.025 2.025 0 1 0 4.052 0V47.64c0-3.28-2.265-5.964-6.545-5.964zm20.586 22.522c-.863-.204-1.067-.357-1.067-.702v-.013c0-.294.268-.53.728-.53.351 0 .684.115 1.028.338a.38.38 0 0 0 .205.058c.204 0 .37-.16.37-.364a.354.354 0 0 0-.173-.313 2.458 2.458 0 0 0-1.417-.415c-.888 0-1.527.53-1.527 1.296v.013c0 .824.537 1.105 1.489 1.335.83.191 1.008.364 1.008.683v.013c0 .332-.306.562-.791.562-.486 0-.882-.166-1.252-.46a.364.364 0 0 0-.23-.07.365.365 0 0 0-.217.664 2.78 2.78 0 0 0 1.68.562c.938 0 1.596-.498 1.596-1.335v-.013c0-.74-.485-1.079-1.43-1.309zm-9.415.358c0-.868-.632-1.59-1.52-1.59s-1.507.709-1.507 1.577v.013c0 .868.632 1.584 1.52 1.584s1.507-.703 1.507-1.571v-.013zm.824-.013v.013c0 1.258-.971 2.312-2.344 2.312-1.373 0-2.331-1.041-2.331-2.3v-.012c0-1.258.97-2.312 2.343-2.312 1.374 0 2.332 1.04 2.332 2.3zM59.22 66.087H56.98v-1.2H58.9a.349.349 0 0 0 .351-.345.356.356 0 0 0-.351-.358h-1.922v-1.162h2.21a.35.35 0 0 0 .35-.35.354.354 0 0 0-.35-.352h-2.6a.39.39 0 0 0-.396.396v3.678a.39.39 0 0 0 .396.396h2.631a.35.35 0 0 0 .351-.351.354.354 0 0 0-.35-.352zm-.926-4.278l.428-.409c.064-.058.109-.121.109-.191 0-.122-.256-.25-.46-.25-.134 0-.236.07-.306.186l-.365.562a.293.293 0 0 0-.05.14c0 .083.082.134.19.134.18 0 .301-.032.454-.172zm18.286.479a.384.384 0 0 0-.384.383v2.746l-2.235-2.893c-.109-.134-.217-.23-.409-.23h-.083a.393.393 0 0 0-.395.396v3.749c0 .21.172.383.389.383a.384.384 0 0 0 .384-.383v-2.836l2.299 2.976c.108.141.222.237.408.237h.032a.381.381 0 0 0 .383-.39v-3.755a.386.386 0 0 0-.39-.383zm-9.606 2.727l-.786-1.808-.785 1.808h1.57zm1.373 1.264a.368.368 0 0 1-.326.543c-.185 0-.313-.109-.383-.274l-.364-.837h-2.172l-.376.862a.377.377 0 0 1-.364.249.36.36 0 0 1-.364-.364c0-.058.019-.115.05-.18l1.661-3.703c.09-.198.249-.319.473-.319h.038c.224 0 .377.121.466.32l1.66 3.703zM57.684 50.91c-.693-.32-1.599-.533-2.586-.533-1.732 0-2.798.693-2.798 1.973v.053c0 1.093.905 1.733 2.213 1.733 1.893 0 3.17-1.04 3.17-2.506v-.72zm2.293-7.09c1.066 1.066 1.547 2.638 1.547 4.558v6.504c0 1.092-.88 1.946-1.974 1.946-1.173 0-1.945-.826-1.945-1.68v-.026c-.988 1.092-2.346 1.813-4.32 1.813-2.692 0-4.904-1.547-4.904-4.373v-.052c0-3.12 2.372-4.559 5.757-4.559 1.44 0 2.48.24 3.493.587v-.24c0-1.68-1.04-2.613-3.066-2.613-1.12 0-2.026.16-2.799.4-.24.08-.4.106-.587.106-.933 0-1.679-.72-1.679-1.652 0-.72.454-1.333 1.093-1.573 1.28-.48 2.666-.747 4.558-.747 2.212 0 3.813.587 4.826 1.6zm62.67-7.147a2.029 2.029 0 1 0 2.028 2.027c-.001-1.12-.908-2.027-2.029-2.027zm-24.569 28.34l-.786-1.807-.785 1.808h1.571zm1.373 1.265a.368.368 0 0 1-.326.543c-.185 0-.312-.109-.383-.274l-.364-.837h-2.171l-.377.862a.377.377 0 0 1-.364.249.36.36 0 0 1-.364-.364c0-.058.019-.115.05-.18l1.662-3.703c.09-.198.249-.319.472-.319h.039c.223 0 .376.121.465.32l1.661 3.703zm-48.866-1.724c0-.868-.632-1.59-1.52-1.59-.887 0-1.507.709-1.507 1.577v.013c0 .868.632 1.584 1.52 1.584s1.507-.703 1.507-1.571v-.013zm.824-.013v.013c0 1.258-.97 2.312-2.344 2.312-1.373 0-2.33-1.041-2.33-2.3v-.012c0-1.258.97-2.312 2.343-2.312s2.331 1.04 2.331 2.3zm69.79.473l-.786-1.808-.785 1.808h1.57zm1.373 1.264a.368.368 0 0 1-.326.543c-.185 0-.313-.109-.383-.274l-.364-.837h-2.172l-.377.862a.377.377 0 0 1-.364.249.36.36 0 0 1-.364-.364.4.4 0 0 1 .052-.18l1.66-3.703c.09-.198.25-.319.473-.319h.038c.224 0 .377.121.466.32l1.66 3.703zm8.123-25.55c1.12 0 2.027-.908 2.027-2.028a2.026 2.026 0 1 0-4.055 0c0 1.12.91 2.028 2.028 2.028zm0 1.491c-1.12 0-2.026.907-2.026 2.027v10.556a2.025 2.025 0 1 0 4.052 0V44.247c0-1.12-.907-2.027-2.026-2.027zm-8.05 0c-1.12 0-2.026.907-2.026 2.027v10.556c0 1.12.906 2.026 2.026 2.026 1.12 0 2.025-.906 2.025-2.026V44.247c0-1.12-.905-2.027-2.025-2.027zM106.412 54.99a1.69 1.69 0 0 0-1.68-1.679c-.08 0-.346.027-.48.027-.906 0-1.307-.454-1.307-1.387v-6.104h1.787a1.73 1.73 0 0 0 1.733-1.732 1.73 1.73 0 0 0-1.733-1.734h-1.787v-1.786a2.025 2.025 0 1 0-4.051 0v1.786h-.132a1.73 1.73 0 0 0-1.734 1.734c0 .959.773 1.732 1.734 1.732h.132v6.77c0 3.307 1.679 4.293 4.159 4.293.88 0 1.573-.107 2.32-.4.559-.213 1.039-.8 1.039-1.52zm1.228 7.299a.405.405 0 0 0-.378.255l-1.309 3.25-1.29-3.224a.411.411 0 0 0-.402-.281.387.387 0 0 0-.351.568l1.564 3.679c.083.197.23.319.447.319h.045c.223 0 .37-.122.453-.32l1.571-3.704a.453.453 0 0 0 .04-.165.38.38 0 0 0-.39-.377zm2.619 0a.389.389 0 0 0-.397.39v3.754c0 .217.173.39.397.39a.387.387 0 0 0 .388-.39v-3.755a.387.387 0 0 0-.388-.389zm5.67-20.606v-.007c-3.53 0-6.544 2.457-6.544 5.964v7.164a2.024 2.024 0 1 0 4.05 0v-6.105c0-1.919.988-2.905 2.534-2.905v-.001a2.054 2.054 0 0 0-.04-4.11zm.09 22.873c0-.875-.614-1.52-1.552-1.52h-.882v3.04h.882c.938 0 1.552-.632 1.552-1.507v-.013zm.824-.013v.013c0 1.258-.971 2.235-2.376 2.235h-1.271a.39.39 0 0 1-.396-.396v-3.678a.39.39 0 0 1 .396-.396h1.27c1.406 0 2.377.964 2.377 2.222zM91.116 17.911H97.319v6.178c0 1.082.88 1.963 1.962 1.963h2.538c1.082 0 1.963-.88 1.963-1.963v-6.178H109.983c1.083 0 1.964-.881 1.964-1.963V13.36a1.966 1.966 0 0 0-1.964-1.963h-6.201V5.193a1.965 1.965 0 0 0-1.963-1.961h-2.538c-1.081 0-1.962.88-1.962 1.962v6.204H91.116c-1.082 0-1.962.88-1.962 1.963v2.587c0 1.082.88 1.963 1.962 1.963zM24.884 62.32h-2.97a.364.364 0 1 0 0 .728H23v3.384c0 .217.179.39.396.39a.393.393 0 0 0 .396-.39v-3.384h1.092a.362.362 0 0 0 .358-.364.362.362 0 0 0-.358-.364zm20.005-20.1c-1.066 0-1.626.694-1.892 1.387l-3.12 8.343-3.065-8.29c-.295-.826-.88-1.44-1.973-1.44-1.094 0-1.973.934-1.973 1.894 0 .373.107.719.214.986l4.372 10.103c.452 1.066 1.2 1.758 2.292 1.758h.214c1.093 0 1.839-.719 2.292-1.758L46.623 45.1c.08-.187.212-.613.212-.96 0-1.093-.88-1.92-1.946-1.92zM19.474 62.288a.388.388 0 0 0-.396.39v2.215c0 .824-.428 1.239-1.124 1.239-.702 0-1.13-.44-1.13-1.27v-2.185a.387.387 0 0 0-.39-.389.389.389 0 0 0-.396.39v2.215c0 1.297.741 1.967 1.904 1.967 1.168 0 1.922-.67 1.922-2.005v-2.178a.387.387 0 0 0-.39-.389zm10.38 1.488c0-.479-.346-.741-.927-.741h-1.143v1.5h1.15c.562 0 .92-.293.92-.747v-.012zm.427-1.01c.236.243.37.576.37.965v.013c0 .715-.415 1.15-1.015 1.335l.856 1.079c.076.096.128.178.128.3a.37.37 0 0 1-.377.364.449.449 0 0 1-.384-.205l-1.085-1.385h-.99v1.2c0 .217-.173.39-.39.39a.389.389 0 0 1-.396-.39v-3.716a.39.39 0 0 1 .396-.396h1.597c.562 0 1.003.166 1.29.447zM19.134 15.974a3.58 3.58 0 0 0 3.578 3.578h4.563v4.563c0 1.976 1.6 3.578 3.578 3.578h2.635a3.58 3.58 0 0 0 3.58-3.578v-4.576h4.56a3.58 3.58 0 0 0 3.58-3.579v-2.623a3.578 3.578 0 0 0-3.58-3.579h-4.56V5.194a3.579 3.579 0 0 0-3.58-3.578h-2.635a3.577 3.577 0 0 0-3.578 3.578v4.563h-4.563a3.578 3.578 0 0 0-3.578 3.579v2.637zm-1.616 0v-2.637a5.2 5.2 0 0 1 5.194-5.195h2.946V5.194A5.2 5.2 0 0 1 30.853 0h2.635a5.2 5.2 0 0 1 5.195 5.194V8.14h2.946a5.2 5.2 0 0 1 5.195 5.195v2.623a5.2 5.2 0 0 1-5.195 5.195h-2.946v2.96a5.2 5.2 0 0 1-5.195 5.194h-2.635a5.2 5.2 0 0 1-5.195-5.194v-2.947h-2.946a5.2 5.2 0 0 1-5.194-5.194zM13.61 62.288a.384.384 0 0 0-.383.383v2.746l-2.235-2.893c-.109-.134-.218-.23-.409-.23h-.083a.394.394 0 0 0-.396.396v3.749c0 .21.173.383.39.383.21 0 .383-.173.383-.383v-2.836l2.299 2.976c.108.141.223.237.409.237h.032a.382.382 0 0 0 .383-.39v-3.755a.386.386 0 0 0-.39-.383zm-.522-7.485V47.64c0-3.28-2.264-5.964-6.545-5.964C3.014 41.675 0 44.132 0 47.64v7.164c0 1.12.905 2.026 2.026 2.026 1.12 0 2.025-.906 2.025-2.026v-6.105c0-1.919.987-2.905 2.533-2.905 1.546 0 2.453.986 2.453 2.905v6.105c0 1.12.906 2.026 2.025 2.026 1.12 0 2.027-.906 2.027-2.026zM30.9 26.052h2.538c1.082 0 1.963-.88 1.963-1.963v-4.55H28.94v4.55c0 1.082.88 1.963 1.962 1.963zm22.422-10.08a3.58 3.58 0 0 0 3.578 3.58h4.563v4.562c0 1.976 1.601 3.578 3.578 3.578h2.635a3.58 3.58 0 0 0 3.58-3.578v-4.576h4.561a3.58 3.58 0 0 0 3.58-3.579v-2.623a3.578 3.578 0 0 0-3.58-3.579h-4.561V5.194a3.579 3.579 0 0 0-3.58-3.578h-2.635a3.577 3.577 0 0 0-3.578 3.578v4.563h-4.563a3.578 3.578 0 0 0-3.578 3.579v2.637zm-1.616 0v-2.636a5.2 5.2 0 0 1 5.194-5.195h2.946V5.194A5.2 5.2 0 0 1 65.042 0h2.635a5.2 5.2 0 0 1 5.195 5.194V8.14h2.946a5.2 5.2 0 0 1 5.195 5.195v2.623a5.2 5.2 0 0 1-5.195 5.195h-2.946v2.96a5.2 5.2 0 0 1-5.195 5.194h-2.635a5.2 5.2 0 0 1-5.195-5.194v-2.947h-2.946a5.2 5.2 0 0 1-5.194-5.194zm35.806 0a3.58 3.58 0 0 0 3.578 3.58h4.564v4.562a3.578 3.578 0 0 0 3.578 3.578h2.635a3.58 3.58 0 0 0 3.58-3.578v-4.576h4.56a3.58 3.58 0 0 0 3.58-3.579v-2.623a3.578 3.578 0 0 0-3.58-3.579h-4.56V5.194a3.579 3.579 0 0 0-3.58-3.578h-2.635a3.577 3.577 0 0 0-3.578 3.578v4.563H91.09a3.578 3.578 0 0 0-3.578 3.579v2.637zm-1.616 0v-2.636a5.2 5.2 0 0 1 5.194-5.195h2.947V5.194A5.2 5.2 0 0 1 99.233 0h2.635a5.2 5.2 0 0 1 5.195 5.194V8.14h2.946a5.2 5.2 0 0 1 5.195 5.195v2.623a5.2 5.2 0 0 1-5.195 5.195h-2.946v2.96a5.2 5.2 0 0 1-5.195 5.194h-2.635a5.2 5.2 0 0 1-5.195-5.194v-2.947h-2.947a5.2 5.2 0 0 1-5.194-5.194zm-58.521 33.58c0-2.107-1.52-3.946-3.759-3.946-2.319 0-3.705 1.787-3.705 3.892v.054c0 2.106 1.52 3.945 3.757 3.945 2.322 0 3.707-1.786 3.707-3.892v-.053zm3.999-.054v.054c0 4.104-3.306 7.437-7.758 7.437-4.425 0-7.704-3.28-7.704-7.384v-.053c0-4.106 3.306-7.438 7.756-7.438 4.426 0 7.706 3.28 7.706 7.384zm7.637 16.123a.358.358 0 0 0-.236.09c-.326.275-.645.428-1.118.428-.856 0-1.475-.71-1.475-1.584v-.013c0-.875.626-1.577 1.475-1.577.428 0 .76.153 1.066.402a.382.382 0 0 0 .237.077c.217 0 .39-.166.39-.383 0-.14-.07-.25-.154-.313-.39-.3-.843-.505-1.532-.505-1.354 0-2.306 1.04-2.306 2.312v.013c0 1.13.754 2.056 1.82 2.254l-.383.562a.257.257 0 0 0-.051.147c0 .134.294.28.447.28.134 0 .198-.063.25-.184l.324-.767c.652-.025 1.093-.243 1.489-.593a.377.377 0 0 0 .127-.281.373.373 0 0 0-.37-.365zm3.41-3.786c.078-.141.147-.205.294-.205.23 0 .57.256.92.256.339 0 .517-.211.652-.582a.646.646 0 0 0 .025-.146c0-.11-.108-.211-.236-.211-.096 0-.166.057-.21.127-.077.141-.148.205-.295.205-.23 0-.568-.256-.92-.256-.338 0-.517.211-.65.582a.648.648 0 0 0-.027.146c0 .109.11.211.237.211.102 0 .166-.058.21-.127zm1.476 3.18l-.785-1.808-.786 1.808h1.571zm1.373 1.264a.368.368 0 0 1-.326.543c-.185 0-.313-.109-.383-.274l-.364-.837h-2.171l-.377.862a.378.378 0 0 1-.364.249.36.36 0 0 1-.364-.364c0-.058.02-.115.051-.18l1.66-3.703c.09-.198.25-.319.473-.319h.039c.223 0 .377.121.466.32l1.66 3.703zM56.925 17.91H63.128v6.178c0 1.082.88 1.963 1.962 1.963h2.539c1.081 0 1.962-.88 1.962-1.963v-6.178h6.202c1.082 0 1.964-.881 1.964-1.963v-2.006H54.963v2.006c0 1.082.88 1.963 1.962 1.963zm-23.52 44.766v3.755c0 .217-.173.39-.39.39a.389.389 0 0 1-.396-.39v-3.755c0-.217.173-.389.396-.389.217 0 .39.172.39.39z" fill="url(#a)" fill-rule="evenodd"/></svg>