<svg xmlns="http://www.w3.org/2000/svg" width="21" height="24"><path fill="#E75A25" d="M17.75 14.4H2.7c-.32 0-.56.06-.74.16a.9.9 0 0 0-.38.4 1.48 1.48 0 0 0-.14.65c0 .42.12.87.35 1.3.75 1.42 2.13 2.8 3.65 3.83C7 21.8 8.7 22.5 10.03 22.56h.4c1.33-.05 3.02-.76 4.57-1.83 1.53-1.04 2.9-2.4 3.67-3.84a2.76 2.76 0 0 0 .34-1.3c0-.24-.03-.47-.12-.65a.9.9 0 0 0-.38-.4c-.2-.1-.43-.14-.75-.14zM2.7 12.97h15.05c.56 0 1.04.12 1.43.33.44.23.76.58.98 1 .2.4.3.84.3 1.3 0 .65-.2 1.34-.53 1.97-.88 1.64-2.42 3.2-4.12 4.35-1.75 1.2-3.7 2-5.32 2.08h-.51c-1.6-.07-3.58-.88-5.34-2.08-1.7-1.16-3.24-2.7-4.12-4.35C.18 16.94 0 16.25 0 15.6c0-.45.1-.9.3-1.3.2-.42.53-.76.98-1 .4-.2.86-.33 1.42-.33zM13.5 2.8a4.62 4.62 0 0 0-3.27-1.36A4.62 4.62 0 0 0 6.95 2.8a4.62 4.62 0 0 0-1.36 3.28c0 1.28.5 2.44 1.35 3.27a4.62 4.62 0 0 0 3.28 1.36c1.28 0 2.44-.5 3.27-1.35a4.62 4.62 0 0 0 1.36-3.27A4.62 4.62 0 0 0 13.5 2.8zM10.23 0c1.67 0 3.2.68 4.3 1.78a6.05 6.05 0 0 1 1.77 4.3c0 1.67-.68 3.2-1.78 4.3a6.06 6.06 0 0 1-4.3 1.77 6.06 6.06 0 0 1-4.3-1.78 6.06 6.06 0 0 1-1.77-4.3c0-1.67.68-3.2 1.78-4.3A6.05 6.05 0 0 1 10.23 0z"/></svg>