<svg width="142" height="29" xmlns="http://www.w3.org/2000/svg"><g fill="none" fill-rule="evenodd"><path d="M39.144 12.96c.032.08.064.192.064.304a.82.82 0 0 1-.816.816c-.352 0-.656-.224-.752-.512l-.672-1.776h-5.296L31 13.568a.826.826 0 0 1-.752.512.82.82 0 0 1-.816-.816c0-.096.032-.208.064-.304l3.52-8.816a1.397 1.397 0 0 1 1.296-.896c.608 0 1.104.384 1.312.896l3.52 8.816zM32.2 10.368h4.24L34.312 4.72 32.2 10.368zm19.168 3.712a.8.8 0 0 1-.784-.8V5.52l-3.36 8.256a.461.461 0 0 1-.432.304.433.433 0 0 1-.432-.304L43 5.52v7.76a.8.8 0 0 1-.784.8.816.816 0 0 1-.816-.8V4.576c0-.72.592-1.328 1.344-1.328.56 0 1.056.336 1.248.832l2.8 6.928 2.8-6.928a1.331 1.331 0 0 1 1.248-.832c.752 0 1.344.608 1.344 1.328v8.704c0 .432-.368.8-.816.8zm4.608-.08c-.56 0-.864-.304-.864-.848V4.176c0-.544.304-.848.864-.848h4.144c1.904 0 3.008 1.168 3.008 2.72 0 1.344-.88 2.24-1.856 2.448 1.136.176 2.064 1.328 2.064 2.624 0 1.68-1.12 2.88-3.088 2.88h-4.272zm.736-6.144h3.104c1.072 0 1.664-.672 1.664-1.552s-.592-1.568-1.664-1.568h-3.104v3.12zm0 4.736h3.184c1.12 0 1.792-.64 1.792-1.68 0-.88-.608-1.648-1.792-1.648h-3.184v3.328zm9.984 1.488a.816.816 0 0 1-.816-.8V4.048c0-.432.368-.8.816-.8a.8.8 0 0 1 .784.8v9.232a.8.8 0 0 1-.784.8zm4.592-.08c-.56 0-.864-.304-.864-.848V4.176c0-.544.304-.848.864-.848h5.664c.384 0 .72.32.72.72 0 .384-.336.688-.72.688h-4.928v3.12h4.816c.384 0 .72.304.72.688 0 .4-.336.72-.72.72h-4.816v3.328h4.928c.384 0 .72.304.72.688 0 .4-.336.72-.72.72h-5.664zm16.928.08c-.336 0-.624-.144-.8-.416l-5.664-7.856v7.472a.8.8 0 0 1-.784.8.816.816 0 0 1-.816-.8V4.304a1.055 1.055 0 0 1 1.904-.624l5.552 7.648v-7.28a.8.8 0 0 1 .784-.8c.448 0 .816.368.816.8v9.04a.997.997 0 0 1-.992.992zm7.328 0a.802.802 0 0 1-.8-.8V4.736h-2.688a.697.697 0 0 1-.704-.688c0-.4.32-.72.704-.72h6.96c.384 0 .72.32.72.72 0 .384-.336.688-.72.688h-2.672v8.544c0 .432-.368.8-.8.8zm7.184-.08c-.56 0-.864-.304-.864-.848V4.176c0-.544.304-.848.864-.848h5.664c.384 0 .72.32.72.72 0 .384-.336.688-.72.688h-4.928v3.12h4.816c.384 0 .72.304.72.688 0 .4-.336.72-.72.72h-4.816v3.328h4.928c.384 0 .72.304.72.688 0 .4-.336.72-.72.72h-5.664zM33.336 28.112c-.64 0-1.152-.528-1.152-1.136v-6.72l-1.152 1.2a.958.958 0 0 1-.672.288.946.946 0 0 1-.944-.944c0-.272.112-.496.272-.672l2.528-2.528c.24-.24.576-.384.944-.384.72 0 1.312.592 1.312 1.312v8.448a1.15 1.15 0 0 1-1.136 1.136zm3.296-5.44c0-2.752 1.36-5.504 4.416-5.504 3.04 0 4.416 2.752 4.416 5.504s-1.376 5.52-4.416 5.52c-3.056 0-4.416-2.768-4.416-5.52zm6.512 0c0-1.968-.576-3.488-2.096-3.488-1.536 0-2.112 1.52-2.112 3.488s.576 3.504 2.112 3.504c1.52 0 2.096-1.536 2.096-3.504zm3.968 0c0-2.752 1.36-5.504 4.416-5.504 3.04 0 4.416 2.752 4.416 5.504s-1.376 5.52-4.416 5.52c-3.056 0-4.416-2.768-4.416-5.52zm6.512 0c0-1.968-.576-3.488-2.096-3.488-1.536 0-2.112 1.52-2.112 3.488s.576 3.504 2.112 3.504c1.52 0 2.096-1.536 2.096-3.504zm6.544-.192c-1.632 0-2.704-1.136-2.704-2.624 0-1.504 1.072-2.688 2.704-2.688 1.648 0 2.72 1.184 2.72 2.688 0 1.488-1.072 2.624-2.72 2.624zm-.192 5.632a.516.516 0 0 1-.512-.512.47.47 0 0 1 .096-.272l6.288-9.872a.532.532 0 0 1 .448-.24c.288 0 .512.224.512.512a.54.54 0 0 1-.08.272l-6.32 9.872a.525.525 0 0 1-.432.24zm.192-6.752c.736 0 1.264-.576 1.264-1.504 0-.976-.528-1.536-1.264-1.536-.72 0-1.264.56-1.264 1.536 0 .928.544 1.504 1.264 1.504zm5.872 6.832c-1.632 0-2.704-1.152-2.704-2.64 0-1.504 1.072-2.688 2.704-2.688 1.632 0 2.72 1.184 2.72 2.688 0 1.488-1.088 2.64-2.72 2.64zm0-1.12c.736 0 1.28-.576 1.28-1.52 0-.976-.544-1.536-1.28-1.536s-1.264.56-1.264 1.536c0 .944.528 1.52 1.264 1.52zm9.424.048a1.057 1.057 0 0 1-.48-.88c0-.592.48-1.072 1.056-1.072.224 0 .432.064.608.192a4.595 4.595 0 0 0 2.688.848c1.248 0 1.856-.592 1.856-1.2 0-.8-.928-1.072-2.16-1.36-1.744-.4-3.984-.88-3.984-3.264 0-1.776 1.536-3.216 4.208-3.216 1.216 0 2.288.288 3.312.88.304.16.528.512.528.896 0 .576-.48 1.056-1.04 1.056a.992.992 0 0 1-.544-.16c-.832-.464-1.664-.688-2.416-.688-1.184 0-1.728.448-1.728 1.088 0 .72.896.944 2.128 1.232 1.76.4 4 .928 4 3.296 0 1.952-1.392 3.424-4.272 3.424-1.568 0-2.8-.4-3.76-1.072zm11.328.88c-.768 0-1.2-.432-1.2-1.216v-8.256c0-.768.432-1.2 1.2-1.2h5.472c.544 0 .992.432.992.992 0 .528-.448.96-.992.96h-4.4v2.32h4.288c.544 0 .992.448.992.976a.983.983 0 0 1-.992.976h-4.288v2.48h4.4c.544 0 .992.448.992.976a.997.997 0 0 1-.992.992h-5.472zm17.312-5.904c.656 0 1.088.448 1.088 1.104v2.128c0 .608-.144 1.072-.624 1.472-1.024.864-2.32 1.408-3.92 1.408-3.12 0-5.68-2.176-5.68-5.536 0-3.376 2.56-5.52 5.68-5.52 1.568 0 2.704.544 3.568 1.344.208.192.336.48.336.8 0 .576-.464 1.056-1.056 1.056-.272 0-.544-.112-.736-.304-.544-.528-1.264-.88-2.112-.88-1.936 0-3.344 1.488-3.344 3.504s1.408 3.504 3.344 3.504c1.024 0 1.84-.416 2.272-.816v-1.28h-1.952a.983.983 0 0 1-.992-.976c0-.544.448-1.008.992-1.008h3.136zm3.456 1.648v-5.376c0-.64.512-1.152 1.152-1.152.64 0 1.152.512 1.152 1.152v5.296c0 1.488.816 2.512 2.48 2.512 1.632 0 2.448-1.024 2.448-2.512v-5.296c0-.64.512-1.152 1.152-1.152.64 0 1.152.512 1.152 1.152v5.36c0 2.656-1.52 4.464-4.752 4.464-3.264 0-4.784-1.824-4.784-4.448zm18.752.112l1.808 2.464c.144.192.224.4.224.72 0 .544-.48 1.072-1.088 1.072-.4 0-.752-.208-.944-.48l-2.4-3.456h-1.872v2.8c0 .608-.496 1.136-1.12 1.136-.64 0-1.152-.528-1.152-1.136v-8.448c0-.768.432-1.2 1.2-1.2h3.792c2.224 0 3.584 1.456 3.584 3.44 0 1.712-.976 2.704-2.032 3.088zm-4.272-4.576v2.944h2.384c.912 0 1.6-.576 1.6-1.472s-.688-1.472-1.6-1.472h-2.384zm8.064 3.392c0-3.216 2.352-5.52 5.568-5.52 3.232 0 5.584 2.304 5.584 5.52 0 3.216-2.352 5.52-5.584 5.52-3.216 0-5.568-2.304-5.568-5.52zm8.816 0c0-2-1.28-3.504-3.248-3.504-1.968 0-3.232 1.504-3.232 3.504 0 1.984 1.264 3.504 3.232 3.504 1.968 0 3.248-1.52 3.248-3.504z" fill="#9B9B9B"/><path d="M6.142 6.667c0-2.205 1.731-4 3.858-4 2.126 0 3.857 1.795 3.857 4v1.334H6.142V6.667zm11.286 13.894v4.773H2.571V10.667h14.857v2.872L20 10.873V9.334c0-.736-.575-1.333-1.286-1.333h-2.286V6.667c0-3.676-2.884-6.666-6.428-6.666C6.455 0 3.57 2.99 3.57 6.667v1.334H1.285C.575 8 0 8.598 0 9.334v17.333c0 .736.576 1.334 1.285 1.334h17.429c.71 0 1.286-.598 1.286-1.334v-8.773l-2.572 2.667z" fill="#EA5227"/><path d="M24.56 10.418a1.556 1.556 0 0 0-2.123 0l-9.603 9.134-4.271-4.061a1.537 1.537 0 0 0-1.063-.418c-.383 0-.768.14-1.06.418a1.38 1.38 0 0 0 0 2.02l5.331 5.072a1.56 1.56 0 0 0 2.124 0L24.56 12.437a1.38 1.38 0 0 0 0-2.019z" fill="#EA5227"/></g></svg>