<svg width="1109" height="51" xmlns="http://www.w3.org/2000/svg"><g fill="none" fill-rule="evenodd"><path d="M33.915 35.121a.45.45 0 0 1-.444.446h-.11a6.864 6.864 0 0 0-6.316-4.232 6.864 6.864 0 0 0-6.316 4.232h-5.51a6.864 6.864 0 0 0-6.316-4.232 6.863 6.863 0 0 0-6.316 4.232h-.109a.45.45 0 0 1-.445-.446v-5.926c.144.027.292.04.445.04h18.993a2.482 2.482 0 0 0 2.478-2.482v-4.099l4.316-.06c.4.024 1.519.618 1.824 1.04l2.725 3.791c.7.974 1.101 2.22 1.101 3.42v4.276zM2.033 11.543a.45.45 0 0 1 .445-.446h18.993a.45.45 0 0 1 .445.446v15.046a.45.45 0 0 1-.445.446H2.478a.45.45 0 0 1-.445-.445V11.543zm32.431 14.692l-2.727-3.791c-.624-.868-2.351-1.897-3.5-1.886l-4.288.058v-9.073A2.482 2.482 0 0 0 21.47 9.06H2.478A2.483 2.483 0 0 0 0 11.543V26.59c0 .037.01.072.01.109 0 .019-.01.035-.01.054v8.368a2.482 2.482 0 0 0 2.478 2.482h.83c.454 0 .855-.302.978-.74a4.816 4.816 0 0 1 4.617-3.492 4.818 4.818 0 0 1 4.617 3.492c.123.438.523.74.978.74h6.953c.454 0 .853-.302.977-.74a4.818 4.818 0 0 1 4.617-3.492 4.818 4.818 0 0 1 4.617 3.492c.124.438.523.74.978.74h.83a2.482 2.482 0 0 0 2.478-2.482v-4.275a8.07 8.07 0 0 0-1.484-4.61z" fill="#F5A623"/><path d="M8.903 40.466a1.99 1.99 0 0 1 0-3.976 1.989 1.989 0 0 1 0 3.976m0-6.012a4.025 4.025 0 0 0 0 8.048 4.026 4.026 0 0 0 4.018-4.025 4.026 4.026 0 0 0-4.018-4.023M27.045 40.466a1.99 1.99 0 0 1 0-3.976 1.989 1.989 0 0 1 0 3.976m0-6.012a4.025 4.025 0 0 0 0 8.048 4.026 4.026 0 0 0 4.018-4.025 4.026 4.026 0 0 0-4.018-4.023M48.356 23a.946.946 0 0 1-.961-.961v-8.928c0-.543.418-.961.961-.961h6.308a.86.86 0 0 1 .853.852.85.85 0 0 1-.853.853h-5.363v2.821h4.666c.465 0 .852.388.852.868a.847.847 0 0 1-.852.837h-4.666v2.914h5.441a.86.86 0 0 1 .852.852.85.85 0 0 1-.852.853h-6.386zm9.207-.852v-6.48c0-.526.403-.945.93-.945a.94.94 0 0 1 .945.945v.404c.527-.76 1.287-1.426 2.558-1.426 1.844 0 2.914 1.24 2.914 3.13v4.372c0 .526-.403.93-.93.93a.926.926 0 0 1-.945-.93V18.35c0-1.271-.636-2-1.752-2-1.085 0-1.845.76-1.845 2.031v3.767c0 .526-.418.93-.945.93a.923.923 0 0 1-.93-.93zm12.353.992c-1.379 0-2.355-.605-2.355-2.403v-4.309h-.31a.8.8 0 0 1-.806-.806.8.8 0 0 1 .806-.806h.31v-1.395c0-.511.418-.93.945-.93.511 0 .93.418.93.93v1.395h1.472c.45 0 .822.356.822.806 0 .45-.372.806-.822.806h-1.472v4.014c0 .729.372 1.023 1.007 1.023.218 0 .404-.046.466-.046.418 0 .79.341.79.775 0 .341-.233.62-.496.729a3.73 3.73 0 0 1-1.287.217zm3.627-.992v-6.48c0-.526.403-.945.93-.945a.94.94 0 0 1 .946.945v.838c.434-1.024 1.24-1.799 2.062-1.799.589 0 .93.388.93.93a.88.88 0 0 1-.745.9c-1.332.232-2.247 1.255-2.247 3.193v2.418c0 .511-.418.93-.945.93a.923.923 0 0 1-.93-.93zm7.533-3.814h4.201c-.124-1.209-.837-2.154-2.077-2.154-1.147 0-1.953.884-2.124 2.154zm5.286 3.767c-.744.666-1.674 1.085-2.945 1.085-2.371 0-4.2-1.72-4.2-4.247v-.031c0-2.34 1.658-4.263 3.999-4.263 2.604 0 3.89 2.14 3.89 4.03a.877.877 0 0 1-.883.9h-5.131c.201 1.332 1.147 2.076 2.356 2.076.79 0 1.41-.279 1.938-.712a.698.698 0 0 1 .48-.171c.418 0 .744.325.744.76a.819.819 0 0 1-.248.573zm6.309 3.41a7.07 7.07 0 0 1-3.163-.729c-.325-.123-.526-.387-.526-.744a.79.79 0 0 1 1.131-.697 5.005 5.005 0 0 0 2.511.651c1.674 0 2.589-.868 2.589-2.511v-.636c-.682.884-1.535 1.504-2.883 1.504-1.922 0-3.72-1.426-3.72-3.829v-.03c0-2.418 1.813-3.844 3.72-3.844 1.379 0 2.231.635 2.867 1.395v-.388c0-.511.418-.93.93-.93a.94.94 0 0 1 .946.945v5.658c0 1.38-.357 2.402-1.039 3.084-.744.744-1.891 1.101-3.364 1.101zm.154-4.758c1.302 0 2.403-.915 2.403-2.248v-.031c0-1.333-1.1-2.247-2.402-2.247s-2.325.898-2.325 2.247v.031c0 1.333 1.038 2.248 2.325 2.248zm8.96 2.418c-1.535 0-2.899-.884-2.899-2.527v-.031c0-1.767 1.38-2.635 3.379-2.635.915 0 1.566.14 2.201.341v-.201c0-1.163-.713-1.783-2.03-1.783a4.86 4.86 0 0 0-1.814.325 1.053 1.053 0 0 1-.294.047.78.78 0 0 1-.791-.775c0-.341.232-.636.511-.744a7.015 7.015 0 0 1 2.635-.48c1.225 0 2.14.325 2.713.914.605.589.883 1.457.883 2.526v4.03a.893.893 0 0 1-.914.9c-.542 0-.914-.372-.914-.791v-.31c-.558.666-1.411 1.194-2.666 1.194zm.526-1.364c1.24 0 2.186-.713 2.186-1.752v-.558a5.2 5.2 0 0 0-1.86-.325c-1.209 0-1.922.511-1.922 1.363v.032c0 .79.697 1.24 1.596 1.24zm6.216.34V15.67c0-.527.403-.946.93-.946a.94.94 0 0 1 .946.945v.388c.526-.729 1.24-1.41 2.495-1.41 1.178 0 2.015.573 2.449 1.441.651-.868 1.519-1.441 2.759-1.441 1.782 0 2.868 1.131 2.868 3.13v4.372c0 .526-.404.93-.93.93a.926.926 0 0 1-.946-.93V18.35c0-1.302-.605-2-1.659-2-1.022 0-1.751.713-1.751 2.031v3.767c0 .526-.419.93-.93.93a.926.926 0 0 1-.945-.93v-3.814c0-1.27-.62-1.983-1.659-1.983-1.038 0-1.751.774-1.751 2.03v3.767c0 .526-.419.93-.946.93a.923.923 0 0 1-.93-.93zm18.615 1.039c-2.495 0-4.34-1.907-4.34-4.232v-.03c0-2.341 1.86-4.278 4.371-4.278 2.512 0 4.356 1.906 4.356 4.246v.032c0 2.325-1.86 4.262-4.386 4.262zm.032-1.643c1.518 0 2.48-1.178 2.48-2.588v-.031c0-1.442-1.039-2.636-2.511-2.636-1.504 0-2.465 1.178-2.465 2.604v.032c0 1.425 1.038 2.619 2.496 2.619zm9.067 1.612a5.593 5.593 0 0 1-3.116-.977c-.201-.108-.356-.34-.356-.65a.75.75 0 0 1 .76-.76c.155 0 .294.046.403.108.79.527 1.612.791 2.356.791.805 0 1.27-.341 1.27-.884v-.03c0-.636-.868-.853-1.828-1.148-1.21-.34-2.558-.837-2.558-2.402v-.031c0-1.55 1.286-2.495 2.914-2.495.868 0 1.782.248 2.573.666.264.14.45.387.45.713 0 .434-.341.76-.776.76a.736.736 0 0 1-.371-.093c-.667-.341-1.349-.558-1.922-.558-.729 0-1.147.34-1.147.806V17c0 .605.883.853 1.844 1.163 1.194.372 2.542.914 2.542 2.387v.031c0 1.72-1.333 2.573-3.038 2.573zm11.02-4.82h4.201c-.124-1.21-.837-2.155-2.077-2.155-1.147 0-1.953.884-2.123 2.154zm5.286 3.766c-.744.666-1.674 1.085-2.945 1.085-2.371 0-4.2-1.72-4.2-4.247v-.031c0-2.34 1.658-4.263 3.999-4.263 2.603 0 3.89 2.14 3.89 4.03a.877.877 0 0 1-.883.9h-5.131c.202 1.332 1.147 2.076 2.356 2.076.79 0 1.41-.279 1.938-.712a.698.698 0 0 1 .48-.171c.419 0 .744.325.744.76a.819.819 0 0 1-.248.573zm2.666.047v-6.48c0-.526.403-.945.93-.945a.94.94 0 0 1 .946.945v.388c.526-.729 1.24-1.41 2.495-1.41 1.178 0 2.015.573 2.449 1.441.651-.868 1.519-1.441 2.759-1.441 1.782 0 2.868 1.131 2.868 3.13v4.372c0 .526-.404.93-.93.93a.926.926 0 0 1-.946-.93V18.35c0-1.302-.605-2-1.659-2-1.023 0-1.751.713-1.751 2.031v3.767c0 .526-.418.93-.93.93a.926.926 0 0 1-.945-.93v-3.814c0-1.27-.62-1.983-1.659-1.983-1.038 0-1.751.774-1.751 2.03v3.767c0 .526-.419.93-.946.93a.923.923 0 0 1-.93-.93z" fill="#F5A623"/><path d="M51.731 41.171c-1.767 0-2.964-.703-2.964-3.059v-4.826h-.095a1.233 1.233 0 0 1-1.235-1.235c0-.684.551-1.235 1.235-1.235h.095v-1.273a1.443 1.443 0 1 1 2.888 0v1.273h1.273c.684 0 1.235.551 1.235 1.235s-.551 1.235-1.235 1.235h-1.273v4.351c0 .665.285.988.931.988.095 0 .285-.019.342-.019.646 0 1.197.532 1.197 1.197 0 .513-.342.931-.741 1.083-.532.209-1.026.285-1.653.285zm9.158.057c-3.154 0-5.491-2.337-5.491-5.263v-.038c0-2.926 2.356-5.301 5.529-5.301 3.154 0 5.491 2.337 5.491 5.263v.038c0 2.926-2.356 5.301-5.529 5.301zm.038-2.489c1.653 0 2.641-1.273 2.641-2.774v-.038c0-1.501-1.083-2.812-2.679-2.812-1.653 0-2.641 1.273-2.641 2.774v.038c0 1.501 1.083 2.812 2.679 2.812zM78.749 28.46v11.21a1.443 1.443 0 1 1-2.888 0v-.133c-.703.95-1.672 1.653-3.173 1.653-2.375 0-4.636-1.862-4.636-5.263v-.038c0-3.401 2.223-5.263 4.636-5.263 1.539 0 2.489.703 3.173 1.52V28.46a1.443 1.443 0 1 1 2.888 0zm-5.32 4.617c-1.349 0-2.489 1.102-2.489 2.812v.038c0 1.691 1.14 2.812 2.489 2.812s2.47-1.121 2.47-2.812v-.038c0-1.691-1.121-2.812-2.47-2.812zm12.901 8.151c-3.154 0-5.491-2.337-5.491-5.263v-.038c0-2.926 2.356-5.301 5.529-5.301 3.154 0 5.491 2.337 5.491 5.263v.038c0 2.926-2.356 5.301-5.529 5.301zm.038-2.489c1.653 0 2.641-1.273 2.641-2.774v-.038c0-1.501-1.083-2.812-2.679-2.812-1.653 0-2.641 1.273-2.641 2.774v.038c0 1.501 1.083 2.812 2.679 2.812zm18.278 2.489c-3.154 0-5.491-2.337-5.491-5.263v-.038c0-2.926 2.356-5.301 5.529-5.301 3.154 0 5.491 2.337 5.491 5.263v.038c0 2.926-2.356 5.301-5.529 5.301zm.038-2.489c1.653 0 2.641-1.273 2.641-2.774v-.038c0-1.501-1.083-2.812-2.679-2.812-1.653 0-2.641 1.273-2.641 2.774v.038c0 1.501 1.083 2.812 2.679 2.812zm13.585.798V29.163c0-.817.646-1.463 1.463-1.463h4.712c1.52 0 2.717.418 3.477 1.178.608.608.912 1.349.912 2.261v.038c0 1.501-.798 2.337-1.748 2.869 1.539.589 2.489 1.482 2.489 3.268v.038c0 2.432-1.976 3.648-4.978 3.648h-4.864a1.452 1.452 0 0 1-1.463-1.463zm2.85-6.46h2.698c1.292 0 2.109-.418 2.109-1.406v-.038c0-.874-.684-1.368-1.919-1.368h-2.888v2.812zm0 5.358h3.477c1.292 0 2.071-.456 2.071-1.444v-.038c0-.893-.665-1.444-2.166-1.444h-3.382v2.926zm10.564 1.235v-7.524a1.443 1.443 0 1 1 2.888 0v.456c.418-.988 1.102-1.9 1.957-1.9.893 0 1.406.589 1.406 1.406 0 .76-.494 1.216-1.083 1.349-1.463.342-2.28 1.463-2.28 3.515v2.698a1.443 1.443 0 1 1-2.888 0zm10.355 1.52c-1.919 0-3.496-1.102-3.496-3.116v-.038c0-2.223 1.691-3.249 4.104-3.249 1.026 0 1.767.171 2.489.418v-.171c0-1.197-.741-1.862-2.185-1.862-.798 0-1.444.114-1.995.285a1.222 1.222 0 0 1-.418.076 1.176 1.176 0 0 1-1.197-1.178c0-.513.323-.95.779-1.121.912-.342 1.9-.532 3.249-.532 1.577 0 2.717.418 3.439 1.14.76.76 1.102 1.881 1.102 3.249v4.636c0 .779-.627 1.387-1.406 1.387-.836 0-1.387-.589-1.387-1.197v-.019c-.703.779-1.672 1.292-3.078 1.292zm.874-1.995c1.349 0 2.261-.741 2.261-1.786v-.513a4.478 4.478 0 0 0-1.843-.38c-1.235 0-1.995.494-1.995 1.406v.038c0 .779.646 1.235 1.577 1.235zm11.058 1.995a7.097 7.097 0 0 1-3.838-1.159 1.15 1.15 0 0 1-.551-.988c0-.646.494-1.14 1.14-1.14.209 0 .418.057.57.152.969.608 1.938.912 2.755.912.836 0 1.216-.304 1.216-.76v-.038c0-.627-.988-.836-2.109-1.178-1.425-.418-3.04-1.083-3.04-3.059v-.038c0-2.071 1.672-3.23 3.724-3.23 1.064 0 2.166.285 3.154.779.418.209.684.589.684 1.083 0 .646-.513 1.14-1.159 1.14-.209 0-.342-.038-.532-.133-.817-.399-1.596-.646-2.204-.646-.703 0-1.064.304-1.064.703v.038c0 .57.969.836 2.071 1.216 1.425.475 3.078 1.159 3.078 3.021v.038c0 2.261-1.691 3.287-3.895 3.287zm5.928-12.768v-.038c0-.836.703-1.349 1.615-1.349s1.615.513 1.615 1.349v.038c0 .836-.703 1.368-1.615 1.368s-1.615-.532-1.615-1.368zm.171 11.248v-7.524a1.443 1.443 0 1 1 2.888 0v7.524a1.443 1.443 0 1 1-2.888 0zm5.738 0V28.46a1.443 1.443 0 1 1 2.888 0v11.21a1.443 1.443 0 1 1-2.888 0zM249.58 28.216c-1.746 0-2.952-.468-3.96-1.188a1.285 1.285 0 0 1-.558-1.062c0-.72.594-1.332 1.314-1.332.324 0 .54.09.756.252.774.558 1.512.81 2.394.81 1.17 0 2.034-.63 2.034-1.746v-.036c0-1.08-.918-1.71-2.232-1.71-1.062 0-1.53.324-1.908.324-.396 0-.702-.162-1.26-.558-.378-.27-.54-.648-.504-1.116l.252-4.266c.036-.666.558-1.188 1.224-1.188h5.472c.666 0 1.224.558 1.224 1.224 0 .666-.558 1.206-1.224 1.206h-4.248l-.144 2.178a6.163 6.163 0 0 1 1.656-.216c2.484 0 4.41 1.188 4.41 4.032v.036c0 2.664-1.926 4.356-4.698 4.356zm9.612-6.516c-1.818 0-3.042-1.422-3.042-3.186v-.036c0-1.782 1.242-3.222 3.078-3.222 1.818 0 3.042 1.422 3.042 3.186v.036c0 1.764-1.242 3.222-3.078 3.222zm-1.026 5.562c0-.234.09-.414.198-.576l8.046-11.016a.912.912 0 0 1 .738-.378c.468 0 .846.378.846.846a.893.893 0 0 1-.198.576L259.75 27.73a.912.912 0 0 1-.738.378.845.845 0 0 1-.846-.846zm8.766.882c-1.818 0-3.042-1.422-3.042-3.186v-.036c0-1.782 1.242-3.222 3.078-3.222 1.818 0 3.042 1.422 3.042 3.186v.036c0 1.764-1.242 3.222-3.078 3.222zm-7.704-8.082c.756 0 1.152-.738 1.152-1.548v-.036c0-.846-.468-1.584-1.188-1.584-.756 0-1.152.72-1.152 1.548v.036c0 .846.468 1.584 1.188 1.584zm7.74 6.444c.756 0 1.152-.738 1.152-1.548v-.036c0-.846-.468-1.584-1.188-1.584-.756 0-1.152.72-1.152 1.548v.036c0 .846.468 1.584 1.188 1.584zm20.178-10.386v10.62a1.367 1.367 0 1 1-2.736 0v-.126c-.666.9-1.584 1.566-3.006 1.566-2.25 0-4.392-1.764-4.392-4.986v-.036c0-3.222 2.106-4.986 4.392-4.986 1.458 0 2.358.666 3.006 1.44V16.12a1.367 1.367 0 1 1 2.736 0zm-5.04 4.374c-1.278 0-2.358 1.044-2.358 2.664v.036c0 1.602 1.08 2.664 2.358 2.664s2.34-1.062 2.34-2.664v-.036c0-1.602-1.062-2.664-2.34-2.664zm9.702 1.926h4.122c-.162-1.224-.882-2.052-2.034-2.052-1.134 0-1.872.81-2.088 2.052zm5.706 4.626c-.846.72-1.944 1.17-3.348 1.17-2.898 0-5.04-2.034-5.04-4.986v-.036c0-2.754 1.962-5.022 4.77-5.022 3.222 0 4.644 2.646 4.644 4.644 0 .792-.558 1.314-1.278 1.314h-5.418c.27 1.242 1.134 1.89 2.358 1.89.756 0 1.386-.234 1.944-.648.198-.144.378-.216.666-.216.612 0 1.062.468 1.062 1.08 0 .36-.162.63-.36.81zM315.73 16.12v10.62a1.367 1.367 0 1 1-2.736 0v-.126c-.666.9-1.584 1.566-3.006 1.566-2.25 0-4.392-1.764-4.392-4.986v-.036c0-3.222 2.106-4.986 4.392-4.986 1.458 0 2.358.666 3.006 1.44V16.12a1.367 1.367 0 1 1 2.736 0zm-5.04 4.374c-1.278 0-2.358 1.044-2.358 2.664v.036c0 1.602 1.08 2.664 2.358 2.664s2.34-1.062 2.34-2.664v-.036c0-1.602-1.062-2.664-2.34-2.664zm9.702 1.926h4.122c-.162-1.224-.882-2.052-2.034-2.052-1.134 0-1.872.81-2.088 2.052zm5.706 4.626c-.846.72-1.944 1.17-3.348 1.17-2.898 0-5.04-2.034-5.04-4.986v-.036c0-2.754 1.962-5.022 4.77-5.022 3.222 0 4.644 2.646 4.644 4.644 0 .792-.558 1.314-1.278 1.314h-5.418c.27 1.242 1.134 1.89 2.358 1.89.756 0 1.386-.234 1.944-.648.198-.144.378-.216.666-.216.612 0 1.062.468 1.062 1.08 0 .36-.162.63-.36.81zm6.498 1.134a6.724 6.724 0 0 1-3.636-1.098 1.09 1.09 0 0 1-.522-.936c0-.612.468-1.08 1.08-1.08.198 0 .396.054.54.144.918.576 1.836.864 2.61.864.792 0 1.152-.288 1.152-.72v-.036c0-.594-.936-.792-1.998-1.116-1.35-.396-2.88-1.026-2.88-2.898v-.036c0-1.962 1.584-3.06 3.528-3.06 1.008 0 2.052.27 2.988.738.396.198.648.558.648 1.026 0 .612-.486 1.08-1.098 1.08a.998.998 0 0 1-.504-.126c-.774-.378-1.512-.612-2.088-.612-.666 0-1.008.288-1.008.666v.036c0 .54.918.792 1.962 1.152 1.35.45 2.916 1.098 2.916 2.862v.036c0 2.142-1.602 3.114-3.69 3.114zm10.206.036c-2.898 0-5.022-2.232-5.022-4.986v-.036c0-2.754 2.106-5.022 5.058-5.022 1.458 0 2.484.396 3.294 1.08.18.144.432.468.432.936a1.23 1.23 0 0 1-1.242 1.224c-.36 0-.63-.144-.792-.27-.486-.378-.99-.612-1.71-.612-1.368 0-2.34 1.206-2.34 2.628v.036c0 1.476.954 2.664 2.448 2.664.72 0 1.278-.252 1.8-.666.144-.108.414-.252.738-.252.648 0 1.152.522 1.152 1.17 0 .36-.162.648-.396.864-.81.738-1.836 1.242-3.42 1.242zm10.188 0c-2.988 0-5.202-2.214-5.202-4.986v-.036c0-2.772 2.232-5.022 5.238-5.022 2.988 0 5.202 2.214 5.202 4.986v.036c0 2.772-2.232 5.022-5.238 5.022zm.036-2.358c1.566 0 2.502-1.206 2.502-2.628v-.036c0-1.422-1.026-2.664-2.538-2.664-1.566 0-2.502 1.206-2.502 2.628v.036c0 1.422 1.026 2.664 2.538 2.664zm7.182.882v-7.128a1.367 1.367 0 1 1 2.736 0v.108c.63-.81 1.44-1.548 2.826-1.548 2.07 0 3.276 1.368 3.276 3.582v4.986a1.367 1.367 0 1 1-2.736 0v-4.122c0-1.296-.612-1.962-1.656-1.962s-1.71.666-1.71 1.962v4.122a1.367 1.367 0 1 1-2.736 0zm14.472 1.422c-1.674 0-2.808-.666-2.808-2.898v-4.572h-.09c-.648 0-1.17-.522-1.17-1.17 0-.648.522-1.17 1.17-1.17h.09v-1.206a1.367 1.367 0 1 1 2.736 0v1.206h1.206c.648 0 1.17.522 1.17 1.17 0 .648-.522 1.17-1.17 1.17h-1.206v4.122c0 .63.27.936.882.936.09 0 .27-.018.324-.018a1.14 1.14 0 0 1 1.134 1.134c0 .486-.324.882-.702 1.026-.504.198-.972.27-1.566.27zm8.676.054c-2.988 0-5.202-2.214-5.202-4.986v-.036c0-2.772 2.232-5.022 5.238-5.022 2.988 0 5.202 2.214 5.202 4.986v.036c0 2.772-2.232 5.022-5.238 5.022zm.036-2.358c1.566 0 2.502-1.206 2.502-2.628v-.036c0-1.422-1.026-2.664-2.538-2.664-1.566 0-2.502 1.206-2.502 2.628v.036c0 1.422 1.026 2.664 2.538 2.664z" fill="#E75B22"/><path d="M246.171 38.087h3.523c-.104-1.014-.702-1.807-1.742-1.807-.962 0-1.638.741-1.781 1.807zm4.433 3.159c-.624.559-1.404.91-2.47.91-1.989 0-3.523-1.443-3.523-3.562v-.026c0-1.963 1.391-3.575 3.354-3.575 2.184 0 3.263 1.794 3.263 3.38a.736.736 0 0 1-.741.754h-4.303c.169 1.118.962 1.742 1.976 1.742.663 0 1.183-.234 1.625-.598a.586.586 0 0 1 .403-.143.62.62 0 0 1 .624.637.687.687 0 0 1-.208.481zm2.236.039v-5.434c0-.442.338-.793.78-.793s.793.351.793.793v.325c.442-.611 1.04-1.183 2.093-1.183.988 0 1.69.481 2.054 1.209.546-.728 1.274-1.209 2.314-1.209 1.495 0 2.405.949 2.405 2.626v3.666c0 .442-.338.78-.78.78a.777.777 0 0 1-.793-.78V38.1c0-1.092-.507-1.677-1.391-1.677-.858 0-1.469.598-1.469 1.703v3.159c0 .442-.351.78-.78.78a.777.777 0 0 1-.793-.78v-3.198c0-1.066-.52-1.664-1.391-1.664s-1.469.65-1.469 1.703v3.159c0 .442-.351.78-.793.78a.774.774 0 0 1-.78-.78zm17.576-.013v-6.864l-.936.286a1.16 1.16 0 0 1-.286.039c-.377 0-.702-.312-.702-.676 0-.338.208-.598.533-.689l1.378-.442c.312-.091.546-.143.78-.143h.026a.78.78 0 0 1 .793.793v7.696a.788.788 0 0 1-.793.793.796.796 0 0 1-.793-.793zm3.458.13c0-.221.078-.39.221-.546l1.95-2.34-1.807-2.145c-.169-.208-.26-.39-.26-.598a.71.71 0 0 1 .728-.728c.312 0 .533.143.728.39l1.547 2.028 1.573-2.015c.182-.234.403-.403.676-.403.416 0 .741.299.741.689 0 .221-.091.377-.221.533l-1.859 2.223 1.924 2.275c.169.208.26.39.26.598a.71.71 0 0 1-.728.728c-.312 0-.533-.143-.728-.403l-1.664-2.145-1.664 2.145c-.182.221-.403.403-.689.403-.403 0-.728-.299-.728-.689zm11.713-.117v-5.434c0-.442.338-.793.78-.793s.793.351.793.793v.338c.442-.637 1.079-1.196 2.145-1.196 1.547 0 2.444 1.04 2.444 2.626v3.666c0 .442-.338.78-.78.78a.777.777 0 0 1-.793-.78V38.1c0-1.066-.533-1.677-1.469-1.677-.91 0-1.547.637-1.547 1.703v3.159c0 .442-.351.78-.793.78a.774.774 0 0 1-.78-.78zm11.323.871c-2.093 0-3.64-1.599-3.64-3.549v-.026c0-1.963 1.56-3.588 3.666-3.588s3.653 1.599 3.653 3.562v.026c0 1.95-1.56 3.575-3.679 3.575zm.026-1.378c1.274 0 2.08-.988 2.08-2.171v-.026c0-1.209-.871-2.21-2.106-2.21-1.261 0-2.067.988-2.067 2.184v.026c0 1.196.871 2.197 2.093 2.197zm12.324 1.378c-2.041 0-3.549-1.599-3.549-3.549v-.026c0-1.95 1.508-3.588 3.575-3.588 1.079 0 1.82.351 2.405.858a.746.746 0 0 1 .247.546.716.716 0 0 1-.728.715.802.802 0 0 1-.468-.156c-.403-.338-.845-.585-1.469-.585-1.144 0-1.989.988-1.989 2.184v.026c0 1.222.845 2.197 2.054 2.197.624 0 1.105-.247 1.534-.611a.684.684 0 0 1 .429-.169c.377 0 .676.312.676.689a.613.613 0 0 1-.221.494c-.611.585-1.352.975-2.496.975zm6.227-.013c-1.287 0-2.431-.741-2.431-2.119v-.026c0-1.482 1.157-2.21 2.834-2.21.767 0 1.313.117 1.846.286v-.169c0-.975-.598-1.495-1.703-1.495-.598 0-1.092.104-1.521.273a.883.883 0 0 1-.247.039.655.655 0 0 1-.663-.65c0-.286.195-.533.429-.624a5.884 5.884 0 0 1 2.21-.403c1.027 0 1.794.273 2.275.767.507.494.741 1.222.741 2.119v3.38a.75.75 0 0 1-.767.754c-.455 0-.767-.312-.767-.663v-.26c-.468.559-1.183 1.001-2.236 1.001zm.442-1.144c1.04 0 1.833-.598 1.833-1.469v-.468a4.36 4.36 0 0 0-1.56-.273c-1.014 0-1.612.429-1.612 1.144v.026c0 .663.585 1.04 1.339 1.04zm5.213.286v-5.434c0-.442.338-.793.78-.793s.793.351.793.793v.702c.364-.858 1.04-1.508 1.729-1.508.494 0 .78.325.78.78a.738.738 0 0 1-.624.754c-1.118.195-1.885 1.053-1.885 2.678v2.028c0 .429-.351.78-.793.78a.774.774 0 0 1-.78-.78zm7.67.832c-1.157 0-1.976-.507-1.976-2.015v-3.614h-.26a.671.671 0 0 1-.676-.676c0-.377.299-.676.676-.676h.26v-1.17c0-.429.351-.78.793-.78.429 0 .78.351.78.78v1.17h1.235c.377 0 .689.299.689.676a.682.682 0 0 1-.689.676h-1.235v3.367c0 .611.312.858.845.858.182 0 .338-.039.39-.039.351 0 .663.286.663.65 0 .286-.195.52-.416.611a3.13 3.13 0 0 1-1.079.182zm5.018.026c-1.287 0-2.431-.741-2.431-2.119v-.026c0-1.482 1.157-2.21 2.834-2.21.767 0 1.313.117 1.846.286v-.169c0-.975-.598-1.495-1.703-1.495-.598 0-1.092.104-1.521.273a.883.883 0 0 1-.247.039.655.655 0 0 1-.663-.65c0-.286.195-.533.429-.624a5.884 5.884 0 0 1 2.21-.403c1.027 0 1.794.273 2.275.767.507.494.741 1.222.741 2.119v3.38a.75.75 0 0 1-.767.754c-.455 0-.767-.312-.767-.663v-.26c-.468.559-1.183 1.001-2.236 1.001zm-.546-7.982c-.091.143-.221.26-.429.26-.26 0-.481-.208-.481-.429 0-.078.026-.208.052-.299.273-.754.637-1.183 1.326-1.183.715 0 1.404.52 1.872.52.299 0 .442-.13.598-.416.091-.143.234-.26.429-.26.26 0 .481.208.481.429 0 .078-.026.208-.052.299-.273.754-.637 1.183-1.326 1.183-.715 0-1.404-.52-1.872-.52-.299 0-.442.13-.598.416zm.988 6.838c1.04 0 1.833-.598 1.833-1.469v-.468a4.36 4.36 0 0 0-1.56-.273c-1.014 0-1.612.429-1.612 1.144v.026c0 .663.585 1.04 1.339 1.04zm8.476 1.157c-2.093 0-3.64-1.599-3.64-3.549v-.026c0-1.963 1.56-3.588 3.666-3.588s3.653 1.599 3.653 3.562v.026c0 1.95-1.56 3.575-3.679 3.575zm.026-1.378c1.274 0 2.08-.988 2.08-2.171v-.026c0-1.209-.871-2.21-2.106-2.21-1.261 0-2.067.988-2.067 2.184v.026c0 1.196.871 2.197 2.093 2.197zm15.899-7.553v8.06c0 .442-.351.78-.78.78a.777.777 0 0 1-.793-.78v-.429c-.507.715-1.222 1.287-2.34 1.287-1.612 0-3.185-1.287-3.185-3.562v-.026c0-2.275 1.547-3.562 3.185-3.562 1.131 0 1.846.559 2.34 1.209v-2.977c0-.442.351-.78.78-.78.442 0 .793.338.793.78zm-3.536 3.133c-1.079 0-1.976.832-1.976 2.197v.026c0 1.326.91 2.197 1.976 2.197 1.053 0 1.989-.884 1.989-2.197v-.026c0-1.326-.936-2.197-1.989-2.197zm6.695 1.729h3.523c-.104-1.014-.702-1.807-1.742-1.807-.962 0-1.638.741-1.781 1.807zm4.433 3.159c-.624.559-1.404.91-2.47.91-1.989 0-3.523-1.443-3.523-3.562v-.026c0-1.963 1.391-3.575 3.354-3.575 2.184 0 3.263 1.794 3.263 3.38a.736.736 0 0 1-.741.754h-4.303c.169 1.118.962 1.742 1.976 1.742.663 0 1.183-.234 1.625-.598a.586.586 0 0 1 .403-.143.62.62 0 0 1 .624.637.687.687 0 0 1-.208.481zm9.308.91c-2.041 0-3.549-1.599-3.549-3.549v-.026c0-1.95 1.508-3.588 3.575-3.588 1.079 0 1.82.351 2.405.858a.746.746 0 0 1 .247.546.716.716 0 0 1-.728.715.802.802 0 0 1-.468-.156c-.403-.338-.845-.585-1.469-.585-1.144 0-1.989.988-1.989 2.184v.026c0 1.222.845 2.197 2.054 2.197.624 0 1.105-.247 1.534-.611a.684.684 0 0 1 .429-.169c.377 0 .676.312.676.689a.613.613 0 0 1-.221.494c-.611.585-1.352.975-2.496.975zm4.251-.871v-5.434c0-.442.338-.793.78-.793s.793.351.793.793v.702c.364-.858 1.04-1.508 1.729-1.508.494 0 .78.325.78.78a.738.738 0 0 1-.624.754c-1.118.195-1.885 1.053-1.885 2.678v2.028c0 .429-.351.78-.793.78a.774.774 0 0 1-.78-.78zm8.047-6.955c-.221 0-.39-.104-.39-.273 0-.091.052-.208.104-.286l.741-1.144c.143-.234.351-.377.624-.377.416 0 .936.26.936.507 0 .143-.091.273-.221.39l-.871.832c-.312.286-.559.351-.923.351zm-1.729 3.757h3.523c-.104-1.014-.702-1.807-1.742-1.807-.962 0-1.638.741-1.781 1.807zm4.433 3.159c-.624.559-1.404.91-2.47.91-1.989 0-3.523-1.443-3.523-3.562v-.026c0-1.963 1.391-3.575 3.354-3.575 2.184 0 3.263 1.794 3.263 3.38a.736.736 0 0 1-.741.754h-4.303c.169 1.118.962 1.742 1.976 1.742.663 0 1.183-.234 1.625-.598a.586.586 0 0 1 .403-.143.62.62 0 0 1 .624.637.687.687 0 0 1-.208.481zm8.983-8.021v8.06c0 .442-.351.78-.78.78a.777.777 0 0 1-.793-.78v-.429c-.507.715-1.222 1.287-2.34 1.287-1.612 0-3.185-1.287-3.185-3.562v-.026c0-2.275 1.547-3.562 3.185-3.562 1.131 0 1.846.559 2.34 1.209v-2.977c0-.442.351-.78.78-.78.442 0 .793.338.793.78zm-3.536 3.133c-1.079 0-1.976.832-1.976 2.197v.026c0 1.326.91 2.197 1.976 2.197 1.053 0 1.989-.884 1.989-2.197v-.026c0-1.326-.936-2.197-1.989-2.197zm5.486-2.99v-.078c0-.468.39-.767.897-.767s.897.299.897.767v.078c0 .468-.39.78-.897.78s-.897-.312-.897-.78zm.117 7.917v-5.434c0-.442.338-.793.78-.793s.793.351.793.793v5.434c0 .442-.351.78-.793.78a.774.774 0 0 1-.78-.78zm5.928.832c-1.157 0-1.976-.507-1.976-2.015v-3.614h-.26a.671.671 0 0 1-.676-.676c0-.377.299-.676.676-.676h.26v-1.17c0-.429.351-.78.793-.78.429 0 .78.351.78.78v1.17h1.235c.377 0 .689.299.689.676a.682.682 0 0 1-.689.676h-1.235v3.367c0 .611.312.858.845.858.182 0 .338-.039.39-.039.351 0 .663.286.663.65 0 .286-.195.52-.416.611a3.13 3.13 0 0 1-1.079.182zm6.11.039c-2.093 0-3.64-1.599-3.64-3.549v-.026c0-1.963 1.56-3.588 3.666-3.588s3.653 1.599 3.653 3.562v.026c0 1.95-1.56 3.575-3.679 3.575zm.026-1.378c1.274 0 2.08-.988 2.08-2.171v-.026c0-1.209-.871-2.21-2.106-2.21-1.261 0-2.067.988-2.067 2.184v.026c0 1.196.871 2.197 2.093 2.197z" fill="#F5A623"/><path d="M236.268 26c0-.523-.265-1.026-1.044-2.085-.347-.473-.445-.61-.602-.847-.314-.476-.529-.893-.66-1.338-.195-.702-.188-1.311-.065-2.515.141-1.381.124-1.89-.115-2.314-.239-.426-.688-.71-1.903-1.26-1.19-.538-1.687-.813-2.197-1.323s-.785-1.007-1.317-2.183c-.556-1.229-.84-1.678-1.287-1.93-.375-.225-.879-.242-2.18-.11l-.18.018c-1.13.112-1.766.114-2.46-.079-.433-.127-.85-.342-1.326-.656a18.182 18.182 0 0 1-.847-.602c-1.06-.779-1.562-1.044-2.085-1.044-.523 0-1.026.265-2.085 1.044-.473.347-.61.445-.847.602-.476.314-.893.529-1.338.66-.702.195-1.311.188-2.515.065-1.381-.141-1.89-.124-2.314.115-.426.239-.71.688-1.26 1.903-.538 1.19-.813 1.687-1.323 2.197s-1.007.785-2.183 1.317c-1.229.556-1.678.84-1.93 1.287-.225.375-.242.879-.11 2.18l.018.18c.112 1.13.114 1.766-.079 2.46-.127.433-.342.85-.656 1.326-.157.237-.255.374-.602.847-.779 1.06-1.044 1.562-1.044 2.085 0 .523.265 1.026 1.044 2.085.347.473.445.61.602.847.314.476.529.893.66 1.338.195.702.188 1.311.065 2.515-.141 1.381-.124 1.89.115 2.314.239.426.688.71 1.903 1.26 1.19.538 1.687.813 2.197 1.323s.785 1.007 1.317 2.183c.556 1.229.84 1.678 1.287 1.93.375.225.879.242 2.18.11l.18-.018c1.13-.112 1.766-.114 2.46.079.433.127.85.342 1.326.656.237.157.374.255.847.602 1.06.779 1.562 1.044 2.085 1.044.523 0 1.026-.265 2.085-1.044.473-.347.61-.445.847-.602.476-.314.893-.529 1.338-.66.702-.195 1.311-.188 2.515-.065 1.381.141 1.89.124 2.314-.115.426-.239.71-.688 1.26-1.903.538-1.19.813-1.687 1.323-2.197s1.007-.785 2.183-1.317c1.229-.556 1.678-.84 1.93-1.287.225-.375.242-.879.11-2.18l-.018-.18c-.112-1.13-.114-1.766.079-2.46.127-.433.342-.85.656-1.326.157-.237.255-.374.602-.847.779-1.06 1.044-1.562 1.044-2.085zM238 26c0 1.03-.379 1.748-1.38 3.11-.328.447-.419.573-.553.776-.228.345-.37.62-.436.848-.114.408-.112.89-.02 1.813l.017.176c.173 1.705.148 2.419-.337 3.225-.491.875-1.129 1.278-2.698 1.988-.99.448-1.38.664-1.686.97-.307.307-.523.697-.965 1.673-.716 1.583-1.12 2.22-1.994 2.712-.858.483-1.585.508-3.255.337-1.072-.11-1.537-.114-1.947 0-.24.07-.515.211-.86.439-.203.134-.33.225-.775.553C219.748 45.62 219.03 46 218 46c-1.03 0-1.748-.379-3.11-1.38a17.063 17.063 0 0 0-.776-.553c-.345-.228-.62-.37-.848-.436-.408-.114-.89-.112-1.813-.02l-.176.017c-1.705.173-2.419.148-3.225-.337-.875-.491-1.278-1.129-1.988-2.698-.448-.99-.664-1.38-.97-1.686-.307-.307-.697-.523-1.673-.965-1.583-.716-2.22-1.12-2.712-1.994-.483-.858-.508-1.585-.337-3.255.11-1.072.114-1.537 0-1.947-.07-.24-.211-.515-.439-.86-.134-.203-.225-.33-.553-.775C198.38 27.748 198 27.03 198 26c0-1.03.379-1.748 1.38-3.11.328-.447.419-.573.553-.776.228-.345.37-.62.436-.848.114-.408.112-.89.02-1.813l-.017-.176c-.173-1.705-.148-2.419.337-3.225.491-.875 1.129-1.278 2.698-1.988.99-.448 1.38-.664 1.686-.97.307-.307.523-.697.965-1.673.716-1.583 1.12-2.22 1.994-2.712.858-.483 1.585-.508 3.255-.337 1.072.11 1.537.114 1.947 0 .24-.07.515-.211.86-.439.203-.134.33-.225.775-.553C216.252 6.38 216.97 6 218 6c1.03 0 1.748.379 3.11 1.38.447.328.573.419.776.553.345.228.62.37.848.436.408.114.89.112 1.813.02l.176-.017c1.705-.173 2.419-.148 3.225.337.875.491 1.278 1.129 1.988 2.698.448.99.664 1.38.97 1.686.307.307.697.523 1.673.965 1.583.716 2.22 1.12 2.712 1.994.483.858.508 1.585.337 3.255-.11 1.072-.114 1.537 0 1.947.07.24.211.515.439.86.134.203.225.33.553.775C237.62 24.252 238 24.97 238 26zm-25.022-.78a3.55 3.55 0 1 1 0-7.099 3.55 3.55 0 0 1 0 7.1zm0-1.73a1.818 1.818 0 1 0 0-3.637 1.818 1.818 0 0 0 0 3.636zm9.264 11.341a3.55 3.55 0 1 1 0-7.1 3.55 3.55 0 0 1 0 7.1zm0-1.731a1.818 1.818 0 1 0 0-3.637 1.818 1.818 0 0 0 0 3.637zm.944-13.424a.866.866 0 0 1 1.23 1.22l-12.122 12.208a.866.866 0 1 1-1.229-1.22l12.121-12.208z" fill="#F5A623" fill-rule="nonzero"/><path d="M709.705 15.935V8.63h-2.22a1.07 1.07 0 0 1-1.065-1.065c0-.585.48-1.065 1.065-1.065h6.75c.585 0 1.065.48 1.065 1.065a1.07 1.07 0 0 1-1.065 1.065h-2.22v7.305c0 .645-.51 1.155-1.155 1.155s-1.155-.51-1.155-1.155zm8.43 1.065c-.645 0-1.155-.51-1.155-1.155v-8.19c0-.645.51-1.155 1.155-1.155h5.82c.57 0 1.035.465 1.035 1.035 0 .57-.465 1.02-1.035 1.02h-4.68v2.13h4.005c.57 0 1.035.465 1.035 1.035 0 .57-.465 1.02-1.035 1.02h-4.005v2.205h4.755c.57 0 1.035.465 1.035 1.035 0 .57-.465 1.02-1.035 1.02h-5.895zm8.895-1.155v-8.28c0-.645.51-1.155 1.155-1.155s1.155.51 1.155 1.155V14.9h4.275c.585 0 1.05.465 1.05 1.05S734.2 17 733.615 17h-5.43c-.645 0-1.155-.51-1.155-1.155zM737.47 17c-.645 0-1.155-.51-1.155-1.155v-8.19c0-.645.51-1.155 1.155-1.155h5.82c.57 0 1.035.465 1.035 1.035 0 .57-.465 1.02-1.035 1.02h-4.68v2.13h4.005c.57 0 1.035.465 1.035 1.035 0 .57-.465 1.02-1.035 1.02h-4.005v2.205h4.755c.57 0 1.035.465 1.035 1.035 0 .57-.465 1.02-1.035 1.02h-5.895zm13.005.165c-.63 0-1.065-.345-1.305-.915l-3.405-8.145a1.437 1.437 0 0 1-.135-.555c0-.645.51-1.14 1.155-1.14.6 0 .99.345 1.17.81l2.625 6.795 2.655-6.87c.15-.375.555-.735 1.11-.735.63 0 1.14.48 1.14 1.11 0 .18-.06.375-.12.51l-3.435 8.22c-.24.57-.675.915-1.305.915h-.15zM758.41 17c-.645 0-1.155-.51-1.155-1.155v-8.19c0-.645.51-1.155 1.155-1.155h5.82c.57 0 1.035.465 1.035 1.035 0 .57-.465 1.02-1.035 1.02h-4.68v2.13h4.005c.57 0 1.035.465 1.035 1.035 0 .57-.465 1.02-1.035 1.02h-4.005v2.205h4.755c.57 0 1.035.465 1.035 1.035 0 .57-.465 1.02-1.035 1.02h-5.895zm8.895-1.05V7.595c0-.645.51-1.155 1.155-1.155h.24c.555 0 .885.27 1.2.675l4.455 5.85V7.55a1.14 1.14 0 1 1 2.28 0v8.355c0 .645-.51 1.155-1.155 1.155h-.075c-.555 0-.885-.27-1.2-.675l-4.62-6.06v5.625a1.14 1.14 0 1 1-2.28 0zm11.85-.105v-8.19c0-.645.51-1.155 1.155-1.155h2.94c3.3 0 5.58 2.265 5.58 5.22v.03c0 2.955-2.28 5.25-5.58 5.25h-2.94c-.645 0-1.155-.51-1.155-1.155zm2.31-.93h1.785c1.89 0 3.165-1.275 3.165-3.135v-.03c0-1.86-1.275-3.165-3.165-3.165h-1.785v6.33zm8.25 1.095c0-.165.06-.33.135-.495l3.66-8.265c.255-.57.72-.915 1.35-.915h.135c.63 0 1.08.345 1.335.915l3.66 8.265c.075.165.12.315.12.465 0 .615-.48 1.11-1.095 1.11-.54 0-.9-.315-1.11-.795l-.705-1.65h-4.62l-.735 1.725c-.195.45-.585.72-1.065.72-.6 0-1.065-.48-1.065-1.08zm3.72-3.405h2.91L794.89 9.14l-1.455 3.465zm12.15 4.545c-1.38 0-2.775-.42-3.945-1.26a1.079 1.079 0 0 1-.435-.87c0-.6.48-1.065 1.08-1.065.3 0 .51.105.66.21.795.585 1.665.945 2.685.945.945 0 1.515-.375 1.515-.99v-.03c0-.585-.36-.885-2.115-1.335-2.115-.54-3.48-1.125-3.48-3.21v-.03c0-1.905 1.53-3.165 3.675-3.165 1.275 0 2.385.33 3.33.93.255.15.51.465.51.915 0 .6-.48 1.065-1.08 1.065-.225 0-.405-.06-.585-.165-.765-.45-1.485-.705-2.205-.705-.885 0-1.35.405-1.35.915v.03c0 .69.45.915 2.265 1.38 2.13.555 3.33 1.32 3.33 3.15v.03c0 2.085-1.59 3.255-3.855 3.255z" fill="#F5A623"/><path d="M710.128 32.596a.947.947 0 0 1-.432-.096c-1.968-1.188-2.988-2.76-2.988-4.944s1.02-3.756 2.988-4.944a.947.947 0 0 1 .432-.096c.36 0 .696.372.696.744 0 .288-.132.48-.3.6-1.392 1.044-2.004 2.112-2.004 3.696 0 1.596.612 2.652 2.004 3.696.168.12.3.312.3.6 0 .372-.336.744-.696.744zm3.348-2.436v-5.808l-.648.168a1.51 1.51 0 0 1-.324.048.81.81 0 0 1-.804-.792c0-.372.24-.684.612-.792l1.188-.348c.348-.096.612-.156.864-.156h.024c.504 0 .912.408.912.912v6.768a.912.912 0 1 1-1.824 0zm5.064 0v-5.808l-.648.168a1.51 1.51 0 0 1-.324.048.81.81 0 0 1-.804-.792c0-.372.24-.684.612-.792l1.188-.348c.348-.096.612-.156.864-.156h.024c.504 0 .912.408.912.912v6.768a.912.912 0 1 1-1.824 0zm4.14 2.436c-.36 0-.696-.372-.696-.744 0-.288.132-.48.3-.6 1.392-1.044 2.004-2.112 2.004-3.696 0-1.596-.612-2.652-2.004-3.696a.704.704 0 0 1-.3-.6c0-.372.336-.744.696-.744.204 0 .372.06.432.096 1.968 1.188 2.988 2.76 2.988 4.944s-1.02 3.756-2.988 4.944a.947.947 0 0 1-.432.096zm12.504-2.4v-1.008h-3.456c-.492 0-.9-.36-.9-.852 0-.384.156-.684.432-1.008l3.648-4.236c.348-.408.612-.624 1.152-.624.492 0 .888.384.888.876v4.344h.444c.42 0 .756.336.756.756s-.336.744-.756.744h-.444v1.008a.876.876 0 0 1-.888.876.866.866 0 0 1-.876-.876zm-2.232-2.508h2.232v-2.616l-2.232 2.616zm9.228 3.456c-.936 0-1.596-.216-2.22-.6a.877.877 0 0 1-.432-.756c0-.48.396-.84.876-.84.18 0 .336.06.48.144.432.252.816.372 1.344.372 1.032 0 1.584-.78 1.704-1.908-.408.348-.972.576-1.704.576-1.824 0-3-1.008-3-2.712v-.024c0-1.692 1.308-2.94 3.204-2.94 1.128 0 1.788.276 2.424.912.6.6.996 1.512.996 3.168v.024c0 2.724-1.284 4.584-3.672 4.584zm.348-4.548c.912 0 1.44-.528 1.44-1.248v-.024c0-.744-.552-1.284-1.476-1.284-.912 0-1.428.528-1.428 1.272v.024c0 .744.552 1.26 1.464 1.26zm7.596 4.548c-.936 0-1.596-.216-2.22-.6a.878.878 0 0 1-.432-.756c0-.48.396-.84.876-.84.18 0 .336.06.48.144.432.252.816.372 1.344.372 1.032 0 1.584-.78 1.704-1.908-.408.348-.972.576-1.704.576-1.824 0-3-1.008-3-2.712v-.024c0-1.692 1.308-2.94 3.204-2.94 1.128 0 1.788.276 2.424.912.6.6.996 1.512.996 3.168v.024c0 2.724-1.284 4.584-3.672 4.584zm.348-4.548c.912 0 1.44-.528 1.44-1.248v-.024c0-.744-.552-1.284-1.476-1.284-.912 0-1.428.528-1.428 1.272v.024c0 .744.552 1.26 1.464 1.26zm8.748 3.6v-1.008h-3.456c-.492 0-.9-.36-.9-.852 0-.384.156-.684.432-1.008l3.648-4.236c.348-.408.612-.624 1.152-.624.492 0 .888.384.888.876v4.344h.444c.42 0 .756.336.756.756s-.336.744-.756.744h-.444v1.008a.876.876 0 0 1-.888.876.866.866 0 0 1-.876-.876zm-2.232-2.508h2.232v-2.616l-2.232 2.616zm7.128.468a.88.88 0 0 1-.876-.876.88.88 0 0 1 .876-.876h2.088a.88.88 0 0 1 .876.876.88.88 0 0 1-.876.876h-2.088zm7.104 2.988c-1.2 0-2.1-.372-2.784-.96a.911.911 0 0 1-.312-.66c0-.48.408-.888.888-.888.264 0 .444.108.588.228.48.408.984.624 1.644.624.696 0 1.188-.396 1.188-1.02v-.024c0-.684-.612-1.068-1.644-1.068h-.288a.799.799 0 0 1-.792-.792c0-.252.108-.468.396-.756l1.632-1.644h-2.58a.799.799 0 0 1-.792-.792c0-.432.36-.792.792-.792h4.092c.54 0 .936.312.936.816 0 .456-.216.708-.552 1.032l-1.644 1.572c1.14.192 2.256.792 2.256 2.352v.024c0 1.584-1.152 2.748-3.024 2.748zm7.38 0c-1.164 0-1.968-.312-2.64-.792a.857.857 0 0 1-.372-.708c0-.48.396-.888.876-.888.216 0 .36.06.504.168.516.372 1.008.54 1.596.54.78 0 1.356-.42 1.356-1.164v-.024c0-.72-.612-1.14-1.488-1.14-.708 0-1.02.216-1.272.216-.264 0-.468-.108-.84-.372-.252-.18-.36-.432-.336-.744l.168-2.844a.82.82 0 0 1 .816-.792h3.648c.444 0 .816.372.816.816a.814.814 0 0 1-.816.804h-2.832l-.096 1.452a4.109 4.109 0 0 1 1.104-.144c1.656 0 2.94.792 2.94 2.688v.024c0 1.776-1.284 2.904-3.132 2.904zm7.56 0c-1.164 0-1.968-.312-2.64-.792a.857.857 0 0 1-.372-.708c0-.48.396-.888.876-.888.216 0 .36.06.504.168.516.372 1.008.54 1.596.54.78 0 1.356-.42 1.356-1.164v-.024c0-.72-.612-1.14-1.488-1.14-.708 0-1.02.216-1.272.216-.264 0-.468-.108-.84-.372-.252-.18-.36-.432-.336-.744l.168-2.844a.82.82 0 0 1 .816-.792h3.648c.444 0 .816.372.816.816a.814.814 0 0 1-.816.804h-2.832l-.096 1.452a4.109 4.109 0 0 1 1.104-.144c1.656 0 2.94.792 2.94 2.688v.024c0 1.776-1.284 2.904-3.132 2.904zm7.56 0c-1.164 0-1.968-.312-2.64-.792a.857.857 0 0 1-.372-.708c0-.48.396-.888.876-.888.216 0 .36.06.504.168.516.372 1.008.54 1.596.54.78 0 1.356-.42 1.356-1.164v-.024c0-.72-.612-1.14-1.488-1.14-.708 0-1.02.216-1.272.216-.264 0-.468-.108-.84-.372-.252-.18-.36-.432-.336-.744l.168-2.844a.82.82 0 0 1 .816-.792h3.648c.444 0 .816.372.816.816a.814.814 0 0 1-.816.804h-2.832l-.096 1.452a4.109 4.109 0 0 1 1.104-.144c1.656 0 2.94.792 2.94 2.688v.024c0 1.776-1.284 2.904-3.132 2.904zm10.808-.048c-1.744 0-2.944-1.224-2.944-2.88V28.2c0-1.592 1.24-2.896 2.936-2.896.848 0 1.408.192 1.912.544a.608.608 0 1 1-.728.976 1.96 1.96 0 0 0-1.224-.384c-.896 0-1.608.792-1.608 1.744v.016c0 1.024.704 1.776 1.696 1.776.448 0 .848-.112 1.16-.336v-.8h-.832a.53.53 0 0 1-.536-.528c0-.296.24-.536.536-.536h1.408c.344 0 .616.272.616.616v1.36c0 .36-.136.608-.432.784-.456.28-1.12.56-1.96.56zm3.576-.664v-4.416c0-.344.272-.616.616-.616h1.944c.712 0 1.264.2 1.632.568.312.312.48.752.48 1.28v.016c0 .88-.44 1.424-1.12 1.704l.856 1.04c.12.152.2.28.2.472a.573.573 0 0 1-.584.568c-.28 0-.464-.136-.608-.32l-1.2-1.52h-.984v1.224a.611.611 0 0 1-.616.616.611.611 0 0 1-.616-.616zm1.232-2.312h1.248c.6 0 .944-.32.944-.792v-.016c0-.528-.368-.8-.968-.8h-1.224v1.608zm4.168 2.352c0-.088.032-.176.072-.264l1.952-4.408c.136-.304.384-.488.72-.488h.072c.336 0 .576.184.712.488l1.952 4.408a.6.6 0 0 1 .064.248.584.584 0 0 1-.584.592c-.288 0-.48-.168-.592-.424l-.376-.88h-2.464l-.392.92a.605.605 0 0 1-.568.384.567.567 0 0 1-.568-.576zm1.984-1.816h1.552l-.776-1.848-.776 1.848zm4.528 1.784v-4.456c0-.344.272-.616.616-.616h.128c.296 0 .472.144.64.36l2.376 3.12V25.96a.608.608 0 1 1 1.216 0v4.456a.611.611 0 0 1-.616.616h-.04c-.296 0-.472-.144-.64-.36l-2.464-3.232v3a.608.608 0 1 1-1.216 0zm6.32-.056v-4.368c0-.344.272-.616.616-.616h1.568c1.76 0 2.976 1.208 2.976 2.784v.016c0 1.576-1.216 2.8-2.976 2.8h-1.568a.611.611 0 0 1-.616-.616zm1.232-.496h.952c1.008 0 1.688-.68 1.688-1.672V28.2c0-.992-.68-1.688-1.688-1.688h-.952v3.376zm5.64 1.112a.611.611 0 0 1-.616-.616v-4.368c0-.344.272-.616.616-.616h3.104c.304 0 .552.248.552.552a.546.546 0 0 1-.552.544h-2.496v1.136h2.136c.304 0 .552.248.552.552a.546.546 0 0 1-.552.544h-2.136v1.176h2.536c.304 0 .552.248.552.552a.546.546 0 0 1-.552.544h-3.144zm9.136.08c-.736 0-1.48-.224-2.104-.672a.575.575 0 0 1-.232-.464c0-.32.256-.568.576-.568.16 0 .272.056.352.112.424.312.888.504 1.432.504.504 0 .808-.2.808-.528v-.016c0-.312-.192-.472-1.128-.712-1.128-.288-1.856-.6-1.856-1.712v-.016c0-1.016.816-1.688 1.96-1.688.68 0 1.272.176 1.776.496.136.08.272.248.272.488 0 .32-.256.568-.576.568a.591.591 0 0 1-.312-.088c-.408-.24-.792-.376-1.176-.376-.472 0-.72.216-.72.488v.016c0 .368.24.488 1.208.736 1.136.296 1.776.704 1.776 1.68v.016c0 1.112-.848 1.736-2.056 1.736zm2.704-.608c0-.088.032-.176.072-.264l1.952-4.408c.136-.304.384-.488.72-.488h.072c.336 0 .576.184.712.488l1.952 4.408a.6.6 0 0 1 .064.248.584.584 0 0 1-.584.592c-.288 0-.48-.168-.592-.424l-.376-.88h-2.464l-.392.92a.605.605 0 0 1-.568.384.567.567 0 0 1-.568-.576zm1.984-1.816h1.552l-.776-1.848-.776 1.848zm-.096-3.856a.36.36 0 0 1-.312.184c-.192 0-.36-.16-.36-.328a.73.73 0 0 1 .04-.216c.176-.464.408-.784.896-.784.496 0 .912.312 1.2.312.192 0 .28-.072.376-.232a.36.36 0 0 1 .312-.184c.192 0 .36.16.36.328a.73.73 0 0 1-.04.216c-.176.464-.408.784-.896.784-.496 0-.912-.312-1.2-.312-.192 0-.28.072-.376.232zm7.144 6.296c-1.728 0-2.968-1.288-2.968-2.88V28.2c0-1.592 1.256-2.896 2.984-2.896s2.968 1.288 2.968 2.88v.016c0 1.592-1.256 2.896-2.984 2.896zm.016-1.136c.992 0 1.68-.784 1.68-1.744V28.2c0-.96-.704-1.76-1.696-1.76s-1.68.784-1.68 1.744v.016c0 .96.704 1.76 1.696 1.76zm6.464.472v-4.416c0-.344.272-.616.616-.616h1.672c1.336 0 2.144.792 2.144 1.936v.016c0 1.296-1.008 1.968-2.264 1.968h-.936v1.112a.611.611 0 0 1-.616.616.611.611 0 0 1-.616-.616zm1.232-2.208h.976c.616 0 .976-.368.976-.848v-.016c0-.552-.384-.848-1-.848h-.952v1.712zm3.328 2.248c0-.088.032-.176.072-.264l1.952-4.408c.136-.304.384-.488.72-.488h.072c.336 0 .576.184.712.488l1.952 4.408a.6.6 0 0 1 .064.248.584.584 0 0 1-.584.592c-.288 0-.48-.168-.592-.424l-.376-.88h-2.464l-.392.92a.605.605 0 0 1-.568.384.567.567 0 0 1-.568-.576zm1.984-1.816h1.552l-.776-1.848-.776 1.848zm6.744 2.432c-1.504 0-2.424-.84-2.424-2.488v-2.632c0-.344.272-.616.616-.616s.616.272.616.616v2.6c0 .912.456 1.384 1.208 1.384s1.208-.456 1.208-1.344v-2.64c0-.344.272-.616.616-.616s.616.272.616.616v2.592c0 1.696-.952 2.528-2.456 2.528zm3.712-.704v-4.416c0-.344.272-.616.616-.616s.616.272.616.616v3.912h2.28c.312 0 .56.248.56.56 0 .312-.248.56-.56.56h-2.896a.611.611 0 0 1-.616-.616zm7.352.712c-1.728 0-2.968-1.288-2.968-2.88V28.2c0-1.592 1.256-2.896 2.984-2.896s2.968 1.288 2.968 2.88v.016c0 1.592-1.256 2.896-2.984 2.896zm.016-1.136c.992 0 1.68-.784 1.68-1.744V28.2c0-.96-.704-1.76-1.696-1.76s-1.68.784-1.68 1.744v.016c0 .96.704 1.76 1.696 1.76zm-174.56 16.184c-2.244 0-3.72-1.884-3.72-4.32V41.8c0-2.436 1.512-4.344 3.744-4.344 2.22 0 3.72 1.884 3.72 4.32v.024c0 2.436-1.5 4.344-3.744 4.344zm.024-1.668c1.116 0 1.824-1.128 1.824-2.652V41.8c0-1.524-.744-2.676-1.848-2.676s-1.824 1.116-1.824 2.652v.024c0 1.536.732 2.676 1.848 2.676zm8.148 1.644c-1.86 0-3.24-.96-3.24-2.424v-.024c0-1.02.468-1.62 1.356-2.028-.648-.396-1.068-.936-1.068-1.836v-.024c0-1.284 1.176-2.304 2.952-2.304s2.952 1.008 2.952 2.304v.024c0 .9-.42 1.44-1.068 1.836.852.444 1.356.984 1.356 1.98v.024c0 1.56-1.38 2.472-3.24 2.472zm0-5.088c.732 0 1.2-.432 1.2-1.02v-.024c0-.516-.444-.984-1.2-.984s-1.2.456-1.2.972V40c0 .588.468 1.032 1.2 1.032zm0 3.564c.912 0 1.452-.456 1.452-1.044v-.024c0-.648-.612-1.032-1.452-1.032s-1.452.384-1.452 1.032v.024c0 .576.54 1.044 1.452 1.044zm8.148 1.548c-2.244 0-3.72-1.884-3.72-4.32V41.8c0-2.436 1.512-4.344 3.744-4.344 2.22 0 3.72 1.884 3.72 4.32v.024c0 2.436-1.5 4.344-3.744 4.344zm.024-1.668c1.116 0 1.824-1.128 1.824-2.652V41.8c0-1.524-.744-2.676-1.848-2.676s-1.824 1.116-1.824 2.652v.024c0 1.536.732 2.676 1.848 2.676zm8.736 1.668c-2.244 0-3.72-1.884-3.72-4.32V41.8c0-2.436 1.512-4.344 3.744-4.344 2.22 0 3.72 1.884 3.72 4.32v.024c0 2.436-1.5 4.344-3.744 4.344zm.024-1.668c1.116 0 1.824-1.128 1.824-2.652V41.8c0-1.524-.744-2.676-1.848-2.676s-1.824 1.116-1.824 2.652v.024c0 1.536.732 2.676 1.848 2.676zm9.444.768c0-.156.072-.408.168-.576l3.12-5.472h-3.216a.794.794 0 0 1-.804-.792c0-.444.36-.804.804-.804h4.56c.516 0 .84.3.84.828 0 .276-.108.612-.264.9l-3.372 6.12c-.24.444-.528.624-.888.624-.492 0-.948-.3-.948-.828zm7.428 0c0-.156.072-.408.168-.576l3.12-5.472h-3.216a.794.794 0 0 1-.804-.792c0-.444.36-.804.804-.804h4.56c.516 0 .84.3.84.828 0 .276-.108.612-.264.9l-3.372 6.12c-.24.444-.528.624-.888.624-.492 0-.948-.3-.948-.828zm9.444.9c-1.2 0-2.1-.372-2.784-.96a.911.911 0 0 1-.312-.66c0-.48.408-.888.888-.888.264 0 .444.108.588.228.48.408.984.624 1.644.624.696 0 1.188-.396 1.188-1.02v-.024c0-.684-.612-1.068-1.644-1.068h-.288a.799.799 0 0 1-.792-.792c0-.252.108-.468.396-.756l1.632-1.644h-2.58a.799.799 0 0 1-.792-.792c0-.432.36-.792.792-.792h4.092c.54 0 .936.312.936.816 0 .456-.216.708-.552 1.032l-1.644 1.572c1.14.192 2.256.792 2.256 2.352v.024c0 1.584-1.152 2.748-3.024 2.748zm11.04 0c-1.164 0-1.968-.312-2.64-.792a.857.857 0 0 1-.372-.708c0-.48.396-.888.876-.888.216 0 .36.06.504.168.516.372 1.008.54 1.596.54.78 0 1.356-.42 1.356-1.164v-.024c0-.72-.612-1.14-1.488-1.14-.708 0-1.02.216-1.272.216-.264 0-.468-.108-.84-.372-.252-.18-.36-.432-.336-.744l.168-2.844a.82.82 0 0 1 .816-.792h3.648c.444 0 .816.372.816.816a.814.814 0 0 1-.816.804h-2.832l-.096 1.452a4.109 4.109 0 0 1 1.104-.144c1.656 0 2.94.792 2.94 2.688v.024c0 1.776-1.284 2.904-3.132 2.904zm7.512 0c-1.2 0-2.1-.372-2.784-.96a.911.911 0 0 1-.312-.66c0-.48.408-.888.888-.888.264 0 .444.108.588.228.48.408.984.624 1.644.624.696 0 1.188-.396 1.188-1.02v-.024c0-.684-.612-1.068-1.644-1.068h-.288a.799.799 0 0 1-.792-.792c0-.252.108-.468.396-.756l1.632-1.644h-2.58a.799.799 0 0 1-.792-.792c0-.432.36-.792.792-.792h4.092c.54 0 .936.312.936.816 0 .456-.216.708-.552 1.032l-1.644 1.572c1.14.192 2.256.792 2.256 2.352v.024c0 1.584-1.152 2.748-3.024 2.748zm7.38 0c-1.164 0-1.968-.312-2.64-.792a.857.857 0 0 1-.372-.708c0-.48.396-.888.876-.888.216 0 .36.06.504.168.516.372 1.008.54 1.596.54.78 0 1.356-.42 1.356-1.164v-.024c0-.72-.612-1.14-1.488-1.14-.708 0-1.02.216-1.272.216-.264 0-.468-.108-.84-.372-.252-.18-.36-.432-.336-.744l.168-2.844a.82.82 0 0 1 .816-.792h3.648c.444 0 .816.372.816.816a.814.814 0 0 1-.816.804h-2.832l-.096 1.452a4.109 4.109 0 0 1 1.104-.144c1.656 0 2.94.792 2.94 2.688v.024c0 1.776-1.284 2.904-3.132 2.904zm7.56 0c-1.164 0-1.968-.312-2.64-.792a.857.857 0 0 1-.372-.708c0-.48.396-.888.876-.888.216 0 .36.06.504.168.516.372 1.008.54 1.596.54.78 0 1.356-.42 1.356-1.164v-.024c0-.72-.612-1.14-1.488-1.14-.708 0-1.02.216-1.272.216-.264 0-.468-.108-.84-.372-.252-.18-.36-.432-.336-.744l.168-2.844a.82.82 0 0 1 .816-.792h3.648c.444 0 .816.372.816.816a.814.814 0 0 1-.816.804h-2.832l-.096 1.452a4.109 4.109 0 0 1 1.104-.144c1.656 0 2.94.792 2.94 2.688v.024c0 1.776-1.284 2.904-3.132 2.904zm10.832-.048c-1.728 0-2.968-1.288-2.968-2.88V43.2c0-1.592 1.256-2.896 2.984-2.896s2.968 1.288 2.968 2.88v.016c0 1.592-1.256 2.896-2.984 2.896zm.016-1.136c.992 0 1.68-.784 1.68-1.744V43.2c0-.96-.704-1.76-1.696-1.76s-1.68.784-1.68 1.744v.016c0 .96.704 1.76 1.696 1.76zm6.4 1.128c-1.504 0-2.424-.84-2.424-2.488v-2.632c0-.344.272-.616.616-.616s.616.272.616.616v2.6c0 .912.456 1.384 1.208 1.384s1.208-.456 1.208-1.344v-2.64c0-.344.272-.616.616-.616s.616.272.616.616v2.592c0 1.696-.952 2.528-2.456 2.528zm5.016-.656v-3.896h-1.184a.57.57 0 0 1-.568-.568.57.57 0 0 1 .568-.568h3.6a.57.57 0 0 1 .568.568.57.57 0 0 1-.568.568h-1.184v3.896a.611.611 0 0 1-.616.616.611.611 0 0 1-.616-.616zm3.88 0v-4.416c0-.344.272-.616.616-.616h1.944c.712 0 1.264.2 1.632.568.312.312.48.752.48 1.28v.016c0 .88-.44 1.424-1.12 1.704l.856 1.04c.12.152.2.28.2.472a.573.573 0 0 1-.584.568c-.28 0-.464-.136-.608-.32l-1.2-1.52h-.984v1.224a.611.611 0 0 1-.616.616.611.611 0 0 1-.616-.616zm1.232-2.312h1.248c.6 0 .944-.32.944-.792v-.016c0-.528-.368-.8-.968-.8h-1.224v1.608zm4.168 2.352c0-.088.032-.176.072-.264l1.952-4.408c.136-.304.384-.488.72-.488h.072c.336 0 .576.184.712.488l1.952 4.408a.6.6 0 0 1 .064.248.584.584 0 0 1-.584.592c-.288 0-.48-.168-.592-.424l-.376-.88h-2.464l-.392.92a.605.605 0 0 1-.568.384.567.567 0 0 1-.568-.576zm1.984-1.816h1.552l-.776-1.848-.776 1.848zm6.48 2.424c-.736 0-1.48-.224-2.104-.672a.575.575 0 0 1-.232-.464c0-.32.256-.568.576-.568.16 0 .272.056.352.112.424.312.888.504 1.432.504.504 0 .808-.2.808-.528v-.016c0-.312-.192-.472-1.128-.712-1.128-.288-1.856-.6-1.856-1.712v-.016c0-1.016.816-1.688 1.96-1.688.68 0 1.272.176 1.776.496.136.08.272.248.272.488 0 .32-.256.568-.576.568a.591.591 0 0 1-.312-.088c-.408-.24-.792-.376-1.176-.376-.472 0-.72.216-.72.488v.016c0 .368.24.488 1.208.736 1.136.296 1.776.704 1.776 1.68v.016c0 1.112-.848 1.736-2.056 1.736zm5.528-.648v-4.416c0-.344.272-.616.616-.616h1.944c.712 0 1.264.2 1.632.568.312.312.48.752.48 1.28v.016c0 .88-.44 1.424-1.12 1.704l.856 1.04c.12.152.2.28.2.472a.573.573 0 0 1-.584.568c-.28 0-.464-.136-.608-.32l-1.2-1.52h-.984v1.224a.611.611 0 0 1-.616.616.611.611 0 0 1-.616-.616zm1.232-2.312h1.248c.6 0 .944-.32.944-.792v-.016c0-.528-.368-.8-.968-.8h-1.224v1.608zm5.168 2.88a.611.611 0 0 1-.616-.616v-4.368c0-.344.272-.616.616-.616h3.104c.304 0 .552.248.552.552a.546.546 0 0 1-.552.544h-2.496v1.136h2.136c.304 0 .552.248.552.552a.546.546 0 0 1-.552.544h-2.136v1.176h2.536c.304 0 .552.248.552.552a.546.546 0 0 1-.552.544h-3.144zm7.44.096c-1.744 0-2.944-1.224-2.944-2.88V43.2c0-1.592 1.24-2.896 2.936-2.896.848 0 1.408.192 1.912.544a.608.608 0 1 1-.728.976 1.96 1.96 0 0 0-1.224-.384c-.896 0-1.608.792-1.608 1.744v.016c0 1.024.704 1.776 1.696 1.776.448 0 .848-.112 1.16-.336v-.8h-.832a.53.53 0 0 1-.536-.528c0-.296.24-.536.536-.536h1.408c.344 0 .616.272.616.616v1.36c0 .36-.136.608-.432.784-.456.28-1.12.56-1.96.56zm3.632-.664v-4.464c0-.344.272-.616.616-.616s.616.272.616.616v4.464a.611.611 0 0 1-.616.616.611.611 0 0 1-.616-.616zm5.352.664c-1.728 0-2.968-1.288-2.968-2.88V43.2c0-1.592 1.256-2.896 2.984-2.896s2.968 1.288 2.968 2.88v.016c0 1.592-1.256 2.896-2.984 2.896zm.016-1.136c.992 0 1.68-.784 1.68-1.744V43.2c0-.96-.704-1.76-1.696-1.76s-1.68.784-1.68 1.744v.016c0 .96.704 1.76 1.696 1.76zm-.888-5.16a.36.36 0 0 1-.312.184c-.192 0-.36-.16-.36-.328a.73.73 0 0 1 .04-.216c.176-.464.408-.784.896-.784.496 0 .912.312 1.2.312.192 0 .28-.072.376-.232a.36.36 0 0 1 .312-.184c.192 0 .36.16.36.328a.73.73 0 0 1-.04.216c-.176.464-.408.784-.896.784-.496 0-.912-.312-1.2-.312-.192 0-.28.072-.376.232zm5.568 6.2a.611.611 0 0 1-.616-.616v-4.368c0-.344.272-.616.616-.616h3.104c.304 0 .552.248.552.552a.546.546 0 0 1-.552.544h-2.496v1.136h2.136c.304 0 .552.248.552.552a.546.546 0 0 1-.552.544h-2.136v1.176h2.536c.304 0 .552.248.552.552a.546.546 0 0 1-.552.544h-3.144zm6.736.08c-.736 0-1.48-.224-2.104-.672a.575.575 0 0 1-.232-.464c0-.32.256-.568.576-.568.16 0 .272.056.352.112.424.312.888.504 1.432.504.504 0 .808-.2.808-.528v-.016c0-.312-.192-.472-1.128-.712-1.128-.288-1.856-.6-1.856-1.712v-.016c0-1.016.816-1.688 1.96-1.688.68 0 1.272.176 1.776.496.136.08.272.248.272.488 0 .32-.256.568-.576.568a.591.591 0 0 1-.312-.088c-.408-.24-.792-.376-1.176-.376-.472 0-.72.216-.72.488v.016c0 .368.24.488 1.208.736 1.136.296 1.776.704 1.776 1.68v.016c0 1.112-.848 1.736-2.056 1.736z" fill="#E75B22"/><path d="M688.727 24.182a.96.96 0 0 0 .947-.81 7.974 7.974 0 0 0-.235-3.491 8.113 8.113 0 0 0-2.053-3.457c-1.034-1.024-2.27-1.674-3.576-1.881a5.549 5.549 0 0 0-2.453.156.96.96 0 1 0 .545 1.84 3.613 3.613 0 0 1 1.607-.1c.906.144 1.78.61 2.526 1.349a6.26 6.26 0 0 1 1.563 2.638c.26.873.32 1.763.18 2.646a.96.96 0 0 0 .95 1.11zm1.421 10.738l-4.87-6.357-2.1 1.609 4.871 6.357 2.1-1.61zm-7.905-2.811c-.046.04-.08.089-.134.12-.602.359-1.293.529-2.03.529-2.16 0-4.722-1.462-6.646-3.972-2.58-3.367-3.04-7.354-1.068-9.273.045-.044.101-.064.152-.097l-4.04-5.273a.956.956 0 0 1-.33.199c-.119.074-.473.328-1.513 1.185-1.838 1.516-.27 7.926 4.92 14.699 5.222 6.817 10.987 9.995 12.9 8.585 1.146-.848 1.481-1.126 1.576-1.218a.956.956 0 0 1 .243-.224l-4.03-5.26zm-12.497-19.466L674.618 19l2.1-1.608-4.872-6.358-2.1 1.609zm21.99 21.193a1.8 1.8 0 0 1 .357 1.342c-.063.482-.31.909-.694 1.203l-2.265 1.736a1.812 1.812 0 0 1-1.102.373c-.113 0-.225-.017-.336-.037-.022.069-.033.14-.072.205-.153.257-.367.469-2.03 1.697-.647.478-1.43.708-2.312.708-3.509 0-8.618-3.622-13.252-9.67-5.663-7.39-7.648-14.848-4.618-17.348 1.667-1.374 1.95-1.533 2.342-1.571.047-.026.043-.057.048-.088.063-.482.31-.91.694-1.204l2.265-1.735a1.818 1.818 0 0 1 2.545.336l5 6.523a1.82 1.82 0 0 1-.338 2.546l-2.265 1.735a1.807 1.807 0 0 1-1.916.18c-.03.04-.046.086-.083.122-1.075 1.047-.902 3.917 1.253 6.729 2.156 2.813 4.883 3.726 6.171 2.962.043-.026.09-.03.135-.047a1.814 1.814 0 0 1 .664-1.821l2.265-1.736a1.82 1.82 0 0 1 2.546.337l4.998 6.523zm1.964-7.227a.96.96 0 0 1-.912-1.259 11.104 11.104 0 0 0-.006-6.924 11.588 11.588 0 0 0-2.6-4.38c-1.19-1.251-2.632-2.18-4.169-2.682-1.836-.601-3.716-.598-5.585.009a.96.96 0 0 1-.593-1.827 10.845 10.845 0 0 1 6.775-.006c1.84.6 3.554 1.702 4.963 3.183a13.5 13.5 0 0 1 3.035 5.11c.867 2.673.868 5.479.004 8.115a.959.959 0 0 1-.912.66zM959.54 16.01c0-.165.06-.33.135-.495l3.66-8.265c.255-.57.72-.915 1.35-.915h.135c.63 0 1.08.345 1.335.915l3.66 8.265c.075.165.12.315.12.465 0 .615-.48 1.11-1.095 1.11-.54 0-.9-.315-1.11-.795l-.705-1.65h-4.62l-.735 1.725c-.195.45-.585.72-1.065.72-.6 0-1.065-.48-1.065-1.08zm3.72-3.405h2.91l-1.455-3.465-1.455 3.465zm9.81 3.33V8.63h-2.22a1.07 1.07 0 0 1-1.065-1.065c0-.585.48-1.065 1.065-1.065h6.75c.585 0 1.065.48 1.065 1.065A1.07 1.07 0 0 1 977.6 8.63h-2.22v7.305c0 .645-.51 1.155-1.155 1.155s-1.155-.51-1.155-1.155zM981.5 17c-.645 0-1.155-.51-1.155-1.155v-8.19c0-.645.51-1.155 1.155-1.155h5.82c.57 0 1.035.465 1.035 1.035 0 .57-.465 1.02-1.035 1.02h-4.68v2.13h4.005c.57 0 1.035.465 1.035 1.035 0 .57-.465 1.02-1.035 1.02h-4.005v2.205h4.755c.57 0 1.035.465 1.035 1.035 0 .57-.465 1.02-1.035 1.02H981.5zm8.895-1.05V7.595c0-.645.51-1.155 1.155-1.155h.24c.555 0 .885.27 1.2.675l4.455 5.85V7.55a1.14 1.14 0 1 1 2.28 0v8.355c0 .645-.51 1.155-1.155 1.155h-.075c-.555 0-.885-.27-1.2-.675l-4.62-6.06v5.625a1.14 1.14 0 1 1-2.28 0zm11.85-.105v-8.19c0-.645.51-1.155 1.155-1.155h2.94c3.3 0 5.58 2.265 5.58 5.22v.03c0 2.955-2.28 5.25-5.58 5.25h-2.94c-.645 0-1.155-.51-1.155-1.155zm2.31-.93h1.785c1.89 0 3.165-1.275 3.165-3.135v-.03c0-1.86-1.275-3.165-3.165-3.165h-1.785v6.33zm9.525 1.02v-8.37c0-.645.51-1.155 1.155-1.155s1.155.51 1.155 1.155v8.37c0 .645-.51 1.155-1.155 1.155s-1.155-.51-1.155-1.155zm4.935.03v-8.37c0-.645.51-1.155 1.155-1.155h.255c.495 0 .84.255 1.05.6l2.79 4.545 2.805-4.56c.24-.39.57-.585 1.035-.585h.255c.645 0 1.155.51 1.155 1.155v8.34c0 .645-.51 1.155-1.155 1.155-.63 0-1.14-.525-1.14-1.155V10.7l-2.025 3.12c-.24.36-.54.585-.96.585-.42 0-.72-.225-.96-.585l-1.995-3.075v5.22c0 .63-.51 1.125-1.14 1.125-.63 0-1.125-.495-1.125-1.125zM1033.19 17c-.645 0-1.155-.51-1.155-1.155v-8.19c0-.645.51-1.155 1.155-1.155h5.82c.57 0 1.035.465 1.035 1.035 0 .57-.465 1.02-1.035 1.02h-4.68v2.13h4.005c.57 0 1.035.465 1.035 1.035 0 .57-.465 1.02-1.035 1.02h-4.005v2.205h4.755c.57 0 1.035.465 1.035 1.035 0 .57-.465 1.02-1.035 1.02h-5.895zm8.895-1.05V7.595c0-.645.51-1.155 1.155-1.155h.24c.555 0 .885.27 1.2.675l4.455 5.85V7.55a1.14 1.14 0 1 1 2.28 0v8.355c0 .645-.51 1.155-1.155 1.155h-.075c-.555 0-.885-.27-1.2-.675l-4.62-6.06v5.625a1.14 1.14 0 1 1-2.28 0zm14.295-.015V8.63h-2.22a1.07 1.07 0 0 1-1.065-1.065c0-.585.48-1.065 1.065-1.065h6.75c.585 0 1.065.48 1.065 1.065a1.07 1.07 0 0 1-1.065 1.065h-2.22v7.305c0 .645-.51 1.155-1.155 1.155s-1.155-.51-1.155-1.155zm11.925 1.245c-3.24 0-5.565-2.415-5.565-5.4v-.03c0-2.985 2.355-5.43 5.595-5.43 3.24 0 5.565 2.415 5.565 5.4v.03c0 2.985-2.355 5.43-5.595 5.43zm.03-2.13c1.86 0 3.15-1.47 3.15-3.27v-.03c0-1.8-1.32-3.3-3.18-3.3s-3.15 1.47-3.15 3.27v.03c0 1.8 1.32 3.3 3.18 3.3z" fill="#F5A623"/><path d="M960.008 30.076v-6.552c0-.516.408-.924.924-.924h2.352c2.64 0 4.464 1.812 4.464 4.176v.024c0 2.364-1.824 4.2-4.464 4.2h-2.352a.917.917 0 0 1-.924-.924zm1.848-.744h1.428c1.512 0 2.532-1.02 2.532-2.508V26.8c0-1.488-1.02-2.532-2.532-2.532h-1.428v5.064zm8.82-2.052h2.748c-.108-.816-.588-1.368-1.356-1.368-.756 0-1.248.54-1.392 1.368zm3.804 3.084c-.564.48-1.296.78-2.232.78-1.932 0-3.36-1.356-3.36-3.324v-.024c0-1.836 1.308-3.348 3.18-3.348 2.148 0 3.096 1.764 3.096 3.096 0 .528-.372.876-.852.876H970.7c.18.828.756 1.26 1.572 1.26.504 0 .924-.156 1.296-.432a.68.68 0 0 1 .444-.144c.408 0 .708.312.708.72 0 .24-.108.42-.24.54zm7.932.756a4.482 4.482 0 0 1-2.424-.732.727.727 0 0 1-.348-.624c0-.408.312-.72.72-.72a.7.7 0 0 1 .36.096c.612.384 1.224.576 1.74.576.528 0 .768-.192.768-.48v-.024c0-.396-.624-.528-1.332-.744-.9-.264-1.92-.684-1.92-1.932v-.024c0-1.308 1.056-2.04 2.352-2.04.672 0 1.368.18 1.992.492a.743.743 0 0 1 .432.684c0 .408-.324.72-.732.72a.666.666 0 0 1-.336-.084c-.516-.252-1.008-.408-1.392-.408-.444 0-.672.192-.672.444v.024c0 .36.612.528 1.308.768.9.3 1.944.732 1.944 1.908v.024c0 1.428-1.068 2.076-2.46 2.076zm5.244-3.84h2.748c-.108-.816-.588-1.368-1.356-1.368-.756 0-1.248.54-1.392 1.368zm3.804 3.084c-.564.48-1.296.78-2.232.78-1.932 0-3.36-1.356-3.36-3.324v-.024c0-1.836 1.308-3.348 3.18-3.348 2.148 0 3.096 1.764 3.096 3.096 0 .528-.372.876-.852.876h-3.612c.18.828.756 1.26 1.572 1.26.504 0 .924-.156 1.296-.432a.68.68 0 0 1 .444-.144c.408 0 .708.312.708.72 0 .24-.108.42-.24.54zm4.956 2.58a6.167 6.167 0 0 1-2.352-.444c-.312-.12-.516-.372-.516-.708a.748.748 0 0 1 1.044-.684c.528.24 1.092.384 1.776.384 1.248 0 1.836-.6 1.836-1.752v-.312c-.54.648-1.128 1.044-2.1 1.044-1.5 0-2.856-1.092-2.856-3v-.024c0-1.92 1.38-3 2.856-3 .996 0 1.584.42 2.076.96v-.012c0-.492.408-.9.912-.9s.912.408.912.912v4.14c0 1.152-.276 1.992-.816 2.532-.6.6-1.524.864-2.772.864zm.216-3.984c.888 0 1.572-.612 1.572-1.488v-.024c0-.876-.684-1.488-1.572-1.488s-1.56.612-1.56 1.488v.024c0 .888.672 1.488 1.56 1.488zm10.848-3.552v4.752a.912.912 0 1 1-1.824 0v-.072c-.42.54-.96 1.032-1.884 1.032-1.38 0-2.184-.912-2.184-2.388v-3.324a.912.912 0 1 1 1.824 0v2.748c0 .864.408 1.308 1.104 1.308.696 0 1.14-.444 1.14-1.308v-2.748a.912.912 0 1 1 1.824 0zm1.632 4.752v-4.752a.912.912 0 1 1 1.824 0v.072c.42-.54.96-1.032 1.884-1.032 1.38 0 2.184.912 2.184 2.388v3.324a.912.912 0 1 1-1.824 0v-2.748c0-.864-.408-1.308-1.104-1.308-.696 0-1.14.444-1.14 1.308v2.748a.912.912 0 1 1-1.824 0zm13.944-7.08v7.08a.912.912 0 1 1-1.824 0v-.084c-.444.6-1.056 1.044-2.004 1.044-1.5 0-2.928-1.176-2.928-3.324v-.024c0-2.148 1.404-3.324 2.928-3.324.972 0 1.572.444 2.004.96V23.08a.912.912 0 1 1 1.824 0zm-3.36 2.916c-.852 0-1.572.696-1.572 1.776v.024c0 1.068.72 1.776 1.572 1.776.852 0 1.56-.708 1.56-1.776v-.024c0-1.068-.708-1.776-1.56-1.776zm6.816 5.124c-1.212 0-2.208-.696-2.208-1.968v-.024c0-1.404 1.068-2.052 2.592-2.052a4.57 4.57 0 0 1 1.572.264v-.108c0-.756-.468-1.176-1.38-1.176-.504 0-.912.072-1.26.18a.772.772 0 0 1-.264.048.743.743 0 0 1-.756-.744c0-.324.204-.6.492-.708.576-.216 1.2-.336 2.052-.336.996 0 1.716.264 2.172.72.48.48.696 1.188.696 2.052v2.928a.876.876 0 0 1-.888.876c-.528 0-.876-.372-.876-.756v-.012c-.444.492-1.056.816-1.944.816zm.552-1.26c.852 0 1.428-.468 1.428-1.128v-.324a2.828 2.828 0 0 0-1.164-.24c-.78 0-1.26.312-1.26.888v.024c0 .492.408.78.996.78zm10.152 1.26c-1.212 0-2.208-.696-2.208-1.968v-.024c0-1.404 1.068-2.052 2.592-2.052a4.57 4.57 0 0 1 1.572.264v-.108c0-.756-.468-1.176-1.38-1.176-.504 0-.912.072-1.26.18a.772.772 0 0 1-.264.048.743.743 0 0 1-.756-.744c0-.324.204-.6.492-.708.576-.216 1.2-.336 2.052-.336.996 0 1.716.264 2.172.72.48.48.696 1.188.696 2.052v2.928a.876.876 0 0 1-.888.876c-.528 0-.876-.372-.876-.756v-.012c-.444.492-1.056.816-1.944.816zm.552-1.26c.852 0 1.428-.468 1.428-1.128v-.324a2.828 2.828 0 0 0-1.164-.24c-.78 0-1.26.312-1.26.888v.024c0 .492.408.78.996.78zm.432-5.928c-.408 0-.696-.072-1.044-.396l-.744-.696c-.144-.132-.24-.264-.24-.432 0-.276.576-.552 1.02-.552.3 0 .528.156.684.408l.66 1.032c.06.096.12.216.12.324 0 .192-.192.312-.456.312zm10.152 7.188a4.482 4.482 0 0 1-2.424-.732.727.727 0 0 1-.348-.624c0-.408.312-.72.72-.72a.7.7 0 0 1 .36.096c.612.384 1.224.576 1.74.576.528 0 .768-.192.768-.48v-.024c0-.396-.624-.528-1.332-.744-.9-.264-1.92-.684-1.92-1.932v-.024c0-1.308 1.056-2.04 2.352-2.04.672 0 1.368.18 1.992.492a.743.743 0 0 1 .432.684c0 .408-.324.72-.732.72a.666.666 0 0 1-.336-.084c-.516-.252-1.008-.408-1.392-.408-.444 0-.672.192-.672.444v.024c0 .36.612.528 1.308.768.9.3 1.944.732 1.944 1.908v.024c0 1.428-1.068 2.076-2.46 2.076zm5.244-3.84h2.748c-.108-.816-.588-1.368-1.356-1.368-.756 0-1.248.54-1.392 1.368zm3.804 3.084c-.564.48-1.296.78-2.232.78-1.932 0-3.36-1.356-3.36-3.324v-.024c0-1.836 1.308-3.348 3.18-3.348 2.148 0 3.096 1.764 3.096 3.096 0 .528-.372.876-.852.876h-3.612c.18.828.756 1.26 1.572 1.26.504 0 .924-.156 1.296-.432a.68.68 0 0 1 .444-.144c.408 0 .708.312.708.72 0 .24-.108.42-.24.54zm1.56-.06c0-.252.096-.444.252-.624l1.644-1.944-1.5-1.728c-.204-.24-.3-.456-.3-.696 0-.516.384-.84.84-.84.36 0 .612.168.852.468l1.188 1.584 1.212-1.584c.216-.264.468-.468.792-.468.48 0 .852.336.852.792 0 .252-.108.444-.252.624l-1.56 1.824 1.608 1.848c.204.24.3.456.3.696 0 .516-.384.84-.84.84-.36 0-.612-.168-.852-.468l-1.296-1.704-1.296 1.704c-.216.264-.468.468-.792.468-.48 0-.852-.336-.852-.792zm9.396.804c-1.116 0-1.872-.444-1.872-1.932v-3.048h-.06a.778.778 0 0 1-.78-.78c0-.432.348-.78.78-.78h.06v-.804a.912.912 0 1 1 1.824 0v.804h.804c.432 0 .78.348.78.78 0 .432-.348.78-.78.78h-.804v2.748c0 .42.18.624.588.624.06 0 .18-.012.216-.012a.76.76 0 0 1 .756.756.742.742 0 0 1-.468.684c-.336.132-.648.18-1.044.18zm4.632.012c-1.212 0-2.208-.696-2.208-1.968v-.024c0-1.404 1.068-2.052 2.592-2.052a4.57 4.57 0 0 1 1.572.264v-.108c0-.756-.468-1.176-1.38-1.176-.504 0-.912.072-1.26.18a.772.772 0 0 1-.264.048.743.743 0 0 1-.756-.744c0-.324.204-.6.492-.708.576-.216 1.2-.336 2.052-.336.996 0 1.716.264 2.172.72.48.48.696 1.188.696 2.052v2.928a.876.876 0 0 1-.888.876c-.528 0-.876-.372-.876-.756v-.012c-.444.492-1.056.816-1.944.816zm.552-1.26c.852 0 1.428-.468 1.428-1.128v-.324a2.828 2.828 0 0 0-1.164-.24c-.78 0-1.26.312-1.26.888v.024c0 .492.408.78.996.78zm5.316-1.704a.88.88 0 0 1-.876-.876.88.88 0 0 1 .876-.876h2.088a.88.88 0 0 1 .876.876.88.88 0 0 1-.876.876h-2.088zm4.62 2.004v-4.032h-.072a.743.743 0 0 1-.756-.744c0-.42.336-.756.756-.756h.072v-.408c0-.708.18-1.224.516-1.56.336-.336.828-.504 1.476-.504.288 0 .54.012.744.048a.742.742 0 0 1 .624.732.758.758 0 0 1-.744.756h-.156c-.42 0-.66.216-.66.696v.252h.792c.42 0 .756.324.756.744s-.336.744-.756.744h-.768v4.032a.912.912 0 1 1-1.824 0zm5.628-2.88h2.748c-.108-.816-.588-1.368-1.356-1.368-.756 0-1.248.54-1.392 1.368zm3.804 3.084c-.564.48-1.296.78-2.232.78-1.932 0-3.36-1.356-3.36-3.324v-.024c0-1.836 1.308-3.348 3.18-3.348 2.148 0 3.096 1.764 3.096 3.096 0 .528-.372.876-.852.876h-3.612c.18.828.756 1.26 1.572 1.26.504 0 .924-.156 1.296-.432a.68.68 0 0 1 .444-.144c.408 0 .708.312.708.72 0 .24-.108.42-.24.54zm2.052-7.308v-.024c0-.528.444-.852 1.02-.852.576 0 1.02.324 1.02.852v.024c0 .528-.444.864-1.02.864-.576 0-1.02-.336-1.02-.864zm.108 7.104v-4.752a.912.912 0 1 1 1.824 0v4.752a.912.912 0 1 1-1.824 0zm3.54 0v-4.752a.912.912 0 1 1 1.824 0v.288c.264-.624.696-1.2 1.236-1.2.564 0 .888.372.888.888 0 .48-.312.768-.684.852-.924.216-1.44.924-1.44 2.22v1.704a.912.912 0 1 1-1.824 0zm6.54.96c-1.212 0-2.208-.696-2.208-1.968v-.024c0-1.404 1.068-2.052 2.592-2.052a4.57 4.57 0 0 1 1.572.264v-.108c0-.756-.468-1.176-1.38-1.176-.504 0-.912.072-1.26.18a.772.772 0 0 1-.264.048.743.743 0 0 1-.756-.744c0-.324.204-.6.492-.708.576-.216 1.2-.336 2.052-.336.996 0 1.716.264 2.172.72.48.48.696 1.188.696 2.052v2.928a.876.876 0 0 1-.888.876c-.528 0-.876-.372-.876-.756v-.012c-.444.492-1.056.816-1.944.816zm.552-1.26c.852 0 1.428-.468 1.428-1.128v-.324a2.828 2.828 0 0 0-1.164-.24c-.78 0-1.26.312-1.26.888v.024c0 .492.408.78.996.78zm-139.416 8.22v7.08a.912.912 0 1 1-1.824 0v-.084c-.444.6-1.056 1.044-2.004 1.044-1.5 0-2.928-1.176-2.928-3.324v-.024c0-2.148 1.404-3.324 2.928-3.324.972 0 1.572.444 2.004.96V38.08a.912.912 0 1 1 1.824 0zm-3.36 2.916c-.852 0-1.572.696-1.572 1.776v.024c0 1.068.72 1.776 1.572 1.776.852 0 1.56-.708 1.56-1.776v-.024c0-1.068-.708-1.776-1.56-1.776zm6.816 5.124c-1.212 0-2.208-.696-2.208-1.968v-.024c0-1.404 1.068-2.052 2.592-2.052a4.57 4.57 0 0 1 1.572.264v-.108c0-.756-.468-1.176-1.38-1.176-.504 0-.912.072-1.26.18a.772.772 0 0 1-.264.048.743.743 0 0 1-.756-.744c0-.324.204-.6.492-.708.576-.216 1.2-.336 2.052-.336.996 0 1.716.264 2.172.72.48.48.696 1.188.696 2.052v2.928a.876.876 0 0 1-.888.876c-.528 0-.876-.372-.876-.756v-.012c-.444.492-1.056.816-1.944.816zm.552-1.26c.852 0 1.428-.468 1.428-1.128v-.324a2.828 2.828 0 0 0-1.164-.24c-.78 0-1.26.312-1.26.888v.024c0 .492.408.78.996.78zm6.984 1.26a4.482 4.482 0 0 1-2.424-.732.727.727 0 0 1-.348-.624c0-.408.312-.72.72-.72a.7.7 0 0 1 .36.096c.612.384 1.224.576 1.74.576.528 0 .768-.192.768-.48v-.024c0-.396-.624-.528-1.332-.744-.9-.264-1.92-.684-1.92-1.932v-.024c0-1.308 1.056-2.04 2.352-2.04.672 0 1.368.18 1.992.492a.743.743 0 0 1 .432.684c0 .408-.324.72-.732.72a.666.666 0 0 1-.336-.084c-.516-.252-1.008-.408-1.392-.408-.444 0-.672.192-.672.444v.024c0 .36.612.528 1.308.768.9.3 1.944.732 1.944 1.908v.024c0 1.428-1.068 2.076-2.46 2.076zm10.92.024c-2.244 0-3.72-1.884-3.72-4.32V41.8c0-2.436 1.512-4.344 3.744-4.344 2.22 0 3.72 1.884 3.72 4.32v.024c0 2.436-1.5 4.344-3.744 4.344zm.024-1.668c1.116 0 1.824-1.128 1.824-2.652V41.8c0-1.524-.744-2.676-1.848-2.676s-1.824 1.116-1.824 2.652v.024c0 1.536.732 2.676 1.848 2.676zm8.148 1.644c-1.86 0-3.24-.96-3.24-2.424v-.024c0-1.02.468-1.62 1.356-2.028-.648-.396-1.068-.936-1.068-1.836v-.024c0-1.284 1.176-2.304 2.952-2.304s2.952 1.008 2.952 2.304v.024c0 .9-.42 1.44-1.068 1.836.852.444 1.356.984 1.356 1.98v.024c0 1.56-1.38 2.472-3.24 2.472zm0-5.088c.732 0 1.2-.432 1.2-1.02v-.024c0-.516-.444-.984-1.2-.984s-1.2.456-1.2.972V40c0 .588.468 1.032 1.2 1.032zm0 3.564c.912 0 1.452-.456 1.452-1.044v-.024c0-.648-.612-1.032-1.452-1.032s-1.452.384-1.452 1.032v.024c0 .576.54 1.044 1.452 1.044zm4.596.564v-7.08a.912.912 0 1 1 1.824 0v2.4c.42-.54.96-1.032 1.884-1.032 1.38 0 2.184.912 2.184 2.388v3.324a.912.912 0 1 1-1.824 0v-2.748c0-.864-.408-1.308-1.104-1.308-.696 0-1.14.444-1.14 1.308v2.748a.912.912 0 1 1-1.824 0zm12.9.96c-1.212 0-2.208-.696-2.208-1.968v-.024c0-1.404 1.068-2.052 2.592-2.052a4.57 4.57 0 0 1 1.572.264v-.108c0-.756-.468-1.176-1.38-1.176-.504 0-.912.072-1.26.18a.772.772 0 0 1-.264.048.743.743 0 0 1-.756-.744c0-.324.204-.6.492-.708.576-.216 1.2-.336 2.052-.336.996 0 1.716.264 2.172.72.48.48.696 1.188.696 2.052v2.928a.876.876 0 0 1-.888.876c-.528 0-.876-.372-.876-.756v-.012c-.444.492-1.056.816-1.944.816zm.552-1.26c.852 0 1.428-.468 1.428-1.128v-.324a2.828 2.828 0 0 0-1.164-.24c-.78 0-1.26.312-1.26.888v.024c0 .492.408.78.996.78zm.432-5.928c-.408 0-.696-.072-1.044-.396l-.744-.696c-.144-.132-.24-.264-.24-.432 0-.276.576-.552 1.02-.552.3 0 .528.156.684.408l.66 1.032c.06.096.12.216.12.324 0 .192-.192.312-.456.312zm6.552 7.188a4.482 4.482 0 0 1-2.424-.732.727.727 0 0 1-.348-.624c0-.408.312-.72.72-.72a.7.7 0 0 1 .36.096c.612.384 1.224.576 1.74.576.528 0 .768-.192.768-.48v-.024c0-.396-.624-.528-1.332-.744-.9-.264-1.92-.684-1.92-1.932v-.024c0-1.308 1.056-2.04 2.352-2.04.672 0 1.368.18 1.992.492a.743.743 0 0 1 .432.684c0 .408-.324.72-.732.72a.666.666 0 0 1-.336-.084c-.516-.252-1.008-.408-1.392-.408-.444 0-.672.192-.672.444v.024c0 .36.612.528 1.308.768.9.3 1.944.732 1.944 1.908v.024c0 1.428-1.068 2.076-2.46 2.076zm8.688-.96v-5.808l-.648.168a1.51 1.51 0 0 1-.324.048.81.81 0 0 1-.804-.792c0-.372.24-.684.612-.792l1.188-.348c.348-.096.612-.156.864-.156h.024c.504 0 .912.408.912.912v6.768a.912.912 0 1 1-1.824 0zm6.708.96c-1.86 0-3.24-.96-3.24-2.424v-.024c0-1.02.468-1.62 1.356-2.028-.648-.396-1.068-.936-1.068-1.836v-.024c0-1.284 1.176-2.304 2.952-2.304s2.952 1.008 2.952 2.304v.024c0 .9-.42 1.44-1.068 1.836.852.444 1.356.984 1.356 1.98v.024c0 1.56-1.38 2.472-3.24 2.472zm0-5.088c.732 0 1.2-.432 1.2-1.02v-.024c0-.516-.444-.984-1.2-.984s-1.2.456-1.2.972V40c0 .588.468 1.032 1.2 1.032zm0 3.564c.912 0 1.452-.456 1.452-1.044v-.024c0-.648-.612-1.032-1.452-1.032s-1.452.384-1.452 1.032v.024c0 .576.54 1.044 1.452 1.044zm4.596.564v-7.08a.912.912 0 1 1 1.824 0v2.4c.42-.54.96-1.032 1.884-1.032 1.38 0 2.184.912 2.184 2.388v3.324a.912.912 0 1 1-1.824 0v-2.748c0-.864-.408-1.308-1.104-1.308-.696 0-1.14.444-1.14 1.308v2.748a.912.912 0 1 1-1.824 0z" fill="#E75B22"/><path d="M946.748 23.945c0-1.94-1.215-3.605-2.88-4.111.01.195.03.388.03.586v.551l-.047 7.092c1.674-.5 2.897-2.171 2.897-4.118m-13.656 15.044a1.259 1.259 0 0 0-2.516 0 1.26 1.26 0 0 0 1.258 1.259 1.26 1.26 0 0 0 1.258-1.259m7.174-24.067a10.083 10.083 0 0 0-1.046-1.244c-1.662-1.664-4.22-2.96-6.742-2.96h-1.259c-2.522 0-5.079 1.296-6.742 2.96a10.617 10.617 0 0 0-2.444 3.895 10.098 10.098 0 0 0 5.276-4.618.959.959 0 0 1 1.533-.21 10.04 10.04 0 0 0 7.274 3.084c1.437 0 2.85-.322 4.15-.907m-20.436 4.9c-1.681.495-2.91 2.171-2.91 4.123 0 1.928 1.202 3.582 2.851 4.099.006-2.681.028-4.803.028-7.624 0-.202.02-.399.031-.598m28.838 4.123c0 3.013-2.078 5.574-4.83 6.093l-.001.144a11.4 11.4 0 0 1-3.293 6.885 11.42 11.42 0 0 1-5.767 3.111 3.18 3.18 0 0 1-2.943 1.99 3.182 3.182 0 0 1-3.178-3.179 3.18 3.18 0 0 1 3.178-3.177c1.458 0 2.677.992 3.05 2.333 1.637-.359 3.216-1.018 4.336-2.139 1.664-1.663 2.959-4.483 2.959-7.005V20.42c0-1.317-.358-2.64-.932-3.844a12.04 12.04 0 0 1-5.131 1.173c-2.879 0-5.591-.997-7.758-2.831a11.988 11.988 0 0 1-6.798 4.828c-.02.225-.042.449-.042.674v8.581c0 .262-.054.443-.151.58l-.008.015c-.02.026-.036.057-.06.079a.947.947 0 0 1-.868.444c-3.045-.233-5.431-2.945-5.431-6.174 0-3.116 2.222-5.743 5.113-6.134a11.45 11.45 0 0 1 3.04-5.458A11.386 11.386 0 0 1 931.219 9h1.259c3.141 0 5.997 1.284 8.066 3.353a11.435 11.435 0 0 1 3.041 5.462c2.876.405 5.083 3.025 5.083 6.13m-11.683 4.746a.96.96 0 1 0-1.848-.52c-.326 1.157-1.715 1.997-3.303 1.997-1.588 0-2.977-.84-3.302-1.997a.96.96 0 1 0-1.849.52c.563 2 2.681 3.397 5.151 3.397 2.47 0 4.588-1.397 5.151-3.397m-8.96-4.546a1.725 1.725 0 0 0 0-3.448c-.951 0-1.724.773-1.724 1.724s.773 1.724 1.724 1.724m5.925-1.724c0-.951.773-1.724 1.723-1.724.951 0 1.724.773 1.724 1.724s-.773 1.724-1.724 1.724c-.95 0-1.723-.773-1.723-1.724" fill="#F5A623"/><path fill="#EBEBEB" fill-rule="nonzero" d="M430.5.5h1v50h-1zM649.5.5h1v50h-1zM901.5.5h1v50h-1zM183.5.5h1v50h-1z"/><path d="M459.46 32.48c0 .53-.43.96-.96.96h-3.576a.96.96 0 0 1 0-1.92h3.576c.53 0 .96.43.96.96zm-7.075 0a.96.96 0 0 1-.96.96h-2.875a.96.96 0 0 1 0-1.92h2.875c.531 0 .96.43.96.96zm22.346 2.944h-27.228a1.585 1.585 0 0 1-1.583-1.584v-9.445h30.395v9.445c0 .859-.725 1.584-1.584 1.584zM445.92 22.475h30.395v-2.22H445.92v2.22zm1.583-7.556h27.228c.874 0 1.584.71 1.584 1.583v1.833H445.92v-1.833c0-.873.71-1.583 1.583-1.583zM474.731 13h-27.228A3.507 3.507 0 0 0 444 16.502V33.84a3.508 3.508 0 0 0 3.503 3.504h27.228a3.508 3.508 0 0 0 3.504-3.504V16.502A3.507 3.507 0 0 0 474.731 13z" fill="#F5A623"/><path d="M488.648 26.812c0-.198.072-.396.162-.594l4.392-9.918c.306-.684.864-1.098 1.62-1.098h.162c.756 0 1.296.414 1.602 1.098l4.392 9.918c.09.198.144.378.144.558 0 .738-.576 1.332-1.314 1.332-.648 0-1.08-.378-1.332-.954l-.846-1.98h-5.544l-.882 2.07c-.234.54-.702.864-1.278.864-.72 0-1.278-.576-1.278-1.296zm4.464-4.086h3.492l-1.746-4.158-1.746 4.158zm12.598 5.436c-1.674 0-2.808-.666-2.808-2.898v-4.572h-.09c-.648 0-1.17-.522-1.17-1.17 0-.648.522-1.17 1.17-1.17h.09v-1.206a1.367 1.367 0 1 1 2.736 0v1.206h1.206c.648 0 1.17.522 1.17 1.17 0 .648-.522 1.17-1.17 1.17h-1.206v4.122c0 .63.27.936.882.936.09 0 .27-.018.324-.018a1.14 1.14 0 0 1 1.134 1.134c0 .486-.324.882-.702 1.026-.504.198-.972.27-1.566.27zm5.956-5.742h4.122c-.162-1.224-.882-2.052-2.034-2.052-1.134 0-1.872.81-2.088 2.052zm5.706 4.626c-.846.72-1.944 1.17-3.348 1.17-2.898 0-5.04-2.034-5.04-4.986v-.036c0-2.754 1.962-5.022 4.77-5.022 3.222 0 4.644 2.646 4.644 4.644 0 .792-.558 1.314-1.278 1.314h-5.418c.27 1.242 1.134 1.89 2.358 1.89.756 0 1.386-.234 1.944-.648.198-.144.378-.216.666-.216.612 0 1.062.468 1.062 1.08 0 .36-.162.63-.36.81zm-3.726-9.648c-.396 0-.684-.18-.684-.468 0-.162.09-.342.18-.486l.99-1.548c.234-.378.576-.612 1.026-.612.666 0 1.53.414 1.53.828 0 .252-.144.45-.36.648l-1.116 1.044c-.522.486-.954.594-1.566.594zm16.718 10.818c-1.638 0-2.754-.468-3.636-1.35-.918-.918-1.494-2.268-1.494-4.77v-.036c0-3.888 1.764-6.876 5.526-6.876 1.26 0 2.286.306 3.042.756.432.252.72.63.72 1.188 0 .72-.594 1.278-1.314 1.278-.234 0-.486-.09-.684-.198-.576-.324-1.098-.504-1.854-.504-1.566 0-2.358 1.26-2.538 2.916.63-.414 1.368-.81 2.61-.81 2.502 0 4.428 1.386 4.428 4.014v.036c0 2.574-2.07 4.356-4.806 4.356zm-.108-2.376c1.368 0 2.16-.774 2.16-1.854v-.036c0-1.062-.828-1.836-2.196-1.836-1.368 0-2.16.756-2.16 1.818v.036c0 1.062.828 1.872 2.196 1.872zm6.442 1.116c0-.378.144-.666.378-.936l2.466-2.916-2.25-2.592c-.306-.36-.45-.684-.45-1.044 0-.774.576-1.26 1.26-1.26.54 0 .918.252 1.278.702l1.782 2.376 1.818-2.376c.324-.396.702-.702 1.188-.702.72 0 1.278.504 1.278 1.188 0 .378-.162.666-.378.936l-2.34 2.736 2.412 2.772c.306.36.45.684.45 1.044 0 .774-.576 1.26-1.26 1.26-.54 0-.918-.252-1.278-.702l-1.944-2.556-1.944 2.556c-.324.396-.702.702-1.188.702-.72 0-1.278-.504-1.278-1.188zm19.22 1.224a6.724 6.724 0 0 1-3.636-1.098 1.09 1.09 0 0 1-.522-.936c0-.612.468-1.08 1.08-1.08.198 0 .396.054.54.144.918.576 1.836.864 2.61.864.792 0 1.152-.288 1.152-.72v-.036c0-.594-.936-.792-1.998-1.116-1.35-.396-2.88-1.026-2.88-2.898v-.036c0-1.962 1.584-3.06 3.528-3.06 1.008 0 2.052.27 2.988.738.396.198.648.558.648 1.026 0 .612-.486 1.08-1.098 1.08a.998.998 0 0 1-.504-.126c-.774-.378-1.512-.612-2.088-.612-.666 0-1.008.288-1.008.666v.036c0 .54.918.792 1.962 1.152 1.35.45 2.916 1.098 2.916 2.862v.036c0 2.142-1.602 3.114-3.69 3.114zm7.666-5.76h4.122c-.162-1.224-.882-2.052-2.034-2.052-1.134 0-1.872.81-2.088 2.052zm5.706 4.626c-.846.72-1.944 1.17-3.348 1.17-2.898 0-5.04-2.034-5.04-4.986v-.036c0-2.754 1.962-5.022 4.77-5.022 3.222 0 4.644 2.646 4.644 4.644 0 .792-.558 1.314-1.278 1.314h-5.418c.27 1.242 1.134 1.89 2.358 1.89.756 0 1.386-.234 1.944-.648.198-.144.378-.216.666-.216.612 0 1.062.468 1.062 1.08 0 .36-.162.63-.36.81zm2.914-.306v-7.128a1.367 1.367 0 1 1 2.736 0v.108c.63-.81 1.458-1.548 2.844-1.548 1.26 0 2.214.558 2.718 1.53.846-.99 1.854-1.53 3.168-1.53 2.034 0 3.258 1.224 3.258 3.546v5.022a1.367 1.367 0 1 1-2.736 0v-4.122c0-1.296-.576-1.962-1.602-1.962-1.026 0-1.656.666-1.656 1.962v4.122a1.367 1.367 0 1 1-2.736 0v-4.122c0-1.296-.576-1.962-1.602-1.962-1.026 0-1.656.666-1.656 1.962v4.122a1.367 1.367 0 1 1-2.736 0zm22.064-10.656v-.036c0-.792.666-1.278 1.53-1.278s1.53.486 1.53 1.278v.036c0 .792-.666 1.296-1.53 1.296s-1.53-.504-1.53-1.296zm-.018 14.85h-.036c-.882 0-1.53-.36-1.53-1.116 0-.666.486-1.098 1.062-1.098h.018c.396 0 .666-.252.666-.9v-8.208a1.367 1.367 0 1 1 2.736 0v8.226c0 2.124-1.116 3.096-2.916 3.096zm14.056-11.322v7.128a1.367 1.367 0 1 1-2.736 0v-.108c-.63.81-1.44 1.548-2.826 1.548-2.07 0-3.276-1.368-3.276-3.582v-4.986a1.367 1.367 0 1 1 2.736 0v4.122c0 1.296.612 1.962 1.656 1.962s1.71-.666 1.71-1.962v-4.122a1.367 1.367 0 1 1 2.736 0zm2.248 7.128v-7.128a1.367 1.367 0 1 1 2.736 0v.432c.396-.936 1.044-1.8 1.854-1.8.846 0 1.332.558 1.332 1.332 0 .72-.468 1.152-1.026 1.278-1.386.324-2.16 1.386-2.16 3.33v2.556a1.367 1.367 0 1 1-2.736 0zm11.788 1.476c-2.988 0-5.202-2.214-5.202-4.986v-.036c0-2.772 2.232-5.022 5.238-5.022 2.988 0 5.202 2.214 5.202 4.986v.036c0 2.772-2.232 5.022-5.238 5.022zm.036-2.358c1.566 0 2.502-1.206 2.502-2.628v-.036c0-1.422-1.026-2.664-2.538-2.664-1.566 0-2.502 1.206-2.502 2.628v.036c0 1.422 1.026 2.664 2.538 2.664zm10.366 2.322a6.724 6.724 0 0 1-3.636-1.098 1.09 1.09 0 0 1-.522-.936c0-.612.468-1.08 1.08-1.08.198 0 .396.054.54.144.918.576 1.836.864 2.61.864.792 0 1.152-.288 1.152-.72v-.036c0-.594-.936-.792-1.998-1.116-1.35-.396-2.88-1.026-2.88-2.898v-.036c0-1.962 1.584-3.06 3.528-3.06 1.008 0 2.052.27 2.988.738.396.198.648.558.648 1.026 0 .612-.486 1.08-1.098 1.08a.998.998 0 0 1-.504-.126c-.774-.378-1.512-.612-2.088-.612-.666 0-1.008.288-1.008.666v.036c0 .54.918.792 1.962 1.152 1.35.45 2.916 1.098 2.916 2.862v.036c0 2.142-1.602 3.114-3.69 3.114z" fill="#E75B22"/><path d="M488.988 41.285v-5.434c0-.442.338-.793.78-.793s.793.351.793.793v.338c.442-.637 1.079-1.196 2.145-1.196 1.547 0 2.444 1.04 2.444 2.626v3.666c0 .442-.338.78-.78.78a.777.777 0 0 1-.793-.78V38.1c0-1.066-.533-1.677-1.469-1.677-.91 0-1.547.637-1.547 1.703v3.159c0 .442-.351.78-.793.78a.774.774 0 0 1-.78-.78zm11.323.871c-2.093 0-3.64-1.599-3.64-3.549v-.026c0-1.963 1.56-3.588 3.666-3.588s3.653 1.599 3.653 3.562v.026c0 1.95-1.56 3.575-3.679 3.575zm.026-1.378c1.274 0 2.08-.988 2.08-2.171v-.026c0-1.209-.871-2.21-2.106-2.21-1.261 0-2.067.988-2.067 2.184v.026c0 1.196.871 2.197 2.093 2.197zm12.324 1.378c-2.041 0-3.549-1.599-3.549-3.549v-.026c0-1.95 1.508-3.588 3.575-3.588 1.079 0 1.82.351 2.405.858a.746.746 0 0 1 .247.546.716.716 0 0 1-.728.715.802.802 0 0 1-.468-.156c-.403-.338-.845-.585-1.469-.585-1.144 0-1.989.988-1.989 2.184v.026c0 1.222.845 2.197 2.054 2.197.624 0 1.105-.247 1.534-.611a.684.684 0 0 1 .429-.169c.377 0 .676.312.676.689a.613.613 0 0 1-.221.494c-.611.585-1.352.975-2.496.975zm6.227-.013c-1.287 0-2.431-.741-2.431-2.119v-.026c0-1.482 1.157-2.21 2.834-2.21.767 0 1.313.117 1.846.286v-.169c0-.975-.598-1.495-1.703-1.495-.598 0-1.092.104-1.521.273a.883.883 0 0 1-.247.039.655.655 0 0 1-.663-.65c0-.286.195-.533.429-.624a5.884 5.884 0 0 1 2.21-.403c1.027 0 1.794.273 2.275.767.507.494.741 1.222.741 2.119v3.38a.75.75 0 0 1-.767.754c-.455 0-.767-.312-.767-.663v-.26c-.468.559-1.183 1.001-2.236 1.001zm.442-1.144c1.04 0 1.833-.598 1.833-1.469v-.468a4.36 4.36 0 0 0-1.56-.273c-1.014 0-1.612.429-1.612 1.144v.026c0 .663.585 1.04 1.339 1.04zm5.213.286v-5.434c0-.442.338-.793.78-.793s.793.351.793.793v.702c.364-.858 1.04-1.508 1.729-1.508.494 0 .78.325.78.78a.738.738 0 0 1-.624.754c-1.118.195-1.885 1.053-1.885 2.678v2.028c0 .429-.351.78-.793.78a.774.774 0 0 1-.78-.78zm7.67.832c-1.157 0-1.976-.507-1.976-2.015v-3.614h-.26a.671.671 0 0 1-.676-.676c0-.377.299-.676.676-.676h.26v-1.17c0-.429.351-.78.793-.78.429 0 .78.351.78.78v1.17h1.235c.377 0 .689.299.689.676a.682.682 0 0 1-.689.676h-1.235v3.367c0 .611.312.858.845.858.182 0 .338-.039.39-.039.351 0 .663.286.663.65 0 .286-.195.52-.416.611a3.13 3.13 0 0 1-1.079.182zm5.018.026c-1.287 0-2.431-.741-2.431-2.119v-.026c0-1.482 1.157-2.21 2.834-2.21.767 0 1.313.117 1.846.286v-.169c0-.975-.598-1.495-1.703-1.495-.598 0-1.092.104-1.521.273a.883.883 0 0 1-.247.039.655.655 0 0 1-.663-.65c0-.286.195-.533.429-.624a5.884 5.884 0 0 1 2.21-.403c1.027 0 1.794.273 2.275.767.507.494.741 1.222.741 2.119v3.38a.75.75 0 0 1-.767.754c-.455 0-.767-.312-.767-.663v-.26c-.468.559-1.183 1.001-2.236 1.001zm-.546-7.982c-.091.143-.221.26-.429.26-.26 0-.481-.208-.481-.429 0-.078.026-.208.052-.299.273-.754.637-1.183 1.326-1.183.715 0 1.404.52 1.872.52.299 0 .442-.13.598-.416.091-.143.234-.26.429-.26.26 0 .481.208.481.429 0 .078-.026.208-.052.299-.273.754-.637 1.183-1.326 1.183-.715 0-1.404-.52-1.872-.52-.299 0-.442.13-.598.416zm.988 6.838c1.04 0 1.833-.598 1.833-1.469v-.468a4.36 4.36 0 0 0-1.56-.273c-1.014 0-1.612.429-1.612 1.144v.026c0 .663.585 1.04 1.339 1.04zm8.476 1.157c-2.093 0-3.64-1.599-3.64-3.549v-.026c0-1.963 1.56-3.588 3.666-3.588s3.653 1.599 3.653 3.562v.026c0 1.95-1.56 3.575-3.679 3.575zm.026-1.378c1.274 0 2.08-.988 2.08-2.171v-.026c0-1.209-.871-2.21-2.106-2.21-1.261 0-2.067.988-2.067 2.184v.026c0 1.196.871 2.197 2.093 2.197zm15.899-7.553v8.06c0 .442-.351.78-.78.78a.777.777 0 0 1-.793-.78v-.429c-.507.715-1.222 1.287-2.34 1.287-1.612 0-3.185-1.287-3.185-3.562v-.026c0-2.275 1.547-3.562 3.185-3.562 1.131 0 1.846.559 2.34 1.209v-2.977c0-.442.351-.78.78-.78.442 0 .793.338.793.78zm-3.536 3.133c-1.079 0-1.976.832-1.976 2.197v.026c0 1.326.91 2.197 1.976 2.197 1.053 0 1.989-.884 1.989-2.197v-.026c0-1.326-.936-2.197-1.989-2.197zm6.695 1.729h3.523c-.104-1.014-.702-1.807-1.742-1.807-.962 0-1.638.741-1.781 1.807zm4.433 3.159c-.624.559-1.404.91-2.47.91-1.989 0-3.523-1.443-3.523-3.562v-.026c0-1.963 1.391-3.575 3.354-3.575 2.184 0 3.263 1.794 3.263 3.38a.736.736 0 0 1-.741.754h-4.303c.169 1.118.962 1.742 1.976 1.742.663 0 1.183-.234 1.625-.598a.586.586 0 0 1 .403-.143.62.62 0 0 1 .624.637.687.687 0 0 1-.208.481zm9.308.91c-2.041 0-3.549-1.599-3.549-3.549v-.026c0-1.95 1.508-3.588 3.575-3.588 1.079 0 1.82.351 2.405.858a.746.746 0 0 1 .247.546.716.716 0 0 1-.728.715.802.802 0 0 1-.468-.156c-.403-.338-.845-.585-1.469-.585-1.144 0-1.989.988-1.989 2.184v.026c0 1.222.845 2.197 2.054 2.197.624 0 1.105-.247 1.534-.611a.684.684 0 0 1 .429-.169c.377 0 .676.312.676.689a.613.613 0 0 1-.221.494c-.611.585-1.352.975-2.496.975zm4.251-.871v-5.434c0-.442.338-.793.78-.793s.793.351.793.793v.702c.364-.858 1.04-1.508 1.729-1.508.494 0 .78.325.78.78a.738.738 0 0 1-.624.754c-1.118.195-1.885 1.053-1.885 2.678v2.028c0 .429-.351.78-.793.78a.774.774 0 0 1-.78-.78zm8.047-6.955c-.221 0-.39-.104-.39-.273 0-.091.052-.208.104-.286l.741-1.144c.143-.234.351-.377.624-.377.416 0 .936.26.936.507 0 .143-.091.273-.221.39l-.871.832c-.312.286-.559.351-.923.351zm-1.729 3.757h3.523c-.104-1.014-.702-1.807-1.742-1.807-.962 0-1.638.741-1.781 1.807zm4.433 3.159c-.624.559-1.404.91-2.47.91-1.989 0-3.523-1.443-3.523-3.562v-.026c0-1.963 1.391-3.575 3.354-3.575 2.184 0 3.263 1.794 3.263 3.38a.736.736 0 0 1-.741.754h-4.303c.169 1.118.962 1.742 1.976 1.742.663 0 1.183-.234 1.625-.598a.586.586 0 0 1 .403-.143.62.62 0 0 1 .624.637.687.687 0 0 1-.208.481zm8.983-8.021v8.06c0 .442-.351.78-.78.78a.777.777 0 0 1-.793-.78v-.429c-.507.715-1.222 1.287-2.34 1.287-1.612 0-3.185-1.287-3.185-3.562v-.026c0-2.275 1.547-3.562 3.185-3.562 1.131 0 1.846.559 2.34 1.209v-2.977c0-.442.351-.78.78-.78.442 0 .793.338.793.78zm-3.536 3.133c-1.079 0-1.976.832-1.976 2.197v.026c0 1.326.91 2.197 1.976 2.197 1.053 0 1.989-.884 1.989-2.197v-.026c0-1.326-.936-2.197-1.989-2.197zm5.486-2.99v-.078c0-.468.39-.767.897-.767s.897.299.897.767v.078c0 .468-.39.78-.897.78s-.897-.312-.897-.78zm.117 7.917v-5.434c0-.442.338-.793.78-.793s.793.351.793.793v5.434c0 .442-.351.78-.793.78a.774.774 0 0 1-.78-.78zm5.928.832c-1.157 0-1.976-.507-1.976-2.015v-3.614h-.26a.671.671 0 0 1-.676-.676c0-.377.299-.676.676-.676h.26v-1.17c0-.429.351-.78.793-.78.429 0 .78.351.78.78v1.17h1.235c.377 0 .689.299.689.676a.682.682 0 0 1-.689.676h-1.235v3.367c0 .611.312.858.845.858.182 0 .338-.039.39-.039.351 0 .663.286.663.65 0 .286-.195.52-.416.611a3.13 3.13 0 0 1-1.079.182zm6.11.039c-2.093 0-3.64-1.599-3.64-3.549v-.026c0-1.963 1.56-3.588 3.666-3.588s3.653 1.599 3.653 3.562v.026c0 1.95-1.56 3.575-3.679 3.575zm.026-1.378c1.274 0 2.08-.988 2.08-2.171v-.026c0-1.209-.871-2.21-2.106-2.21-1.261 0-2.067.988-2.067 2.184v.026c0 1.196.871 2.197 2.093 2.197z" fill="#F5A623"/></g></svg>