<svg width="26" height="23" xmlns="http://www.w3.org/2000/svg"><path d="M4.5 5a1 1 0 1 1 0-2H25a1 1 0 0 1 0 2H4.5zm1 9a1 1 0 0 1 0-2H21a1 1 0 1 1 0 2H5.5zm1.226 2.482A3.5 3.5 0 0 1 11.964 19h2.071a3.5 3.5 0 1 1 .302 2h-2.674a3.5 3.5 0 0 1-6.648-1.827 1.015 1.015 0 0 1-.009-.062L3.105 2H1.5a1 1 0 1 1 0-2h2.488a.998.998 0 0 1 1.007.9l1.731 15.581zm17.36-12.888a1 1 0 1 1 1.828.812l-4 9a1 1 0 0 1-1.828-.812l4-9zM8.5 21a1.5 1.5 0 1 0 0-3 1.5 1.5 0 0 0 0 3zm9 0a1.5 1.5 0 1 0 0-3 1.5 1.5 0 0 0 0 3zM8 8a1 1 0 1 1 0-2h12a1 1 0 0 1 0 2H8zm0 3a1 1 0 0 1 0-2h11a1 1 0 0 1 0 2H8zM7 1h11v3H7V1z" fill-rule="nonzero" fill="#E75A25"/></svg>