<?xml version="1.0" encoding="UTF-8"?>
<svg width="1676px" height="313px" viewBox="0 0 1676 313" version="1.1" xmlns="http://www.w3.org/2000/svg" xmlns:xlink="http://www.w3.org/1999/xlink">
    <!-- Generator: Sketch 50.2 (55047) - http://www.bohemiancoding.com/sketch -->
    <title>compra-segura</title>
    <desc>Created with Sketch.</desc>
    <defs>
        <linearGradient x1="0%" y1="100%" x2="100%" y2="100%" id="linearGradient-1">
            <stop stop-color="#F08325" offset="0%"></stop>
            <stop stop-color="#E75A25" offset="50.0908005%"></stop>
            <stop stop-color="#E42229" offset="100%"></stop>
        </linearGradient>
    </defs>
    <g id="compra-segura" stroke="none" stroke-width="1" fill="none" fill-rule="evenodd">
        <path d="M118.301453,231.665664 L402.139034,231.665664 L402.139034,52.9842313 L118.301453,52.9842313 L118.301453,231.665664 Z M112.304483,237.655989 L408.136004,237.655989 L408.136004,46.9939056 L112.304483,46.9939056 L112.304483,237.655989 Z M193.004007,296.973193 C193.004007,295.736191 194.011497,294.729816 195.250871,294.729816 L212.953926,294.729816 L212.953926,249.069557 L307.492157,249.069557 L307.492157,294.729816 L325.197211,294.729816 C326.435586,294.729816 327.443077,295.736191 327.443077,296.973193 L327.443077,301.009674 L193.004007,301.009674 L193.004007,296.973193 Z M106.806561,243.079231 C106.359786,243.079231 105.99697,242.715818 105.99697,242.270537 L105.99697,42.3813548 C105.99697,41.9360739 106.359786,41.5736592 106.806561,41.5736592 L411.873415,41.5736592 C412.320189,41.5736592 412.684006,41.9360739 412.684006,42.3813548 L412.684006,242.270537 C412.684006,242.715818 412.320189,243.079231 411.873415,243.079231 L313.489127,243.079231 L206.956956,243.079231 L106.806561,243.079231 Z M333.440046,296.973193 C333.440046,292.432526 329.742914,288.73949 325.197211,288.73949 L313.489127,288.73949 L313.489127,249.069557 L411.873415,249.069557 C415.627518,249.069557 418.680975,246.019483 418.680975,242.270537 L418.680975,42.3813548 C418.680975,38.6324093 415.627518,35.5833335 411.873415,35.5833335 L106.806561,35.5833335 C103.053457,35.5833335 100,38.6324093 100,42.3813548 L100,242.270537 C100,246.019483 103.053457,249.069557 106.806561,249.069557 L206.956956,249.069557 L206.956956,288.73949 L195.250871,288.73949 C190.705168,288.73949 187.007037,292.432526 187.007037,296.973193 L187.007037,307 L333.440046,307 L333.440046,296.973193 Z M313.548497,125.678531 L306.473072,184.583401 L218.975284,184.583401 L226.050709,125.678531 L313.548497,125.678531 Z M212.216699,190.573727 L311.793384,190.573727 L320.308082,119.688205 L220.730397,119.688205 L212.216699,190.573727 Z M207.56255,145.14709 C209.218713,145.14709 210.561035,143.806255 210.561035,142.151927 L210.561035,102.715616 L233.54942,102.715616 L233.54942,115.694655 L305.01331,115.694655 C306.669473,115.694655 308.011795,114.35382 308.011795,112.699492 C308.011795,111.045164 306.669473,109.704329 305.01331,109.704329 L239.546389,109.704329 L239.546389,96.7252902 L204.564065,96.7252902 L204.564065,142.151927 C204.564065,143.806255 205.906387,145.14709 207.56255,145.14709 M1003.57634,140.136682 C1003.57634,214.105224 943.332777,274.282039 869.281194,274.282039 C795.23161,274.282039 734.987051,214.105224 734.987051,140.136682 C734.987051,66.1681395 795.23161,5.99032572 869.281194,5.99032572 C943.332777,5.99032572 1003.57634,66.1681395 1003.57634,140.136682 M728.990081,140.136682 C728.990081,217.40789 791.924281,280.272365 869.281194,280.272365 C946.638107,280.272365 1009.57331,217.40789 1009.57331,140.136682 C1009.57331,62.8654733 946.638107,0 869.281194,0 C791.924281,0 728.990081,62.8654733 728.990081,140.136682 M981.6821,140.136682 C981.6821,202.045699 931.259577,252.41136 869.280894,252.41136 C807.30421,252.41136 756.880688,202.045699 756.880688,140.136682 C756.880688,78.2266652 807.30421,27.8600065 869.280894,27.8600065 C931.259577,27.8600065 981.6821,78.2266652 981.6821,140.136682 M750.883719,140.136682 C750.883719,205.347367 803.996881,258.401685 869.280894,258.401685 C934.565907,258.401685 987.679069,205.347367 987.679069,140.136682 C987.679069,74.923999 934.565907,21.8696808 869.280894,21.8696808 C803.996881,21.8696808 750.883719,74.923999 750.883719,140.136682 M912.807701,127.811886 C912.902653,127.811886 912.979614,127.888762 912.979614,127.983609 L912.979614,194.397351 C912.979614,194.493197 912.902653,194.570073 912.807701,194.570073 L825.755687,194.570073 C825.660735,194.570073 825.583774,194.493197 825.583774,194.397351 L825.583774,127.983609 C825.583774,127.888762 825.660735,127.811886 825.755687,127.811886 L827.438836,127.811886 L844.861033,127.811886 L893.702354,127.811886 L911.123552,127.811886 L912.807701,127.811886 Z M893.702354,121.82156 L844.861033,121.82156 L844.861033,104.185043 C844.861033,93.2706694 853.749542,84.3920083 864.676021,84.3920083 L873.887367,84.3920083 C884.812846,84.3920083 893.702354,93.2706694 893.702354,104.185043 L893.702354,121.82156 Z M833.435806,104.185043 C833.435806,86.9788306 847.449725,72.9804378 864.676021,72.9804378 L873.887367,72.9804378 C891.112663,72.9804378 905.126582,86.9788306 905.126582,104.185043 L905.126582,121.82156 L899.699324,121.82156 L899.699324,104.185043 C899.699324,89.9680031 888.120175,78.4016826 873.887367,78.4016826 L864.676021,78.4016826 C850.443213,78.4016826 838.864063,89.9680031 838.864063,104.185043 L838.864063,121.82156 L833.435806,121.82156 L833.435806,104.185043 Z M873.887367,66.9901121 L864.676021,66.9901121 C844.143396,66.9901121 827.438836,83.6761644 827.438836,104.185043 L827.438836,121.82156 L825.755687,121.82156 C822.354405,121.82156 819.586804,124.586095 819.586804,127.983609 L819.586804,194.397351 C819.586804,197.795863 822.354405,200.560398 825.755687,200.560398 L912.807701,200.560398 C916.208982,200.560398 918.976584,197.795863 918.976584,194.397351 L918.976584,127.983609 C918.976584,124.586095 916.208982,121.82156 912.807701,121.82156 L911.123552,121.82156 L911.123552,104.185043 C911.123552,83.6761644 894.419992,66.9901121 873.887367,66.9901121 Z M870.990031,159.408258 L869.38784,160.250897 L869.38784,169.880346 C869.38784,170.409491 868.958057,170.838798 868.347366,170.838798 C867.818633,170.838798 867.387851,170.409491 867.387851,169.880346 L867.387851,160.250897 L865.78666,159.408258 C863.938594,158.435829 862.790174,156.540889 862.790174,154.461248 C862.790174,151.378227 865.301905,148.870277 868.387346,148.870277 C871.473786,148.870277 873.984518,151.378227 873.984518,154.461248 C873.984518,156.540889 872.837097,158.435829 870.990031,159.408258 M868.387346,142.879951 C861.994576,142.879951 856.793204,148.074562 856.793204,154.461248 C856.793204,158.132319 858.517333,161.52484 861.390881,163.693338 L861.390881,169.880346 C861.390881,173.712158 864.512304,176.829124 868.428325,176.829124 C872.264387,176.829124 875.38481,173.712158 875.38481,169.880346 L875.38481,163.693338 C878.258358,161.52484 879.981487,158.132319 879.981487,154.461248 C879.981487,148.074562 874.781115,142.879951 868.387346,142.879951 M1203.05954,213.820384 L1203.05954,208.544903 C1203.05954,206.890575 1201.71722,205.549741 1200.06106,205.549741 L1122.10045,205.549741 L1122.10045,189.575539 L1200.06106,189.575539 C1201.71722,189.575539 1203.05954,188.234704 1203.05954,186.580376 L1203.05954,181.057295 L1221.98298,198.698805 L1203.05954,213.820384 Z M1202.10702,171.974963 C1201.23446,171.161277 1199.96211,170.939635 1198.86666,171.417863 C1197.77121,171.893095 1197.06257,172.972352 1197.06257,174.164427 L1197.06257,183.585213 L1119.10196,183.585213 C1117.4458,183.585213 1116.10348,184.926047 1116.10348,186.580376 L1116.10348,208.544903 C1116.10348,210.199232 1117.4458,211.540066 1119.10196,211.540066 L1197.06257,211.540066 L1197.06257,220.052319 C1197.06257,221.204458 1197.72324,222.252765 1198.76171,222.751959 C1199.1755,222.950638 1199.61928,223.047482 1200.06106,223.047482 C1200.72872,223.047482 1201.39238,222.824842 1201.93411,222.391541 L1228.43772,201.212745 C1229.11737,200.668623 1229.52717,199.857933 1229.56115,198.988337 C1229.59413,198.117743 1229.24631,197.278099 1228.60963,196.684058 L1202.10702,171.974963 Z M1128.09742,131.312033 L1128.09742,137.658783 C1128.09742,139.31411 1129.43974,140.653946 1131.0959,140.653946 L1209.05651,140.653946 L1209.05651,154.631373 L1131.0959,154.631373 C1129.43974,154.631373 1128.09742,155.972207 1128.09742,157.626536 L1128.09742,164.074123 L1109.17398,148.953542 L1128.09742,131.312033 Z M1102.71924,151.466484 L1129.22285,172.645281 C1129.76458,173.078581 1130.42724,173.30222 1131.0959,173.30222 C1131.53768,173.30222 1131.98246,173.204378 1132.39525,173.006697 C1133.43372,172.507503 1134.09439,171.458198 1134.09439,170.307057 L1134.09439,160.621699 L1212.055,160.621699 C1213.71116,160.621699 1215.05348,159.281862 1215.05348,157.626536 L1215.05348,137.658783 C1215.05348,136.004455 1213.71116,134.66362 1212.055,134.66362 L1134.09439,134.66362 L1134.09439,124.420163 C1134.09439,123.22709 1133.38575,122.147833 1132.2903,121.673599 C1131.19485,121.19637 1129.9225,121.418012 1129.04994,122.229701 L1102.54733,146.937798 C1101.91065,147.531838 1101.56283,148.372481 1101.59581,149.242076 C1101.62979,150.111672 1102.03958,150.923361 1102.71924,151.466484 Z M609.359528,216.815546 L609.359528,211.540066 C609.359528,209.885738 608.017207,208.544903 606.361044,208.544903 L528.400436,208.544903 L528.400436,192.570701 L606.361044,192.570701 C608.017207,192.570701 609.359528,191.229867 609.359528,189.575539 L609.359528,184.052458 L628.281967,201.693968 L609.359528,216.815546 Z M608.40701,174.970126 C607.534451,174.15644 606.261094,173.936795 605.165648,174.413026 C604.071201,174.888258 603.362559,175.967515 603.362559,177.15959 L603.362559,186.580376 L525.401951,186.580376 C523.745788,186.580376 522.403466,187.92121 522.403466,189.575539 L522.403466,211.540066 C522.403466,213.194395 523.745788,214.535229 525.401951,214.535229 L603.362559,214.535229 L603.362559,223.047482 C603.362559,224.199621 604.023225,225.247928 605.0617,225.747122 C605.475491,225.945801 605.919267,226.042645 606.361044,226.042645 C607.028706,226.042645 607.692371,225.820004 608.234097,225.386704 L634.736706,204.207908 C635.417362,203.663786 635.827155,202.853096 635.860138,201.9835 C635.893121,201.112906 635.546297,200.273262 634.909618,199.679221 L608.40701,174.970126 Z M534.397406,134.307196 L534.397406,140.653946 C534.397406,142.309273 535.739727,143.649109 537.395891,143.649109 L615.356498,143.649109 L615.356498,157.626536 L537.395891,157.626536 C535.739727,157.626536 534.397406,158.96737 534.397406,160.621699 L534.397406,167.069286 L515.474967,151.948705 L534.397406,134.307196 Z M509.020228,154.461647 L535.522837,175.640444 C536.064563,176.073744 536.728228,176.297383 537.395891,176.297383 C537.837667,176.297383 538.281443,176.199541 538.695234,176.00186 C539.733709,175.502666 540.394376,174.453361 540.394376,173.30222 L540.394376,163.616861 L618.354983,163.616861 C620.011146,163.616861 621.353468,162.277025 621.353468,160.621699 L621.353468,140.653946 C621.353468,138.999618 620.011146,137.658783 618.354983,137.658783 L540.394376,137.658783 L540.394376,127.415326 C540.394376,126.222253 539.686733,125.142996 538.591287,124.668762 C537.49684,124.191533 536.223483,124.413175 535.349924,125.224864 L508.847316,149.932961 C508.210637,150.527001 507.863813,151.367644 507.896796,152.237239 C507.929779,153.106835 508.339572,153.918524 509.020228,154.461647 Z M1570.00303,86.2939367 C1570.00303,89.4907739 1567.39935,92.092572 1564.19796,92.092572 L1559.33842,92.092572 L1340.69989,92.092572 L1335.84135,92.092572 C1332.64097,92.092572 1330.03628,89.4907739 1330.03628,86.2939367 L1330.03628,48.3122765 C1330.03628,45.1154393 1332.64097,42.5136412 1335.84135,42.5136412 L1564.19796,42.5136412 C1567.39935,42.5136412 1570.00303,45.1154393 1570.00303,48.3122765 L1570.00303,86.2939367 Z M1346.69686,105.767487 L1553.34145,105.767487 L1553.34145,98.0828977 L1346.69686,98.0828977 L1346.69686,105.767487 Z M1564.19796,111.757813 C1567.39935,111.757813 1570.00303,114.358613 1570.00303,117.556448 L1570.00303,155.538108 C1570.00303,158.735944 1567.39935,161.336744 1564.19796,161.336744 L1559.33842,161.336744 L1559.33842,111.757813 L1564.19796,111.757813 Z M1346.69686,175.011659 L1553.34145,175.011659 L1553.34145,167.32707 L1346.69686,167.32707 L1346.69686,175.011659 Z M1564.19796,181.001985 C1567.39935,181.001985 1570.00303,183.603783 1570.00303,186.80062 L1570.00303,224.783279 C1570.00303,227.980116 1567.39935,230.581914 1564.19796,230.581914 L1559.33842,230.581914 L1559.33842,181.001985 L1564.19796,181.001985 Z M1346.69686,244.256829 L1553.34145,244.256829 L1553.34145,236.57224 L1346.69686,236.57224 L1346.69686,244.256829 Z M1564.19796,250.247155 C1567.39935,250.247155 1570.00303,252.847955 1570.00303,256.044792 L1570.00303,294.026452 C1570.00303,297.224288 1567.39935,299.825087 1564.19796,299.825087 L1335.84135,299.825087 C1332.64097,299.825087 1330.03628,297.224288 1330.03628,294.026452 L1330.03628,256.044792 C1330.03628,252.847955 1332.64097,250.247155 1335.84135,250.247155 L1340.69989,250.247155 L1559.33842,250.247155 L1564.19796,250.247155 Z M1346.69686,230.580916 L1553.34145,230.580916 L1553.34145,181.001985 L1346.69686,181.001985 L1346.69686,230.580916 Z M1335.84135,230.581914 C1332.64097,230.581914 1330.03628,227.980116 1330.03628,224.783279 L1330.03628,186.80062 C1330.03628,183.603783 1332.64097,181.001985 1335.84135,181.001985 L1340.69989,181.001985 L1340.69989,230.581914 L1335.84135,230.581914 Z M1346.69686,161.336744 L1553.34145,161.336744 L1553.34145,111.757813 L1346.69686,111.757813 L1346.69686,161.336744 Z M1335.84135,161.336744 C1332.64097,161.336744 1330.03628,158.735944 1330.03628,155.538108 L1330.03628,117.556448 C1330.03628,114.358613 1332.64097,111.757813 1335.84135,111.757813 L1340.69989,111.757813 L1340.69989,161.336744 L1335.84135,161.336744 Z M1564.19796,36.5233154 L1335.84135,36.5233154 C1329.33364,36.5233154 1324.03931,41.8117747 1324.03931,48.3122765 L1324.03931,86.2939367 C1324.03931,92.7944385 1329.33364,98.0828977 1335.84135,98.0828977 L1340.69989,98.0828977 L1340.69989,105.767487 L1335.84135,105.767487 C1329.33364,105.767487 1324.03931,111.055946 1324.03931,117.556448 L1324.03931,155.538108 C1324.03931,162.03861 1329.33364,167.32707 1335.84135,167.32707 L1340.69989,167.32707 L1340.69989,175.011659 L1335.84135,175.011659 C1329.33364,175.011659 1324.03931,180.300118 1324.03931,186.80062 L1324.03931,224.783279 C1324.03931,231.28378 1329.33364,236.57224 1335.84135,236.57224 L1340.69989,236.57224 L1340.69989,244.256829 L1335.84135,244.256829 C1329.33364,244.256829 1324.03931,249.545288 1324.03931,256.044792 L1324.03931,294.026452 C1324.03931,300.526954 1329.33364,305.815413 1335.84135,305.815413 L1564.19796,305.815413 C1570.70568,305.815413 1576,300.526954 1576,294.026452 L1576,256.044792 C1576,249.545288 1570.70568,244.256829 1564.19796,244.256829 L1559.33842,244.256829 L1559.33842,236.57224 L1564.19796,236.57224 C1570.70568,236.57224 1576,231.28378 1576,224.783279 L1576,186.80062 C1576,180.300118 1570.70568,175.011659 1564.19796,175.011659 L1559.33842,175.011659 L1559.33842,167.32707 L1564.19796,167.32707 C1570.70568,167.32707 1576,162.03861 1576,155.538108 L1576,117.556448 C1576,111.055946 1570.70568,105.767487 1564.19796,105.767487 L1559.33842,105.767487 L1559.33842,98.0828977 L1564.19796,98.0828977 C1570.70568,98.0828977 1576,92.7944385 1576,86.2939367 L1576,48.3122765 C1576,41.8117747 1570.70568,36.5233154 1564.19796,36.5233154 Z M0,307 L1676,307 L1676,313 L0,313 L0,307 Z M1492.6758,288.946856 C1492.42893,289.42109 1492.32498,289.963214 1492.38895,290.501345 C1492.4769,291.246142 1492.8757,291.924047 1493.48539,292.36234 L1494.35695,292.990325 C1494.81772,293.320792 1495.36644,293.49551 1495.92516,293.49551 C1496.12306,293.49551 1496.32196,293.472547 1496.51886,293.428618 C1497.26848,293.258892 1497.90916,292.774674 1498.27797,292.100762 L1498.6168,291.480763 L1498.95763,292.102759 C1499.32744,292.77667 1499.97012,293.25989 1500.71974,293.428618 C1501.47236,293.598343 1502.25696,293.437603 1502.88065,292.989327 L1503.74821,292.363338 C1504.3579,291.926044 1504.7567,291.248139 1504.84565,290.50434 C1504.90862,289.965211 1504.80667,289.422088 1504.5588,288.946856 C1505.1585,288.904923 1505.7342,288.662315 1506.18398,288.252976 C1506.7377,287.745795 1507.05654,287.023961 1507.05654,286.273173 L1507.05654,284.988249 C1507.05654,284.233468 1506.7347,283.508638 1506.17398,283.001457 C1505.72621,282.59711 1505.1545,282.357497 1504.5588,282.315565 C1504.80867,281.835341 1504.91062,281.284231 1504.84166,280.741108 C1504.7477,279.995312 1504.34191,279.319404 1503.72722,278.886103 L1502.86066,278.276089 C1502.23697,277.834801 1501.45237,277.683046 1500.71274,277.851774 C1499.97012,278.022498 1499.33344,278.500726 1498.96562,279.165652 L1498.6178,279.793638 L1498.27098,279.165652 C1497.90216,278.499727 1497.26448,278.0215 1496.52186,277.851774 C1495.77624,277.678054 1494.99463,277.8358 1494.37594,278.27509 L1493.50738,278.886103 C1492.89369,279.319404 1492.4879,279.995312 1492.39394,280.741108 C1492.32398,281.285229 1492.42693,281.835341 1492.6768,282.316563 C1492.0811,282.357497 1491.51039,282.596112 1491.06262,283.000459 C1490.5009,283.50764 1490.17906,284.233468 1490.17906,284.988249 L1490.17906,286.273173 C1490.17906,287.023961 1490.4969,287.745795 1491.05262,288.251978 C1491.5014,288.662315 1492.07611,288.904923 1492.6758,288.946856 Z M1510.35927,288.946856 C1510.11239,289.42109 1510.00844,289.963214 1510.07241,290.501345 C1510.16037,291.246142 1510.55917,291.924047 1511.16886,292.36234 L1512.03942,292.989327 C1512.50019,293.320792 1513.04891,293.49551 1513.60763,293.49551 C1513.80553,293.49551 1514.00542,293.472547 1514.20133,293.428618 C1514.95095,293.25989 1515.59262,292.774674 1515.96244,292.100762 L1516.30027,291.480763 L1516.64009,292.100762 C1517.00891,292.774674 1517.65158,293.25989 1518.4012,293.428618 C1519.15083,293.597345 1519.93843,293.438601 1520.56411,292.989327 L1521.43167,292.363338 C1522.04136,291.926044 1522.44116,291.247141 1522.52912,290.503342 C1522.59209,289.965211 1522.48914,289.422088 1522.24226,288.946856 C1522.84196,288.904923 1523.41767,288.662315 1523.86744,288.252976 C1524.42116,287.745795 1524.74,287.023961 1524.74,286.273173 L1524.74,284.988249 C1524.74,284.233468 1524.41816,283.508638 1523.85745,283.001457 C1523.40967,282.596112 1522.83796,282.356499 1522.24226,282.315565 C1522.49214,281.835341 1522.59409,281.285229 1522.52512,280.741108 C1522.43117,279.995312 1522.02537,279.320402 1521.41068,278.886103 L1520.54412,278.276089 C1519.92144,277.8358 1519.13783,277.682048 1518.39721,277.851774 C1517.65458,278.0215 1517.0169,278.499727 1516.64809,279.165652 L1516.30027,279.792639 L1515.95444,279.165652 C1515.58563,278.499727 1514.94795,278.0215 1514.20532,277.851774 C1513.4587,277.678054 1512.6791,277.8358 1512.05941,278.27509 L1511.19185,278.886103 C1510.57816,279.318405 1510.17136,279.993315 1510.07641,280.739111 C1510.00745,281.284231 1510.10939,281.835341 1510.36027,282.316563 C1509.76457,282.357497 1509.19386,282.596112 1508.74608,283.000459 C1508.18437,283.50764 1507.86253,284.233468 1507.86253,284.988249 L1507.86253,286.273173 C1507.86253,287.023961 1508.18037,287.745795 1508.73509,288.252976 C1509.18386,288.662315 1509.75957,288.904923 1510.35927,288.946856 Z M1528.04273,288.946856 C1527.79586,289.42109 1527.69191,289.963214 1527.75588,290.501345 C1527.84383,291.246142 1528.24263,291.924047 1528.85232,292.36234 L1529.72288,292.989327 C1530.18365,293.320792 1530.73237,293.49551 1531.29109,293.49551 C1531.48799,293.49551 1531.68789,293.472547 1531.88379,293.428618 C1532.63341,293.25989 1533.27509,292.774674 1533.6439,292.10176 L1533.98373,291.480763 L1534.32356,292.100762 C1534.69237,292.774674 1535.33405,293.258892 1536.08367,293.428618 C1536.83229,293.598343 1537.62189,293.438601 1538.24758,292.989327 L1539.11614,292.36234 C1539.72583,291.924047 1540.12463,291.246142 1540.21258,290.501345 C1540.27555,289.963214 1540.1726,289.42109 1539.92573,288.946856 C1540.52443,288.904923 1541.10113,288.662315 1541.54991,288.251978 C1542.10463,287.745795 1542.42347,287.023961 1542.42347,286.273173 L1542.42347,284.988249 C1542.42347,284.233468 1542.10163,283.508638 1541.54091,283.001457 C1541.09314,282.596112 1540.52143,282.356499 1539.92573,282.315565 C1540.1756,281.835341 1540.27755,281.285229 1540.20858,280.741108 C1540.11463,279.994314 1539.70784,279.319404 1539.09415,278.886103 L1538.22759,278.276089 C1537.6049,277.8358 1536.8203,277.682048 1536.08067,277.851774 C1535.33805,278.0215 1534.70037,278.499727 1534.33155,279.165652 L1533.98373,279.793638 L1533.6379,279.16665 C1533.26909,278.500726 1532.63241,278.022498 1531.88979,277.851774 C1531.14716,277.683046 1530.36256,277.8358 1529.74287,278.27509 L1528.87531,278.886103 C1528.26162,279.318405 1527.85483,279.993315 1527.75987,280.739111 C1527.69091,281.284231 1527.79286,281.835341 1528.04373,282.316563 C1527.44803,282.357497 1526.87732,282.596112 1526.42955,283.000459 C1525.86783,283.50764 1525.54599,284.233468 1525.54599,284.988249 L1525.54599,286.273173 C1525.54599,287.023961 1525.86383,287.745795 1526.41855,288.252976 C1526.86733,288.662315 1527.44304,288.904923 1528.04273,288.946856 Z M1545.7262,288.946856 C1545.47932,289.42109 1545.37537,289.963214 1545.43934,290.501345 C1545.5273,291.246142 1545.9261,291.924047 1546.53579,292.36234 L1547.40635,292.989327 C1547.86712,293.320792 1548.41584,293.49551 1548.97456,293.49551 C1549.17146,293.49551 1549.37136,293.472547 1549.56726,293.428618 C1550.31688,293.25989 1550.95855,292.774674 1551.32737,292.10176 L1551.66719,291.480763 L1552.00702,292.100762 C1552.37584,292.774674 1553.01751,293.258892 1553.76713,293.428618 C1554.51576,293.598343 1555.30536,293.438601 1555.93104,292.989327 L1556.7996,292.36234 C1557.40929,291.924047 1557.80809,291.246142 1557.89605,290.501345 C1557.95902,289.963214 1557.85607,289.42109 1557.60819,288.946856 C1558.20789,288.904923 1558.7836,288.662315 1559.23437,288.251978 C1559.78809,287.745795 1560.10693,287.023961 1560.10693,286.273173 L1560.10693,284.988249 C1560.10693,284.233468 1559.78409,283.509637 1559.22438,283.001457 C1558.7756,282.596112 1558.20389,282.356499 1557.60819,282.315565 C1557.85907,281.834342 1557.96002,281.283232 1557.89205,280.739111 C1557.7971,279.993315 1557.3903,279.318405 1556.77761,278.886103 L1555.91105,278.276089 C1555.28837,277.8358 1554.50376,277.682048 1553.76414,277.851774 C1553.02151,278.0215 1552.38383,278.499727 1552.01502,279.165652 L1551.66719,279.793638 L1551.32137,279.16665 C1550.95256,278.500726 1550.31588,278.022498 1549.57325,277.851774 C1548.82963,277.683046 1548.04702,277.8358 1547.42634,278.27509 L1546.55878,278.886103 C1545.94409,279.319404 1545.53729,279.994314 1545.44334,280.741108 C1545.37338,281.285229 1545.47632,281.836339 1545.7272,282.316563 C1545.1315,282.357497 1544.55979,282.596112 1544.11201,283.001457 C1543.5503,283.508638 1543.22846,284.233468 1543.22846,284.988249 L1543.22846,286.273173 C1543.22846,287.023961 1543.5463,287.745795 1544.10102,288.251978 C1544.55079,288.662315 1545.1265,288.904923 1545.7262,288.946856 Z" id="Combined-Shape" fill="url(#linearGradient-1)"></path>
    </g>
</svg>