<svg xmlns="http://www.w3.org/2000/svg" width="62" height="62"><title>Combined Shape</title><desc>Created with Sketch.</desc><g fill="none" opacity=".9"><g fill="#E75B22" fill-rule="nonzero"><path d="M31 58.5c1.38 0 2.5-1.12 2.5-2.5s-1.12-2.5-2.5-2.5-2.5 1.12-2.5 2.5 1.12 2.5 2.5 2.5zm0 3c-3.04 0-5.5-2.46-5.5-5.5s2.46-5.5 5.5-5.5 5.5 2.46 5.5 5.5-2.46 5.5-5.5 5.5zM3.5 29c0 4.12 1.9 6.74 6 8.06V20.6c-3.56.56-6 3.18-6 8.4zM31 3.5c-10.66 0-18.5 6.84-18.5 15.5v20c0 .95-.87 1.66-1.8 1.47C4.03 39.1.5 35.17.5 29c0-7.1 3.87-10.85 9.06-11.42C10.36 7.86 19.33.5 31 .5c11.67 0 20.64 7.36 21.44 17.08 5.2.57 9.06 4.33 9.06 11.42 0 6.17-3.53 10.1-10.2 11.47-.93.2-1.8-.52-1.8-1.47V19c0-8.66-7.84-15.5-18.5-15.5zM58.5 29c0-5.22-2.44-7.84-6-8.4v16.46c4.1-1.32 6-3.94 6-8.06zm-9 10c0-.83.67-1.5 1.5-1.5s1.5.67 1.5 1.5c0 4.34-1 8.73-3.15 12.2-2.87 4.6-7.53 7.22-14.03 7.22-.83 0-1.5-.67-1.5-1.5s.67-1.5 1.5-1.5c9.83 0 14.18-6.98 14.18-16.42zM11 20.5c-.83 0-1.5-.67-1.5-1.5s.67-1.5 1.5-1.5c5.4 0 12.5-4.67 12.5-8.5 0-2 3-2 3 0 0 2.76 5.93 5.5 11.5 5.5 3.23 0 6.66-.94 10.3-2.83.74-.38 1.65-.1 2.03.64.38.74.1 1.65-.64 2.03-4.06 2.1-7.96 3.17-11.7 3.17-4.98 0-10.17-1.73-12.78-4.52-2.66 4.18-8.97 7.52-14.22 7.52zm21 20c3.64 0 6.5-2.07 6.5-4.5 0-.83.67-1.5 1.5-1.5s1.5.67 1.5 1.5c0 4.34-4.37 7.5-9.5 7.5s-9.5-3.16-9.5-7.5c0-.83.67-1.5 1.5-1.5s1.5.67 1.5 1.5c0 2.43 2.86 4.5 6.5 4.5zM25 29c-1.66 0-3-1.34-3-3s1.34-3 3-3 3 1.34 3 3-1.34 3-3 3zm13 0c-1.66 0-3-1.34-3-3s1.34-3 3-3 3 1.34 3 3-1.34 3-3 3z"/></g></g></svg>