<svg xmlns="http://www.w3.org/2000/svg" width="54" height="55"><title>Combined Shape</title><desc>Created with Sketch.</desc><g fill="none"><g fill="#E75B22"><path d="M42.16 26.02c.1 0 .17.02.26.02.8 0 1.5-.58 1.62-1.4.32-2 .18-4-.4-5.98-.67-2.25-1.88-4.3-3.52-5.93-1.78-1.75-3.9-2.87-6.14-3.22-1.42-.22-2.84-.13-4.2.28-.88.25-1.38 1.17-1.12 2.04.26.87 1.18 1.37 2.05 1.1.9-.25 1.83-.3 2.77-.16 1.55.25 3.05 1.05 4.33 2.3 1.23 1.23 2.18 2.83 2.68 4.54.45 1.5.55 3.02.3 4.54-.13.9.48 1.74 1.38 1.88M52.5 15.15c-1.06-3.27-2.86-6.3-5.2-8.76-2.42-2.56-5.36-4.44-8.5-5.47C35-.3 31-.3 27.16.93c-.87.28-1.34 1.2-1.06 2.08.3.87 1.2 1.34 2.08 1.07 3.2-1.04 6.43-1.05 9.58-.02 2.64.87 5.1 2.46 7.15 4.6 2.02 2.1 3.56 4.7 4.47 7.52 1.27 3.9 1.28 8.02 0 11.88-.27.86.2 1.8 1.07 2.07.17.06.34.1.5.1.7 0 1.35-.46 1.57-1.15 1.5-4.52 1.5-9.34 0-13.92M41.26 47.22l-8.35-10.9 3.6-2.76 8.36 10.9-3.6 2.76zm-6.16 3.92c-3.3 2.4-13.18-3.04-22.14-14.73-8.9-11.6-11.6-22.6-8.44-25.2 1.78-1.47 2.4-1.9 2.6-2.04.2-.07.4-.2.56-.34l6.93 9.04c-.08.06-.17.1-.25.17-3.38 3.3-2.6 10.13 1.83 15.9 3.3 4.32 7.7 6.82 11.4 6.82 1.27 0 2.45-.3 3.5-.9.08-.06.14-.14.2-.2l6.93 9c-.15.1-.3.24-.4.4-.17.15-.75.63-2.7 2.1zM13.45 3.5l8.36 10.9-3.6 2.75-8.36-10.9 3.6-2.76zM39 31.4c-1.04-1.35-3-1.6-4.36-.57l-3.9 2.98c-.97.77-1.37 2-1.13 3.13-.06.04-.14.04-.22.1-2.2 1.3-6.9-.27-10.58-5.1-3.7-4.82-4-9.74-2.15-11.54.06-.07.1-.15.14-.22.43.22.9.34 1.38.34.67 0 1.33-.2 1.9-.64l3.88-2.98c1.36-1.05 1.62-3 .58-4.37l-8.57-11.2c-1.05-1.35-3-1.6-4.37-.57L7.7 3.74C7 4.3 6.6 5.12 6.53 5.96c-.03 0-.05 0-.07 0-.68.06-1.16.33-4.03 2.7-5.2 4.28-1.8 17.07 7.92 29.75C18.3 48.8 27.06 55 33.08 55c1.5 0 2.85-.4 3.96-1.2 2.86-2.12 3.23-2.5 3.5-2.93.05-.1.07-.23.1-.35.07 0 .12.03.17.04.15.02.3.03.43.03.68 0 1.34-.24 1.9-.66L47 46.97c.66-.5 1.08-1.24 1.2-2.07.1-.82-.12-1.64-.62-2.3L39 31.4z"/></g></g></svg>