<svg width="177" height="32" xmlns="http://www.w3.org/2000/svg"><g fill="none" fill-rule="evenodd"><g fill="#EA5227" stroke="#EA5227" stroke-width=".2"><path d="M151.898 21.154c1.12 0 2.206.349 3.25 1.046.202.136.517.225.822.233.887.022 1.79.018 2.664.015.33-.001.661-.003.992-.003.003 0 .007.002.008 0 .578 0 .854-.265.895-.858.03-.417.077-.837.123-1.244.02-.17.039-.34.057-.511l.206-1.95.17-1.611c.039-.357.076-.713.113-1.07.066-.621.13-1.243.198-1.864.074-.696.15-1.39.225-2.086l.164-1.51.18-1.678.142-1.324c.037-.351.077-.702.116-1.054.088-.797.18-1.622.254-2.433.022-.245-.014-.421-.108-.526-.099-.108-.281-.163-.544-.163h-9.546c-1.43.001-2.906.001-4.36.007-.69.003-1.313.008-1.938.047-.23.014-.464.09-.452.547.01.33.184.514.505.535.098.006.197.005.303.003H147.77c1.316 0 2.677 0 4.015-.002h.005c.46 0 .782.16.982.49.24.398.254.819.04 1.216-.2.367-.527.545-1 .545h-4.195c-2.005 0-4.079 0-6.118-.005h-.01c-.614 0-.872.136-1 .535v.065c.145.433.439.595.974.54.08-.007.153-.006.225-.004l.08.001h1.919c2.062.001 4.196.002 6.294 0h.002c.446 0 .765.162.976.496.23.365.244.822.035 1.194-.206.368-.59.582-1.02.57a109.81 109.81 0 0 0-3.501-.015l-.93.006c-.42.001-.847.02-1.27.055-.116.01-.26.056-.343.334-.058.195-.038.367.057.498.11.151.31.236.564.24.524.01 1.059.008 1.576.006l.656-.001h1.801c2.102.001 4.275.002 6.412-.002H155c.296 0 .72.054 1.003.512.22.355.23.803.027 1.168a1.147 1.147 0 0 1-1.024.582h-.01c-3.14-.021-6.332-.017-9.42-.012l-1.971.002c-.44 0-.868.006-1.292.06a.403.403 0 0 0-.284.176.535.535 0 0 0-.077.42c.07.314.2.474.721.475h3.857l3.133.001c.378 0 .69.115.903.33.195.199.297.474.295.796-.005.699-.452 1.117-1.196 1.119-.944.002-1.888.002-2.832.002h-1.502c-.177 0-.358 0-.414.02-.025.052-.044.23-.062.403l-.065.602c-.164 1.534-.328 3.069-.494 4.603-.018.168-.013.398.117.545.102.115.274.174.51.176.375.002.75.001 1.125 0 .445 0 .904 0 1.357.004.403.004.777-.1 1.17-.325 1.135-.646 2.245-.969 3.323-.969m5.75 1.79c-.561 0-1.128-.004-1.69-.018-.404-.01-.798-.125-1.081-.314-1.908-1.276-3.89-1.295-6.06-.06-.466.266-.928.394-1.416.389-.45-.004-.91-.003-1.353-.003l-1.127-.001c-.475-.002-.737-.187-.873-.34-.198-.224-.28-.544-.239-.928l.495-4.602.064-.599c.082-.77.19-.866.962-.867h1.504c.943 0 1.887 0 2.83-.002.473 0 .704-.207.707-.63.002-.19-.05-.339-.152-.443-.12-.12-.311-.185-.556-.185h-3.133l-3.857-.001c-.698-.001-1.067-.266-1.198-.86a1.033 1.033 0 0 1 .154-.812.89.89 0 0 1 .622-.38c.452-.059.916-.064 1.353-.065l1.971-.002c3.089-.005 6.283-.01 9.425.012h.006c.264 0 .481-.12.597-.33a.659.659 0 0 0-.015-.666c-.125-.2-.29-.28-.589-.28h-.002c-2.138.004-4.311.003-6.413.003h-2.455c-.52.002-1.057.004-1.587-.005-.41-.007-.748-.164-.95-.443-.186-.257-.233-.587-.13-.93.121-.41.395-.654.77-.685a16.82 16.82 0 0 1 1.308-.057l.93-.005c1.152-.008 2.343-.015 3.516.015a.624.624 0 0 0 .582-.32.67.67 0 0 0-.022-.687c-.12-.19-.283-.267-.563-.267h-.002c-2.098.002-4.232.002-6.295.001h-1.919l-.091-.002a1.33 1.33 0 0 0-.164.002c-.784.08-1.29-.23-1.501-.92a.248.248 0 0 1-.011-.072v-.141a.25.25 0 0 1 .01-.07c.236-.81.879-.921 1.479-.921h.01c2.04.004 4.113.004 6.118.004l4.193.001h.002c.294 0 .459-.084.57-.288.132-.244.123-.474-.028-.723-.109-.18-.273-.254-.564-.254h-.004c-1.339.003-2.7.003-4.016.002h-1.427c-.11.002-.224.003-.34-.004-.578-.036-.947-.425-.963-1.014-.017-.632.315-1.016.911-1.053.638-.04 1.268-.045 1.967-.047 1.454-.006 2.931-.006 4.36-.006h1.054c2.831-.002 5.662-.003 8.494-.002.405 0 .71.11.904.325.191.21.27.515.235.903-.075.816-.167 1.643-.256 2.443l-.116 1.052-.142 1.324-.18 1.679-.164 1.51-.225 2.085a876.34 876.34 0 0 0-.197 1.863l-.113 1.07-.17 1.612-.207 1.949c-.018.172-.037.344-.057.515-.045.401-.092.816-.12 1.223-.061.861-.54 1.316-1.384 1.316h-.008l-.99.003c-.326.001-.656.003-.987.003M165.284 9.108a.355.355 0 0 0-.01.06c-.03.357-.073.717-.115 1.065l-.074.641-.198 1.872c-.09.866-.181 1.732-.275 2.598-.01.09-.009.214.053.293.048.062.135.1.258.113 1.544.168 3.089.333 4.634.497.207.022.352-.004.43-.077.076-.071.112-.208.108-.409-.025-1.423-.06-2.864-.093-4.218-.01-.41-.023-.826-.036-1.229-.012-.365-.024-.73-.034-1.094a.315.315 0 0 0-.015-.108.298.298 0 0 0-.117-.011c-.516.013-1.04.01-1.546.008l-.623-.002-.623.001c-.54.001-1.098.002-1.647-.004a.377.377 0 0 0-.077.004zm4.4 7.648c-.056 0-.116-.004-.178-.01-1.545-.165-3.09-.33-4.634-.497-.32-.035-.496-.18-.588-.297-.132-.17-.187-.399-.158-.664.094-.865.185-1.73.276-2.596.065-.624.13-1.248.197-1.872l.075-.648c.042-.344.084-.7.114-1.048.029-.346.22-.521.567-.521h.011c.547.006 1.103.005 1.64.004l.625-.001h.018c.202 0 .405 0 .607.002.503.002 1.023.005 1.532-.009.404-.01.622.2.633.607l.033 1.092c.013.403.027.82.037 1.232.033 1.355.068 2.798.093 4.222.006.35-.084.615-.266.787-.153.144-.366.217-.633.217zm6.072 1.083zm-3.494-10.338a644.485 644.485 0 0 0-1.578.002h-1.505c-1.507 0-3.066 0-4.6.004-.204.001-.558.067-.62.502-.045.322-.077.654-.108.975-.012.133-.025.266-.039.398l-.115 1.117c-.064.633-.13 1.267-.196 1.9l-.236 2.228-.152 1.425-.18 1.715-.141 1.336c-.03.289-.063.578-.094.866-.072.657-.147 1.335-.206 2.003-.015.168.015.296.087.38.097.113.27.142.398.146.373.011.74-.096 1.159-.34 2.3-1.332 4.495-1.3 6.523.098.162.112.308.175.412.178 1.096.033 2.262.063 3.4.042.385-.008.509-.31.545-.563.072-.51.124-1.02.18-1.562l.045-.438h-.053l-.673-.001c-.714-.006-.836-.483-.846-.766-.017-.492.337-.905.805-.94.13-.009.257-.007.38-.005.054.001.107.004.16.002.148 0 .3 0 .343-.017.027-.037.069-.183.109-.324a.395.395 0 0 1 .044-.1 4.26 4.26 0 0 0-.017-.031c-.139-.25-.22-.382-.419-.402a76.09 76.09 0 0 1-.795-.083c-.43-.047-.875-.095-1.312-.13-.862-.068-1.278-.5-1.307-1.36-.01-.316-.013-.634-.014-.942-.002-.256-.003-.52-.01-.779a739.32 739.32 0 0 0-.138-4.86c-.004-.122.006-.3.132-.43.126-.132.297-.144.415-.14.454.009.937.017 1.415-.004.33-.014.57-.314.559-.697-.006-.209-.053-.396-.546-.4-.402-.002-.808-.003-1.211-.003zM163.034 23l-.072-.001c-.321-.01-.58-.12-.749-.315-.113-.132-.242-.37-.207-.758.06-.672.134-1.354.206-2.013l.094-.864.14-1.336.182-1.715.151-1.425a779.804 779.804 0 0 0 .432-4.126l.115-1.118c.014-.131.026-.262.039-.394.031-.327.064-.665.111-.998.081-.573.504-.93 1.102-.93 1.534-.005 3.093-.005 4.601-.005h1.505l.74-.001c.673-.001 1.368-.002 2.052.002.83.006 1.02.485 1.031.885.02.655-.431 1.188-1.026 1.214-.493.021-.984.013-1.446.003-.02 0-.036 0-.048.002a39.63 39.63 0 0 1 .147 5.704c.002.305.004.62.014.927.02.6.245.83.857.879.443.035.892.083 1.326.13.263.029.526.057.79.083.46.045.655.396.797.653l.048.086a.256.256 0 0 1 .034.127v.143a.255.255 0 0 1-.038.135.719.719 0 0 1-.03.043l-.002.004c-.176.612-.276.683-.915.684l-.169-.002a3.69 3.69 0 0 0-.337.004c-.208.015-.36.196-.352.421.006.164.035.28.362.282.22.002.438.002.668.001h.327c.07 0 .136.03.182.083a.255.255 0 0 1 .061.195c-.027.244-.051.481-.075.715-.056.546-.11 1.062-.183 1.581-.086.61-.467.981-1.019.992a70.493 70.493 0 0 1-3.423-.042c-.2-.006-.426-.094-.67-.263-1.889-1.3-3.855-1.326-6.01-.077-.476.275-.905.405-1.343.405z"/><path d="M151.656 25.02c-.854 0-1.637.744-1.648 1.57-.01.847.494 1.404 1.285 1.418h.025c.839 0 1.643-.774 1.661-1.607a1.366 1.366 0 0 0-.362-.989 1.311 1.311 0 0 0-.96-.391m-.34 3.488h-.033c-1.076-.02-1.788-.793-1.774-1.926.014-1.086 1.034-2.063 2.147-2.063h.024c.503.006.963.2 1.294.544.335.35.514.829.502 1.348-.025 1.107-1.05 2.097-2.16 2.097m.58-6.012c-.736 0-1.471.23-2.2.687-1.613 1.013-2.345 2.455-2.176 4.284.08.864.496 1.649 1.171 2.21.746.618 1.726.903 2.76.8 2.168-.215 4.019-2.208 4.05-4.356l-.022-.17c-.018-.137-.036-.273-.056-.41-.185-1.27-.824-2.168-1.899-2.668a3.835 3.835 0 0 0-1.628-.377M151.04 31c-.996 0-1.929-.325-2.665-.936a3.743 3.743 0 0 1-1.35-2.55c-.185-2.005.647-3.649 2.408-4.755 1.4-.88 2.888-.997 4.3-.34 1.238.575 1.973 1.602 2.184 3.051.02.139.038.278.056.416l.025.187a.242.242 0 0 1 .002.036c-.024 2.4-2.084 4.629-4.499 4.868a4.683 4.683 0 0 1-.461.023M166.707 24.995c-.45 0-.877.18-1.202.505-.323.323-.5.747-.499 1.194.002.735.573 1.291 1.327 1.294h.004c.41 0 .834-.189 1.164-.518.327-.326.515-.744.515-1.147 0-.743-.573-1.325-1.304-1.328h-.005zm-.37 3.494h-.005c-1.021-.003-1.824-.79-1.827-1.794a2.172 2.172 0 0 1 .646-1.55c.419-.42.972-.651 1.556-.651h.006c1.012.003 1.804.806 1.804 1.829 0 .535-.242 1.083-.662 1.502-.423.422-.976.664-1.518.664zm.634-5.987c-.141 0-.284.007-.43.02-2.173.208-4.098 2.303-4.039 4.397a.37.37 0 0 1 0 .008c-.008 1.162.4 2.08 1.212 2.73 1.272 1.018 3.012 1.12 4.431.26 1.692-1.025 2.459-2.41 2.343-4.233a3.46 3.46 0 0 0-1.192-2.363c-.632-.54-1.43-.82-2.325-.82zM166.097 31a4.3 4.3 0 0 1-2.696-.951c-.924-.74-1.408-1.818-1.4-3.12-.064-2.38 2.034-4.671 4.493-4.906 1.528-.145 2.543.418 3.127.916a3.918 3.918 0 0 1 1.367 2.713c.127 2-.743 3.579-2.583 4.694a4.448 4.448 0 0 1-2.308.654zM159.039 24.481c-.772 0-1.538.003-2.292.01-.06 0-.166.01-.211.064-.039.048-.044.143-.014.262.218.866.251 1.665.102 2.443-.023.119-.012.184.007.206.007.008.05.048.228.05.41.004.827.003 1.23.002h.496a203.723 203.723 0 0 1 .571 0c.422 0 .858 0 1.286-.004.332-.004.337-.148.34-.234.029-.878.255-1.743.672-2.57.05-.098.049-.16.037-.18-.009-.013-.053-.039-.155-.04a282.57 282.57 0 0 0-2.297-.009M157.566 28c-.237 0-.475 0-.712-.003-.284-.003-.483-.077-.611-.226-.124-.144-.162-.345-.114-.598.137-.71.106-1.444-.096-2.244-.086-.34.01-.552.107-.67.091-.112.27-.247.603-.25 1.5-.012 3.046-.012 4.597 0 .353.003.513.169.577.267.114.175.11.404-.01.642a5.599 5.599 0 0 0-.623 2.377c-.014.433-.327.694-.836.7-.432.005-.87.004-1.292.003a254.273 254.273 0 0 0-.541 0l-.525.001-.524.001M172.845 24.48c-.048 0-.094.002-.137.007-.106.01-.182.044-.215.092-.039.058-.027.149-.01.215.195.786.228 1.594.1 2.469-.023.16.006.202.01.206.003.004.037.04.19.044.323.008.613.008.886 0 .27-.006.604-.114.67-.586.086-.614.15-1.259.192-1.915.01-.17-.02-.297-.09-.378-.077-.088-.213-.138-.405-.148a6.912 6.912 0 0 0-.443-.003l-.21.002-.029-.002h-.303l-.114-.001-.092-.001m.418 3.519c-.156 0-.32-.002-.492-.006-.247-.006-.422-.077-.536-.216-.114-.14-.151-.331-.114-.587.119-.81.089-1.555-.091-2.277-.074-.297.003-.496.08-.61.08-.117.24-.263.55-.296.099-.01.193-.008.284-.007l.105.001h.333a17.023 17.023 0 0 0 .205 0c.154-.002.313-.004.472.004.321.016.567.12.73.308.157.18.227.426.208.73a25.617 25.617 0 0 1-.196 1.952c-.085.609-.504.982-1.12.999-.134.003-.273.005-.418.005"/><path d="M145.947 24.481c-.09 0-.179.002-.267.006-.433.02-.767.216-.813.476-.119.669-.21 1.36-.27 2.054-.027.304.154.463.554.487.323.02.685.02 1.105.002.255-.011.295-.111.3-.217.039-.889.312-1.763.81-2.597.046-.077.046-.127.032-.147-.016-.023-.082-.05-.19-.057-.17-.01-.342-.008-.524-.005-.086.001-.173.003-.258.002-.08 0-.158 0-.237-.002l-.242-.002M145.682 28a9.43 9.43 0 0 1-.576-.017c-.73-.044-1.152-.427-1.102-1 .062-.705.154-1.408.275-2.088.087-.49.649-.855 1.367-.888.187-.008.373-.006.552-.004.079.001.157.003.236.002l.239-.002c.189-.003.384-.006.582.006.303.02.537.126.658.298.12.168.116.38-.012.594-.47.785-.715 1.572-.752 2.405-.018.396-.347.657-.86.68-.215.01-.417.014-.607.014"/></g><path d="M.546 12.754a.559.559 0 0 1-.546-.56v-8.68c0-.308.252-.56.546-.56h6.09c.28 0 .504.224.504.504s-.224.504-.504.504h-5.53v3.346h4.9c.28 0 .504.238.504.504 0 .28-.224.504-.504.504h-4.9v3.43h5.6c.28 0 .504.224.504.504s-.224.504-.504.504H.546zm8.834-.476v-8.82c0-.294.252-.546.546-.546h.154c.252 0 .406.126.56.322l5.95 7.588V3.43c0-.294.238-.546.546-.546.294 0 .532.252.532.546v8.848c0 .294-.21.518-.504.518h-.056c-.238 0-.406-.14-.574-.336l-6.076-7.77v7.588a.547.547 0 0 1-.546.546.544.544 0 0 1-.532-.546zm13.65-.014V3.976h-2.842a.514.514 0 0 1-.518-.504c0-.28.238-.518.518-.518h6.804c.28 0 .518.238.518.518s-.238.504-.518.504H24.15v8.288c0 .308-.252.56-.56.56a.562.562 0 0 1-.56-.56zm6.482 0v-8.75c0-.308.252-.56.546-.56h3.668c1.204 0 2.17.364 2.786.98.476.476.756 1.162.756 1.932v.028c0 1.61-1.092 2.548-2.618 2.842l2.436 3.136c.112.126.182.252.182.406 0 .294-.28.546-.56.546-.224 0-.392-.126-.518-.294l-2.758-3.584h-2.814v3.318c0 .308-.252.56-.56.56a.559.559 0 0 1-.546-.56zm1.106-4.312h3.01c1.47 0 2.52-.756 2.52-2.016v-.028c0-1.204-.924-1.932-2.506-1.932h-3.024v3.976zm9.562 4.802a.559.559 0 0 1-.546-.56v-8.68c0-.308.252-.56.546-.56h6.09c.28 0 .504.224.504.504s-.224.504-.504.504h-5.53v3.346h4.9c.28 0 .504.238.504.504 0 .28-.224.504-.504.504h-4.9v3.43h5.6c.28 0 .504.224.504.504s-.224.504-.504.504h-6.16zm13.384.168c-3.08 0-4.984-2.24-4.984-5.04v-.028c0-2.688 1.974-5.068 4.914-5.068 1.484 0 2.45.392 3.346 1.05a.559.559 0 0 1-.322 1.008.584.584 0 0 1-.35-.14c-.7-.532-1.484-.896-2.716-.896-2.17 0-3.724 1.834-3.724 4.018v.028c0 2.338 1.498 4.074 3.878 4.074 1.12 0 2.156-.434 2.828-.98V8.512h-2.632a.496.496 0 0 1 0-.994h3.15c.294 0 .546.252.546.56v2.982c0 .266-.126.504-.378.672-.896.658-2.1 1.19-3.556 1.19zm5.754-.602c0-.084.014-.182.07-.294l3.976-8.694c.14-.308.35-.49.7-.49h.056c.336 0 .56.182.686.49l3.976 8.68c.042.098.07.196.07.28a.532.532 0 0 1-.532.532c-.266 0-.448-.182-.546-.406l-1.022-2.254h-5.376l-1.022 2.282c-.098.238-.28.378-.532.378a.502.502 0 0 1-.504-.504zm2.492-3.164h4.508l-2.254-5.012-2.254 5.012zm13.356 3.108v-8.75c0-.308.252-.56.546-.56h3.668c1.204 0 2.17.364 2.786.98.476.476.756 1.162.756 1.932v.028c0 1.61-1.092 2.548-2.618 2.842l2.436 3.136c.112.126.182.252.182.406 0 .294-.28.546-.56.546-.224 0-.392-.126-.518-.294l-2.758-3.584h-2.814v3.318c0 .308-.252.56-.56.56a.559.559 0 0 1-.546-.56zm1.106-4.312h3.01c1.47 0 2.52-.756 2.52-2.016v-.028c0-1.204-.924-1.932-2.506-1.932h-3.024v3.976zm8.344 4.368c0-.084.014-.182.07-.294l3.976-8.694c.14-.308.35-.49.7-.49h.056c.336 0 .56.182.686.49l3.976 8.68c.042.098.07.196.07.28a.532.532 0 0 1-.532.532c-.266 0-.448-.182-.546-.406l-1.022-2.254h-5.376l-1.022 2.282c-.098.238-.28.378-.532.378a.502.502 0 0 1-.504-.504zm2.492-3.164h4.508l-2.254-5.012-2.254 5.012zm2.24-7.154c-.154 0-.266-.084-.266-.196 0-.07.028-.154.07-.21l.84-1.274c.14-.21.294-.322.504-.322.336 0 .756.224.756.42 0 .112-.084.21-.196.322l-1.05.994c-.224.224-.392.266-.658.266zm6.916 10.262v-8.75c0-.308.252-.56.546-.56h3.122c2.212 0 3.668 1.176 3.668 3.108v.028c0 2.114-1.764 3.206-3.85 3.206h-2.38v2.968c0 .308-.252.56-.56.56a.559.559 0 0 1-.546-.56zm1.106-3.976h2.422c1.624 0 2.688-.868 2.688-2.156v-.028c0-1.4-1.05-2.128-2.632-2.128H97.37v4.312zm8.344 3.976v-8.82c0-.308.252-.56.546-.56.308 0 .56.252.56.56v8.82c0 .308-.252.56-.56.56a.559.559 0 0 1-.546-.56zm3.976-.07v-8.68c0-.308.252-.56.546-.56h2.856c3.08 0 5.208 2.114 5.208 4.872v.028c0 2.758-2.128 4.9-5.208 4.9h-2.856a.559.559 0 0 1-.546-.56zm1.106-.462h2.296c2.478 0 4.06-1.68 4.06-3.85v-.028c0-2.17-1.582-3.878-4.06-3.878h-2.296v7.756zm9.17.588c0-.084.014-.182.07-.294l3.976-8.694c.14-.308.35-.49.7-.49h.056c.336 0 .56.182.686.49l3.976 8.68c.042.098.07.196.07.28a.532.532 0 0 1-.532.532c-.266 0-.448-.182-.546-.406l-1.022-2.254h-5.376l-1.022 2.282c-.098.238-.28.378-.532.378a.502.502 0 0 1-.504-.504zm2.492-3.164h4.508l-2.254-5.012-2.254 5.012z" fill="#9B9B9B"/><path d="M7.36 31.48C3 31.48 0 28.42 0 24.28v-.04C0 20.26 3.1 17 7.34 17c2.12 0 3.52.48 4.78 1.36a1.52 1.52 0 0 1-.88 2.76 1.5 1.5 0 0 1-.94-.32c-.84-.6-1.74-.96-3.06-.96-2.24 0-4.02 1.98-4.02 4.36v.04c0 2.56 1.76 4.44 4.24 4.44 1.12 0 2.12-.28 2.9-.84v-2H8.28c-.74 0-1.34-.58-1.34-1.32 0-.74.6-1.34 1.34-1.34h3.52c.86 0 1.54.68 1.54 1.54v3.4c0 .9-.34 1.52-1.08 1.96-1.14.7-2.8 1.4-4.9 1.4zm7.98-1.56c0-.22.08-.44.18-.66l4.88-11.02c.34-.76.96-1.22 1.8-1.22h.18c.84 0 1.44.46 1.78 1.22l4.88 11.02c.1.22.16.42.16.62 0 .82-.64 1.48-1.46 1.48-.72 0-1.2-.42-1.48-1.06l-.94-2.2h-6.16l-.98 2.3c-.26.6-.78.96-1.42.96-.8 0-1.42-.64-1.42-1.44zm16.28-.1V18.78c0-.86.68-1.54 1.54-1.54h4.86c1.78 0 3.16.5 4.08 1.42.78.78 1.2 1.88 1.2 3.2v.04c0 2.2-1.1 3.56-2.8 4.26l2.14 2.6c.3.38.5.7.5 1.18 0 .86-.72 1.42-1.46 1.42-.7 0-1.16-.34-1.52-.8l-3-3.8H34.7v3.06c0 .86-.68 1.54-1.54 1.54s-1.54-.68-1.54-1.54zm13.5.1c0-.22.08-.44.18-.66l4.88-11.02c.34-.76.96-1.22 1.8-1.22h.18c.84 0 1.44.46 1.78 1.22l4.88 11.02c.1.22.16.42.16.62 0 .82-.64 1.48-1.46 1.48-.72 0-1.2-.42-1.48-1.06l-.94-2.2h-6.16l-.98 2.3c-.26.6-.78.96-1.42.96-.8 0-1.42-.64-1.42-1.44zm16.28-.08V18.7c0-.86.68-1.54 1.54-1.54h.32c.74 0 1.18.36 1.6.9l5.94 7.8v-7.22a1.52 1.52 0 1 1 3.04 0v11.14c0 .86-.68 1.54-1.54 1.54h-.1c-.74 0-1.18-.36-1.6-.9l-6.16-8.08v7.5a1.52 1.52 0 1 1-3.04 0zm19.06-.02v-9.74H77.5c-.78 0-1.42-.64-1.42-1.42 0-.78.64-1.42 1.42-1.42h9c.78 0 1.42.64 1.42 1.42 0 .78-.64 1.42-1.42 1.42h-2.96v9.74c0 .86-.68 1.54-1.54 1.54s-1.54-.68-1.54-1.54zm9.84 0V18.66c0-.86.68-1.54 1.54-1.54s1.54.68 1.54 1.54v11.16c0 .86-.68 1.54-1.54 1.54s-1.54-.68-1.54-1.54zm6.58-.12V18.78c0-.86.68-1.54 1.54-1.54h3.92c4.4 0 7.44 3.02 7.44 6.96v.04c0 3.94-3.04 7-7.44 7h-3.92c-.86 0-1.54-.68-1.54-1.54zm14.68.22c0-.22.08-.44.18-.66l4.88-11.02c.34-.76.96-1.22 1.8-1.22h.18c.84 0 1.44.46 1.78 1.22l4.88 11.02c.1.22.16.42.16.62 0 .82-.64 1.48-1.46 1.48-.72 0-1.2-.42-1.48-1.06l-.94-2.2h-6.16l-.98 2.3c-.26.6-.78.96-1.42.96-.8 0-1.42-.64-1.42-1.44zm16.92-4.2l-.86-7.52c-.06-.58.26-1.02.8-1.02h1.96c.54 0 .86.44.8 1.02l-.86 7.52c-.06.54-.42.88-.92.88s-.86-.34-.92-.88zm-.82 3.9c0-.96.74-1.7 1.74-1.7s1.74.74 1.74 1.7v.04c0 .96-.74 1.7-1.74 1.7s-1.74-.74-1.74-1.7v-.04zM20.3 25.38h3.88l-1.94-4.62-1.94 4.62zm14.4-1.34h3.12c1.5 0 2.36-.8 2.36-1.98v-.04c0-1.32-.92-2-2.42-2H34.7v4.02zm15.38 1.34h3.88l-1.94-4.62-1.94 4.62zm49.88 3.08h2.38c2.52 0 4.22-1.7 4.22-4.18v-.04c0-2.48-1.7-4.22-4.22-4.22h-2.38v8.44zm16.56-3.08h3.88l-1.94-4.62-1.94 4.62z" fill="#EA5227"/></g></svg>