<svg width="21" height="20" xmlns="http://www.w3.org/2000/svg"><g fill="#FEB902" fill-rule="evenodd"><path d="M10.804 17.299a2.36 2.36 0 0 0-2.352-2.367A2.36 2.36 0 0 0 6.1 17.299a2.36 2.36 0 0 0 2.352 2.367 2.36 2.36 0 0 0 2.352-2.367zm-3.275 0a.93.93 0 0 1 .923-.939.93.93 0 0 1 .923.939.93.93 0 0 1-.923.938.93.93 0 0 1-.923-.938zm10.234 0a2.36 2.36 0 0 0-2.352-2.367 2.36 2.36 0 0 0-2.352 2.367 2.36 2.36 0 0 0 2.352 2.367 2.36 2.36 0 0 0 2.352-2.367zm-3.275 0a.93.93 0 0 1 .923-.939.93.93 0 0 1 .923.939.93.93 0 0 1-.923.938.93.93 0 0 1-.923-.938zm5.52-13.251a.61.61 0 0 1-.12-.068c-.262-.165-.32-.444-.263-.62l-2.4 7.595a.273.273 0 0 1-.039.07c.044-.053.127-.11.315-.11H6.77c.232 0 .309.064.35.123a.67.67 0 0 1-.075-.152l-2.4-7.453a.496.496 0 0 1-.14.489c-.1.1-.187.126-.242.126h15.744zM3.286 3.87l2.4 7.452c.174.547.505 1.022 1.085 1.022h10.73c.55 0 .927-.459 1.086-.957l2.4-7.595c.12-.38.037-.784-.337-1.02-.203-.128-.374-.152-.642-.152H4.264c-.679 0-1.21.527-.978 1.25z"/><path d="M3.792.985a.714.714 0 1 0-1.324.536l.82 2.02a.714.714 0 0 0 1.323-.537L3.792.984zm1.95 10.726l-1.234 3.292a.714.714 0 1 0 1.338.5l1.249-3.335c-.003.015-.071.081-.28.081a.714.714 0 0 0 0-1.428c-.514 0-.926.404-1.073.89z"/><path d="M2.937 1.429a.714.714 0 0 0 0-1.429H.714a.714.714 0 1 0 0 1.429h2.223zm15.111 14.729a.714.714 0 1 0 0-1.429H5.158a.714.714 0 0 0 0 1.429h12.89z"/></g></svg>