<svg width="22" height="22" xmlns="http://www.w3.org/2000/svg"><path d="M7.57 16.33a1.347 1.347 0 1 1 0-1.904 1.348 1.348 0 0 1 0 1.904zm-2.82-2.82a2.645 2.645 0 0 0 .001 3.736 2.645 2.645 0 0 0 3.735 0 2.645 2.645 0 0 0 0-3.735 2.644 2.644 0 0 0-3.735 0zM17.935 2.796a.555.555 0 0 1 0 .785L12.17 9.345a.555.555 0 1 1-.784-.785l5.765-5.765a.555.555 0 0 1 .784 0zm2.72 1.806l-2.158.297a.648.648 0 0 0-.56.622l-.054 1.867-1.933.115a.648.648 0 0 0-.608.613l-.116 2.253-.505.505-.977.977c.187.468.31.954.383 1.447a6.446 6.446 0 0 1-1.81 5.52c-2.52 2.519-6.618 2.519-9.134 0a6.47 6.47 0 0 1 0-9.136A6.44 6.44 0 0 1 8.7 7.87a6.45 6.45 0 0 1 1.448.383l.976-.976 5.958-5.958 3.334.298.24 2.984zm.42-4.224l-4.18-.374a.647.647 0 0 0-.514.187L9.792 6.777C7.194 6.072 4.3 6.73 2.267 8.767c-3.023 3.022-3.023 7.942 0 10.966 3.02 3.023 7.94 3.023 10.964 0 2.036-2.037 2.694-4.93 1.988-7.528l1.098-1.098a.648.648 0 0 0 .188-.424l.1-1.923 1.945-.116a.647.647 0 0 0 .608-.628l.056-1.91 2.223-.305a.644.644 0 0 0 .557-.693l-.333-4.14a.646.646 0 0 0-.587-.592z" fill="#e75a25" fill-rule="evenodd"/></svg>