<svg width="20" height="20" xmlns="http://www.w3.org/2000/svg"><g fill="#41B505" fill-rule="evenodd"><path d="M17.241 7.241a7.241 7.241 0 1 0-14.482 0 .69.69 0 0 0 1.379 0 5.862 5.862 0 0 1 11.724 0 .69.69 0 1 0 1.38 0z" fill-rule="nonzero"/><path d="M1.38 9.654v2.761c0 .383.306.688.689.688.384 0 .69-.306.69-.688V9.654a.686.686 0 0 0-.69-.688.686.686 0 0 0-.69.688zm-1.38 0C0 8.51.923 7.586 2.069 7.586c1.144 0 2.069.922 2.069 2.068v2.761a2.065 2.065 0 0 1-2.069 2.068A2.065 2.065 0 0 1 0 12.415V9.654zM17.241 9.654v2.761c0 .383.307.688.69.688.384 0 .69-.306.69-.688V9.654a.686.686 0 0 0-.69-.688.686.686 0 0 0-.69.688zm-1.379 0c0-1.144.923-2.068 2.069-2.068 1.144 0 2.069.922 2.069 2.068v2.761a2.065 2.065 0 0 1-2.069 2.068 2.065 2.065 0 0 1-2.069-2.068V9.654z" fill-rule="nonzero"/><path d="M15.862 11.034v3.972a2.237 2.237 0 0 1-2.24 2.235h-2.417a.69.69 0 1 0 0 1.38h2.417a3.617 3.617 0 0 0 3.62-3.615v-3.972a.69.69 0 1 0-1.38 0zM4.138 11.38V7.183a.69.69 0 1 0-1.38 0v4.195a.69.69 0 1 0 1.38 0z" fill-rule="nonzero"/><path d="M17.241 11.38V7.183a.69.69 0 1 0-1.379 0v4.195a.69.69 0 1 0 1.38 0z" fill-rule="nonzero"/><circle cx="7.586" cy="10.345" r="1.379"/><circle cx="10.345" cy="17.931" r="2.069"/><circle cx="13.103" cy="10.345" r="1.379"/></g></svg>