<svg width="25" height="24" xmlns="http://www.w3.org/2000/svg"><path d="M22.003 12.278L12.15 3.531l-9.853 8.747-.996-1.121 10.85-9.632L23 11.157l-.997 1.121zM19.01 22.22H5.29V11.359l6.86-6.09 6.86 6.089V22.22zM5.29 1.299h1.887v2.902L5.29 5.877V1.299zm7.723-.746a1.298 1.298 0 0 0-1.727 0L8.478 3.046V.65a.65.65 0 0 0-.65-.65H4.64a.65.65 0 0 0-.65.65v6.381L.437 10.185a1.302 1.302 0 0 0-.109 1.835l.996 1.121a1.296 1.296 0 0 0 1.835.109l.831-.737V22.87c0 .359.291.65.65.65h15.02a.65.65 0 0 0 .65-.65V12.513l.83.737a1.296 1.296 0 0 0 1.835-.109l.996-1.121a1.3 1.3 0 0 0-.109-1.835L13.013.553z" fill="#e75a25" fill-rule="evenodd"/></svg>