<svg width="17" height="24" xmlns="http://www.w3.org/2000/svg"><path d="M3.99 5.77h4.414c.854 0 .854-1.281 0-1.281H3.99c-.855 0-.855 1.282 0 1.282zm4.414 10.21H3.99c-.855 0-.855 1.283 0 1.283h4.414c.854 0 .854-1.282 0-1.282zm4.414-2.437H3.99c-.855 0-.855 1.282 0 1.282h8.828c.855 0 .855-1.282 0-1.282zm0-2.44H3.99c-.855 0-.855 1.284 0 1.284h8.828c.855 0 .855-1.283 0-1.283zm2.708 11.013V6.742h-3.982a1.481 1.481 0 0 1-1.478-1.48v-3.98H1.479a.198.198 0 0 0-.197.197v20.637c0 .104.094.197.197.197h13.85a.208.208 0 0 0 .197-.197zM11.348 5.263a.2.2 0 0 0 .196.197h3.075l-3.271-3.271v3.074zm5.46.838v16.015a1.49 1.49 0 0 1-1.48 1.479H1.479c-.81 0-1.478-.665-1.478-1.48V1.48C.001.665.665 0 1.48 0h9.228c.01 0 .019.007.029.007a.61.61 0 0 1 .187.037c.014.005.028.008.04.014a.641.641 0 0 1 .197.13l5.46 5.46c.06.06.1.127.13.197.007.013.01.027.015.04a.615.615 0 0 1 .037.188c0 .01.006.019.006.029zm-3.99 3.847H3.99c-.855 0-.855-1.282 0-1.282h8.828c.855 0 .855 1.282 0 1.282z" fill="#e75a25" fill-rule="evenodd"/></svg>