<svg xmlns="http://www.w3.org/2000/svg" width="18" height="19"><path fill="#E75B22" d="M14.24 8.74a.55.55 0 0 0 .54-.46 4.67 4.67 0 0 0-1.3-4c-.6-.6-1.32-.97-2.07-1.1a3.2 3.2 0 0 0-1.4.1.55.55 0 1 0 .3 1.06c.3-.1.62-.1.93-.06.53.1 1.03.36 1.46.78.4.4.72.95.9 1.52.14.5.17 1 .1 1.52a.55.55 0 0 0 .54.64zm.82 6.2l-2.8-3.67-1.22.92 2.8 3.65 1.22-.92zM10.5 13.3a.27.27 0 0 1-.07.08 2.26 2.26 0 0 1-1.17.3c-1.24 0-2.72-.84-3.83-2.3-1.48-1.93-1.75-4.22-.6-5.33 0-.02.05-.03.07-.05L2.58 2.96a.55.55 0 0 1-.2.1c-.06.06-.26.2-.86.7-1.06.87-.16 4.56 2.83 8.46 3 3.93 6.33 5.76 7.43 4.94.66-.48.85-.64.9-.7a.55.55 0 0 1 .15-.13L10.5 13.3zM3.3 2.1l2.8 3.66 1.22-.93-2.8-3.66-1.2.93zm12.67 12.2c.17.22.24.5.2.77a1.03 1.03 0 0 1-.4.7l-1.3 1c-.2.14-.4.2-.63.2h-.2c0 .03 0 .07-.04.1-.1.16-.2.28-1.17 1-.37.26-.82.4-1.33.4-2.02 0-4.96-2.1-7.63-5.57C.2 8.64-.93 4.35.8 2.9c.97-.8 1.14-.88 1.36-.9.03-.02.03-.03.03-.05.03-.28.17-.52.4-.7l1.3-1a1.05 1.05 0 0 1 1.46.2L8.24 4.2c.35.46.26 1.12-.2 1.47l-1.3 1a1.04 1.04 0 0 1-1.1.1c-.02.03-.03.06-.05.08-.63.6-.53 2.25.7 3.87 1.25 1.62 2.82 2.15 3.56 1.7.03 0 .06 0 .08-.02a1.04 1.04 0 0 1 .38-1.05l1.3-1a1.05 1.05 0 0 1 1.47.2l2.87 3.75zm1.13-4.16a.55.55 0 0 1-.52-.72 6.4 6.4 0 0 0 0-4 6.67 6.67 0 0 0-1.5-2.5 5.86 5.86 0 0 0-2.4-1.56 5.1 5.1 0 0 0-3.22 0A.55.55 0 0 1 9.12.32a6.25 6.25 0 0 1 3.9 0 6.96 6.96 0 0 1 2.86 1.84 7.77 7.77 0 0 1 1.74 2.95c.5 1.53.5 3.14 0 4.66a.55.55 0 0 1-.52.38z"/></svg>