<svg width="18" height="20" xmlns="http://www.w3.org/2000/svg"><g fill="#FFF" fill-rule="evenodd"><path d="M6.005 5.12l-.59.59c-.486.485-.556 1.332-.153 1.89 0 0 .44.745 1.903 2.209 1.464 1.463 2.236 1.926 2.236 1.926.55.408 1.402.335 1.89-.152l.59-.59a.414.414 0 0 0-.001-.582l-1.177-1.177a.415.415 0 0 0-.588 0c-.162.162-.468.227-.677.136 0 0-.5-.138-1.086-.725-.588-.587-.724-1.085-.724-1.085a.67.67 0 0 1 .137-.676.415.415 0 0 0 0-.588L6.586 5.12a.415.415 0 0 0-.582 0z"/><path d="M0 8.956C0 4.01 4.03 0 9 0s9 4.01 9 8.956-4.03 8.956-9 8.956a9.058 9.058 0 0 1-2.218-.274 1522.845 1522.845 0 0 1-2.471 1.85l-.506.377a.667.667 0 0 1-1.066-.569l.037-.629a6482.763 6482.763 0 0 1 .164-2.777l.018-.296A8.914 8.914 0 0 1 0 8.956zm4.622 8.638l1.59-1.19a.67.67 0 0 1 .618-.129c.698.205 1.427.31 2.17.31 4.234 0 7.667-3.416 7.667-7.629 0-4.213-3.433-7.63-7.667-7.63s-7.667 3.417-7.667 7.63a7.595 7.595 0 0 0 2.74 5.845l.227.216-.146 2.928.468-.35z" fill-rule="nonzero"/></g></svg>