<svg width="30" height="30" xmlns="http://www.w3.org/2000/svg"><path d="M18.375 11.626A4.755 4.755 0 0 0 15 10.23c-1.318 0-2.51.534-3.374 1.397l-.002-.002-.002.002A4.756 4.756 0 0 0 10.23 15c0 1.318.534 2.51 1.397 3.374a4.758 4.758 0 0 0 3.374 1.396c1.318 0 2.51-.534 3.374-1.396A4.755 4.755 0 0 0 19.772 15a4.752 4.752 0 0 0-1.397-3.374M15 8.431a6.546 6.546 0 0 1 4.693 1.976A6.551 6.551 0 0 1 21.57 15a6.546 6.546 0 0 1-1.924 4.645A6.55 6.55 0 0 1 15 21.569a6.55 6.55 0 0 1-4.645-1.924A6.546 6.546 0 0 1 8.431 15c0-1.81.737-3.452 1.927-4.643l-.002-.002a6.546 6.546 0 0 1 4.645-1.924m2.187-3.641l-.268-2.83a11.407 11.407 0 0 0-3.838 0l-.262 2.772a.9.9 0 0 1-.641.834 9.714 9.714 0 0 0-.908.319l-.039.017c-.3.124-.59.262-.872.412a.897.897 0 0 1-1.033-.079L7.135 4.423a11.318 11.318 0 0 0-2.71 2.711l1.812 2.191h-.001a.895.895 0 0 1 .098.998c-.157.293-.301.596-.43.908h-.002c-.123.298-.235.614-.335.946h-.002c-.1.34-.4.6-.774.636l-2.83.268A11.355 11.355 0 0 0 1.798 15a11.38 11.38 0 0 0 .163 1.918l2.772.262a.9.9 0 0 1 .834.641 9.6 9.6 0 0 0 .319.907l.017.039c.124.3.262.591.413.873a.9.9 0 0 1-.079 1.033l-1.812 2.192a11.296 11.296 0 0 0 1.241 1.47 11.123 11.123 0 0 0 1.47 1.24l2.19-1.812a.899.899 0 0 1 .998-.098c.286.155.575.293.862.414l.046.017c.304.127.622.24.947.337l-.001.002c.34.1.601.4.636.774l.268 2.83c.63.107 1.274.16 1.919.16s1.289-.053 1.92-.16l.261-2.772a.898.898 0 0 1 .642-.834 9.79 9.79 0 0 0 .907-.319l.039-.018c.3-.123.59-.26.872-.412a.897.897 0 0 1 1.033.079l2.192 1.812a10.976 10.976 0 0 0 1.47-1.241 11.282 11.282 0 0 0 1.24-1.47l-1.812-2.19a.897.897 0 0 1-.098-.998 9.683 9.683 0 0 0 .769-1.855v.001a.898.898 0 0 1 .775-.636l2.83-.268a11.314 11.314 0 0 0 .163-1.92c0-.433-.024-.852-.069-1.257l-.003-.023a10.885 10.885 0 0 0-.091-.638l-2.772-.262a.899.899 0 0 1-.834-.642 9.79 9.79 0 0 0-.319-.907l-.017-.039a9.932 9.932 0 0 0-.413-.873.9.9 0 0 1 .079-1.033l1.812-2.19a11.291 11.291 0 0 0-1.24-1.47 11.291 11.291 0 0 0-1.47-1.242l-2.192 1.812a.897.897 0 0 1-.997.098 9.785 9.785 0 0 0-1.855-.767v-.002a.898.898 0 0 1-.635-.774m1.458-3.615l.271 2.86a12.327 12.327 0 0 1 1.066.442l2.251-1.862a.9.9 0 0 1 1.071-.056 13.327 13.327 0 0 1 2.303 1.834 13.163 13.163 0 0 1 1.848 2.326.897.897 0 0 1-.07 1.047l-1.862 2.251c.081.173.16.349.233.526l.019.05c.067.164.13.328.189.491l2.908.275a.895.895 0 0 1 .79.693c.112.482.197.97.254 1.463l.002.028a12.992 12.992 0 0 1-.002 2.937l-.001.005a13.1 13.1 0 0 1-.252 1.463.897.897 0 0 1-.838.696l-2.861.271a12.209 12.209 0 0 1-.442 1.067l1.863 2.252c.258.312.27.749.055 1.07-.256.408-.537.807-.844 1.192a13.032 13.032 0 0 1-3.315 2.96.899.899 0 0 1-1.048-.071l-2.251-1.863c-.173.082-.348.16-.525.233l-.05.02c-.164.067-.328.13-.491.19l-.275 2.907a.896.896 0 0 1-.693.789v.002c-.972.224-1.963.337-2.948.337-.985 0-1.976-.113-2.949-.337a.899.899 0 0 1-.696-.838l-.27-2.86a11.162 11.162 0 0 1-.542-.21l-.046-.02a11.727 11.727 0 0 1-.479-.213l-2.252 1.863a.899.899 0 0 1-1.07.055 13.129 13.129 0 0 1-2.303-1.833 13.33 13.33 0 0 1-1.848-2.326.899.899 0 0 1 .07-1.047l1.862-2.252a12.35 12.35 0 0 1-.233-.526l-.019-.05c-.067-.164-.13-.327-.19-.49L1.13 18.64a.897.897 0 0 1-.79-.693 12.941 12.941 0 0 1-.253-1.463 13 13 0 0 1 .252-4.433.897.897 0 0 1 .837-.697l2.862-.271c.064-.179.135-.359.209-.538v-.003c.073-.177.15-.353.232-.526l-1.863-2.25a.899.899 0 0 1-.055-1.071 13.116 13.116 0 0 1 4.16-4.15.897.897 0 0 1 1.046.07l2.252 1.862c.173-.081.348-.16.525-.233l.051-.019c.163-.067.327-.13.49-.19l.275-2.907a.897.897 0 0 1 .692-.79 13.1 13.1 0 0 1 5.897 0c.404.091.68.442.697.837" fill="#e75a25" fill-rule="evenodd"/></svg>