<svg width="42" height="43" xmlns="http://www.w3.org/2000/svg"><path d="M17.493 11.893c.41-.41.41-.976 0-1.386l-6.9-6.9c-.41-.41-.976-.41-1.386 0L5.714 7.1 14 15.386l3.493-3.493zm-2.348 15.962a1.015 1.015 0 0 1-.052-.048c-4.328-4.328-4.81-8.006-2.802-10.695.09-.12.18-.233.27-.337L4.327 8.541a8.63 8.63 0 0 0-.668.973c-1.204 2.03-1.712 4.555-1.116 7.612.817 4.193 3.65 8.952 8.964 14.267.017.017.033.034.048.052.018.015.035.031.052.048 5.315 5.315 10.074 8.147 14.267 8.964 3.057.596 5.583.088 7.612-1.116a8.63 8.63 0 0 0 .973-.668l-8.234-8.234c-.104.09-.216.18-.337.27-2.69 2.008-6.367 1.526-10.695-2.802a1.015 1.015 0 0 1-.048-.052zm1.41-1.41c.018.015.035.031.052.048 3.658 3.657 6.234 3.995 8.085 2.613.345-.257.57-.508.668-.65a1 1 0 0 1 .147-.178l4.186-4.185c1.19-1.19 3.024-1.19 4.214 0l6.9 6.9c1.19 1.19 1.19 3.024 0 4.214l-4.173 4.174c-.393.451-1.1 1.071-2.128 1.68-5.995 3.556-14.203 1.957-24.313-8.154a1.015 1.015 0 0 1-.048-.052 1.015 1.015 0 0 1-.052-.048C-.017 22.697-1.617 14.49 1.939 8.494c.609-1.028 1.229-1.735 1.68-2.128l4.174-4.173c1.19-1.19 3.024-1.19 4.214 0l6.9 6.9c1.19 1.19 1.19 3.024 0 4.214l-4.185 4.186a.996.996 0 0 1-.179.147 3.126 3.126 0 0 0-.649.668c-1.382 1.851-1.044 4.427 2.613 8.085.017.017.033.034.048.052zM35.9 37.285l3.493-3.492c.41-.41.41-.976 0-1.386l-6.9-6.9c-.41-.41-.976-.41-1.386 0L27.614 29l8.286 8.286zM24.171 2.695a1 1 0 1 1-.296-1.978c4.05-.608 9.072 1.553 12.72 5.202 3.755 3.754 5.912 8.984 5.097 13.058a1 1 0 0 1-1.96-.393c.666-3.334-1.23-7.93-4.55-11.251-3.237-3.236-7.662-5.14-11.01-4.638zm.63 5.943a1 1 0 0 1-.328-1.973c2.552-.425 5.837 1 8.106 3.27 2.392 2.391 3.794 5.683 3.264 8.33a1 1 0 1 1-1.961-.391c.38-1.899-.755-4.563-2.717-6.525-1.853-1.853-4.534-3.016-6.363-2.711z" fill="#e75a24" fill-rule="nonzero"/></svg>