<svg width="263" height="263" xmlns="http://www.w3.org/2000/svg"><defs><linearGradient x1="0%" y1="73.816%" y2="73.816%" id="a"><stop stop-color="#F08325" offset="0%"/><stop stop-color="#E42229" offset="100%"/></linearGradient></defs><g fill="none" fill-rule="evenodd"><path d="M92.58 42.22c-1.12 0-2.03.9-2.03 2.03v6.1c0 1.92-.98 2.9-2.53 2.9-1.55 0-2.45-.98-2.45-2.9v-6.1a2.03 2.03 0 0 0-4.06 0v7.38c0 3.28 1.8 5.3 4.88 5.3 2.05 0 3.25-1.1 4.18-2.3v.17a2.025 2.025 0 0 0 4.05 0V44.25c0-1.12-.9-2.03-2-2.03h-.04zM87.16 64.2c-.86-.2-1.06-.36-1.06-.7v-.02c0-.3.26-.53.72-.53.36 0 .7.12 1.03.34a.38.38 0 0 0 .2.04c.2 0 .38-.16.38-.37a.35.35 0 0 0-.18-.3 2.46 2.46 0 0 0-1.4-.42c-.9 0-1.54.53-1.54 1.3 0 .83.56 1.1 1.5 1.34.84.2 1 .35 1 .67v.02c0 .32-.3.55-.77.55-.5 0-.9-.17-1.26-.46a.36.36 0 0 0-.23-.08.36.36 0 0 0-.2.66 2.78 2.78 0 0 0 1.67.55c.95 0 1.6-.5 1.6-1.33 0-.75-.5-1.1-1.43-1.32l-.03.06zm-15.6-22.53c-3.53 0-6.55 2.46-6.55 5.97v7.16a2.04 2.04 0 1 0 4.08 0v-6.1c0-1.92.98-2.9 2.53-2.9 1.56 0 2.46.98 2.46 2.9v6.1a2.025 2.025 0 0 0 4.05 0v-7.16c0-3.28-2.25-5.96-6.53-5.96l-.04-.01zM92.14 64.2c-.86-.2-1.06-.36-1.06-.7v-.02c0-.3.27-.53.73-.53.37 0 .7.12 1.04.34a.38.38 0 0 0 .2.04c.2 0 .38-.16.38-.37a.35.35 0 0 0-.16-.3 2.46 2.46 0 0 0-1.42-.42c-.9 0-1.53.53-1.53 1.3 0 .83.54 1.1 1.5 1.34.82.2 1 .35 1 .67v.02c0 .32-.3.55-.8.55s-.87-.17-1.24-.46a.36.36 0 0 0-.23-.08.36.36 0 0 0-.22.66 2.78 2.78 0 0 0 1.7.55c.93 0 1.6-.5 1.6-1.33 0-.75-.5-1.1-1.44-1.32l-.05.06zm-9.4.35c0-.86-.64-1.58-1.53-1.58s-1.5.7-1.5 1.57c0 .88.64 1.6 1.53 1.6s1.5-.7 1.5-1.57v-.02zm.8 0c0 1.26-.96 2.32-2.33 2.32-1.35 0-2.3-1.04-2.3-2.3 0-1.27.96-2.33 2.33-2.33 1.38 0 2.33 1.04 2.33 2.3l-.03.01zM59.22 66.1h-2.24v-1.2h1.92a.35.35 0 0 0 .35-.37.36.36 0 0 0-.35-.36h-1.92V63h2.2a.35.35 0 0 0 .36-.34.35.35 0 0 0-.35-.35h-2.6a.4.4 0 0 0-.4.4v3.68a.4.4 0 0 0 .4.4h2.6a.35.35 0 0 0 .36-.36.35.35 0 0 0-.35-.35l.02.02zm-.93-4.3l.4-.4c.08-.07.1-.13.1-.2 0-.1-.24-.25-.44-.25-.13 0-.24.07-.3.2l-.37.55a.3.3 0 0 0-.06.15c0 .08.08.13.2.13.17 0 .3-.03.44-.17l.03-.01zm18.27.5a.38.38 0 0 0-.38.36v2.75l-2.25-2.9c-.1-.12-.22-.22-.4-.22h-.1a.4.4 0 0 0-.4.4v3.74c0 .2.2.38.4.38a.38.38 0 0 0 .4-.38V63.6l2.3 2.98c.1.14.2.24.4.24h.03a.38.38 0 0 0 .37-.4v-3.75a.4.4 0 0 0-.4-.38l.03.01zm-9.6 2.7l-.8-1.8-.77 1.8h1.57zm1.38 1.26a.37.37 0 0 1-.33.54c-.18 0-.3-.1-.38-.27l-.37-.84H65.1l-.37.86a.38.38 0 0 1-.37.25.36.36 0 0 1-.36-.35c0-.06.02-.12.05-.18l1.66-3.7c.1-.2.27-.32.5-.32h.03c.22 0 .38.12.47.32l1.65 3.7-.02-.01zM57.68 50.9c-.7-.3-1.6-.52-2.58-.52-1.73 0-2.8.7-2.8 1.97v.05c0 1.1.9 1.74 2.2 1.74 1.9 0 3.18-1.04 3.18-2.5v-.74zm2.3-7.08c1.06 1.07 1.54 2.64 1.54 4.56v6.5c0 1.1-.88 1.95-1.97 1.95-1.17 0-1.95-.83-1.95-1.68v-.03c-.98 1.1-2.34 1.8-4.32 1.8-2.7 0-4.9-1.53-4.9-4.36v-.05c0-3.1 2.37-4.54 5.76-4.54 1.44 0 2.48.24 3.5.6v-.25c0-1.67-1.05-2.6-3.08-2.6-1.12 0-2.02.15-2.8.4-.23.07-.4.1-.58.1-.93 0-1.68-.7-1.68-1.65 0-.72.45-1.33 1.1-1.57 1.27-.48 2.66-.75 4.55-.75 2.2 0 3.8.6 4.83 1.6v-.03zm62.67-7.15a2.03 2.03 0 1 0 2.02 2.03c0-1.12-.9-2.03-2.02-2.03zM98.08 65l-.8-1.8-.77 1.8h1.6-.03zm1.37 1.28a.37.37 0 0 1-.33.54c-.18 0-.3-.1-.38-.27l-.36-.84H96.2l-.37.88a.38.38 0 0 1-.36.25.36.36 0 0 1-.37-.36c0-.06.02-.12.05-.18l1.66-3.7c.1-.2.27-.34.5-.34h.03c.23 0 .38.13.47.32l1.65 3.7h-.01zm-48.87-1.73c0-.86-.63-1.6-1.52-1.6-.88 0-1.5.72-1.5 1.6 0 .87.63 1.6 1.52 1.6s1.5-.72 1.5-1.58v-.02zm.83 0c0 1.26-.95 2.32-2.33 2.32-1.37 0-2.33-1.05-2.33-2.3v-.02c0-1.25.97-2.3 2.35-2.3 1.38 0 2.32 1.03 2.32 2.3h-.01zm69.8.46l-.8-1.8-.76 1.8h1.57-.01zm1.38 1.3a.37.37 0 0 1-.32.53c-.2 0-.32-.1-.4-.27l-.35-.84h-2.16l-.38.87a.38.38 0 0 1-.36.24.36.36 0 0 1-.38-.36.4.4 0 0 1 .05-.18l1.66-3.7c.1-.2.25-.33.48-.33h.06c.22 0 .37.13.46.32l1.67 3.7-.03.02zm8.13-25.56c1.13 0 2.03-.9 2.03-2.03a2.03 2.03 0 1 0-4.05 0c0 1.13.9 2.04 2.02 2.04v-.01zm0 1.5c-1.1 0-2.02.9-2.02 2.02V54.8a2.025 2.025 0 1 0 4.05 0V44.25c0-1.12-.9-2.03-2.03-2.03v.03zm-8.04 0c-1.13 0-2.03.9-2.03 2.02V54.8a2.025 2.025 0 0 0 4.05 0V44.25c0-1.12-.9-2.03-2.02-2.03v.03zM106.4 54.98a1.7 1.7 0 0 0-1.67-1.7c-.08 0-.34.04-.48.04-.9 0-1.3-.46-1.3-1.4v-6.1h1.78a1.73 1.73 0 1 0 0-3.46h-1.8v-1.8a2.02 2.02 0 0 0-4.04.02v1.77h-.15a1.73 1.73 0 0 0-1.73 1.73c0 .97.77 1.75 1.73 1.75h.13v6.77c0 3.3 1.67 4.3 4.15 4.3.88 0 1.58-.12 2.32-.4.56-.22 1.04-.8 1.04-1.53l.02.01zm1.24 7.3a.4.4 0 0 0-.38.24l-1.3 3.25-1.3-3.23a.4.4 0 1 0-.75.28l1.58 3.68c.1.2.23.3.45.3h.05c.22.02.37-.1.45-.3l1.57-3.7a.45.45 0 0 0 .03-.17.38.38 0 0 0-.4-.38v.03zm2.62 0a.4.4 0 0 0-.4.38v3.75c0 .23.17.4.4.4a.4.4 0 0 0 .4-.4v-3.74a.4.4 0 0 0-.4-.4v.01zm5.67-20.62c-3.53 0-6.55 2.45-6.55 5.96v7.16a2.03 2.03 0 0 0 4.06 0v-6.1c0-1.92.98-2.9 2.53-2.9a2.06 2.06 0 1 0-.04-4.12zm.1 22.88c0-.88-.62-1.52-1.56-1.52h-.9v3.04h.9c.93 0 1.55-.64 1.55-1.5v-.02h.01zm.8-.02v.02c0 1.25-.96 2.23-2.36 2.23h-1.27a.4.4 0 0 1-.4-.4V62.7a.4.4 0 0 1 .4-.4h1.27c1.4 0 2.37.96 2.37 2.22h-.01zM91.13 17.9h6.2v6.2c0 1.07.88 1.95 1.96 1.95h2.53c1.08 0 1.96-.88 1.96-1.96v-6.2h6.2c1.1 0 1.96-.88 1.96-1.96v-2.6A1.97 1.97 0 0 0 110 11.4h-6.2V5.2a1.97 1.97 0 0 0-1.97-1.97H99.3c-1.1 0-1.97.88-1.97 1.96v6.2h-6.2c-1.1 0-1.97.87-1.97 1.95v2.6c0 1.07.88 1.95 1.97 1.95v.01zM24.88 62.33H21.9a.365.365 0 0 0 0 .73H23v3.38a.401.401 0 0 0 .683.283.4.4 0 0 0 .117-.283v-3.38h1.08a.36.36 0 0 0 .36-.37.36.36 0 0 0-.36-.37v.01zm20-20.1c-1.06 0-1.62.7-1.88 1.4l-3.13 8.33-3.07-8.3c-.28-.82-.87-1.43-1.96-1.43-1.1 0-1.97.93-1.97 1.9 0 .37.1.7.2.98l4.38 10.1c.45 1.08 1.2 1.77 2.3 1.77h.2c1.1 0 1.85-.72 2.3-1.76l4.37-10.1c.08-.2.22-.6.22-.95 0-1.1-.9-1.92-1.95-1.92l-.01-.02zM19.5 62.3a.4.4 0 0 0-.4.38v2.2c0 .84-.43 1.25-1.13 1.25s-1.13-.44-1.13-1.27v-2.18a.4.4 0 0 0-.4-.4.4.4 0 0 0-.38.4v2.2c0 1.3.74 1.98 1.9 1.98 1.17 0 1.92-.67 1.92-2v-2.18a.4.4 0 0 0-.4-.4l.02.02zm10.37 1.48c0-.48-.34-.75-.92-.75H27.8v1.5h1.15c.57 0 .92-.3.92-.74v-.03.02zm.43-1c.24.23.37.56.37.95 0 .73-.4 1.16-1 1.35l.84 1.08c.08.1.13.18.13.3a.37.37 0 0 1-.38.36.45.45 0 0 1-.38-.2l-1.1-1.4h-.98v1.2c0 .23-.18.4-.4.4a.4.4 0 0 1-.4-.4v-3.7c0-.22.18-.4.4-.4H29c.55 0 1 .17 1.28.45l.02.01zm-11.15-46.8a3.58 3.58 0 0 0 3.58 3.57h4.58v4.56c0 2 1.6 3.6 3.58 3.6h2.64a3.58 3.58 0 0 0 3.57-3.6v-4.55h4.55a3.58 3.58 0 0 0 3.58-3.58v-2.62a3.58 3.58 0 0 0-3.57-3.58H37.1V5.2a3.58 3.58 0 0 0-3.6-3.6h-2.65a3.58 3.58 0 0 0-3.57 3.57v4.56H22.7a3.58 3.58 0 0 0-3.57 3.58v2.64l.02.03zm-1.6 0v-2.64a5.2 5.2 0 0 1 5.18-5.2h2.96V5.2A5.2 5.2 0 0 1 30.9 0h2.62a5.2 5.2 0 0 1 5.18 5.2v2.94h2.95a5.2 5.2 0 0 1 5.2 5.2v2.62a5.2 5.2 0 0 1-5.2 5.2H38.7v2.95a5.2 5.2 0 0 1-5.2 5.2h-2.63a5.2 5.2 0 0 1-5.2-5.2V21.2h-2.94a5.2 5.2 0 0 1-5.18-5.2v-.02zm-3.92 46.3a.38.38 0 0 0-.37.4v2.74L11 62.52c-.12-.13-.23-.23-.42-.23h-.08a.4.4 0 0 0-.4.4v3.73c0 .2.18.38.4.38.2 0 .38-.16.38-.37V63.6l2.3 2.98c.1.14.22.24.4.24h.04a.38.38 0 0 0 .38-.4v-3.75a.4.4 0 0 0-.4-.38l.03-.01zm-.5-7.48v-7.16c0-3.28-2.28-5.96-6.56-5.96C3 41.68 0 44.13 0 47.64v7.16c0 1.12.9 2.03 2.03 2.03 1.12 0 2.02-.9 2.02-2.03v-6.1c0-1.92 1-2.9 2.53-2.9 1.55 0 2.46.98 2.46 2.9v6.1a2.025 2.025 0 0 0 4.05 0h.04zm17.8-28.75h2.54c1.08 0 1.96-.88 1.96-1.96v-4.57h-6.46v4.55c0 1.07.88 1.95 1.96 1.95v.03zm22.42-10.08a3.58 3.58 0 0 0 3.58 3.58h4.56v4.56c0 2 1.6 3.6 3.57 3.6h2.64a3.58 3.58 0 0 0 3.6-3.6v-4.55h4.55a3.58 3.58 0 0 0 3.58-3.58v-2.62a3.58 3.58 0 0 0-3.58-3.58H71.3V5.2a3.58 3.58 0 0 0-3.6-3.58h-2.63A3.58 3.58 0 0 0 61.5 5.2v4.55h-4.6a3.58 3.58 0 0 0-3.58 3.58v2.63l.03.01zm-1.6 0v-2.63a5.2 5.2 0 0 1 5.18-5.2h2.95V5.2a5.2 5.2 0 0 1 5.2-5.2h2.63a5.2 5.2 0 0 1 5.2 5.2v2.94h2.95a5.2 5.2 0 0 1 5.2 5.2v2.62a5.2 5.2 0 0 1-5.2 5.2H72.9v2.95a5.2 5.2 0 0 1-5.2 5.2h-2.63a5.2 5.2 0 0 1-5.2-5.2V21.2H56.9a5.2 5.2 0 0 1-5.2-5.2l.05-.03zm35.8 0a3.58 3.58 0 0 0 3.57 3.58h4.55v4.56a3.58 3.58 0 0 0 3.58 3.6h2.64a3.58 3.58 0 0 0 3.57-3.6v-4.55H110a3.58 3.58 0 0 0 3.6-3.58v-2.62a3.58 3.58 0 0 0-3.6-3.58h-4.55V5.2a3.58 3.58 0 0 0-3.58-3.58h-2.64a3.58 3.58 0 0 0-3.58 3.57v4.55H91.1a3.58 3.58 0 0 0-3.6 3.58v2.63l.05.02zm-1.62 0v-2.63a5.2 5.2 0 0 1 5.2-5.2h2.94V5.2a5.2 5.2 0 0 1 5.2-5.2h2.63a5.2 5.2 0 0 1 5.2 5.2v2.94h2.9a5.2 5.2 0 0 1 5.2 5.2v2.62a5.2 5.2 0 0 1-5.2 5.2h-2.94v2.95a5.2 5.2 0 0 1-5.2 5.2h-2.63a5.2 5.2 0 0 1-5.2-5.2V21.2H91.1a5.2 5.2 0 0 1-5.2-5.2l.03-.03zM27.37 49.55c0-2.1-1.52-3.94-3.75-3.94-2.32 0-3.7 1.8-3.7 3.9v.06c0 2.1 1.5 3.95 3.75 3.95 2.32 0 3.7-1.8 3.7-3.9v-.07zm4-.05v.05c0 4.1-3.3 7.44-7.75 7.44-4.43 0-7.7-3.3-7.7-7.4v-.06c0-4.1 3.3-7.44 7.75-7.44 4.42 0 7.7 3.3 7.7 7.4v.01zM39 65.62a.36.36 0 0 0-.23.1c-.32.27-.64.42-1.1.42-.87 0-1.5-.7-1.5-1.6 0-.87.64-1.58 1.5-1.58.4 0 .75.16 1.05.4a.38.38 0 0 0 .24.08c.22 0 .4-.16.4-.38a.36.36 0 0 0-.16-.3c-.4-.3-.85-.52-1.54-.52-1.35 0-2.3 1.04-2.3 2.3v.03c0 1.13.75 2.05 1.82 2.25l-.38.56a.26.26 0 0 0-.06.15c0 .13.3.28.45.28.1 0 .2-.04.23-.16l.33-.77c.65-.03 1.1-.24 1.48-.6a.37.37 0 0 0-.24-.65l.01-.01zm3.42-3.8c.08-.13.15-.2.3-.2.22 0 .56.27.9.27.35 0 .53-.24.67-.6a.65.65 0 0 0 0-.15c0-.1-.1-.2-.23-.2-.1 0-.17.04-.2.1-.1.15-.16.22-.3.22-.24 0-.58-.26-.93-.26-.34 0-.52.2-.65.6a.65.65 0 0 0-.04.14c0 .1.1.2.24.2.1 0 .18-.05.22-.12h.02zm1.48 3.2l-.8-1.8-.77 1.8h1.57zm1.37 1.26a.37.37 0 0 1-.33.54c-.18 0-.3-.1-.38-.27l-.36-.84h-2.17l-.38.88a.38.38 0 0 1-.37.25.36.36 0 0 1-.36-.36c0-.06.02-.12.05-.18l1.66-3.7c.1-.2.25-.33.47-.33h.04c.23 0 .38.12.47.32l1.68 3.7-.02-.01zM56.92 17.9h6.2v6.2c0 1.07.9 1.95 1.97 1.95h2.52c1.08 0 1.96-.88 1.96-1.96v-6.2h6.2c1.08 0 1.96-.88 1.96-1.96v-2h-22.8v2c0 1.08.88 1.96 1.97 1.96l.02.01zM33.4 62.7v3.75c0 .22-.17.4-.38.4a.4.4 0 0 1-.4-.4V62.7c0-.22.17-.4.4-.4.2 0 .38.18.38.4z" transform="translate(65 64)" fill="url(#a)"/><g fill-rule="nonzero"><path d="M132 158c-11.045 0-20 8.955-20 20 0 11.046 8.955 20 20 20s20-8.954 20-20c-.001-11.045-8.955-20-20-20zm0 35.568c-8.598 0-15.568-6.969-15.568-15.568 0-8.598 6.97-15.568 15.568-15.568 8.598 0 15.567 6.97 15.567 15.568 0 8.599-6.97 15.568-15.567 15.568z" fill="#FF5300" opacity=".2"/><path d="M139.785 164l2.215-3.525A21.267 21.267 0 0 0 132 158v4.074c2.838 0 5.492.708 7.785 1.926z" fill="#E75A25"/></g></g></svg>