<?xml version="1.0" encoding="UTF-8"?>
<svg width="32px" height="32px" viewBox="0 0 32 32" version="1.1" xmlns="http://www.w3.org/2000/svg" xmlns:xlink="http://www.w3.org/1999/xlink">
    <!-- Generator: Sketch 48.2 (47327) - http://www.bohemiancoding.com/sketch -->
    <title>Facebook Copy</title>
    <desc>Created with Sketch.</desc>
    <defs></defs>
    <g id="iPad" stroke="none" stroke-width="1" fill="none" fill-rule="evenodd" transform="translate(-261.000000, -3085.000000)">
        <g id="icon/social/facebook" transform="translate(261.000000, 3085.000000)">
            <path d="M17.6893781,24.6841305 L17.6893781,17.121673 L20.2497518,17.121673 L20.633077,14.1744593 L17.6893781,14.1744593 L17.6893781,12.2927515 C17.6893781,11.4394822 17.9284012,10.8579333 19.1626811,10.8579333 L20.7368421,10.8572128 L20.7368421,8.22126871 C20.4644688,8.18548232 19.5300984,8.10526316 18.4430277,8.10526316 C16.1734386,8.10526316 14.6196268,9.47867608 14.6196268,12.0010164 L14.6196268,14.1745394 L12.0526316,14.1745394 L12.0526316,17.121753 L14.6195461,17.121753 L14.6195461,24.6842105 L17.6893781,24.6841305 Z" id="Page-1" fill="#E75A25" fill-rule="evenodd"></path>
            <path d="M16.2792887,31.9976133 C7.44407853,32.1518325 0.156706219,25.1144988 0.00248705249,16.2792887 C-0.151732114,7.44407853 6.88560153,0.156706219 15.7208117,0.00248705249 C24.5560218,-0.151732114 31.8433941,6.88560153 31.9976133,15.7208117 C32.1518325,24.5560218 25.1144988,31.8433941 16.2792887,31.9976133 Z M16.2443839,29.9979179 C23.9751927,29.8629761 30.1328597,23.4865254 29.9979179,15.7557165 C29.8629761,8.02490761 23.4865254,1.86724067 15.7557165,2.00218244 C8.02490761,2.13712421 1.86724067,8.51357499 2.00218244,16.2443839 C2.13712421,23.9751927 8.51357499,30.1328597 16.2443839,29.9979179 Z" id="Oval-Copy-3" fill="#F08325" fill-rule="nonzero"></path>
        </g>
    </g>
</svg>